<svg width="67" height="69" viewBox="0 0 67 69" fill="none" xmlns="http://www.w3.org/2000/svg">
<ellipse cx="13.5" cy="55" rx="13.5" ry="14" fill="#E30020"/>
<path d="M62 13H60V11C60 10.7348 59.8946 10.4804 59.7071 10.2929C59.5196 10.1054 59.2652 10 59 10H57V8C57 7.73478 56.8946 7.48043 56.7071 7.29289C56.5196 7.10536 56.2652 7 56 7H8C7.73478 7 7.48043 7.10536 7.29289 7.29289C7.10536 7.48043 7 7.73478 7 8V10H5C4.73478 10 4.48043 10.1054 4.29289 10.2929C4.10536 10.4804 4 10.7348 4 11V17C4 17.2652 4.10536 17.5196 4.29289 17.7071C4.48043 17.8946 4.73478 18 5 18H7V20C7 20.2652 7.10536 20.5196 7.29289 20.7071C7.48043 20.8946 7.73478 21 8 21H10V28C10.0001 28.4799 10.1153 28.9528 10.336 29.379C10.5567 29.8051 10.8763 30.1722 11.2681 30.4493C11.66 30.7264 12.1125 30.9054 12.5879 30.9715C13.0632 31.0375 13.5475 30.9886 14 30.8288V34C14 34.7956 14.3161 35.5587 14.8787 36.1213C15.4413 36.6839 16.2044 37 17 37C17.7956 37 18.5587 36.6839 19.1213 36.1213C19.6839 35.5587 20 34.7956 20 34V25.8288C20.4525 25.9886 20.9368 26.0375 21.4121 25.9715C21.8875 25.9054 22.34 25.7264 22.7319 25.4493C23.1237 25.1722 23.4433 24.8051 23.664 24.379C23.8847 23.9528 23.9999 23.4799 24 23V21H56C56.2652 21 56.5196 20.8946 56.7071 20.7071C56.8946 20.5196 57 20.2652 57 20V18H59C59.2652 18 59.5196 17.8946 59.7071 17.7071C59.8946 17.5196 60 17.2652 60 17V15H62C62.5302 15.0007 63.0385 15.2116 63.4134 15.5866C63.7884 15.9615 63.9993 16.4698 64 17V25C63.9993 25.5302 63.7884 26.0385 63.4134 26.4134C63.0385 26.7884 62.5302 26.9993 62 27H35C34.7348 27 34.4804 27.1054 34.2929 27.2929C34.1054 27.4804 34 27.7348 34 28V32H33C32.7348 32 32.4804 32.1054 32.2929 32.2929C32.1054 32.4804 32 32.7348 32 33V35C31.7348 35 31.4804 35.1054 31.2929 35.2929C31.1054 35.4804 31 35.7348 31 36V60C31.0011 60.7953 31.3175 61.5578 31.8798 62.1202C32.4422 62.6825 33.2047 62.9989 34 63H36C36.7953 62.9989 37.5578 62.6825 38.1202 62.1202C38.6825 61.5578 38.9989 60.7953 39 60V36C39 35.7348 38.8946 35.4804 38.7071 35.2929C38.5196 35.1054 38.2652 35 38 35V33C38 32.7348 37.8946 32.4804 37.7071 32.2929C37.5196 32.1054 37.2652 32 37 32H36V29H62C63.0605 28.9988 64.0772 28.577 64.8271 27.8271C65.577 27.0772 65.9988 26.0605 66 25V17C65.9988 15.9395 65.577 14.9228 64.8271 14.1729C64.0772 13.423 63.0605 13.0012 62 13ZM7 16H6V12H7V16ZM55 19H23C22.7348 19 22.4804 19.1054 22.2929 19.2929C22.1054 19.4804 22 19.7348 22 20V23C22 23.2652 21.8946 23.5196 21.7071 23.7071C21.5196 23.8946 21.2652 24 21 24C20.7348 24 20.4804 23.8946 20.2929 23.7071C20.1054 23.5196 20 23.2652 20 23C20 22.7348 19.8946 22.4804 19.7071 22.2929C19.5196 22.1054 19.2652 22 19 22C18.7348 22 18.4804 22.1054 18.2929 22.2929C18.1054 22.4804 18 22.7348 18 23V34C18 34.2652 17.8946 34.5196 17.7071 34.7071C17.5196 34.8946 17.2652 35 17 35C16.7348 35 16.4804 34.8946 16.2929 34.7071C16.1054 34.5196 16 34.2652 16 34V28C16 27.7348 15.8946 27.4804 15.7071 27.2929C15.5196 27.1054 15.2652 27 15 27C14.7348 27 14.4804 27.1054 14.2929 27.2929C14.1054 27.4804 14 27.7348 14 28C14 28.2652 13.8946 28.5196 13.7071 28.7071C13.5196 28.8946 13.2652 29 13 29C12.7348 29 12.4804 28.8946 12.2929 28.7071C12.1054 28.5196 12 28.2652 12 28V20C12 19.7348 11.8946 19.4804 11.7071 19.2929C11.5196 19.1054 11.2652 19 11 19H9V9H55V19ZM58 16H57V12H58V16ZM34 34H36V35H34V34ZM37 37V60C36.9996 60.2651 36.8942 60.5192 36.7067 60.7067C36.5192 60.8942 36.2651 60.9996 36 61H34C33.7349 60.9996 33.4808 60.8942 33.2933 60.7067C33.1058 60.5192 33.0004 60.2651 33 60V37H37Z" fill="#5A2E91"/>
<path d="M15 19C14.7348 19 14.4804 19.1054 14.2929 19.2929C14.1054 19.4804 14 19.7348 14 20V25C14 25.2652 14.1054 25.5196 14.2929 25.7071C14.4804 25.8946 14.7348 26 15 26C15.2652 26 15.5196 25.8946 15.7071 25.7071C15.8946 25.5196 16 25.2652 16 25V20C16 19.7348 15.8946 19.4804 15.7071 19.2929C15.5196 19.1054 15.2652 19 15 19Z" fill="#5A2E91"/>
<path d="M19 18C18.7348 18 18.4804 18.1054 18.2929 18.2929C18.1054 18.4804 18 18.7348 18 19V20C18 20.2652 18.1054 20.5196 18.2929 20.7071C18.4804 20.8946 18.7348 21 19 21C19.2652 21 19.5196 20.8946 19.7071 20.7071C19.8946 20.5196 20 20.2652 20 20V19C20 18.7348 19.8946 18.4804 19.7071 18.2929C19.5196 18.1054 19.2652 18 19 18Z" fill="#5A2E91"/>
</svg>
