<svg width="1898" height="1080" viewBox="0 0 1898 1080" fill="none" xmlns="http://www.w3.org/2000/svg">
<path opacity="0.2" fill-rule="evenodd" clip-rule="evenodd" d="M1631.44 201.682C1664.92 217.922 1694.65 239.926 1718.86 270.427L1631.44 201.682ZM1474.72 160.012C1501.85 163.691 1528.4 168.251 1553.84 174.517L1756.64 333.42C1767.07 356.903 1774.63 381.663 1779.66 407.261L1474.72 160.012ZM1351.08 146.685C1362.78 147.904 1374.52 149.062 1386.27 150.219C1401.33 151.703 1416.39 153.187 1431.37 154.803L1784.16 435.503C1786.84 457.169 1787.86 479.301 1787.43 501.647L1351.08 146.685ZM1199.82 123.776C1210.81 125.032 1221.81 126.781 1232.8 129.195C1249.18 132.792 1265.97 135.764 1283.04 138.319L1783.33 558.678C1781.81 571.178 1779.88 583.678 1777.59 596.137L1199.82 123.776ZM1083.13 121.448C1090.16 121.38 1097.2 121.267 1104.24 121.154C1117.67 120.939 1131.11 120.724 1144.56 120.821L1772.66 620.41C1768.84 637.631 1764.35 654.717 1759.3 671.554L1083.13 121.448ZM955 107.412C957.748 108.274 960.508 109.087 963.28 109.848C987.794 116.576 1012.41 119.565 1037.09 120.776L1748.71 704.103C1746.1 711.559 1743.38 718.948 1740.57 726.261L955 107.412ZM677.433 -43.8836C710.456 -35.3616 742.229 -18.0101 773.88 2.27056L1729.76 752.868C1725.44 762.973 1720.94 772.895 1716.29 782.605C1714.49 786.376 1712.62 790.094 1710.7 793.762L677.433 -43.8836ZM574.487 -38.0425C582.164 -40.7682 589.985 -43.1149 597.942 -45.0559C606.044 -47.0322 614.035 -48.3159 621.931 -48.9763L1701.94 809.455C1692.59 825.245 1682.13 840.065 1670.74 854.061L574.487 -38.0425ZM501.9 1.5122C516.272 -9.29783 531.441 -18.7478 547.328 -26.5645L1637.98 889.824C1630.46 897.186 1622.66 904.315 1614.64 911.238L501.9 1.5122ZM448.084 52.2458C455.292 43.8874 462.823 35.8821 470.66 28.2883L1598.05 925.012C1585.06 935.412 1571.55 945.362 1557.67 954.971L448.084 52.2458ZM405.444 111.783C414.58 96.3875 424.633 81.5676 435.536 67.5621L1535.38 969.928C1528.32 974.525 1521.18 979.054 1513.99 983.528L405.444 111.783ZM381.384 158.283C384.611 151.059 388.032 143.902 391.641 136.834L1490.47 997.854C1476.33 1006.31 1462.03 1014.61 1447.68 1022.85L381.384 158.283ZM357.728 224.532C361.034 212.313 364.91 200.108 369.329 188.01L1430.76 1032.54C1428.96 1033.57 1427.15 1034.6 1425.34 1035.63C1411.53 1043.53 1397.72 1051.42 1384.01 1059.39L357.728 224.532ZM348.139 315.162C346.081 297.027 346.404 278.518 349.837 259.493C350.241 257.255 350.665 255.015 351.109 252.774L1341.4 1084.83C1339.22 1086.18 1337.05 1087.53 1334.88 1088.88C1327.35 1093.58 1319.84 1098.45 1312.34 1103.45L348.139 315.162ZM399.509 451.232C386.109 427.058 373.683 402.876 364.272 378.286L1292.75 1116.8C1279.4 1126.07 1266.07 1135.67 1252.72 1145.38L399.509 451.232ZM477.682 606.312C467.552 575.721 452.831 546.283 436.885 517.339L1226.44 1164.55C1219.49 1169.62 1212.53 1174.69 1205.56 1179.72L477.682 606.312ZM504.894 736.698C502.874 722.812 500.797 708.9 498.458 695.015L1158.04 1212.94C1145.84 1221.1 1133.59 1228.96 1121.24 1236.36L504.894 736.698ZM525.287 852.717C519.821 830.863 515.758 808.549 512.196 786.002L1096.53 1250.45C1079.23 1259.78 1061.75 1268.05 1044.01 1274.84L525.287 852.717ZM623.738 1047.09C612.591 1029.34 601.721 1011.5 591.002 993.921C582.656 980.23 574.401 966.689 566.179 953.453C563.07 948.449 560.143 943.391 557.384 938.285L978.694 1292.28C961.45 1294.77 943.929 1295.54 926.085 1294.27L623.738 1047.09ZM843.167 1273.64C791.071 1251.03 747.22 1212.46 708.365 1166.42L843.167 1273.64Z" fill="white"/>
</svg>
