<svg width="116" height="116" viewBox="0 0 116 116" fill="none" xmlns="http://www.w3.org/2000/svg">
<g clip-path="url(#clip0)">
<path d="M83.3324 28.5021C82.7326 25.8697 81.0833 25.5884 79.6458 27.8744L71.6406 40.5985C72.4955 42.5165 73.2684 44.826 73.8463 47.3656C74.5563 50.4826 74.8377 53.3899 74.7704 55.7711L87.8734 64.0143C90.1571 65.4518 91.523 64.4839 90.9256 61.8516L83.3324 28.5021Z" fill="#010002"/>
<path d="M26.3285 80.4571L65.6825 71.4995C68.3148 70.8997 69.9621 68.283 69.3623 65.6507L68.3255 61.0941C69.2803 60.3689 69.8104 58.4296 69.8841 55.7734C69.9513 53.3922 69.6676 50.4849 68.9599 47.3678C68.3821 44.8287 67.6092 42.5167 66.7543 40.6008C65.3884 37.5379 63.808 35.505 62.4381 35.228L61.7715 32.2991C61.1717 29.6668 58.5549 28.0196 55.9226 28.6193L16.5678 37.5765C6.06924 39.9664 -1.96617 49.4955 0.423758 59.994L1.7224 65.6956C4.11233 76.1946 15.8295 82.8466 26.3285 80.4571Z" fill="#010002"/>
<path d="M56.6733 85.5546C54.9393 81.8962 50.3524 79.7336 46.4279 80.725L41.2846 82.0236C37.3601 83.015 32.4636 86.6148 30.3507 90.0678L16.8409 112.128C14.726 115.581 15.2175 115.947 17.9362 112.949L37.7127 91.1308C40.4314 88.1327 44.8367 88.1327 47.5534 91.1352L67.3386 112.994C70.0553 115.995 70.8521 115.464 69.118 111.806L56.6733 85.5546Z" fill="#010002"/>
<path d="M86.1703 24.2318C86.1703 24.2318 87.9887 23.2361 90.5928 21.619C91.8874 20.8028 93.4046 19.8571 94.9786 18.7941C96.5869 17.7657 98.1995 16.5622 99.8448 15.3957C101.453 14.1898 103.447 13.3695 104.813 12.0987C106.149 10.7977 106.982 9.16793 107.592 7.66751C108.162 6.1261 108.51 4.71483 108.608 3.58255C108.733 2.47853 108.681 1.72076 108.681 1.72076C108.658 1.355 108.365 1.05611 107.991 1.03024C107.991 1.03024 107.235 0.978107 106.129 1.10387C104.995 1.20138 103.584 1.54763 102.044 2.11914C100.544 2.72966 98.9139 3.56305 97.6129 4.8987C96.3421 6.2646 95.5219 8.25813 94.316 9.8668C93.1491 11.5141 91.9455 13.1247 90.9175 14.733C89.8545 16.3067 88.9089 17.8242 88.0926 19.1189C86.4756 21.7229 85.4798 23.5413 85.4798 23.5413C85.4018 23.6886 85.393 23.8724 85.4798 24.0305C85.6143 24.2776 85.9236 24.3683 86.1703 24.2318Z" fill="#010002"/>
<path d="M114.035 71.7069C113.265 70.6073 112.29 69.475 110.959 68.8235C109.608 68.2086 107.823 68.2281 106.286 67.7628C104.723 67.3449 103.184 66.8817 101.677 66.5724C100.192 66.2194 98.7762 65.9492 97.5683 65.7108C95.1394 65.2539 93.4663 65.0505 93.4663 65.0505C93.3214 65.033 93.1674 65.0788 93.0508 65.1846C92.8386 65.3797 92.8255 65.7084 93.0225 65.9205C93.0225 65.9205 94.1655 67.1587 95.9601 68.8601C96.8627 69.7022 97.9106 70.6892 99.0664 71.687C100.199 72.7261 101.476 73.7044 102.729 74.7241C104.006 75.6983 105.037 77.155 106.327 77.8909C107.634 78.5877 109.124 78.7155 110.466 78.696C111.834 78.6243 113.057 78.4039 114.005 78.066C114.936 77.7651 115.549 77.436 115.549 77.436C115.854 77.2716 116.042 76.9293 115.992 76.5655C115.992 76.5655 115.902 75.877 115.601 74.9465C115.314 73.9778 114.777 72.8567 114.035 71.7069Z" fill="#010002"/>
</g>
<defs>
<clipPath id="clip0">
<rect width="116" height="116" fill="white"/>
</clipPath>
</defs>
</svg>
