<svg width="105" height="105" viewBox="0 0 105 105" fill="none" xmlns="http://www.w3.org/2000/svg">
<g clip-path="url(#clip0)">
<path d="M82.25 101.5C82.2357 103.427 80.6771 104.986 78.75 105H26.25C24.3194 104.994 22.7558 103.431 22.75 101.5C22.7477 99.6428 23.4844 97.861 24.7977 96.5477C26.1109 95.2344 27.8928 94.4977 29.75 94.5H75.25C79.116 94.5 82.25 97.634 82.25 101.5Z" fill="black"/>
<path d="M71.3086 8.75C71.2716 8.8347 71.2423 8.92255 71.2211 9.0125C70.5374 11.1368 70.1488 13.3449 70.0661 15.575V15.75H34.9261V15.6275C34.8497 13.3982 34.467 11.19 33.7886 9.065L33.6836 8.75H71.3086Z" fill="black"/>
<path d="M84.5059 15.0509C85.8735 14.3268 87.4038 13.9653 88.9509 14.0009H96.2484C98.2233 14.0005 100.106 13.1657 101.433 11.7026C102.759 10.2394 103.406 8.28397 103.213 6.31842C102.761 2.66672 99.63 -0.0573313 95.9509 0.000916716H87.4984C81.9947 0.227583 77.1306 3.64817 75.0559 8.75092C74.861 9.18997 74.6915 9.63988 74.5484 10.0984C73.9625 11.9284 73.6327 13.8306 73.5684 15.7509C73.4432 19.7881 74.1459 23.8082 75.6334 27.5634C77.5759 32.6909 80.8659 37.0834 83.0184 42.0709C87.0434 51.4159 87.1834 63.1759 81.5134 71.9084C75.9484 80.4659 66.0959 83.9659 56.2084 84.0009H48.7884C38.9009 83.9659 29.0484 80.4659 23.4834 71.9084C17.8134 63.1759 17.9534 51.4159 21.9784 42.0709C24.1309 37.0834 27.4209 32.6909 29.3634 27.5634C30.8508 23.8082 31.5536 19.7881 31.4284 15.7509C31.364 13.8306 31.0342 11.9284 30.4484 10.0984C30.3052 9.63988 30.1358 9.18997 29.9409 8.75092C27.8662 3.64817 23.0021 0.227583 17.4984 0.000916716H8.74838C6.77342 0.00138187 4.89055 0.836106 3.56404 2.29927C2.23753 3.76243 1.59082 5.71787 1.78338 7.68342C2.23526 11.3351 5.36679 14.0592 9.04588 14.0009H16.0459C17.5983 13.9673 19.1338 14.3286 20.5084 15.0509C23.2909 16.5734 26.0734 20.1784 19.2484 28.3334C8.74838 40.8634 8.74838 56.9809 8.74838 56.9809C8.74838 56.9809 6.99838 91.0009 48.9984 91.0009H55.9984C97.9984 91.0009 96.2484 56.9809 96.2484 56.9809C96.2484 56.9809 96.2484 40.8634 85.7484 28.3334C78.9234 20.1784 81.7059 16.5734 84.5059 15.0509ZM89.2484 5.25092H96.2484C97.2149 5.25092 97.9984 6.03442 97.9984 7.00092C97.9984 7.96742 97.2149 8.75092 96.2484 8.75092H89.2484C88.2819 8.75092 87.4984 7.96742 87.4984 7.00092C87.4984 6.03442 88.2819 5.25092 89.2484 5.25092ZM15.7484 8.75092H8.74838C7.78188 8.75092 6.99838 7.96742 6.99838 7.00092C6.99838 6.03442 7.78188 5.25092 8.74838 5.25092H15.7484C16.7149 5.25092 17.4984 6.03442 17.4984 7.00092C17.4984 7.96742 16.7149 8.75092 15.7484 8.75092Z" fill="black"/>
<path d="M49 19.25V80.5002L48.8075 80.5C47.703 80.5034 46.5991 80.4508 45.5 80.3425V19.25H49Z" fill="black"/>
<path d="M59.4961 19.25V80.3425C58.4028 80.4508 57.3047 80.5034 56.2061 80.5L55.9961 80.5002V19.25H59.4961Z" fill="black"/>
<path d="M69.9961 19.25V77.525C68.8687 78.0845 67.6983 78.5526 66.4961 78.925V19.25H69.9961Z" fill="black"/>
<path d="M80.5 45.2547V66.2197C79.6737 68.3685 78.4904 70.3624 77 72.1172V37.9922C78.033 39.7593 78.9678 41.5821 79.8 43.4522C80.0625 44.0472 80.29 44.6422 80.5 45.2547Z" fill="black"/>
<path d="M28 37.9922V72.1172C26.5096 70.3624 25.3263 68.3685 24.5 66.2197V45.2547C24.71 44.6422 24.9375 44.0472 25.2 43.4522C26.0322 41.5821 26.967 39.7593 28 37.9922Z" fill="black"/>
<path d="M38.5 19.25V78.925C37.2978 78.5526 36.1274 78.0845 35 77.525V19.25H38.5Z" fill="black"/>
</g>
<defs>
<clipPath id="clip0">
<rect width="105" height="105" fill="white"/>
</clipPath>
</defs>
</svg>
