<svg width="152" height="148" viewBox="0 0 152 148" fill="none" xmlns="http://www.w3.org/2000/svg">
<circle cx="90" cy="62" r="62" fill="#F29400"/>
<g clip-path="url(#clip0)">
<path d="M83.3324 60.5021C82.7326 57.8697 81.0833 57.5884 79.6458 59.8744L71.6406 72.5985C72.4955 74.5165 73.2684 76.826 73.8463 79.3656C74.5563 82.4826 74.8377 85.3899 74.7704 87.7711L87.8734 96.0143C90.1571 97.4518 91.523 96.4839 90.9256 93.8516L83.3324 60.5021Z" fill="#010002"/>
<path d="M26.3285 112.457L65.6825 103.5C68.3148 102.9 69.9621 100.283 69.3623 97.6507L68.3255 93.0941C69.2803 92.3689 69.8104 90.4296 69.8841 87.7734C69.9513 85.3922 69.6676 82.4849 68.9599 79.3678C68.3821 76.8287 67.6092 74.5167 66.7543 72.6008C65.3884 69.5379 63.808 67.505 62.4381 67.228L61.7715 64.2991C61.1717 61.6668 58.5549 60.0196 55.9226 60.6193L16.5678 69.5765C6.06924 71.9664 -1.96617 81.4955 0.423758 91.994L1.7224 97.6956C4.11233 108.195 15.8295 114.847 26.3285 112.457Z" fill="#010002"/>
<path d="M56.6733 117.555C54.9393 113.896 50.3524 111.734 46.4279 112.725L41.2846 114.024C37.3601 115.015 32.4636 118.615 30.3507 122.068L16.8409 144.128C14.726 147.581 15.2175 147.947 17.9362 144.949L37.7127 123.131C40.4314 120.133 44.8367 120.133 47.5534 123.135L67.3386 144.994C70.0553 147.995 70.8521 147.464 69.118 143.806L56.6733 117.555Z" fill="#010002"/>
<path d="M86.1703 56.2318C86.1703 56.2318 87.9887 55.2361 90.5928 53.619C91.8874 52.8028 93.4046 51.8571 94.9786 50.7941C96.5869 49.7657 98.1995 48.5622 99.8448 47.3957C101.453 46.1898 103.447 45.3695 104.813 44.0987C106.149 42.7977 106.982 41.1679 107.592 39.6675C108.162 38.1261 108.51 36.7148 108.608 35.5826C108.733 34.4785 108.681 33.7208 108.681 33.7208C108.658 33.355 108.365 33.0561 107.991 33.0302C107.991 33.0302 107.235 32.9781 106.129 33.1039C104.995 33.2014 103.584 33.5476 102.044 34.1191C100.544 34.7297 98.9139 35.563 97.6129 36.8987C96.3421 38.2646 95.5219 40.2581 94.316 41.8668C93.1491 43.5141 91.9455 45.1247 90.9175 46.733C89.8545 48.3067 88.9089 49.8242 88.0926 51.1189C86.4756 53.7229 85.4798 55.5413 85.4798 55.5413C85.4018 55.6886 85.393 55.8724 85.4798 56.0305C85.6143 56.2776 85.9236 56.3683 86.1703 56.2318Z" fill="#010002"/>
<path d="M114.035 103.707C113.265 102.607 112.29 101.475 110.959 100.823C109.608 100.209 107.823 100.228 106.286 99.7628C104.723 99.3449 103.184 98.8817 101.677 98.5724C100.192 98.2194 98.7762 97.9492 97.5683 97.7108C95.1394 97.2539 93.4663 97.0505 93.4663 97.0505C93.3214 97.033 93.1674 97.0788 93.0508 97.1846C92.8386 97.3797 92.8255 97.7084 93.0225 97.9205C93.0225 97.9205 94.1655 99.1587 95.9601 100.86C96.8627 101.702 97.9106 102.689 99.0664 103.687C100.199 104.726 101.476 105.704 102.729 106.724C104.006 107.698 105.037 109.155 106.327 109.891C107.634 110.588 109.124 110.715 110.466 110.696C111.834 110.624 113.057 110.404 114.005 110.066C114.936 109.765 115.549 109.436 115.549 109.436C115.854 109.272 116.042 108.929 115.992 108.566C115.992 108.566 115.902 107.877 115.601 106.947C115.314 105.978 114.777 104.857 114.035 103.707Z" fill="#010002"/>
</g>
<defs>
<clipPath id="clip0">
<rect width="116" height="116" fill="white" transform="translate(0 32)"/>
</clipPath>
</defs>
</svg>
