<svg width="149" height="153" viewBox="0 0 149 153" fill="none" xmlns="http://www.w3.org/2000/svg">
<circle cx="62" cy="91" r="62" fill="#67BAC3"/>
<g clip-path="url(#clip0)">
<path d="M122.791 91.4762C123.149 97.0375 118.656 104.467 117.186 112.468C116.961 113.67 114.193 112.734 114.038 114.042C113.883 115.347 116.198 119.555 116.338 120.742C116.478 121.944 112.837 121.52 112.837 121.52L112.273 122.43H110.732L109.745 119.485C109.745 119.485 102.451 118.645 102.167 119.906C101.883 121.166 101.117 120.186 97.258 122.43C93.3993 124.675 79.3684 123.974 73.9654 123.565C71.4113 123.355 67.4789 121.505 64.9838 121.03C62.2085 120.51 60.9776 121.38 60.4985 121.457C59.5844 121.597 57.4616 120.307 56.9898 119.205C56.5181 118.111 53.1237 110.707 55.0254 109.951C56.9235 109.196 63.5832 106.649 63.8633 105.739C64.1471 104.821 61.91 99.2414 60.2589 98.847C58.6041 98.4453 55.8989 95.7992 54.8153 95.0768C53.765 94.3766 54.9923 92.7955 54.7453 91.2145C54.4837 89.5487 53.319 88.1924 54.4689 87.776C56.7023 86.9504 61.5967 85.152 68.9899 82.5058C71.5661 81.5881 76.0772 82.3731 78.318 81.5255C80.6731 80.641 80.7026 78.1349 81.1264 77.3167C82.5269 74.5821 81.0564 73.1006 81.8967 69.8722C83.0134 65.5971 86.9901 62.2249 87.3071 58.2631C87.5171 55.6685 81.753 46.5139 79.1583 45.5336C77.9495 45.0766 73.501 45.2609 69.6202 45.0397C65.1791 44.7854 61.2872 44.1442 60.5021 44.0189C59.0242 43.783 51.2035 38.5239 51.2035 38.5239C51.2035 38.5239 51.4873 40.9747 50.5033 41.7486C49.5192 42.5189 49.8399 38.6824 49.1396 39.6258C48.4394 40.5619 48.4357 40.4882 47.9418 41.229C47.4516 41.9624 48.6458 45.0139 48.1187 45.5078C47.5917 45.9943 47.3742 44.3653 47.3742 44.3653C47.3742 44.3653 47.0683 45.751 46.6445 45.154C46.2244 44.5569 45.9111 41.697 45.9111 41.697C45.9111 41.697 45.2071 44.24 44.8238 43.5361C44.4369 42.8432 45.2845 41.0116 45.2845 41.0116C45.2845 41.0116 48.5794 34.8827 50.4001 34.8421C52.2281 34.7979 60.4358 39.6406 66.7491 39.7806C73.0661 39.9243 72.7824 38.5202 80.006 38.2364C78.6755 37.046 78.6718 35.7709 78.7419 34.4478C78.8156 33.1247 76.5711 31.9675 76.5011 27.7035C76.431 23.4394 82.5675 22.0684 84.7604 22.0869C86.9533 22.1053 88.5344 23.1372 89.1277 24.2871C89.9717 25.8939 91.1621 26.104 92.1462 26.3177C92.8649 26.4688 91.586 27.7182 91.586 27.7182L93.4066 30.4528C93.4066 30.4528 93.9337 31.47 92.7396 32.0007C91.5491 32.524 89.6105 32.8999 89.1756 33.0289C88.7371 33.1579 88.4938 34.3851 89.2936 35.2954C89.8132 35.8925 92.0725 38.9772 93.1966 37.5399C93.5614 37.0755 94.2506 35.4539 95.0025 33.3901C95.5221 31.9896 96.6647 30.567 97.1548 28.9786C98.1647 25.7539 98.3563 22.448 98.2494 21.3719C98.091 19.9051 95.9681 12.5785 93.473 8.8488C92.629 7.58838 88.7887 7.52573 88.4717 7.54047C87.6535 7.57364 85.2579 7.78002 85.1584 6.96923C85.0589 6.14738 88.2432 6.32796 88.6449 6.07735C89.0466 5.82674 87.5835 4.00246 87.5835 4.00246C87.5835 4.00246 85.8107 4.3194 85.6265 3.8145C85.4459 3.31328 86.9938 2.88946 86.9938 2.88946C86.9938 2.88946 85.022 0.925121 85.1989 0.118012C85.3758 -0.692783 88.0921 2.93 89.1978 3.2064C90.6351 3.5602 93.5762 3.77027 95.1204 5.59088C99.2851 10.5109 103.247 18.8474 103.402 20.4984C103.523 21.8473 103.015 26.0708 102.521 30.8103C102.012 35.7561 99.93 38.9551 99.9964 41.2622C100.026 42.3199 100.763 43.0901 101.611 44.6306C102.801 46.805 100.347 48.0692 100.14 58.4584C100.052 62.9546 101.268 69.9274 101.268 69.9274C101.268 69.9274 103.649 66.312 105.963 66.3784C108.278 66.4521 108.838 65.1917 112.417 62.8035C115.999 60.4153 114.941 57.0763 115.925 55.1562C116.906 53.2361 119.364 47.7153 121.255 48.8394C123.153 49.9598 128.482 56.5604 129.182 64.1339C129.882 71.7149 126.175 71.3537 126.521 75.5293C126.864 79.7086 122.445 85.9075 122.791 91.4762Z" fill="black"/>
</g>
<defs>
<clipPath id="clip0">
<rect width="124" height="124" fill="white" transform="translate(25)"/>
</clipPath>
</defs>
</svg>
