<svg width="180" height="132" viewBox="0 0 180 132" fill="none" xmlns="http://www.w3.org/2000/svg">
<circle cx="62" cy="70" r="62" fill="#EFC825"/>
<path d="M169.15 10.8515C165.746 7.4507 161.192 5.44774 156.386 5.2372C151.579 5.02666 146.868 6.62381 143.18 9.71401L170.287 36.8215C173.377 33.1337 174.975 28.4223 174.764 23.6155C174.553 18.8087 172.55 14.255 169.15 10.8515Z" fill="black"/>
<path d="M136.301 23.3797C136.087 27.1231 136.971 30.8476 138.844 34.0957C140.717 37.3438 143.498 39.9741 146.846 41.6636C150.193 43.3531 153.961 44.0282 157.687 43.606C161.413 43.1838 164.934 41.6828 167.818 39.2872L140.711 12.1797C138.08 15.3447 136.534 19.2705 136.301 23.3797Z" fill="black"/>
<path d="M97.2578 77.5638L102.438 82.7438L106.533 79.4013L100.6 73.4688L97.2578 77.5638Z" fill="black"/>
<path d="M139.456 40.5475C137.135 38.2384 135.349 35.4488 134.223 32.375L102.828 70.7525L109.251 77.175L147.646 45.78C144.572 44.6436 141.779 42.859 139.456 40.5475ZM123.366 59.1115L120.892 56.637L123.366 54.1625L125.841 56.637L123.366 59.1115ZM127.078 55.3997L124.603 52.9252L127.078 50.4508L129.552 52.9252L127.078 55.3997ZM130.79 51.688L128.315 49.2135L130.791 46.7373L133.266 49.2118L130.79 51.688Z" fill="black"/>
<path d="M81.7875 52.2871C81.0534 53.0213 80.5534 53.9568 80.3509 54.9752C80.1484 55.9935 80.2525 57.0491 80.6498 58.0084C81.0472 58.9676 81.7201 59.7875 82.5835 60.3643C83.4468 60.9412 84.4618 61.2491 85.5001 61.2491C86.5384 61.2491 87.5534 60.9412 88.4168 60.3643C89.2801 59.7875 89.953 58.9676 90.3504 58.0084C90.7478 57.0491 90.8518 55.9935 90.6493 54.9752C90.4468 53.9568 89.9469 53.0213 89.2127 52.2871L78.074 41.1518L83.0248 36.2011L80.5503 33.7266L73.125 41.1518L83.275 51.2931C82.723 51.5315 82.219 51.8683 81.7875 52.2871Z" fill="black"/>
<path d="M103 29.75C104.392 29.75 105.728 29.1969 106.712 28.2123C107.697 27.2277 108.25 25.8924 108.25 24.5V8.75H115.25V5.25H104.75V19.572C104.19 19.3647 103.598 19.2558 103 19.25C101.608 19.25 100.272 19.8031 99.2877 20.7877C98.3031 21.7723 97.75 23.1076 97.75 24.5C97.75 25.8924 98.3031 27.2277 99.2877 28.2123C100.272 29.1969 101.608 29.75 103 29.75Z" fill="black"/>
<path d="M145 84.322C144.44 84.1147 143.848 84.0058 143.25 84C142.212 84 141.197 84.3079 140.333 84.8848C139.47 85.4617 138.797 86.2816 138.4 87.2409C138.002 88.2002 137.898 89.2558 138.101 90.2742C138.303 91.2926 138.803 92.2281 139.538 92.9623C140.272 93.6965 141.207 94.1966 142.226 94.3991C143.244 94.6017 144.3 94.4977 145.259 94.1004C146.218 93.703 147.038 93.0301 147.615 92.1667C148.192 91.3034 148.5 90.2884 148.5 89.25V73.5H159V80.822C158.44 80.6147 157.848 80.5058 157.25 80.5C156.212 80.5 155.197 80.8079 154.333 81.3848C153.47 81.9617 152.797 82.7816 152.4 83.7409C152.002 84.7002 151.898 85.7558 152.101 86.7742C152.303 87.7926 152.803 88.7281 153.538 89.4623C154.272 90.1965 155.207 90.6966 156.226 90.8991C157.244 91.1017 158.3 90.9977 159.259 90.6004C160.218 90.203 161.038 89.5301 161.615 88.6667C162.192 87.8034 162.5 86.7884 162.5 85.75V70H145V84.322Z" fill="black"/>
<path d="M94.6178 90.6345C94.4349 90.4537 94.2898 90.2384 94.1907 90.0011C94.0916 89.7638 94.0406 89.5092 94.0406 89.252C94.0406 88.9949 94.0916 88.7403 94.1907 88.503C94.2898 88.2656 94.4349 88.0503 94.6178 87.8695L98.6253 83.8795L96.1403 81.3945L92.1328 85.3845C91.1154 86.4147 90.5449 87.8042 90.5449 89.252C90.5449 90.6999 91.1154 92.0894 92.1328 93.1195L98.2578 99.2445C98.6245 99.6112 98.8305 100.108 98.8305 100.627C98.8305 101.146 98.6245 101.643 98.2578 102.01C97.8911 102.376 97.3938 102.582 96.8753 102.582C96.3568 102.582 95.8595 102.376 95.4928 102.01L81.4928 88.0095C80.4627 86.9921 79.0732 86.4216 77.6253 86.4216C76.1775 86.4216 74.7879 86.9921 73.7578 88.0095L72.8828 88.8845C71.8654 89.9147 71.2949 91.3042 71.2949 92.752C71.2949 94.1999 71.8654 95.5894 72.8828 96.6195L75.5078 99.2445C75.6907 99.4253 75.8358 99.6406 75.9349 99.878C76.034 100.115 76.085 100.37 76.085 100.627C76.085 100.884 76.034 101.139 75.9349 101.376C75.8358 101.613 75.6907 101.829 75.5078 102.01L70.2578 107.26L72.7428 109.745L77.9928 104.495C79.0102 103.464 79.5807 102.075 79.5807 100.627C79.5807 99.1792 79.0102 97.7897 77.9928 96.7595L75.3678 94.1345C75.185 93.9537 75.0398 93.7384 74.9407 93.5011C74.8416 93.2638 74.7906 93.0092 74.7906 92.752C74.7906 92.4949 74.8416 92.2403 74.9407 92.003C75.0398 91.7656 75.185 91.5503 75.3678 91.3695L76.2428 90.4945C76.4236 90.3117 76.6389 90.1665 76.8762 90.0674C77.1135 89.9683 77.3681 89.9173 77.6253 89.9173C77.8825 89.9173 78.1371 89.9683 78.3744 90.0674C78.6117 90.1665 78.827 90.3117 79.0078 90.4945L93.0078 104.495C94.0335 105.52 95.4247 106.097 96.8753 106.097C98.3259 106.097 99.7171 105.52 100.743 104.495C101.769 103.469 102.345 102.078 102.345 100.627C102.345 99.1764 101.769 97.7853 100.743 96.7595L94.6178 90.6345Z" fill="black"/>
</svg>
