<svg width="617" height="319" viewBox="0 0 617 319" fill="none" xmlns="http://www.w3.org/2000/svg">
<g clip-path="url(#clip0)">
<path d="M518.055 196.891L518.055 238.665L518.202 238.665L518.202 196.891L518.055 196.891Z" fill="#715F7A"/>
<path d="M321.043 183.168L321.043 197.044L321.19 197.044L321.19 183.168L321.043 183.168Z" fill="#715F7A"/>
<path d="M321.043 138.619L321.043 156.731L321.19 156.731L321.19 138.619L321.043 138.619Z" fill="#715F7A"/>
<path d="M123.89 230.188L123.89 212.076L123.742 212.076L123.742 236.468L123.89 236.468L123.89 230.188Z" fill="#715F7A"/>
<path d="M518.055 254.458L518.055 295.063L518.202 295.063L518.202 254.458L518.055 254.458Z" fill="#715F7A"/>
<path d="M321.043 197.043L321.043 197.189L419.549 197.189L419.549 196.897L419.695 196.897L419.695 183.167L321.043 183.167L321.043 197.043Z" fill="#715F7A"/>
<path d="M321.043 138.619L321.043 156.731L419.695 156.731L419.695 138.619L321.043 138.619Z" fill="#715F7A"/>
<path d="M321.043 98.7356L321.043 112.173L419.695 112.173L419.695 98.7356L321.043 98.7356Z" fill="#715F7A"/>
<path d="M251.811 186.806C252.542 186.806 252.982 185.637 253.128 185.637L254.445 187.536L263.666 197.468L321.189 197.468L321.189 182.862L272.009 182.862L272.009 156.425L321.336 156.425L321.336 138.313L272.009 138.313L272.009 111.876L321.336 111.876L321.336 98.438L222.391 98.438L222.391 197.03L243.907 197.03C246.095 193.3 248.751 189.865 251.811 186.806Z" fill="#715F7A"/>
<path d="M419.402 79.8978C414.54 74.6684 407.928 71.3953 400.814 70.6959C395.664 71.5298 390.961 74.1089 387.494 77.999C381.092 84.9496 372.326 89.2716 362.904 90.1222L362.172 90.1222C360.807 90.1951 359.439 90.1951 358.074 90.1222C347.69 89.5975 337.877 85.2219 330.557 77.853L329.386 76.5384L330.85 75.2238L340.803 66.0219C345.839 71.2378 352.599 74.4551 359.831 75.0778C365.025 74.2774 369.755 71.6322 373.15 67.6286C379.827 60.7292 388.874 56.6068 398.472 56.0896L399.204 56.0896C400.715 56.0036 402.23 56.0036 403.741 56.0896C409.521 56.4327 415.138 58.1343 420.134 61.0558L420.134 54.483C415.234 49.5854 408.75 46.5832 401.838 46.0113C396.677 46.9069 391.978 49.5351 388.519 53.4605C382.117 60.4111 373.351 64.7331 363.929 65.5837L363.197 65.5837C361.832 65.6566 360.464 65.6566 359.099 65.5837C348.102 64.8556 337.841 59.8146 330.557 51.5617L329.386 50.2472L330.85 49.0787L340.803 39.7306C345.798 45.0026 352.581 48.2307 359.831 48.7865C365.474 48.3403 370.723 45.7214 374.467 41.4834C380.858 34.5405 389.641 30.2626 399.057 29.5063L399.789 29.5063C401.154 29.4361 402.522 29.4361 403.887 29.5063C409.68 29.7802 415.313 31.4867 420.281 34.4724L420.281 26.8772C415.323 22.0846 408.861 19.1442 401.985 18.5516C396.835 19.3855 392.131 21.9646 388.665 25.8547C382.307 32.8636 373.517 37.1975 364.075 37.9779L363.343 37.9779C361.978 38.0508 360.61 38.0508 359.245 37.9779C348.326 37.5154 338.025 32.7952 330.557 24.8323C330.557 24.102 329.532 23.6638 329.386 23.6638L330.85 22.4953L340.803 13.1473C345.861 18.3094 352.619 21.4736 359.831 22.0571C364.992 21.2584 369.707 18.6731 373.15 14.754C379.526 7.76874 388.306 3.43966 397.74 2.63079L398.472 2.63079C399.837 2.56058 401.205 2.56058 402.57 2.63079C408.35 2.97384 413.967 4.67549 418.963 7.59692L418.963 0.147731L321.043 0.147736L321.043 98.4478L419.695 98.4477L419.695 80.1899L419.402 79.8978Z" fill="#715F7A"/>
<path d="M535.473 22.0572C540.667 21.2322 545.42 18.6544 548.939 14.754C555.296 7.7452 564.087 3.41125 573.528 2.63086C574.893 2.55536 576.262 2.55536 577.627 2.63086C587.795 3.58841 597.265 8.20974 604.266 15.6304L605.583 16.945L604.119 18.2595L594.752 26.8772C589.867 22.0643 583.443 19.1175 576.602 18.5517C571.441 19.3504 566.726 21.9357 563.283 25.8548C556.871 32.8729 548.032 37.2049 538.546 37.978C537.23 38.0507 535.911 38.0507 534.594 37.978C529.496 37.7922 524.501 36.4961 519.958 34.1803L519.958 41.4834C524.251 45.4558 529.67 48.0066 535.473 48.7866C540.698 47.9577 545.465 45.3207 548.939 41.3374C555.311 34.3707 564.104 30.088 573.528 29.3603C574.893 29.2848 576.262 29.2848 577.627 29.3603C587.898 29.8756 597.607 34.1989 604.851 41.4834L606.169 42.6519L604.705 43.8204L594.752 53.1684C589.889 48.302 583.462 45.3023 576.602 44.6968C571.429 45.558 566.719 48.1923 563.283 52.146C556.827 59.1061 548.012 63.4264 538.546 64.2692C537.23 64.3422 535.911 64.3423 534.594 64.2692C529.507 64.1336 524.511 62.8872 519.958 60.6176L519.958 68.0668C524.256 71.9823 529.688 74.4369 535.473 75.0778C540.698 74.2489 545.465 71.6119 548.939 67.6286C555.38 60.9033 564.086 56.7933 573.382 56.0897C574.747 56.0142 576.115 56.0142 577.48 56.0897C587.667 56.9803 597.16 61.6127 604.119 69.0892L605.437 70.2577L603.973 71.4262L594.02 80.7742C589.372 75.2829 582.858 71.6946 575.724 70.6959C570.563 71.4946 565.848 74.0799 562.404 77.999C555.949 84.9591 547.134 89.2794 537.668 90.1222C536.352 90.195 535.033 90.195 533.716 90.1222C528.618 89.9365 523.623 88.6403 519.079 86.3246L519.079 98.4478L536.936 98.4478L536.936 92.4592L552.451 92.4592L552.451 98.4478L560.209 98.4478L560.209 92.4592L575.724 92.4592L575.724 98.4478L583.481 98.4478L583.481 92.4592L598.997 92.4592L598.997 98.4478L617 98.4477L617 0.00173519L518.348 0.0017395L518.348 14.608C523.011 19.0079 529.069 21.6429 535.473 22.0572Z" fill="#715F7A"/>
<path d="M575.722 173.223L575.722 98.4387L575.722 92.4502L560.207 92.4502L560.207 98.4387L560.207 173.223L575.722 173.223Z" fill="#715F7A"/>
<path d="M598.996 173.223L598.996 98.4387L598.996 92.4502L583.48 92.4502L583.48 98.4387L583.48 173.223L598.996 173.223Z" fill="#715F7A"/>
<path d="M552.453 173.223L552.453 98.4387L552.453 92.4502L536.937 92.4502L536.937 98.4387L536.938 173.223L552.453 173.223Z" fill="#715F7A"/>
<path d="M124.767 20.1664C129.651 24.9792 136.075 27.9261 142.916 28.4919C148.142 27.663 152.909 25.026 156.382 21.0427C162.79 14.1232 171.563 9.85006 180.972 9.06565L181.704 9.06565C183.069 8.99016 184.437 8.99016 185.802 9.06565C196.423 9.90212 206.321 14.7623 213.466 22.6494L214.783 23.8179L213.32 24.9864L203.22 34.3344C198.225 29.0624 191.442 25.8343 184.192 25.2785C178.998 26.1035 174.245 28.6813 170.726 32.5816C164.325 39.5322 155.558 43.8542 146.137 44.7048L145.405 44.7048C144.04 44.7803 142.671 44.7803 141.306 44.7048C135.103 44.3504 129.099 42.387 123.889 39.0084L123.889 65.4456L124.913 64.5693C129.846 69.312 136.244 72.2468 143.063 72.8948C148.288 72.0659 153.055 69.4289 156.529 65.4456C162.937 58.5261 171.71 54.2529 181.119 53.4685L181.85 53.4685C183.215 53.393 184.584 53.393 185.949 53.4685C196.518 54.3412 206.357 59.1984 213.466 67.0523L214.783 68.2208L213.32 69.3893L203.22 78.7373C198.225 73.4653 191.442 70.2372 184.192 69.6814C178.998 70.5064 174.245 73.0842 170.726 76.9846C164.325 83.9351 155.558 88.2571 146.137 89.1077L145.405 89.1077C137.8 89.8642 130.173 87.8968 123.889 83.5573L123.889 98.1636L222.541 98.1636L222.541 63.6929C219.047 63.6929 215.696 62.3079 213.226 59.8426C210.756 57.3773 209.368 54.0337 209.368 50.5473C209.368 47.0609 210.756 43.7172 213.226 41.252C215.696 38.7867 219.047 37.4017 222.541 37.4017L222.541 -0.282353L123.742 -0.282349L123.742 21.0427L124.767 20.1664Z" fill="#715F7A"/>
<path d="M96.3693 36.9537C93.221 37.195 90.2153 38.363 87.7327 40.31C85.2501 42.257 83.4022 44.8953 82.4231 47.8909C81.444 50.8865 81.3777 54.1047 82.2325 57.1379C83.0873 60.1712 84.8249 62.8831 87.2251 64.9303C89.6254 66.9775 92.5804 68.2679 95.7161 68.6382C98.8517 69.0085 102.027 68.442 104.84 67.0103C107.653 65.5787 109.976 63.3463 111.517 60.5959C113.058 57.8456 113.746 54.7008 113.494 51.5599C113.158 47.3593 111.167 43.4631 107.957 40.7252C104.747 37.9873 100.58 36.631 96.3693 36.9537Z" fill="#715F7A"/>
<path d="M59.6319 57.118C56.475 57.331 53.4528 58.476 50.9495 60.4073C48.4463 62.3387 46.5751 64.9692 45.5738 67.9645C44.5725 70.9598 44.4863 74.1846 45.3263 77.2289C46.1663 80.2731 47.8944 82.9994 50.2909 85.0611C52.6875 87.1228 55.6443 88.4268 58.7854 88.8073C61.9266 89.1878 65.1101 88.6277 67.9314 87.198C70.7527 85.7684 73.0843 83.5339 74.6297 80.7786C76.1752 78.0233 76.8647 74.8716 76.6106 71.7242C76.2738 67.5508 74.303 63.6778 71.1251 60.944C67.9472 58.2102 63.8181 56.8356 59.6319 57.118Z" fill="#715F7A"/>
<path d="M59.6324 12.2814C57.5372 12.4252 55.491 12.9795 53.6106 13.9125C51.7301 14.8455 50.0522 16.139 48.6726 17.7191C47.2931 19.2992 46.2389 21.135 45.5703 23.1217C44.9018 25.1083 44.6318 27.2069 44.776 29.2977C44.9202 31.3884 45.4756 33.4304 46.4105 35.3069C47.3455 37.1835 48.6417 38.8579 50.2251 40.2345C51.8085 41.6112 53.6481 42.6631 55.639 43.3303C57.6298 43.9975 59.7328 44.2669 61.8279 44.123C66.0592 43.8325 70.0015 41.8764 72.7877 38.6853C75.5738 35.4941 76.9754 31.3292 76.6843 27.1067C76.3931 22.8843 74.433 18.9502 71.2352 16.1699C68.0373 13.3896 63.8637 11.9909 59.6324 12.2814Z" fill="#715F7A"/>
<path d="M469.317 183.17C469.39 181.953 469.39 180.734 469.317 179.518C468.68 171.239 464.913 163.511 458.778 157.901C455.291 154.825 452.967 150.649 452.192 146.07C452.767 140.02 455.401 134.35 459.657 130.003L451.46 121.239L450.435 119.925L449.411 121.093C442.808 127.26 438.695 135.624 437.848 144.609L437.848 148.845C438.566 157.133 442.379 164.849 448.533 170.462C452.014 173.522 454.296 177.714 454.973 182.293C454.101 187.799 451.545 192.9 447.654 196.899L464.779 196.899C467.156 192.695 468.51 187.992 468.731 183.17" fill="#715F7A"/>
<path d="M484.102 122.408L484.102 196.899L499.909 196.899L499.909 122.408L484.102 122.408Z" fill="#715F7A"/>
<path d="M470.05 155.423C472.098 155.274 474.056 154.523 475.676 153.265C477.296 152.006 478.507 150.297 479.155 148.353C479.803 146.409 479.86 144.317 479.318 142.341C478.775 140.365 477.659 138.593 476.108 137.25C474.558 135.906 472.644 135.051 470.607 134.792C468.571 134.534 466.503 134.883 464.664 135.795C462.826 136.708 461.3 138.144 460.279 139.921C459.258 141.699 458.787 143.738 458.926 145.783C459.019 147.146 459.381 148.477 459.991 149.7C460.601 150.923 461.447 152.014 462.48 152.91C463.514 153.806 464.715 154.489 466.014 154.92C467.313 155.351 468.685 155.522 470.05 155.423Z" fill="#715F7A"/>
<path d="M239.078 216.771L239.078 218.232C239.9 227.569 244.179 236.266 251.08 242.624C255.059 246.019 257.661 250.744 258.399 255.916C258.109 263.152 255.136 270.023 250.056 275.196L259.423 285.128L260.594 286.589C260.594 286.589 260.594 286.589 261.765 285.42C269.226 278.469 273.819 268.99 274.646 258.837L274.646 254.017C273.783 244.691 269.511 236.008 262.643 229.625C258.551 226.399 255.706 221.856 254.593 216.771C255.16 209.944 258.113 203.534 262.936 198.659L254.447 187.559L253.276 186.098C253.276 186.098 253.276 186.098 251.958 187.266C248.899 190.325 246.243 193.761 244.055 197.491C241.101 202.465 239.394 208.077 239.078 213.85L239.078 216.771Z" fill="#715F7A"/>
<path d="M293.53 258.238C296.636 258.025 299.53 256.59 301.574 254.248C303.619 251.906 304.648 248.849 304.435 245.75C304.221 242.651 302.783 239.763 300.436 237.722C298.089 235.682 295.026 234.655 291.92 234.868C290.383 234.974 288.881 235.38 287.501 236.065C286.12 236.75 284.889 237.699 283.876 238.859C282.864 240.018 282.09 241.366 281.599 242.824C281.108 244.282 280.91 245.822 281.016 247.356C281.122 248.891 281.529 250.39 282.215 251.767C282.901 253.144 283.853 254.373 285.015 255.384C286.177 256.394 287.527 257.166 288.988 257.656C290.449 258.146 291.993 258.344 293.53 258.238Z" fill="#715F7A"/>
<path d="M123.739 196.888L123.739 174.832L122.714 174.832C119.547 174.614 116.368 174.614 113.201 174.832L111.005 174.832C89.0711 176.847 68.6967 187.013 53.9214 203.315C46.0017 212.459 35.1297 218.555 23.1841 220.55C23.1841 220.55 22.3059 220.55 21.8668 220.55C5.84498 219.074 -9.18698 212.167 -20.7264 200.978L-20.7264 200.247C-20.7264 199.517 -21.7509 199.079 -21.8973 199.079L-46.6335 220.988L-50 223.909L-47.0726 226.977C-30.64 244.358 -8.41785 255.16 15.4266 257.358C18.594 257.579 21.7731 257.579 24.9405 257.358L26.6969 257.358C48.7629 255.366 69.2831 245.206 84.2196 228.876C92.3732 219.617 103.497 213.473 115.689 211.494L116.86 211.494C119.15 211.343 121.448 211.343 123.739 211.494L123.739 196.888L176.578 196.888L123.739 196.888Z" fill="#715F7A"/>
<path d="M123.739 112.469C123.401 112.54 123.052 112.54 122.714 112.469C119.547 112.251 116.368 112.251 113.201 112.469L111.005 112.469C89.1155 114.528 68.7724 124.627 53.9214 140.806C45.9924 149.992 35.1406 156.18 23.1841 158.333L21.2813 158.333C5.43161 156.746 -9.39442 149.786 -20.7264 138.615L-20.7264 137.884C-20.7264 137.884 -21.7509 136.862 -21.8973 136.862L-46.6335 158.333L-50 161.4L-47.0726 164.322C-30.704 181.812 -8.45665 192.679 15.4266 194.849C18.5941 195.069 21.773 195.069 24.9405 194.849C25.5238 194.92 26.1137 194.92 26.6969 194.849C48.7242 193.056 69.2645 183.042 84.2196 166.805C92.3732 157.546 103.497 151.402 115.689 149.423C115.689 149.423 116.567 149.423 116.86 149.423C119.167 149.514 121.465 149.758 123.739 150.154L123.739 112.908L123.739 112.469Z" fill="#715F7A"/>
<path d="M569.138 267.88C573.472 267.58 577.619 266.004 581.055 263.351C584.49 260.698 587.06 257.088 588.439 252.977C589.818 248.867 589.944 244.44 588.801 240.258C587.658 236.076 585.298 232.326 582.018 229.483C578.739 226.64 574.688 224.832 570.379 224.287C566.069 223.742 561.694 224.485 557.808 226.423C553.922 228.36 550.699 231.404 548.547 235.169C546.395 238.935 545.411 243.253 545.719 247.577C546.132 253.366 548.83 258.756 553.22 262.562C557.611 266.369 563.336 268.281 569.138 267.88Z" fill="#715F7A"/>
<path d="M467.849 26.8732C463.521 27.1708 459.378 28.7412 455.944 31.3861C452.509 34.0311 449.937 37.6321 448.552 41.7345C447.167 45.837 447.03 50.257 448.16 54.4367C449.29 58.6165 451.635 62.3685 454.9 65.2192C458.165 68.07 462.203 69.8916 466.504 70.4543C470.806 71.0169 475.178 70.2953 479.068 68.3806C482.959 66.4658 486.194 63.4438 488.365 59.6958C490.537 55.9479 491.546 51.6421 491.268 47.322C491.082 44.4426 490.328 41.6282 489.049 39.0404C487.77 36.4526 485.991 34.1423 483.815 32.2423C481.639 30.3423 479.109 28.8899 476.369 27.9685C473.629 27.0471 470.733 26.6749 467.849 26.8732Z" fill="#715F7A"/>
<path d="M518.051 295.054L518.051 254.449L442.232 254.449L442.232 238.674L518.197 238.674L518.197 196.9L419.691 196.9L419.691 205.372L419.691 219.978L419.691 226.697L419.691 241.303L419.691 249.191L419.691 263.797L419.691 271.684L419.691 286.29L419.691 295.346L420.862 295.346L518.051 295.054ZM481.898 263.066C483.946 262.928 485.99 263.397 487.771 264.416C489.552 265.436 490.991 266.958 491.906 268.793C492.821 270.627 493.171 272.691 492.911 274.723C492.652 276.756 491.795 278.666 490.449 280.213C489.102 281.76 487.327 282.874 485.347 283.415C483.367 283.956 481.27 283.9 479.322 283.253C477.374 282.606 475.661 281.398 474.4 279.781C473.139 278.164 472.387 276.211 472.238 274.167C472.118 272.801 472.275 271.424 472.699 270.119C473.124 268.814 473.807 267.608 474.709 266.572C475.61 265.536 476.711 264.692 477.946 264.09C479.181 263.488 480.525 263.14 481.898 263.066ZM481.898 210.922C483.263 210.823 484.635 210.994 485.934 211.425C487.233 211.856 488.434 212.539 489.468 213.435C490.501 214.331 491.347 215.422 491.957 216.645C492.567 217.868 492.929 219.199 493.022 220.562C493.106 223.256 492.151 225.879 490.353 227.891C488.556 229.902 486.053 231.148 483.362 231.371C481.996 231.47 480.625 231.299 479.325 230.868C478.026 230.437 476.826 229.754 475.792 228.858C474.758 227.962 473.912 226.871 473.302 225.648C472.692 224.425 472.33 223.094 472.238 221.731C472.118 220.364 472.275 218.987 472.699 217.683C473.124 216.378 473.807 215.172 474.709 214.136C475.61 213.1 476.711 212.256 477.946 211.654C479.181 211.051 480.525 210.703 481.898 210.63" fill="#715F7A"/>
<path d="M342.121 264.228L419.55 264.228L420.135 264.228L420.135 249.183L419.55 249.183L342.121 249.183L342.121 264.228Z" fill="#715F7A"/>
<path d="M342.121 286.73L419.55 286.73L420.135 286.73L420.135 271.686L419.55 271.686L342.121 271.686L342.121 286.73Z" fill="#715F7A"/>
<path d="M342.121 241.745L419.55 241.745L420.135 241.745L420.135 226.701L419.55 226.701L342.121 226.701L342.121 241.745Z" fill="#715F7A"/>
<path d="M342.121 220.404L419.55 220.404L420.135 220.404L420.135 205.359L419.55 205.359L342.121 205.359L342.121 220.404Z" fill="#715F7A"/>
<path d="M297.331 64.121C299.166 64.13 300.983 63.7605 302.668 63.0357C304.353 62.3109 305.87 61.2464 307.124 59.9091C308.377 58.5717 309.34 56.9903 309.952 55.264C310.565 53.5377 310.813 51.7038 310.681 49.8773C310.55 48.0508 310.042 46.2711 309.188 44.6498C308.335 43.0286 307.156 41.6007 305.724 40.4559C304.291 39.311 302.638 38.4738 300.866 37.9967C299.094 37.5197 297.243 37.4131 295.428 37.6837C293.635 37.7703 291.88 38.2257 290.272 39.0213C288.664 39.8168 287.238 40.9354 286.083 42.3068C284.929 43.6783 284.071 45.273 283.563 46.9909C283.056 48.7088 282.909 50.5129 283.133 52.29C283.262 54.0698 283.745 55.8063 284.553 57.3979C285.362 58.9896 286.48 60.4045 287.843 61.5603C289.205 62.716 290.785 63.5893 292.489 64.1293C294.194 64.6693 295.989 64.8651 297.77 64.7053" fill="#715F7A"/>
<path d="M260.302 64.1228C262.9 63.8602 265.364 62.8412 267.387 61.1924C269.409 59.5436 270.901 57.3378 271.678 54.8494C272.454 52.361 272.48 49.6998 271.753 47.1967C271.025 44.6937 269.576 42.4593 267.586 40.7714C265.597 39.0835 263.153 38.0166 260.561 37.7035C257.968 37.3903 255.34 37.8447 253.004 39.0101C250.668 40.1755 248.727 42.0004 247.422 44.258C246.117 46.5156 245.506 49.1062 245.665 51.7076C245.774 53.4945 246.244 55.241 247.046 56.8423C247.849 58.4437 248.967 59.8668 250.334 61.0262C251.701 62.1857 253.288 63.0576 255.001 63.5898C256.714 64.1219 258.517 64.3032 260.302 64.1228Z" fill="#715F7A"/>
<path d="M237.029 49.9695C236.9 48.1897 236.417 46.4532 235.608 44.8616C234.8 43.2699 233.682 41.855 232.319 40.6992C230.956 39.5435 229.377 38.6702 227.672 38.1302C225.968 37.5902 224.173 37.3944 222.392 37.5542C218.898 37.5542 215.548 38.9392 213.077 41.4045C210.607 43.8698 209.219 47.2134 209.219 50.6998C209.219 54.1863 210.607 57.5299 213.077 59.9952C215.548 62.4605 218.898 63.8455 222.392 63.8455C223.171 63.9226 223.955 63.9226 224.734 63.8455C226.512 63.7178 228.246 63.2353 229.834 62.4266C231.421 61.6178 232.83 60.4992 233.977 59.1372C235.123 57.7751 235.984 56.1972 236.508 54.497C237.033 52.7968 237.21 51.0089 237.029 49.2392" fill="#715F7A"/>
<path d="M123.885 236.479L122.715 236.479C119.494 236.479 116.274 236.479 113.201 236.479C113.201 236.479 112.03 236.479 111.444 236.479C89.3753 238.348 68.8291 248.469 53.9214 264.815C45.9776 273.957 35.1249 280.094 23.1841 282.196C23.1841 282.196 23.1841 282.196 22.0132 282.196C5.93979 280.753 -9.14888 273.844 -20.7264 262.624L-20.7264 261.894L-23.2146 260.579L-46.6335 282.635L-50 285.41L-47.0726 288.331C-44.8096 290.703 -42.4152 292.946 -39.9006 295.05C-24.6147 308.912 -5.16042 317.335 15.4266 319.004C18.594 319.225 21.7731 319.225 24.9405 319.004L26.697 319.004C46.3346 317.45 64.8378 309.198 79.0968 295.634L84.2197 289.792C92.3732 280.533 103.497 274.389 115.689 272.41L116.86 272.41C119.147 272.188 121.451 272.188 123.739 272.41L123.739 236.479L123.885 236.479Z" fill="#715F7A"/>
<path d="M156.672 164.035L156.672 196.899L176.139 196.899L189.458 196.899L189.458 164.035L156.672 164.035Z" fill="#715F7A"/>
<path d="M156.675 164.031L156.675 131.167L123.742 131.167L123.742 149.717L123.742 164.031L156.675 164.031Z" fill="#715F7A"/>
<path d="M189.457 131.167L189.457 164.031L222.39 164.031L222.39 131.167L189.457 131.167Z" fill="#715F7A"/>
<path d="M156.523 98.304L156.523 131.168L189.456 131.168L189.456 98.304L156.523 98.304Z" fill="#715F7A"/>
<path d="M156.672 230.052L156.672 262.916L189.605 262.916L189.605 230.052L156.672 230.052Z" fill="#715F7A"/>
<path d="M156.669 230.187L156.669 197.324L123.883 197.324L123.883 212.076L123.883 230.188L156.669 230.187Z" fill="#715F7A"/>
<path d="M222.392 230.187L222.392 197.324L189.605 197.324L189.605 230.188L222.392 230.187Z" fill="#715F7A"/>
<path d="M156.669 263.057L123.883 263.057L123.883 273.72L123.883 295.775L156.669 295.775L156.669 263.057Z" fill="#715F7A"/>
<path d="M189.605 263.057L189.605 295.775L222.392 295.775L222.392 295.483L222.392 263.057L189.605 263.057Z" fill="#715F7A"/>
</g>
<defs>
<clipPath id="clip0">
<rect width="319" height="667" fill="white" transform="translate(-50 319) rotate(-90)"/>
</clipPath>
</defs>
</svg>
