<svg width="82" height="82" viewBox="0 0 82 82" fill="none" xmlns="http://www.w3.org/2000/svg">
<path fill-rule="evenodd" clip-rule="evenodd" d="M40.9992 73.8002C49.6983 73.8002 58.0411 70.3445 64.1923 64.1933C70.3435 58.0421 73.7992 49.6993 73.7992 41.0002C73.7992 32.3011 70.3435 23.9583 64.1923 17.8071C58.0411 11.6559 49.6983 8.2002 40.9992 8.2002C32.3001 8.2002 23.9573 11.6559 17.8061 17.8071C11.6549 23.9583 8.19922 32.3011 8.19922 41.0002C8.19922 49.6993 11.6549 58.0421 17.8061 64.1933C23.9573 70.3445 32.3001 73.8002 40.9992 73.8002ZM39.1747 29.389C38.5573 28.977 37.8395 28.7404 37.0981 28.7044C36.3567 28.6684 35.6195 28.8343 34.965 29.1845C34.3105 29.5347 33.7634 30.056 33.3819 30.6928C33.0005 31.3295 32.7991 32.0579 32.7992 32.8002V49.2002C32.7991 49.9425 33.0005 50.6709 33.3819 51.3076C33.7634 51.9444 34.3105 52.4657 34.965 52.8159C35.6195 53.1661 36.3567 53.332 37.0981 53.296C37.8395 53.26 38.5573 53.0234 39.1747 52.6114L51.4747 44.4114C52.0362 44.037 52.4967 43.5297 52.8151 42.9346C53.1335 42.3396 53.3001 41.6751 53.3001 41.0002C53.3001 40.3253 53.1335 39.6608 52.8151 39.0657C52.4967 38.4707 52.0362 37.9634 51.4747 37.589L39.1747 29.389Z" fill="#EFC825"/>
</svg>
