<svg width="54" height="54" viewBox="0 0 54 54" fill="none" xmlns="http://www.w3.org/2000/svg">
<path d="M27 3.375C13.9535 3.375 3.375 13.9535 3.375 27C3.375 40.0465 13.9535 50.625 27 50.625C40.0465 50.625 50.625 40.0465 50.625 27C50.625 13.9535 40.0465 3.375 27 3.375ZM34.599 27.3639L23.0818 35.7434C23.0187 35.7887 22.9443 35.8158 22.8667 35.8216C22.7892 35.8275 22.7116 35.8118 22.6423 35.7764C22.5731 35.741 22.515 35.6871 22.4744 35.6208C22.4338 35.5546 22.4122 35.4783 22.4121 35.4006V18.6521C22.4119 18.5742 22.4332 18.4978 22.4737 18.4313C22.5143 18.3647 22.5724 18.3107 22.6418 18.2752C22.7111 18.2397 22.789 18.2241 22.8666 18.2302C22.9443 18.2362 23.0188 18.2636 23.0818 18.3094L34.599 26.6836C34.6534 26.7221 34.6978 26.773 34.7285 26.8322C34.7591 26.8914 34.7751 26.9571 34.7751 27.0237C34.7751 27.0904 34.7591 27.156 34.7285 27.2152C34.6978 27.2744 34.6534 27.3254 34.599 27.3639Z" fill="white"/>
</svg>
