<svg width="201" height="201" viewBox="0 0 201 201" fill="none" xmlns="http://www.w3.org/2000/svg">
<path d="M178.747 198.058C178.747 199.681 177.428 200.998 175.803 200.998H25.2021C23.5769 200.998 22.2578 199.681 22.2578 198.058C22.2578 171.116 34.7968 160.743 46.6958 155.15C41.5098 140.113 48.3643 123.77 48.6783 123.041H152.331C152.641 123.77 159.499 140.113 154.309 155.15C166.208 160.743 178.747 171.116 178.747 198.058Z" fill="#FBDF63"/>
<path d="M178.747 198.059C178.747 199.682 177.428 200.999 175.802 200.999H167.951C169.576 200.999 170.895 199.682 170.895 198.059C170.895 177.957 164.202 164.817 154.309 155.15C166.208 160.744 178.747 171.117 178.747 198.059Z" fill="#F9D11F"/>
<path d="M82.7522 163.228C83.206 161.67 82.3094 160.039 80.7489 159.585C79.1888 159.13 77.5533 160.026 77.0983 161.585C76.8753 162.349 71.7086 180.508 77.9184 198.994C78.3314 200.224 79.4789 201 80.7096 201C81.0202 201 81.3358 200.95 81.6463 200.846C83.188 200.33 84.0183 198.663 83.5016 197.124C77.9058 180.466 82.6827 163.47 82.7522 163.228Z" fill="#415E6F"/>
<path d="M123.935 161.585C123.481 160.028 121.85 159.134 120.288 159.586C118.728 160.038 117.83 161.669 118.281 163.227C118.331 163.397 123.14 180.431 117.533 197.124C117.016 198.663 117.846 200.33 119.388 200.847C119.698 200.951 120.014 201 120.325 201C121.555 201 122.703 200.224 123.115 198.994C129.326 180.508 124.159 162.349 123.935 161.585Z" fill="#415E6F"/>
<path d="M141.721 150.329C140.81 151.262 139.845 152.199 138.836 153.128C128.621 162.532 114.94 170.105 101.294 173.908C101.034 173.978 100.768 174.014 100.501 174.014C100.234 174.014 99.9706 173.978 99.7115 173.908C86.0655 170.105 72.3802 162.532 62.1692 153.128C61.1603 152.198 60.1985 151.266 59.2916 150.333C50.969 141.818 46.7802 133.245 47.7145 126.432C49.2063 115.574 61.9808 113.951 69.4633 113.951H131.538C139.02 113.951 151.799 115.574 153.287 126.432C154.221 133.242 150.036 141.815 141.721 150.329Z" fill="#F9D11F"/>
<path d="M141.723 150.329C140.812 151.262 139.846 152.199 138.837 153.128C138.731 153.226 138.625 153.32 138.519 153.418C128.34 162.688 114.8 170.144 101.295 173.908C101.036 173.978 100.769 174.014 100.502 174.014C100.235 174.014 99.9719 173.978 99.7128 173.908C86.0668 170.105 72.3815 162.532 62.1706 153.128C61.1616 152.198 60.1998 151.266 59.293 150.332C59.4775 150.27 59.662 150.211 59.8426 150.148C67.3408 147.612 73.0725 145.499 76.7509 142.191C78.121 140.96 79.2085 139.564 79.9936 137.914C80.9868 135.825 81.5011 133.335 81.5011 130.27C81.5011 128.647 82.8202 127.33 84.4454 127.33H116.59C118.215 127.33 119.534 128.647 119.534 130.27C119.534 135.746 121.175 139.392 124.272 142.183C127.951 145.495 133.687 147.608 141.193 150.148C141.369 150.207 141.546 150.266 141.723 150.329Z" fill="#FFE8C8"/>
<path d="M141.725 150.33C140.814 151.263 139.849 152.2 138.84 153.129C138.734 153.227 138.628 153.321 138.522 153.419C135.452 152.189 132.37 151.15 129.418 150.15C124.145 148.366 119.749 146.794 116.321 144.87C112.502 146.151 108.517 146.814 104.446 146.814C95.6246 146.814 87.2117 143.71 79.9961 137.916C80.9893 135.827 81.5036 133.337 81.5036 130.272C81.5036 128.649 82.8227 127.332 84.4479 127.332H116.592C118.217 127.332 119.537 128.649 119.537 130.272C119.537 135.748 121.178 139.394 124.275 142.185C127.953 145.497 133.689 147.61 141.195 150.15C141.372 150.209 141.548 150.268 141.725 150.33Z" fill="#FDD9B4"/>
<path d="M141.723 150.33C140.812 151.262 139.846 152.199 138.837 153.128C138.731 153.226 138.625 153.32 138.519 153.418C128.34 162.689 114.8 170.145 101.295 173.908C101.036 173.979 100.769 174.014 100.502 174.014C100.235 174.014 99.9719 173.979 99.7128 173.908C86.0668 170.106 72.3815 162.533 62.1706 153.128C61.1616 152.199 60.1998 151.266 59.293 150.333C59.4775 150.27 59.662 150.211 59.8426 150.149C67.3408 147.613 73.0725 145.5 76.7509 142.191C76.7509 142.191 86.4201 152.83 100.502 152.83C108.55 152.83 115.157 149.357 119.338 146.374C122.478 144.143 124.253 142.191 124.253 142.191L124.272 142.184C127.951 145.496 133.687 147.609 141.193 150.149C141.369 150.208 141.546 150.267 141.723 150.33Z" fill="#EEF0F5"/>
<path d="M52.1486 188.015C50.6497 187.387 48.924 188.091 48.2943 189.588C47.1232 192.373 47.1958 197.202 47.2221 198.141C47.2669 199.736 48.5757 200.998 50.1637 200.998C50.1912 200.998 50.2187 200.997 50.2462 200.997C51.871 200.952 53.1524 199.6 53.1084 197.978C53.0594 196.163 53.218 193.067 53.724 191.864C54.3533 190.366 53.6482 188.643 52.1486 188.015Z" fill="#F9D11F"/>
<path d="M152.706 189.588C152.077 188.09 150.352 187.387 148.852 188.015C147.353 188.643 146.648 190.366 147.277 191.863C147.783 193.066 147.941 196.161 147.892 197.976C147.847 199.599 149.127 200.952 150.753 200.997C150.781 200.998 150.809 200.998 150.837 200.998C152.425 200.998 153.734 199.736 153.779 198.141C153.805 197.201 153.878 192.373 152.706 189.588Z" fill="#F9D11F"/>
<path d="M141.725 150.33C140.814 151.262 139.848 152.199 138.839 153.128C138.733 153.226 138.627 153.32 138.521 153.418C135.451 152.188 132.37 151.149 129.417 150.149C125.582 148.852 122.214 147.668 119.34 146.374C122.48 144.143 124.255 142.191 124.255 142.191L124.275 142.184C127.953 145.496 133.689 147.609 141.195 150.149C141.371 150.208 141.548 150.267 141.725 150.33Z" fill="#DAE1EA"/>
<path d="M61.1596 76.2613C61.0693 75.1349 60.3399 74.1602 59.2839 73.7535C57.8137 73.1878 56.2634 72.9004 54.6762 72.9004C47.6176 72.9004 41.875 78.6289 41.875 85.6698C41.875 92.7107 47.6176 98.4392 54.6762 98.4392C56.9465 98.4392 59.1783 97.8373 61.1298 96.6992C62.1065 96.1292 62.6703 95.0512 62.5796 93.9249L61.1596 76.2613Z" fill="#FAB684"/>
<path d="M146.351 72.9004C144.764 72.9004 143.214 73.1874 141.743 73.7535C140.687 74.1602 139.958 75.1346 139.868 76.2613L138.447 93.9253C138.356 95.0516 138.92 96.1296 139.897 96.6996C141.849 97.8377 144.08 98.4396 146.351 98.4396C153.409 98.4396 159.152 92.7111 159.152 85.6702C159.152 78.6293 153.41 72.9004 146.351 72.9004Z" fill="#FAB684"/>
<path d="M145.53 65.2779V80.6521C145.53 95.5009 140.925 109.488 132.571 120.04C124.052 130.797 112.667 136.716 100.509 136.716C88.3549 136.716 76.9701 130.797 68.4512 120.04C60.0932 109.488 55.4922 95.5009 55.4922 80.6521V65.2779C55.4922 63.655 56.8113 62.3379 58.4365 62.3379H142.586C144.211 62.3379 145.53 63.655 145.53 65.2779Z" fill="#FFE8C8"/>
<path d="M145.53 65.2779V76.8421H55.4922V65.2779C55.4922 63.655 56.8113 62.3379 58.4365 62.3379H142.586C144.211 62.3379 145.53 63.655 145.53 65.2779Z" fill="#FDD9B4"/>
<path d="M100.374 0C98.7476 0 97.4297 1.31592 97.4297 2.94002V8.82123C97.4297 10.4449 98.7476 11.7612 100.374 11.7612C102 11.7612 103.318 10.4453 103.318 8.82123V2.94002C103.318 1.31592 102 0 100.374 0V0Z" fill="#415E6F"/>
<path d="M151.6 57.0291V65.2768H49.1523V57.0291C49.1523 30.1457 70.0257 8.04475 96.4384 6.02965H96.4619C97.7535 5.9315 99.0608 5.88086 100.376 5.88086C128.622 5.88086 151.6 28.8247 151.6 57.0291Z" fill="#FF6B81"/>
<path d="M151.602 57.0291V65.2768H143.751V57.0291C143.751 30.1457 122.878 8.04475 96.4648 6.02965C97.7564 5.9315 99.0637 5.88086 100.379 5.88086C128.625 5.88086 151.602 28.8247 151.602 57.0291Z" fill="#ED2061"/>
<path d="M151.601 62.3379V65.2779C151.601 66.9008 150.285 68.2179 148.656 68.2179H25.1943C23.5651 68.2179 22.25 66.9008 22.25 65.2779C22.25 63.655 23.5651 62.3379 25.1943 62.3379H151.601Z" fill="#415E6F"/>
<path d="M109.262 35.3594H91.7624C86.8772 35.3594 82.9023 39.3283 82.9023 44.2065V51.9101C82.9023 53.5338 84.2202 54.8501 85.8467 54.8501H115.178C116.804 54.8501 118.122 53.5342 118.122 51.9101V44.2065C118.122 39.3283 114.147 35.3594 109.262 35.3594Z" fill="#FFE8C8"/>
<path d="M110.818 109.379C109.771 108.136 107.914 107.975 106.67 109.02C104.95 110.462 102.764 111.257 100.512 111.257C98.2602 111.257 96.0735 110.462 94.3544 109.02C93.1092 107.975 91.2523 108.136 90.206 109.379C89.1598 110.621 89.3208 112.476 90.5656 113.521C93.3439 115.852 96.8763 117.136 100.512 117.136C104.148 117.136 107.68 115.852 110.458 113.521C111.703 112.476 111.864 110.621 110.818 109.379Z" fill="#FAB684"/>
<path d="M99.1005 99.4412C99.3793 99.2072 99.8503 98.9285 100.513 98.9285C101.176 98.9285 101.648 99.2072 101.926 99.4412C102.478 99.9044 103.15 100.131 103.819 100.131C104.658 100.131 105.492 99.7741 106.074 99.0824C107.121 97.8395 106.96 95.9849 105.715 94.9403C104.262 93.7205 102.415 93.0488 100.513 93.0488C98.6122 93.0488 96.7651 93.7205 95.3117 94.9403C94.0669 95.9849 93.9059 97.8395 94.9521 99.0824C95.9988 100.325 97.8557 100.486 99.1005 99.4412Z" fill="#FAB684"/>
<path d="M76.7628 111.049C80.5302 111.049 83.5843 108 83.5843 104.239C83.5843 100.477 80.5302 97.4277 76.7628 97.4277C72.9955 97.4277 69.9414 100.477 69.9414 104.239C69.9414 108 72.9955 111.049 76.7628 111.049Z" fill="#FCCAB6"/>
<path d="M124.263 111.049C128.03 111.049 131.084 108 131.084 104.239C131.084 100.477 128.03 97.4277 124.263 97.4277C120.495 97.4277 117.441 100.477 117.441 104.239C117.441 108 120.495 111.049 124.263 111.049Z" fill="#FCCAB6"/>
</svg>
