<svg width="196" height="196" viewBox="0 0 196 196" fill="none" xmlns="http://www.w3.org/2000/svg">
<path d="M174.296 193.128C174.296 194.713 173.01 195.999 171.425 195.999H24.5703C22.9855 195.999 21.6992 194.713 21.6992 193.128C21.6992 166.817 33.9263 156.688 45.5293 151.225C40.4723 136.541 47.1562 120.581 47.4625 119.869H148.536C148.839 120.581 155.527 136.541 150.466 151.225C162.069 156.688 174.296 166.817 174.296 193.128Z" fill="#99E7FA"/>
<path d="M174.295 193.127C174.295 194.712 173.009 195.998 171.424 195.998H163.768C165.352 195.998 166.639 194.712 166.639 193.127C166.639 173.497 160.112 160.665 150.465 151.225C162.068 156.687 174.295 166.817 174.295 193.127Z" fill="#4DD4F7"/>
<path d="M80.689 159.113C81.1315 157.591 80.2572 155.998 78.7355 155.555C77.2142 155.111 75.6194 155.986 75.1757 157.508C74.9583 158.254 69.9201 175.987 75.9754 194.04C76.3781 195.241 77.4971 195.999 78.6972 195.999C79 195.999 79.3078 195.951 79.6106 195.85C81.1139 195.345 81.9235 193.718 81.4198 192.214C75.9632 175.947 80.6212 159.349 80.689 159.113Z" fill="#415E6F"/>
<path d="M120.847 157.508C120.404 155.987 118.813 155.115 117.29 155.556C115.769 155.998 114.893 157.59 115.333 159.112C115.381 159.278 120.071 175.913 114.603 192.214C114.099 193.718 114.908 195.345 116.412 195.85C116.715 195.951 117.023 195.999 117.325 195.999C118.526 195.999 119.645 195.241 120.047 194.04C126.103 175.987 121.064 158.254 120.847 157.508Z" fill="#415E6F"/>
<path d="M138.192 146.517C137.304 147.428 136.362 148.343 135.378 149.25C125.418 158.434 112.077 165.83 98.77 169.543C98.5174 169.612 98.2571 169.647 97.9968 169.647C97.7365 169.647 97.48 169.612 97.2273 169.543C83.9208 165.83 70.5759 158.434 60.619 149.25C59.6351 148.343 58.6972 147.432 57.8129 146.521C49.6973 138.206 45.6127 129.834 46.5238 123.181C47.9785 112.577 60.4352 110.992 67.7316 110.992H128.262C135.558 110.992 148.019 112.577 149.47 123.181C150.381 129.83 146.3 138.203 138.192 146.517Z" fill="#4DD4F7"/>
<path d="M138.192 146.516C137.304 147.427 136.362 148.342 135.378 149.25C135.275 149.345 135.171 149.437 135.068 149.533C125.142 158.586 111.938 165.867 98.7696 169.542C98.5169 169.611 98.2566 169.646 97.9963 169.646C97.736 169.646 97.4795 169.611 97.2269 169.542C83.9203 165.829 70.5755 158.433 60.6185 149.25C59.6347 148.342 58.6968 147.431 57.8125 146.52C57.9924 146.459 58.1723 146.401 58.3484 146.34C65.6602 143.863 71.2492 141.8 74.8362 138.569C76.1722 137.367 77.2326 136.004 77.9982 134.393C78.9667 132.352 79.4682 129.921 79.4682 126.928C79.4682 125.343 80.7545 124.057 82.3393 124.057H113.684C115.269 124.057 116.555 125.343 116.555 126.928C116.555 132.276 118.155 135.836 121.176 138.561C124.763 141.796 130.355 143.86 137.675 146.34C137.847 146.398 138.019 146.455 138.192 146.516Z" fill="#FFE8C8"/>
<path d="M138.193 146.516C137.305 147.427 136.364 148.342 135.38 149.25C135.276 149.345 135.173 149.437 135.07 149.533C132.076 148.331 129.071 147.316 126.192 146.34C121.051 144.598 116.764 143.063 113.422 141.184C109.697 142.435 105.811 143.082 101.842 143.082C93.2398 143.082 85.0361 140.051 78 134.393C78.9685 132.352 79.47 129.921 79.47 126.928C79.47 125.343 80.7563 124.057 82.3411 124.057H113.686C115.271 124.057 116.557 125.343 116.557 126.928C116.557 132.276 118.157 135.836 121.177 138.561C124.764 141.796 130.357 143.86 137.677 146.34C137.849 146.398 138.021 146.455 138.193 146.516Z" fill="#FDD9B4"/>
<path d="M138.192 146.517C137.304 147.428 136.362 148.343 135.378 149.251C135.275 149.346 135.171 149.438 135.068 149.534C125.142 158.587 111.938 165.869 98.7696 169.544C98.5169 169.612 98.2566 169.647 97.9963 169.647C97.736 169.647 97.4795 169.612 97.2269 169.544C83.9203 165.83 70.5755 158.434 60.6185 149.251C59.6347 148.343 58.6968 147.432 57.8125 146.521C57.9924 146.46 58.1723 146.402 58.3484 146.341C65.6602 143.864 71.2492 141.801 74.8362 138.57C74.8362 138.57 84.2648 148.96 97.9963 148.96C105.844 148.96 112.287 145.568 116.364 142.655C119.426 140.477 121.156 138.57 121.156 138.57L121.176 138.562C124.763 141.797 130.355 143.861 137.675 146.341C137.847 146.399 138.019 146.456 138.192 146.517Z" fill="#EEF0F5"/>
<path d="M50.8461 183.32C49.3845 182.707 47.7017 183.394 47.0876 184.856C45.9457 187.576 46.0165 192.291 46.0422 193.209C46.0858 194.767 47.3621 195.999 48.9106 195.999C48.9374 195.999 48.9642 195.999 48.991 195.998C50.5754 195.954 51.8249 194.634 51.7821 193.05C51.7342 191.278 51.8889 188.254 52.3823 187.079C52.9959 185.617 52.3084 183.934 50.8461 183.32Z" fill="#4DD4F7"/>
<path d="M148.906 184.856C148.292 183.394 146.609 182.707 145.147 183.32C143.685 183.934 142.998 185.616 143.611 187.078C144.104 188.253 144.259 191.275 144.211 193.048C144.167 194.633 145.415 195.953 147.001 195.998C147.028 195.999 147.055 195.999 147.083 195.999C148.631 195.999 149.907 194.766 149.951 193.208C149.977 192.291 150.048 187.576 148.906 184.856Z" fill="#4DD4F7"/>
<path d="M138.195 146.517C137.307 147.428 136.365 148.343 135.381 149.251C135.278 149.346 135.175 149.438 135.071 149.534C132.078 148.332 129.073 147.317 126.194 146.341C122.454 145.074 119.169 143.918 116.367 142.655C119.43 140.477 121.16 138.57 121.16 138.57L121.179 138.562C124.766 141.797 130.359 143.861 137.678 146.341C137.851 146.399 138.023 146.456 138.195 146.517Z" fill="#DAE1EA"/>
<path d="M141.896 63.7227V78.7404C141.896 82.8097 141.544 86.8139 140.855 90.6956C139.09 100.645 135.124 109.798 129.259 117.213C120.956 127.717 109.854 133.502 97.9987 133.502C86.143 133.502 75.0414 127.717 66.7382 117.213C60.6821 109.553 56.6511 100.044 54.9782 89.7118C54.3963 86.1363 54.1016 82.4652 54.1016 78.7404V63.7227C54.1016 62.1378 55.3878 60.8516 56.9727 60.8516H139.025C140.613 60.8516 141.896 62.1378 141.896 63.7227Z" fill="#FFE8C8"/>
<path d="M141.896 63.7227V78.7404C141.896 82.8097 141.544 86.8139 140.855 90.6956H140.334C136.996 92.403 133.237 93.3064 129.466 93.3064C121.14 93.3064 113.495 88.9768 109.177 82.0479C105.617 84.0768 101.612 85.1372 97.4321 85.1372C93.3743 85.1372 89.4773 84.1342 85.9898 82.2163C82.0469 88.839 74.9189 92.9619 67.0177 92.9619C62.933 92.9619 58.9441 91.8402 55.4759 89.7118H54.9782C54.3963 86.1363 54.1016 82.4652 54.1016 78.7404V63.7227C54.1016 62.1378 55.3878 60.8516 56.9727 60.8516H139.025C140.613 60.8516 141.896 62.1378 141.896 63.7227Z" fill="#FDD9B4"/>
<path d="M146.681 53.1949L140.334 83.039C136.996 84.7463 133.237 85.6498 129.466 85.6498C129.125 85.6498 128.788 85.6421 128.451 85.6268C120.523 85.2937 113.319 81.0369 109.177 74.3913C105.617 76.4202 101.612 77.4805 97.4321 77.4805C93.3743 77.4805 89.4773 76.4776 85.9898 74.5597C82.0469 81.1823 74.9189 85.3052 67.0177 85.3052C62.933 85.3052 58.9441 84.1836 55.4759 82.0552L49.3164 53.1949L52.1607 32.3048C54.9667 29.6558 58.7413 28.0671 62.7876 28.0671C63.8709 28.0671 64.939 28.1781 65.9841 28.4002C68.9891 21.7316 75.6998 17.2871 83.1953 17.2871C88.1948 17.2871 92.8881 19.2356 96.3755 22.6388C99.2658 19.3007 103.519 17.2871 108.059 17.2871C112.844 17.2871 117.254 19.4615 120.148 23.1135C121.645 22.3785 123.226 21.8464 124.864 21.5287C126.04 21.3028 127.246 21.188 128.471 21.188C133.47 21.188 138.171 23.1403 141.643 26.4593L146.681 53.1949Z" fill="#D77D41"/>
<path d="M146.68 53.1964L140.333 83.0405C136.995 84.7478 133.235 85.6513 129.465 85.6513C129.124 85.6513 128.787 85.6436 128.45 85.6283V63.7238C128.45 58.9156 131.693 54.8502 136.106 53.5984V51.5618C136.106 40.0812 131.865 29.5769 124.863 21.5302C126.039 21.3043 127.244 21.1895 128.469 21.1895C133.469 21.1895 138.17 23.1418 141.642 26.4608L146.68 53.1964Z" fill="#B5612A"/>
<path d="M97.9979 0C69.5718 0 46.4453 23.1303 46.4453 51.5614V58.9378H52.1875V51.5614C52.1875 26.2965 72.738 5.74219 97.9979 5.74219C123.258 5.74219 143.808 26.2965 143.808 51.5614V58.9378H149.551V51.5614C149.551 23.1303 126.424 0 97.9979 0Z" fill="#567A8C"/>
<path d="M49.3145 53.1953C43.5107 53.1953 38.7891 57.9169 38.7891 63.7207V86.5004C38.7891 92.3042 43.5107 97.0258 49.3145 97.0258C55.1183 97.0258 59.8399 92.3042 59.8399 86.5004V63.7207C59.8399 57.9169 55.1183 53.1953 49.3145 53.1953Z" fill="#FF6B81"/>
<path d="M146.678 53.1953C140.874 53.1953 136.152 57.9177 136.152 63.7223V86.4992C136.152 92.3034 140.874 97.0258 146.678 97.0258C152.482 97.0258 157.203 92.3034 157.203 86.4992V63.7223C157.203 57.9177 152.482 53.1953 146.678 53.1953Z" fill="#FF6B81"/>
<path d="M108.064 106.775C107.043 105.561 105.232 105.405 104.019 106.426C102.343 107.837 100.211 108.613 98.0156 108.613C95.8202 108.613 93.6883 107.837 92.0124 106.426C90.7992 105.406 88.9882 105.562 87.9672 106.775C86.9462 107.989 87.1024 109.801 88.3159 110.822C91.0251 113.102 94.47 114.357 98.0156 114.357C101.561 114.357 105.006 113.101 107.715 110.822C108.929 109.801 109.085 107.989 108.064 106.775Z" fill="#FAB684"/>
<path d="M96.6412 97.0554C96.9126 96.8268 97.3719 96.5546 98.0177 96.5546C98.6636 96.5546 99.1229 96.8272 99.3943 97.0554C99.9326 97.5082 100.589 97.7295 101.241 97.7295C102.059 97.7295 102.872 97.3815 103.44 96.7062C104.46 95.4923 104.304 93.6809 103.091 92.6599C101.674 91.4675 99.8717 90.8105 98.0177 90.8105C96.1634 90.8105 94.3619 91.4675 92.9447 92.6599C91.7316 93.6809 91.575 95.4923 92.596 96.7062C93.6162 97.9201 95.4273 98.0767 96.6412 97.0554Z" fill="#FAB684"/>
<path d="M74.8432 108.519C78.5168 108.519 81.4949 105.541 81.4949 101.866C81.4949 98.1917 78.5168 95.2129 74.8432 95.2129C71.1695 95.2129 68.1914 98.1917 68.1914 101.866C68.1914 105.541 71.1695 108.519 74.8432 108.519Z" fill="#FCCAB6"/>
<path d="M121.163 108.519C124.837 108.519 127.815 105.541 127.815 101.866C127.815 98.1917 124.837 95.2129 121.163 95.2129C117.49 95.2129 114.512 98.1917 114.512 101.866C114.512 105.541 117.49 108.519 121.163 108.519Z" fill="#FCCAB6"/>
<path d="M116.187 39.3867C117.643 39.3867 118.846 40.4705 119.034 41.8754C119.107 42.3194 119.917 46.5886 125.151 47.5498C126.711 47.8362 127.743 49.3326 127.457 50.8922C127.202 52.2764 125.995 53.2449 124.636 53.2449C124.464 53.2449 124.29 53.2296 124.114 53.1975C114.61 51.4522 113.312 43.4181 113.312 42.2601C113.313 40.6734 114.6 39.3867 116.187 39.3867Z" fill="#B5612A"/>
<path d="M87.9443 41.0302C89.0874 40.2753 90.6412 40.4012 91.6472 41.4076C92.7976 42.558 92.6295 44.5781 91.4792 45.7284C91.308 45.9516 86.4169 49.212 86.4693 56.9843C86.48 58.5703 85.203 59.8638 83.6173 59.8749H83.5978C82.021 59.8749 80.7378 58.6024 80.7271 57.0233C80.6678 48.1761 85.4074 42.6675 87.9443 41.0302Z" fill="#B5612A"/>
<path d="M83.5978 59.8749H83.6173C85.203 59.8642 86.48 58.5703 86.4693 56.9843C86.4169 49.212 91.308 45.9516 91.4792 45.7284C92.6295 44.5781 92.7976 42.5576 91.6472 41.4076C90.6408 40.4012 89.0874 40.2753 87.9443 41.0302C85.4074 42.6675 80.6678 48.1761 80.7271 57.0229C80.7378 58.6024 82.021 59.8749 83.5978 59.8749Z" fill="#B5612A"/>
<path d="M124.114 53.1974C124.289 53.2296 124.463 53.2449 124.636 53.2449C125.994 53.2449 127.202 52.2764 127.456 50.8921C127.743 49.3326 126.711 47.8362 125.151 47.5498C119.916 46.5886 119.106 42.3194 119.034 41.8754C118.846 40.4705 117.642 39.3867 116.186 39.3867C114.599 39.3867 113.313 40.6733 113.313 42.2605C113.312 43.4181 114.609 51.4522 124.114 53.1974Z" fill="#B5612A"/>
</svg>
