<svg width="201" height="201" viewBox="0 0 201 201" fill="none" xmlns="http://www.w3.org/2000/svg">
<g clip-path="url(#clip0)">
<path d="M147.236 137.021L147.058 136.932L134.93 132.799L134.762 132.763C129.421 131.614 123.395 131.031 116.849 131.031H84.1491C77.6037 131.031 71.5772 131.614 66.2366 132.763L66.069 132.799L53.9407 136.932L53.7628 137.021C34.8519 146.467 34.9638 163.42 34.9776 164.137L35.0341 167.024H165.965L166.022 164.137C166.035 163.42 166.147 146.467 147.236 137.021Z" fill="#FF7E50"/>
<path d="M139.867 149.56C132.497 147.038 126.946 144.852 123.515 141.324C120.892 138.623 119.515 135.13 119.515 130.097C119.515 128.471 118.195 127.152 116.57 127.152H84.4259C82.8006 127.152 81.4815 128.471 81.4815 130.097C81.4815 133.167 80.9673 135.667 79.9701 137.76C79.3381 139.098 78.5019 140.272 77.4812 141.324C74.7626 144.12 70.7143 146.072 65.4844 148.017V200.93H139.868V149.56H139.867Z" fill="#FAB684"/>
<path d="M178.745 197.985C178.745 199.61 177.426 200.93 175.801 200.93H164.024C165.649 200.93 166.968 199.61 166.968 197.985C166.968 162.736 146.138 155.681 129.398 150.012C124.126 148.226 119.729 146.652 116.302 144.724C112.482 146.008 108.497 146.671 104.426 146.671C95.6051 146.671 87.1922 143.562 79.9766 137.76H79.9727C80.9698 135.667 81.4841 133.167 81.4841 130.097C81.4841 128.471 82.8031 127.152 84.4284 127.152H116.573C118.198 127.152 119.517 128.471 119.517 130.097C119.517 135.13 120.895 138.623 123.517 141.324C127.149 145.058 133.151 147.288 141.176 150.004C157.915 155.673 178.745 162.728 178.745 197.985Z" fill="#F79E60"/>
<path d="M178.743 197.985C178.743 199.61 177.424 200.929 175.799 200.929H25.1982C23.573 200.929 22.2539 199.61 22.2539 197.985C22.2539 162.728 43.0841 155.673 59.8236 150.004C67.8479 147.287 73.8504 145.058 77.4818 141.324C77.7173 141.627 86.6053 152.85 100.499 152.85C108.452 152.85 114.761 149.172 118.75 145.972C121.733 143.582 123.413 141.454 123.515 141.324C127.147 145.058 133.149 147.287 141.174 150.004C157.913 155.673 178.743 162.728 178.743 197.985Z" fill="#EEF0F5"/>
<path d="M178.744 197.985C178.744 199.61 177.425 200.929 175.799 200.929H164.022C165.647 200.929 166.966 199.61 166.966 197.985C166.966 162.735 146.136 155.681 129.397 150.012C125.306 148.626 121.741 147.366 118.75 145.972C121.734 143.582 123.414 141.454 123.516 141.324C127.147 145.058 133.15 147.287 141.174 150.004C157.914 155.673 178.744 162.728 178.744 197.985Z" fill="#DAE1EA"/>
<path d="M100.499 187.795C98.873 187.795 97.5547 189.113 97.5547 190.739V198.056C97.5547 199.683 98.873 201.001 100.499 201.001C102.125 201.001 103.443 199.683 103.443 198.056V190.739C103.443 189.113 102.125 187.795 100.499 187.795Z" fill="#DAE1EA"/>
<path d="M68.4438 130.888C67.9186 130.18 67.027 129.922 66.2364 130.185L54.459 134.111C53.6574 134.378 53.1172 135.128 53.1172 135.973V200.929H68.8203V132.113C68.8203 131.676 68.7041 131.239 68.4438 130.888Z" fill="#567A8C"/>
<path d="M146.541 134.111L134.764 130.184C133.974 129.922 133.081 130.18 132.556 130.888C132.296 131.239 132.18 131.677 132.18 132.113V200.929H147.883V135.973C147.883 135.128 147.343 134.378 146.541 134.111Z" fill="#567A8C"/>
<path d="M153.65 77.7172C153.21 78.8478 152.119 79.5941 150.906 79.5941H51.0694C50.0644 79.5941 49.134 79.0838 48.5922 78.2393C39.7514 64.4539 39.4294 40.1573 43.0883 28.8102C46.9238 16.3596 58.7482 7.3723 77.274 2.85294C88.9493 -0.00542288 101.665 -0.759173 112.162 0.787585C125.714 2.78227 135.058 8.48722 139.18 17.2822C139.199 17.3293 139.219 17.3764 139.239 17.4235C139.356 17.7101 139.619 17.9103 139.929 17.9417C145.115 18.4481 149.563 21.4517 152.747 26.6306C159.88 38.2258 160.277 60.6652 153.65 77.7172Z" fill="#567A8C"/>
<path d="M153.649 77.7165C153.21 78.8472 152.118 79.5935 150.905 79.5935H123.068V44.5582C123.068 44.5582 118.18 17.9414 139.929 17.9414C145.115 18.4478 149.563 21.4514 152.747 26.6303C159.88 38.2251 160.276 60.6645 153.649 77.7165Z" fill="#415E6F"/>
<path d="M153.65 77.7165C153.211 78.8472 152.119 79.5935 150.906 79.5935H144.232C145.445 79.5935 146.711 78.9006 146.976 77.7165C154.116 45.8804 147.063 29.5358 139.93 17.9414C145.116 18.4478 149.564 21.4514 152.747 26.6303C159.881 38.2251 160.277 60.6645 153.65 77.7165Z" fill="#003343"/>
<path d="M61.2069 76.3683C61.1162 75.24 60.3872 74.2637 59.3311 73.8566C57.8609 73.2893 56.3106 73.002 54.7231 73.002C47.6645 73.002 41.9219 78.7387 41.9219 85.7902C41.9219 92.8417 47.6645 98.5784 54.7231 98.5784C56.9933 98.5784 59.2248 97.9762 61.1763 96.8362C62.1534 96.2657 62.7171 95.1854 62.6264 94.0575L61.2069 76.3683Z" fill="#D77D41"/>
<path d="M146.398 73.002C144.81 73.002 143.26 73.2893 141.79 73.8562C140.734 74.2633 140.005 75.2397 139.914 76.3679L138.494 94.0567C138.403 95.1846 138.967 96.2646 139.943 96.8354C141.895 97.9754 144.127 98.578 146.398 98.578C153.456 98.578 159.199 92.8413 159.199 85.7898C159.199 78.7383 153.457 73.002 146.398 73.002Z" fill="#D77D41"/>
<path d="M145.577 64.1272V80.7671C145.577 95.6364 140.976 109.646 132.618 120.211C124.103 130.981 112.714 136.91 100.56 136.91C88.4018 136.91 77.017 130.981 68.502 120.211C60.144 109.646 55.543 95.636 55.543 80.7671V64.1272C55.543 51.712 65.6401 41.6133 78.0534 41.6133H123.066C135.48 41.6133 145.577 51.712 145.577 64.1272Z" fill="#FAB684"/>
<path d="M145.577 64.1273V71.98C145.577 59.5647 135.48 49.466 123.066 49.466H78.0534C65.6401 49.466 55.543 59.5647 55.543 71.98V64.1273C55.543 51.712 65.6401 41.6133 78.0534 41.6133H123.066C135.48 41.6133 145.577 51.712 145.577 64.1273Z" fill="#F79E60"/>
<path d="M110.883 109.615C109.836 108.371 107.979 108.211 106.735 109.258C105.016 110.704 102.83 111.5 100.578 111.5C98.3268 111.5 96.1405 110.704 94.4218 109.258C93.1778 108.211 91.3205 108.371 90.2735 109.615C89.2265 110.86 89.3866 112.717 90.6311 113.764C93.4094 116.102 96.9422 117.389 100.578 117.389C104.214 117.389 107.747 116.102 110.525 113.764C111.77 112.717 111.93 110.86 110.883 109.615Z" fill="#D77D41"/>
<path d="M99.1639 99.6506C99.4422 99.4162 99.9133 99.1371 100.576 99.1371C101.238 99.1371 101.709 99.4162 101.987 99.6506C102.539 100.115 103.212 100.342 103.881 100.342C104.72 100.342 105.554 99.9851 106.136 99.293C107.183 98.0485 107.022 96.1908 105.778 95.1442C104.325 93.9213 102.477 93.248 100.576 93.248C98.674 93.248 96.8265 93.9213 95.3732 95.1442C94.1291 96.1912 93.9685 98.0485 95.0155 99.293C96.0621 100.537 97.9194 100.698 99.1639 99.6506Z" fill="#D77D41"/>
<path d="M76.8101 111.405C80.5777 111.405 83.6319 108.351 83.6319 104.584C83.6319 100.816 80.5777 97.7617 76.8101 97.7617C73.0425 97.7617 69.9883 100.816 69.9883 104.584C69.9883 108.351 73.0425 111.405 76.8101 111.405Z" fill="#FCCAB6"/>
<path d="M124.31 111.405C128.078 111.405 131.132 108.351 131.132 104.584C131.132 100.816 128.078 97.7617 124.31 97.7617C120.543 97.7617 117.488 100.816 117.488 104.584C117.488 108.351 120.543 111.405 124.31 111.405Z" fill="#FCCAB6"/>
</g>
<defs>
<clipPath id="clip0">
<rect width="201" height="201" fill="white"/>
</clipPath>
</defs>
</svg>
