<svg width="148" height="148" viewBox="0 0 148 148" fill="none" xmlns="http://www.w3.org/2000/svg">
<path d="M89.9133 120.965L75.6761 116.799L58.0852 120.965L54.9023 135.288H93.0961L89.9133 120.965Z" fill="#DAD8DB"/>
<path d="M59.6795 113.805L58.0879 120.966H89.916L88.3244 113.805H59.6795Z" fill="#C8C5C9"/>
<path d="M140.839 18.3203H7.16176C6.32463 18.3203 5.52133 18.464 4.77468 18.7279L2.76367 25.4818V106.777C2.76367 110.732 5.96995 113.938 9.92491 113.938H140.839L147.593 111.417C147.857 110.67 148 109.867 148 109.03V25.4818C148.001 21.5266 144.794 18.3203 140.839 18.3203Z" fill="#ECEAEC"/>
<path d="M140.838 106.642H7.16052C5.8421 106.642 4.77344 105.573 4.77344 104.255V25.4808C4.77344 24.1624 5.8421 23.0938 7.16052 23.0938H140.838C142.157 23.0938 143.225 24.1624 143.225 25.4808V104.255C143.225 105.573 142.157 106.642 140.838 106.642Z" fill="white"/>
<path d="M90.7074 30.2559H16.7074C15.389 30.2559 14.3203 31.3245 14.3203 32.6429V73.2236C14.3203 74.5417 15.389 75.6106 16.7074 75.6106H90.7074C92.0258 75.6106 93.0944 74.5417 93.0944 73.2236V32.6429C93.0947 31.3245 92.0258 30.2559 90.7074 30.2559Z" fill="#E5646E"/>
<path d="M60.8288 53.3905L46.5419 61.3279C44.9391 62.2185 44.9023 61.0593 44.9023 59.2255V46.1888L47.7432 44.7539L59.8373 51.4729L60.8288 53.3905Z" fill="white"/>
<path d="M102.646 137.675H45.3558C44.0363 137.675 42.9688 136.607 42.9688 135.287C42.9688 133.968 44.0365 132.9 45.3558 132.9H102.646C103.966 132.9 105.033 133.968 105.033 135.287C105.033 136.607 103.966 137.675 102.646 137.675Z" fill="#ECEAEC"/>
<path d="M133.676 46.9654H107.418C106.1 46.9654 105.031 45.8967 105.031 44.5783V32.6429C105.031 31.3245 106.1 30.2559 107.418 30.2559H133.676C134.995 30.2559 136.064 31.3245 136.064 32.6429V44.5783C136.064 45.8967 134.995 46.9654 133.676 46.9654Z" fill="#E5646E"/>
<path d="M90.7097 89.9324H14.3226C13.0031 89.9324 11.9355 88.8646 11.9355 87.5453C11.9355 86.226 13.0033 85.1582 14.3226 85.1582H90.7097C92.0293 85.1582 93.0968 86.226 93.0968 87.5453C93.0968 88.8646 92.0293 89.9324 90.7097 89.9324Z" fill="#E5646E"/>
<path d="M21.4842 99.4812H14.3226C13.0031 99.4812 11.9355 98.4134 11.9355 97.0941C11.9355 95.7748 13.0033 94.707 14.3226 94.707H21.4839C22.8034 94.707 23.8709 95.7748 23.8709 97.0941C23.8709 98.4134 22.8034 99.4812 21.4842 99.4812Z" fill="#C8C5C9"/>
<path d="M73.9993 99.4812H31.0316C29.712 99.4812 28.6445 98.4134 28.6445 97.0941C28.6445 95.7748 29.7123 94.707 31.0316 94.707H73.9993C75.3189 94.707 76.3864 95.7748 76.3864 97.0941C76.3864 98.4134 75.3189 99.4812 73.9993 99.4812Z" fill="#C8C5C9"/>
<path d="M9.54831 111.42C6.91177 111.42 4.77416 109.282 4.77416 106.645V18.7305C1.99916 19.717 0 22.3703 0 25.4841V109.032C0 112.987 3.20628 116.194 7.16124 116.194H140.839C143.952 116.194 146.607 114.195 147.594 111.42H9.54831Z" fill="#DAD8DB"/>
<path d="M26.258 73.2235C20.9846 73.2235 16.7097 68.9486 16.7097 63.6752V30.2559H14.3226C13.0042 30.2559 11.9355 31.3245 11.9355 32.6429V75.6106C11.9355 76.929 13.0042 77.9977 14.3226 77.9977H90.7097C92.0281 77.9977 93.0968 76.929 93.0968 75.6106V73.2235H26.258Z" fill="#DB4655"/>
<path d="M60.8268 52.0245L59.8353 51.4735L52.316 55.651C50.2633 56.7914 47.741 55.307 47.741 52.9593V44.7548L46.5396 44.0874C44.9368 43.1968 42.9668 44.3559 42.9668 46.1897V62.0642C42.9668 63.8977 44.9365 65.0568 46.5393 64.1662L60.8263 56.2292C62.4762 55.3125 62.4762 52.9408 60.8268 52.0245Z" fill="#FFE6E7"/>
<path d="M114.58 44.5783C110.625 44.5783 107.419 41.3721 107.419 37.4171V30.2559H105.032C103.713 30.2559 102.645 31.3245 102.645 32.6429V46.9654C102.645 48.2838 103.713 49.3525 105.032 49.3525H133.677C134.995 49.3525 136.064 48.2838 136.064 46.9654V44.5783H114.58Z" fill="#DB4655"/>
<path d="M133.676 75.61H107.418C106.1 75.61 105.031 74.5413 105.031 73.2229V61.2875C105.031 59.9691 106.1 58.9004 107.418 58.9004H133.676C134.995 58.9004 136.064 59.9691 136.064 61.2875V73.2229C136.064 74.5413 134.995 75.61 133.676 75.61Z" fill="#E5646E"/>
<path d="M114.58 73.2229C110.625 73.2229 107.419 70.0166 107.419 66.0616V58.9004H105.032C103.713 58.9004 102.645 59.9691 102.645 61.2875V75.61C102.645 76.9284 103.713 77.997 105.032 77.997H133.677C134.995 77.997 136.064 76.9284 136.064 75.61V73.2229H114.58Z" fill="#DB4655"/>
<path d="M133.676 104.256H107.418C106.1 104.256 105.031 103.188 105.031 101.869V89.934C105.031 88.6155 106.1 87.5469 107.418 87.5469H133.676C134.995 87.5469 136.064 88.6155 136.064 89.934V101.869C136.064 103.187 134.995 104.256 133.676 104.256Z" fill="#E5646E"/>
<path d="M114.58 101.869C110.625 101.869 107.419 98.6631 107.419 94.7081V87.5469H105.032C103.713 87.5469 102.645 88.6155 102.645 89.9339V104.256C102.645 105.575 103.713 106.643 105.032 106.643H133.677C134.995 106.643 136.064 105.575 136.064 104.256V101.869H114.58Z" fill="#DB4655"/>
</svg>
