<svg width="112" height="96" viewBox="0 0 112 96" fill="none" xmlns="http://www.w3.org/2000/svg">
<g clip-path="url(#clip0)">
<path d="M96.4802 13.9217C100.324 13.9217 103.441 10.8053 103.441 6.961C103.441 3.11673 100.324 0.000335693 96.4802 0.000335693C92.6359 0.000335693 89.5195 3.11673 89.5195 6.961C89.5195 10.8053 92.6359 13.9217 96.4802 13.9217Z" fill="#FFD100"/>
<path d="M109.829 37.7297L99.8659 33.2878L97.8705 21.4609L102.137 30.9559L102.929 21.7433C103.152 19.1559 101.234 16.8781 98.6471 16.6557L90.2926 15.9374C87.7207 15.7164 85.4557 17.6095 85.2102 20.1733L77.585 26.7453C77.3373 26.9587 77.1243 27.2095 76.9539 27.4884L69.6984 39.3611C68.7918 40.8446 69.2596 42.7822 70.7431 43.6889C70.9135 43.793 71.0904 43.8774 71.2704 43.9458L67.1977 48.0184L63.5303 44.3508C62.3587 43.1793 60.4592 43.1793 59.2876 44.3508L57.888 45.7505C56.7164 46.922 56.7164 48.8216 57.888 49.9932L61.5554 53.6607L59.7103 55.5058L52.7647 48.5602C51.5931 47.3886 49.6936 47.3886 48.522 48.5602L33.1755 63.9066C32.004 65.0782 32.004 66.9778 33.1755 68.1493L37.7877 72.7616C37.5437 73.3685 37.4081 74.0302 37.4081 74.7232C37.4081 77.6329 39.7753 80 42.6848 80C45.5943 80 47.9616 77.6327 47.9616 74.7232C47.9616 74.0426 47.8307 73.3923 47.5949 72.7945L74.1704 46.1344C74.8721 45.4327 74.8728 44.2956 74.1729 43.5929C74.5248 43.3502 74.8336 43.0328 75.0709 42.6445L82.069 31.1927L84.4371 29.1517C84.4371 29.1517 83.3575 44.4234 83.3693 44.4987L85.6287 58.8894L79.598 74.8795C78.8605 76.835 79.8477 79.0182 81.8034 79.7558C83.7597 80.4935 85.9424 79.5052 86.6797 77.5504L93.0633 60.6252C93.2945 60.0124 93.3627 59.3499 93.261 58.7028L91.1003 44.9408L93.0723 45.1103L99.1467 58.5519L103.353 77.0543C103.817 79.0919 105.844 80.3689 107.883 79.9054C109.921 79.442 111.197 77.4143 110.734 75.3763L106.443 56.5021C106.386 56.2548 106.305 56.0138 106.201 55.7826L100.994 44.26L101.014 44.0206L94.5203 41.125C91.857 39.9376 90.8139 37.2582 90.9062 35.8121L91.7242 22.9442L93.9275 36.0042C94.1033 37.0457 94.7885 37.9298 95.7532 38.3599L107.261 43.4903C108.879 44.2121 110.731 43.4524 111.425 41.8941C112.135 40.303 111.42 38.4389 109.829 37.7297ZM42.6848 76.4021C41.759 76.4021 41.006 75.6489 41.006 74.7231C41.006 73.7974 41.759 73.0442 42.6848 73.0442C43.6107 73.0442 44.3637 73.7974 44.3637 74.7231C44.3639 75.6489 43.6107 76.4021 42.6848 76.4021Z" fill="#FFD100"/>
</g>
<path d="M64 87.1551L63.9645 87.125L64 87.0849L63.0984 86.3221L56.7921 80.5215C56.7921 80.5215 56.6807 80.6369 56.4983 80.8075L56.3311 80.9882C54.8926 82.3179 50.2832 86.1666 44.8735 86.2419C44.757 86.2419 44.6404 86.2419 44.5239 86.2419C41.6772 85.9358 38.9015 84.4204 36.0852 81.6154C31.4099 76.9388 26.2078 74.4148 20.6107 74.0786C20.4537 74.0786 20.2966 74.0786 20.1447 74.0786C19.3027 74.0046 18.4568 73.9828 17.612 74.0133C9.18338 74.3546 2.92268 79.9545 0.795251 82.1122C0.339375 82.5186 0.0658488 82.8096 0.00506529 82.8598L0.0354571 82.8899C0.0262093 82.9068 0.0142314 82.9221 0 82.9351L0.901623 83.6878L7.20792 89.4934L7.5017 89.2024L7.66886 89.0217C9.10233 87.687 13.7168 83.8383 19.1266 83.7681C19.2431 83.7681 19.3545 83.7681 19.471 83.7681C22.3228 84.0741 25.0935 85.5895 27.9098 88.3945C32.5901 93.0511 37.782 95.5751 43.3792 95.9213C43.5311 95.9213 43.6882 95.9213 43.8452 95.9213C44.6872 95.9955 45.5331 96.0172 46.3778 95.9865C54.8065 95.6453 61.0672 90.0504 63.1946 87.8927C63.6353 87.4712 63.9139 87.1852 63.9696 87.125" fill="#EFC825"/>
<defs>
<clipPath id="clip0">
<rect x="32" width="80" height="80" fill="white"/>
</clipPath>
</defs>
</svg>
