<svg width="12" height="12" viewBox="0 0 12 12" fill="none" xmlns="http://www.w3.org/2000/svg">
<rect width="12" height="12" rx="5" fill="#FF0000"/>
<path d="M7.35385 6L8.7077 7.35385C8.88211 7.53443 8.97861 7.77629 8.97643 8.02733C8.97425 8.27837 8.87356 8.51852 8.69603 8.69604C8.51851 8.87356 8.27837 8.97425 8.02733 8.97643C7.77628 8.97861 7.53443 8.88211 7.35385 8.7077L6 7.35385L4.64615 8.7077C4.55783 8.79915 4.45218 8.87209 4.33536 8.92227C4.21855 8.97245 4.09291 8.99886 3.96578 8.99996C3.83865 9.00107 3.71257 8.97684 3.5949 8.9287C3.47723 8.88056 3.37033 8.80947 3.28043 8.71957C3.19054 8.62967 3.11944 8.52277 3.0713 8.4051C3.02316 8.28743 2.99893 8.16135 3.00004 8.03422C3.00114 7.90709 3.02755 7.78145 3.07773 7.66464C3.12791 7.54782 3.20085 7.44217 3.2923 7.35385L4.64615 6L3.2923 4.64615C3.20085 4.55783 3.12791 4.45218 3.07773 4.33536C3.02755 4.21855 3.00114 4.09291 3.00004 3.96578C2.99893 3.83865 3.02316 3.71257 3.0713 3.5949C3.11944 3.47723 3.19054 3.37033 3.28043 3.28043C3.37033 3.19053 3.47723 3.11944 3.5949 3.0713C3.71257 3.02316 3.83865 2.99893 3.96578 3.00004C4.09291 3.00114 4.21855 3.02755 4.33536 3.07773C4.45218 3.12791 4.55783 3.20085 4.64615 3.2923L6 4.64615L7.35385 3.2923C7.44217 3.20085 7.54782 3.12791 7.66464 3.07773C7.78145 3.02755 7.90709 3.00114 8.03422 3.00004C8.16135 2.99893 8.28743 3.02316 8.4051 3.0713C8.52276 3.11944 8.62967 3.19053 8.71957 3.28043C8.80946 3.37033 8.88056 3.47723 8.9287 3.5949C8.97684 3.71257 9.00107 3.83865 8.99996 3.96578C8.99886 4.09291 8.97245 4.21855 8.92227 4.33536C8.87209 4.45218 8.79914 4.55783 8.7077 4.64615L7.35385 6Z" fill="white"/>
</svg>
