<svg width="922" height="543" viewBox="0 0 922 543" fill="none" xmlns="http://www.w3.org/2000/svg">
<g clip-path="url(#clip0)">
<path d="M222.362 431.016C222.581 430.866 222.736 430.637 222.793 430.378C222.851 430.118 222.808 429.846 222.673 429.616C222.515 429.394 222.28 429.238 222.014 429.181C221.748 429.123 221.469 429.168 221.234 429.305L160.618 468.771C160.417 468.929 160.283 469.157 160.244 469.41C160.204 469.662 160.261 469.92 160.404 470.132C160.547 470.344 160.765 470.494 161.014 470.552C161.263 470.609 161.524 470.571 161.746 470.443L222.362 431.016Z" fill="#476FB2"/>
<path d="M214.233 425.187C214.456 425.05 214.618 424.831 214.683 424.577C214.748 424.323 214.712 424.054 214.583 423.826C214.525 423.706 214.443 423.598 214.343 423.509C214.243 423.42 214.127 423.352 214 423.309C213.873 423.265 213.739 423.247 213.606 423.256C213.472 423.265 213.342 423.3 213.222 423.36L157.039 450.811C156.802 450.936 156.622 451.146 156.535 451.399C156.449 451.652 156.462 451.928 156.572 452.172C156.63 452.292 156.711 452.4 156.812 452.489C156.912 452.578 157.028 452.646 157.155 452.689C157.281 452.733 157.415 452.751 157.549 452.742C157.683 452.733 157.813 452.698 157.933 452.638L214.233 425.187Z" fill="#476FB2"/>
<path d="M227.532 431.015C227.387 431.167 227.306 431.369 227.306 431.579C227.306 431.789 227.387 431.991 227.532 432.143C227.677 432.285 227.872 432.365 228.076 432.365C228.279 432.365 228.475 432.285 228.62 432.143L384.145 319.81C384.29 319.658 384.371 319.456 384.371 319.246C384.371 319.036 384.29 318.834 384.145 318.682C384.087 318.598 384.012 318.525 383.926 318.47C383.839 318.414 383.743 318.376 383.641 318.358C383.54 318.34 383.436 318.342 383.336 318.364C383.236 318.387 383.141 318.429 383.057 318.488L227.532 431.015Z" fill="#476FB2"/>
<path d="M216.413 423.823C216.247 423.954 216.135 424.141 216.099 424.349C216.063 424.557 216.106 424.772 216.218 424.95C216.377 425.098 216.585 425.18 216.801 425.18C217.018 425.18 217.226 425.098 217.385 424.95L382.008 306.085C382.139 305.941 382.217 305.755 382.229 305.56C382.241 305.365 382.185 305.172 382.071 305.013C381.958 304.853 381.793 304.738 381.604 304.686C381.416 304.633 381.215 304.647 381.036 304.724L216.413 423.823Z" fill="#476FB2"/>
<path d="M699.63 177.383C699.701 177.513 699.799 177.625 699.918 177.712C700.037 177.799 700.174 177.86 700.318 177.889C700.463 177.917 700.612 177.914 700.756 177.879C700.899 177.845 701.033 177.779 701.148 177.687C701.263 177.594 701.357 177.478 701.422 177.346C701.488 177.214 701.523 177.069 701.527 176.922C701.531 176.774 701.502 176.628 701.443 176.493C701.384 176.357 701.296 176.237 701.185 176.139L597.8 45.4537C597.71 45.3596 597.601 45.2848 597.481 45.2337C597.36 45.1826 597.231 45.1562 597.1 45.1562C596.97 45.1562 596.84 45.1826 596.72 45.2337C596.6 45.2848 596.491 45.3596 596.401 45.4537C596.217 45.6484 596.115 45.9057 596.115 46.1731C596.115 46.4404 596.217 46.6977 596.401 46.8924L699.63 177.383Z" fill="#476FB2"/>
<path d="M696.711 178.279C696.863 178.424 697.065 178.505 697.275 178.505C697.485 178.505 697.687 178.424 697.839 178.279C697.975 178.123 698.051 177.922 698.051 177.715C698.051 177.507 697.975 177.307 697.839 177.151L562.921 71.5451C562.84 71.4584 562.74 71.3905 562.63 71.3461C562.52 71.3018 562.401 71.282 562.282 71.2882C562.164 71.2945 562.048 71.3265 561.943 71.3822C561.838 71.4379 561.746 71.5158 561.674 71.6106C561.603 71.7053 561.552 71.8146 561.527 71.9308C561.502 72.0469 561.503 72.1672 561.529 72.2832C561.555 72.3991 561.606 72.508 561.679 72.6021C561.751 72.6963 561.843 72.7734 561.949 72.8282L696.711 178.279Z" fill="#476FB2"/>
<path d="M790.338 424.021C789.816 424.15 789.365 424.479 789.081 424.937C788.798 425.395 788.705 425.945 788.822 426.471C788.943 426.99 789.264 427.441 789.715 427.725C790.167 428.009 790.712 428.103 791.233 427.987L928.406 396.881C928.667 396.825 928.914 396.719 929.133 396.568C929.353 396.416 929.54 396.223 929.685 395.999C929.829 395.775 929.928 395.524 929.976 395.262C930.023 395 930.018 394.73 929.961 394.47C929.877 394.07 929.671 393.706 929.371 393.427C929.072 393.149 928.694 392.97 928.289 392.915L888.747 385.449C888.486 385.393 888.217 385.39 887.954 385.44C887.692 385.49 887.443 385.593 887.222 385.742C887 385.89 886.811 386.082 886.666 386.306C886.52 386.53 886.421 386.78 886.375 387.043C886.325 387.306 886.327 387.577 886.382 387.839C886.437 388.101 886.543 388.35 886.695 388.571C886.847 388.792 887.042 388.98 887.267 389.125C887.492 389.27 887.744 389.368 888.008 389.415L917.986 395.092L790.338 424.021Z" fill="#476FB2"/>
<path d="M927.743 395.791C927.925 395.751 928.087 395.65 928.203 395.505C928.319 395.36 928.383 395.18 928.383 394.994C928.383 394.809 928.319 394.628 928.203 394.483C928.087 394.339 927.925 394.238 927.743 394.197L815.493 395.364C815.393 395.368 815.294 395.394 815.204 395.438C815.113 395.482 815.033 395.544 814.967 395.621C814.902 395.697 814.852 395.786 814.822 395.883C814.793 395.979 814.783 396.08 814.793 396.18C814.788 396.281 814.803 396.381 814.838 396.475C814.873 396.569 814.926 396.655 814.996 396.728C815.065 396.801 815.148 396.859 815.24 396.898C815.332 396.938 815.432 396.958 815.532 396.958L927.743 395.791Z" fill="#476FB2"/>
<path d="M379.247 35.8145H385.701V465.665H379.247V35.8145Z" fill="#476FB2"/>
<path d="M696.555 93.2812H703.01V466.83H696.555V93.2812Z" fill="#476FB2"/>
<path d="M560.044 0H566.498V497.235H560.044V0Z" fill="#476FB2"/>
<path d="M564.512 43.4725C564.766 43.3837 564.975 43.2012 565.098 42.9626C565.221 42.7239 565.248 42.4472 565.173 42.1894C565.093 41.939 564.918 41.7299 564.685 41.6064C564.453 41.483 564.182 41.455 563.929 41.5284L383.948 96.4311C383.69 96.5036 383.472 96.6753 383.341 96.9085C383.21 97.1418 383.176 97.4175 383.248 97.6753C383.329 97.9358 383.508 98.1546 383.748 98.2852C383.987 98.4159 384.268 98.4481 384.531 98.3752L564.512 43.4725Z" fill="#476FB2"/>
<path d="M564.32 100.083C564.454 100.062 564.582 100.013 564.697 99.941C564.812 99.8688 564.911 99.7743 564.989 99.663C565.066 99.5518 565.12 99.426 565.148 99.2933C565.176 99.1607 565.177 99.0237 565.151 98.8907C565.125 98.7576 565.072 98.6311 564.996 98.5188C564.92 98.4065 564.823 98.3106 564.709 98.2368C564.595 98.1631 564.468 98.113 564.334 98.0895C564.201 98.066 564.064 98.0696 563.932 98.1001C501.722 110.154 441.495 111.281 381.967 112.409H381.773C381.501 112.419 381.244 112.534 381.056 112.73C380.867 112.926 380.762 113.187 380.762 113.459C380.772 113.731 380.887 113.988 381.083 114.176C381.279 114.365 381.54 114.47 381.812 114.47H381.773C441.65 113.342 502.11 112.176 564.32 100.083Z" fill="#476FB2"/>
<path d="M564.517 100.394C564.775 100.322 564.993 100.15 565.124 99.9167C565.255 99.6834 565.289 99.4077 565.217 99.1499C565.144 98.8907 564.974 98.6694 564.742 98.5319C564.511 98.3944 564.235 98.3512 563.973 98.4111L384.069 148.104C383.806 148.176 383.583 148.349 383.448 148.586C383.313 148.823 383.278 149.104 383.35 149.367C383.422 149.63 383.596 149.854 383.833 149.989C384.07 150.123 384.351 150.159 384.614 150.087L564.517 100.394Z" fill="#476FB2"/>
<path d="M564.322 151.647C564.588 151.59 564.821 151.433 564.974 151.208C565.126 150.984 565.185 150.709 565.139 150.441C565.083 150.183 564.932 149.956 564.715 149.805C564.499 149.654 564.234 149.589 563.973 149.625C501.763 160.551 441.497 161.601 381.97 162.612H381.775C381.507 162.612 381.25 162.718 381.06 162.908C380.871 163.097 380.764 163.354 380.764 163.623C380.764 163.891 380.871 164.148 381.06 164.337C381.25 164.527 381.507 164.634 381.775 164.634H382.047C441.652 163.623 502.113 162.573 564.322 151.647Z" fill="#476FB2"/>
<path d="M94.0966 358.859L370.793 503.58L368.288 508.369L91.5919 363.648L94.0966 358.859Z" fill="#476FB2"/>
<path fill-rule="evenodd" clip-rule="evenodd" d="M837.774 414.377L684.038 451.044L675.212 468.658L585.046 478.145L581.547 487.594L418.246 485.649L407.786 462.747L323.725 452.949L303.002 474.412C278.934 511.273 235.465 475.151 201.366 446.378C211.903 505.13 274.929 536.897 316.338 541.757L809.468 543.002V519.983L848.35 468.541L837.774 414.377Z" fill="#476FB2"/>
<path fill-rule="evenodd" clip-rule="evenodd" d="M714.984 317.867L707.986 338.903H693.989L687.884 319.656L714.984 317.867Z" fill="#476FB2"/>
<path fill-rule="evenodd" clip-rule="evenodd" d="M334.143 454.036L323.839 452.83L303.116 474.294C279.126 511.038 235.89 475.266 201.83 446.531C206.612 465.662 223.448 484.481 247.515 494.707C282.742 509.677 320.495 500.812 331.46 474.916C334.228 468.327 335.155 461.11 334.143 454.036Z" fill="#476FB2"/>
<path fill-rule="evenodd" clip-rule="evenodd" d="M151.444 395.01L140.285 387.545L161.709 475.265L151.444 395.01Z" fill="#476FB2"/>
<path fill-rule="evenodd" clip-rule="evenodd" d="M199.614 414.879L-0.0022583 310.479L201.441 411.419L199.614 414.879Z" fill="#476FB2"/>
<path d="M382.593 81.2301C382.698 81.1484 382.786 81.0469 382.851 80.9314C382.917 80.8158 382.959 80.6885 382.975 80.5567C382.991 80.425 382.981 80.2913 382.946 80.1633C382.91 80.0353 382.85 79.9156 382.768 79.8109C382.687 79.7062 382.585 79.6187 382.47 79.5532C382.354 79.4878 382.227 79.4457 382.095 79.4295C381.963 79.4132 381.83 79.4231 381.702 79.4585C381.574 79.4939 381.454 79.5542 381.349 79.6359L56.4577 337.702C56.3487 337.782 56.257 337.884 56.188 338C56.119 338.117 56.0741 338.246 56.056 338.38C56.0378 338.514 56.0468 338.651 56.0824 338.781C56.118 338.912 56.1795 339.034 56.2632 339.141C56.458 339.324 56.7152 339.426 56.9825 339.426C57.2499 339.426 57.5071 339.324 57.7018 339.141L382.593 81.2301Z" fill="#476FB2"/>
<path d="M564.515 162.022C564.773 161.945 564.989 161.768 565.117 161.531C565.245 161.294 565.273 161.016 565.195 160.758C565.118 160.501 564.942 160.284 564.705 160.156C564.468 160.029 564.19 160.001 563.932 160.078L384.028 214.981C383.768 215.062 383.549 215.241 383.419 215.48C383.288 215.72 383.256 216.001 383.329 216.264C383.417 216.517 383.6 216.727 383.839 216.85C384.077 216.973 384.354 217 384.612 216.925L564.515 162.022Z" fill="#476FB2"/>
<path d="M562.963 224.512C563.229 224.456 563.462 224.299 563.614 224.074C563.767 223.849 563.826 223.574 563.78 223.307C563.752 223.177 563.699 223.053 563.623 222.943C563.547 222.833 563.451 222.74 563.339 222.667C563.227 222.595 563.102 222.546 562.97 222.522C562.839 222.498 562.705 222.501 562.574 222.529C516.5 231.472 472.059 231.2 427.851 230.889C412.298 230.889 397.096 230.695 381.699 230.889C381.431 230.889 381.174 230.996 380.984 231.185C380.795 231.375 380.688 231.632 380.688 231.9C380.688 232.168 380.795 232.425 380.984 232.615C381.174 232.805 381.431 232.911 381.699 232.911C397.057 232.6 412.415 232.911 427.812 232.911C472.175 233.3 516.733 233.494 562.963 224.512Z" fill="#476FB2"/>
<path fill-rule="evenodd" clip-rule="evenodd" d="M563.119 23.681C552.31 31.652 545.428 34.5294 535.902 29.0857C533.219 27.6082 527.348 23.0978 524.238 20.8815C520.815 17.8303 516.568 15.8558 512.029 15.2045C508.136 15.0607 504.288 16.0903 500.987 18.1596C496.788 20.5315 490.8 26.9861 485.123 28.4636C478.28 30.2134 471.515 24.5753 464.478 19.7927C470.582 20.1816 479.369 25.0808 485.668 22.8256C490.917 20.9981 492.666 18.043 497.332 15.049C501.12 11.8303 505.972 10.139 510.941 10.3053C519.067 10.5775 524.121 14.1936 532.87 18.704C528.671 13.8703 523.161 10.3585 517.006 8.59445C513.904 7.76229 510.679 7.48585 507.48 7.77791C498.926 8.2445 490.8 15.7489 482.596 17.9652C476.336 19.6761 467.782 10.6941 464.711 7.89456C465.644 6.61142 474.975 15.049 482.13 13.2993C485.517 12.5594 488.752 11.2443 491.694 9.41099C495.617 6.43091 500.155 4.3643 504.978 3.36198C509.801 2.35967 514.787 2.44694 519.572 3.61744C526.726 5.71711 532.364 10.4219 538.546 12.8716C541.53 13.8393 544.764 13.6872 547.644 12.4439C554.604 10.1109 554.099 8.32227 562.886 1.55664L563.119 23.681Z" fill="#476FB2"/>
<path fill-rule="evenodd" clip-rule="evenodd" d="M382.283 58.3273C371.513 66.2983 364.631 69.1757 355.066 63.7321C352.384 62.2156 346.551 57.7441 343.635 55.5278C340.18 52.409 335.851 50.4272 331.232 49.8508C327.369 49.711 323.551 50.7264 320.268 52.7671C316.068 55.1389 310.081 61.6324 304.443 63.1099C297.639 64.8597 290.873 59.2216 283.836 54.4002C289.94 54.8279 298.689 59.7271 304.987 57.4719C310.236 55.6055 311.947 52.6893 316.652 49.6953C320.439 46.5063 325.272 44.8305 330.221 44.9905C338.309 45.2627 343.363 48.8788 352.072 53.3503C347.889 48.5359 342.409 45.0265 336.287 43.2408C333.174 42.4696 329.955 42.2199 326.761 42.502C318.246 42.9686 310.12 50.5119 301.955 52.7282C295.695 54.4002 287.18 45.4571 284.108 42.6575C285.041 41.3355 294.334 49.7731 301.488 48.0234C304.884 47.3114 308.123 45.9943 311.053 44.1351C314.963 41.1024 319.512 38.998 324.355 37.9809C329.198 36.9638 334.208 37.0605 339.008 38.2637C346.124 40.3245 351.761 45.0683 357.944 47.5179C360.916 48.4928 364.146 48.3264 367.003 47.0513C373.963 44.7572 373.457 43.163 382.205 36.1641L382.283 58.3273Z" fill="#476FB2"/>
<path fill-rule="evenodd" clip-rule="evenodd" d="M698.23 94.7595C689.56 86.983 684.078 84.1834 676.301 89.4715C674.163 90.949 669.497 95.3428 667.164 97.4813C664.606 100.391 661.139 102.35 657.327 103.042C654.139 103.147 651.015 102.128 648.501 100.164C645.119 97.8702 640.336 91.5323 635.787 90.0936C630.305 88.3827 624.9 93.9819 619.224 98.5701C624.123 98.1812 631.16 93.3986 636.215 95.5761C640.414 97.4036 641.814 100.281 645.508 103.353C646.896 104.855 648.589 106.044 650.473 106.842C652.356 107.639 654.388 108.027 656.433 107.98C662.926 107.708 666.97 104.091 674.007 99.7754C670.897 104.307 666.454 107.759 661.293 109.652C658.781 110.436 656.132 110.687 653.517 110.39C646.674 109.924 640.142 102.614 633.571 100.436C628.555 98.7645 621.673 107.513 619.224 110.274C619.963 111.518 627.467 103.275 633.182 104.986C636.014 105.735 638.661 107.058 640.958 108.874C647.685 114.512 655.656 117.312 663.315 114.59C669.031 112.568 673.541 107.941 678.518 105.569C679.684 105.09 680.943 104.88 682.202 104.954C683.461 105.028 684.686 105.384 685.788 105.997C691.387 108.252 690.96 109.885 698.036 116.612L698.23 94.7595Z" fill="#476FB2"/>
<path d="M297.287 412.158C297.13 412.057 296.944 412.014 296.759 412.034C296.574 412.054 296.402 412.137 296.271 412.268C296.139 412.4 296.056 412.572 296.036 412.757C296.016 412.942 296.06 413.128 296.16 413.285L340.018 457.612C340.17 457.757 340.372 457.838 340.582 457.838C340.792 457.838 340.993 457.757 341.145 457.612C341.293 457.453 341.375 457.245 341.375 457.028C341.375 456.812 341.293 456.604 341.145 456.445L297.287 412.158Z" fill="#476FB2"/>
<path d="M256.926 374.131C256.832 374.035 256.72 373.96 256.597 373.908C256.473 373.857 256.341 373.83 256.207 373.83C256.073 373.83 255.941 373.857 255.817 373.908C255.694 373.96 255.582 374.035 255.488 374.131C255.305 374.325 255.203 374.583 255.203 374.85C255.203 375.117 255.305 375.375 255.488 375.569L322.947 456.135C323.027 456.248 323.13 456.344 323.249 456.416C323.368 456.488 323.5 456.535 323.638 456.553C323.776 456.572 323.916 456.562 324.05 456.523C324.184 456.485 324.308 456.42 324.416 456.331C324.523 456.243 324.611 456.133 324.674 456.009C324.737 455.885 324.773 455.749 324.781 455.61C324.79 455.471 324.769 455.332 324.721 455.202C324.673 455.071 324.598 454.952 324.502 454.852L256.926 374.131Z" fill="#476FB2"/>
<path d="M195.69 326.615C195.478 326.445 195.208 326.365 194.938 326.395C194.668 326.424 194.421 326.559 194.251 326.77C194.081 326.982 194.002 327.252 194.031 327.522C194.06 327.792 194.195 328.039 194.406 328.209L361.324 459.594C361.518 459.778 361.775 459.88 362.043 459.88C362.31 459.88 362.567 459.778 362.762 459.594C362.846 459.488 362.907 459.366 362.943 459.235C362.979 459.105 362.988 458.968 362.969 458.834C362.951 458.7 362.906 458.571 362.837 458.454C362.768 458.338 362.677 458.236 362.568 458.156L195.69 326.615Z" fill="#476FB2"/>
<path d="M846.25 469.005C847.812 468.532 849.136 467.486 849.957 466.075C850.778 464.665 851.035 462.996 850.675 461.405C850.315 459.813 849.366 458.417 848.019 457.497C846.671 456.577 845.025 456.201 843.412 456.446L756.162 476.782C754.696 477.383 753.372 478.284 752.274 479.426L744.498 490.819L311.516 491.324C307.939 491.324 288.965 484.325 288.965 487.863C288.965 491.402 307.939 504.194 311.516 504.194L748.036 503.728C750.048 503.403 751.895 502.418 753.285 500.928L761.411 488.797L846.25 469.005Z" fill="#476FB2"/>
<path fill-rule="evenodd" clip-rule="evenodd" d="M724.394 497.352H717.823C717.616 497.351 717.41 497.393 717.219 497.474C717.028 497.554 716.854 497.672 716.71 497.821C716.565 497.969 716.451 498.145 716.375 498.339C716.299 498.532 716.263 498.738 716.268 498.946V504.312C716.263 504.519 716.299 504.725 716.375 504.919C716.451 505.112 716.565 505.288 716.71 505.437C716.854 505.585 717.028 505.703 717.219 505.784C717.41 505.864 717.616 505.906 717.823 505.906H724.394C724.817 505.906 725.222 505.738 725.521 505.439C725.82 505.14 725.988 504.734 725.988 504.312V498.946C725.988 498.523 725.82 498.117 725.521 497.818C725.222 497.52 724.817 497.352 724.394 497.352Z" fill="#476FB2"/>
<path fill-rule="evenodd" clip-rule="evenodd" d="M697.025 497.352H690.454C690.247 497.351 690.041 497.393 689.85 497.474C689.659 497.554 689.485 497.672 689.34 497.821C689.195 497.969 689.082 498.145 689.006 498.339C688.93 498.532 688.894 498.738 688.899 498.946V504.312C688.894 504.519 688.93 504.725 689.006 504.919C689.082 505.112 689.195 505.288 689.34 505.437C689.485 505.585 689.659 505.703 689.85 505.784C690.041 505.864 690.247 505.906 690.454 505.906H697.025C697.448 505.906 697.853 505.738 698.152 505.439C698.451 505.14 698.619 504.734 698.619 504.312V498.946C698.619 498.523 698.451 498.117 698.152 497.818C697.853 497.52 697.448 497.352 697.025 497.352Z" fill="#476FB2"/>
<path fill-rule="evenodd" clip-rule="evenodd" d="M669.497 497.352H662.926C662.503 497.352 662.098 497.52 661.799 497.818C661.5 498.117 661.332 498.523 661.332 498.946V504.312C661.332 504.734 661.5 505.14 661.799 505.439C662.098 505.738 662.503 505.906 662.926 505.906H669.497C669.705 505.906 669.91 505.864 670.101 505.784C670.293 505.703 670.466 505.585 670.611 505.437C670.756 505.288 670.869 505.112 670.945 504.919C671.021 504.725 671.057 504.519 671.052 504.312V498.946C671.057 498.738 671.021 498.532 670.945 498.339C670.869 498.145 670.756 497.969 670.611 497.821C670.466 497.672 670.293 497.554 670.101 497.474C669.91 497.393 669.705 497.351 669.497 497.352Z" fill="#476FB2"/>
<path d="M635.747 497.352H642.279C643.159 497.352 643.873 498.065 643.873 498.946V504.312C643.873 505.192 643.159 505.906 642.279 505.906H635.747C634.866 505.906 634.153 505.192 634.153 504.312V498.946C634.153 498.065 634.866 497.352 635.747 497.352Z" fill="#476FB2"/>
<path d="M608.417 497.352H614.949C615.829 497.352 616.543 498.065 616.543 498.946V504.312C616.543 505.192 615.829 505.906 614.949 505.906H608.417C607.536 505.906 606.823 505.192 606.823 504.312V498.946C606.823 498.065 607.536 497.352 608.417 497.352Z" fill="#476FB2"/>
<path fill-rule="evenodd" clip-rule="evenodd" d="M587.572 497.352H581.001C580.793 497.351 580.588 497.393 580.397 497.474C580.205 497.554 580.032 497.672 579.887 497.821C579.742 497.969 579.629 498.145 579.553 498.339C579.477 498.532 579.441 498.738 579.446 498.946V504.312C579.441 504.519 579.477 504.725 579.553 504.919C579.629 505.112 579.742 505.288 579.887 505.437C580.032 505.585 580.205 505.703 580.397 505.784C580.588 505.864 580.793 505.906 581.001 505.906H587.572C587.995 505.906 588.4 505.738 588.699 505.439C588.998 505.14 589.166 504.734 589.166 504.312V498.946C589.166 498.523 588.998 498.117 588.699 497.818C588.4 497.52 587.995 497.352 587.572 497.352Z" fill="#476FB2"/>
<path fill-rule="evenodd" clip-rule="evenodd" d="M560.241 497.352H553.67C553.247 497.352 552.842 497.52 552.543 497.818C552.244 498.117 552.076 498.523 552.076 498.946V504.312C552.076 504.734 552.244 505.14 552.543 505.439C552.842 505.738 553.247 505.906 553.67 505.906H560.241C560.449 505.906 560.654 505.864 560.845 505.784C561.037 505.703 561.21 505.585 561.355 505.437C561.5 505.288 561.613 505.112 561.689 504.919C561.765 504.725 561.802 504.519 561.796 504.312V498.946C561.802 498.738 561.765 498.532 561.689 498.339C561.613 498.145 561.5 497.969 561.355 497.821C561.21 497.672 561.037 497.554 560.845 497.474C560.654 497.393 560.449 497.351 560.241 497.352Z" fill="#476FB2"/>
<path fill-rule="evenodd" clip-rule="evenodd" d="M532.866 497.352H526.295C525.872 497.352 525.467 497.52 525.168 497.818C524.869 498.117 524.701 498.523 524.701 498.946V504.312C524.701 504.734 524.869 505.14 525.168 505.439C525.467 505.738 525.872 505.906 526.295 505.906H532.866C533.074 505.906 533.279 505.864 533.47 505.784C533.662 505.703 533.835 505.585 533.98 505.437C534.125 505.288 534.238 505.112 534.314 504.919C534.39 504.725 534.427 504.519 534.421 504.312V498.946C534.427 498.738 534.39 498.532 534.314 498.339C534.238 498.145 534.125 497.969 533.98 497.821C533.835 497.672 533.662 497.554 533.47 497.474C533.279 497.393 533.074 497.351 532.866 497.352Z" fill="#476FB2"/>
<path fill-rule="evenodd" clip-rule="evenodd" d="M505.496 497.352H498.925C498.502 497.352 498.096 497.52 497.798 497.818C497.499 498.117 497.331 498.523 497.331 498.946V504.312C497.331 504.734 497.499 505.14 497.798 505.439C498.096 505.738 498.502 505.906 498.925 505.906H505.496C505.918 505.906 506.324 505.738 506.623 505.439C506.922 505.14 507.09 504.734 507.09 504.312V498.946C507.09 498.523 506.922 498.117 506.623 497.818C506.324 497.52 505.918 497.352 505.496 497.352Z" fill="#476FB2"/>
<path fill-rule="evenodd" clip-rule="evenodd" d="M478.121 497.352H471.55C471.342 497.351 471.137 497.393 470.945 497.474C470.754 497.554 470.581 497.672 470.436 497.821C470.291 497.969 470.177 498.145 470.102 498.339C470.026 498.532 469.989 498.738 469.994 498.946V504.312C469.989 504.519 470.026 504.725 470.102 504.919C470.177 505.112 470.291 505.288 470.436 505.437C470.581 505.585 470.754 505.703 470.945 505.784C471.137 505.864 471.342 505.906 471.55 505.906H478.121C478.543 505.906 478.949 505.738 479.248 505.439C479.547 505.14 479.715 504.734 479.715 504.312V498.946C479.715 498.523 479.547 498.117 479.248 497.818C478.949 497.52 478.543 497.352 478.121 497.352Z" fill="#476FB2"/>
<path fill-rule="evenodd" clip-rule="evenodd" d="M450.752 497.352H444.219C443.797 497.352 443.391 497.52 443.092 497.818C442.793 498.117 442.625 498.523 442.625 498.946V504.312C442.625 504.734 442.793 505.14 443.092 505.439C443.391 505.738 443.797 505.906 444.219 505.906H450.752C451.174 505.906 451.58 505.738 451.879 505.439C452.178 505.14 452.346 504.734 452.346 504.312V498.946C452.346 498.523 452.178 498.117 451.879 497.818C451.58 497.52 451.174 497.352 450.752 497.352Z" fill="#476FB2"/>
<path fill-rule="evenodd" clip-rule="evenodd" d="M423.417 497.352H416.768C416.345 497.352 415.94 497.52 415.641 497.818C415.342 498.117 415.174 498.523 415.174 498.946V504.312C415.174 504.734 415.342 505.14 415.641 505.439C415.94 505.738 416.345 505.906 416.768 505.906H423.339C423.546 505.906 423.752 505.864 423.943 505.784C424.134 505.703 424.308 505.585 424.452 505.437C424.597 505.288 424.711 505.112 424.787 504.919C424.863 504.725 424.899 504.519 424.894 504.312V498.946C424.905 498.54 424.756 498.146 424.48 497.848C424.204 497.55 423.822 497.372 423.417 497.352Z" fill="#476FB2"/>
<path fill-rule="evenodd" clip-rule="evenodd" d="M396.043 497.353H389.55C389.127 497.353 388.721 497.521 388.422 497.82C388.124 498.119 387.956 498.525 387.956 498.948V504.313C387.956 504.736 388.124 505.142 388.422 505.441C388.721 505.74 389.127 505.908 389.55 505.908H396.121C396.543 505.908 396.949 505.74 397.248 505.441C397.547 505.142 397.715 504.736 397.715 504.313V498.948C397.715 498.732 397.671 498.518 397.586 498.319C397.502 498.12 397.377 497.941 397.221 497.792C397.064 497.643 396.879 497.527 396.677 497.452C396.474 497.376 396.259 497.343 396.043 497.353Z" fill="#476FB2"/>
<path fill-rule="evenodd" clip-rule="evenodd" d="M368.67 497.352H362.099C361.891 497.351 361.686 497.393 361.494 497.474C361.303 497.554 361.13 497.672 360.985 497.821C360.84 497.969 360.726 498.145 360.65 498.339C360.575 498.532 360.538 498.738 360.543 498.946V504.312C360.538 504.519 360.575 504.725 360.65 504.919C360.726 505.112 360.84 505.288 360.985 505.437C361.13 505.585 361.303 505.703 361.494 505.784C361.686 505.864 361.891 505.906 362.099 505.906H368.67C369.092 505.906 369.498 505.738 369.797 505.439C370.096 505.14 370.264 504.734 370.264 504.312V498.946C370.264 498.523 370.096 498.117 369.797 497.818C369.498 497.52 369.092 497.352 368.67 497.352Z" fill="#476FB2"/>
<path fill-rule="evenodd" clip-rule="evenodd" d="M459.264 74.2656C454.021 85.7335 452.921 98.666 456.153 110.854L382.473 114.043L382.201 98.4897C407.668 90.2854 433.796 82.5866 459.264 74.2656Z" fill="#476FB2"/>
<path fill-rule="evenodd" clip-rule="evenodd" d="M658.647 304.023L519.492 323.465C504.561 376.423 497.329 399.364 506.272 457.105C567.86 428.993 624.86 425.999 689.014 450.534C655.226 393.804 624.043 337.463 658.647 304.023Z" fill="#476FB2"/>
<path fill-rule="evenodd" clip-rule="evenodd" d="M615.567 99.9277L518.091 114.82C509.81 138.15 505.688 148.376 514.514 172.678C555.699 157.657 600.108 153.728 643.289 161.285C617.044 138.5 592.549 115.87 615.567 99.9277Z" fill="#476FB2"/>
<path fill-rule="evenodd" clip-rule="evenodd" d="M598.071 45.4531L531.312 58.8289C525.635 79.8256 522.836 88.9631 528.862 110.815C556.22 97.4145 587.347 93.8048 617.045 100.589C599.082 80.0978 582.324 59.762 598.071 45.4531Z" fill="#476FB2"/>
<path fill-rule="evenodd" clip-rule="evenodd" d="M754.526 224.396L660.783 241.505C651.49 277.161 646.941 292.636 653.862 330.936C695.076 310.444 733.569 306.828 777.193 321.254C753.592 284.237 731.702 247.648 754.526 224.396Z" fill="#476FB2"/>
<path fill-rule="evenodd" clip-rule="evenodd" d="M739.48 164.477L664.983 181.896C658.179 203.398 654.718 217.357 656.352 236.332C679.097 228.089 715.723 212.458 750.6 219.962C736.875 198.305 727.815 182.752 739.48 164.477Z" fill="#476FB2"/>
<path fill-rule="evenodd" clip-rule="evenodd" d="M725.912 133.447L675.755 144.607C671.206 158.41 668.873 167.392 669.962 179.601C685.281 174.274 709.893 164.048 733.377 169.064C723.929 155.183 717.98 145.112 725.912 133.447Z" fill="#476FB2"/>
<path fill-rule="evenodd" clip-rule="evenodd" d="M814.29 237.186L732.95 312.191C734.272 356.439 735.672 382.841 756.512 424.485C802.703 395.361 836.063 386.651 891.119 388.518C851.616 353.834 795.743 271.558 814.29 237.186Z" fill="#476FB2"/>
<path fill-rule="evenodd" clip-rule="evenodd" d="M642.98 164.744L502.814 190.524C488.933 243.793 482.129 266.928 492.51 323.97C554.098 293.136 611.642 287.731 676.885 309.272C641.581 254.175 608.765 199.505 642.98 164.744Z" fill="#476FB2"/>
<path fill-rule="evenodd" clip-rule="evenodd" d="M471.514 125.32C468.452 130.733 466.504 136.703 465.783 142.88C465.062 149.056 465.583 155.315 467.314 161.287L382.67 164.164L382.32 150.244C411.481 142.662 442.236 132.864 471.514 125.32Z" fill="#476FB2"/>
<path fill-rule="evenodd" clip-rule="evenodd" d="M486.754 184.77C479.911 197.951 474.662 218.403 478.472 231.429L382.747 231.896L383.019 216.342C414.824 207.049 455.221 194.101 486.754 184.77Z" fill="#476FB2"/>
<path fill-rule="evenodd" clip-rule="evenodd" d="M434.769 133.326L336.283 154.245C328.002 177.575 323.88 192.739 326.718 213.075C356.657 203.51 404.831 185.585 451.488 192.7C432.32 169.915 419.761 153.273 434.769 133.326Z" fill="#476FB2"/>
<path fill-rule="evenodd" clip-rule="evenodd" d="M417.118 77.416L354.364 95.8465C348.687 116.843 341.883 120.965 347.91 142.778C375.314 129.391 406.477 125.796 436.209 132.591C418.129 112.1 401.216 91.7638 417.118 77.416Z" fill="#476FB2"/>
<path fill-rule="evenodd" clip-rule="evenodd" d="M451.764 195.037L324.039 223.305C310.936 273.503 300.361 291.078 310.12 344.775C368.092 315.924 422.292 310.869 483.725 331.127C450.442 279.258 419.532 227.777 451.764 195.037Z" fill="#476FB2"/>
<path fill-rule="evenodd" clip-rule="evenodd" d="M473.925 321.99L321.278 346.836C306.814 391.124 301.215 401.895 309.885 450.187C369.374 426.857 424.468 424.213 486.367 444.705C462.222 397.112 448.886 355.041 473.925 321.99Z" fill="#476FB2"/>
<path fill-rule="evenodd" clip-rule="evenodd" d="M336.713 161.828C217.114 232.284 175.706 245.854 86.279 315.61C133.131 306.861 161.164 304.645 195.419 327.586C196.974 279.488 250.591 230.418 336.713 161.828Z" fill="#476FB2"/>
<path fill-rule="evenodd" clip-rule="evenodd" d="M374.773 201.219C265.556 271.675 205.018 299.281 116.485 360.25C180.251 344.502 225.081 351.929 256.458 374.87C257.663 326.616 288.263 268.058 374.773 201.219Z" fill="#476FB2"/>
<path fill-rule="evenodd" clip-rule="evenodd" d="M351.756 234.93C286.63 307.718 248.254 339.914 196.231 401.582C241.605 384.979 273.294 396.449 297.322 413.597C288.846 378.485 302.377 300.603 351.756 234.93Z" fill="#476FB2"/>
<path d="M674.629 305.39V304.768L723.502 308.15V308.773H723.93L782.252 469.942H781.008L778.247 462.166H770.471L773.115 469.942H771.871L769.227 462.166H761.451L763.939 469.942H762.656L760.206 462.166H752.43L754.763 469.942H753.519L751.225 462.166H743.449L745.626 469.942H744.382L742.204 462.166H734.428L736.45 469.942H735.206L733.184 462.166H725.408L727.313 469.942H726.069L724.202 462.166H716.426L718.176 469.942H716.154L714.404 462.166H706.628L708.222 469.942H706.939L674.279 305.351L674.629 305.39ZM715.454 363.714L719.031 376.468L725.485 376.701L721.597 363.947L715.454 363.714ZM721.325 362.664L717.437 349.95H711.527L715.104 362.703L721.325 362.664ZM719.381 377.751L722.997 390.504H729.685L725.796 377.751H719.381ZM723.269 391.788L726.846 404.541H733.767L729.879 391.788H723.269ZM722.219 391.788H715.493L718.837 404.58H725.758L722.219 391.788ZM721.869 390.543L718.292 377.751H711.838L715.182 390.543H721.869ZM717.981 376.507L714.443 363.714L708.222 363.481L711.527 376.273L717.981 376.507ZM714.093 362.431L710.594 349.95L704.49 349.561L707.833 362.353L714.093 362.431ZM710.205 348.394L706.628 335.602L700.874 335.33L704.217 348.122L710.205 348.394ZM711.138 348.394L717.126 348.666L713.238 335.913L707.483 335.641L711.138 348.394ZM718.059 348.705L723.93 349.172L720.042 336.457L714.249 336.185L718.059 348.705ZM718.409 349.988L722.297 362.742L728.518 362.975L724.63 350.261L718.409 349.988ZM722.647 363.986L726.535 376.74H732.989L729.101 364.025L722.647 363.986ZM726.846 377.984L730.734 390.738H737.422L733.534 378.023L726.846 377.984ZM731.045 391.982L734.934 404.736H741.854L737.966 392.021L731.045 391.982ZM735.245 405.98L739.133 418.733H746.287L742.399 406.019L735.245 405.98ZM734.195 405.98H727.235L730.812 418.733H737.966L734.195 405.98ZM726.146 405.98H719.187L722.53 418.772H729.685L726.146 405.98ZM718.137 405.98H711.177L714.288 418.85H721.442L718.137 405.98ZM717.787 404.697L714.482 391.904H707.794L710.905 404.386L717.787 404.697ZM714.171 390.621L710.866 377.829H704.373L707.483 390.66L714.171 390.621ZM710.516 376.545L707.25 363.753L700.99 363.52L704.101 376.351L710.516 376.545ZM706.9 362.47L703.595 349.677L697.608 349.405L700.601 362.081L706.9 362.47ZM703.284 348.394L699.979 335.602L694.186 335.291L697.297 348.122L703.284 348.394ZM699.629 334.319L696.324 321.487L690.803 321.176L693.875 334.008L699.629 334.319ZM700.601 334.396H706.317L702.779 321.604L697.258 321.293L700.601 334.396ZM707.211 334.396L712.966 334.707L709.078 321.954L703.517 321.643L707.211 334.396ZM713.86 334.746L719.614 335.057L715.726 322.343L710.205 322.032L713.86 334.746ZM720.509 335.096L726.263 335.407L721.986 322.731H716.465L720.509 335.096ZM720.936 336.379L725.019 349.094L731.007 349.366L726.691 336.652L720.936 336.379ZM725.408 350.338L729.296 363.053L735.517 363.286L731.24 350.611L725.408 350.338ZM729.879 364.297L733.767 377.012H740.221L735.944 364.336L729.879 364.297ZM734.35 378.256L738.238 390.971H744.926L740.649 378.256H734.35ZM738.861 392.215L742.749 404.93H749.708L745.548 392.721L738.861 392.215ZM743.371 406.33L747.259 419.044H754.413L750.097 406.369L743.371 406.33ZM747.842 420.328L751.73 433.003H759.118L754.841 420.328H747.842ZM746.715 420.328H739.56L743.449 433.081H750.836L746.715 420.328ZM738.433 420.328H731.24L734.817 433.081H742.243L738.433 420.328ZM730.112 420.328H722.958L726.302 433.12H733.689L730.112 420.328ZM721.831 420.328H714.638L717.748 433.198H725.135L721.831 420.328ZM713.549 420.328H706.356L709.194 433.198H716.582L713.549 420.328ZM713.238 419.044L710.166 406.213H703.245L706.084 419.083L713.238 419.044ZM709.855 404.93L706.822 392.099H700.096L702.895 404.386L709.855 404.93ZM706.511 390.815L703.44 377.984L696.947 377.168L699.785 390.038L706.511 390.815ZM703.168 376.701L700.096 363.87L693.836 363.597L696.713 375.962L703.168 376.701ZM699.785 362.586L696.752 349.755L690.726 349.483L693.564 362.353L699.785 362.586ZM696.441 348.472L693.369 335.602L687.615 335.33L690.453 348.2L696.441 348.472ZM692.825 333.813L689.792 320.943L684.232 320.632L687.071 333.502L692.825 333.813ZM689.481 319.699L686.41 306.828L681.161 306.478L683.999 319.349L689.481 319.699ZM690.337 319.699L695.858 320.049L692.825 307.178L687.537 306.828L690.337 319.699ZM696.713 320.087L702.234 320.437L698.696 307.645L693.564 307.178L696.713 320.087ZM703.09 320.476L708.611 320.826L704.723 308.073L699.435 307.723L703.09 320.476ZM709.466 320.865L714.987 321.215L711.099 308.5L705.811 308.112L709.466 320.865ZM715.843 321.254L721.364 321.604L717.087 308.928L711.76 308.539L715.843 321.254ZM722.219 321.643L727.818 322.032L723.308 309.395L717.981 309.006L722.219 321.643ZM722.647 322.887L726.963 335.602L732.717 335.874L728.207 323.237L722.647 322.887ZM727.391 336.846L731.94 349.561L737.927 349.95L733.378 337.274L727.391 336.846ZM732.173 350.766L736.489 363.442L742.71 363.675L738.161 351.038L732.173 350.766ZM737.111 364.725L741.427 377.401L747.881 377.634L743.371 364.958L737.111 364.725ZM741.854 378.645L746.17 391.321H752.858L748.348 378.684L741.854 378.645ZM746.598 392.721L750.914 405.397H757.835L753.324 392.721H746.598ZM751.147 406.524L755.463 419.2H762.656L758.107 406.563L751.147 406.524ZM755.89 420.444L760.245 433.12H767.633L763.084 420.483L755.89 420.444ZM760.673 434.364L765.183 447.157H772.959L768.41 434.52L760.673 434.364ZM759.506 434.364H752.08L756.357 447.157H764.133L759.506 434.364ZM750.953 434.364H743.526L747.414 447.118H755.035L750.953 434.364ZM742.36 434.364H734.934L738.549 447.157H746.326L742.36 434.364ZM733.806 434.364H726.38L729.723 447.157H737.5L733.806 434.364ZM725.213 434.364H717.826L720.897 447.196H728.674L725.213 434.364ZM716.659 434.364H709.233L712.266 446.69H720.042L716.659 434.364ZM708.105 434.364H700.679L703.284 447.273H711.06L708.105 434.364ZM707.794 433.12L704.995 420.211H697.841L700.601 432.459L707.794 433.12ZM704.723 418.967L701.923 406.058H694.964L697.569 418.967H704.723ZM701.651 404.813L698.813 391.904H692.125L694.73 404.813H701.651ZM698.541 390.66L695.936 377.168H689.442L692.048 390.077L698.541 390.66ZM695.469 376.507L692.825 363.014L686.604 362.781L689.209 375.69L695.469 376.507ZM692.359 362.353L689.559 349.483L683.533 349.211L686.332 361.614L692.359 362.353ZM689.287 348.2L686.488 335.291L680.889 334.396L683.494 347.306L689.287 348.2ZM686.176 334.046L683.377 321.137L677.856 320.826L680.422 333.735L686.176 334.046ZM683.105 319.893L680.305 307.023L674.979 306.634L677.778 318.843L683.105 319.893ZM777.586 461.582L773.037 448.945H765.261L769.577 461.621L777.586 461.582ZM768.488 461.582L764.211 448.907H756.435L760.517 461.621L768.488 461.582ZM759.429 461.582L755.541 448.868H747.764L751.652 461.582H759.429ZM750.33 461.582L746.442 448.829H738.666L742.243 461.621L750.33 461.582ZM741.232 461.582L737.694 448.79H729.918L733.262 461.582H741.232ZM732.173 461.582L728.868 448.751H721.092L724.202 461.582H732.173ZM723.075 461.582L720.003 448.751H712.227L715.065 461.621L723.075 461.582ZM713.977 461.582L711.177 448.712H703.401L706.006 461.621L713.977 461.582Z" fill="#476FB2"/>
<path d="M526.57 258.881V257.986L596.128 262.847L596.439 263.741H597.022L680.15 493.811H678.362L674.474 482.807H663.237L667.125 493.85H665.337L661.449 482.807H650.056L653.711 493.811H651.923L648.423 482.73H637.148L640.492 493.811H638.703L635.398 482.73H624.161L627.272 493.85H625.483L622.412 482.73H611.175L614.052 493.811H612.264L609.387 482.652H598.15L600.833 493.811H599.083L596.4 482.613H585.164L587.613 493.811H585.863L583.414 482.613H572.294L574.432 493.811H572.644L525.986 258.92L526.57 258.881ZM584.891 342.401L590.024 360.598L599.239 360.909L593.795 342.712L584.891 342.401ZM593.29 340.924L587.846 322.726L579.293 322.338L584.386 340.574L593.29 340.924ZM590.529 362.426L595.623 380.662L605.11 381.051L599.511 362.698L590.529 362.426ZM596.128 382.451L601.26 400.687H611.136L605.732 382.489L596.128 382.451ZM594.651 382.451L585.086 382.178L589.752 400.492H599.511L594.651 382.451ZM594.145 380.662L589.091 362.387L579.837 362.115L584.619 380.39L594.145 380.662ZM588.585 360.598L583.453 342.168H574.549L579.293 360.443L588.585 360.598ZM583.025 340.574L577.932 322.338L569.378 321.949L574.121 340.224L583.025 340.574ZM577.465 320.51L572.294 302.235L564.051 301.807L568.833 320.082L577.465 320.51ZM578.787 320.51L587.341 320.899L581.898 302.702L573.655 302.274L578.787 320.51ZM588.663 320.977L597.217 321.365L591.346 303.285L583.103 302.857L588.663 320.977ZM589.207 322.765L594.651 340.924L603.399 341.312L597.606 323.193L589.207 322.765ZM595.195 342.751L600.677 360.909L609.892 361.22L604.099 343.062L595.195 342.751ZM601.144 362.776L606.587 381.051H616.152L610.359 362.892L601.144 362.776ZM607.287 382.723L612.769 400.92H622.645L616.852 382.8L607.287 382.723ZM613.275 402.709L618.757 420.906H628.983L622.839 402.942L613.275 402.709ZM611.758 402.709H601.844L606.937 420.945H617.163L611.758 402.709ZM600.094 402.475H590.179L594.962 420.75H605.149L600.094 402.475ZM588.663 402.242H578.748L583.181 420.323H593.406L588.663 402.242ZM588.196 400.453L583.453 382.139L573.888 381.906L578.282 400.22L588.196 400.453ZM582.986 380.351L578.282 362.076L569.067 361.609L573.499 379.923L582.986 380.351ZM577.815 360.248L573.11 341.973L564.207 341.623L568.6 359.976L577.815 360.248ZM572.644 340.185L567.939 321.871L559.346 321.482L563.74 339.835L572.644 340.185ZM567.473 320.082L562.729 301.807L554.486 301.38L558.919 319.694L567.473 320.082ZM562.263 299.98L557.558 281.705L549.782 281.238L554.097 299.397L562.263 299.98ZM563.546 299.98L571.75 300.408L566.695 282.172L558.919 281.705L563.546 299.98ZM573.033 300.485L581.237 300.913L575.832 282.716L568.056 282.249L573.033 300.485ZM582.52 300.991L590.724 301.419L584.969 283.26L577.193 282.794L582.52 300.991ZM592.007 301.496L600.211 301.924L594.145 283.843L586.369 283.338L592.007 301.496ZM592.59 303.285L598.422 321.404L606.937 321.793L600.833 303.713L592.59 303.285ZM598.966 323.193L604.799 341.351L613.664 341.701L607.559 323.582L598.966 323.193ZM605.382 343.14L611.175 361.298L620.429 361.609L614.324 343.529L605.382 343.14ZM611.758 363.048L617.591 381.206L627.116 381.44L621.012 363.359L611.758 363.048ZM618.174 382.995L623.967 401.114L633.843 401.348L627.739 383.228L618.174 382.995ZM624.55 402.903L630.382 421.061H640.569L634.504 403.175L624.55 402.903ZM630.927 422.85L636.759 440.969H647.296L641.191 422.889L630.927 422.85ZM629.333 422.85H619.107L624.55 441.047H635.126L629.333 422.85ZM617.668 422.85H607.404L612.536 441.086H623.073L617.668 422.85ZM606.004 422.85H595.778L600.522 441.125H611.097L606.004 422.85ZM594.34 422.85H584.075L587.846 440.464H598.383L594.34 422.85ZM582.675 422.85H572.449L576.338 441.203H586.874L582.675 422.85ZM582.247 421.022L577.893 402.709H567.978L571.866 421.061L582.247 421.022ZM577.465 400.881L572.294 381.828L562.69 381.595L566.773 399.948L577.465 400.881ZM572.683 380.74L567.628 361.609L558.413 361.298L562.301 379.69L572.683 380.74ZM567.861 360.598L563.507 342.285L554.603 341.935L558.491 360.326L567.861 360.598ZM563.079 340.457L558.724 322.143L550.132 321.754L554.214 340.107L563.079 340.457ZM558.297 320.316L553.903 302.002L545.077 300.835L548.965 319.188L558.297 320.316ZM552.853 299.397L548.499 281.083L540.722 280.577L544.61 298.969L552.853 299.397ZM548.071 279.255L543.716 260.941L535.94 260.397L539.828 278.789L548.071 279.255ZM549.315 279.255L557.091 279.722L552.387 261.447L544.61 260.941L549.315 279.255ZM558.374 279.955L566.151 280.461L561.096 262.225L553.32 261.68L558.374 279.955ZM567.473 280.538L575.249 281.005L569.844 262.808L562.068 262.302L567.473 280.538ZM576.571 281.083L584.347 281.549L578.593 263.43L570.816 262.886L576.571 281.083ZM585.669 281.627L593.445 282.133L587.341 264.013L579.565 263.508L585.669 281.627ZM594.767 282.172L602.543 282.677L596.05 264.635L588.274 264.091L594.767 282.172ZM595.389 283.96L601.533 302.08L609.736 302.507L603.399 284.427L595.389 283.96ZM602.155 303.868L608.337 321.949L616.852 322.338L610.397 304.296L602.155 303.868ZM608.92 323.737L615.063 341.779L623.967 342.168L617.513 324.126L608.92 323.737ZM615.724 343.607L621.867 361.609L631.082 361.92L624.628 343.879L615.724 343.607ZM622.49 363.476L628.672 381.517L638.198 381.79L631.743 363.748L622.49 363.476ZM629.255 383.345L635.437 401.425L645.313 401.659L638.859 383.617L629.255 383.345ZM636.059 403.214L642.28 421.295H652.506L646.052 403.253L636.059 403.214ZM642.824 423.083L649.007 441.164H659.543L653.05 423.122L642.824 423.083ZM649.59 442.952L655.772 461.033H666.659L660.165 443.263L649.59 442.952ZM647.957 442.952H637.381L643.174 461.111H654.061L647.957 442.952ZM635.709 442.952H625.133L630.616 460.877H641.502L635.709 442.952ZM623.5 442.952H612.925L618.018 461.188H628.905L623.5 442.952ZM611.253 442.952H600.677L605.46 461.227H616.346L611.253 442.952ZM599.044 442.952H588.468L592.862 461.266H603.749L599.044 442.952ZM586.797 442.952H576.221L580.109 461.344H590.996L586.797 442.952ZM574.588 442.952H564.012L567.706 461.383H578.593L574.588 442.952ZM574.199 441.125L570.311 422.733H560.046L563.934 441.164L574.199 441.125ZM569.767 420.945L565.878 402.553H555.964L559.852 420.945H569.767ZM565.373 400.726L561.485 382.334L551.92 382.101L555.808 400.531L565.373 400.726ZM560.979 380.545L557.091 362.154L547.838 361.843L551.531 380.273L560.979 380.545ZM556.547 360.326L552.659 341.973L543.755 341.623L547.643 360.054L556.547 360.326ZM552.153 340.146L548.265 321.754L539.673 321.365L543.561 339.796L552.153 340.146ZM547.76 319.966L543.872 301.574L535.668 301.146L539.206 318.838L547.76 319.966ZM543.327 299.747L539.439 281.355L531.663 280.888L535.551 299.319L543.327 299.747ZM538.934 279.566L535.046 261.175L527.269 260.669L531.158 279.061L538.934 279.566ZM673.774 481.758L667.281 463.716H656.394L662.537 481.796L673.774 481.758ZM660.788 481.758L654.683 462.705H643.758L649.59 480.824L660.788 481.758ZM647.84 481.758L642.086 462.705H631.16L636.603 480.863L647.84 481.758ZM634.854 481.758L629.449 462.705H618.524L623.656 480.941L634.854 481.758ZM621.906 481.758L616.852 463.521H605.926L610.67 481.796L621.906 481.758ZM608.92 481.758L604.215 463.444H593.329L597.722 481.758H608.92ZM595.973 481.758L591.735 462.394H580.809L584.697 480.785L595.973 481.758ZM583.025 481.758L579.137 463.366H568.25L572.138 481.796L583.025 481.758Z" fill="#476FB2"/>
</g>
<defs>
<clipPath id="clip0">
<rect width="930" height="543" fill="white" transform="matrix(-1 0 0 1 930 0)"/>
</clipPath>
</defs>
</svg>
