<svg width="216" height="275" fill="none" xmlns="http://www.w3.org/2000/svg"><g clip-path="url(#clip0)" opacity=".7"><mask id="a" maskUnits="userSpaceOnUse" x="-94" y="-70" width="535" height="535"><path fill-rule="evenodd" clip-rule="evenodd" d="M-1.598 172.09a231.07 231.07 0 00-6.978 25.206L100.305 89.563c-2.021-.031-4.044-.081-6.065-.13-3.297-.082-6.588-.163-9.855-.164L-1.598 172.09zm9.029-22.247l59.678-59.34c-8.48 1.478-16.568 4.6-23.932 10.961-15.112 13.052-26.9 29.891-35.746 48.379zm104.623-60.44L-11.791 215.279a423.476 423.476 0 00-2.114 16.971L134.46 84.743c-7.201 3.033-14.741 4.243-22.406 4.66zm59.152-41.192l68.542-68.145c-3.067.08-6.195.45-9.385 1.138-22.243 4.805-35.608 27.477-49.359 50.803-3.206 5.438-6.433 10.912-9.798 16.204zm80.648-66.945L-14.959 244.583c-.436 6.531-.663 13.057-.622 19.5l273.83-280.94a53.167 53.167 0 00-6.395-1.877zm14.136 5.332L-15.178 275.97c.193 3.043.457 6.057.8 9.031L277.272-5.972c-3.611-2.847-7.374-5.354-11.283-7.43zm15.006 10.528L-12.729 295.87c.841 4.399 1.888 8.68 3.165 12.812L292.318 8.622c-3.572-4.137-7.349-8.014-11.322-11.496zm20.339 23.028L-6.662 316.821c1.937 4.746 4.237 9.242 6.944 13.433L306.294 27.47a191.345 191.345 0 00-4.959-7.316zm8.078 12.298L7.361 339.454c.145.158.29.316.437.473a66.024 66.024 0 006.64 6.203L316.765 45.557a60.117 60.117 0 00-1.164-2.278 240.777 240.777 0 00-6.188-10.827zm10.439 20.712L19.17 349.645c4.337 2.939 8.992 5.37 13.895 7.346L321.822 60.23a74.322 74.322 0 00-1.97-7.066zm3.54 16.127l-281.8 290.621a99.058 99.058 0 008.14 1.958L324.354 87.932c.035-6.366-.211-12.606-.962-18.64zm.808 26.058L60.351 363.44c4.74.483 9.578.704 14.469.695L323.035 117.33c.094-1.63.192-3.26.289-4.888.343-5.737.685-11.452.876-17.093zm-1.922 41.689L86.997 363.664c7.642-.56 15.333-1.601 22.919-2.999l212.712-210.468c-.29-4.339-.384-8.734-.35-13.159zm1.283 21.803L129.862 355.714c14.606-5.869 26.682-18.639 38.848-31.504 12.476-13.193 25.047-26.486 40.538-32.54l117.871-117.187c-1.505-5.238-2.75-10.46-3.558-15.642zm6.603 25.374L225.106 287.897c4.921-.533 9.923-.574 14.961-.303l92.892-95.304a479.705 479.705 0 01-2.795-8.075zm8.81 25.049l-78.397 80.684c2.041.316 4.079.642 6.111.967 1.976.317 3.947.632 5.908.935l70.29-70.126c-1.15-4.12-2.486-8.278-3.912-12.46zm6.126 21.541l-61.511 62.562c6.46.738 12.764 1.106 18.811.686l44.31-44.043c.39-6.242-.279-12.662-1.61-19.205z" fill="#fff"/></mask><g mask="url(#a)"><path d="M126.588 110.672h-17.195V84.789h48.87v101.36h20.272v25.34h-71.676v-25.34h19.729v-75.477z" fill="#fff"/></g></g><defs><clipPath id="clip0"><path fill="#fff" d="M0 .809h215.608v274.079H0z"/></clipPath></defs></svg>