<svg width="327" height="275" fill="none" xmlns="http://www.w3.org/2000/svg"><g clip-path="url(#clip0)" opacity=".7"><mask id="a" maskUnits="userSpaceOnUse" x="-64" y="-117" width="536" height="536"><path fill-rule="evenodd" clip-rule="evenodd" d="M29.316 126.063a231.113 231.113 0 00-6.978 25.207L131.22 43.536a672.583 672.583 0 01-6.065-.13c-3.298-.082-6.589-.163-9.855-.163l-85.984 82.82zm9.029-22.247l59.678-59.339c-8.48 1.478-16.568 4.6-23.932 10.96-15.112 13.052-26.899 29.89-35.746 48.379zm104.623-60.439L19.123 169.251a423.294 423.294 0 00-2.114 16.971L165.375 38.716c-7.202 3.033-14.742 4.243-22.407 4.661zM202.12 2.184l68.542-68.145a50.57 50.57 0 00-9.385 1.139c-22.243 4.805-35.608 27.476-49.359 50.803-3.206 5.438-6.433 10.912-9.798 16.203zm80.648-66.944L15.955 198.556c-.435 6.532-.663 13.057-.622 19.501l273.83-280.94a53.149 53.149 0 00-6.395-1.877zm14.136 5.33L15.736 229.945c.193 3.044.457 6.057.8 9.031L308.187-51.998c-3.612-2.847-7.375-5.355-11.284-7.431zM311.91-48.9L18.185 249.844c.841 4.398 1.888 8.679 3.165 12.811L323.232-37.404c-3.572-4.138-7.349-8.014-11.322-11.496zm20.339 23.027L24.252 270.795c1.937 4.745 4.237 9.242 6.944 13.433L337.208-18.557a191.266 191.266 0 00-4.959-7.316zm8.078 12.298L38.275 293.427c.145.158.29.316.437.473a66.162 66.162 0 006.64 6.204L347.68-.47a60.193 60.193 0 00-1.164-2.278 240.753 240.753 0 00-6.188-10.827zm10.439 20.712L50.084 303.618c4.338 2.94 8.992 5.37 13.895 7.347L352.736 14.203a74.33 74.33 0 00-1.97-7.066zm3.54 16.128l-281.8 290.62a99.06 99.06 0 008.14 1.958L355.268 41.905c.035-6.366-.211-12.605-.962-18.64zm.808 26.058L91.266 317.413c4.74.482 9.577.703 14.468.694L353.949 71.304c.094-1.63.192-3.26.289-4.889.343-5.737.685-11.452.876-17.092zm-1.922 41.688L117.911 317.639c7.642-.561 15.333-1.602 22.919-2.999l212.712-210.47c-.29-4.34-.384-8.733-.35-13.159zm1.283 21.803L160.776 309.687c14.607-5.869 26.682-18.639 38.848-31.504 12.476-13.193 25.047-26.486 40.538-32.539l117.871-117.188c-1.505-5.237-2.75-10.459-3.558-15.642zm6.604 25.374L256.02 241.87c4.922-.533 9.923-.574 14.961-.303l92.892-95.304a465 465 0 01-2.794-8.075zm8.809 25.049l-78.397 80.685c2.041.315 4.08.641 6.111.966 1.976.317 3.947.632 5.908.936l70.29-70.127c-1.15-4.12-2.486-8.277-3.912-12.46zm6.126 21.542l-61.511 62.561c6.46.738 12.764 1.107 18.811.687l44.31-44.043c.39-6.243-.279-12.662-1.61-19.205z" fill="#fff"/></mask><g mask="url(#a)"><path d="M137.101 109.636h-17.195V83.753h48.87v101.36h20.272v25.34h-71.676v-25.34h19.729v-75.477zM253.228 81.4c13.515 0 24.737 3.921 33.666 11.765 9.05 7.843 13.575 18.462 13.575 31.856v44.526c0 13.394-4.525 24.013-13.575 31.856-8.929 7.843-20.151 11.765-33.666 11.765-13.635 0-24.978-3.922-34.028-11.765-9.05-7.843-13.575-18.462-13.575-31.856v-44.526c0-13.394 4.525-24.013 13.575-31.856 9.05-7.844 20.393-11.765 34.028-11.765zm0 102.808c4.827 0 8.749-1.327 11.765-3.982 3.138-2.655 4.706-6.395 4.706-11.222v-43.259c0-4.947-1.568-8.748-4.706-11.403-3.016-2.775-6.938-4.163-11.765-4.163-4.947 0-8.989 1.388-12.127 4.163-3.016 2.655-4.525 6.456-4.525 11.403v43.259c0 4.947 1.509 8.748 4.525 11.403 3.138 2.534 7.18 3.801 12.127 3.801z" fill="#fff"/></g></g><defs><clipPath id="clip0"><path fill="#fff" d="M.867 0h325.24v274.079H.867z"/></clipPath></defs></svg>