<svg width="326" height="275" fill="none" xmlns="http://www.w3.org/2000/svg"><g clip-path="url(#clip0)" opacity=".7"><mask id="a" maskUnits="userSpaceOnUse" x="-64" y="-116" width="535" height="535"><path fill-rule="evenodd" clip-rule="evenodd" d="M28.848 126.281a231.068 231.068 0 00-6.978 25.207L130.752 43.755a672.583 672.583 0 01-6.065-.131c-3.298-.082-6.588-.163-9.855-.163l-85.984 82.82zm9.03-22.247l59.677-59.339c-8.48 1.478-16.568 4.6-23.932 10.96-15.112 13.052-26.899 29.89-35.746 48.379zM142.5 43.595L18.655 169.47a423.476 423.476 0 00-2.114 16.971L164.907 38.934c-7.201 3.033-14.742 4.243-22.407 4.661zm59.152-41.193l68.542-68.145a50.58 50.58 0 00-9.385 1.139c-22.243 4.805-35.608 27.476-49.359 50.802-3.206 5.439-6.433 10.913-9.798 16.204zM282.3-64.542L15.487 198.774c-.435 6.532-.663 13.057-.622 19.501l273.83-280.94a53.095 53.095 0 00-6.395-1.877zm14.137 5.33L15.268 230.163c.193 3.044.457 6.057.8 9.031L307.72-51.78c-3.612-2.847-7.375-5.355-11.283-7.431zm15.005 10.53L17.717 250.062c.841 4.398 1.888 8.679 3.165 12.811L322.765-37.186c-3.573-4.138-7.35-8.014-11.323-11.496zm20.34 23.027L23.784 271.013c1.937 4.745 4.237 9.242 6.945 13.433L336.74-18.339a193.701 193.701 0 00-4.959-7.316zm8.077 12.298L37.807 293.645c.145.158.29.316.437.473a66.152 66.152 0 006.64 6.204L347.212-.252a60.195 60.195 0 00-1.164-2.278 239.793 239.793 0 00-6.188-10.827zm10.439 20.712L49.616 303.836c4.338 2.94 8.992 5.371 13.895 7.347L352.268 14.421a74.03 74.03 0 00-1.97-7.066zm3.541 16.128L72.038 314.103a99.058 99.058 0 008.14 1.958L354.8 42.123c.036-6.366-.211-12.605-.961-18.64zm.808 26.058L90.797 317.63c4.741.483 9.578.703 14.469.694L353.481 71.522c.094-1.63.192-3.26.289-4.888.343-5.738.685-11.453.877-17.093zm-1.923 41.689L117.443 317.856c7.643-.561 15.333-1.602 22.919-2.999l212.712-210.469c-.29-4.339-.383-8.733-.35-13.158zm1.283 21.802L160.308 309.905c14.607-5.869 26.683-18.639 38.848-31.504 12.476-13.193 25.047-26.486 40.538-32.539l117.871-117.188c-1.504-5.237-2.75-10.459-3.558-15.642zm6.604 25.374L255.552 242.088c4.922-.533 9.923-.574 14.962-.303l92.891-95.304a473.55 473.55 0 01-2.794-8.075zm8.809 25.049l-78.397 80.685c2.042.315 4.08.641 6.111.966 1.977.317 3.947.632 5.908.936l70.291-70.127c-1.151-4.12-2.487-8.277-3.913-12.46zm6.126 21.542l-61.511 62.561c6.46.738 12.764 1.107 18.811.687l44.311-44.043c.389-6.243-.28-12.662-1.611-19.205z" fill="#fff"/></mask><g mask="url(#a)"><path d="M82.166 64.636H64.97V38.753h48.87v101.36h20.272v25.34H62.437v-25.34h19.729V64.636zm86.081 0h-17.195V38.753h48.87v101.36h20.272v25.34h-71.676v-25.34h19.729V64.636z" fill="#fff"/></g></g><defs><clipPath id="clip0"><path fill="#fff" d="M.396.218h325.24v274.079H.396z"/></clipPath></defs></svg>