<svg width="326" height="275" fill="none" xmlns="http://www.w3.org/2000/svg"><g clip-path="url(#clip0)" opacity=".7"><mask id="a" maskUnits="userSpaceOnUse" x="-64" y="-117" width="535" height="536"><path fill-rule="evenodd" clip-rule="evenodd" d="M28.551 126.063a231.068 231.068 0 00-6.978 25.207L130.455 43.536a672.583 672.583 0 01-6.065-.13c-3.298-.082-6.588-.163-9.855-.163l-85.984 82.82zm9.03-22.247l59.677-59.339c-8.48 1.478-16.567 4.6-23.932 10.96-15.111 13.052-26.899 29.89-35.746 48.379zm104.622-60.439L18.358 169.251a423.293 423.293 0 00-2.114 16.971L164.61 38.716c-7.201 3.033-14.742 4.243-22.407 4.661zm59.152-41.193l68.542-68.145a50.58 50.58 0 00-9.385 1.139c-22.243 4.805-35.608 27.476-49.359 50.803-3.206 5.438-6.433 10.912-9.798 16.203zm80.648-66.944L15.19 198.556c-.435 6.532-.663 13.057-.621 19.501l273.829-280.94a53.042 53.042 0 00-6.395-1.877zm14.137 5.33L14.972 229.945c.192 3.044.456 6.057.799 9.031L307.423-51.998c-3.612-2.847-7.375-5.355-11.283-7.431zm15.006 10.53L17.42 249.844c.841 4.398 1.888 8.679 3.165 12.811L322.468-37.404c-3.573-4.138-7.349-8.014-11.322-11.496zm20.339 23.027L23.487 270.795c1.937 4.745 4.237 9.242 6.945 13.433L336.444-18.557a192.436 192.436 0 00-4.959-7.316zm8.078 12.298L37.51 293.427c.145.158.29.316.437.473a66.152 66.152 0 006.64 6.204L346.915-.47a58.75 58.75 0 00-1.164-2.278 239.755 239.755 0 00-6.187-10.827zm10.438 20.712L49.319 303.618c4.338 2.94 8.992 5.37 13.895 7.347L351.971 14.203a74.036 74.036 0 00-1.97-7.066zm3.541 16.128L71.741 313.885a99.06 99.06 0 008.14 1.958L354.504 41.905c.035-6.366-.212-12.605-.962-18.64zm.808 26.058L90.5 317.413c4.741.482 9.578.703 14.469.694L353.184 71.304c.095-1.63.192-3.26.289-4.889.343-5.737.685-11.452.877-17.092zm-1.922 41.688L117.146 317.639c7.643-.561 15.333-1.602 22.919-2.999l212.712-210.47c-.29-4.34-.383-8.733-.349-13.159zm1.282 21.803L160.011 309.687c14.607-5.869 26.683-18.639 38.849-31.504 12.475-13.193 25.046-26.486 40.537-32.539l117.871-117.188c-1.504-5.237-2.75-10.459-3.558-15.642zm6.604 25.374L255.255 241.87c4.922-.533 9.924-.574 14.962-.303l92.892-95.304a465.048 465.048 0 01-2.795-8.075zm8.809 25.049l-78.397 80.685c2.042.315 4.08.641 6.111.966 1.977.317 3.947.632 5.908.936l70.291-70.127c-1.151-4.12-2.487-8.277-3.913-12.46zm6.126 21.542l-61.51 62.561c6.459.738 12.763 1.107 18.81.687l44.311-44.043c.389-6.243-.279-12.662-1.611-19.205z" fill="#fff"/></mask><g mask="url(#a)"><path d="M136.337 109.636h-17.195V83.753h48.87v101.36h20.272v25.34h-71.676v-25.34h19.729v-75.477zm105.086.543c-3.258-.121-6.034.905-8.326 3.077-2.293 2.172-3.439 5.249-3.439 9.231h-27.331c-.242-12.911 3.258-22.987 10.498-30.227 7.24-7.36 17.255-11.041 30.046-11.041 8.326 0 15.626 1.99 21.901 5.973 6.395 3.861 10.98 8.809 13.756 14.842 2.896 6.033 3.921 12.972 3.077 20.815-.724 7.843-3.62 15.506-8.688 22.987 0 .965-8.206 12.73-24.616 35.295h35.657v29.322h-83.079v-7.059l43.983-64.436c3.016-4.585 5.128-8.929 6.335-13.032 1.206-4.223 1.025-7.843-.543-10.86-1.569-3.137-4.646-4.766-9.231-4.887z" fill="#fff"/></g></g><defs><clipPath id="clip0"><path fill="#fff" d="M.101 0h325.24v274.079H.101z"/></clipPath></defs></svg>