<svg width="326" height="275" fill="none" xmlns="http://www.w3.org/2000/svg"><g clip-path="url(#clip0)" opacity=".7"><mask id="a" maskUnits="userSpaceOnUse" x="-9" y="-71" width="535" height="535"><path fill-rule="evenodd" clip-rule="evenodd" d="M83.402 171.282c-2.825 8.308-5.141 16.766-6.978 25.206L185.305 88.755a680.628 680.628 0 01-6.064-.131c-3.298-.081-6.589-.162-9.855-.163l-85.984 82.821zm9.029-22.248l59.678-59.339c-8.48 1.478-16.568 4.6-23.932 10.961-15.112 13.051-26.899 29.89-35.746 48.378zm104.623-60.438L73.209 214.47a423.426 423.426 0 00-2.115 16.97L219.46 83.934c-7.201 3.033-14.741 4.243-22.406 4.662zm59.152-41.194l68.542-68.144a50.57 50.57 0 00-9.385 1.138C293.12-14.8 279.755 7.872 266.004 31.199c-3.206 5.438-6.433 10.912-9.798 16.203zm80.648-66.944L70.041 243.775c-.435 6.531-.663 13.057-.622 19.5l273.83-280.94a53.167 53.167 0 00-6.395-1.877zm14.136 5.331L69.822 275.162c.193 3.044.457 6.057.8 9.032L362.272-6.78c-3.611-2.847-7.374-5.355-11.283-7.43zm15.006 10.529L72.271 295.062c.841 4.398 1.888 8.679 3.165 12.811L377.318 7.814c-3.572-4.137-7.349-8.014-11.322-11.496zm20.339 23.027L78.338 316.014c1.937 4.745 4.237 9.242 6.944 13.433L391.294 26.661a191.27 191.27 0 00-4.959-7.316zm8.078 12.299l-302.052 307a66.037 66.037 0 007.078 6.677L401.764 44.748a60.192 60.192 0 00-1.164-2.277 240.777 240.777 0 00-6.188-10.827zm10.439 20.711L104.17 348.837c4.338 2.939 8.992 5.37 13.895 7.346L406.822 59.421a74.33 74.33 0 00-1.97-7.066zm3.54 16.128L126.591 359.104a99.555 99.555 0 008.141 1.957L409.354 87.124c.035-6.367-.211-12.606-.962-18.641zm.808 26.058l-263.849 268.09c4.741.483 9.578.703 14.469.694l248.215-246.803c.094-1.631.192-3.26.289-4.888.343-5.738.685-11.453.876-17.093zm-1.922 41.689L171.997 362.856c7.642-.561 15.333-1.601 22.919-2.999l212.712-210.468c-.29-4.34-.384-8.734-.35-13.159zm1.283 21.803L214.862 354.906c14.606-5.87 26.682-18.639 38.848-31.504 12.476-13.193 25.047-26.486 40.538-32.54l117.871-117.188c-1.505-5.237-2.75-10.459-3.558-15.641zm6.603 25.373L310.106 287.088c4.921-.533 9.923-.573 14.961-.303l92.892-95.304a473.6 473.6 0 01-2.795-8.075zm8.81 25.049l-78.397 80.685c2.041.315 4.079.641 6.111.967 1.976.316 3.947.631 5.908.935l70.29-70.127c-1.15-4.12-2.486-8.277-3.912-12.46zm6.126 21.542l-61.511 62.562c6.46.738 12.764 1.106 18.811.686l44.31-44.043c.39-6.242-.279-12.662-1.61-19.205z" fill="#fff"/></mask><g mask="url(#a)"><path d="M136.719 109.636h-17.195V83.753h48.87v101.36h20.272v25.34H116.99v-25.34h19.729v-75.477zm64.723 62.264h28.96c0 3.982 1.267 7.059 3.801 9.231 2.534 2.172 5.973 3.258 10.317 3.258s7.723-1.388 10.136-4.163c2.534-2.896 3.862-6.576 3.982-11.041-.12-4.585-1.206-8.266-3.258-11.041-1.93-2.775-4.464-4.525-7.602-5.249-3.016-.845-6.455-1.327-10.317-1.448a48.142 48.142 0 00-11.041.543v-4.163l18.824-37.286h-38.915V83.753h80.726v4.706l-23.168 42.716c17.256 4.585 25.883 17.195 25.883 37.829 0 11.705-3.982 21.961-11.946 30.77-7.964 8.688-18.884 13.032-32.761 13.032-12.549 0-22.926-3.68-31.132-11.041-8.084-7.481-12.247-17.436-12.489-29.865z" fill="#fff"/></g></g><defs><clipPath id="clip0"><path fill="#fff" d="M.484 0h325.24v274.079H.484z"/></clipPath></defs></svg>