<svg width="326" height="275" fill="none" xmlns="http://www.w3.org/2000/svg"><g clip-path="url(#clip0)" opacity=".7"><mask id="a" maskUnits="userSpaceOnUse" x="-10" y="-71" width="535" height="535"><path fill-rule="evenodd" clip-rule="evenodd" d="M82.922 171.282c-2.825 8.308-5.14 16.766-6.978 25.206L184.826 88.755a680.037 680.037 0 01-6.065-.131c-3.298-.081-6.588-.162-9.855-.163l-85.984 82.821zm9.03-22.248l59.678-59.339c-8.481 1.478-16.568 4.6-23.932 10.961-15.112 13.051-26.9 29.89-35.747 48.378zm104.622-60.438L72.729 214.47a423.426 423.426 0 00-2.114 16.97L218.981 83.934c-7.201 3.033-14.741 4.243-22.407 4.662zm59.152-41.194l68.542-68.144a50.58 50.58 0 00-9.385 1.138C292.64-14.8 279.275 7.872 265.524 31.199c-3.206 5.438-6.433 10.912-9.798 16.203zm80.648-66.944L69.561 243.775c-.435 6.531-.663 13.057-.621 19.5l273.83-280.94a53.129 53.129 0 00-6.396-1.877zm14.137 5.331L69.343 275.162c.192 3.044.456 6.057.799 9.032L361.794-6.78c-3.612-2.847-7.375-5.355-11.283-7.43zm15.006 10.529L71.791 295.062c.842 4.398 1.888 8.679 3.165 12.811L376.84 7.814c-3.574-4.137-7.35-8.014-11.323-11.496zm20.339 23.027L77.858 316.014c1.937 4.745 4.237 9.242 6.945 13.433L390.815 26.661a192.44 192.44 0 00-4.959-7.316zm8.078 12.299l-302.053 307a66.037 66.037 0 007.078 6.677L401.285 44.748a58.749 58.749 0 00-1.164-2.277 239.779 239.779 0 00-6.187-10.827zm10.438 20.711L103.69 348.837c4.338 2.939 8.992 5.37 13.895 7.346L406.342 59.421a74.035 74.035 0 00-1.97-7.066zm3.541 16.128L126.112 359.104a99.432 99.432 0 008.14 1.957L408.875 87.124c.035-6.367-.212-12.606-.962-18.641zm.808 26.058l-263.849 268.09c4.74.483 9.577.703 14.468.694l248.215-246.803c.095-1.631.192-3.26.289-4.888.343-5.738.685-11.453.877-17.093zm-1.922 41.689L171.517 362.856c7.643-.561 15.333-1.601 22.919-2.999l212.712-210.468c-.29-4.34-.383-8.734-.349-13.159zm1.282 21.803L214.383 354.906c14.606-5.87 26.682-18.639 38.848-31.504 12.475-13.193 25.046-26.486 40.537-32.54l117.871-117.188c-1.504-5.237-2.75-10.459-3.558-15.641zm6.604 25.373L309.626 287.088c4.922-.533 9.924-.573 14.962-.303l92.892-95.304a465.048 465.048 0 01-2.795-8.075zm8.809 25.049l-78.397 80.685c2.042.315 4.08.641 6.111.967 1.977.316 3.947.631 5.908.935l70.291-70.127c-1.151-4.12-2.486-8.277-3.913-12.46zm6.126 21.542l-61.51 62.562c6.459.738 12.763 1.106 18.81.686l44.311-44.043c.389-6.242-.279-12.662-1.611-19.205z" fill="#fff"/></mask><g mask="url(#a)"><path d="M136.24 109.636h-17.195V83.753h48.87v101.36h20.272v25.34h-71.676v-25.34h19.729v-75.477zm146.897 78.916v23.711h-29.865v-23.711h-55.929v-14.299l51.042-88.69h34.752v76.382h11.041v26.607h-11.041zm-26.064-67.151h-.362l-23.349 41.811h22.082V142.94l1.629-21.539z" fill="#fff"/></g></g><defs><clipPath id="clip0"><path fill="#fff" d="M.004 0h325.24v274.079H.004z"/></clipPath></defs></svg>