<svg width="326" height="275" fill="none" xmlns="http://www.w3.org/2000/svg"><g clip-path="url(#clip0)" opacity=".7"><mask id="a" maskUnits="userSpaceOnUse" x="-10" y="-71" width="536" height="535"><path fill-rule="evenodd" clip-rule="evenodd" d="M83.315 171.282c-2.825 8.308-5.141 16.766-6.978 25.206L185.219 88.755a680.037 680.037 0 01-6.065-.131c-3.298-.081-6.589-.162-9.855-.163l-85.984 82.821zm9.029-22.248l59.678-59.339c-8.48 1.478-16.568 4.6-23.932 10.961-15.112 13.051-26.899 29.89-35.746 48.378zm104.623-60.438L73.122 214.47a423.426 423.426 0 00-2.114 16.97L219.374 83.934c-7.202 3.033-14.742 4.243-22.407 4.662zm59.152-41.194l68.542-68.144a50.57 50.57 0 00-9.385 1.138c-22.243 4.805-35.608 27.476-49.359 50.803-3.206 5.438-6.433 10.912-9.798 16.203zm80.648-66.944L69.954 243.775c-.435 6.531-.663 13.057-.622 19.5l273.83-280.94a53.167 53.167 0 00-6.395-1.877zm14.136 5.331L69.735 275.162c.193 3.044.457 6.057.8 9.032L362.186-6.78c-3.612-2.847-7.375-5.355-11.284-7.43zm15.006 10.529L72.184 295.062c.841 4.398 1.888 8.679 3.165 12.811L377.23 7.814c-3.572-4.137-7.349-8.014-11.322-11.496zm20.339 23.027L78.251 316.014c1.937 4.745 4.237 9.242 6.944 13.433L391.207 26.661a191.27 191.27 0 00-4.959-7.316zm8.078 12.299l-302.052 307a66.037 66.037 0 007.078 6.677L401.678 44.748a60.192 60.192 0 00-1.164-2.277 240.777 240.777 0 00-6.188-10.827zm10.439 20.711L104.083 348.837c4.338 2.939 8.992 5.37 13.895 7.346L406.735 59.421a74.33 74.33 0 00-1.97-7.066zm3.54 16.128L126.504 359.104a99.555 99.555 0 008.141 1.957L409.267 87.124c.035-6.367-.211-12.606-.962-18.641zm.808 26.058l-263.848 268.09c4.74.483 9.577.703 14.468.694l248.215-246.803c.094-1.631.192-3.26.289-4.888.343-5.738.685-11.453.876-17.093zm-1.922 41.689L171.91 362.856c7.642-.561 15.333-1.601 22.919-2.999l212.712-210.468c-.29-4.34-.384-8.734-.35-13.159zm1.283 21.803L214.775 354.906c14.607-5.87 26.682-18.639 38.848-31.504 12.476-13.193 25.047-26.486 40.538-32.54l117.871-117.188c-1.505-5.237-2.75-10.459-3.558-15.641zm6.604 25.373L310.019 287.088c4.922-.533 9.923-.573 14.961-.303l92.892-95.304a465 465 0 01-2.794-8.075zm8.809 25.049L345.49 289.14c2.042.315 4.08.641 6.111.967 1.976.316 3.947.631 5.908.935l70.29-70.127c-1.15-4.12-2.486-8.277-3.912-12.46zm6.126 21.542l-61.511 62.562c6.46.738 12.764 1.106 18.811.686l44.311-44.043c.389-6.242-.28-12.662-1.611-19.205z" fill="#fff"/></mask><g mask="url(#a)"><path d="M136.633 109.636h-17.195V83.753h48.87v101.36h20.272v25.34h-71.676v-25.34h19.729v-75.477zm96.76 1.629v15.747c4.585-.241 8.024-.362 10.317-.362 31.856.603 47.784 14.782 47.784 42.535 0 11.584-3.982 21.78-11.946 30.589-7.844 8.809-18.704 13.213-32.58 13.213-12.55 0-22.927-3.741-31.132-11.222-8.085-7.481-12.248-17.436-12.489-29.865h28.779c.12 8.205 4.826 12.308 14.118 12.308 4.223 0 7.602-1.388 10.136-4.163 2.534-2.896 3.801-6.516 3.801-10.86 0-10.981-9.05-16.833-27.15-17.557-4.224-.121-7.602-.121-10.136 0-2.414 0-5.491.181-9.231.543-3.62.241-6.034.362-7.24.362v-68.78h79.097v27.512h-52.128z" fill="#fff"/></g></g><defs><clipPath id="clip0"><path fill="#fff" d="M.397 0h325.24v274.079H.397z"/></clipPath></defs></svg>