<svg width="243" height="309" fill="none" xmlns="http://www.w3.org/2000/svg"><g clip-path="url(#clip0)" opacity=".7"><mask id="a" maskUnits="userSpaceOnUse" x="-85" y="-71" width="536" height="535"><path fill-rule="evenodd" clip-rule="evenodd" d="M8.002 171.281a231.083 231.083 0 00-6.978 25.207L109.906 88.755c-2.022-.032-4.045-.082-6.065-.131-3.298-.081-6.588-.162-9.855-.163L8.002 171.28zm9.03-22.247L76.71 89.695c-8.48 1.478-16.568 4.6-23.932 10.96-15.112 13.052-26.9 29.891-35.747 48.379zm104.622-60.439L-2.191 214.47a423.576 423.576 0 00-2.114 16.971L144.061 83.934c-7.201 3.033-14.741 4.243-22.407 4.661zm59.152-41.193l68.542-68.144c-3.066.08-6.195.449-9.385 1.138-22.243 4.805-35.608 27.476-49.359 50.803-3.206 5.438-6.432 10.912-9.798 16.203zm80.648-66.944L-5.359 243.775c-.435 6.531-.663 13.057-.621 19.5l273.83-280.94a53.129 53.129 0 00-6.396-1.877zm14.137 5.331L-5.577 275.162c.192 3.044.456 6.057.799 9.031L286.874-6.78c-3.612-2.847-7.375-5.355-11.283-7.431zm15.006 10.529L-3.129 295.062c.842 4.398 1.888 8.679 3.165 12.811L301.92 7.814c-3.574-4.138-7.35-8.014-11.323-11.496zm20.339 23.027L2.939 316.013c1.936 4.745 4.236 9.242 6.944 13.433L315.895 26.661a192.516 192.516 0 00-4.959-7.316zm8.078 12.298L16.961 338.645a66.152 66.152 0 007.078 6.677L326.365 44.748a60.093 60.093 0 00-1.163-2.278 240.777 240.777 0 00-6.188-10.827zm10.438 20.712L28.77 348.836c4.338 2.94 8.992 5.371 13.895 7.347L331.422 59.421a74.027 74.027 0 00-1.97-7.066zm3.541 16.128L51.192 359.103a99.048 99.048 0 008.14 1.958L333.955 87.123c.035-6.366-.212-12.605-.962-18.64zm.808 26.058L69.952 362.63c4.74.483 9.577.703 14.469.694l248.215-246.803c.094-1.631.191-3.26.288-4.888.343-5.738.685-11.453.877-17.093zm-1.922 41.689L96.597 362.856c7.643-.561 15.334-1.602 22.92-2.999l212.711-210.469c-.29-4.339-.383-8.733-.349-13.158zm1.283 21.803L139.463 354.905c14.606-5.869 26.682-18.639 38.848-31.504 12.476-13.192 25.046-26.485 40.538-32.539l117.87-117.188c-1.504-5.237-2.75-10.459-3.557-15.641zm6.603 25.373L234.706 287.088c4.922-.533 9.924-.573 14.962-.303l92.892-95.304a473.6 473.6 0 01-2.795-8.075zm8.809 25.049l-78.397 80.685c2.042.315 4.08.641 6.112.967 1.976.316 3.946.631 5.908.935l70.29-70.127c-1.151-4.12-2.486-8.277-3.913-12.46zm6.126 21.542l-61.51 62.561c6.459.739 12.763 1.107 18.811.687l44.31-44.043c.389-6.242-.279-12.662-1.611-19.205z" fill="#fff"/></mask><g mask="url(#a)"><path d="M155.193 110.407c-3.258-.121-6.033.905-8.326 3.077-2.292 2.172-3.439 5.249-3.439 9.231h-27.331c-.241-12.911 3.258-22.987 10.498-30.227 7.24-7.36 17.256-11.041 30.046-11.041 8.326 0 15.627 1.99 21.901 5.973 6.396 3.861 10.981 8.808 13.756 14.842 2.896 6.033 3.922 12.972 3.077 20.815-.724 7.843-3.62 15.506-8.688 22.987 0 .965-8.205 12.73-24.616 35.295h35.657v29.322h-83.079v-7.059l43.983-64.436c3.017-4.585 5.129-8.929 6.335-13.032 1.207-4.223 1.026-7.843-.543-10.86-1.568-3.137-4.645-4.766-9.231-4.887z" fill="#fff"/></g></g><defs><clipPath id="clip0"><path fill="#fff" d="M0 0h242.557v308.335H0z"/></clipPath></defs></svg>