<svg width="216" height="275" fill="none" xmlns="http://www.w3.org/2000/svg"><g clip-path="url(#clip0)" opacity=".7"><mask id="a" maskUnits="userSpaceOnUse" x="-85" y="-70" width="536" height="535"><path fill-rule="evenodd" clip-rule="evenodd" d="M8.25 172.09a231.067 231.067 0 00-6.978 25.206L110.153 89.563c-2.022-.031-4.045-.081-6.065-.13-3.297-.082-6.588-.163-9.855-.164L8.25 172.09zm9.029-22.247l59.678-59.34c-8.48 1.478-16.568 4.6-23.932 10.961-15.112 13.052-26.9 29.891-35.746 48.379zM121.9 89.403L-1.944 215.279a423.348 423.348 0 00-2.114 16.971L144.308 84.743c-7.201 3.033-14.741 4.243-22.407 4.66zm59.152-41.192l68.542-68.145c-3.066.08-6.195.45-9.384 1.138-22.244 4.805-35.609 27.477-49.36 50.803-3.206 5.438-6.432 10.912-9.798 16.204zM261.7-18.734L-5.112 244.583c-.435 6.531-.663 13.057-.621 19.5l273.83-280.94a53.129 53.129 0 00-6.396-1.877zm14.137 5.332L-5.33 275.97c.192 3.043.456 6.057.799 9.031L287.121-5.972c-3.612-2.847-7.375-5.354-11.283-7.43zm15.006 10.528L-2.881 295.87c.84 4.399 1.887 8.68 3.164 12.812L302.166 8.622c-3.573-4.137-7.349-8.014-11.322-11.496zm20.339 23.028L3.186 316.821c1.937 4.746 4.236 9.242 6.944 13.433L316.142 27.47a192.516 192.516 0 00-4.959-7.316zm8.078 12.298L17.209 339.454c.145.158.29.316.437.473a66.025 66.025 0 006.64 6.203L326.612 45.557a58.654 58.654 0 00-1.163-2.278 240.777 240.777 0 00-6.188-10.827zm10.438 20.712L29.017 349.645c4.338 2.939 8.992 5.37 13.895 7.346L331.67 60.23a74.327 74.327 0 00-1.971-7.066zm3.541 16.127l-281.8 290.621a99.06 99.06 0 008.14 1.958L334.203 87.932c.035-6.366-.212-12.606-.962-18.64zm.808 26.058L70.199 363.44c4.74.483 9.577.704 14.469.695L332.883 117.33c.094-1.63.191-3.26.289-4.888.343-5.737.684-11.452.876-17.093zm-1.922 41.689L96.845 363.664c7.642-.56 15.333-1.601 22.919-2.999l212.712-210.468c-.291-4.339-.384-8.734-.35-13.159zm1.283 21.803L139.71 355.714c14.606-5.869 26.682-18.639 38.848-31.504 12.476-13.193 25.046-26.486 40.538-32.54l117.87-117.187c-1.504-5.238-2.75-10.46-3.557-15.642zm6.603 25.374L234.953 287.897c4.922-.533 9.924-.574 14.962-.303l92.892-95.304a479.705 479.705 0 01-2.795-8.075zm8.809 25.049l-78.397 80.684c2.042.316 4.08.642 6.112.967 1.976.317 3.946.632 5.908.935l70.29-70.126c-1.151-4.12-2.486-8.278-3.913-12.46zm6.126 21.541l-61.51 62.562c6.459.738 12.763 1.106 18.811.686l44.31-44.043c.389-6.242-.279-12.662-1.611-19.205z" fill="#fff"/></mask><g mask="url(#a)"><path d="M115.077 172.936h28.96c0 3.982 1.267 7.059 3.801 9.231 2.534 2.172 5.973 3.258 10.317 3.258s7.723-1.387 10.136-4.163c2.534-2.896 3.862-6.576 3.982-11.041-.12-4.585-1.206-8.265-3.258-11.041-1.93-2.775-4.464-4.525-7.602-5.249-3.016-.844-6.455-1.327-10.317-1.448a48.142 48.142 0 00-11.041.543v-4.163l18.824-37.286h-38.915V84.789h80.726v4.706l-23.168 42.716c17.256 4.586 25.883 17.195 25.883 37.829 0 11.705-3.982 21.962-11.946 30.77-7.964 8.688-18.884 13.032-32.761 13.032-12.549 0-22.926-3.68-31.132-11.041-8.084-7.481-12.247-17.436-12.489-29.865z" fill="#fff"/></g></g><defs><clipPath id="clip0"><path fill="#fff" d="M.246.809h215.608v274.079H.246z"/></clipPath></defs></svg>