<svg width="216" height="275" fill="none" xmlns="http://www.w3.org/2000/svg"><g clip-path="url(#clip0)" opacity=".7"><mask id="a" maskUnits="userSpaceOnUse" x="-85" y="-71" width="536" height="535"><path fill-rule="evenodd" clip-rule="evenodd" d="M8.003 171.282c-2.825 8.308-5.14 16.766-6.978 25.206L109.907 88.755a680.037 680.037 0 01-6.065-.131c-3.298-.081-6.588-.162-9.855-.163L8.003 171.282zm9.03-22.248L76.71 89.695c-8.48 1.478-16.568 4.6-23.932 10.961-15.112 13.051-26.9 29.89-35.747 48.378zm104.622-60.438L-2.19 214.47a423.298 423.298 0 00-2.114 16.97L144.062 83.934c-7.201 3.033-14.741 4.243-22.407 4.662zm59.152-41.194l68.542-68.144a50.58 50.58 0 00-9.385 1.138c-22.243 4.805-35.608 27.476-49.359 50.803-3.206 5.438-6.432 10.912-9.798 16.203zm80.648-66.944L-5.358 243.775c-.435 6.531-.663 13.057-.621 19.5l273.83-280.94a53.129 53.129 0 00-6.396-1.877zm14.137 5.331L-5.576 275.162c.192 3.044.456 6.057.799 9.032L286.875-6.78c-3.612-2.847-7.375-5.355-11.283-7.43zm15.006 10.529L-3.128 295.062c.842 4.398 1.888 8.679 3.165 12.811L301.92 7.814c-3.573-4.137-7.349-8.014-11.322-11.496zm20.339 23.027L2.94 316.014c1.936 4.745 4.236 9.242 6.944 13.433L315.896 26.661a192.44 192.44 0 00-4.959-7.316zm8.078 12.299l-302.053 307a66.047 66.047 0 007.078 6.677L326.366 44.748a60.169 60.169 0 00-1.163-2.277 240.777 240.777 0 00-6.188-10.827zm10.438 20.711L28.771 348.837c4.338 2.939 8.992 5.37 13.895 7.346L331.423 59.421a74.035 74.035 0 00-1.97-7.066zm3.541 16.128L51.193 359.104a99.466 99.466 0 008.14 1.957L333.957 87.124c.035-6.367-.212-12.606-.962-18.641zm.808 26.058L69.953 362.631c4.74.483 9.577.703 14.468.694l248.215-246.803c.095-1.631.192-3.26.289-4.888.343-5.738.685-11.453.877-17.093zm-1.922 41.689L96.598 362.856c7.643-.561 15.334-1.601 22.92-2.999l212.711-210.468c-.29-4.34-.383-8.734-.349-13.159zm1.282 21.803L139.464 354.906c14.606-5.87 26.682-18.639 38.848-31.504 12.476-13.193 25.046-26.486 40.537-32.54L336.72 173.674c-1.504-5.237-2.75-10.459-3.558-15.641zm6.604 25.373L234.707 287.088c4.922-.533 9.924-.573 14.962-.303l92.892-95.304a473.6 473.6 0 01-2.795-8.075zm8.809 25.049l-78.397 80.685c2.042.315 4.08.641 6.112.967 1.976.316 3.946.631 5.908.935l70.29-70.127c-1.151-4.12-2.486-8.277-3.913-12.46zm6.126 21.542l-61.51 62.562c6.459.738 12.763 1.106 18.81.686l44.311-44.043c.389-6.242-.279-12.662-1.611-19.205z" fill="#fff"/></mask><g mask="url(#a)"><path d="M197.005 188.78v23.711H167.14V188.78h-55.929v-14.299l51.042-88.69h34.752v76.382h11.041v26.607h-11.041zm-26.064-67.151h-.362L147.23 163.44h22.082v-20.272l1.629-21.539z" fill="#fff"/></g></g><defs><clipPath id="clip0"><path fill="#fff" d="M0 0h215.608v274.079H0z"/></clipPath></defs></svg>