<svg width="216" height="275" fill="none" xmlns="http://www.w3.org/2000/svg"><g clip-path="url(#clip0)" opacity=".7"><mask id="a" maskUnits="userSpaceOnUse" x="-85" y="-71" width="536" height="535"><path fill-rule="evenodd" clip-rule="evenodd" d="M8.004 171.282c-2.825 8.308-5.14 16.766-6.978 25.206L109.908 88.755a680.037 680.037 0 01-6.065-.131c-3.298-.081-6.588-.162-9.855-.163L8.004 171.282zm9.03-22.248l59.678-59.339c-8.48 1.478-16.568 4.6-23.932 10.961-15.112 13.051-26.9 29.89-35.747 48.378zm104.622-60.438L-2.189 214.47a423.28 423.28 0 00-2.114 16.97L144.063 83.934c-7.201 3.033-14.741 4.243-22.407 4.662zm59.152-41.194l68.542-68.144a50.58 50.58 0 00-9.385 1.138c-22.243 4.805-35.608 27.476-49.359 50.803-3.206 5.438-6.433 10.912-9.798 16.203zm80.648-66.944L-5.357 243.775c-.435 6.531-.663 13.057-.621 19.5l273.83-280.94a53.129 53.129 0 00-6.396-1.877zm14.137 5.331L-5.575 275.162c.192 3.044.456 6.057.799 9.032L286.876-6.78c-3.612-2.847-7.375-5.355-11.283-7.43zm15.006 10.529L-3.127 295.062c.842 4.398 1.888 8.679 3.165 12.811L301.921 7.814c-3.573-4.137-7.349-8.014-11.322-11.496zm20.339 23.027L2.941 316.014c1.936 4.745 4.236 9.242 6.944 13.433L315.897 26.661a192.44 192.44 0 00-4.959-7.316zm8.078 12.299l-302.053 307a66.036 66.036 0 007.077 6.677L326.368 44.748a60.169 60.169 0 00-1.163-2.277 240.777 240.777 0 00-6.188-10.827zm10.438 20.711L28.772 348.837c4.338 2.939 8.992 5.37 13.895 7.346L331.424 59.421a74.035 74.035 0 00-1.97-7.066zm3.541 16.128L51.194 359.104a99.466 99.466 0 008.14 1.957L333.957 87.124c.035-6.367-.212-12.606-.962-18.641zm.808 26.058L69.954 362.631c4.74.483 9.577.703 14.468.694l248.215-246.803c.095-1.631.192-3.26.289-4.888.343-5.738.685-11.453.877-17.093zm-1.922 41.689L96.599 362.856c7.643-.561 15.334-1.601 22.919-2.999L332.23 149.389c-.29-4.34-.383-8.734-.349-13.159zm1.282 21.803L139.465 354.906c14.606-5.87 26.682-18.639 38.848-31.504 12.476-13.193 25.046-26.486 40.537-32.54l117.871-117.188c-1.504-5.237-2.75-10.459-3.558-15.641zm6.604 25.373L234.708 287.088c4.922-.533 9.924-.573 14.962-.303l92.892-95.304a473.6 473.6 0 01-2.795-8.075zm8.809 25.049l-78.397 80.685c2.042.315 4.08.641 6.111.967 1.977.316 3.947.631 5.909.935l70.29-70.127c-1.151-4.12-2.486-8.277-3.913-12.46zm6.126 21.542l-61.51 62.562c6.459.738 12.763 1.106 18.81.686l44.311-44.043c.389-6.242-.279-12.662-1.611-19.205z" fill="#fff"/></mask><g mask="url(#a)"><path d="M167.865 210.681h-35.838l28.417-45.793c-.121 0-.483.06-1.086.181h-1.267c-13.515.482-24.194-2.836-32.037-9.955-7.843-7.24-11.765-17.557-11.765-30.951 0-14.239 4.465-25.038 13.394-32.4 8.929-7.36 20.694-11.04 35.295-11.04 14.48 0 26.185 3.68 35.114 11.04 8.929 7.361 13.394 18.161 13.394 32.4 0 9.412-2.956 19.005-8.869 28.779l-34.752 57.739zm-4.887-102.084c-10.739 0-16.109 5.188-16.109 15.566 0 10.618 5.37 15.928 16.109 15.928 10.619 0 15.928-5.31 15.928-15.928 0-10.378-5.309-15.566-15.928-15.566z" fill="#fff"/></g></g><defs><clipPath id="clip0"><path fill="#fff" d="M0 0h215.608v274.079H0z"/></clipPath></defs></svg>