<svg width="1898" height="1080" fill="none" xmlns="http://www.w3.org/2000/svg"><path opacity=".2" fill-rule="evenodd" clip-rule="evenodd" d="M1631.44 201.682c33.48 16.24 63.21 38.244 87.42 68.745l-87.42-68.745zm-156.72-41.67c27.13 3.679 53.68 8.239 79.12 14.505l202.8 158.903c10.43 23.483 17.99 48.243 23.02 73.841l-304.94-247.249zm-123.64-13.327c11.7 1.219 23.44 2.377 35.19 3.534 15.06 1.484 30.12 2.968 45.1 4.584l352.79 280.7c2.68 21.666 3.7 43.798 3.27 66.144l-436.35-354.962zm-151.26-22.909c10.99 1.256 21.99 3.005 32.98 5.419 16.38 3.597 33.17 6.569 50.24 9.124l500.29 420.359c-1.52 12.5-3.45 25-5.74 37.459l-577.77-472.361zm-116.69-2.328c7.03-.068 14.07-.181 21.11-.294 13.43-.215 26.87-.43 40.32-.333l628.1 499.589c-3.82 17.221-8.31 34.307-13.36 51.144l-676.17-550.106zM955 107.412c2.748.862 5.508 1.675 8.28 2.436 24.514 6.728 49.13 9.717 73.81 10.928l711.62 583.327a783.633 783.633 0 01-8.14 22.158L955 107.412zM677.433-43.884c33.023 8.522 64.796 25.874 96.447 46.155l955.88 750.597a766.369 766.369 0 01-13.47 29.737 338.36 338.36 0 01-5.59 11.157L677.433-43.884zm-102.946 5.842a240.263 240.263 0 0123.455-7.014 155.846 155.846 0 0123.989-3.92L1701.94 809.455c-9.35 15.79-19.81 30.61-31.2 44.606L574.487-38.043zM501.9 1.512c14.372-10.81 29.541-20.26 45.428-28.076L1637.98 889.824c-7.52 7.362-15.32 14.491-23.34 21.414L501.9 1.512zm-53.816 50.734a367.96 367.96 0 0122.576-23.958l1127.39 896.724c-12.99 10.4-26.5 20.35-40.38 29.959L448.084 52.246zm-42.64 59.537c9.136-15.395 19.189-30.215 30.092-44.22L1535.38 969.927c-7.06 4.597-14.2 9.126-21.39 13.6L405.444 111.783zm-24.06 46.5a457.497 457.497 0 0110.257-21.449l1098.829 861.02c-14.14 8.456-28.44 16.756-42.79 24.996L381.384 158.283zm-23.656 66.249a446.232 446.232 0 0111.601-36.522l1061.431 844.53c-1.8 1.03-3.61 2.06-5.42 3.09-13.81 7.9-27.62 15.79-41.33 23.76L357.728 224.532zm-9.589 90.63c-2.058-18.135-1.735-36.644 1.698-55.669.404-2.238.828-4.478 1.272-6.719L1341.4 1084.83c-2.18 1.35-4.35 2.7-6.52 4.05-7.53 4.7-15.04 9.57-22.54 14.57L348.139 315.162zm51.37 136.07c-13.4-24.174-25.826-48.356-35.237-72.946L1292.75 1116.8c-13.35 9.27-26.68 18.87-40.03 28.58L399.509 451.232zm78.173 155.08c-10.13-30.591-24.851-60.029-40.797-88.973l789.555 647.211c-6.95 5.07-13.91 10.14-20.88 15.17L477.682 606.312zm27.212 130.386c-2.02-13.886-4.097-27.798-6.436-41.683l659.582 517.925c-12.2 8.16-24.45 16.02-36.8 23.42L504.894 736.698zm20.393 116.019c-5.466-21.854-9.529-44.168-13.091-66.715l584.334 464.448c-17.3 9.33-34.78 17.6-52.52 24.39L525.287 852.717zm98.451 194.373c-11.147-17.75-22.017-35.59-32.736-53.169-8.346-13.691-16.601-27.232-24.823-40.468a289.579 289.579 0 01-8.795-15.168l421.31 353.995c-17.244 2.49-34.765 3.26-52.609 1.99l-302.347-247.18zm219.429 226.55c-52.096-22.61-95.947-61.18-134.802-107.22l134.802 107.22z" fill="#fff"/></svg>