<svg width="1359" height="432" viewBox="0 0 1359 432" fill="none" xmlns="http://www.w3.org/2000/svg">
<g clip-path="url(#clip0)">
<rect width="1359" height="432" rx="50" fill="#5A2E91"/>
<g opacity="0.3" clip-path="url(#clip1)">
<path d="M1314.58 304.466L1314.58 403.858L1314.93 403.858L1314.93 304.466L1314.58 304.466Z" fill="#715F7A"/>
<path d="M845.828 271.814L845.828 304.829L846.179 304.829L846.179 271.814L845.828 271.814Z" fill="#715F7A"/>
<path d="M845.828 165.818L845.828 208.911L846.179 208.911L846.179 165.818L845.828 165.818Z" fill="#715F7A"/>
<path d="M376.737 383.688L376.737 340.595L376.387 340.595L376.387 398.632L376.737 398.632L376.737 383.688Z" fill="#715F7A"/>
<path d="M845.828 304.825L845.828 305.173L1080.2 305.173L1080.2 304.478L1080.55 304.478L1080.55 271.81L845.828 271.81L845.828 304.825Z" fill="#715F7A"/>
<path d="M845.828 165.818L845.828 208.911L1080.55 208.911L1080.55 165.818L845.828 165.818Z" fill="#715F7A"/>
<path d="M845.828 70.9239L845.828 102.896L1080.55 102.896L1080.55 70.9239L845.828 70.9239Z" fill="#715F7A"/>
<path d="M681.101 280.468C682.842 280.468 683.887 277.688 684.235 277.688L687.369 282.206L709.31 305.838L846.174 305.838L846.174 271.085L729.16 271.085L729.16 208.183L846.522 208.183L846.522 165.089L729.16 165.089L729.16 102.187L846.522 102.187L846.522 70.2143L611.102 70.2143L611.102 304.795L662.295 304.795C667.502 295.921 673.821 287.747 681.101 280.468Z" fill="#715F7A"/>
<path d="M1079.86 26.1013C1068.29 13.6589 1052.55 5.87118 1035.63 4.20703C1023.38 6.19107 1012.18 12.3277 1003.94 21.5834C988.704 38.121 967.846 48.4044 945.429 50.4282L943.688 50.4282C940.44 50.6017 937.185 50.6017 933.937 50.4282C909.23 49.1799 885.88 38.769 868.465 21.2359L865.679 18.1081L869.161 14.9804L892.843 -6.91384C904.825 5.49635 920.91 13.1514 938.116 14.6328C950.475 12.7286 961.729 6.43468 969.807 -3.09102C985.695 -19.5069 1007.22 -29.3153 1030.06 -30.5457L1031.8 -30.5457C1035.39 -30.7505 1039 -30.7506 1042.59 -30.5457C1056.35 -29.7295 1069.71 -25.6808 1081.6 -18.7298L1081.6 -34.3686C1069.94 -46.0213 1054.51 -53.1644 1038.07 -54.5252C1025.79 -52.3944 1014.6 -46.1411 1006.37 -36.8013C991.142 -20.2637 970.284 -9.98032 947.867 -7.95645L946.126 -7.95645C942.878 -7.783 939.623 -7.783 936.375 -7.95645C910.21 -9.68888 885.796 -21.683 868.465 -41.3191L865.679 -44.4468L869.161 -47.2271L892.843 -69.4689C904.729 -56.9252 920.867 -49.2445 938.116 -47.9221C951.544 -48.9838 964.033 -55.215 972.941 -65.2985C988.146 -81.8179 1009.04 -91.9963 1031.45 -93.7958L1033.19 -93.7958C1036.44 -93.9629 1039.69 -93.9629 1042.94 -93.7958C1056.72 -93.1441 1070.13 -89.0837 1081.95 -81.9798L1081.95 -100.051C1070.15 -111.454 1054.78 -118.45 1038.41 -119.86C1026.16 -117.876 1014.97 -111.74 1006.72 -102.484C991.595 -85.8078 970.679 -75.4959 948.215 -73.6392L946.474 -73.6392C943.226 -73.4657 939.971 -73.4657 936.723 -73.6392C910.743 -74.7396 886.233 -85.9705 868.465 -104.917C868.465 -106.654 866.027 -107.697 865.679 -107.697L869.161 -110.477L892.843 -132.719C904.879 -120.437 920.957 -112.908 938.116 -111.52C950.396 -113.42 961.615 -119.571 969.807 -128.896C984.977 -145.516 1005.87 -155.816 1028.31 -157.741L1030.06 -157.741C1033.3 -157.908 1036.56 -157.908 1039.81 -157.741C1053.56 -156.925 1066.92 -152.876 1078.81 -145.925L1078.81 -163.649L845.828 -163.649L845.828 70.2373L1080.55 70.2373L1080.55 26.7963L1079.86 26.1013Z" fill="#715F7A"/>
<path d="M1356.02 -111.52C1368.38 -113.482 1379.69 -119.616 1388.06 -128.896C1403.19 -145.572 1424.1 -155.884 1446.57 -157.741C1449.81 -157.92 1453.07 -157.92 1456.32 -157.741C1480.51 -155.462 1503.04 -144.467 1519.7 -126.811L1522.83 -123.683L1519.35 -120.555L1497.06 -100.051C1485.44 -111.503 1470.16 -118.514 1453.88 -119.86C1441.6 -117.96 1430.38 -111.809 1422.19 -102.484C1406.93 -85.7856 1385.9 -75.4783 1363.33 -73.6391C1360.2 -73.4659 1357.06 -73.4659 1353.93 -73.6391C1341.8 -74.0809 1329.91 -77.1649 1319.1 -82.6748L1319.1 -65.2984C1329.32 -55.847 1342.21 -49.7778 1356.02 -47.9221C1368.45 -49.8943 1379.79 -56.1685 1388.06 -65.646C1403.22 -82.2219 1424.14 -92.4118 1446.57 -94.1432C1449.81 -94.3229 1453.07 -94.3229 1456.32 -94.1432C1480.76 -92.917 1503.86 -82.6306 1521.09 -65.2984L1524.23 -62.5182L1520.74 -59.738L1497.06 -37.4963C1485.49 -49.075 1470.2 -56.2123 1453.88 -57.6529C1441.57 -55.6039 1430.36 -49.3361 1422.19 -39.9289C1406.83 -23.3687 1385.85 -13.0895 1363.33 -11.0842C1360.2 -10.9103 1357.06 -10.9103 1353.93 -11.0842C1341.82 -11.4068 1329.94 -14.3724 1319.1 -19.7723L1319.1 -2.04843C1329.33 7.26782 1342.26 13.1081 1356.02 14.6329C1368.45 12.6607 1379.79 6.38652 1388.06 -3.09098C1403.38 -19.0926 1424.1 -28.8716 1446.22 -30.5457C1449.47 -30.7253 1452.72 -30.7253 1455.97 -30.5457C1480.21 -28.4265 1502.79 -17.4047 1519.35 0.384246L1522.49 3.16447L1519 5.94468L1495.32 28.1865C1484.26 15.1208 1468.76 6.58318 1451.79 4.20707C1439.51 6.1075 1428.29 12.2587 1420.1 21.5835C1404.74 38.1437 1383.77 48.4229 1361.24 50.4282C1358.11 50.6014 1354.97 50.6014 1351.84 50.4282C1339.71 49.9864 1327.82 46.9024 1317.01 41.3925L1317.01 70.2373L1359.5 70.2373L1359.5 55.9887L1396.42 55.9887L1396.42 70.2373L1414.87 70.2373L1414.87 55.9887L1451.79 55.9887L1451.79 70.2373L1470.25 70.2373L1470.25 55.9887L1507.16 55.9887L1507.16 70.2373L1550 70.2373L1550 -163.996L1315.27 -163.996L1315.27 -129.244C1326.37 -118.775 1340.78 -112.505 1356.02 -111.52Z" fill="#715F7A"/>
<path d="M378.824 -116.018C390.446 -104.567 405.731 -97.5552 422.008 -96.2089C434.442 -98.1811 445.784 -104.455 454.048 -113.933C469.294 -130.397 490.168 -140.564 512.555 -142.43L514.296 -142.43C517.544 -142.61 520.799 -142.61 524.047 -142.43C549.318 -140.44 572.868 -128.876 589.867 -110.11L593.002 -107.33L589.519 -104.55L565.489 -82.3079C553.603 -94.8515 537.465 -102.532 520.216 -103.855C507.859 -101.892 496.549 -95.7583 488.177 -86.4782C472.945 -69.9407 452.087 -59.6573 429.67 -57.6334L427.929 -57.6334C424.681 -57.4538 421.425 -57.4538 418.177 -57.6334C403.417 -58.4766 389.132 -63.1483 376.735 -71.187L376.735 -8.28458L379.173 -10.3697C390.91 0.914771 406.132 7.89746 422.356 9.43931C434.79 7.46711 446.132 1.19289 454.396 -8.28459C469.643 -24.7484 490.516 -34.9155 512.903 -36.7818L514.644 -36.7818C517.892 -36.9614 521.147 -36.9614 524.395 -36.7818C549.543 -34.7054 572.954 -23.1487 589.867 -4.46178L593.002 -1.68156L589.519 1.09865L565.489 23.3404C553.603 10.7967 537.465 3.11609 520.216 1.79373C507.859 3.75655 496.549 9.88997 488.177 19.1701C472.945 35.7076 452.087 45.991 429.67 48.0148L427.929 48.0148C409.834 49.8147 391.688 45.1337 376.735 34.8088L376.735 69.5615L611.459 69.5615L611.459 -12.4549C603.147 -12.4549 595.174 -15.7502 589.296 -21.6159C583.418 -27.4815 580.116 -35.437 580.116 -43.7323C580.116 -52.0276 583.418 -59.9832 589.296 -65.8488C595.174 -71.7145 603.147 -75.0098 611.459 -75.0098L611.459 -164.672L376.387 -164.672L376.387 -113.933L378.824 -116.018Z" fill="#715F7A"/>
<path d="M311.256 -76.0746C303.766 -75.5005 296.614 -72.7213 290.707 -68.0889C284.8 -63.4564 280.404 -57.179 278.074 -50.0516C275.745 -42.9241 275.587 -35.2671 277.621 -28.0501C279.655 -20.833 283.789 -14.3805 289.5 -9.50958C295.211 -4.63862 302.242 -1.56828 309.702 -0.687296C317.163 0.193692 324.718 -1.15426 331.41 -4.56056C338.103 -7.96687 343.632 -13.2783 347.298 -19.8224C350.963 -26.3664 352.601 -33.8486 352.002 -41.3218C351.202 -51.3163 346.464 -60.5867 338.826 -67.101C331.189 -73.6154 321.274 -76.8423 311.256 -76.0746Z" fill="#715F7A"/>
<path d="M223.849 -28.0985C216.337 -27.5918 209.146 -24.8676 203.19 -20.2723C197.234 -15.677 192.782 -9.41809 190.4 -2.29135C188.018 4.83539 187.813 12.5081 189.811 19.7514C191.81 26.9946 195.921 33.4813 201.624 38.3867C207.326 43.2922 214.361 46.3947 221.835 47.3001C229.308 48.2054 236.883 46.8726 243.596 43.4711C250.308 40.0696 255.856 34.7531 259.533 28.1973C263.21 21.6416 264.851 14.1428 264.246 6.65421C263.445 -3.27565 258.756 -12.4907 251.195 -18.9953C243.633 -25.4999 233.809 -28.7704 223.849 -28.0985Z" fill="#715F7A"/>
<path d="M1198.62 271.817C1198.79 268.923 1198.79 266.022 1198.62 263.129C1197.1 243.43 1188.14 225.043 1173.54 211.695C1165.25 204.376 1159.71 194.441 1157.87 183.545C1159.24 169.151 1165.51 155.659 1175.63 145.317L1156.13 124.465L1153.69 121.337L1151.25 124.118C1135.54 138.79 1125.76 158.692 1123.74 180.07L1123.74 190.148C1125.45 209.868 1134.52 228.227 1149.16 241.582C1157.45 248.862 1162.88 258.835 1164.49 269.732C1162.41 282.831 1156.33 294.969 1147.08 304.484L1187.82 304.484C1193.48 294.48 1196.7 283.291 1197.22 271.817" fill="#715F7A"/>
<path d="M1233.79 127.245L1233.79 304.484L1271.4 304.484L1271.4 127.245L1233.79 127.245Z" fill="#715F7A"/>
<path d="M1200.36 205.799C1205.23 205.444 1209.89 203.658 1213.75 200.664C1217.6 197.67 1220.48 193.604 1222.02 188.979C1223.57 184.353 1223.7 179.375 1222.41 174.673C1221.12 169.971 1218.46 165.756 1214.77 162.56C1211.09 159.363 1206.53 157.329 1201.69 156.713C1196.84 156.097 1191.92 156.928 1187.55 159.1C1183.17 161.272 1179.54 164.688 1177.11 168.917C1174.68 173.146 1173.56 177.998 1173.89 182.862C1174.11 186.105 1174.97 189.273 1176.43 192.183C1177.88 195.093 1179.89 197.688 1182.35 199.82C1184.81 201.951 1187.67 203.577 1190.76 204.603C1193.85 205.629 1197.11 206.035 1200.36 205.799Z" fill="#715F7A"/>
<path d="M650.805 351.766L650.805 355.241C652.759 377.458 662.941 398.15 679.362 413.278C688.828 421.355 695.018 432.599 696.774 444.903C696.085 462.121 689.01 478.47 676.924 490.777L699.212 514.409L701.998 517.884C701.998 517.884 701.998 517.884 704.784 515.104C722.536 498.564 733.465 476.01 735.431 451.854L735.431 440.385C733.379 418.196 723.214 397.537 706.874 382.348C697.136 374.672 690.367 363.864 687.72 351.766C689.069 335.523 696.095 320.27 707.57 308.672L687.371 282.26L684.585 278.785C684.585 278.785 684.585 278.785 681.451 281.565C674.172 288.843 667.852 297.018 662.645 305.892C655.618 317.727 651.556 331.079 650.805 344.815L650.805 351.766Z" fill="#715F7A"/>
<path d="M780.365 450.429C787.754 449.922 794.639 446.506 799.504 440.934C804.37 435.362 806.818 428.089 806.31 420.715C805.802 413.341 802.38 406.471 796.796 401.616C791.212 396.76 783.923 394.317 776.534 394.824C772.876 395.075 769.302 396.043 766.018 397.672C762.734 399.301 759.804 401.56 757.395 404.319C754.986 407.078 753.145 410.284 751.977 413.753C750.809 417.222 750.338 420.887 750.589 424.538C750.841 428.189 751.81 431.755 753.443 435.032C755.075 438.309 757.339 441.233 760.104 443.637C762.869 446.041 766.081 447.878 769.558 449.044C773.034 450.209 776.706 450.68 780.365 450.429Z" fill="#715F7A"/>
<path d="M376.379 304.458L376.379 251.981L373.941 251.981C366.405 251.461 358.841 251.461 351.305 251.981L346.081 251.981C293.893 256.774 245.416 280.962 210.261 319.749C191.418 341.506 165.55 356.011 137.128 360.757C137.128 360.757 135.038 360.757 133.993 360.757C95.8725 357.247 60.1068 340.812 32.6511 314.189L32.6511 312.451C32.6511 310.713 30.2133 309.671 29.865 309.671L-28.9901 361.8L-37 368.75L-30.0349 376.048C9.06338 417.404 61.9368 443.106 118.67 448.334C126.206 448.86 133.77 448.86 141.307 448.334L145.486 448.334C197.988 443.596 246.811 419.421 282.35 380.566C301.75 358.537 328.217 343.918 357.225 339.21L360.011 339.21C365.461 338.852 370.929 338.852 376.379 339.21L376.379 304.458L502.099 304.458L376.379 304.458Z" fill="#715F7A"/>
<path d="M376.379 103.6C375.575 103.769 374.745 103.769 373.941 103.6C366.405 103.08 358.841 103.08 351.305 103.6L346.081 103.6C293.999 108.498 245.596 132.525 210.261 171.02C191.396 192.877 165.576 207.601 137.128 212.723L132.6 212.723C94.889 208.947 59.6133 192.388 32.6511 165.807L32.6511 164.07C32.6511 164.07 30.2133 161.637 29.865 161.637L-28.9901 212.723L-37 220.022L-30.0349 226.972C8.91117 268.588 61.8445 294.442 118.67 299.605C126.207 300.129 133.77 300.129 141.307 299.605C142.695 299.776 144.098 299.776 145.486 299.605C197.896 295.341 246.767 271.515 282.35 232.88C301.75 210.85 328.217 196.232 357.225 191.524C357.225 191.524 359.315 191.524 360.011 191.524C365.5 191.741 370.968 192.321 376.379 193.262L376.379 104.642L376.379 103.6Z" fill="#715F7A"/>
<path d="M1195.12 -100.061C1184.82 -99.3527 1174.97 -95.6163 1166.8 -89.3231C1158.62 -83.03 1152.5 -74.4621 1149.21 -64.7011C1145.91 -54.9401 1145.59 -44.4235 1148.28 -34.4786C1150.96 -24.5338 1156.54 -15.6066 1164.31 -8.82381C1172.08 -2.04103 1181.69 2.29332 1191.92 3.63203C1202.16 4.97074 1212.56 3.25383 1221.82 -1.30193C1231.07 -5.8577 1238.77 -13.0482 1243.94 -21.9657C1249.1 -30.8831 1251.51 -41.1279 1250.84 -51.4069C1250.4 -58.2579 1248.61 -64.9542 1245.56 -71.1113C1242.52 -77.2685 1238.29 -82.7652 1233.11 -87.286C1227.93 -91.8068 1221.91 -95.2625 1215.39 -97.4547C1208.87 -99.647 1201.98 -100.533 1195.12 -100.061Z" fill="#715F7A"/>
<path d="M1314.57 538.026L1314.57 441.413L1134.17 441.413L1134.17 403.88L1314.92 403.88L1314.92 304.487L1080.54 304.487L1080.54 324.644L1080.54 359.397L1080.54 375.383L1080.54 410.136L1080.54 428.902L1080.54 463.655L1080.54 482.421L1080.54 517.174L1080.54 538.721L1083.33 538.721L1314.57 538.026ZM1228.55 461.917C1233.43 461.587 1238.29 462.704 1242.53 465.129C1246.76 467.554 1250.19 471.177 1252.36 475.542C1254.54 479.906 1255.37 484.816 1254.76 489.652C1254.14 494.488 1252.1 499.033 1248.9 502.714C1245.69 506.394 1241.47 509.046 1236.76 510.333C1232.05 511.621 1227.06 511.487 1222.42 509.948C1217.79 508.409 1213.71 505.534 1210.71 501.687C1207.71 497.839 1205.92 493.191 1205.57 488.329C1205.28 485.078 1205.66 481.802 1206.67 478.698C1207.68 475.593 1209.3 472.723 1211.45 470.259C1213.59 467.794 1216.21 465.786 1219.15 464.353C1222.09 462.919 1225.29 462.091 1228.55 461.917ZM1228.55 337.85C1231.8 337.613 1235.06 338.02 1238.15 339.046C1241.25 340.072 1244.1 341.698 1246.56 343.829C1249.02 345.96 1251.03 348.556 1252.49 351.466C1253.94 354.376 1254.8 357.544 1255.02 360.787C1255.22 367.196 1252.95 373.437 1248.67 378.223C1244.39 383.008 1238.44 385.972 1232.03 386.504C1228.79 386.74 1225.52 386.334 1222.43 385.307C1219.34 384.281 1216.48 382.656 1214.02 380.525C1211.56 378.393 1209.55 375.798 1208.1 372.888C1206.65 369.978 1205.79 366.81 1205.57 363.567C1205.28 360.315 1205.66 357.04 1206.67 353.935C1207.68 350.831 1209.3 347.961 1211.45 345.496C1213.59 343.032 1216.21 341.023 1219.15 339.59C1222.09 338.157 1225.29 337.329 1228.55 337.155" fill="#715F7A"/>
<path d="M895.977 464.68L1080.2 464.68L1081.6 464.68L1081.6 428.884L1080.2 428.884L895.977 428.884L895.977 464.68Z" fill="#715F7A"/>
<path d="M895.977 411.187L1080.2 411.187L1081.6 411.187L1081.6 375.391L1080.2 375.391L895.977 375.391L895.977 411.187Z" fill="#715F7A"/>
<path d="M895.977 360.41L1080.2 360.41L1081.6 360.41L1081.6 324.615L1080.2 324.615L895.977 324.615L895.977 360.41Z" fill="#715F7A"/>
<path d="M376.727 398.657L373.941 398.657C366.28 398.657 358.618 398.657 351.305 398.657C351.305 398.657 348.519 398.657 347.126 398.657C294.617 403.104 245.731 427.186 210.261 466.077C191.361 487.828 165.539 502.43 137.128 507.433C137.128 507.433 137.128 507.433 134.342 507.433C96.0981 504 60.1975 487.559 32.6511 460.864L32.6511 459.127L26.7307 455.999L-28.9901 508.476L-37 515.079L-30.0349 522.029C-24.6505 527.672 -18.9534 533.009 -12.9704 538.015C23.3996 570.998 69.6873 591.038 118.67 595.01C126.207 595.536 133.77 595.536 141.307 595.01L145.486 595.01C192.21 591.312 236.235 571.678 270.161 539.406L282.35 525.504C301.75 503.475 328.217 488.856 357.225 484.149L360.011 484.149C365.454 483.619 370.936 483.619 376.379 484.149L376.379 398.657L376.727 398.657Z" fill="#715F7A"/>
<path d="M454.738 226.291L454.738 304.484L501.056 304.484L532.747 304.484L532.747 226.291L454.738 226.291Z" fill="#715F7A"/>
<path d="M454.744 226.281L454.744 148.087L376.387 148.087L376.387 192.224L376.387 226.281L454.744 226.281Z" fill="#715F7A"/>
<path d="M532.742 148.087L532.742 226.281L611.1 226.281L611.1 148.087L532.742 148.087Z" fill="#715F7A"/>
<path d="M454.383 69.8962L454.383 148.09L532.74 148.09L532.74 69.8962L454.383 69.8962Z" fill="#715F7A"/>
<path d="M454.738 383.365L454.738 461.559L533.096 461.559L533.096 383.365L454.738 383.365Z" fill="#715F7A"/>
<path d="M454.732 383.687L454.732 305.494L376.723 305.494L376.723 340.594L376.723 383.688L454.732 383.687Z" fill="#715F7A"/>
<path d="M611.107 383.687L611.107 305.494L533.098 305.494L533.098 383.688L611.107 383.687Z" fill="#715F7A"/>
</g>
<g clip-path="url(#clip2)">
<path d="M1189.89 286.188L1189.89 268.076L1189.74 268.076L1189.74 292.469L1189.89 292.469L1189.89 286.188Z" fill="#67BAC3"/>
<path d="M1317.81 242.805C1318.54 242.805 1318.98 241.637 1319.13 241.637L1320.45 243.536L1329.67 253.468L1387.19 253.468L1387.19 238.862L1338.01 238.862L1338.01 212.424L1387.34 212.424L1387.34 194.313L1338.01 194.313L1338.01 167.875L1387.34 167.875L1387.34 154.438L1288.39 154.438L1288.39 253.03L1309.91 253.03C1312.1 249.3 1314.75 245.864 1317.81 242.805Z" fill="#67BAC3"/>
<path d="M1190.77 76.1659C1195.65 80.9788 1202.08 83.9256 1208.92 84.4914C1214.14 83.6625 1218.91 81.0255 1222.38 77.0423C1228.79 70.1227 1237.56 65.8496 1246.97 65.0652L1247.7 65.0652C1249.07 64.9897 1250.44 64.9897 1251.8 65.0652C1262.42 65.9016 1272.32 70.7618 1279.47 78.6489L1280.78 79.8174L1279.32 80.9859L1269.22 90.3339C1264.22 85.0619 1257.44 81.8338 1250.19 81.278C1245 82.103 1240.25 84.6808 1236.73 88.5812C1230.32 95.5317 1221.56 99.8537 1212.14 100.704L1211.4 100.704C1210.04 100.78 1208.67 100.78 1207.31 100.704C1201.1 100.35 1195.1 98.3865 1189.89 95.0079L1189.89 121.445L1190.91 120.569C1195.85 125.312 1202.24 128.246 1209.06 128.894C1214.29 128.065 1219.06 125.428 1222.53 121.445C1228.94 114.526 1237.71 110.252 1247.12 109.468L1247.85 109.468C1249.22 109.393 1250.58 109.393 1251.95 109.468C1262.52 110.341 1272.36 115.198 1279.47 123.052L1280.78 124.22L1279.32 125.389L1269.22 134.737C1264.22 129.465 1257.44 126.237 1250.19 125.681C1245 126.506 1240.25 129.084 1236.73 132.984C1230.32 139.935 1221.56 144.257 1212.14 145.107L1211.4 145.107C1203.8 145.864 1196.17 143.896 1189.89 139.557L1189.89 154.163L1288.54 154.163L1288.54 119.692C1285.05 119.692 1281.7 118.307 1279.23 115.842C1276.76 113.377 1275.37 110.033 1275.37 106.547C1275.37 103.06 1276.76 99.7168 1279.23 97.2515C1281.7 94.7862 1285.05 93.4012 1288.54 93.4012L1288.54 55.7172L1189.74 55.7172L1189.74 77.0423L1190.77 76.1659Z" fill="#67BAC3"/>
<path d="M1162.37 92.9542C1159.22 93.1955 1156.22 94.3635 1153.73 96.3105C1151.25 98.2575 1149.4 100.896 1148.42 103.891C1147.44 106.887 1147.38 110.105 1148.23 113.138C1149.09 116.172 1150.82 118.884 1153.23 120.931C1155.63 122.978 1158.58 124.268 1161.72 124.639C1164.85 125.009 1168.03 124.442 1170.84 123.011C1173.65 121.579 1175.98 119.347 1177.52 116.596C1179.06 113.846 1179.75 110.701 1179.49 107.56C1179.16 103.36 1177.17 99.4636 1173.96 96.7257C1170.75 93.9878 1166.58 92.6315 1162.37 92.9542Z" fill="#67BAC3"/>
<path d="M1125.63 113.118C1122.47 113.331 1119.45 114.475 1116.95 116.407C1114.45 118.338 1112.58 120.969 1111.57 123.964C1110.57 126.959 1110.49 130.184 1111.33 133.228C1112.17 136.273 1113.89 138.999 1116.29 141.061C1118.69 143.122 1121.64 144.426 1124.79 144.807C1127.93 145.187 1131.11 144.627 1133.93 143.198C1136.75 141.768 1139.08 139.533 1140.63 136.778C1142.18 134.023 1142.86 130.871 1142.61 127.724C1142.27 123.55 1140.3 119.677 1137.13 116.944C1133.95 114.21 1129.82 112.835 1125.63 113.118Z" fill="#67BAC3"/>
<path d="M1125.63 68.2809C1123.54 68.4248 1121.49 68.979 1119.61 69.912C1117.73 70.845 1116.05 72.1385 1114.67 73.7186C1113.29 75.2987 1112.24 77.1345 1111.57 79.1212C1110.9 81.1078 1110.63 83.2064 1110.78 85.2972C1110.92 87.3879 1111.48 89.4299 1112.41 91.3064C1113.35 93.183 1114.64 94.8574 1116.23 96.234C1117.81 97.6107 1119.65 98.6626 1121.64 99.3298C1123.63 99.997 1125.73 100.266 1127.83 100.123C1132.06 99.832 1136 97.876 1138.79 94.6848C1141.57 91.4936 1142.98 87.3287 1142.68 83.1062C1142.39 78.8838 1140.43 74.9497 1137.24 72.1694C1134.04 69.3891 1129.86 67.9904 1125.63 68.2809Z" fill="#67BAC3"/>
<path d="M1305.08 272.771L1305.08 274.232C1305.9 283.569 1310.18 292.266 1317.08 298.624C1321.06 302.019 1323.66 306.744 1324.4 311.916C1324.11 319.152 1321.14 326.023 1316.06 331.196L1325.42 341.128L1326.59 342.589C1326.59 342.589 1326.59 342.589 1327.77 341.42C1335.23 334.469 1339.82 324.99 1340.65 314.837L1340.65 310.017C1339.78 300.691 1335.51 292.008 1328.64 285.625C1324.55 282.399 1321.71 277.856 1320.59 272.771C1321.16 265.944 1324.11 259.534 1328.94 254.659L1320.45 243.559L1319.28 242.098C1319.28 242.098 1319.28 242.098 1317.96 243.266C1314.9 246.325 1312.24 249.761 1310.05 253.491C1307.1 258.465 1305.39 264.077 1305.08 269.85L1305.08 272.771Z" fill="#67BAC3"/>
<path d="M1359.53 314.238C1362.64 314.025 1365.53 312.59 1367.57 310.248C1369.62 307.906 1370.65 304.849 1370.43 301.75C1370.22 298.651 1368.78 295.763 1366.44 293.722C1364.09 291.682 1361.03 290.655 1357.92 290.868C1356.38 290.974 1354.88 291.38 1353.5 292.065C1352.12 292.75 1350.89 293.699 1349.88 294.859C1348.86 296.018 1348.09 297.366 1347.6 298.824C1347.11 300.282 1346.91 301.822 1347.02 303.356C1347.12 304.891 1347.53 306.39 1348.22 307.767C1348.9 309.144 1349.85 310.373 1351.01 311.384C1352.18 312.394 1353.53 313.166 1354.99 313.656C1356.45 314.146 1357.99 314.344 1359.53 314.238Z" fill="#67BAC3"/>
<path d="M1189.74 252.888L1189.74 230.832L1188.71 230.832C1185.55 230.614 1182.37 230.614 1179.2 230.832L1177.01 230.832C1155.07 232.847 1134.7 243.013 1119.92 259.315C1112 268.459 1101.13 274.555 1089.18 276.55C1089.18 276.55 1088.31 276.55 1087.87 276.55C1071.84 275.074 1056.81 268.167 1045.27 256.978L1045.27 256.247C1045.27 255.517 1044.25 255.079 1044.1 255.079L1019.37 276.988L1016 279.909L1018.93 282.977C1035.36 300.358 1057.58 311.16 1081.43 313.358C1084.59 313.579 1087.77 313.579 1090.94 313.358L1092.7 313.358C1114.76 311.366 1135.28 301.206 1150.22 284.876C1158.37 275.617 1169.5 269.473 1181.69 267.494L1182.86 267.494C1185.15 267.343 1187.45 267.343 1189.74 267.494L1189.74 252.888L1242.58 252.888L1189.74 252.888Z" fill="#67BAC3"/>
<path d="M1189.74 168.469C1189.4 168.54 1189.05 168.54 1188.71 168.469C1185.55 168.251 1182.37 168.251 1179.2 168.469L1177.01 168.469C1155.12 170.528 1134.77 180.627 1119.92 196.806C1111.99 205.992 1101.14 212.18 1089.18 214.333L1087.28 214.333C1071.43 212.746 1056.61 205.786 1045.27 194.615L1045.27 193.884C1045.27 193.884 1044.25 192.862 1044.1 192.862L1019.37 214.333L1016 217.4L1018.93 220.322C1035.3 237.812 1057.54 248.679 1081.43 250.849C1084.59 251.069 1087.77 251.069 1090.94 250.849C1091.52 250.92 1092.11 250.92 1092.7 250.849C1114.72 249.056 1135.26 239.042 1150.22 222.805C1158.37 213.546 1169.5 207.402 1181.69 205.423C1181.69 205.423 1182.57 205.423 1182.86 205.423C1185.17 205.514 1187.46 205.758 1189.74 206.154L1189.74 168.908L1189.74 168.469Z" fill="#67BAC3"/>
<path d="M1363.33 120.121C1365.17 120.13 1366.98 119.76 1368.67 119.035C1370.35 118.31 1371.87 117.246 1373.12 115.909C1374.38 114.571 1375.34 112.99 1375.95 111.263C1376.56 109.537 1376.81 107.703 1376.68 105.877C1376.55 104.05 1376.04 102.271 1375.19 100.649C1374.34 99.0281 1373.16 97.6003 1371.72 96.4554C1370.29 95.3105 1368.64 94.4733 1366.87 93.9962C1365.09 93.5192 1363.24 93.4126 1361.43 93.6832C1359.64 93.7698 1357.88 94.2252 1356.27 95.0208C1354.66 95.8164 1353.24 96.9349 1352.08 98.3063C1350.93 99.6778 1350.07 101.272 1349.56 102.99C1349.06 104.708 1348.91 106.512 1349.13 108.289C1349.26 110.069 1349.74 111.806 1350.55 113.397C1351.36 114.989 1352.48 116.404 1353.84 117.56C1355.21 118.716 1356.78 119.589 1358.49 120.129C1360.19 120.669 1361.99 120.865 1363.77 120.705" fill="#67BAC3"/>
<path d="M1326.3 120.123C1328.9 119.86 1331.36 118.841 1333.39 117.192C1335.41 115.544 1336.9 113.338 1337.68 110.849C1338.45 108.361 1338.48 105.7 1337.75 103.197C1337.03 100.694 1335.58 98.4593 1333.59 96.7714C1331.6 95.0835 1329.15 94.0166 1326.56 93.7035C1323.97 93.3903 1321.34 93.8447 1319 95.0101C1316.67 96.1755 1314.73 98.0004 1313.42 100.258C1312.12 102.516 1311.51 105.106 1311.67 107.708C1311.77 109.495 1312.24 111.241 1313.05 112.842C1313.85 114.444 1314.97 115.867 1316.33 117.026C1317.7 118.186 1319.29 119.058 1321 119.59C1322.71 120.122 1324.52 120.303 1326.3 120.123Z" fill="#67BAC3"/>
<path d="M1303.03 105.97C1302.9 104.19 1302.42 102.453 1301.61 100.862C1300.8 99.2699 1299.68 97.855 1298.32 96.6992C1296.96 95.5435 1295.38 94.6702 1293.67 94.1302C1291.97 93.5902 1290.17 93.3944 1288.39 93.5542C1284.9 93.5542 1281.55 94.9392 1279.08 97.4045C1276.61 99.8698 1275.22 103.213 1275.22 106.7C1275.22 110.186 1276.61 113.53 1279.08 115.995C1281.55 118.46 1284.9 119.845 1288.39 119.845C1289.17 119.923 1289.96 119.923 1290.73 119.845C1292.51 119.718 1294.25 119.235 1295.83 118.427C1297.42 117.618 1298.83 116.499 1299.98 115.137C1301.12 113.775 1301.98 112.197 1302.51 110.497C1303.03 108.797 1303.21 107.009 1303.03 105.239" fill="#67BAC3"/>
<path d="M1189.89 292.479L1188.71 292.479C1185.49 292.479 1182.27 292.479 1179.2 292.479C1179.2 292.479 1178.03 292.479 1177.44 292.479C1155.38 294.348 1134.83 304.469 1119.92 320.815C1111.98 329.957 1101.12 336.094 1089.18 338.196C1089.18 338.196 1089.18 338.196 1088.01 338.196C1071.94 336.753 1056.85 329.844 1045.27 318.624L1045.27 317.894L1042.79 316.579L1019.37 338.635L1016 341.41L1018.93 344.331C1021.19 346.703 1023.58 348.946 1026.1 351.05C1041.39 364.912 1060.84 373.335 1081.43 375.004C1084.59 375.225 1087.77 375.225 1090.94 375.004L1092.7 375.004C1112.33 373.45 1130.84 365.198 1145.1 351.634L1150.22 345.792C1158.37 336.533 1169.5 330.389 1181.69 328.41L1182.86 328.41C1185.15 328.188 1187.45 328.188 1189.74 328.41L1189.74 292.479L1189.89 292.479Z" fill="#67BAC3"/>
<path d="M1222.67 220.035L1222.67 252.899L1242.14 252.899L1255.46 252.899L1255.46 220.035L1222.67 220.035Z" fill="#67BAC3"/>
<path d="M1222.68 220.031L1222.68 187.167L1189.74 187.167L1189.74 205.717L1189.74 220.031L1222.68 220.031Z" fill="#67BAC3"/>
<path d="M1255.46 187.167L1255.46 220.031L1288.39 220.031L1288.39 187.167L1255.46 187.167Z" fill="#67BAC3"/>
<path d="M1222.52 154.304L1222.52 187.168L1255.46 187.168L1255.46 154.304L1222.52 154.304Z" fill="#67BAC3"/>
<path d="M1222.67 286.052L1222.67 318.916L1255.6 318.916L1255.6 286.052L1222.67 286.052Z" fill="#67BAC3"/>
<path d="M1222.67 286.187L1222.67 253.324L1189.88 253.324L1189.88 268.076L1189.88 286.188L1222.67 286.187Z" fill="#67BAC3"/>
<path d="M1288.39 286.187L1288.39 253.324L1255.61 253.324L1255.61 286.188L1288.39 286.187Z" fill="#67BAC3"/>
<path d="M1222.67 319.057L1189.88 319.057L1189.88 329.72L1189.88 351.775L1222.67 351.775L1222.67 319.057Z" fill="#67BAC3"/>
<path d="M1255.61 319.057L1255.61 351.775L1288.39 351.775L1288.39 351.483L1288.39 319.057L1255.61 319.057Z" fill="#67BAC3"/>
</g>
<g clip-path="url(#clip3)">
<path d="M112.829 273.044H98.9531V273.191H112.829V273.044Z" fill="#F29400"/>
<path d="M157.377 273.044H139.266V273.191H157.377V273.044Z" fill="#F29400"/>
<path d="M65.8119 75.8895H83.9237V75.7422H59.5312V75.8895H65.8119Z" fill="#F29400"/>
<path d="M98.9547 273.044H98.8086L98.8086 371.55H99.1007V371.696H112.831L112.831 273.044H98.9547Z" fill="#F29400"/>
<path d="M157.377 273.044H139.266L139.266 371.696H157.377V273.044Z" fill="#F29400"/>
<path d="M197.262 273.044H183.824L183.824 371.696H197.262L197.262 273.044Z" fill="#F29400"/>
<path d="M109.194 203.811C109.194 204.542 110.362 204.982 110.362 205.128L108.463 206.445L98.5312 215.666L98.5312 273.189H113.137L113.137 224.009H139.575V273.336H157.686V224.009H184.124V273.336H197.562V174.391L98.9694 174.391V195.907C102.699 198.095 106.135 200.751 109.194 203.811Z" fill="#F29400"/>
<path d="M216.101 371.403C221.33 366.541 224.603 359.929 225.303 352.815C224.469 347.665 221.89 342.962 218 339.495C211.049 333.093 206.727 324.327 205.876 314.905V314.173C205.803 312.808 205.803 311.44 205.876 310.075C206.401 299.691 210.777 289.877 218.146 282.558L219.46 281.387L220.775 282.851L229.977 292.804C224.761 297.84 221.543 304.6 220.921 311.832C221.721 317.026 224.366 321.756 228.37 325.151C235.269 331.828 239.392 340.875 239.909 350.473V351.205C239.995 352.716 239.995 354.231 239.909 355.742C239.566 361.522 237.864 367.139 234.943 372.135H241.516C246.413 367.235 249.415 360.751 249.987 353.839C249.092 348.678 246.463 343.979 242.538 340.52C235.587 334.118 231.265 325.352 230.415 315.93V315.198C230.342 313.833 230.342 312.465 230.415 311.1C231.143 300.103 236.184 289.842 244.437 282.558L245.751 281.387L246.92 282.851L256.268 292.804C250.996 297.799 247.768 304.582 247.212 311.832C247.658 317.475 250.277 322.724 254.515 326.468C261.458 332.859 265.736 341.642 266.492 351.058V351.79C266.562 353.155 266.562 354.523 266.492 355.888C266.218 361.681 264.512 367.314 261.526 372.282H269.121C273.914 367.324 276.854 360.862 277.447 353.986C276.613 348.836 274.034 344.132 270.144 340.666C263.135 334.308 258.801 325.518 258.021 316.076V315.344C257.948 313.979 257.948 312.611 258.021 311.246C258.483 300.327 263.203 290.026 271.166 282.558C271.897 282.558 272.335 281.533 272.335 281.387L273.503 282.851L282.851 292.804C277.689 297.862 274.525 304.62 273.941 311.832C274.74 316.993 277.325 321.708 281.245 325.151C288.23 331.527 292.559 340.307 293.368 349.741V350.473C293.438 351.838 293.438 353.206 293.368 354.571C293.025 360.351 291.323 365.968 288.402 370.964H295.851V273.044H197.551L197.551 371.696H215.809L216.101 371.403Z" fill="#F29400"/>
<path d="M275.833 76.7668C271.02 81.6514 268.073 88.0755 267.508 94.9164C268.336 100.142 270.973 104.909 274.957 108.382C281.876 114.79 286.149 123.563 286.934 132.972V133.704C287.009 135.069 287.009 136.437 286.934 137.802C286.097 148.424 281.237 158.321 273.35 165.466L272.182 166.783L271.013 165.32L261.665 155.22C266.937 150.225 270.165 143.442 270.721 136.192C269.896 130.998 267.318 126.245 263.418 122.726C256.467 116.325 252.145 107.558 251.295 98.1365V97.4047C251.219 96.0396 251.219 94.6714 251.295 93.3064C251.649 87.1027 253.613 81.099 256.991 75.8886L230.554 75.8886L231.43 76.9131C226.687 81.846 223.753 88.2437 223.105 95.0628C223.934 100.288 226.571 105.055 230.554 108.529C237.473 114.937 241.747 123.71 242.531 133.119V133.85C242.606 135.215 242.606 136.584 242.531 137.949C241.658 148.518 236.801 158.357 228.947 165.466L227.779 166.783L226.61 165.32L217.262 155.22C222.534 150.225 225.762 143.442 226.318 136.192C225.493 130.998 222.915 126.245 219.015 122.726C212.064 116.325 207.742 107.558 206.892 98.1365V97.4047C206.135 89.7999 208.103 82.1733 212.442 75.8886H197.836L197.836 174.541H232.307C232.307 171.047 233.692 167.696 236.157 165.226C238.622 162.756 241.966 161.368 245.452 161.368C248.939 161.368 252.282 162.756 254.748 165.226C257.213 167.696 258.598 171.047 258.598 174.541H296.282V75.7422H274.957L275.833 76.7668Z" fill="#F29400"/>
<path d="M259.045 48.3693C258.804 45.221 257.636 42.2153 255.689 39.7327C253.742 37.2501 251.103 35.4022 248.108 34.4231C245.112 33.444 241.894 33.3777 238.861 34.2325C235.827 35.0873 233.115 36.8249 231.068 39.2251C229.021 41.6254 227.731 44.5804 227.36 47.7161C226.99 50.8517 227.557 54.0269 228.988 56.8397C230.42 59.6525 232.652 61.9763 235.403 63.517C238.153 65.0576 241.298 65.7458 244.439 65.4944C248.639 65.1581 252.535 63.1667 255.273 59.9566C258.011 56.7466 259.368 52.5797 259.045 48.3693Z" fill="#F29400"/>
<path d="M238.88 11.6319C238.667 8.47497 237.522 5.45276 235.59 2.94952C233.659 0.446271 231.028 -1.42494 228.033 -2.42622C225.038 -3.42751 221.813 -3.51365 218.769 -2.6737C215.724 -1.83374 212.998 -0.105632 210.936 2.29095C208.875 4.68753 207.571 7.64433 207.19 10.7854C206.81 13.9266 207.37 17.1101 208.8 19.9314C210.229 22.7527 212.464 25.0843 215.219 26.6297C217.974 28.1752 221.126 28.8647 224.273 28.6106C228.447 28.2738 232.32 26.303 235.054 23.1251C237.787 19.9472 239.162 15.8181 238.88 11.6319Z" fill="#F29400"/>
<path d="M283.715 11.6334C283.571 9.53822 283.017 7.49201 282.084 5.61154C281.151 3.73106 279.858 2.05314 278.277 0.673603C276.697 -0.705939 274.862 -1.76009 272.875 -2.42867C270.888 -3.09726 268.79 -3.36718 266.699 -3.22302C264.608 -3.07886 262.566 -2.52345 260.69 -1.58849C258.813 -0.653533 257.139 0.642661 255.762 2.22608C254.385 3.80949 253.333 5.64912 252.666 7.63993C251.999 9.63074 251.73 11.7337 251.874 13.8289C252.164 18.0602 254.12 22.0025 257.311 24.7886C260.502 27.5747 264.667 28.9764 268.89 28.6852C273.112 28.3941 277.046 26.434 279.827 23.2361C282.607 20.0383 284.006 15.8646 283.715 11.6334Z" fill="#F29400"/>
<path d="M112.828 421.317C114.044 421.39 115.263 421.39 116.479 421.317C124.758 420.68 132.486 416.913 138.096 410.778C141.172 407.291 145.348 404.967 149.927 404.192C155.977 404.767 161.647 407.401 165.994 411.657L174.758 403.46L176.073 402.435L174.904 401.411C168.737 394.808 160.373 390.695 151.388 389.848H147.152C138.864 390.566 131.148 394.379 125.535 400.533C122.475 404.014 118.283 406.296 113.704 406.973C108.198 406.101 103.097 403.545 99.0977 399.654V416.779C103.302 419.156 108.005 420.51 112.828 420.731" fill="#F29400"/>
<path d="M140.574 422.05C140.723 424.098 141.474 426.056 142.732 427.676C143.991 429.296 145.7 430.507 147.644 431.155C149.588 431.803 151.68 431.86 153.656 431.318C155.632 430.775 157.404 429.659 158.747 428.108C160.091 426.558 160.946 424.644 161.205 422.607C161.463 420.571 161.114 418.503 160.202 416.664C159.289 414.826 157.853 413.3 156.076 412.279C154.298 411.258 152.259 410.787 150.214 410.926C148.851 411.019 147.52 411.381 146.297 411.991C145.074 412.601 143.983 413.447 143.087 414.48C142.191 415.514 141.508 416.715 141.077 418.014C140.646 419.313 140.475 420.685 140.574 422.05Z" fill="#F29400"/>
<path d="M79.2279 191.077H77.7673C68.4299 191.899 59.7332 196.178 53.3749 203.079C49.9802 207.058 45.2547 209.66 40.0832 210.398C32.8467 210.108 25.9755 207.135 20.803 202.055L10.8708 211.422L9.41016 212.593C9.41016 212.593 9.41016 212.593 10.5787 213.764C17.5299 221.225 27.0094 225.818 37.162 226.645H41.982C51.308 225.782 59.9909 221.51 66.3745 214.642C69.6005 210.55 74.1431 207.705 79.2279 206.592C86.0546 207.159 92.4653 210.112 97.3397 214.935L108.44 206.446L109.901 205.275C109.901 205.275 109.901 205.275 108.733 203.958C105.674 200.898 102.238 198.242 98.5082 196.054C93.5341 193.1 87.9223 191.393 82.1492 191.077H79.2279Z" fill="#F29400"/>
<path d="M37.762 245.53C37.975 248.636 39.4104 251.53 41.7525 253.574C44.0945 255.619 47.1512 256.648 50.2503 256.435C53.3493 256.221 56.2368 254.783 58.2775 252.436C60.3182 250.089 61.345 247.026 61.1319 243.92C61.0264 242.383 60.6197 240.881 59.935 239.501C59.2503 238.12 58.3011 236.889 57.1414 235.876C55.9818 234.864 54.6344 234.09 53.1764 233.599C51.7183 233.108 50.1781 232.91 48.6436 233.016C47.1091 233.122 45.6104 233.529 44.2331 234.215C42.8558 234.901 41.6268 235.853 40.6164 237.015C39.6059 238.177 38.8338 239.527 38.344 240.988C37.8542 242.449 37.6565 243.993 37.762 245.53Z" fill="#F29400"/>
<path d="M99.1121 75.7391H121.168V74.7145C121.386 71.547 121.386 68.3681 121.168 65.2005V63.005C119.153 41.0712 108.987 20.6967 92.6854 5.92142C83.541 -1.9983 77.4447 -12.8703 75.45 -24.8159C75.45 -24.8159 75.45 -25.6941 75.45 -26.1332C76.9255 -42.155 83.833 -57.187 95.0224 -68.7264H95.7527C96.483 -68.7264 96.9212 -69.7509 96.9212 -69.8973L75.0118 -94.6335L72.0906 -98L69.0233 -95.0726C51.642 -78.64 40.8398 -56.4178 38.6423 -32.5734C38.4213 -29.406 38.4213 -26.2269 38.6423 -23.0595V-21.3031C40.6339 0.762932 50.7944 21.2831 67.1245 36.2197C76.3833 44.3732 82.5275 55.4972 84.5059 67.6888V68.8598C84.6567 71.1504 84.6567 73.4485 84.5059 75.7391H99.1121V128.578V75.7391Z" fill="#F29400"/>
<path d="M183.529 75.7391C183.458 75.4012 183.458 75.0523 183.529 74.7145C183.747 71.547 183.747 68.3681 183.529 65.2006V63.005C181.47 41.1155 171.371 20.7724 155.192 5.92143C146.006 -2.00757 139.818 -12.8594 137.665 -24.8159V-26.7187C139.252 -42.5684 146.212 -57.3944 157.383 -68.7264H158.114C158.114 -68.7264 159.136 -69.7509 159.136 -69.8973L137.665 -94.6335L134.598 -98L131.676 -95.0726C114.186 -78.704 103.319 -56.4567 101.149 -32.5734C100.929 -29.4059 100.929 -26.227 101.149 -23.0595C101.078 -22.4762 101.078 -21.8863 101.149 -21.3031C102.942 0.724197 112.956 21.2645 129.193 36.2197C138.452 44.3732 144.596 55.4972 146.575 67.6888C146.575 67.6888 146.575 68.567 146.575 68.8598C146.484 71.1665 146.24 73.4647 145.844 75.7391H183.09H183.529Z" fill="#F29400"/>
<path d="M269.126 419.849C268.829 415.521 267.258 411.378 264.613 407.944C261.968 404.509 258.367 401.937 254.265 400.552C250.163 399.167 245.742 399.03 241.563 400.16C237.383 401.29 233.631 403.635 230.78 406.9C227.93 410.165 226.108 414.203 225.545 418.504C224.983 422.806 225.704 427.178 227.619 431.068C229.534 434.959 232.556 438.194 236.304 440.365C240.052 442.537 244.357 443.546 248.678 443.268C251.557 443.082 254.371 442.328 256.959 441.049C259.547 439.77 261.857 437.991 263.757 435.815C265.657 433.639 267.11 431.109 268.031 428.369C268.952 425.629 269.325 422.733 269.126 419.849Z" fill="#F29400"/>
<path d="M0.944468 470.051H41.5498L41.5498 394.232H57.3245L57.3245 470.197H99.0983L99.0983 371.691H90.6267H76.0205H69.3016H54.6954H46.808H32.2018H24.3144H9.7082H0.652344L0.652344 372.862L0.944468 470.051ZM32.9321 433.898C33.071 435.946 32.6012 437.99 31.5821 439.771C30.563 441.552 29.0402 442.991 27.2059 443.906C25.3716 444.821 23.308 445.171 21.2755 444.911C19.243 444.652 17.3328 443.795 15.7858 442.449C14.2388 441.102 13.1244 439.327 12.5833 437.347C12.0422 435.367 12.0986 433.27 12.7453 431.322C13.3921 429.374 14.6002 427.661 16.2173 426.4C17.8344 425.139 19.7879 424.387 21.8314 424.238C23.198 424.118 24.5747 424.275 25.8795 424.699C27.1843 425.124 28.3905 425.807 29.4263 426.709C30.4621 427.61 31.3062 428.711 31.9085 429.946C32.5108 431.181 32.8589 432.525 32.9321 433.898ZM85.0763 433.898C85.1757 435.263 85.0048 436.635 84.5736 437.934C84.1423 439.233 83.4592 440.434 82.5634 441.468C81.6676 442.501 80.5768 443.347 79.3537 443.957C78.1306 444.567 76.7993 444.929 75.4362 445.022C72.7425 445.106 70.1193 444.151 68.108 442.353C66.0967 440.556 64.8509 438.053 64.6276 435.362C64.5283 433.996 64.6991 432.625 65.1304 431.325C65.5616 430.026 66.2448 428.826 67.1406 427.792C68.0364 426.758 69.1272 425.912 70.3503 425.302C71.5734 424.692 72.9047 424.33 74.2677 424.238C75.6343 424.118 77.011 424.275 78.3158 424.699C79.6206 425.124 80.8268 425.807 81.8626 426.709C82.8984 427.61 83.7426 428.711 84.3449 429.946C84.9472 431.181 85.2953 432.525 85.3685 433.898" fill="#F29400"/>
<path d="M31.7695 294.121L31.7695 371.55V372.135H46.814V371.55L46.814 294.121H31.7695Z" fill="#F29400"/>
<path d="M9.26562 294.121L9.26562 371.55V372.135H24.31V371.55L24.31 294.121H9.26562Z" fill="#F29400"/>
<path d="M54.2539 294.121L54.2539 371.55V372.135H69.2983V371.55L69.2983 294.121H54.2539Z" fill="#F29400"/>
<path d="M75.5938 294.121L75.5937 371.55V372.135H90.6382V371.55L90.6382 294.121H75.5938Z" fill="#F29400"/>
<path d="M231.877 249.331C231.868 251.166 232.237 252.983 232.962 254.668C233.687 256.353 234.751 257.87 236.088 259.124C237.426 260.377 239.007 261.34 240.734 261.952C242.46 262.565 244.294 262.813 246.12 262.681C247.947 262.55 249.726 262.042 251.348 261.188C252.969 260.335 254.397 259.156 255.542 257.724C256.687 256.291 257.524 254.638 258.001 252.866C258.478 251.094 258.584 249.243 258.314 247.428C258.227 245.635 257.772 243.88 256.976 242.272C256.181 240.664 255.062 239.238 253.691 238.083C252.319 236.929 250.725 236.071 249.007 235.563C247.289 235.056 245.485 234.909 243.708 235.133C241.928 235.262 240.191 235.745 238.6 236.553C237.008 237.362 235.593 238.48 234.437 239.843C233.282 241.205 232.408 242.785 231.868 244.489C231.328 246.194 231.132 247.989 231.292 249.77" fill="#F29400"/>
<path d="M231.876 212.302C232.139 214.9 233.158 217.364 234.807 219.387C236.455 221.409 238.661 222.901 241.15 223.678C243.638 224.454 246.299 224.48 248.802 223.753C251.305 223.025 253.54 221.576 255.228 219.586C256.916 217.597 257.982 215.153 258.296 212.561C258.609 209.968 258.154 207.34 256.989 205.004C255.824 202.668 253.999 200.727 251.741 199.422C249.483 198.117 246.893 197.506 244.291 197.665C242.505 197.774 240.758 198.244 239.157 199.046C237.555 199.849 236.132 200.967 234.973 202.334C233.813 203.701 232.941 205.288 232.409 207.001C231.877 208.714 231.696 210.517 231.876 212.302Z" fill="#F29400"/>
<path d="M246.028 189.029C247.807 188.9 249.544 188.417 251.135 187.608C252.727 186.8 254.142 185.682 255.298 184.319C256.454 182.956 257.327 181.377 257.867 179.672C258.407 177.968 258.603 176.173 258.443 174.392C258.443 170.898 257.058 167.548 254.593 165.077C252.127 162.607 248.784 161.219 245.297 161.219C241.811 161.219 238.467 162.607 236.002 165.077C233.537 167.548 232.152 170.898 232.152 174.392C232.074 175.171 232.074 175.955 232.152 176.734C232.279 178.512 232.762 180.246 233.571 181.834C234.379 183.421 235.498 184.83 236.86 185.977C238.222 187.123 239.8 187.984 241.5 188.508C243.2 189.033 244.988 189.21 246.758 189.029" fill="#F29400"/>
<path d="M59.519 75.8855V74.7145C59.519 71.4944 59.519 68.2743 59.519 65.2006C59.519 65.2006 59.519 64.0296 59.519 63.4442C57.65 41.3753 47.5288 20.8291 31.183 5.92145C22.0414 -2.02235 15.9044 -12.8751 13.8016 -24.8159C13.8016 -24.8159 13.8016 -24.8159 13.8016 -25.9868C15.2446 -42.0602 22.1543 -57.1489 33.3739 -68.7264H34.1042L35.4188 -71.2146L13.3634 -94.6335L10.5882 -98L7.66694 -95.0726C5.29535 -92.8096 3.05222 -90.4152 0.948072 -87.9006C-12.914 -72.6147 -21.3369 -53.1604 -23.0061 -32.5734C-23.2271 -29.406 -23.2271 -26.2269 -23.0061 -23.0595V-21.303C-21.4521 -1.66537 -13.1998 16.8378 0.363825 31.0968L6.20632 36.2197C15.4652 44.3732 21.6093 55.4972 23.5877 67.6888V68.8598C23.8105 71.1475 23.8105 73.4514 23.5877 75.7391H59.519V75.8855Z" fill="#F29400"/>
<path d="M131.962 108.672H99.0977V128.139V141.458H131.962V108.672Z" fill="#F29400"/>
<path d="M131.965 108.675H164.829V75.7422H146.279H131.965V108.675Z" fill="#F29400"/>
<path d="M164.829 141.457H131.965V174.39H164.829V141.457Z" fill="#F29400"/>
<path d="M197.692 108.523H164.828V141.456H197.692V108.523Z" fill="#F29400"/>
<path d="M65.946 108.672H33.082L33.082 141.605H65.946V108.672Z" fill="#F29400"/>
<path d="M65.8086 108.669H98.6726V75.8828H83.9203H65.8086V108.669Z" fill="#F29400"/>
<path d="M65.8125 174.393H98.6765V141.606H65.8125V174.393Z" fill="#F29400"/>
<path d="M32.9406 108.669L32.9406 75.8828H22.2781H0.222656L0.222656 108.669H32.9406Z" fill="#F29400"/>
<path d="M32.9406 141.606H0.222656L0.222656 174.393H0.514781H32.9406L32.9406 141.606Z" fill="#F29400"/>
</g>
</g>
<defs>
<clipPath id="clip0">
<rect width="1359" height="432" rx="50" fill="white"/>
</clipPath>
<clipPath id="clip1">
<rect width="759" height="1587" fill="white" transform="translate(-37 595) rotate(-90)"/>
</clipPath>
<clipPath id="clip2">
<rect width="319" height="667" fill="white" transform="translate(1016 375) rotate(-90)"/>
</clipPath>
<clipPath id="clip3">
<rect width="319" height="667" fill="white" transform="translate(-23 -98)"/>
</clipPath>
</defs>
</svg>
