<svg width="1359" height="432" fill="none" xmlns="http://www.w3.org/2000/svg"><g clip-path="url(#clip0)"><rect width="1359" height="432" rx="50" fill="#5A2E91"/><g opacity=".3" clip-path="url(#clip1)" fill="#715F7A"><path d="M1314.58 304.466v99.392h.35v-99.392h-.35zm-468.752-32.652v33.015h.351v-33.015h-.351zm0-105.996v43.093h.351v-43.093h-.351zm-469.091 217.87v-43.093h-.35v58.037h.35v-14.944z"/><path d="M845.828 304.825v.348H1080.2v-.695h.35V271.81H845.828v33.015zm0-139.007v43.093h234.722v-43.093H845.828zm0-94.894v31.972h234.722V70.924H845.828z"/><path d="M681.101 280.468c1.741 0 2.786-2.78 3.134-2.78l3.134 4.518 21.941 23.632h136.864v-34.753H729.16v-62.902h117.362v-43.094H729.16v-62.902h117.362V70.214h-235.42v234.581h51.193a120.982 120.982 0 0118.806-24.327z"/><path d="M1079.86 26.101a69.728 69.728 0 00-44.23-21.894 53.99 53.99 0 00-31.69 17.376 90.636 90.636 0 01-58.511 28.845h-1.741a91.402 91.402 0 01-9.751 0 99.346 99.346 0 01-65.472-29.192l-2.786-3.128 3.482-3.128 23.682-21.894a71.45 71.45 0 0045.273 21.547 51.915 51.915 0 0031.691-17.724 90.634 90.634 0 0160.253-27.455h1.74a94.8 94.8 0 0110.79 0 87.552 87.552 0 0139.01 11.816v-15.639a69.723 69.723 0 00-43.53-20.156 54.724 54.724 0 00-31.7 17.724 90.6 90.6 0 01-58.503 28.845h-1.741a91.429 91.429 0 01-9.751 0 99.327 99.327 0 01-67.91-33.363l-2.786-3.128 3.482-2.78 23.682-22.242a69.71 69.71 0 0045.273 21.547A51.929 51.929 0 00972.941-65.3a89.218 89.218 0 0158.509-28.497h1.74c3.25-.167 6.5-.167 9.75 0a83.39 83.39 0 0139.01 11.816v-18.071a71.47 71.47 0 00-43.54-19.809 54.016 54.016 0 00-31.69 17.376 88.864 88.864 0 01-58.505 28.845h-1.741a91.402 91.402 0 01-9.751 0 99.34 99.34 0 01-68.258-31.278c0-1.737-2.438-2.78-2.786-2.78l3.482-2.78 23.682-22.242a71.453 71.453 0 0045.273 21.199 52.96 52.96 0 0031.691-17.376 89.577 89.577 0 0158.503-28.845h1.75c3.24-.167 6.5-.167 9.75 0a87.547 87.547 0 0139 11.816v-17.724H845.828V70.237h234.722v-43.44l-.69-.696zm276.16-137.621a54.691 54.691 0 0032.04-17.376 88.876 88.876 0 0158.51-28.845 88.58 88.58 0 019.75 0 100.04 100.04 0 0163.38 30.93l3.13 3.128-3.48 3.128-22.29 20.504a69.687 69.687 0 00-43.18-19.809 52.952 52.952 0 00-31.69 17.376 89.59 89.59 0 01-58.86 28.845 85.19 85.19 0 01-9.4 0 83.391 83.391 0 01-34.83-9.036v17.377a67.637 67.637 0 0036.92 17.376 53.689 53.689 0 0032.04-17.724 88.514 88.514 0 0158.51-28.497c3.24-.18 6.5-.18 9.75 0a98.271 98.271 0 0164.77 28.845l3.14 2.78-3.49 2.78-23.68 22.242a69.709 69.709 0 00-43.18-20.157 53.635 53.635 0 00-31.69 17.724 91.334 91.334 0 01-58.86 28.845 84.75 84.75 0 01-9.4 0 83.052 83.052 0 01-34.83-8.688v17.724a65.566 65.566 0 0036.92 16.68 53.688 53.688 0 0032.04-17.723 89.912 89.912 0 0158.16-27.455c3.25-.18 6.5-.18 9.75 0a98.277 98.277 0 0163.38 30.93l3.14 2.78-3.49 2.78-23.68 22.242a69.693 69.693 0 00-43.53-23.979 52.955 52.955 0 00-31.69 17.377 91.311 91.311 0 01-58.86 28.844 85.19 85.19 0 01-9.4 0 83.391 83.391 0 01-34.83-9.035v28.844h42.49V55.99h36.92v14.248h18.45V55.99h36.92v14.248h18.46V55.99h36.91v14.248H1550v-234.233h-234.73v34.752a65.549 65.549 0 0040.75 17.724zm-977.196-4.498a69.717 69.717 0 0043.184 19.81 53.658 53.658 0 0032.04-17.725 89.917 89.917 0 0158.507-28.497h1.741c3.248-.18 6.503-.18 9.751 0a99.328 99.328 0 0165.82 32.32l3.135 2.78-3.483 2.78-24.03 22.242a69.713 69.713 0 00-45.273-21.547 54.71 54.71 0 00-32.039 17.377 90.619 90.619 0 01-58.507 28.845h-1.741a88.32 88.32 0 01-9.752 0 85.094 85.094 0 01-41.442-13.554v62.902l2.438-2.085a72.156 72.156 0 0043.183 19.81 53.66 53.66 0 0032.04-17.725 89.921 89.921 0 0158.507-28.497h1.741c3.248-.18 6.503-.18 9.751 0a99.327 99.327 0 0165.472 32.32l3.135 2.78-3.483 2.78-24.03 22.242a69.709 69.709 0 00-45.273-21.546 54.708 54.708 0 00-32.039 17.376 90.618 90.618 0 01-58.507 28.845h-1.741a76.737 76.737 0 01-51.194-13.206V69.56h234.724v-82.016a31.378 31.378 0 01-22.163-9.16 31.244 31.244 0 01-9.18-22.117 31.245 31.245 0 019.18-22.117 31.378 31.378 0 0122.163-9.16v-89.663H376.387v50.739l2.437-2.085zm-67.568 39.943a38.008 38.008 0 00-20.549 7.986 37.883 37.883 0 00-12.633 18.037 37.809 37.809 0 00-.453 22.002A37.872 37.872 0 00289.5-9.51a38.028 38.028 0 0041.91 4.949 37.925 37.925 0 0015.888-15.261 37.814 37.814 0 004.704-21.5A37.852 37.852 0 00338.826-67.1a38.01 38.01 0 00-27.57-8.974zm-87.407 47.976a38.007 38.007 0 00-20.659 7.827 37.879 37.879 0 00-12.79 17.98 37.812 37.812 0 00-.589 22.043 37.87 37.87 0 0011.813 18.636 37.996 37.996 0 0020.211 8.913 38.03 38.03 0 0021.761-3.829 37.927 37.927 0 0015.937-15.274 37.812 37.812 0 004.713-21.543 37.85 37.85 0 00-13.051-25.65 38.013 38.013 0 00-27.346-9.103zm974.771 299.916c.17-2.894.17-5.795 0-8.688a77.793 77.793 0 00-25.08-51.434 48.294 48.294 0 01-15.67-28.15 63.23 63.23 0 0117.76-38.228l-19.5-20.852-2.44-3.128-2.44 2.781a87.862 87.862 0 00-27.51 55.952v10.078a78.835 78.835 0 0025.42 51.434 46.509 46.509 0 0115.33 28.15 64.329 64.329 0 01-17.41 34.752h40.74a73.049 73.049 0 009.4-32.667m36.57-144.572v177.239h37.61V127.245h-37.61z"/><path d="M1200.36 205.799a24.79 24.79 0 0013.39-5.135 24.687 24.687 0 008.27-11.685 24.563 24.563 0 00.39-14.306 24.66 24.66 0 00-7.64-12.113 24.712 24.712 0 00-13.08-5.847 24.76 24.76 0 00-14.14 2.387 24.683 24.683 0 00-10.44 9.817 24.64 24.64 0 00-3.22 13.945 24.472 24.472 0 002.54 9.321 24.651 24.651 0 005.92 7.637 24.769 24.769 0 0018.01 5.979zM650.805 351.766v3.475a89.585 89.585 0 0028.557 58.037 51.058 51.058 0 0117.412 31.625 69.435 69.435 0 01-19.85 45.874l22.288 23.632 2.786 3.475 2.786-2.78a97.232 97.232 0 0030.647-63.25v-11.469a90.636 90.636 0 00-28.557-58.037 53.506 53.506 0 01-19.154-30.582 69.444 69.444 0 0119.85-43.094l-20.199-26.412-2.786-3.475-3.134 2.78a120.99 120.99 0 00-18.806 24.327 85.365 85.365 0 00-11.84 38.923v6.951zm129.56 98.663a27.948 27.948 0 0019.139-9.495 27.828 27.828 0 00-2.708-39.318 27.963 27.963 0 00-30.778-3.944 27.916 27.916 0 00-8.623 6.647 27.819 27.819 0 002.709 39.318 27.953 27.953 0 0020.261 6.792zM376.379 304.458v-52.477h-2.438c-7.536-.52-15.1-.52-22.636 0h-5.224c-52.188 4.793-100.665 28.981-135.82 67.768a123.694 123.694 0 01-73.133 41.008h-3.135a167.66 167.66 0 01-101.342-46.568v-1.738c0-1.738-2.438-2.78-2.786-2.78L-28.99 361.8l-8.01 6.95 6.965 7.298c39.098 41.356 91.972 67.058 148.705 72.286 7.536.526 15.1.526 22.637 0h4.179c52.502-4.738 101.325-28.913 136.864-67.768a126.843 126.843 0 0174.875-41.356h2.786a124.86 124.86 0 0116.368 0v-34.752h125.72-125.72z"/><path d="M376.379 103.6a5.925 5.925 0 01-2.438 0c-7.536-.52-15.1-.52-22.636 0h-5.224c-52.082 4.898-100.485 28.925-135.82 67.42a126.125 126.125 0 01-73.133 41.703H132.6a165.91 165.91 0 01-99.949-46.916v-1.737s-2.438-2.433-2.786-2.433l-58.855 51.086-8.01 7.299 6.965 6.95c38.946 41.616 91.88 67.47 148.705 72.633 7.537.524 15.1.524 22.637 0 1.388.171 2.791.171 4.179 0 52.41-4.264 101.281-28.09 136.864-66.725a126.838 126.838 0 0174.875-41.356h2.786c5.489.217 10.957.797 16.368 1.738V103.6zm818.741-203.661a52.277 52.277 0 00-28.32 10.738 52.037 52.037 0 00-17.59 24.622 51.977 51.977 0 00-.93 30.222 52.03 52.03 0 0016.03 25.655 52.311 52.311 0 0027.61 12.456 52.35 52.35 0 0029.9-4.934 52.259 52.259 0 0022.12-20.664 52.033 52.033 0 006.9-29.44 51.87 51.87 0 00-5.28-19.705 52.056 52.056 0 00-12.45-16.175 52.291 52.291 0 00-17.72-10.169 52.338 52.338 0 00-20.27-2.606zm119.45 638.087v-96.613h-180.4V403.88h180.75v-99.393h-234.38v234.234h2.79l231.24-.695zm-86.02-76.109c4.88-.33 9.74.787 13.98 3.212a24.686 24.686 0 019.83 10.413 24.662 24.662 0 012.4 14.11 24.699 24.699 0 01-5.86 13.062 24.775 24.775 0 01-26.48 7.234 24.757 24.757 0 01-11.71-8.261c-3-3.848-4.79-8.496-5.14-13.358-.29-3.251.09-6.527 1.1-9.631a24.22 24.22 0 014.78-8.439 24.285 24.285 0 017.7-5.906 24.422 24.422 0 019.4-2.436zm0-124.067c3.25-.237 6.51.17 9.6 1.196a24.675 24.675 0 018.41 4.783 24.822 24.822 0 015.93 7.637 24.64 24.64 0 012.53 9.321c.2 6.409-2.07 12.65-6.35 17.436a25.102 25.102 0 01-16.64 8.281 24.768 24.768 0 01-18.01-5.979 24.651 24.651 0 01-8.45-16.958c-.29-3.252.09-6.527 1.1-9.632a24.238 24.238 0 014.78-8.439 24.3 24.3 0 017.7-5.906 24.439 24.439 0 019.4-2.435"/><path d="M895.977 464.68H1081.6v-35.796H895.977v35.796zm0-53.493H1081.6v-35.796H895.977v35.796zm0-50.777H1081.6v-35.795H895.977v35.795zm-519.25 38.247h-29.601c-52.509 4.447-101.395 28.529-136.865 67.42a125.776 125.776 0 01-73.133 41.356h-2.786a167.663 167.663 0 01-101.69-46.569v-1.737l-5.921-3.128-55.721 52.477-8.01 6.603 6.965 6.95a208.659 208.659 0 0017.065 15.986c36.37 32.983 82.657 53.023 131.64 56.995 7.537.526 15.1.526 22.637 0h4.179c46.724-3.698 90.749-23.332 124.675-55.604l12.189-13.902a126.837 126.837 0 0174.875-41.355h2.786a84.448 84.448 0 0116.368 0v-85.492h.348zm78.011-172.366v78.193h78.009v-78.193h-78.009zm.006-.01v-78.194h-78.357v78.194h78.357zm77.998-78.194v78.194H611.1v-78.194h-78.358z"/><path d="M454.383 69.896v78.194h78.357V69.896h-78.357zm.355 313.469v78.194h78.358v-78.194h-78.358zm-.006.322v-78.193h-78.009v78.194l78.009-.001zm156.375 0v-78.193h-78.009v78.194l78.009-.001z"/></g><g clip-path="url(#clip2)" fill="#67BAC3"><path d="M1189.89 286.188v-18.112h-.15v24.393h.15v-6.281zm127.92-43.383c.73 0 1.17-1.168 1.32-1.168l1.32 1.899 9.22 9.932h57.52v-14.606h-49.18v-26.438h49.33v-18.111h-49.33v-26.438h49.33v-13.437h-98.95v98.592h21.52a50.86 50.86 0 017.9-10.225zM1190.77 76.166a29.292 29.292 0 0018.15 8.325 22.545 22.545 0 0013.46-7.449 37.795 37.795 0 0124.59-11.977h.73c1.37-.075 2.74-.075 4.1 0a41.777 41.777 0 0127.67 13.584l1.31 1.168-1.46 1.169-10.1 9.348c-5-5.272-11.78-8.5-19.03-9.056a22.993 22.993 0 00-13.46 7.303 38.107 38.107 0 01-24.59 12.123h-.74a35.745 35.745 0 01-21.51-5.696v26.437l1.02-.876a30.341 30.341 0 0018.15 8.325c5.23-.829 10-3.466 13.47-7.449a37.796 37.796 0 0124.59-11.977h.73c1.37-.075 2.73-.075 4.1 0a41.756 41.756 0 0127.52 13.584l1.31 1.168-1.46 1.169-10.1 9.348c-5-5.272-11.78-8.5-19.03-9.056a22.995 22.995 0 00-13.46 7.303 38.104 38.104 0 01-24.59 12.123h-.74a32.235 32.235 0 01-21.51-5.55v14.606h98.65v-34.471c-3.49 0-6.84-1.385-9.31-3.85a13.135 13.135 0 01-3.86-9.295c0-3.487 1.39-6.83 3.86-9.296a13.182 13.182 0 019.31-3.85V55.717h-98.8v21.325l1.03-.876zm-28.4 16.788a15.947 15.947 0 00-13.95 10.937 15.922 15.922 0 00-.19 9.247 15.896 15.896 0 005 7.793 15.96 15.96 0 008.49 3.708c3.13.37 6.31-.197 9.12-1.628a15.958 15.958 0 006.68-6.415 15.823 15.823 0 001.97-9.036c-.33-4.2-2.32-8.096-5.53-10.834a15.983 15.983 0 00-11.59-3.772zm-36.74 20.164a15.943 15.943 0 00-8.68 3.289 16.01 16.01 0 00-5.38 7.557c-1 2.995-1.08 6.22-.24 9.264a15.885 15.885 0 004.96 7.833 15.978 15.978 0 0024.34-4.283 15.888 15.888 0 001.98-9.054 15.945 15.945 0 00-5.48-10.78 15.986 15.986 0 00-11.5-3.826zm0-44.838a16.007 16.007 0 00-10.96 5.438 15.96 15.96 0 00-3.1 5.403 15.788 15.788 0 00-.79 6.176c.14 2.09.7 4.133 1.63 6.01a15.955 15.955 0 003.82 4.927 15.958 15.958 0 005.41 3.096 16.017 16.017 0 0017.15-4.645 15.92 15.92 0 003.89-11.579 15.964 15.964 0 00-5.44-10.937 16.035 16.035 0 00-11.61-3.888z"/><path d="M1305.08 272.771v1.461a37.65 37.65 0 0012 24.392 21.463 21.463 0 017.32 13.292 29.181 29.181 0 01-8.34 19.28l9.36 9.932 1.17 1.461 1.18-1.169a40.884 40.884 0 0012.88-26.583v-4.82a38.124 38.124 0 00-12.01-24.392 22.54 22.54 0 01-8.05-12.854 29.174 29.174 0 018.35-18.112l-8.49-11.1-1.17-1.461-1.32 1.168a50.908 50.908 0 00-7.91 10.225 35.844 35.844 0 00-4.97 16.359v2.921zm54.45 41.467c3.11-.213 6-1.648 8.04-3.99a11.648 11.648 0 002.86-8.498 11.71 11.71 0 00-3.99-8.028 11.764 11.764 0 00-12.94-1.657 11.69 11.69 0 00-3.62 2.794 11.574 11.574 0 00-2.28 3.965 11.619 11.619 0 00-.58 4.532c.1 1.535.51 3.034 1.2 4.411a11.637 11.637 0 002.79 3.617 11.87 11.87 0 003.98 2.272c1.46.49 3 .688 4.54.582zm-169.79-61.35v-22.056h-1.03a69.226 69.226 0 00-9.51 0h-2.19a87.902 87.902 0 00-57.09 28.483 51.985 51.985 0 01-30.74 17.235h-1.31a70.47 70.47 0 01-42.6-19.572v-.731c0-.73-1.02-1.168-1.17-1.168l-24.73 21.909-3.37 2.921 2.93 3.068a98.425 98.425 0 0062.5 30.381c3.16.221 6.34.221 9.51 0h1.76a88.785 88.785 0 0057.52-28.482 53.307 53.307 0 0131.47-17.382h1.17c2.29-.151 4.59-.151 6.88 0v-14.606h52.84-52.84z"/><path d="M1189.74 168.469c-.34.071-.69.071-1.03 0a69.226 69.226 0 00-9.51 0h-2.19a88.781 88.781 0 00-57.09 28.337 53.012 53.012 0 01-30.74 17.527h-1.9a69.76 69.76 0 01-42.01-19.718v-.731s-1.02-1.022-1.17-1.022l-24.73 21.471-3.37 3.067 2.93 2.922a97.698 97.698 0 0062.5 30.527c3.16.22 6.34.22 9.51 0 .58.071 1.17.071 1.76 0a87.918 87.918 0 0057.52-28.044 53.307 53.307 0 0131.47-17.382h1.17c2.31.091 4.6.335 6.88.731v-37.685zm173.59-48.348a13.32 13.32 0 009.79-4.212 13.165 13.165 0 002.83-4.646c.61-1.726.86-3.56.73-5.386a13.299 13.299 0 00-1.49-5.228 13.17 13.17 0 00-3.47-4.194 13.294 13.294 0 00-4.85-2.459 13.37 13.37 0 00-5.44-.313c-1.79.087-3.55.542-5.16 1.338a13.069 13.069 0 00-4.19 3.285 13.093 13.093 0 00-2.52 4.684c-.5 1.718-.65 3.522-.43 5.299.13 1.78.61 3.517 1.42 5.108a13.503 13.503 0 003.29 4.163 13.502 13.502 0 009.93 3.145m-37.47-.582c2.6-.263 5.06-1.282 7.09-2.931a13.326 13.326 0 004.29-6.343c.77-2.488.8-5.149.07-7.652a13.226 13.226 0 00-4.16-6.426 13.355 13.355 0 00-14.59-1.76 13.368 13.368 0 00-5.58 5.247 13.296 13.296 0 00-1.75 7.45c.1 1.787.57 3.533 1.38 5.134.8 1.602 1.92 3.025 3.28 4.184a13.354 13.354 0 009.97 3.097zm-23.27-14.153c-.13-1.78-.61-3.517-1.42-5.108a13.499 13.499 0 00-3.29-4.163 13.417 13.417 0 00-4.65-2.569c-1.7-.54-3.5-.736-5.28-.576-3.49 0-6.84 1.385-9.31 3.85a13.135 13.135 0 00-3.86 9.296c0 3.486 1.39 6.83 3.86 9.295a13.183 13.183 0 009.31 3.85c.78.078 1.57.078 2.34 0a13.362 13.362 0 009.25-4.708c1.14-1.362 2-2.94 2.53-4.64.52-1.7.7-3.488.52-5.258m-113.14 187.24h-12.45a87.907 87.907 0 00-57.52 28.336 52.856 52.856 0 01-30.74 17.381h-1.17a70.482 70.482 0 01-42.74-19.572v-.73l-2.48-1.315-23.42 22.056-3.37 2.775 2.93 2.921a86.277 86.277 0 007.17 6.719 93.634 93.634 0 0055.33 23.954c3.16.221 6.34.221 9.51 0h1.76a85.875 85.875 0 0052.4-23.37l5.12-5.842a53.307 53.307 0 0131.47-17.382h1.17a35.62 35.62 0 016.88 0v-35.931h.15zm32.78-72.444v32.864h32.79v-32.864h-32.79zm.01-.004v-32.864h-32.94v32.864h32.94zm32.78-32.864v32.864h32.93v-32.864h-32.93z"/><path d="M1222.52 154.304v32.864h32.94v-32.864h-32.94zm.15 131.748v32.864h32.93v-32.864h-32.93zm0 .135v-32.863h-32.79v32.864l32.79-.001zm65.72 0v-32.863h-32.78v32.864l32.78-.001zm-65.72 32.87h-32.79v32.718h32.79v-32.718zm32.94 0v32.718h32.78v-32.718h-32.78z"/></g><g clip-path="url(#clip3)" fill="#F29400"><path d="M112.829 273.044H98.953v.147h13.876v-.147zm44.548 0h-18.111v.147h18.111v-.147zM65.812 75.89h18.112v-.148H59.53v.147h6.28z"/><path d="M98.955 273.044h-.146v98.506h.292v.146h13.73v-98.652H98.955zm58.422 0h-18.111v98.652h18.111v-98.652zm39.885 0h-13.438v98.652h13.438v-98.652z"/><path d="M109.194 203.811c0 .731 1.168 1.171 1.168 1.317l-1.899 1.317-9.932 9.221v57.523h14.606v-49.18h26.438v49.327h18.111v-49.327h26.438v49.327h13.438v-98.945H98.969v21.516a50.815 50.815 0 0110.225 7.904z"/><path d="M216.101 371.403a29.299 29.299 0 009.202-18.588 22.702 22.702 0 00-7.303-13.32 38.086 38.086 0 01-12.124-24.59v-.732a38.369 38.369 0 010-4.098 41.756 41.756 0 0112.27-27.517l1.314-1.171 1.315 1.464 9.202 9.953a30.026 30.026 0 00-9.056 19.028 21.815 21.815 0 007.449 13.319 38.092 38.092 0 0111.539 25.322v.732a39.924 39.924 0 010 4.537 36.8 36.8 0 01-4.966 16.393h6.573a29.3 29.3 0 008.471-18.296 22.989 22.989 0 00-7.449-13.319 38.08 38.08 0 01-12.123-24.59v-.732a38.369 38.369 0 010-4.098 41.745 41.745 0 0114.022-28.542l1.314-1.171 1.169 1.464 9.348 9.953a29.297 29.297 0 00-9.056 19.028 21.824 21.824 0 007.303 14.636 37.5 37.5 0 0111.977 24.59v.732c.07 1.365.07 2.733 0 4.098a35.035 35.035 0 01-4.966 16.394h7.595a30.037 30.037 0 008.326-18.296 22.699 22.699 0 00-7.303-13.32 37.35 37.35 0 01-12.123-24.59v-.732a38.369 38.369 0 010-4.098 41.75 41.75 0 0113.145-28.688c.731 0 1.169-1.025 1.169-1.171l1.168 1.464 9.348 9.953a30.033 30.033 0 00-8.91 19.028 22.257 22.257 0 007.304 13.319 37.647 37.647 0 0112.123 24.59v.732c.07 1.365.07 2.733 0 4.098a36.8 36.8 0 01-4.966 16.393h7.449v-97.92h-98.3v98.652h18.258l.292-.293zm59.732-294.636a29.295 29.295 0 00-8.325 18.15 22.543 22.543 0 007.449 13.465 37.798 37.798 0 0111.977 24.59v.732a37.347 37.347 0 010 4.098 41.75 41.75 0 01-13.584 27.664l-1.168 1.317-1.169-1.463-9.348-10.1a29.297 29.297 0 009.056-19.028 22.996 22.996 0 00-7.303-13.466 38.078 38.078 0 01-12.123-24.59v-.731a35.766 35.766 0 015.696-21.516h-26.437l.876 1.024a30.324 30.324 0 00-8.325 18.15 22.559 22.559 0 007.449 13.466 37.794 37.794 0 0111.977 24.59v.731a37.365 37.365 0 010 4.099 41.75 41.75 0 01-13.584 27.517l-1.168 1.317-1.169-1.463-9.348-10.1a29.297 29.297 0 009.056-19.028 22.996 22.996 0 00-7.303-13.466 38.078 38.078 0 01-12.123-24.59v-.731a32.251 32.251 0 015.55-21.516h-14.606v98.652h34.471c0-3.494 1.385-6.845 3.85-9.315a13.133 13.133 0 019.295-3.858c3.487 0 6.83 1.388 9.296 3.858a13.187 13.187 0 013.85 9.315h37.684V75.742h-21.325l.876 1.025zM259.045 48.37a15.97 15.97 0 00-3.356-8.637 15.924 15.924 0 00-7.581-5.31 15.89 15.89 0 00-9.247-.19 15.915 15.915 0 00-7.793 4.992 15.978 15.978 0 00-2.08 17.615 15.94 15.94 0 006.415 6.677 15.893 15.893 0 0019.87-3.56 15.974 15.974 0 003.772-11.588zM238.88 11.632a15.97 15.97 0 00-3.29-8.682 15.92 15.92 0 00-7.557-5.376 15.888 15.888 0 00-9.264-.248 15.917 15.917 0 00-7.833 4.965 15.979 15.979 0 00-2.136 17.64 15.936 15.936 0 006.419 6.699 15.892 15.892 0 009.054 1.98 15.91 15.91 0 0010.781-5.485 15.981 15.981 0 003.826-11.493zm44.835.001a16.02 16.02 0 00-1.631-6.021 15.975 15.975 0 00-9.209-8.04 15.927 15.927 0 00-12.185.84 15.992 15.992 0 00-8.816 15.417 16.001 16.001 0 005.437 10.96 15.937 15.937 0 0022.516-1.553 16.012 16.012 0 003.888-11.603zM112.828 421.317a30.46 30.46 0 003.651 0 32.69 32.69 0 0021.617-10.539 20.292 20.292 0 0111.831-6.586 26.557 26.557 0 0116.067 7.465l8.764-8.197 1.315-1.025-1.169-1.024a36.919 36.919 0 00-23.516-11.563h-4.236a33.128 33.128 0 00-21.617 10.685 19.564 19.564 0 01-11.831 6.44 27.001 27.001 0 01-14.606-7.319v17.125a30.758 30.758 0 0013.73 3.952"/><path d="M140.574 422.05a10.38 10.38 0 007.07 9.105 10.351 10.351 0 0011.103-3.047 10.398 10.398 0 002.458-5.501 10.428 10.428 0 00-1.003-5.943 10.385 10.385 0 00-4.126-4.385 10.359 10.359 0 00-14.999 5.735 10.424 10.424 0 00-.503 4.036zM79.228 191.077h-1.46a37.659 37.659 0 00-24.393 12.002 21.457 21.457 0 01-13.292 7.319 29.183 29.183 0 01-19.28-8.343l-9.932 9.367-1.46 1.171 1.168 1.171a40.868 40.868 0 0026.583 12.881h4.82a38.094 38.094 0 0024.392-12.003 22.494 22.494 0 0112.854-8.05 29.186 29.186 0 0118.112 8.343l11.1-8.489 1.461-1.171-1.168-1.317a50.811 50.811 0 00-10.225-7.904 35.876 35.876 0 00-16.359-4.977h-2.921zM37.762 245.53c.213 3.106 1.648 6 3.99 8.044a11.7 11.7 0 008.498 2.861 11.706 11.706 0 008.028-3.999 11.753 11.753 0 00-1.137-16.56 11.68 11.68 0 00-12.908-1.661 11.742 11.742 0 00-6.471 11.315zm61.35-169.79h22.056v-1.025a69.284 69.284 0 000-9.514v-2.196A87.891 87.891 0 0092.685 5.921 51.988 51.988 0 0175.45-24.816v-1.317a70.468 70.468 0 0119.572-42.593h.73c.731 0 1.17-1.025 1.17-1.171l-21.91-24.736L72.09-98l-3.068 2.927a98.439 98.439 0 00-30.38 62.5 68.344 68.344 0 000 9.514v1.756A88.768 88.768 0 0067.123 36.22a53.308 53.308 0 0117.382 31.469v1.17c.15 2.291.15 4.59 0 6.88h14.606v52.839-52.839z"/><path d="M183.529 75.74a2.491 2.491 0 010-1.025 69.282 69.282 0 000-9.514v-2.196a88.769 88.769 0 00-28.337-57.084 53.012 53.012 0 01-17.527-30.737v-1.903a69.735 69.735 0 0119.718-42.007h.731s1.022-1.025 1.022-1.171l-21.471-24.736L134.598-98l-2.922 2.927a97.709 97.709 0 00-30.527 62.5 68.654 68.654 0 000 9.514 7.268 7.268 0 000 1.756 87.898 87.898 0 0028.044 57.523 53.31 53.31 0 0117.382 31.469v1.17a52.072 52.072 0 01-.731 6.88h37.685zm85.597 344.109a21.977 21.977 0 00-4.513-11.905 21.906 21.906 0 00-10.348-7.392 21.866 21.866 0 00-12.702-.392 21.904 21.904 0 00-10.783 6.74 21.986 21.986 0 00-3.161 24.168 21.936 21.936 0 008.685 9.297 21.873 21.873 0 0027.453-4.55 21.994 21.994 0 005.369-15.966zM.944 470.051H41.55v-75.819h15.775v75.965h41.773v-98.506H.652v1.171l.292 97.189zm31.988-36.153a10.409 10.409 0 01-1.35 5.873 10.383 10.383 0 01-4.376 4.135 10.359 10.359 0 01-11.42-1.457 10.4 10.4 0 01-3.04-11.127 10.395 10.395 0 013.471-4.922 10.353 10.353 0 015.614-2.162 10.209 10.209 0 0110.078 5.708c.602 1.235.95 2.579 1.023 3.952zm52.144 0a10.413 10.413 0 01-2.513 7.57 10.382 10.382 0 01-7.127 3.554 10.503 10.503 0 01-7.328-2.669 10.544 10.544 0 01-3.48-6.991 10.418 10.418 0 012.513-7.57 10.37 10.37 0 017.127-3.554 10.209 10.209 0 0110.077 5.708c.602 1.235.95 2.579 1.023 3.952"/><path d="M31.77 294.121v78.014h15.044v-78.014H31.77zm-22.504 0v78.014H24.31v-78.014H9.266zm44.988 0v78.014h15.044v-78.014H54.254zm21.34 0v78.014h15.044v-78.014H75.594zm156.283-44.79a13.338 13.338 0 004.211 9.793 13.292 13.292 0 0010.032 3.557 13.3 13.3 0 0011.881-9.815c.477-1.772.583-3.623.313-5.438a13.045 13.045 0 00-4.623-9.345 12.984 12.984 0 00-9.983-2.95 13.426 13.426 0 00-9.271 4.71 13.483 13.483 0 00-3.145 9.927m.584-37.468a13.34 13.34 0 002.931 7.085 13.268 13.268 0 0020.421.199 13.336 13.336 0 00-3.487-20.164 13.268 13.268 0 00-16.768 2.912 13.317 13.317 0 00-2.564 4.667 13.355 13.355 0 00-.533 5.301zm14.152-23.273a13.427 13.427 0 009.27-4.71 13.47 13.47 0 003.145-9.927c0-3.494-1.385-6.844-3.85-9.315a13.135 13.135 0 00-9.296-3.858c-3.486 0-6.83 1.388-9.295 3.858a13.189 13.189 0 00-3.85 9.315 11.75 11.75 0 000 2.342 13.327 13.327 0 004.708 9.243 13.287 13.287 0 009.898 3.052M59.519 75.885V63.443A87.889 87.889 0 0031.183 5.921a52.865 52.865 0 01-17.381-30.737v-1.17a70.468 70.468 0 0119.572-42.74h.73l1.315-2.489-22.056-23.418L10.588-98l-2.921 2.927A87.745 87.745 0 00.948-87.9a93.625 93.625 0 00-23.954 55.328 68.344 68.344 0 000 9.514v1.756a85.855 85.855 0 0023.37 52.4l5.842 5.123A53.307 53.307 0 0123.588 67.69v1.17a35.485 35.485 0 010 6.88h35.931v.146zm72.443 32.787H99.098v32.786h32.864v-32.786zm.003.003h32.864V75.742h-32.864v32.933zm32.864 32.782h-32.864v32.933h32.864v-32.933z"/><path d="M197.692 108.523h-32.864v32.933h32.864v-32.933zm-131.746.149H33.082v32.933h32.864v-32.933zm-.137-.003h32.864V75.883H65.809v32.786zm.004 65.724h32.864v-32.787H65.811v32.787zM32.94 108.669V75.883H.224v32.786H32.94zm0 32.937H.224v32.787H32.94v-32.787z"/></g></g><defs><clipPath id="clip0"><rect width="1359" height="432" rx="50" fill="#fff"/></clipPath><clipPath id="clip1"><path fill="#fff" transform="rotate(-90 279 316)" d="M0 0h759v1587H0z"/></clipPath><clipPath id="clip2"><path fill="#fff" transform="rotate(-90 695.5 -320.5)" d="M0 0h319v667H0z"/></clipPath><clipPath id="clip3"><path fill="#fff" transform="translate(-23 -98)" d="M0 0h319v667H0z"/></clipPath></defs></svg>