<svg width="88" height="88" fill="none" xmlns="http://www.w3.org/2000/svg"><path d="M43.787 44.947a4.698 4.698 0 004.693-4.693 4.698 4.698 0 00-4.693-4.694 4.698 4.698 0 00-4.693 4.694 4.698 4.698 0 004.693 4.693zm0-7.04a2.35 2.35 0 012.347 2.347 2.35 2.35 0 01-2.347 2.347 2.35 2.35 0 01-2.347-2.347 2.35 2.35 0 012.347-2.347z" fill="#000"/><path d="M34.83 49.214a39.743 39.743 0 016.743 15.469l1.063 5.281c.11.548.59.94 1.148.942h.002c.558 0 1.038-.392 1.15-.939l1.12-5.478a39.767 39.767 0 016.776-15.429l4.225-5.846c.225-.311.284-.714.156-1.077l-4.04-11.47v-3.52c1.36-.466 2.347-1.743 2.347-3.26v-5.926a1.173 1.173 0 10-2.347 0v5.927c0 .613-.499 1.113-1.113 1.113H35.513c-.614 0-1.113-.5-1.113-1.113v-5.927a1.173 1.173 0 10-2.347 0v5.927c0 1.516.987 2.793 2.347 3.26v3.519l-4.04 11.47c-.128.363-.07.764.154 1.076l4.316 6.001zm15.996-21.867v2.347h-14.08v-2.347h14.08zm-14.422 4.694h14.765l3.626 10.297-3.866 5.348a42.097 42.097 0 00-5.97 11.76V49.64a1.173 1.173 0 10-2.346 0v9.784a42.094 42.094 0 00-5.878-11.58l-3.959-5.505 3.628-10.298zm28.362-17.458a1.17 1.17 0 001.659 0l.83-.83.829.83a1.17 1.17 0 001.659 0 1.175 1.175 0 000-1.66l-.83-.829.83-.83a1.173 1.173 0 10-1.66-1.659l-.829.83-.83-.83a1.173 1.173 0 10-1.658 1.66l.83.829-.83.83a1.173 1.173 0 000 1.659zm-40.925 4.551a1.173 1.173 0 100-2.347 1.173 1.173 0 000 2.347z" fill="#000"/><path d="M78.78 48.263a1.174 1.174 0 00-.624-1.417c-.088-.04-.953-.434-2.246-.79 2.612-3.361 2.786-7.925 2.792-8.148a1.173 1.173 0 00-.986-1.192c-.16-.025-2.637-.403-5.443.16a9.46 9.46 0 00.621-2.076c.842-5.098-2.982-9.83-3.145-10.027a1.17 1.17 0 00-1.527-.252c-.218.135-5.36 3.387-6.2 8.484-.525 3.176.74 6.189 1.857 8.114-.121 1.512-.87 8.785-4.56 16.31-3.592 7.326-8.728 12.58-15.316 15.739-6.588-3.16-11.724-8.413-15.316-15.74-3.692-7.526-4.44-14.8-4.56-16.31 1.086-1.882 2.384-4.926 1.858-8.113-.842-5.098-5.983-8.35-6.201-8.485a1.169 1.169 0 00-1.527.252c-.164.199-3.987 4.93-3.146 10.028a9.45 9.45 0 00.62 2.076c-2.805-.563-5.28-.186-5.441-.16a1.173 1.173 0 00-.986 1.192c.006.223.18 4.785 2.791 8.146-1.293.356-2.157.75-2.246.792-.534.25-.8.856-.622 1.417.059.187 1.311 4.041 4.311 6.598-.57.273-.924.482-.978.514a1.173 1.173 0 00-.47 1.475c.067.156 1.51 3.408 4.351 5.656-1.85 1.316-3.01 2.728-3.096 2.835-.37.46-.341 1.121.066 1.547.173.181 4.208 4.34 9.197 4.34.125 0 .25-.002.377-.007 4.373-.186 7.794-3.586 8.839-4.746 2.484 2.98 5.584 5.712 9.436 7.868-2.704 1.002-5.622 1.691-8.757 2.057a1.173 1.173 0 10.271 2.33c4.268-.497 7.977-1.564 11.229-3.013 3.252 1.45 6.96 2.516 11.228 3.014a1.173 1.173 0 10.272-2.33c-3.135-.367-6.053-1.056-8.757-2.058 3.852-2.156 6.952-4.888 9.436-7.868 1.045 1.16 4.466 4.56 8.838 4.746.127.006.252.008.378.008 4.99 0 9.024-4.16 9.198-4.34a1.174 1.174 0 00.065-1.548c-.087-.107-1.246-1.518-3.096-2.835 2.842-2.248 4.283-5.5 4.351-5.656a1.174 1.174 0 00-.47-1.475c-.054-.032-.409-.24-.979-.514 3-2.556 4.253-6.41 4.312-6.598zM17.426 34.417c-.48-2.903 1.081-5.828 2.008-7.258 1.338 1.057 3.755 3.325 4.235 6.229.45 2.727-.898 5.467-1.831 6.975a9.293 9.293 0 00-1.3-1.32 9.229 9.229 0 00-1.419-.955c-.919-1.212-1.491-2.446-1.693-3.67zm-5.666 4.518c1.7-.076 5.015.042 7.283 1.916 2.177 1.8 2.95 4.847 3.22 6.581a9.403 9.403 0 00-1.92-1.151c-1.84-.807-3.8-.914-5.523-.74-2.109-1.895-2.828-4.971-3.06-6.606zm.11 9.643c1.614-.543 4.835-1.331 7.53-.148 2.908 1.278 4.536 4.55 5.13 5.979a9.236 9.236 0 00-1.592-.688c-2.391-.766-4.854-.426-6.783.14-2.274-1.337-3.656-3.866-4.285-5.283zm2.879 8.308c1.543-.71 4.656-1.831 7.475-.93 3.19 1.02 5.2 4.402 5.837 5.624-1.564-.816-3.472-1.46-5.545-1.369-1.396.06-2.692.452-3.849.99-1.914-1.208-3.246-3.148-3.918-4.315zm8.136 11.991c-2.96.103-5.66-1.78-6.965-2.871 1.204-1.2 3.74-3.325 6.696-3.45 2.943-.117 5.658 1.779 6.965 2.87-1.205 1.2-3.74 3.325-6.697 3.451zm53.36-29.942c-.233 1.635-.952 4.712-3.062 6.607-1.723-.173-3.682-.067-5.522.739a9.403 9.403 0 00-1.92 1.151c.27-1.734 1.043-4.781 3.22-6.581 2.269-1.873 5.586-1.99 7.284-1.916zm-11.909-5.547c.48-2.906 2.9-5.176 4.236-6.23.928 1.424 2.488 4.34 2.006 7.26-.203 1.227-.783 2.464-1.705 3.677-.486.27-.96.579-1.407.948a9.296 9.296 0 00-1.298 1.319c-.926-1.49-2.285-4.23-1.832-6.974zm.784 35.489c-2.942-.125-5.487-2.254-6.696-3.453 1.302-1.093 4.003-2.974 6.964-2.868 2.94.125 5.485 2.251 6.695 3.451-1.308 1.093-4.026 2.965-6.963 2.87zm4.216-7.676c-1.157-.538-2.452-.931-3.848-.99-2.068-.097-3.98.552-5.55 1.373.628-1.213 2.628-4.6 5.843-5.628 2.803-.895 5.927.224 7.475.934-.669 1.166-1.996 3.1-3.92 4.311zm-4.27-7.48a9.22 9.22 0 00-1.594.69c.587-1.425 2.207-4.696 5.132-5.98 2.695-1.184 5.916-.396 7.53.148-.629 1.416-2.011 3.946-4.286 5.283-1.928-.565-4.39-.906-6.781-.141z" fill="#000"/></svg>