<svg width="88" height="88" fill="none" xmlns="http://www.w3.org/2000/svg"><path d="M71.575 32.853a3.524 3.524 0 003.52-3.52 3.524 3.524 0 00-3.52-3.52 3.524 3.524 0 00-3.52 3.52 3.524 3.524 0 003.52 3.52zm0-4.693a1.175 1.175 0 010 2.347 1.174 1.174 0 010-2.347zm-14.081-9.387a1.173 1.173 0 100-2.346 1.173 1.173 0 000 2.346zm12.764.142a1.17 1.17 0 001.659 0l.83-.83.83.83a1.17 1.17 0 001.658 0c.458-.458.458-1.2 0-1.659l-.83-.83.83-.829a1.173 1.173 0 10-1.659-1.659l-.83.83-.829-.83a1.173 1.173 0 10-1.66 1.66l.83.829-.83.83a1.173 1.173 0 000 1.658zm-9.244 22.327v-8.074a5.014 5.014 0 00-5.007-5.008H45.76V12.907c0-.649-.525-1.174-1.173-1.174h-31.68c-.648 0-1.174.525-1.174 1.174v31.68c0 .648.526 1.173 1.174 1.173h11.829a1.173 1.173 0 100-2.347H14.08V14.08h29.333v14.08H33.17a5.014 5.014 0 00-5.008 5.008v22.837a5.014 5.014 0 005.008 5.008H38a1.173 1.173 0 100-2.346h-4.83a2.664 2.664 0 01-2.661-2.662V33.168a2.664 2.664 0 012.66-2.661h22.838a2.664 2.664 0 012.661 2.661v7.899c-9.704 0-17.6 7.895-17.6 17.6 0 9.705 7.896 17.6 17.6 17.6 9.705 0 17.6-7.895 17.6-17.6 0-8.908-6.656-16.272-15.253-17.425zM58.668 73.92c-8.411 0-15.254-6.843-15.254-15.253s6.843-15.254 15.254-15.254c8.41 0 15.253 6.843 15.253 15.254 0 8.41-6.842 15.253-15.253 15.253z" fill="#000"/></svg>