<svg width="88" height="88" fill="none" xmlns="http://www.w3.org/2000/svg"><path d="M72.215 63.438v2.347a1.173 1.173 0 102.346 0v-2.347a1.173 1.173 0 10-2.346 0zm1.173 5.867c-.648 0-1.173.525-1.173 1.173v2.347a1.173 1.173 0 102.346 0v-2.347c0-.648-.524-1.173-1.173-1.173zm-2.348-2.347h-2.347a1.173 1.173 0 100 2.347h2.347a1.173 1.173 0 100-2.347zm7.039 0h-2.347a1.173 1.173 0 100 2.347h2.347a1.173 1.173 0 100-2.347zm-9.613-8.228a1.255 1.255 0 10-2.51 0 1.255 1.255 0 002.51 0zm-.351-22.574c-.669-14.137-11.464-25.578-25.11-26.613-6.942-.523-13.577 1.685-18.686 6.227-5.537 4.926-8.931 12.292-9.342 20.251L8.995 47.795a1.22 1.22 0 00-.063.148 3.31 3.31 0 00.232 2.687 3.194 3.194 0 002.071 1.568l4.48 1.03 1.252 14.202c.172 1.659 1.532 2.91 3.165 2.91.042 0 .085-.003.128-.007l9.339-1.03v8.057a1.173 1.173 0 102.346 0v-9.367a1.172 1.172 0 00-1.301-1.167L20.08 67.991c-.403-.026-.734-.362-.777-.785l-1.326-15.033a1.174 1.174 0 00-.907-1.04l-5.31-1.222a.839.839 0 01-.543-.42.965.965 0 01-.086-.72l5.912-11.636c.16-.195.253-.438.263-.694.309-7.45 3.432-14.345 8.573-18.917 4.629-4.116 10.64-6.12 16.949-5.641 12.466.946 22.33 11.43 22.943 24.384.32 6.804-1.904 13.342-6.263 18.41a11.449 11.449 0 00-2.757 7.466l-.002 15.216a1.174 1.174 0 002.348 0V62.143c0-2.186.778-4.294 2.19-5.936 4.751-5.525 7.176-12.645 6.827-20.051z" fill="#000"/><path d="M52.741 19.834a1.172 1.172 0 10-1.3 1.954 17.58 17.58 0 017.863 14.663c0 9.705-7.894 17.6-17.6 17.6-9.705 0-17.6-7.895-17.6-17.6 0-9.704 7.895-17.6 17.6-17.6 2.12 0 4.19.372 6.155 1.106a1.173 1.173 0 10.82-2.199 19.877 19.877 0 00-6.974-1.253c-11 0-19.947 8.948-19.947 19.947 0 10.998 8.948 19.946 19.947 19.946 10.998 0 19.946-8.948 19.946-19.947a19.92 19.92 0 00-8.91-16.617zm24.166.191a3.524 3.524 0 00-3.52-3.52 3.524 3.524 0 00-3.52 3.52 3.524 3.524 0 003.52 3.52 3.524 3.524 0 003.52-3.52zm-4.693 0a1.174 1.174 0 012.347 0 1.175 1.175 0 01-2.347 0z" fill="#000"/><path d="M41.137 22.52l-10.56 5.866c-.373.207-.604.6-.604 1.025v12.907c0 .426.231.819.604 1.026l10.56 5.866a1.17 1.17 0 001.138 0l10.56-5.867a1.17 1.17 0 00.604-1.025V29.411c0-.426-.231-.818-.604-1.025l-10.56-5.867a1.17 1.17 0 00-1.138 0zm.569 2.367l8.144 4.525-8.144 4.524-8.144-4.524 8.144-4.525zm-9.387 6.518l8.214 4.563v10.223l-8.214-4.563V31.405zm10.56 14.786V35.968l8.214-4.563v10.223l-8.214 4.563z" fill="#000"/></svg>