<svg width="88" height="88" fill="none" xmlns="http://www.w3.org/2000/svg"><path d="M74.75 58.667l.829-.83a1.173 1.173 0 10-1.66-1.659l-.829.83-.83-.83a1.173 1.173 0 10-1.659 1.66l.83.829-.83.83a1.173 1.173 0 101.66 1.658l.83-.83.829.83a1.17 1.17 0 001.659 0c.458-.458.458-1.2 0-1.659l-.83-.83zM54.318 75.094a1.173 1.173 0 100-2.347 1.173 1.173 0 000 2.347zM64.56 12.907h-7.895a1.173 1.173 0 100 2.346h7.896c.821 0 1.49.67 1.49 1.491V65.39c0 .822-.669 1.491-1.49 1.491H15.915c-.821 0-1.49-.669-1.49-1.49V16.743c0-.822.669-1.49 1.49-1.49h34.726a1.173 1.173 0 100-2.347H15.916a3.841 3.841 0 00-3.838 3.837V65.39a3.841 3.841 0 003.838 3.838H64.56a3.841 3.841 0 003.837-3.838V16.744a3.841 3.841 0 00-3.837-3.837z" fill="#000"/><path d="M35.545 26.987a1.173 1.173 0 10-2.346 0v5.38l-13.251-13.25a1.173 1.173 0 10-1.659 1.66l13.25 13.25h-5.38a1.173 1.173 0 100 2.346h8.213c.648 0 1.173-.524 1.173-1.173v-8.213zM55.49 46.933c0-.648-.525-1.173-1.174-1.173h-8.213c-.648 0-1.173.525-1.173 1.173v8.214a1.173 1.173 0 102.346 0v-5.381l13.25 13.25a1.17 1.17 0 001.66 0c.458-.458.458-1.2 0-1.659l-13.25-13.25h5.38c.649 0 1.174-.525 1.174-1.174zm6.696-27.816a1.173 1.173 0 00-1.66 0l-13.25 13.25v-5.38a1.173 1.173 0 10-2.346 0V35.2c0 .649.525 1.173 1.173 1.173h8.213a1.173 1.173 0 100-2.346h-5.38l13.25-13.25a1.175 1.175 0 000-1.66zM34.372 56.32c.648 0 1.173-.525 1.173-1.173v-8.214c0-.648-.525-1.173-1.173-1.173h-8.213a1.173 1.173 0 100 2.347h5.38l-13.25 13.25a1.173 1.173 0 101.659 1.66l13.25-13.251v5.38c0 .65.525 1.174 1.174 1.174z" fill="#000"/></svg>