<svg width="88" height="88" fill="none" xmlns="http://www.w3.org/2000/svg"><path d="M57.395 36.285a1.172 1.172 0 10-1.662 1.657l1.323 1.328-1.328 1.323a1.173 1.173 0 101.656 1.662l1.328-1.323 1.324 1.329a1.168 1.168 0 001.66.002c.457-.457.46-1.2.001-1.66l-1.323-1.327 1.33-1.325a1.173 1.173 0 10-1.658-1.661l-1.328 1.323-1.323-1.328zm-3.422-13.992a3.524 3.524 0 003.52-3.52 3.524 3.524 0 00-3.52-3.52 3.524 3.524 0 00-3.52 3.52 3.524 3.524 0 003.52 3.52zm0-4.693a1.174 1.174 0 11-.001 2.348 1.174 1.174 0 01.001-2.348zm14.902 13.629a1.329 1.329 0 10-.367-2.633 1.329 1.329 0 00.367 2.633zm7.39 39.171H15.798l11.182-7.04h42.245a1.173 1.173 0 100-2.346H30.707l5.609-3.532c.02.001.036.011.056.011H63.36a1.173 1.173 0 100-2.346H40.025l3.727-2.347h14.913a1.173 1.173 0 100-2.346h-14.08v-17.6c0-.582-.426-1.076-1.001-1.161l-31.68-4.694a1.173 1.173 0 00-1.345 1.16v43.414c0 .649.524 1.174 1.173 1.174h64.533a1.173 1.173 0 100-2.347zM35.2 45.268v10.144l-8.214 5.171v-13.49l8.214-1.825zm-8.214-.58V31.606l8.214 1.216v10.04l-8.214 1.826zM42.24 50.98l-4.694 2.955v-9.188l4.694-1.043v7.276zm0-9.68l-4.694 1.043V33.17l4.694.695v7.433zm-17.6-10.04v13.95l-11.734 2.608V29.521l11.734 1.737zM12.905 50.221l11.734-2.608V62.06l-11.734 7.388V50.222z" fill="#000"/></svg>