<svg width="88" height="88" fill="none" xmlns="http://www.w3.org/2000/svg"><path d="M54.528 40.48h2.571c.649 0 1.173-.525 1.173-1.173v-10.56c0-.649-.524-1.174-1.173-1.174h-28.16c-.649 0-1.173.525-1.173 1.174v10.56c0 .648.524 1.173 1.173 1.173h2.571a3.299 3.299 0 003.296-3.295v-1.398h3.52v16.427h-1.398a3.299 3.299 0 00-3.296 3.295v2.571c0 .649.525 1.174 1.174 1.174h16.426c.649 0 1.174-.525 1.174-1.174v-2.57a3.299 3.299 0 00-3.296-3.295h-1.398V35.787h3.52v1.398a3.299 3.299 0 003.296 3.295zM35.979 55.51a.95.95 0 01.949-.949h2.571c.648 0 1.173-.525 1.173-1.173V34.614c0-.65-.524-1.174-1.173-1.174h-5.867c-.648 0-1.173.525-1.173 1.174v2.57a.95.95 0 01-.949.95h-1.398V29.92h11.734v26.987h-5.867v-1.398zm10.56-22.069c-.649 0-1.173.525-1.173 1.174v18.773c0 .648.524 1.173 1.173 1.173h2.571a.95.95 0 01.949.949v1.398h-5.867V29.92h11.734v8.213h-1.398a.95.95 0 01-.949-.948v-2.572c0-.648-.525-1.173-1.173-1.173h-5.867zM59.446 65.12a3.524 3.524 0 003.52-3.52 3.524 3.524 0 00-3.52-3.52 3.524 3.524 0 00-3.52 3.52 3.524 3.524 0 003.52 3.52zm0-4.693a1.174 1.174 0 11-.002 2.348 1.174 1.174 0 01.002-2.348zM76.51 44.424a1.329 1.329 0 10-.003 2.658 1.329 1.329 0 00.004-2.658zm-20.1 4.846a1.329 1.329 0 102.658.005 1.329 1.329 0 00-2.658-.005z" fill="#000"/><path d="M13.163 22.88h1.694V61.6a1.173 1.173 0 102.347 0V22.88H18.9a3.002 3.002 0 002.998-2.999v-1.694h42.24v1.694a3.002 3.002 0 003 3h5.735a3.002 3.002 0 002.999-3v-5.736a3.002 3.002 0 00-2.999-2.998h-5.736a3.002 3.002 0 00-2.999 2.998v1.695h-42.24v-1.694a3.002 3.002 0 00-2.998-3h-5.736a3.002 3.002 0 00-2.999 3v5.736a3.002 3.002 0 002.999 2.998zm53.321-8.734c0-.36.292-.653.652-.653h5.736c.36 0 .652.293.652.652v5.737c0 .36-.292.652-.652.652h-5.736a.652.652 0 01-.652-.652v-5.737zm-53.973 0c0-.36.292-.653.652-.653h5.736c.36 0 .652.293.652.652v5.737c0 .36-.292.652-.652.652h-5.736a.652.652 0 01-.652-.652v-5.737z" fill="#000"/><path d="M72.872 65.12h-1.695V26.4a1.173 1.173 0 10-2.346 0v38.72h-1.695a3.002 3.002 0 00-2.999 2.999v1.695h-42.24v-1.695A3.002 3.002 0 0018.9 65.12h-5.736a3.002 3.002 0 00-2.999 2.999v5.736a3.002 3.002 0 002.999 2.999H18.9a3.002 3.002 0 002.999-2.999V72.16h42.24v1.695a3.002 3.002 0 002.998 2.998h5.737a3.002 3.002 0 002.998-2.998v-5.736a3.003 3.003 0 00-2.999-2.999zm-53.321 8.735c0 .36-.292.652-.652.652h-5.736a.652.652 0 01-.652-.652v-5.736c0-.36.292-.653.652-.653h5.736c.36 0 .652.293.652.653v5.736zm53.973 0c0 .36-.292.652-.652.652h-5.736a.652.652 0 01-.652-.652v-5.736c0-.36.292-.653.652-.653h5.736c.36 0 .652.293.652.653v5.736z" fill="#000"/></svg>