<svg width="88" height="88" fill="none" xmlns="http://www.w3.org/2000/svg"><path d="M62.822 23.348a1.329 1.329 0 10-2.104-1.624 1.329 1.329 0 002.104 1.624zm.488 44.077a2.152 2.152 0 102.41 3.565 2.152 2.152 0 00-2.41-3.565zM40.439 19.536a1.173 1.173 0 100-2.347 1.173 1.173 0 000 2.347zm-28.522 6.227a3.61 3.61 0 002.757.271 3.597 3.597 0 002.143-1.756 3.599 3.599 0 00.272-2.757 3.599 3.599 0 00-1.757-2.142 3.595 3.595 0 00-2.756-.273 3.6 3.6 0 00-2.142 1.757 3.594 3.594 0 00-.273 2.757 3.6 3.6 0 001.756 2.143zm.586-3.793a1.265 1.265 0 011.123-.673 1.269 1.269 0 011.216.904 1.27 1.27 0 01-.848 1.587 1.27 1.27 0 01-1.491-1.818z" fill="#000"/><path d="M78.898 41.091c-4.31-5.325-9.62-9.518-15.529-12.393l7.44-9.708a1.173 1.173 0 00-.215-1.642L59.45 8.741a1.175 1.175 0 00-1.649.214l-3.498 4.565c-.026.028-.061.043-.085.074-.025.032-.03.07-.051.104l-8.113 10.59a44.202 44.202 0 00-2.053-.059c-1.794 0-3.572.116-5.33.33l-5.592-8.036a5.14 5.14 0 00-.188-5.415c-1.587-2.344-4.785-2.962-7.124-1.375a5.094 5.094 0 00-2.165 3.276 5.097 5.097 0 00.788 3.848 5.138 5.138 0 004.25 2.249h.036l3.95 6.627C23.52 28.159 15.284 33.457 9.105 41.09a1.172 1.172 0 000 1.476 45.81 45.81 0 0014.038 11.621l-10.726 14a1.173 1.173 0 00.214 1.642l11.143 8.607a1.168 1.168 0 00.868.235c.31-.04.59-.202.78-.449L39.977 59.23c1.333.122 2.674.2 4.025.2 1.763 0 3.512-.132 5.247-.339 1.683 2.865 3.495 4.303 4.774 5.01a3.316 3.316 0 00.156 3.44 3.305 3.305 0 004.307 1.069l.104 3.845c.01.387.212.745.538.955l9.191 5.909a1.17 1.17 0 001.292-.015l2.377-1.608c.388-.262.583-.732.495-1.192l-2.06-10.73a1.172 1.172 0 00-.715-.867l-3.602-1.445a3.32 3.32 0 00.713-4.469 3.308 3.308 0 00-2.593-1.446c-.057-.697-.24-1.62-.655-2.706a44.842 44.842 0 004.845-2.75 46.114 46.114 0 0010.483-9.523 1.173 1.173 0 000-1.476zM52.814 19.325l2.055 1.587a1.17 1.17 0 001.645-.211 1.172 1.172 0 00-.211-1.645l-2.062-1.593 1.14-1.488 1.834 1.417a1.17 1.17 0 001.646-.211 1.172 1.172 0 00-.211-1.645l-1.842-1.424 2.14-2.794 9.287 7.173-7.06 9.213a44.164 44.164 0 00-12.326-3.205l3.965-5.174zm4.64 9.474a18.62 18.62 0 015.221 11.857h-7.042c-.591-5.92-5.6-10.56-11.674-10.56s-11.083 4.64-11.674 10.56h-7.043a18.63 18.63 0 015.189-11.82 41.806 41.806 0 0113.57-2.26c4.63 0 9.163.767 13.453 2.223zm-4.108 13.03c0 5.176-4.211 9.387-9.387 9.387s-9.387-4.21-9.387-9.387c0-5.176 4.211-9.386 9.387-9.386s9.387 4.21 9.387 9.386zM30.318 17.275a1.17 1.17 0 00-1.206-.556 2.797 2.797 0 01-2.778-1.177 2.769 2.769 0 01-.426-2.087 2.766 2.766 0 011.174-1.778 2.79 2.79 0 013.866.745 2.789 2.789 0 01-.193 3.348 1.172 1.172 0 00-.066 1.426l5.4 7.756c-.358.064-.713.14-1.068.214l-4.703-7.89zM11.54 41.83c4.083-4.83 9.05-8.627 14.55-11.227a20.916 20.916 0 00-3.194 10.054h-7.097a1.173 1.173 0 100 2.346h7.097a20.915 20.915 0 003.193 10.054c-5.498-2.6-10.466-6.397-14.549-11.227zm12.736 34.032l-9.286-7.173 2.855-3.726 2.805 2.166a1.17 1.17 0 001.645-.21 1.172 1.172 0 00-.211-1.646L19.272 63.1l1.428-1.864 1.89 1.46a1.17 1.17 0 001.646-.21 1.172 1.172 0 00-.211-1.646l-1.898-1.466 3.153-4.115c3.795 1.772 7.826 3 11.992 3.641L24.276 75.86zm6.155-21.039a18.629 18.629 0 01-5.188-11.82h7.043c.59 5.921 5.6 10.56 11.673 10.56 6.074 0 11.083-4.639 11.674-10.56h7.043a18.615 18.615 0 01-5.194 11.825 41.797 41.797 0 01-13.48 2.256c-4.673 0-9.246-.778-13.57-2.26zm39.6 21.363l-1.094.74-8.018-5.155-.126-4.69 2.993-2.023 4.453 1.787 1.792 9.34zm-5.42-14.52l-7.13 4.823a.98.98 0 01-1.096-1.622l7.131-4.821a.97.97 0 01.733-.15.97.97 0 01.625.41.98.98 0 01-.262 1.36zm-2.709-3.362l-6.032 4.078c-.627-.225-2.34-1.053-4.091-3.668a44.107 44.107 0 006.814-1.787l.001-.001c.96-.336 1.907-.705 2.843-1.108.44 1.205.481 2.079.465 2.486zm5.222-8.173a42.46 42.46 0 01-5.328 2.985 20.92 20.92 0 003.226-10.113h7.097a1.173 1.173 0 100-2.346h-7.097a20.914 20.914 0 00-3.225-10.11c5.545 2.6 10.554 6.419 14.666 11.283a43.74 43.74 0 01-9.339 8.3z" fill="#000"/><path d="M43.958 34.79c-1.003 0-1.99.22-2.932.653a1.174 1.174 0 00-.64 1.382c.036.127.052.225.052.311 0 .647-.526 1.173-1.173 1.173-.086 0-.185-.016-.311-.051a1.17 1.17 0 00-1.382.64 6.97 6.97 0 00-.654 2.931 7.048 7.048 0 007.04 7.04 7.048 7.048 0 007.04-7.04 7.048 7.048 0 00-7.04-7.04zm0 11.733a4.698 4.698 0 01-4.693-4.694c0-.395.052-.788.157-1.176a3.525 3.525 0 003.36-3.36 4.533 4.533 0 011.176-.157 4.698 4.698 0 014.693 4.693 4.698 4.698 0 01-4.693 4.694z" fill="#000"/></svg>