<svg width="1920" height="2577" fill="none" xmlns="http://www.w3.org/2000/svg"><path fill-rule="evenodd" clip-rule="evenodd" d="M1629.67 621.455c-.43 12.452-3.13 24.541-9.17 36.094l9.17-36.094zm-8.53-53.632c2.56 8.802 4.77 17.549 6.31 26.189l-21.11 83.652c-5.77 6.383-12.32 12.059-19.48 17.074l34.28-126.915zm-12.71-39.657c1.22 3.747 2.46 7.498 3.7 11.249 1.59 4.812 3.18 9.624 4.72 14.428l-38.02 146.107c-6.27 3.761-12.91 7.08-19.81 9.983l49.41-181.767zm-13.53-49.415c1.11 3.536 2.07 7.139 2.82 10.831 1.12 5.504 2.49 11.047 4.03 16.617l-60.74 210.222a213.512 213.512 0 01-12.25 3.327l66.14-240.997zm-15.13-36.036c.97 2.144 1.96 4.282 2.95 6.421 1.89 4.083 3.78 8.168 5.58 12.299l-67.64 260.101a242.159 242.159 0 01-17.47 2.852l76.58-281.673zm-13.11-41.128c.11.958.24 1.913.38 2.865 1.27 8.418 3.7 16.358 6.68 24.078l-81.94 297.037c-2.63.213-5.27.384-7.89.516l82.77-324.496zm8.62-105.509c1.88 11.266.88 23.348-1.03 35.79l-99.97 394.52c-3.68.049-7.33.019-10.93-.086-1.4-.041-2.79-.107-4.18-.198l116.11-430.026zm-15.77-30.72a78.635 78.635 0 015.33 6.228 51.192 51.192 0 014.46 6.811l-116.12 447.157c-6.11-.719-12.06-1.908-17.89-3.494l124.22-456.702zm-21.97-16.849c5.27 2.931 10.22 6.291 14.77 10.094l-132.42 458.285a169.633 169.633 0 01-9.73-4.239l127.38-464.14zm-22.84-9.586c3.54 1.072 7.02 2.29 10.4 3.658l-121.41 466.861c-4.95-2.566-9.83-5.349-14.65-8.294l125.66-462.225zm-24.01-4.969c5.95.706 11.85 1.771 17.62 3.207l-126.88 459.193a399.057 399.057 0 01-7.07-4.7l116.33-457.7zm-17.51-1.052c2.65.007 5.31.083 7.96.228l-114.36 453.269c-4.51-3.18-8.99-6.431-13.46-9.705l119.86-443.792zm-23.49 1.754c4.19-.647 8.45-1.118 12.76-1.408l-114.39 439.583c-.57-.412-1.13-.825-1.69-1.238-4.29-3.157-8.58-6.313-12.89-9.425l116.21-427.512zm-29.05 9.369c5.27-3.092 10.98-5.506 17.28-7.038.73-.18 1.48-.355 2.22-.523l-120.23 416.114c-.71-.485-1.42-.968-2.13-1.447a301.044 301.044 0 00-7.52-4.923l110.38-402.183zm-34.68 34.2c5.58-7.384 11.3-14.471 17.55-20.69l-99.99 384.489c-4.66-2.827-9.4-5.606-14.19-8.374l96.63-355.425zm-36.86 44.986c7.99-7.255 15-15.758 21.7-24.569l-90.91 329.568c-2.49-1.439-4.99-2.881-7.48-4.332l76.69-300.667zm-36.22 26.033c3.98-2.504 7.96-5.029 11.89-7.63l-68.98 272.227c-4.16-2.624-8.23-5.31-12.17-8.085l69.26-256.512zm-32.75 21.994c5.95-4.64 12.23-8.913 18.65-13.065l-62.83 241.932c-5.2-4.027-10.11-8.258-14.6-12.766l58.78-216.101zM1234 427.766c3.92-5.822 7.9-11.571 11.83-17.24 3.06-4.413 6.08-8.779 9.02-13.093a95.81 95.81 0 013.45-4.751l-51.16 177.031c-3.1-4.94-5.72-10.199-7.75-15.834L1234 427.766zm-39.56 97.931c-.15-19.018 5.7-37.679 14.52-55.823l-14.52 55.823z" fill="#C9DF55"/><path fill-rule="evenodd" clip-rule="evenodd" d="M1102.23 552.776c-36.11-35.906-52.8-93.26-41.92-143.004 10.43-47.701 59.04-74.013 96.28-105.593 29.87-25.328 60.73-47.572 98.11-59.247 38.7-12.087 77.91-11.248 118.35-8.361 58.3 4.161 137.29-20.508 168.6 28.846 31.45 49.586-29.76 109.145-45.12 165.821-11.14 41.104-6.43 86.61-32.42 120.341-26.29 34.112-66.53 56.336-109.04 63.216-40.04 6.48-76.22-17.197-115.61-26.859-47.01-11.532-102.91-1.027-137.23-35.16z" fill="#CE3B65"/><path fill-rule="evenodd" clip-rule="evenodd" d="M305.233 557.628c-37.855 34.056-96.047 47.537-145.11 33.914-47.048-13.064-70.62-63.06-100.084-101.997-23.63-31.227-44.127-63.272-53.709-101.243-9.92-39.31-6.905-78.421-1.777-118.638C11.945 211.689-8.3 131.45 42.715 102.934c51.256-28.651 107.324 35.773 163.061 54.253 40.422 13.403 86.119 11.226 118.355 39.054 32.6 28.143 52.555 69.551 57.065 112.381 4.246 40.331-21.403 75.147-33.237 113.937-14.124 46.3-6.739 102.694-42.726 135.069zM1679.23 1160.78c-36.11-35.91-52.8-93.26-41.92-143.01 10.43-47.699 59.04-74.011 96.28-105.591 29.87-25.327 60.73-47.572 98.11-59.247 38.7-12.087 77.91-11.248 118.35-8.361 58.3 4.161 137.29-20.508 168.6 28.846 31.45 49.586-29.76 109.145-45.12 165.823-11.14 41.1-6.43 86.61-32.42 120.34-26.29 34.11-66.53 56.34-109.04 63.22-40.04 6.47-76.22-17.2-115.61-26.86-47.01-11.54-102.91-1.03-137.23-35.16z" fill="#67BAC3"/><path fill-rule="evenodd" clip-rule="evenodd" d="M1271 2130c43.32 3.17 55.93 54.7 97.49 63.75 49.53 10.78 113.44-34.88 153.35-9.14 37.76 24.34 31.36 78.7 18.9 120.19-11.55 38.5-55.84 62.34-83.59 95.42-31.78 37.87-37.93 106.85-90.57 112.17-56.26 5.68-66.87-69.89-114.69-91.44-37.26-16.79-90.69 4.43-124.72-16.43-41.71-25.57-81.18-63.27-79.6-108.82 1.61-46.11 44.8-87.34 87.53-119.03 38.25-28.37 87.9-50.18 135.9-46.67zm141.58-519.33c-19.26 17.2-46.5 1.3-67.54 15.32-25.09 16.72-31.98 62.91-59.48 69.34-26.01 6.08-46.61-19.13-59.2-41.6-11.68-20.85-3.56-49.64-6.23-75.18-3.06-29.23-30.01-60.38-10.53-85.07 20.83-26.41 57.52.3 86.5-11.24 22.58-8.99 35.59-40.6 58.58-46.53 28.17-7.26 60.59-8.55 79.41 10.95 19.05 19.75 18.83 55.25 14.71 86.62-3.68 28.08-14.88 58.32-36.22 77.39z" fill="#C9DF55"/><path fill-rule="evenodd" clip-rule="evenodd" d="M541.669 2022.46c-.426 12.45-3.124 24.54-9.174 36.09l9.174-36.09zm-8.528-53.64c2.558 8.81 4.768 17.55 6.305 26.19l-21.106 83.65c-5.771 6.39-12.325 12.06-19.478 17.08l34.279-126.92zm-12.711-39.65c1.215 3.74 2.456 7.49 3.696 11.25 1.591 4.81 3.182 9.62 4.721 14.42l-38.02 146.11c-6.269 3.76-12.905 7.08-19.805 9.98l49.408-181.76zm-13.53-49.42c1.108 3.54 2.066 7.14 2.82 10.83 1.123 5.51 2.494 11.05 4.029 16.62l-60.743 210.22a210.253 210.253 0 01-12.248 3.33l66.142-241zm-15.135-36.03c.976 2.14 1.966 4.28 2.956 6.42 1.89 4.08 3.782 8.16 5.579 12.3l-67.642 260.1a247.224 247.224 0 01-17.473 2.85l76.58-281.67zm-13.105-41.13c.11.96.236 1.91.379 2.86 1.27 8.42 3.698 16.36 6.679 24.08l-81.935 297.04c-2.637.21-5.268.38-7.889.51l82.766-324.49zm8.622-105.51c1.876 11.26.879 23.35-1.031 35.79l-99.97 394.52c-3.681.05-7.329.02-10.933-.09-1.4-.04-2.792-.1-4.176-.2l116.11-430.02zm-15.77-30.72a79.124 79.124 0 015.333 6.23 51.972 51.972 0 014.458 6.81l-116.124 447.15c-6.104-.71-12.061-1.9-17.893-3.49l124.226-456.7zm-21.967-16.85c5.261 2.93 10.214 6.29 14.765 10.09l-132.421 458.29a171.196 171.196 0 01-9.727-4.24l127.383-464.14zm-22.84-9.59c3.537 1.07 7.011 2.29 10.4 3.66l-121.412 466.86c-4.949-2.56-9.829-5.35-14.656-8.29l125.668-462.23zm-24.018-4.97c5.954.71 11.856 1.78 17.624 3.21L293.43 2097.35c-2.366-1.53-4.721-3.1-7.068-4.7l116.325-457.7zm-17.503-1.05c2.65.01 5.305.08 7.959.23L278.782 2087.4c-4.507-3.18-8.99-6.43-13.464-9.71l119.866-443.79zm-23.494 1.76c4.189-.65 8.452-1.12 12.756-1.41l-114.391 439.58c-.561-.41-1.122-.82-1.684-1.24-4.292-3.15-8.583-6.31-12.886-9.42l116.205-427.51zm-29.048 9.37c5.272-3.1 10.982-5.51 17.273-7.04.74-.18 1.483-.36 2.23-.53l-120.236 416.12a297.368 297.368 0 00-9.646-6.37l110.379-402.18zm-34.68 34.2c5.58-7.39 11.296-14.48 17.546-20.7l-99.991 384.49c-4.652-2.82-9.401-5.6-14.186-8.37l96.631-355.42zm-36.86 44.98c7.989-7.25 15.002-15.76 21.698-24.57l-90.908 329.57c-2.497-1.44-4.992-2.88-7.478-4.33l76.688-300.67zm-36.221 26.03c3.977-2.5 7.954-5.02 11.887-7.63l-68.981 272.23a293.508 293.508 0 01-12.165-8.08l69.259-256.52zm-32.748 22c5.948-4.64 12.227-8.92 18.646-13.07l-62.828 241.94c-5.206-4.03-10.111-8.26-14.599-12.77l58.781-216.1zM146 1828.77c3.92-5.83 7.902-11.57 11.83-17.24 3.057-4.42 6.082-8.78 9.017-13.1a99.041 99.041 0 013.449-4.75l-51.153 177.03c-3.104-4.94-5.721-10.2-7.755-15.83L146 1828.77zm-39.558 97.93c-.154-19.02 5.701-37.68 14.517-55.83l-14.517 55.83z" fill="#476FB2"/><path fill-rule="evenodd" clip-rule="evenodd" d="M364.952 1937.95c-26.468 34.43-76.441 16.63-106.853 46.36-36.248 35.44-33.265 113.92-76.712 133.11-41.095 18.14-82.972-17.1-110.779-50.32-25.798-30.82-21.35-80.93-33.713-122.3-14.154-47.36-68.38-90.45-43.874-137.33 26.2-50.12 95.149-17.41 139.443-45.5 34.518-21.89 46.183-78.17 82.326-95.12 44.295-20.78 97.481-33.01 134.654-6.63 37.627 26.7 48.31 85.45 51.276 138.56 2.655 47.55-6.435 101.01-35.768 139.17zM912.626 867.397c12.136-2.821 24.511-3.353 37.238-.509l-37.238.509zm-49.581 22.155c7.837-4.754 15.711-9.159 23.656-12.886l86.263-1.329c7.662 3.917 14.844 8.773 21.544 14.379l-131.463-.164zm-34.998 22.569a2123.75 2123.75 0 009.904-6.49c4.234-2.785 8.469-5.571 12.708-8.304l150.971-1.204c5.26 5.078 10.18 10.625 14.78 16.535l-188.363-.537zm-44.21 25.891a109.185 109.185 0 019.728-5.534c5.023-2.514 10.021-5.276 15.002-8.204l218.783 4.099a209.36 209.36 0 016.39 10.964l-249.903-1.325zm-30.873 23.969c1.817-1.498 3.625-3.009 5.434-4.521 3.452-2.885 6.907-5.772 10.429-8.58l268.743-2.184a242.84 242.84 0 017.29 16.134l-291.896-.849zm-36.317 23.331a80.959 80.959 0 002.668-1.11c7.8-3.411 14.838-7.816 21.52-12.699l308.125 2.032a239.85 239.85 0 012.54 7.485l-334.853 4.292zm-104.131 19.058c10.393-4.735 22.319-6.909 34.831-8.293l406.943-5.853c1.01 3.542 1.92 7.074 2.76 10.586a119 119 0 01.89 4.08l-445.424-.52zm-25.575 23.2a81.3 81.3 0 014.631-6.76 52.715 52.715 0 015.42-6.08l461.978-3.91c.89 6.08 1.28 12.14 1.27 18.19l-473.299-1.44zm-10.57 25.59c1.466-5.84 3.425-11.5 5.916-16.88l476.953 8.94c-.41 3.5-.94 7-1.57 10.49l-481.299-2.55zm-3.329 24.55c.117-3.7.392-7.37.833-11l482.375-3.92c-1.19 5.45-2.62 10.88-4.21 16.31l-478.998-1.39zm1.435 24.48a142.67 142.67 0 01-1.477-17.85l476.39 3.35c-.87 2.68-1.78 5.36-2.71 8.04l-472.203 6.46zm3.527 17.18c-.681-2.56-1.297-5.15-1.846-7.75l467.422-7.2c-1.9 5.18-3.88 10.35-5.88 15.52l-459.696-.57zm7.791 22.23a149.908 149.908 0 01-4.67-11.95l454.205-3.63c-.25.65-.5 1.3-.76 1.95-1.93 4.97-3.86 9.93-5.75 14.89l-443.025-1.26zm16.588 25.62c-4.355-4.29-8.168-9.18-11.28-14.85-.366-.67-.728-1.34-1.084-2.02l433.061 8.11c-.29.81-.57 1.62-.85 2.43-.97 2.81-1.9 5.66-2.8 8.54l-417.047-2.21zm42.029 24.62c-8.58-3.48-16.907-7.16-24.536-11.58l397.264-3.23c-1.52 5.23-2.97 10.54-4.4 15.88l-368.328-1.07zm53.01 23.92c-9.079-5.84-19.111-10.4-29.357-14.58l341.865 2.25c-.74 2.79-1.48 5.57-2.24 8.35l-310.268 3.98zm34.542 28.22c-3.45-3.19-6.92-6.38-10.453-9.5l280.799-4.04c-1.45 4.69-2.991 9.32-4.647 13.85l-265.699-.31zm29.741 25.92c-6.025-4.54-11.782-9.5-17.457-14.62l249.948-2.12c-2.538 6.08-5.351 11.91-8.54 17.42l-223.951-.68zm66.564 29.88c-6.64-2.28-13.225-4.63-19.719-6.95-5.056-1.81-10.057-3.6-14.985-5.31a97.383 97.383 0 01-5.484-2.1l184.241 3.45c-3.965 4.28-8.364 8.17-13.278 11.6l-130.775-.69zm104.842 12.78c-18.326 5.09-37.867 4.28-57.678.47l57.678-.47z" fill="#EFC825"/><path fill-rule="evenodd" clip-rule="evenodd" d="M725.588 959.478c52.468-26.254 102.147-79.68 158.93-64.955 55.995 14.52 91.162 76.949 104.553 133.287 12.949 54.46-16.539 107.17-34.815 160.08-17.87 51.73-22.364 117.46-70.211 143.96-47.66 26.39-107.01.57-158.457-17.33-38.094-13.26-61-48.32-94.554-70.72-35.719-23.85-87.254-26.76-107.908-64.43-21.604-39.41-26.776-95.83.469-131.56 27.547-36.13 86.137-18.41 127.744-36.61 28.324-12.384 46.602-37.888 74.249-51.722z" fill="#476FB2"/></svg>