<svg width="49" height="49" fill="none" xmlns="http://www.w3.org/2000/svg"><g clip-path="url(#clip0)"><path d="M48.342 42.435l-.023-.023.026-.03-.681-.579-4.766-4.425s-.084.088-.222.218l-.126.138c-1.088 1.014-4.575 3.95-8.66 4.008h-.264c-2.151-.237-4.249-1.39-6.377-3.53-3.534-3.552-7.461-5.478-11.688-5.742h-.352a15.36 15.36 0 00-1.914-.05c-6.37.26-11.101 4.53-12.71 6.175-.332.322-.543.54-.581.582l.023.023-.027.034.681.575 4.763 4.41s.084-.088.222-.222l.126-.138c1.087-1.018 4.57-3.955 8.66-4.008h.263c2.152.233 4.25 1.39 6.378 3.53 3.533 3.552 7.46 5.477 11.687 5.742h.352c.637.056 1.276.073 1.915.05 6.366-.261 11.101-4.533 12.709-6.18.333-.317.544-.535.582-.581" fill="url(#paint0_linear)"/><path d="M35.234 8.805A12.652 12.652 0 1047.89 21.457 12.667 12.667 0 0035.234 8.824v-.02zm5.26 7.526a2.395 2.395 0 11-.007 4.79 2.395 2.395 0 01.007-4.79zm-11.025 0a2.397 2.397 0 110 4.793 2.397 2.397 0 010-4.793zM42.32 28.056a10.336 10.336 0 01-14.164 0 10.52 10.52 0 01-2.148-2.825l.846-.383a9.57 9.57 0 001.972 2.569 9.394 9.394 0 0012.828 0 9.695 9.695 0 001.967-2.569l.843.383a10.354 10.354 0 01-2.144 2.825z" fill="#5A2E91"/></g><defs><linearGradient id="paint0_linear" x1="24.173" y1="32.41" x2="24.174" y2="47.468" gradientUnits="userSpaceOnUse"><stop stop-color="#2A5BA6"/><stop offset="1" stop-color="#E2127E"/></linearGradient><clipPath id="clip0"><path fill="#fff" d="M0 0h49v49H0z"/></clipPath></defs></svg>