<svg width="426" height="319" fill="none" xmlns="http://www.w3.org/2000/svg"><g clip-path="url(#clip0)" fill="#715F7A"><path d="M371.043 183.168v13.876h.147v-13.876h-.147zm0-44.549v18.112h.147v-18.112h-.147zM173.89 230.188v-18.112h-.148v24.392h.148v-6.28z"/><path d="M371.043 197.043v.146h98.506v-.292h.146v-13.73h-98.652v13.876zm0-58.424v18.112h98.652v-18.112h-98.652zm0-39.883v13.437h98.652V98.736h-98.652z"/><path d="M301.811 186.806c.731 0 1.171-1.169 1.317-1.169l1.317 1.899 9.221 9.932h57.523v-14.606h-49.18v-26.437h49.327v-18.112h-49.327v-26.437h49.327V98.438h-98.945v98.592h21.516a50.8 50.8 0 017.904-10.224z"/><path d="M469.402 79.898a29.294 29.294 0 00-18.588-9.202 22.7 22.7 0 00-13.32 7.303 38.085 38.085 0 01-24.59 12.123h-.732a38.421 38.421 0 01-4.098 0 41.756 41.756 0 01-27.517-12.269l-1.171-1.315 1.464-1.314 9.953-9.202a30.03 30.03 0 0019.028 9.056 21.82 21.82 0 0013.319-7.45 38.09 38.09 0 0125.322-11.538h.732a39.924 39.924 0 014.537 0 36.795 36.795 0 0116.393 4.966v-6.573a29.298 29.298 0 00-18.296-8.472 22.99 22.99 0 00-13.319 7.45 38.085 38.085 0 01-24.59 12.123h-.732a38.421 38.421 0 01-4.098 0 41.746 41.746 0 01-28.542-14.022l-1.171-1.315 1.464-1.168 9.953-9.348a29.296 29.296 0 0019.028 9.055 21.825 21.825 0 0014.636-7.303 37.503 37.503 0 0124.59-11.977h.732c1.365-.07 2.733-.07 4.098 0a35.038 35.038 0 0116.394 4.966v-7.595a30.036 30.036 0 00-18.296-8.325 22.698 22.698 0 00-13.32 7.303 37.352 37.352 0 01-24.59 12.123h-.732a38.421 38.421 0 01-4.098 0 41.752 41.752 0 01-28.688-13.146c0-.73-1.025-1.168-1.171-1.168l1.464-1.169 9.953-9.348a30.03 30.03 0 0019.028 8.91 22.26 22.26 0 0013.319-7.303 37.646 37.646 0 0124.59-12.123h.732c1.365-.07 2.733-.07 4.098 0a36.795 36.795 0 0116.393 4.966V.147h-97.92v98.3h98.652V80.19l-.293-.292zM174.767 20.166a29.297 29.297 0 0018.149 8.326 22.551 22.551 0 0013.466-7.45 37.793 37.793 0 0124.59-11.976h.732a37.105 37.105 0 014.098 0 41.75 41.75 0 0127.664 13.583l1.317 1.169-1.463 1.168-10.1 9.348a29.296 29.296 0 00-19.028-9.056 22.994 22.994 0 00-13.466 7.304 38.083 38.083 0 01-24.589 12.123h-.732a35.762 35.762 0 01-21.516-5.696v26.437l1.024-.877a30.328 30.328 0 0018.15 8.326 22.557 22.557 0 0013.466-7.45 37.793 37.793 0 0124.59-11.976h.731a37.118 37.118 0 014.099 0 41.748 41.748 0 0127.517 13.583l1.317 1.169-1.463 1.168-10.1 9.348a29.296 29.296 0 00-19.028-9.056 22.994 22.994 0 00-13.466 7.304 38.083 38.083 0 01-24.589 12.123h-.732a32.25 32.25 0 01-21.516-5.55v14.606h98.652V63.693a13.186 13.186 0 01-9.315-3.85 13.133 13.133 0 01-3.858-9.296c0-3.486 1.388-6.83 3.858-9.295a13.186 13.186 0 019.315-3.85V-.282h-98.799v21.325l1.025-.877zm-28.398 16.788a15.97 15.97 0 00-8.636 3.356 15.918 15.918 0 00-5.31 7.58 15.888 15.888 0 00-.19 9.248 15.912 15.912 0 004.992 7.792 15.983 15.983 0 0017.615 2.08 15.94 15.94 0 006.677-6.414 15.885 15.885 0 001.977-9.036 15.908 15.908 0 00-5.537-10.835 15.976 15.976 0 00-11.588-3.771zm-36.737 20.164a15.972 15.972 0 00-8.682 3.29 15.92 15.92 0 00-5.376 7.556 15.889 15.889 0 00-.248 9.265 15.917 15.917 0 004.965 7.832 15.981 15.981 0 0017.64 2.137 15.94 15.94 0 006.699-6.42 15.898 15.898 0 00-3.505-19.834 15.976 15.976 0 00-11.493-3.826zm0-44.837a16.011 16.011 0 00-10.96 5.438 15.95 15.95 0 00-3.896 11.579 15.934 15.934 0 005.449 10.936 16.004 16.004 0 0011.603 3.889 16.005 16.005 0 0010.96-5.438 15.938 15.938 0 00-1.553-22.515 16.013 16.013 0 00-11.603-3.889zm179.446 204.49v1.461a37.658 37.658 0 0012.002 24.392 21.457 21.457 0 017.319 13.292 29.185 29.185 0 01-8.343 19.28l9.367 9.932 1.171 1.461 1.171-1.169a40.866 40.866 0 0012.881-26.583v-4.82a38.091 38.091 0 00-12.003-24.392 22.494 22.494 0 01-8.05-12.854 29.187 29.187 0 018.343-18.112l-8.489-11.1-1.171-1.461-1.318 1.168a50.838 50.838 0 00-7.903 10.225 35.876 35.876 0 00-4.977 16.359v2.921zm54.452 41.467c3.106-.213 6-1.648 8.044-3.99a11.7 11.7 0 002.861-8.498 11.708 11.708 0 00-3.999-8.028 11.756 11.756 0 00-16.56 1.137 11.713 11.713 0 00-2.277 3.965 11.699 11.699 0 003.416 12.56 11.753 11.753 0 008.515 2.854zm-169.791-61.35v-22.056h-1.025a69.27 69.27 0 00-9.513 0h-2.196a87.892 87.892 0 00-57.084 28.483 51.989 51.989 0 01-30.737 17.235h-1.317a70.472 70.472 0 01-42.593-19.572v-.731c0-.73-1.025-1.168-1.171-1.168L3.366 220.988 0 223.909l2.927 3.068a98.443 98.443 0 0062.5 30.381c3.167.221 6.346.221 9.513 0h1.757a88.771 88.771 0 0057.523-28.482 53.308 53.308 0 0131.469-17.382h1.171a52.287 52.287 0 016.879 0v-14.606h52.839-52.839z"/><path d="M173.739 112.469a2.493 2.493 0 01-1.025 0 69.27 69.27 0 00-9.513 0h-2.196a88.771 88.771 0 00-57.084 28.337 53.01 53.01 0 01-30.737 17.527h-1.903a69.735 69.735 0 01-42.007-19.718v-.731s-1.025-1.022-1.171-1.022L3.366 158.333 0 161.4l2.927 2.922a97.709 97.709 0 0062.5 30.527c3.167.22 6.346.22 9.513 0a7.268 7.268 0 001.757 0 87.898 87.898 0 0057.523-28.044 53.308 53.308 0 0131.469-17.382h1.171c2.307.091 4.605.335 6.879.731v-37.685zm218.382 151.759h78.014v-15.045h-78.014v15.045zm0 22.502h78.014v-15.044h-78.014v15.044zm0-44.985h78.014v-15.044h-78.014v15.044zm0-21.341h78.014v-15.045h-78.014v15.045zm-44.79-156.283a13.341 13.341 0 009.793-4.212 13.29 13.29 0 003.557-10.032 13.294 13.294 0 00-9.815-11.88 13.347 13.347 0 00-5.438-.313 13.045 13.045 0 00-9.345 4.623 12.984 12.984 0 00-2.95 9.983 13.43 13.43 0 004.71 9.27 13.471 13.471 0 009.927 3.145m-37.468-.582a13.338 13.338 0 007.085-2.93 13.27 13.27 0 00.199-20.421 13.345 13.345 0 00-14.582-1.761 13.309 13.309 0 00-5.582 5.247 13.267 13.267 0 002.912 16.768 13.327 13.327 0 009.968 3.097zM287.029 49.97a13.425 13.425 0 00-4.71-9.27 13.476 13.476 0 00-9.927-3.146 13.188 13.188 0 00-9.315 3.85 13.133 13.133 0 00-3.858 9.296c0 3.486 1.388 6.83 3.858 9.295a13.188 13.188 0 009.315 3.85 11.75 11.75 0 002.342 0 13.33 13.33 0 009.243-4.708 13.287 13.287 0 003.052-9.898m-113.144 187.24h-12.441a87.89 87.89 0 00-57.523 28.336 52.856 52.856 0 01-30.737 17.381h-1.17a70.466 70.466 0 01-42.74-19.572v-.73l-2.489-1.315-23.419 22.056L0 285.41l2.927 2.921a87.653 87.653 0 007.172 6.719 93.624 93.624 0 0055.328 23.954c3.167.221 6.346.221 9.513 0h1.757a85.853 85.853 0 0052.4-23.37l5.123-5.842a53.308 53.308 0 0131.469-17.382h1.171a35.61 35.61 0 016.879 0v-35.931h.146zm32.787-72.444v32.864h32.786v-32.864h-32.786zm.003-.004v-32.864h-32.933v32.864h32.933zm32.782-32.864v32.864h32.933v-32.864h-32.933z"/><path d="M206.523 98.304v32.864h32.933V98.304h-32.933zm.149 131.748v32.864h32.933v-32.864h-32.933zm-.003.135v-32.863h-32.786v32.864l32.786-.001zm65.723 0v-32.863h-32.787v32.864l32.787-.001zm-65.723 32.87h-32.786v32.718h32.786v-32.718zm32.936 0v32.718h32.787v-32.718h-32.787z"/></g><defs><clipPath id="clip0"><path fill="#fff" transform="matrix(0 -1 1 0 0 319)" d="M0 0h319v667H0z"/></clipPath></defs></svg>