<svg width="49" height="49" fill="none" xmlns="http://www.w3.org/2000/svg"><path d="M48.342 42.197l-.027-.026.03-.031-.685-.578-4.762-4.43s-.084.089-.222.219l-.126.138c-1.084 1.018-4.571 3.954-8.66 4.008h-.264c-2.151-.234-4.249-1.39-6.374-3.53-3.537-3.552-7.46-5.478-11.69-5.742h-.353a15.303 15.303 0 00-1.914-.05C6.93 32.435 2.194 36.708.59 38.354c-.337.318-.544.536-.586.578l.027.027-.031.03.685.579 4.762 4.425s.085-.088.222-.218l.127-.138c1.087-1.015 4.57-3.95 8.659-4.008h.264c2.152.233 4.25 1.39 6.378 3.53 3.533 3.552 7.457 5.477 11.687 5.742h.352a15.68 15.68 0 001.914.05c6.367-.261 11.102-4.53 12.706-6.175.337-.322.544-.54.586-.582" fill="url(#paint0_linear)"/><path fill-rule="evenodd" clip-rule="evenodd" d="M35.347 16.779l9.015-5.21a.12.12 0 01.157.053.072.072 0 010 .054v18.6a.12.12 0 01-.118.12c-.027 0-.043 0-.07-.027l-9-5.195V27.8a.805.805 0 01-.808.8H14.106a.797.797 0 01-.8-.8V14.145a.877.877 0 01.233-.582.804.804 0 01.528-.222 25.056 25.056 0 0111.102 3.02 4.536 4.536 0 004.28-3.032h5.087a.82.82 0 01.57.234.88.88 0 01.238.582l.004 2.634zM18.365 8.422a3.414 3.414 0 006.807 0 7.618 7.618 0 11-6.806 0z" fill="#5A2E91"/><defs><linearGradient id="paint0_linear" x1="24.173" y1="32.165" x2="24.174" y2="47.244" gradientUnits="userSpaceOnUse"><stop stop-color="#2A5BA6"/><stop offset="1" stop-color="#E2127E"/></linearGradient></defs></svg>