<svg width="48" height="49" fill="none" xmlns="http://www.w3.org/2000/svg"><path d="M47.359 40.237l-.023-.023.026-.034-.67-.574-4.666-4.418s-.082.088-.217.222l-.124.138c-1.061 1.018-4.477 3.954-8.483 4.008h-.255c-2.11-.233-4.166-1.39-6.247-3.53-3.461-3.552-7.309-5.478-11.452-5.742h-.345a14.67 14.67 0 00-1.876-.05c-6.24.26-10.874 4.533-12.45 6.18-.33.317-.532.535-.573.581l.026.023-.03.03.671.579 4.669 4.425s.083-.088.218-.218l.123-.138c1.065-1.014 4.478-3.95 8.483-4.008h.258c2.108.237 4.163 1.39 6.248 3.53 3.461 3.552 7.305 5.477 11.449 5.742h.345c.623.056 1.25.073 1.875.05 6.236-.26 10.875-4.53 12.446-6.175.33-.318.536-.54.574-.582" fill="url(#paint0_linear)"/><path d="M34.51 12.507a.993.993 0 01-.285.694.964.964 0 01-.683.288h-19.17a.96.96 0 01-.684-.288.99.99 0 01-.284-.694v-.64h-1.26V24.5H35.77V11.867h-1.26v.64zm-8.955 2.267h1.597a.96.96 0 01.684.288.99.99 0 010 1.39.96.96 0 01-.684.287h-1.598a.96.96 0 01-.684-.288.99.99 0 010-1.389.96.96 0 01.684-.288zm.17 4.227c0 .26-.104.51-.286.695a.963.963 0 01-.685.287h-1.597a.96.96 0 01-.684-.288.99.99 0 010-1.389.96.96 0 01.684-.288h1.597c.257 0 .504.104.685.288a.993.993 0 01.286.695zm-4.963-4.227h1.595a.96.96 0 01.684.288.99.99 0 010 1.39.96.96 0 01-.684.287h-1.595a.96.96 0 01-.684-.288.99.99 0 010-1.389.96.96 0 01.684-.288zm-5.76.983c0-.26.102-.51.283-.695a.96.96 0 01.684-.288h1.601a.96.96 0 01.684.288.99.99 0 010 1.39.96.96 0 01-.684.287h-1.595a.96.96 0 01-.684-.288.99.99 0 01-.283-.694h-.006zm2.4 3.244c0-.26.103-.51.284-.695a.96.96 0 01.684-.288h1.598a.96.96 0 01.684.288.99.99 0 010 1.39.96.96 0 01-.684.287H18.37a.964.964 0 01-.683-.288.994.994 0 01-.284-.694zm11.354 4.226h-9.588a.96.96 0 01-.685-.288.99.99 0 010-1.389.96.96 0 01.684-.288h9.589a.96.96 0 01.684.288.99.99 0 010 1.39.96.96 0 01-.684.287zm.797-3.244h-1.598a.96.96 0 01-.684-.288.99.99 0 010-1.389.96.96 0 01.684-.288h1.598a.96.96 0 01.684.288.99.99 0 010 1.39.96.96 0 01-.684.287zm2.398-3.244h-1.6a.96.96 0 01-.685-.288.99.99 0 010-1.389.96.96 0 01.684-.288h1.598a.96.96 0 01.684.288.99.99 0 010 1.39.96.96 0 01-.684.287m1.801-13.054v2.48h-1.172V2.298H15.34v3.869h-1.172v-2.48h-2.023v6.759h2.023V7.97h1.172v3.897h17.237V7.97h1.172v2.477h2.02V3.686h-2.02z" fill="#5A2E91"/><defs><linearGradient id="paint0_linear" x1="23.681" y1="30.224" x2="23.683" y2="45.303" gradientUnits="userSpaceOnUse"><stop stop-color="#2A5BA6"/><stop offset="1" stop-color="#E2127E"/></linearGradient></defs></svg>