<svg width="49" height="49" fill="none" xmlns="http://www.w3.org/2000/svg"><g clip-path="url(#clip0)"><path d="M48.342 42.435l-.023-.023.026-.03-.681-.579-4.766-4.425s-.084.088-.222.218l-.126.138c-1.088 1.014-4.575 3.95-8.66 4.008h-.264c-2.151-.237-4.249-1.39-6.377-3.53-3.534-3.552-7.461-5.478-11.688-5.742h-.352a15.36 15.36 0 00-1.914-.05c-6.37.26-11.101 4.53-12.71 6.175-.332.322-.543.54-.581.582l.023.023-.027.034.681.575 4.763 4.41s.084-.088.222-.222l.126-.138c1.087-1.018 4.57-3.955 8.66-4.008h.263c2.152.233 4.25 1.39 6.378 3.53 3.533 3.552 7.46 5.477 11.687 5.742h.352c.637.056 1.276.073 1.915.05 6.366-.261 11.101-4.533 12.709-6.18.333-.317.544-.535.582-.581" fill="url(#paint0_linear)"/><path d="M38.097 26.166h-8.192a.875.875 0 01-.862-.729l-.862-5.055a.873.873 0 011.247-.933l2.054 1.007 1.754-3.172c.308-.56 1.224-.56 1.53 0l1.754 3.172 2.055-1.007a.88.88 0 01.908.085.872.872 0 01.339.848l-.862 5.055a.876.876 0 01-.863.729z" fill="#5A2E91"/><path d="M44.5 7.5h-1.167V5.167c0-.644-.522-1.167-1.166-1.167H41c-.644 0-1.167.523-1.167 1.167V7.5H28.167V5.167C28.167 4.523 27.644 4 27 4h-1.167c-.644 0-1.166.523-1.166 1.167V7.5H23.5C21.57 7.5 20 9.07 20 11v17.5c0 1.93 1.57 3.5 3.5 3.5h21c1.93 0 3.5-1.57 3.5-3.5V11c0-1.93-1.57-3.5-3.5-3.5zm0 22.167h-21a1.167 1.167 0 01-1.167-1.167V14.547h23.334V28.5c0 .644-.523 1.167-1.167 1.167z" fill="#5A2E91"/></g><defs><linearGradient id="paint0_linear" x1="24.173" y1="32.41" x2="24.174" y2="47.468" gradientUnits="userSpaceOnUse"><stop stop-color="#2A5BA6"/><stop offset="1" stop-color="#E2127E"/></linearGradient><clipPath id="clip0"><path fill="#fff" d="M0 0h49v49H0z"/></clipPath></defs></svg>