<svg width="49" height="49" fill="none" xmlns="http://www.w3.org/2000/svg"><g clip-path="url(#clip0)"><path d="M48.357 41.573l-.027-.023.03-.034-.684-.578-4.782-4.425s-.08.088-.218.222l-.126.137c-1.087 1.019-4.571 3.955-8.66 4.008h-.264c-2.151-.233-4.249-1.39-6.377-3.529-3.534-3.553-7.457-5.478-11.688-5.742h-.352a15.342 15.342 0 00-1.914-.05C6.93 31.819 2.194 36.092.59 37.738c-.337.317-.544.535-.586.581l.023.023-.027.031.685.578 4.762 4.425s.085-.088.222-.218l.127-.138c1.087-1.014 4.57-3.95 8.659-4.008h.26c2.155.238 4.253 1.39 6.382 3.53 3.533 3.552 7.457 5.478 11.687 5.742h.352a15.29 15.29 0 001.914.05c6.367-.26 11.102-4.529 12.706-6.175.333-.318.544-.54.586-.582" fill="url(#paint0_linear)"/><path d="M45.22 14.122c-.112-.146-1.306-1.662-2.979-1.914l-2.178-2.178L37 .46a.632.632 0 00-.677-.44h-.065a.643.643 0 00-.636.623v11.102h-6.89V.643a.643.643 0 10-1.287 0v19.849a7.527 7.527 0 00.046.865c.134 2.373.64 9.23 1.99 12.273a.64.64 0 00.587.383h4.21a.636.636 0 00.586-.383c.18-.41.331-.83.456-1.26l.934 1.363a.644.644 0 00.532.28h2.373a.647.647 0 00.647-.643c0-6.73 3.802-13.161 5.433-15.611a3.14 3.14 0 00-.027-3.656l.007.019zm-16.488 6.39v-1.256h.03l3.446-2.833 3.414 2.802v1.252a.13.13 0 000 .038.156.156 0 000 .042v.058c0 .084-.019.313-.038.662-.241 2.408-1.677 4.264-3.41 4.264-1.735 0-3.144-1.826-3.408-4.21a87.61 87.61 0 01-.042-.812l.008-.008zm6.883-6.884v3.943l-2.393-1.998 2.393-1.945zm1.286-.95l2.492-1.485 1.401 1.405c-.995.709-2.014 2.186-2.783 3.5a18.44 18.44 0 00-1.11 2.116V12.68zm1.822-2.583l-1.822 1.083v-6.81l1.822 5.727zm-4.46 2.978L32.2 14.765l-2.064-1.692h4.127zM31.201 15.6l-2.47 1.998v-4.05l2.47 2.052z" fill="#5A2E91"/></g><defs><linearGradient id="paint0_linear" x1="24.18" y1="31.549" x2="24.182" y2="46.627" gradientUnits="userSpaceOnUse"><stop stop-color="#2A5BA6"/><stop offset="1" stop-color="#E2127E"/></linearGradient><clipPath id="clip0"><path fill="#fff" d="M0 0h49v49H0z"/></clipPath></defs></svg>