<svg width="49" height="49" fill="none" xmlns="http://www.w3.org/2000/svg"><g clip-path="url(#clip0)"><path d="M48.345 42.167l-.026-.023.03-.03-.685-.579-4.766-4.425s-.08.088-.222.218l-.126.134c-1.087 1.018-4.571 3.954-8.66 4.012h-.264c-2.151-.234-4.249-1.386-6.377-3.526-3.534-3.552-7.457-5.478-11.688-5.742h-.352a15.342 15.342 0 00-1.914-.05c-6.366.26-11.101 4.529-12.71 6.175-.332.318-.54.54-.581.582l.023.023L0 38.97l.685.575 4.762 4.425.226-.218.127-.138c1.083-1.018 4.57-3.955 8.659-4.008h.264c2.151.233 4.25 1.39 6.374 3.525 3.537 3.553 7.46 5.478 11.69 5.743h.353c.636.06 1.276.077 1.914.053 6.366-.264 11.102-4.532 12.706-6.178.333-.318.543-.536.585-.582z" fill="url(#paint0_linear)"/><path d="M27.945 13.781h-4.21v9.953h4.21v-9.953zm7.274 0h-4.211v9.953h4.21v-9.953zm7.273 0h-4.21v9.953h4.21v-9.953zm2.298 11.485H21.054v1.914h23.734v-1.914zm.382-14.164H21.055v1.148h24.117v-1.148zm2.297 16.843H18.758v1.914h28.71v-1.914zM21.055 10.336h24.117L33.11 3.446l-12.055 6.89z" fill="#5A2E91"/><path d="M32.925 2.288l14.316 8.43.993-1.7L32.925 0 17.61 9.017l.994 1.702 14.322-8.431z" fill="#5A2E91"/></g><defs><linearGradient id="paint0_linear" x1="24.175" y1="32.146" x2="24.176" y2="47.221" gradientUnits="userSpaceOnUse"><stop stop-color="#2A5BA6"/><stop offset="1" stop-color="#E2127E"/></linearGradient><clipPath id="clip0"><path fill="#fff" d="M0 0h49v49H0z"/></clipPath></defs></svg>