<svg width="617" height="319" fill="none" xmlns="http://www.w3.org/2000/svg"><g clip-path="url(#clip0)" fill="#715F7A"><path d="M518.055 196.891v41.774h.147v-41.774h-.147zm-197.012-13.723v13.876h.147v-13.876h-.147zm0-44.549v18.112h.147v-18.112h-.147zM123.89 230.188v-18.112h-.148v24.392h.148v-6.28zm394.165 24.27v40.605h.147v-40.605h-.147z"/><path d="M321.043 197.043v.146h98.506v-.292h.146v-13.73h-98.652v13.876zm0-58.424v18.112h98.652v-18.112h-98.652zm0-39.883v13.437h98.652V98.736h-98.652z"/><path d="M251.811 186.806c.731 0 1.171-1.169 1.317-1.169l1.317 1.899 9.221 9.932h57.523v-14.606h-49.18v-26.437h49.327v-18.112h-49.327v-26.437h49.327V98.438h-98.945v98.592h21.516a50.8 50.8 0 017.904-10.224z"/><path d="M419.402 79.898a29.294 29.294 0 00-18.588-9.202 22.7 22.7 0 00-13.32 7.303 38.085 38.085 0 01-24.59 12.123h-.732a38.421 38.421 0 01-4.098 0 41.756 41.756 0 01-27.517-12.269l-1.171-1.315 1.464-1.314 9.953-9.202a30.03 30.03 0 0019.028 9.056 21.82 21.82 0 0013.319-7.45 38.09 38.09 0 0125.322-11.538h.732a39.924 39.924 0 014.537 0 36.795 36.795 0 0116.393 4.966v-6.573a29.298 29.298 0 00-18.296-8.472 22.99 22.99 0 00-13.319 7.45 38.085 38.085 0 01-24.59 12.123h-.732a38.421 38.421 0 01-4.098 0 41.746 41.746 0 01-28.542-14.022l-1.171-1.315 1.464-1.168 9.953-9.348a29.296 29.296 0 0019.028 9.055 21.825 21.825 0 0014.636-7.303 37.503 37.503 0 0124.59-11.977h.732c1.365-.07 2.733-.07 4.098 0a35.038 35.038 0 0116.394 4.966v-7.595a30.036 30.036 0 00-18.296-8.325 22.698 22.698 0 00-13.32 7.303 37.352 37.352 0 01-24.59 12.123h-.732a38.421 38.421 0 01-4.098 0 41.752 41.752 0 01-28.688-13.146c0-.73-1.025-1.168-1.171-1.168l1.464-1.169 9.953-9.348a30.03 30.03 0 0019.028 8.91 22.26 22.26 0 0013.319-7.303 37.646 37.646 0 0124.59-12.123h.732c1.365-.07 2.733-.07 4.098 0a36.795 36.795 0 0116.393 4.966V.147h-97.92v98.3h98.652V80.19l-.293-.292zm116.071-57.841a22.994 22.994 0 0013.466-7.303 37.35 37.35 0 0124.589-12.123 37.118 37.118 0 014.099 0 42.042 42.042 0 0126.639 13l1.317 1.314-1.464 1.314-9.367 8.618a29.302 29.302 0 00-18.15-8.325 22.26 22.26 0 00-13.319 7.303 37.648 37.648 0 01-24.737 12.123 35.833 35.833 0 01-3.952 0 35.037 35.037 0 01-14.636-3.798v7.303a28.417 28.417 0 0015.515 7.304 22.557 22.557 0 0013.466-7.45 37.204 37.204 0 0124.589-11.977 37.118 37.118 0 014.099 0 41.314 41.314 0 0127.224 12.123l1.318 1.169-1.464 1.168-9.953 9.348a29.301 29.301 0 00-18.15-8.471 22.551 22.551 0 00-13.319 7.449 38.382 38.382 0 01-24.737 12.123 35.661 35.661 0 01-3.952 0 34.892 34.892 0 01-14.636-3.651v7.449a27.54 27.54 0 0015.515 7.01 22.557 22.557 0 0013.466-7.448 37.793 37.793 0 0124.443-11.54 37.1 37.1 0 014.098 0 41.307 41.307 0 0126.639 13l1.318 1.169-1.464 1.168-9.953 9.348a29.288 29.288 0 00-18.296-10.078 22.265 22.265 0 00-13.32 7.303 38.377 38.377 0 01-24.736 12.123 35.783 35.783 0 01-3.952 0 35.045 35.045 0 01-14.637-3.797v12.123h17.857v-5.989h15.515v5.989h7.758v-5.989h15.515v5.989h7.757v-5.989h15.516v5.989H617V.002h-98.652v14.606a27.545 27.545 0 0017.125 7.45z"/><path d="M575.722 173.223V92.45h-15.515v80.773h15.515zm23.274 0V92.45H583.48v80.773h15.516zm-46.543 0V92.45h-15.516v5.989l.001 74.784h15.515zM124.767 20.166a29.297 29.297 0 0018.149 8.326 22.551 22.551 0 0013.466-7.45 37.793 37.793 0 0124.59-11.976h.732a37.105 37.105 0 014.098 0 41.75 41.75 0 0127.664 13.583l1.317 1.169-1.463 1.168-10.1 9.348a29.296 29.296 0 00-19.028-9.056 22.994 22.994 0 00-13.466 7.304 38.083 38.083 0 01-24.589 12.123h-.732a35.762 35.762 0 01-21.516-5.696v26.437l1.024-.877a30.328 30.328 0 0018.15 8.326 22.557 22.557 0 0013.466-7.45 37.793 37.793 0 0124.59-11.976h.731a37.118 37.118 0 014.099 0 41.748 41.748 0 0127.517 13.583l1.317 1.169-1.463 1.168-10.1 9.348a29.296 29.296 0 00-19.028-9.056 22.994 22.994 0 00-13.466 7.304 38.083 38.083 0 01-24.589 12.123h-.732a32.25 32.25 0 01-21.516-5.55v14.606h98.652V63.693a13.186 13.186 0 01-9.315-3.85 13.133 13.133 0 01-3.858-9.296c0-3.486 1.388-6.83 3.858-9.295a13.186 13.186 0 019.315-3.85V-.282h-98.799v21.325l1.025-.877zM96.37 36.954a15.973 15.973 0 00-8.637 3.356 15.921 15.921 0 00-5.31 7.58 15.89 15.89 0 00-.19 9.248 15.917 15.917 0 004.992 7.792 15.984 15.984 0 0017.615 2.08 15.94 15.94 0 006.677-6.414 15.885 15.885 0 001.977-9.036 15.908 15.908 0 00-5.537-10.835 15.976 15.976 0 00-11.588-3.771zM59.632 57.118a15.975 15.975 0 00-8.682 3.29 15.922 15.922 0 00-5.376 7.556 15.889 15.889 0 00-.248 9.265 15.918 15.918 0 004.965 7.832 15.983 15.983 0 0017.64 2.137 15.939 15.939 0 006.699-6.42 15.893 15.893 0 00-3.505-19.834 15.976 15.976 0 00-11.493-3.826zm0-44.837a16.016 16.016 0 00-10.96 5.438 15.95 15.95 0 00-3.896 11.579 15.934 15.934 0 005.45 10.936 15.999 15.999 0 0011.602 3.889 16.004 16.004 0 0010.96-5.438 15.938 15.938 0 00-1.553-22.515 16.013 16.013 0 00-11.603-3.889zM469.317 183.17a30.477 30.477 0 000-3.652 32.69 32.69 0 00-10.539-21.617 20.292 20.292 0 01-6.586-11.831 26.557 26.557 0 017.465-16.067l-8.197-8.764-1.025-1.314-1.024 1.168a36.919 36.919 0 00-11.563 23.516v4.236a33.128 33.128 0 0010.685 21.617 19.564 19.564 0 016.44 11.831 27 27 0 01-7.319 14.606h17.125a30.755 30.755 0 003.952-13.729m15.371-60.762v74.491h15.807v-74.491h-15.807z"/><path d="M470.05 155.423a10.38 10.38 0 009.105-7.07 10.351 10.351 0 00-3.047-11.103 10.398 10.398 0 00-5.501-2.458 10.428 10.428 0 00-5.943 1.003 10.385 10.385 0 00-4.385 4.126 10.359 10.359 0 005.735 14.999c1.299.431 2.671.602 4.036.503zm-230.972 61.348v1.461a37.658 37.658 0 0012.002 24.392 21.457 21.457 0 017.319 13.292 29.185 29.185 0 01-8.343 19.28l9.367 9.932 1.171 1.461 1.171-1.169a40.866 40.866 0 0012.881-26.583v-4.82a38.091 38.091 0 00-12.003-24.392 22.494 22.494 0 01-8.05-12.854 29.187 29.187 0 018.343-18.112l-8.489-11.1-1.171-1.461-1.318 1.168a50.838 50.838 0 00-7.903 10.225 35.876 35.876 0 00-4.977 16.359v2.921zm54.452 41.467c3.106-.213 6-1.648 8.044-3.99a11.7 11.7 0 002.861-8.498 11.708 11.708 0 00-3.999-8.028 11.756 11.756 0 00-16.56 1.137 11.713 11.713 0 00-2.277 3.965 11.699 11.699 0 003.416 12.56 11.753 11.753 0 008.515 2.854zm-169.791-61.35v-22.056h-1.025a69.27 69.27 0 00-9.513 0h-2.196a87.89 87.89 0 00-57.084 28.483 51.99 51.99 0 01-30.737 17.235h-1.317a70.472 70.472 0 01-42.593-19.572v-.731c0-.73-1.025-1.168-1.171-1.168l-24.736 21.909-3.367 2.921 2.927 3.068a98.443 98.443 0 0062.5 30.381c3.167.221 6.346.221 9.514 0h1.756a88.77 88.77 0 0057.523-28.482 53.31 53.31 0 0131.469-17.382h1.171a52.287 52.287 0 016.879 0v-14.606h52.839-52.839z"/><path d="M123.739 112.469a2.493 2.493 0 01-1.025 0 69.27 69.27 0 00-9.513 0h-2.196a88.77 88.77 0 00-57.084 28.337 53.012 53.012 0 01-30.737 17.527h-1.903a69.734 69.734 0 01-42.007-19.718v-.731s-1.025-1.022-1.171-1.022l-24.736 21.471L-50 161.4l2.927 2.922a97.709 97.709 0 0062.5 30.527c3.167.22 6.346.22 9.514 0a7.268 7.268 0 001.756 0 87.897 87.897 0 0057.523-28.044 53.31 53.31 0 0131.469-17.382h1.171c2.307.091 4.605.335 6.879.731v-37.685zM569.138 267.88a21.983 21.983 0 0011.917-4.529 21.916 21.916 0 007.384-10.374 21.863 21.863 0 00.362-12.719 21.9 21.9 0 00-6.783-10.775 21.988 21.988 0 00-24.21-3.06 21.939 21.939 0 00-9.261 8.746 21.875 21.875 0 004.673 27.393 21.986 21.986 0 0015.918 5.318zM467.849 26.873a21.982 21.982 0 00-11.905 4.513 21.905 21.905 0 00-7.392 10.348 21.867 21.867 0 00-.392 12.703 21.902 21.902 0 006.74 10.782 21.994 21.994 0 0024.168 3.161 21.935 21.935 0 009.297-8.684 21.874 21.874 0 00-4.55-27.454 21.964 21.964 0 00-7.446-4.273 22 22 0 00-8.52-1.096zm50.202 268.181v-40.605h-75.819v-15.775h75.965V196.9h-98.506v98.446h1.171l97.189-.292zm-36.153-31.988a10.417 10.417 0 015.873 1.35 10.386 10.386 0 014.135 4.377 10.358 10.358 0 01-1.457 11.42 10.412 10.412 0 01-16.049-.432 10.351 10.351 0 01-2.162-5.614 10.21 10.21 0 015.708-10.077 10.282 10.282 0 013.952-1.024zm0-52.144a10.424 10.424 0 017.57 2.513 10.387 10.387 0 013.554 7.127 10.506 10.506 0 01-2.669 7.329 10.544 10.544 0 01-6.991 3.48 10.39 10.39 0 01-10.06-5.723 10.335 10.335 0 01-1.064-3.917 10.206 10.206 0 012.471-7.595 10.247 10.247 0 017.189-3.506"/><path d="M342.121 264.228h78.014v-15.045h-78.014v15.045zm0 22.502h78.014v-15.044h-78.014v15.044zm0-44.985h78.014v-15.044h-78.014v15.044zm0-21.341h78.014v-15.045h-78.014v15.045zm-44.79-156.283a13.341 13.341 0 009.793-4.212 13.29 13.29 0 003.557-10.032 13.294 13.294 0 00-9.815-11.88 13.347 13.347 0 00-5.438-.313 13.045 13.045 0 00-9.345 4.623 12.984 12.984 0 00-2.95 9.983 13.43 13.43 0 004.71 9.27 13.471 13.471 0 009.927 3.145m-37.468-.582a13.338 13.338 0 007.085-2.93 13.27 13.27 0 00.199-20.421 13.345 13.345 0 00-14.582-1.761 13.309 13.309 0 00-5.582 5.247 13.267 13.267 0 002.912 16.768 13.327 13.327 0 009.968 3.097zM237.029 49.97a13.425 13.425 0 00-4.71-9.27 13.476 13.476 0 00-9.927-3.146 13.188 13.188 0 00-9.315 3.85 13.133 13.133 0 00-3.858 9.296c0 3.486 1.388 6.83 3.858 9.295a13.188 13.188 0 009.315 3.85 11.75 11.75 0 002.342 0 13.33 13.33 0 009.243-4.708 13.287 13.287 0 003.052-9.898m-113.144 187.24h-12.441a87.888 87.888 0 00-57.523 28.336 52.858 52.858 0 01-30.737 17.381h-1.17a70.466 70.466 0 01-42.74-19.572v-.73l-2.489-1.315-23.418 22.056L-50 285.41l2.927 2.921a87.65 87.65 0 007.172 6.719 93.624 93.624 0 0055.328 23.954c3.167.221 6.346.221 9.514 0h1.756a85.853 85.853 0 0052.4-23.37l5.123-5.842a53.31 53.31 0 0131.469-17.382h1.171a35.61 35.61 0 016.879 0v-35.931h.146zm32.787-72.444v32.864h32.786v-32.864h-32.786zm.003-.004v-32.864h-32.933v32.864h32.933zm32.782-32.864v32.864h32.933v-32.864h-32.933z"/><path d="M156.523 98.304v32.864h32.933V98.304h-32.933zm.149 131.748v32.864h32.933v-32.864h-32.933zm-.003.135v-32.863h-32.786v32.864l32.786-.001zm65.723 0v-32.863h-32.787v32.864l32.787-.001zm-65.723 32.87h-32.786v32.718h32.786v-32.718zm32.936 0v32.718h32.787v-32.718h-32.787z"/></g><defs><clipPath id="clip0"><path fill="#fff" transform="rotate(-90 134.5 184.5)" d="M0 0h319v667H0z"/></clipPath></defs></svg>