<svg width="49" height="49" fill="none" xmlns="http://www.w3.org/2000/svg"><g clip-path="url(#clip0)"><path d="M48.338 41.332l-.023-.023.027-.034-.686-.574-4.762-4.426-.222.219a1.59 1.59 0 01-.122.137c-1.088 1.019-4.571 3.955-8.663 4.008h-.26c-2.156-.233-4.25-1.39-6.378-3.53-3.534-3.552-7.461-5.473-11.688-5.741h-.352a14.645 14.645 0 00-1.914-.054c-6.37.264-11.101 4.533-12.71 6.179-.332.317-.543.536-.581.582l.023.023-.027.03.658.567 4.766 4.425s.085-.088.222-.218l.123-.138c1.087-1.014 4.57-3.95 8.66-4.008h.263c2.152.234 4.25 1.386 6.378 3.526 3.533 3.552 7.461 5.478 11.687 5.742h.352a15.36 15.36 0 001.914.05c6.367-.26 11.102-4.529 12.71-6.175.333-.318.544-.54.582-.582" fill="url(#paint0_linear)"/><path d="M32.248 1.156c8.338 0 15.386 6.787 15.386 14.823 0 4.524-2.251 9.953-5.743 13.78l-.1.112-.145-.027a1.88 1.88 0 01-1.167-.766 2.17 2.17 0 01-2.297.46c-.34.654-.471 1.363.44 1.623.85.241 1.995-.073 2.84-.2a41.996 41.996 0 015.808-.225c.674.027.674 1.068 0 1.045a48.722 48.722 0 00-6.638.34c-.846.123-1.914.292-2.745-.103-1.401-.685-1.148-1.849-.605-2.928-.42-.26-.876-.586-1.366-.938 1.366-.597 3.143-3.27 4.36-5.604.861-1.65 2.546-5.145 2.358-6.914 1.049.72 1.872 1.351 2.297 2.174.124-.759.188-1.527.191-2.296 0-6.367-6.668-10.643-12.893-10.643-7.71 0-12.893 5.501-12.893 10.643 0 .753.06 1.506.176 2.25.448-.811 1.256-1.435 2.297-2.143a3.33 3.33 0 00.02.765c0-.344.064-.6.233-.708a.175.175 0 01.053-.027.382.382 0 01.176-.042c.904 0 2.88 2.224 4.506 5.337 1.627 3.112 2.477 6.056 2.025 6.89a.418.418 0 01-.138.165.494.494 0 01-.184.057h-.072c.034 0 .069.046.103.062-1.868 1.343-3.124 2.297-4.785.738a2.628 2.628 0 01-.988.82l-.176.069-.122-.138c-3.407-3.828-5.608-9.188-5.608-13.64 0-8.039 7.043-14.819 15.381-14.819" fill="#5A2E91"/><path d="M42.054 15.316a.383.383 0 01.176.039l.058.027c.765.493-.264 3.667-2.067 7.131-1.646 3.166-3.526 5.463-4.414 5.463h-.05a.383.383 0 01-.18-.057.445.445 0 01-.142-.169c-.455-.85.383-3.828 2.056-6.986s3.656-5.41 4.57-5.41" fill="#5A2E91"/></g><defs><linearGradient id="paint0_linear" x1="24.171" y1="31.304" x2="24.172" y2="46.369" gradientUnits="userSpaceOnUse"><stop stop-color="#2A5BA6"/><stop offset="1" stop-color="#E2127E"/></linearGradient><clipPath id="clip0"><path fill="#fff" d="M0 0h49v49H0z"/></clipPath></defs></svg>