<svg width="107" height="108" viewBox="0 0 107 108" fill="none" xmlns="http://www.w3.org/2000/svg">
<g clip-path="url(#clip0)">
<path d="M105.334 92.5613L105.276 92.5113L105.342 92.4446L103.85 91.1857L93.47 81.5477C93.47 81.5477 93.2866 81.7394 92.9948 82.0229L92.7196 82.3147C90.3602 84.5325 82.7649 90.9272 73.8606 91.0439C73.6688 91.0439 73.4771 91.0439 73.2853 91.0439C68.5997 90.5353 64.0308 88.0175 59.3953 83.3652C51.6999 75.6282 43.1541 71.4345 33.9414 70.8592C33.6829 70.8592 33.4328 70.8592 33.1743 70.8592C31.7884 70.7361 30.3961 70.6999 29.0056 70.7508C15.1406 71.3177 4.82731 80.6139 1.33396 84.199C0.600269 84.891 0.150078 85.3662 0.0583676 85.4662L0.116735 85.5163L0 85.5329L1.49237 86.7919L11.864 96.4298L12.3476 95.9546L12.6228 95.6628C14.9906 93.4451 22.5776 87.0503 31.4818 86.9336C31.6736 86.9336 31.8654 86.9336 32.0571 86.9336C36.7427 87.4422 41.3116 89.9601 45.9471 94.6123C53.6425 102.349 62.1883 106.543 71.4011 107.118C71.6512 107.118 71.918 107.118 72.1681 107.118C73.5538 107.245 74.9463 107.282 76.3368 107.227C90.2018 106.66 100.515 97.3636 104.008 93.7786C104.742 93.0866 105.192 92.6113 105.284 92.5113" fill="#FFD100"/>
<g clip-path="url(#clip1)">
<path d="M103.157 36.1445H43.8874C42.8687 36.1445 42.043 36.9703 42.043 37.989V61.5723C42.043 62.591 42.8687 63.4168 43.8874 63.4168H103.157C104.176 63.4168 105.002 62.591 105.002 61.5723V37.989C105.002 36.9703 104.176 36.1445 103.157 36.1445ZM79.6658 53.0529H67.3788C63.8037 53.0529 60.8952 50.1444 60.8952 46.5693C60.8952 42.9942 63.8037 40.0857 67.3788 40.0857H79.6657C83.2408 40.0857 86.1492 42.9942 86.1492 46.5693C86.1494 50.1443 83.2408 53.0529 79.6658 53.0529Z" fill="#FFD100"/>
<path d="M67.3806 49.3627H79.6674C81.2108 49.3627 82.4621 48.1116 82.4621 46.5681C82.4621 45.0247 81.2109 43.7734 79.6674 43.7734H67.3806C65.8372 43.7734 64.5859 45.0246 64.5859 46.5681C64.5861 48.1116 65.8372 49.3627 67.3806 49.3627Z" fill="#FFD100"/>
<path d="M53.826 23.7009C53.826 18.0776 58.2204 13.3992 63.8302 13.0502L64.8478 12.987C64.8514 12.907 64.8552 12.827 64.8552 12.7461C64.8552 9.81042 62.4754 7.43057 59.5397 7.43057C59.3238 7.43057 59.1111 7.44497 58.902 7.46995C59.0812 6.93728 59.1798 6.36757 59.1798 5.77449C59.1798 2.83883 56.8 0.458984 53.8643 0.458984C50.9286 0.458984 48.5488 2.83883 48.5488 5.77449C48.5488 6.36757 48.6474 6.93728 48.8266 7.46995C48.6173 7.44497 48.4048 7.43057 48.1889 7.43057C45.2532 7.43057 42.8734 9.81042 42.8734 12.7461C42.8734 14.5176 43.7407 16.0856 45.0731 17.0515C43.2583 17.8973 42 19.7366 42 21.8707C42 24.2145 43.5177 26.2027 45.6235 26.9096C45.2558 27.6323 45.0471 28.4496 45.0471 29.3159C45.0471 30.491 45.4292 31.5764 46.0748 32.4565H53.826V23.7009Z" fill="#FFD100"/>
<path d="M103.876 8.56765C102.429 7.12124 100.06 7.12333 98.6113 8.5722L98.2061 8.9774L98.2103 4.1782C98.212 2.13095 96.5385 0.457263 94.4911 0.458986C92.4439 0.460708 90.7673 2.13722 90.7655 4.1846L90.7617 8.57147C89.3145 7.1328 86.9517 7.13723 85.5054 8.58352C84.2098 9.87908 84.0721 11.9097 85.0913 13.3592C86.5692 13.735 87.9211 14.4189 89.078 15.3367C89.8745 15.0676 90.7117 14.902 91.5727 14.8508C91.7614 14.8396 91.9547 14.8337 92.1462 14.8334L97.2381 14.829C97.3404 14.829 97.4328 14.8304 97.5251 14.833C99.0037 14.8749 100.419 15.2508 101.684 15.9153L103.871 13.8318C105.32 12.383 105.322 10.0141 103.876 8.56765Z" fill="#FFD100"/>
<path d="M97.359 25.7264L103.028 25.7243C103.779 22.1403 101.149 18.6257 97.4233 18.52C97.3637 18.5183 97.3036 18.5176 97.2436 18.5176L92.1523 18.522C92.0318 18.5221 91.9122 18.5257 91.7935 18.5328C91.7932 18.5328 91.7931 18.5328 91.793 18.5328C92.6469 20.0687 93.1344 21.8317 93.1344 23.7006V32.456H101.111L101.986 29.4138L97.3613 29.4154C97.3608 29.4154 97.3606 29.4154 97.3602 29.4154C96.342 29.4154 95.5164 28.5903 95.5157 27.572C95.515 26.5533 96.3403 25.727 97.359 25.7264Z" fill="#FFD100"/>
<path d="M73.4801 11.0748C74.7804 11.0748 76.0269 11.3088 77.1803 11.7365C77.309 10.9066 77.4699 10.1156 77.6406 9.39617C78.0938 7.48599 76.6518 5.65234 74.6886 5.65234C73.371 5.65234 72.2038 6.50223 71.7993 7.7562L70.6016 11.4695C71.5176 11.2126 72.4831 11.0748 73.4801 11.0748Z" fill="#FFD100"/>
<path d="M62.806 21.7472C62.806 19.9357 63.2602 18.2284 64.0599 16.7324C60.4078 16.9596 57.5156 19.9919 57.5156 23.7013V32.4567H62.8059V21.7472H62.806Z" fill="#FFD100"/>
<path d="M82.8984 16.7324C83.6981 18.2284 84.1524 19.9357 84.1524 21.7472V32.4568H89.4438V23.7014C89.4437 19.9917 86.551 16.9591 82.8984 16.7324Z" fill="#FFD100"/>
<path d="M80.4644 32.4574V21.7478C80.4644 17.8907 77.3375 14.7637 73.4802 14.7637C69.6231 14.7637 66.4961 17.8905 66.4961 21.7478V32.4574H80.4644Z" fill="#FFD100"/>
</g>
</g>
<defs>
<clipPath id="clip0">
<rect width="106.718" height="106.718" fill="white" transform="translate(0 0.4375)"/>
</clipPath>
<clipPath id="clip1">
<rect width="63" height="63" fill="white" transform="translate(42 0.4375)"/>
</clipPath>
</defs>
</svg>
