<svg width="106" height="101" viewBox="0 0 106 101" fill="none" xmlns="http://www.w3.org/2000/svg">
<path d="M105.284 85.7937L105.234 85.7437L105.292 85.677L103.8 84.4181L93.4284 74.7801C93.4284 74.7801 93.2449 74.9719 92.9448 75.2553L92.6697 75.5555C90.3102 77.7649 82.7149 84.1596 73.8106 84.2847C73.6188 84.2847 73.4353 84.2847 73.2436 84.2847C68.5497 83.7678 63.9809 81.2582 59.3536 76.5976C51.6499 68.8606 43.1041 64.6669 33.8913 64.0916C33.6412 64.0916 33.3827 64.0916 33.1243 64.0916C31.7383 63.9686 30.3461 63.9324 28.9556 63.9832C15.0906 64.5502 4.77733 73.8463 1.28398 77.4314C0.558635 78.1234 0.100056 78.6069 0.00834549 78.6987L0.0667639 78.7487L0 78.8237L1.49242 80.0743L11.8724 89.7206C11.8724 89.7206 12.0559 89.5289 12.356 89.2371L12.6311 88.9369C14.9989 86.7192 22.5859 80.3244 31.4902 80.2077C31.6819 80.2077 31.8738 80.2077 32.0655 80.2077C36.7511 80.7163 41.3199 83.2342 45.9555 87.8948C53.6508 95.6318 62.1966 99.8172 71.4094 100.401C71.6679 100.401 71.9264 100.401 72.1765 100.401C73.5624 100.524 74.9547 100.56 76.3452 100.509C90.2102 99.9422 100.523 90.6377 104.017 87.0527C104.75 86.3607 105.201 85.8854 105.292 85.7854" fill="#FFD100"/>
<path fill-rule="evenodd" clip-rule="evenodd" d="M25.4548 0.46002C39.5116 4.55366 53.5017 3.89501 67.5584 0.46002C69.0925 0.0848393 70.4931 1.65226 70.4931 3.07795V37.7947C70.4931 49.5587 59.6546 59.1883 46.5066 59.1883C33.3586 59.1883 22.5117 49.5587 22.5117 37.7947V3.07795C22.5117 1.65226 23.9124 0.0264778 25.4548 0.46002ZM74.2366 3.01959C83.6983 3.69245 93.2065 2.82806 102.392 0.46002C103.968 0.0848393 105.335 1.65226 105.335 3.07795V37.7947C105.335 49.5587 94.5547 59.1883 81.34 59.1883C76.1132 59.2096 71.0027 57.6457 66.683 54.7028C69.6012 51.9995 71.8015 48.613 73.086 44.8481C82.5239 48.6249 97.3561 45.2816 97.3561 34.8933H74.2366V3.01959ZM94.6965 15.1838C97.4978 15.1838 99.8073 17.2431 99.8073 19.736C99.8073 22.2288 97.4978 24.2882 94.6965 24.2882C91.8951 24.2882 89.594 22.2622 89.594 19.736C89.594 17.2098 91.8701 15.1838 94.6965 15.1838ZM33.1835 15.1838C35.9848 15.1838 38.2943 17.2431 38.2943 19.736C38.2943 22.2288 35.9848 24.2882 33.1835 24.2882C30.3821 24.2882 28.081 22.2622 28.081 19.736C28.081 17.2098 30.3488 15.1838 33.1835 15.1838ZM30.5239 34.8933H62.4893C62.4893 50.1756 30.5239 50.1756 30.5239 34.8933ZM59.8297 15.1838C62.6644 15.1838 64.9405 17.2431 64.9405 19.736C64.9405 22.2288 62.6644 24.2882 59.8297 24.2882C56.995 24.2882 54.7272 22.2622 54.7272 19.736C54.7272 17.2098 57.0367 15.1838 59.8297 15.1838Z" fill="#FFD100"/>
</svg>
