<svg width="107" height="108" viewBox="0 0 107 108" fill="none" xmlns="http://www.w3.org/2000/svg">
<path d="M105.276 92.5782L105.226 92.5282L105.284 92.4615L103.8 91.2025L93.42 81.5645C93.42 81.5645 93.2366 81.7563 92.9364 82.0398L92.6696 82.3399C90.3018 84.5493 82.7148 90.9441 73.8106 91.0691C73.6105 91.0691 73.427 91.0691 73.2353 91.0691C68.5497 90.5605 63.9808 88.051 59.3452 83.3904C51.6499 75.6534 43.0958 71.4597 33.8913 70.8844C33.6329 70.8844 33.3744 70.8844 33.1243 70.8844C31.7383 70.7616 30.3461 70.7254 28.9556 70.776C15.0823 71.343 4.7773 80.6391 1.27561 84.2242C0.550264 84.9162 0.0916936 85.3997 0.00832005 85.4914L0.0583421 85.5415L0 85.6165L1.48405 86.8671L11.864 96.5051L12.3476 96.0298C12.428 95.9225 12.5173 95.8222 12.6144 95.7297C14.9822 93.512 22.5692 87.1172 31.4735 87.0005C31.6653 87.0005 31.857 87.0005 32.0488 87.0005C36.7344 87.5091 41.3032 90.027 45.9388 94.6875C53.6342 102.425 62.1883 106.61 71.3927 107.194C71.6512 107.194 71.9096 107.194 72.1681 107.194C73.5536 107.324 74.9462 107.363 76.3368 107.31C90.2018 106.735 100.515 97.4389 104.017 93.8538C104.742 93.1618 105.201 92.6866 105.284 92.5865" fill="#FFD100"/>
<path d="M106.629 60.0415C106.549 59.7785 106.395 59.5437 106.185 59.3647C105.976 59.1856 105.72 59.0698 105.446 59.0307C101.479 58.4604 97.2354 55.8613 93.4998 51.7244C89.9334 47.7313 87.2518 43.0352 85.6298 37.9421L89.8224 22.2393L91.8678 23.2356C92.0395 23.3258 92.2277 23.3808 92.4211 23.3973C92.6146 23.4138 92.8094 23.3915 92.994 23.3317C93.1787 23.2719 93.3493 23.1758 93.4959 23.0492C93.6426 22.9225 93.7622 22.7678 93.8476 22.5943C93.9331 22.4208 93.9827 22.2319 93.9935 22.039C94.0043 21.846 93.9761 21.6529 93.9105 21.471C93.8449 21.2891 93.7433 21.1221 93.6118 20.98C93.4802 20.8379 93.3212 20.7236 93.1444 20.6437L78.1588 13.3302V10.6156C79.0599 10.3482 79.8687 9.83688 80.4951 9.13876C81.1215 8.44063 81.5407 7.58309 81.7062 6.66171C81.8717 5.74033 81.7768 4.79132 81.4322 3.92046C81.0875 3.04959 80.5067 2.29109 79.7544 1.72951C79.0021 1.16792 78.1079 0.825306 77.1715 0.739857C76.2351 0.654408 75.2932 0.82948 74.4509 1.24556C73.6085 1.66164 72.8988 2.30238 72.4009 3.09636C71.9029 3.89034 71.6362 4.80636 71.6306 5.74232C71.6306 6.12528 71.7834 6.49255 72.0555 6.76334C72.3276 7.03413 72.6966 7.18626 73.0813 7.18626C73.4661 7.18626 73.835 7.03413 74.1071 6.76334C74.3791 6.49255 74.532 6.12528 74.532 5.74232C74.532 5.31395 74.6596 4.89519 74.8987 4.53901C75.1378 4.18283 75.4777 3.90522 75.8753 3.74129C76.2729 3.57736 76.7105 3.53446 77.1326 3.61804C77.5547 3.70161 77.9424 3.90789 78.2468 4.2108C78.5511 4.5137 78.7583 4.89963 78.8423 5.31978C78.9262 5.73992 78.8831 6.17541 78.7184 6.57118C78.5537 6.96694 78.2748 7.30521 77.917 7.5432C77.5591 7.7812 77.1384 7.90822 76.7081 7.90822C76.3233 7.90822 75.9543 8.06035 75.6822 8.33114C75.4102 8.60193 75.2574 8.9692 75.2574 9.35216V13.3085L63.5575 19.0193H63.5067L60.2717 20.6004C59.9263 20.7699 59.6628 21.0689 59.539 21.4318C59.4152 21.7946 59.4413 22.1916 59.6116 22.5353C59.7818 22.879 60.0823 23.1413 60.4468 23.2645C60.8114 23.3877 61.2102 23.3617 61.5555 23.1923L63.2238 22.3837L67.3873 37.9637C64.9574 48.8005 59.6696 57.6373 53.8451 60.5757C53.5007 60.75 53.24 61.0533 53.1203 61.4188C53.0006 61.7844 53.0317 62.1823 53.2068 62.5251C53.3818 62.8678 53.6865 63.1273 54.0538 63.2464C54.4211 63.3656 54.8209 63.3346 55.1652 63.1604C58.5453 61.4493 61.7659 58.1066 64.4787 53.551C67.0197 49.136 68.8942 44.373 70.0421 39.4149H73.2626C73.6474 39.4149 74.0164 39.2628 74.2884 38.992C74.5605 38.7212 74.7133 38.3539 74.7133 37.9709C74.7133 37.588 74.5605 37.2207 74.2884 36.9499C74.0164 36.6791 73.6474 36.527 73.2626 36.527H81.5026C81.1178 36.527 80.7489 36.6791 80.4768 36.9499C80.2048 37.2207 80.0519 37.588 80.0519 37.9709C80.0519 38.3539 80.2048 38.7212 80.4768 38.992C80.7489 39.2628 81.1178 39.4149 81.5026 39.4149H83.0476C84.812 44.672 87.63 49.518 91.3311 53.6593C94.6822 57.3702 98.3307 59.926 102.044 61.1678C99.5861 62.8888 96.851 64.1803 93.9568 64.987C88.5096 59.7128 84.3528 53.2634 81.8072 46.1364C81.7467 45.9558 81.6511 45.7888 81.5258 45.645C81.4005 45.5011 81.2479 45.3833 81.0768 45.2982C80.9058 45.213 80.7195 45.1622 80.5287 45.1487C80.3379 45.1353 80.1463 45.1593 79.9649 45.2195C79.7834 45.2797 79.6156 45.3749 79.4711 45.4996C79.3266 45.6244 79.2082 45.7762 79.1227 45.9465C79.0371 46.1168 78.9862 46.3022 78.9726 46.4921C78.959 46.682 78.9832 46.8727 79.0437 47.0533C80.9229 52.4489 83.7092 57.4877 87.2836 61.9547C90.6716 66.2939 94.766 70.0374 99.3969 73.0297C99.6291 73.1759 99.8983 73.2536 100.173 73.2535C100.492 73.2588 100.803 73.1594 101.06 72.9708C101.316 72.7821 101.503 72.5147 101.591 72.2099C101.679 71.9051 101.664 71.5797 101.548 71.2842C101.432 70.9887 101.222 70.7395 100.949 70.575C99.3726 69.5839 97.8697 68.4812 96.452 67.2756C100.088 66.0577 103.428 64.0979 106.259 61.5215C106.453 61.3409 106.593 61.1108 106.665 60.8562C106.737 60.6015 106.737 60.3322 106.665 60.0776L106.629 60.0415ZM76.7008 22.7374C75.4604 22.7339 74.2617 22.291 73.3194 21.488C72.3771 20.685 71.7527 19.5745 71.5581 18.3551L76.7008 15.8499L81.8507 18.3551C81.6559 19.5757 81.0304 20.6872 80.0867 21.4903C79.1429 22.2934 77.9425 22.7356 76.7008 22.7374ZM87.3272 67.6366C87.3273 68.0134 87.1794 68.3753 86.9151 68.6451C86.6509 68.9148 86.2912 69.0711 85.9127 69.0805C85.3687 69.0805 84.8247 69.0805 84.2807 69.0805C78.9338 69.0181 73.682 67.6654 68.9758 65.1386C66.1595 67.4424 62.7887 68.9763 59.1956 69.589C55.6025 70.2018 51.911 69.8722 48.4848 68.6329C48.1212 68.5017 47.8248 68.2322 47.6609 67.8835C47.497 67.5349 47.4789 67.1357 47.6107 66.7738C47.7425 66.4119 48.0133 66.117 48.3636 65.9538C48.7138 65.7907 49.1149 65.7727 49.4785 65.9039C53.9994 67.5294 58.9838 67.3019 63.3362 65.2712C67.6886 63.2405 71.0528 59.5729 72.6896 55.0744C72.8223 54.7125 73.0941 54.4179 73.445 54.2554C73.796 54.0929 74.1974 54.0759 74.561 54.208C74.9246 54.3401 75.2206 54.6106 75.3838 54.9599C75.547 55.3092 75.5642 55.7088 75.4314 56.0707C74.4937 58.6478 73.0542 61.0154 71.1954 63.0377C75.2879 65.0507 79.7813 66.1263 84.3459 66.1854C84.8392 66.1854 85.3397 66.1854 85.8329 66.1854C86.0271 66.1796 86.2204 66.2127 86.4014 66.2827C86.5825 66.3526 86.7476 66.4581 86.887 66.5927C87.0263 66.7274 87.1371 66.8885 87.2127 67.0666C87.2883 67.2447 87.3272 67.436 87.3272 67.6294" fill="#FFD100"/>
</svg>
