<svg width="107" height="107" viewBox="0 0 107 107" fill="none" xmlns="http://www.w3.org/2000/svg">
<g clip-path="url(#clip0)">
<path d="M105.284 92.4205L105.234 92.3705L105.292 92.3038L103.808 91.0448L93.4284 81.4069C93.4284 81.4069 93.2449 81.5986 92.9448 81.8821C92.9448 81.8821 92.828 82.0072 92.6696 82.1822C90.3018 84.3916 82.7065 90.7864 73.8106 90.9114C73.6105 90.9114 73.4271 90.9114 73.2354 90.9114C68.5498 90.3945 63.9808 87.885 59.3452 83.2244C51.6498 75.4873 43.0957 71.2937 33.8912 70.7184C33.6328 70.7184 33.3744 70.7184 33.1243 70.7184C31.7383 70.5956 30.3461 70.5594 28.9556 70.61C15.0822 71.1769 4.77733 80.4731 1.27564 84.0581C0.550289 84.7585 0.091719 85.2337 0.00834549 85.3254L0.0584184 85.3754L0 85.4505L1.48407 86.7011L11.8557 96.3057C11.8557 96.3057 12.0392 96.1139 12.3393 95.8221L12.6143 95.522C14.9821 93.3043 22.5692 86.9095 31.4735 86.7928C31.6653 86.7928 31.857 86.7928 32.0487 86.7928C36.7343 87.3014 41.3031 89.8192 45.9387 94.4798C53.634 102.217 62.1882 106.411 71.3926 106.986C71.6511 106.986 71.9097 106.986 72.1598 106.986C73.5458 107.109 74.938 107.145 76.3285 107.094C90.1935 106.527 100.507 97.2228 104.008 93.6378C104.734 92.9458 105.192 92.4705 105.276 92.3705" fill="#FFD100"/>
<path d="M103.125 1H95.5C94.4636 1 93.625 1.83862 93.625 2.875V4.75H78.2796C77.503 2.57225 75.4412 1 73 1C70.5588 1 68.497 2.57225 67.7204 4.75H52.375V2.875C52.375 1.83862 51.5364 1 50.5 1H42.875C41.8386 1 41 1.83862 41 2.875V10.375C41 11.4114 41.8386 12.25 42.875 12.25H50.5C51.5364 12.25 52.375 11.4114 52.375 10.375V8.475H60.0755C53.5684 12.5401 49.2778 19.68 48.7649 27.6769C46.5151 28.4132 44.875 30.5075 44.875 33C44.875 36.1017 47.3983 38.625 50.5 38.625C53.6017 38.625 56.125 36.1017 56.125 33C56.125 30.6075 54.6174 28.5734 52.5075 27.7616C53.1472 18.846 59.3683 11.3315 68.0216 9.1875C68.9575 10.9971 70.8259 12.25 73 12.25C75.1741 12.25 77.0425 10.9971 77.9784 9.1875C86.6317 11.3314 92.8527 18.8459 93.4925 27.7615C91.3826 28.5734 89.875 30.6075 89.875 33C89.875 36.1017 92.3983 38.625 95.5 38.625C98.6017 38.625 101.125 36.1017 101.125 33C101.125 30.5075 99.4849 28.4132 97.2351 27.6769C96.7223 19.68 92.4316 12.5651 85.9245 8.5H93.625V10.375C93.625 11.4114 94.4636 12.25 95.5 12.25H103.125C104.161 12.25 105 11.4114 105 10.375V2.875C105 1.83862 104.161 1 103.125 1Z" fill="#FFD100"/>
<path d="M85.7547 62.6744C84.7739 59.6732 81.9484 57.375 78.6234 57.375H67.3734C64.0484 57.375 61.2229 59.6732 60.2422 62.6744C59.864 63.8315 60.8484 65 62.0659 65H83.9309C85.1483 65 86.1328 63.8315 85.7547 62.6744Z" fill="#FFD100"/>
<path d="M89.56 39.4593L74.875 17.4316V35.2196C77.0528 35.9963 78.625 38.058 78.625 40.4993C78.625 43.601 76.1018 46.1243 73 46.1243C69.8983 46.1243 67.375 43.601 67.375 40.4993C67.375 38.058 68.9473 35.9963 71.125 35.2196V17.4316L56.44 39.4593C55.9438 40.2026 56.0426 41.1933 56.6744 41.825C60.1165 45.2671 62.3168 49.7015 63.1659 54.4581C64.4684 53.9298 65.885 53.6243 67.375 53.6243H78.625C80.115 53.6243 81.5316 53.9296 82.8341 54.4579C83.6833 49.701 85.8835 45.2671 89.3256 41.825C89.9574 41.1933 90.0563 40.2026 89.56 39.4593Z" fill="#FFD100"/>
<path d="M73 38.625C71.9655 38.625 71.125 39.4655 71.125 40.5C71.125 41.5345 71.9655 42.375 73 42.375C74.0345 42.375 74.875 41.5345 74.875 40.5C74.875 39.4655 74.0345 38.625 73 38.625Z" fill="#FFD100"/>
</g>
<defs>
<clipPath id="clip0">
<rect width="106.718" height="106.718" fill="white"/>
</clipPath>
</defs>
</svg>
