<svg width="107" height="107" viewBox="0 0 107 107" fill="none" xmlns="http://www.w3.org/2000/svg">
<g clip-path="url(#clip0)">
<path d="M105.334 92.1238L105.276 92.0738L105.342 92.0071L103.85 90.7482L93.47 81.1102C93.47 81.1102 93.2866 81.3019 92.9948 81.5854L92.7196 81.8772C90.3602 84.095 82.7649 90.4897 73.8606 90.6064C73.6688 90.6064 73.4771 90.6064 73.2853 90.6064C68.5997 90.0978 64.0308 87.58 59.3953 82.9277C51.6999 75.1907 43.1541 70.997 33.9414 70.4217C33.6829 70.4217 33.4328 70.4217 33.1743 70.4217C31.7884 70.2986 30.3961 70.2624 29.0056 70.3133C15.1406 70.8802 4.82731 80.1764 1.33396 83.7615C0.600269 84.4535 0.150078 84.9287 0.0583676 85.0287L0.116735 85.0788L0 85.0954L1.49237 86.3544L11.864 95.9923L12.3476 95.5171L12.6228 95.2253C14.9906 93.0076 22.5776 86.6128 31.4818 86.4961C31.6736 86.4961 31.8654 86.4961 32.0571 86.4961C36.7427 87.0047 41.3116 89.5226 45.9471 94.1748C53.6425 101.912 62.1883 106.106 71.4011 106.681C71.6512 106.681 71.918 106.681 72.1681 106.681C73.5538 106.808 74.9463 106.844 76.3368 106.789C90.2018 106.222 100.515 96.9261 104.008 93.3411C104.742 92.6491 105.192 92.1738 105.284 92.0738" fill="#FFD100"/>
<path d="M69.8669 11.6206L70.1616 11.4874C70.3007 11.4282 70.4271 11.3405 70.5336 11.2292C70.6401 11.118 70.7246 10.9855 70.7821 10.8395C70.8396 10.6935 70.8689 10.5369 70.8684 10.3789C70.8679 10.2208 70.8376 10.0644 70.7792 9.91883C70.6641 9.62404 70.443 9.38929 70.1642 9.26589C69.8854 9.14249 69.5717 9.14049 69.2915 9.26032L68.9898 9.3935C68.7335 9.53181 68.5362 9.76691 68.4371 10.0519C68.338 10.3368 68.3445 10.6507 68.4552 10.9309C68.5659 11.2111 68.7727 11.4369 69.0344 11.5634C69.2961 11.6899 69.5934 11.7076 69.8669 11.6132" fill="#FFD100"/>
<path d="M76.5999 2.37725L76.9267 2.27343C77.1788 2.13195 77.3718 1.89799 77.4684 1.61669C77.565 1.33539 77.5584 1.0267 77.4498 0.750197C77.3412 0.4737 77.1384 0.248998 76.8804 0.119462C76.6225 -0.0100737 76.3277 -0.0352592 76.053 0.0487667L75.7547 0.174831C75.6137 0.235022 75.4855 0.323666 75.3774 0.435684C75.2693 0.547702 75.1834 0.680892 75.1246 0.827623C75.0659 0.974353 75.0355 1.13174 75.0352 1.29076C75.0348 1.44979 75.0645 1.60732 75.1226 1.75434C75.1794 1.90124 75.2636 2.03487 75.3704 2.14743C75.4772 2.25999 75.6043 2.34924 75.7445 2.40998C75.8846 2.47072 76.035 2.50173 76.1867 2.5012C76.3385 2.50067 76.4886 2.46862 76.6284 2.40691" fill="#FFD100"/>
<path d="M82.8272 3.24657L83.2028 3.11761C83.392 3.06964 83.5669 2.98983 83.7163 2.88328C83.8658 2.77672 83.9865 2.64577 84.0708 2.49878C84.155 2.35179 84.2009 2.192 84.2056 2.02962C84.2103 1.86724 84.1737 1.70584 84.0981 1.55573C84.0225 1.40562 83.9095 1.27011 83.7664 1.15784C83.6233 1.04558 83.4532 0.959035 83.267 0.90374C83.0809 0.848446 82.8826 0.825617 82.6851 0.836713C82.4875 0.847808 82.295 0.892584 82.1197 0.968179L81.7529 1.09714C81.4049 1.21465 81.1277 1.44039 80.9821 1.72502C80.8364 2.00966 80.8341 2.33002 80.9755 2.61607C81.1224 2.89907 81.3979 3.12397 81.7437 3.24303C82.0894 3.36209 82.4781 3.36593 82.8272 3.25374" fill="#FFD100"/>
<path d="M77.6219 7.60139C77.6765 7.74611 77.7575 7.87774 77.86 7.98863C77.9626 8.09952 78.0848 8.18744 78.2195 8.24728C78.3541 8.30711 78.4985 8.33766 78.6443 8.33714C78.7901 8.33662 78.9343 8.30504 79.0685 8.24425L79.3552 8.12006C79.4898 8.06083 79.6121 7.97372 79.7152 7.86375C79.8182 7.75378 79.9 7.6231 79.9558 7.47921C80.0116 7.33533 80.0403 7.18106 80.0403 7.02527C80.0402 6.86948 80.0114 6.71523 79.9556 6.57136C79.9017 6.42691 79.8215 6.29543 79.7195 6.18461C79.6176 6.07379 79.496 5.98587 79.3619 5.926C79.2278 5.86613 79.0839 5.83551 78.9386 5.83594C78.7934 5.83637 78.6496 5.86784 78.5158 5.92851L78.2224 6.04539C77.9513 6.16808 77.7363 6.4002 77.6239 6.69144C77.5115 6.98269 77.5108 7.30961 77.6219 7.60139Z" fill="#FFD100"/>
<path d="M83.4566 7.59897C83.5685 7.89029 83.7835 8.12229 84.0545 8.24423C84.3256 8.36618 84.6307 8.36816 84.9031 8.24974L85.1897 8.11812C85.3241 8.05907 85.4463 7.97222 85.5494 7.86255C85.6525 7.75287 85.7344 7.62251 85.7904 7.47891C85.8465 7.3353 85.8757 7.18127 85.8762 7.0256C85.8767 6.86993 85.8486 6.71568 85.7935 6.57165C85.7384 6.42762 85.6574 6.29663 85.555 6.18616C85.4527 6.07569 85.331 5.9879 85.197 5.92781C85.063 5.86772 84.9193 5.83651 84.774 5.83595C84.6287 5.83538 84.4848 5.86549 84.3504 5.92454L84.0638 6.04885C83.792 6.16877 83.5755 6.39915 83.4617 6.68962C83.3479 6.9801 83.346 7.30704 83.4566 7.59897Z" fill="#FFD100"/>
<path d="M73.4522 11.7526C73.5688 12.0496 73.7928 12.2861 74.0753 12.4104C74.3577 12.5347 74.6756 12.5367 74.9595 12.416L75.2581 12.2893C75.5105 12.1471 75.7037 11.9119 75.8004 11.6291C75.8971 11.3463 75.8905 11.036 75.7818 10.758C75.6731 10.4801 75.4701 10.2542 75.2118 10.124C74.9536 9.99378 74.6585 9.96846 74.3836 10.0529L74.085 10.1797C73.8017 10.3019 73.5761 10.5368 73.4575 10.8329C73.339 11.1291 73.337 11.4624 73.4522 11.76" fill="#FFD100"/>
<path d="M79.3201 12.5932C79.3966 12.7397 79.5091 12.8729 79.6511 12.9851C79.7931 13.0974 79.9618 13.1864 80.1476 13.2471C80.3334 13.3079 80.5326 13.3391 80.7338 13.3391C80.935 13.3391 81.1341 13.3077 81.3199 13.247L81.7161 13.1207C82.0553 12.9802 82.3157 12.7449 82.4462 12.4611C82.5767 12.1772 82.5679 11.8653 82.4215 11.5863C82.2751 11.3073 82.0016 11.0814 81.6548 10.953C81.3079 10.8245 80.9126 10.8028 80.5464 10.8919L80.1502 11.0256C79.9642 11.0859 79.795 11.1745 79.6525 11.2863C79.5101 11.3981 79.397 11.531 79.3199 11.6774C79.2428 11.8237 79.2031 11.9806 79.2031 12.139C79.2032 12.2974 79.2429 12.4543 79.3201 12.6006" fill="#FFD100"/>
<path d="M73.2682 7.44231L73.5758 7.30697C73.8357 7.16353 74.0347 6.92631 74.1343 6.6411C74.2339 6.35589 74.2271 6.04291 74.1151 5.76257C74.0032 5.48224 73.794 5.25441 73.5281 5.12307C73.2621 4.99174 72.9583 4.9662 72.6751 5.0514L72.3528 5.18673C72.0854 5.32728 71.8795 5.56617 71.7761 5.85575C71.6727 6.14532 71.6794 6.46428 71.7949 6.74899C71.9105 7.03369 72.1263 7.26319 72.3994 7.3917C72.6725 7.52022 72.9827 7.53829 73.2682 7.44231Z" fill="#FFD100"/>
<path d="M73.3695 23.4058C72.2034 21.2968 70.3105 19.6919 68.0494 18.8949C65.7883 18.0979 63.3157 18.1642 61.0997 19.0811C58.8838 19.998 57.0782 21.7019 56.0248 23.8703C54.9714 26.0388 54.7433 28.5212 55.3836 30.8478L73.3695 23.4058Z" fill="#FFD100"/>
<path d="M76.7574 25.0117L68.3709 28.472L69.6854 31.6808C70.0472 32.5722 70.0432 33.5716 69.6742 34.46C69.3053 35.3484 68.6016 36.0533 67.7173 36.4201C67.3333 36.5837 66.9224 36.674 66.5056 36.6863L67.4529 39.0153C67.6482 39.4588 67.7533 39.9373 67.7618 40.4223C67.7703 40.9074 67.6822 41.3893 67.5027 41.8395C67.3231 42.2897 67.0557 42.6991 66.7164 43.0435C66.377 43.3879 65.9724 43.6603 65.5267 43.8447C65.081 44.029 64.6031 44.1216 64.1212 44.1168C63.6394 44.112 63.1634 44.0101 62.7213 43.817C62.2793 43.6239 61.8802 43.3435 61.5475 42.9925C61.2149 42.6414 60.9556 42.2268 60.7848 41.7732L57.2305 33.0708L55.0273 33.9802L71.6462 74.7267C71.6951 74.8481 71.7898 74.945 71.9095 74.9963C72.0293 75.0476 72.1643 75.049 72.2851 75.0003L93.0826 66.4088C93.1993 66.3553 93.2916 66.2591 93.3407 66.1397C93.3897 66.0203 93.392 65.8866 93.3469 65.7656L76.7574 25.0117Z" fill="#FFD100"/>
<path d="M63.5244 32.7475C63.6731 32.6859 63.8325 32.6544 63.9934 32.6549C64.1543 32.6554 64.3136 32.6878 64.462 32.7503C64.6103 32.8128 64.7449 32.9041 64.8579 33.019C64.9709 33.1339 65.0602 33.2702 65.1205 33.4198C65.1828 33.5726 65.2745 33.7116 65.3903 33.8288C65.5061 33.9461 65.6438 34.0393 65.7955 34.1031C65.9472 34.167 66.11 34.2002 66.2745 34.2009C66.439 34.2016 66.602 34.1698 66.7543 34.1073C66.9066 34.0448 67.0451 33.9528 67.1619 33.8366C67.2787 33.7204 67.3716 33.5823 67.4352 33.43C67.4988 33.2778 67.5319 33.1145 67.5326 32.9494C67.5334 32.7843 67.5017 32.6207 67.4394 32.468L66.0767 29.1816L59.1953 32.0222L62.8242 40.9066C62.95 41.2152 63.1928 41.4609 63.4992 41.5899C63.8056 41.7188 64.1505 41.7203 64.458 41.5941C64.7655 41.4678 65.0104 41.2242 65.1389 40.9168C65.2674 40.6093 65.2689 40.2633 65.1431 39.9547L62.8845 34.3491C62.8226 34.2008 62.7905 34.0417 62.79 33.8809C62.7894 33.7201 62.8205 33.5608 62.8813 33.4121C62.9421 33.2634 63.0315 33.1281 63.1445 33.0141C63.2574 32.9 63.3916 32.8095 63.5395 32.7475" fill="#FFD100"/>
<path d="M60.1815 16.8711C61.1989 16.4901 62.2694 16.237 63.363 16.1187L61.4796 12.5059L55.8594 14.58L57.3601 18.342C58.2277 17.7383 59.1819 17.2435 60.1965 16.8711" fill="#FFD100"/>
</g>
<defs>
<clipPath id="clip0">
<rect width="106.718" height="106.718" fill="white"/>
</clipPath>
</defs>
</svg>
