<svg width="107" height="108" viewBox="0 0 107 108" fill="none" xmlns="http://www.w3.org/2000/svg">
<path d="M105.292 88.0716L105.242 88.0215L105.301 87.9465L103.808 86.6959L93.4367 77.0746C93.4367 77.0746 93.2532 77.2664 92.9531 77.5582L92.6779 77.8583C90.3184 80.076 82.7232 86.4708 73.8189 86.5875C73.6272 86.5875 73.4355 86.5875 73.252 86.5875C68.5581 86.0789 63.9891 83.5611 59.3619 78.9005C51.6665 71.1634 43.1124 66.9697 33.8996 66.3945C33.6495 66.3945 33.3911 66.3945 33.1326 66.3945C31.7467 66.2712 30.3544 66.235 28.9639 66.2861C15.0906 66.853 4.78567 76.1575 1.28398 79.7425C0.550298 80.4345 0.100056 80.9098 0.00834549 81.0098L0.0667639 81.0598L0 81.1265L1.49242 82.3855L11.8724 92.0235C11.8724 92.0235 12.0559 91.8317 12.356 91.5482L12.631 91.2481C14.9988 89.0387 22.5859 82.6439 31.4902 82.5189C31.6819 82.5189 31.8737 82.5189 32.0654 82.5189C36.751 83.0358 41.32 85.5453 45.9556 90.2059C53.6509 97.943 62.1965 102.137 71.4093 102.712C71.6594 102.712 71.9264 102.712 72.1765 102.712C73.5624 102.835 74.9547 102.871 76.3452 102.82C90.2102 102.253 100.523 92.9572 104.017 89.3722C104.75 88.6802 105.209 88.1966 105.292 88.1049" fill="#FFD100"/>
<path d="M76.7244 27.676C76.7226 28.243 76.4954 28.7862 76.0923 29.1871C75.6892 29.5879 75.1431 29.8139 74.5731 29.8157H31.9522C31.3816 29.8157 30.8345 29.5903 30.431 29.189C30.0276 28.7877 29.8009 28.2435 29.8009 27.676V26.2832H27V53.7965H79.5253V26.2832H76.7244V27.676ZM56.8144 32.6148H60.3661C60.9367 32.6148 61.4839 32.8402 61.8873 33.2415C62.2908 33.6428 62.5174 34.187 62.5174 34.7545C62.5174 35.322 62.2908 35.8662 61.8873 36.2675C61.4839 36.6688 60.9367 36.8942 60.3661 36.8942H56.8144C56.2438 36.8942 55.6967 36.6688 55.2932 36.2675C54.8898 35.8662 54.6631 35.322 54.6631 34.7545C54.6631 34.187 54.8898 33.6428 55.2932 33.2415C55.6967 32.8402 56.2438 32.6148 56.8144 32.6148ZM57.1933 41.8195C57.1915 42.3876 56.9632 42.9319 56.5587 43.3329C56.1542 43.734 55.6064 43.9592 55.0352 43.9592H51.4835C50.9129 43.9592 50.3656 43.7338 49.9621 43.3325C49.5587 42.9313 49.332 42.387 49.332 41.8195C49.332 41.2521 49.5587 40.7078 49.9621 40.3066C50.3656 39.9053 50.9129 39.6798 51.4835 39.6798H55.0352C55.6064 39.6798 56.1542 39.9051 56.5587 40.3061C56.9632 40.7072 57.1915 41.2514 57.1933 41.8195ZM46.1592 32.6148H49.7041C50.2747 32.6148 50.8219 32.8402 51.2253 33.2415C51.6288 33.6428 51.8554 34.187 51.8554 34.7545C51.8554 35.322 51.6288 35.8662 51.2253 36.2675C50.8219 36.6688 50.2747 36.8942 49.7041 36.8942H46.1592C45.5886 36.8942 45.0414 36.6688 44.638 36.2675C44.2345 35.8662 44.0079 35.322 44.0079 34.7545C44.0079 34.187 44.2345 33.6428 44.638 33.2415C45.0414 32.8402 45.5886 32.6148 46.1592 32.6148ZM33.3526 34.7545C33.3526 34.187 33.5793 33.6428 33.9827 33.2415C34.3862 32.8402 34.9334 32.6148 35.5039 32.6148H39.0625C39.633 32.6148 40.1802 32.8402 40.5836 33.2415C40.9871 33.6428 41.2137 34.187 41.2137 34.7545C41.2137 35.322 40.9871 35.8662 40.5836 36.2675C40.1802 36.6688 39.633 36.8942 39.0625 36.8942H35.5175C34.9469 36.8942 34.3997 36.6688 33.9963 36.2675C33.5928 35.8662 33.3662 35.322 33.3662 34.7545H33.3526ZM38.6903 41.8195C38.6903 41.2521 38.917 40.7078 39.3204 40.3066C39.7239 39.9053 40.2711 39.6798 40.8416 39.6798H44.3934C44.9639 39.6798 45.5113 39.9053 45.9147 40.3066C46.3182 40.7078 46.5448 41.2521 46.5448 41.8195C46.5448 42.387 46.3182 42.9313 45.9147 43.3325C45.5113 43.7338 44.9639 43.9592 44.3934 43.9592H40.8416C40.2716 43.9575 39.7255 43.7315 39.3224 43.3306C38.9194 42.9297 38.6921 42.3865 38.6903 41.8195ZM63.9314 51.0243H42.6142C42.0436 51.0243 41.4965 50.7988 41.093 50.3976C40.6896 49.9963 40.4629 49.4521 40.4629 48.8846C40.4629 48.3171 40.6896 47.7729 41.093 47.3716C41.4965 46.9703 42.0436 46.7449 42.6142 46.7449H63.9314C64.502 46.7449 65.0492 46.9703 65.4526 47.3716C65.8561 47.7729 66.0827 48.3171 66.0827 48.8846C66.0827 49.4521 65.8561 49.9963 65.4526 50.3976C65.0492 50.7988 64.502 51.0243 63.9314 51.0243ZM65.7038 43.9592H62.1521C61.5815 43.9592 61.0344 43.7338 60.6309 43.3325C60.2274 42.9313 60.0008 42.387 60.0008 41.8195C60.0008 41.2521 60.2274 40.7078 60.6309 40.3066C61.0344 39.9053 61.5815 39.6798 62.1521 39.6798H65.7038C66.2744 39.6798 66.8217 39.9053 67.2252 40.3066C67.6286 40.7078 67.8553 41.2521 67.8553 41.8195C67.8553 42.387 67.6286 42.9313 67.2252 43.3325C66.8217 43.7338 66.2744 43.9592 65.7038 43.9592ZM71.0349 36.8942H67.4764C66.9058 36.8942 66.3587 36.6688 65.9552 36.2675C65.5518 35.8662 65.3251 35.322 65.3251 34.7545C65.3251 34.187 65.5518 33.6428 65.9552 33.2415C66.3587 32.8402 66.9058 32.6148 67.4764 32.6148H71.0281C71.5987 32.6148 72.1459 32.8402 72.5493 33.2415C72.9528 33.6428 73.1794 34.187 73.1794 34.7545C73.1794 35.322 72.9528 35.8662 72.5493 36.2675C72.1459 36.6688 71.5987 36.8942 71.0281 36.8942" fill="#FFD100"/>
<path d="M75.0325 8.46311V13.8659H72.4277V5.43945H34.1044V13.8659H31.4996V8.46311H27V13.8659V17.7946V23.1906H31.4996V17.7946H34.1044V26.2828H72.4277V17.7946H75.0325V23.1906H79.5253V17.7946V13.8659V8.46311H75.0325Z" fill="#FFD100"/>
</svg>
