<svg width="62" height="62" viewBox="0 0 62 62" fill="none" xmlns="http://www.w3.org/2000/svg">
<path d="M51.8281 27.125H34.875C33.3334 27.125 31.855 26.5126 30.7649 25.4226C29.6749 24.3325 29.0625 22.8541 29.0625 21.3125V4.35938C29.0625 4.23091 29.0115 4.10771 28.9206 4.01687C28.8298 3.92603 28.7066 3.875 28.5781 3.875H17.4375C15.3821 3.875 13.4108 4.69152 11.9574 6.14492C10.504 7.59833 9.6875 9.56957 9.6875 11.625V50.375C9.6875 52.4304 10.504 54.4017 11.9574 55.8551C13.4108 57.3085 15.3821 58.125 17.4375 58.125H44.5625C46.6179 58.125 48.5892 57.3085 50.0426 55.8551C51.496 54.4017 52.3125 52.4304 52.3125 50.375V27.6094C52.3125 27.4809 52.2615 27.3577 52.1706 27.2669C52.0798 27.176 51.9566 27.125 51.8281 27.125Z" fill="#2474B7"/>
<path d="M50.7649 22.837L33.3504 5.42248C33.3166 5.38881 33.2735 5.36591 33.2267 5.35665C33.1798 5.34739 33.1313 5.35218 33.0871 5.37043C33.043 5.38868 33.0053 5.41956 32.9786 5.4592C32.952 5.49884 32.9377 5.54547 32.9375 5.59322V21.3124C32.9375 21.8263 33.1416 22.3191 33.505 22.6824C33.8683 23.0458 34.3611 23.2499 34.875 23.2499H50.5942C50.6419 23.2497 50.6885 23.2354 50.7282 23.2088C50.7678 23.1821 50.7987 23.1444 50.8169 23.1003C50.8352 23.0561 50.84 23.0076 50.8307 22.9607C50.8215 22.9139 50.7986 22.8708 50.7649 22.837Z" fill="#2474B7"/>
</svg>
