<svg width="1501" height="1554" fill="none" xmlns="http://www.w3.org/2000/svg"><mask id="a" fill="#fff"><path d="M436 89.096l-.242-.204.242-.272-6.142-5.166-42.962-39.286s-.759.782-2.001 1.938l-1.139 1.223c-9.8 9.006-41.202 35.072-78.056 35.582h-2.381c-19.393-2.073-38.303-12.337-57.489-31.334C213.98 19.903 178.541 2.809 140.41.532h-3.174c-5.737-.5-11.499-.648-17.254-.442C62.562 2.401 19.911 40.328 5.418 54.942 2.312 57.694.448 59.664.035 60.005l.207.204a1.192 1.192 0 01-.242.306l6.142 5.098 42.962 39.32 2.001-1.971 1.14-1.224c9.765-9.04 41.2-35.106 78.055-35.582h2.346c19.428 2.073 38.303 12.337 57.489 31.334 31.885 31.538 67.255 48.632 105.386 50.977h3.174c5.737.502 11.499.65 17.254.442 57.42-2.311 100.071-40.204 114.564-54.817 3.003-2.855 4.9-4.792 5.28-5.2"/></mask><path d="M435.758 88.892l-.623-.554-.568.64.654.551.537-.637zm.242-.272l.623.554.569-.64-.655-.552-.537.638zm-6.142-5.166l-.563.616.013.011.013.012.537-.639zm-42.962-39.286l.563-.615-.597-.546-.564.58.598.581zm-2.001 1.938l-.568-.611-.022.02-.021.022.611.569zm-1.139 1.223l.564.614.024-.022.022-.024-.61-.568zM305.7 82.91v.834h.012l-.012-.834zm-2.381 0l-.088.829.044.005h.044v-.834zM245.83 51.577l-.588.591.002.001.586-.592zM140.41.532l.05-.832-.025-.002h-.025v.834zm-3.174 0l-.073.83.036.004h.037V.532zM119.982.09l-.03-.833h-.004l.034.833zM5.418 54.942l.553.623.02-.017.019-.02-.592-.587zM.035 60.005l-.53-.644-.716.588.66.65.586-.594zm.207.204l.73.403.305-.554-.45-.443-.585.594zM0 60.515l-.561-.617-.71.646.739.613.532-.642zm6.142 5.098l.563-.615-.015-.014-.015-.013-.533.642zm42.962 39.32l-.563.615.584.534.564-.555-.585-.594zm2.001-1.971l.585.594.013-.013.013-.013-.61-.568zm1.14-1.224l-.567-.612-.023.021-.021.023.61.568zM130.3 66.156v-.833h-.011l.011.833zm2.346 0l.089-.829-.044-.004h-.045v.833zm57.489 31.334l-.586.593.586-.593zm105.386 50.977l-.051.832.025.002h.026v-.834zm3.174 0l.073-.831-.036-.003h-.037v.834zm17.254.442l.03.833h.004l-.034-.833zm114.564-54.817l-.574-.605-.009.009-.009.009.592.587zm6.025-5.633l-.242-.204-1.075 1.274.241.204 1.076-1.274zm-.156.987l.241-.272-1.246-1.108-.242.272 1.247 1.108zm.155-1.464l-6.143-5.166-1.073 1.277 6.142 5.165 1.074-1.276zm-6.117-5.143l-42.961-39.286-1.126 1.23 42.962 39.287 1.125-1.23zm-43.524-38.67l-.598-.582-.001.002a.024.024 0 00-.006.006l-.025.025-.1.101a71.713 71.713 0 01-1.839 1.774l1.135 1.221a71.987 71.987 0 001.888-1.82l.106-.108.028-.028.007-.008.002-.002h.001l-.598-.582zm-2.612 1.368l-1.138 1.224 1.22 1.136 1.139-1.224-1.221-1.136zm-1.092 1.178c-4.872 4.477-15.12 13.2-28.728 20.864-13.612 7.667-30.537 14.246-48.775 14.498l.023 1.667c18.615-.257 35.818-6.966 49.57-14.712 13.757-7.748 24.11-16.56 29.038-21.09l-1.128-1.227zM305.7 82.077h-2.381v1.668h2.381v-1.668zm-2.292.005c-19.146-2.047-37.89-12.184-56.991-31.097l-1.173 1.184c19.27 19.082 38.346 29.471 57.987 31.57l.177-1.657zm-56.99-31.096C214.45 19.195 178.827 1.99 140.46-.3l-.099 1.664c37.894 2.263 73.149 19.248 104.881 50.804l1.176-1.182zM140.41-.302h-3.174v1.668h3.174V-.302zm-3.102.004a141.29 141.29 0 00-17.356-.445l.06 1.667a139.62 139.62 0 0117.151.439l.145-1.661zm-17.36-.445C62.198 1.582 19.353 39.707 4.826 54.354L6.01 55.53C20.468 40.949 62.925 3.22 120.015.923l-.067-1.666zM4.865 54.317a111.068 111.068 0 00-3.729 3.463c-.454.441-.827.81-1.106 1.082-.294.288-.456.443-.524.499L.563 60.65c.14-.114.365-.334.634-.597.285-.278.65-.639 1.1-1.077.9-.873 2.133-2.045 3.674-3.41l-1.106-1.248zM-.551 60.6l.208.204 1.17-1.188-.207-.204L-.55 60.6zm.062-.792a.357.357 0 01-.072.091L.56 61.131c.165-.15.303-.325.41-.52l-1.46-.804zm-.043 1.35l6.142 5.097 1.065-1.283-6.143-5.098-1.064 1.284zm6.111 5.07l42.962 39.321 1.126-1.23-42.962-39.32-1.126 1.23zm44.11 39.3l2.001-1.971-1.17-1.188-2.001 1.971 1.17 1.188zm2.027-1.997l1.138-1.224-1.22-1.136-1.139 1.224 1.22 1.136zm1.094-1.18c4.853-4.492 15.101-13.224 28.713-20.888 13.616-7.666 30.549-14.237 48.787-14.472l-.021-1.667c-18.616.24-35.827 6.94-49.584 14.686-13.761 7.748-24.115 16.57-29.027 21.117l1.133 1.224zm77.49-35.36h2.346v-1.667H130.3v1.667zm2.258-.005c19.18 2.047 37.889 12.184 56.991 31.098l1.173-1.185c-19.271-19.081-38.312-29.471-57.987-31.57l-.177 1.657zm56.991 31.098c32.002 31.654 67.555 48.857 105.921 51.216l.102-1.664c-37.895-2.331-73.083-19.316-104.85-50.738l-1.173 1.186zM295.521 149.3h3.174v-1.668h-3.174v1.668zm3.102-.003c5.77.505 11.567.653 17.356.444l-.06-1.666c-5.721.206-11.449.06-17.151-.44l-.145 1.662zm17.36.444c57.75-2.324 100.595-40.415 115.122-55.063l-1.184-1.174c-14.458 14.578-56.915 52.273-114.005 54.571l.067 1.666zm115.105-55.046c3.007-2.86 4.919-4.81 5.315-5.236l-1.22-1.136c-.363.39-2.247 2.313-5.244 5.163l1.149 1.209z" fill="#fff" mask="url(#a)"/><mask id="b" fill="#fff"><path d="M1312 1494.1l-.24-.21.24-.27-6.14-5.17-42.96-39.28s-.76.78-2.01 1.94l-1.13 1.22c-9.8 9-41.21 35.07-78.06 35.58h-2.38c-19.39-2.07-38.3-12.34-57.49-31.33-31.85-31.68-67.29-48.77-105.42-51.05h-3.17c-5.74-.5-11.5-.65-17.258-.44-57.42 2.31-100.071 40.24-114.564 54.85-3.106 2.75-4.969 4.73-5.383 5.07l.207.2c-.063.11-.145.22-.242.3l6.142 5.1 42.962 39.32 2.001-1.97 1.139-1.22c9.766-9.04 41.202-35.11 78.056-35.58h2.35c19.42 2.07 38.3 12.33 57.49 31.33 31.88 31.54 67.25 48.63 105.38 50.98h3.18c5.73.5 11.49.65 17.25.44 57.42-2.31 100.07-40.2 114.56-54.82 3.01-2.85 4.9-4.79 5.28-5.2"/></mask><path d="M1311.76 1493.89l-.62-.55-.57.64.65.55.54-.64zm.24-.27l.62.55.57-.64-.65-.55-.54.64zm-6.14-5.17l-.56.62.01.01.01.01.54-.64zm-42.96-39.28l.56-.62-.6-.54-.56.58.6.58zm-2.01 1.94l-.56-.62-.03.03-.02.02.61.57zm-1.13 1.22l.56.61.02-.02.03-.02-.61-.57zm-78.06 35.58v.83h.01l-.01-.83zm-2.38 0l-.09.83h.09v-.83zm-57.49-31.33l-.59.59.59-.59zm-105.42-51.05l.05-.83h-.05v.83zm-3.17 0l-.08.83.04.01h.04v-.84zm-17.258-.44l-.03-.83h-.004l.034.83zm-114.564 54.85l.553.63.02-.02.019-.02-.592-.59zm-5.383 5.07l-.529-.65-.717.59.66.65.586-.59zm.207.2l.73.4.305-.55-.45-.44-.585.59zm-.242.3l-.561-.61-.709.64.738.62.532-.65zm6.142 5.1l.563-.61-.015-.02-.015-.01-.533.64zm42.962 39.32l-.563.62.584.53.564-.55-.585-.6zm2.001-1.97l.585.6.013-.02.013-.01-.611-.57zm1.139-1.22l-.566-.61-.023.02-.021.02.61.57zm78.056-35.58v-.84h-.01l.01.84zm2.35 0l.08-.83-.04-.01h-.04v.84zm57.49 31.33l-.59.59.59-.59zm105.38 50.98l-.05.83h.05v-.83zm3.18 0l.07-.83-.04-.01h-.03v.84zm17.25.44l.03.83-.03-.83zm114.56-54.82l-.57-.6-.01.01h-.01l.59.59zm6.03-5.63l-.24-.21-1.08 1.28.24.2 1.08-1.27zm-.16.99l.24-.28-1.24-1.1-.24.27 1.24 1.11zm.16-1.47l-6.15-5.16-1.07 1.27 6.14 5.17 1.08-1.28zm-6.12-5.14l-42.96-39.29-1.13 1.23 42.97 39.29 1.12-1.23zm-43.52-38.67l-.6-.58s-.01 0-.01.01l-.02.02c-.03.02-.06.06-.1.1l-.39.39c-.34.33-.84.81-1.45 1.38l1.13 1.23c.63-.59 1.14-1.08 1.49-1.42l.4-.4c.05-.05.08-.09.11-.11.01-.01.02-.02.02-.03.01 0 .01-.01.01-.01l-.59-.58zm-2.62 1.37l-1.13 1.22 1.22 1.14 1.13-1.23-1.22-1.13zm-1.09 1.18c-4.87 4.47-15.12 13.2-28.73 20.86-13.61 7.67-30.53 14.24-48.77 14.5l.02 1.66c18.62-.25 35.82-6.96 49.57-14.71 13.76-7.75 24.11-16.56 29.04-21.09l-1.13-1.22zm-77.49 35.36h-2.38v1.66h2.38v-1.66zm-2.29 0c-19.15-2.04-37.89-12.18-56.99-31.1l-1.18 1.19c19.27 19.08 38.35 29.47 57.99 31.57l.18-1.66zm-56.99-31.09c-31.97-31.8-67.59-49-105.96-51.29l-.1 1.66c37.89 2.27 73.15 19.25 104.88 50.81l1.18-1.18zm-106.01-51.29h-3.17v1.67h3.17v-1.67zm-3.1 0c-5.77-.5-11.57-.65-17.358-.44l.06 1.66c5.718-.2 11.448-.06 17.148.44l.15-1.66zm-17.362-.44c-57.75 2.32-100.595 40.45-115.122 55.09l1.184 1.18c14.458-14.58 56.915-52.31 114.005-54.61l-.067-1.66zm-115.083 55.06a100.092 100.092 0 00-3.729 3.46c-.454.44-.827.81-1.106 1.08-.294.29-.456.44-.524.5l1.057 1.29c.139-.11.365-.33.634-.6.285-.28.649-.64 1.1-1.07.9-.88 2.133-2.05 3.674-3.41l-1.106-1.25zm-5.416 6.28l.208.2 1.17-1.18-.207-.21-1.171 1.19zm.062-.79a.516.516 0 01-.072.09l1.122 1.23c.165-.15.303-.32.411-.52l-1.461-.8zm-.043 1.35l6.142 5.09 1.065-1.28-6.143-5.1-1.064 1.29zm6.111 5.07l42.962 39.32 1.126-1.23-42.962-39.32-1.126 1.23zm44.11 39.3l2.001-1.97-1.17-1.19-2.001 1.97 1.17 1.19zm2.027-2l1.138-1.22-1.22-1.14-1.139 1.22 1.221 1.14zm1.094-1.18c4.853-4.49 15.101-13.22 28.713-20.89 13.616-7.66 30.549-14.23 48.787-14.47l-.02-1.67c-18.617.24-35.828 6.94-49.585 14.69-13.761 7.75-24.115 16.57-29.027 21.12l1.132 1.22zm77.49-35.36h2.35v-1.67h-2.35v1.67zm2.26 0c19.18 2.04 37.89 12.18 56.99 31.09l1.17-1.18c-19.27-19.08-38.31-29.47-57.99-31.57l-.17 1.66zm56.99 31.09c32 31.66 67.55 48.86 105.92 51.22l.1-1.67c-37.89-2.33-73.08-19.31-104.85-50.73l-1.17 1.18zm105.97 51.22h3.18v-1.67h-3.18v1.67zm3.1 0c5.77.5 11.57.65 17.36.44l-.06-1.66c-5.72.2-11.45.06-17.15-.44l-.15 1.66zm17.36.44c57.75-2.32 100.6-40.41 115.13-55.06l-1.19-1.18c-14.46 14.58-56.91 52.28-114 54.58l.06 1.66zm115.11-55.04c3-2.86 4.92-4.81 5.31-5.24l-1.22-1.14c-.36.39-2.24 2.32-5.24 5.17l1.15 1.21z" fill="#fff" mask="url(#b)"/><circle cx="1450.5" cy="689.5" r="50" stroke="#fff"/></svg>