<svg width="25" height="24" fill="none" xmlns="http://www.w3.org/2000/svg"><g clip-path="url(#clip0)"><path d="M18.5.005L15.386 0C11.89 0 9.63 2.318 9.63 5.906V8.63H6.5a.49.49 0 00-.489.49v3.945c0 .27.22.49.49.49H9.63v9.955c0 .27.219.49.49.49h4.082c.27 0 .49-.22.49-.49v-9.956h3.658a.49.49 0 00.49-.49V9.12a.49.49 0 00-.489-.49h-3.66V6.322c0-1.11.265-1.673 1.71-1.673h2.097a.49.49 0 00.489-.49V.494a.49.49 0 00-.489-.489z" fill="#333"/></g><defs><clipPath id="clip0"><path fill="#fff" d="M.5 0h24v24H.5z"/></clipPath></defs></svg>