<svg width="655" height="614" fill="none" xmlns="http://www.w3.org/2000/svg"><path fill-rule="evenodd" clip-rule="evenodd" d="M230.262 186.279c-7.459 4.559-14.71 9.492-21.819 14.708l364.787 1.934a54.74 54.74 0 00-3.257-10.276l-339.711-6.366zm302.558-27.127c10.188 3.539 19.201 8.934 26.509 16.985l-309.021-.882c9.066-4.421 18.486-8.243 28.361-11.327a199.427 199.427 0 019.959-2.829l244.192-1.947zm-40.529-6.094l-10.406-.013c3.504-.055 6.976-.056 10.406.013zm81.946 56.616l-381.096 3.097a623.556 623.556 0 00-12.577 10.404c-.768.65-1.54 1.299-2.316 1.945l395.343 1.15c.865-5.607 1.131-11.144.646-16.596zm-2.985 27.392l-404.547-2.668A1501.073 1501.073 0 01155.3 243.2a2239.037 2239.037 0 00-8.116 6.243l421.925-5.407c.79-2.333 1.508-4.656 2.143-6.97zm-5.613 16.225l-431.129 6.201a323.84 323.84 0 00-9.695 8.236l434.086.506c2.439-5.01 4.718-9.993 6.738-14.943zm-9.666 20.828l-441.871 3.743c-4.131 4.204-8.004 8.559-11.528 13.115l443.839 1.345c3.253-6.09 6.495-12.163 9.56-18.203zm-17.988 34.174L96.24 300.015c-3.292 5.235-6.107 10.741-8.33 16.581l444.758 2.357a424.586 424.586 0 015.317-10.66zm-8.714 17.994l-445.233 3.618a140.365 140.365 0 00-1.874 11.184l440.742 1.281c1.812-5.344 3.972-10.709 6.365-16.083zm-8.941 24.584l-438.857-3.087a152.576 152.576 0 00-.379 17.551l437.19-5.977a187.118 187.118 0 012.046-8.487zm-3.765 17.186L81.71 374.758c.252 2.657.571 5.311.956 7.959l431.493.538c.723-5.077 1.498-10.153 2.406-15.198zm-3.271 21.421l-428.823 3.419a166.55 166.55 0 003.006 12.064l423.487 1.208c.666-4.46 1.277-8.952 1.889-13.455l.441-3.236zm-4.981 32.181l-418.002-7.832a164.313 164.313 0 006.927 16.741l408.534 2.166a189.463 189.463 0 002.541-11.075zm-4.789 18.76l-399.227 3.245a151.423 151.423 0 007.6 11.434l385.192 1.12c2.575-5.096 4.679-10.376 6.435-15.799zm-12.621 26.273l-371.725-2.451a137.5 137.5 0 007.022 7.53 74.574 74.574 0 009.538 8.018l348.529-4.467a153.024 153.024 0 003.812-4.747 87.185 87.185 0 002.824-3.883zm-25.353 27.509l-273.062 3.927c7.477.895 15.093 1.548 22.736 2.203 16.308 1.398 32.74 2.806 48.209 6.601.573.14 1.144.284 1.715.43l182.42.212a168.027 168.027 0 0017.982-13.373zm-34.438 22.77L297.886 518.1l3.17 1.174c15.818 5.864 31.478 11.669 47.488 14.243l31.575.096a180.896 180.896 0 0050.993-16.642z" fill="#fff"/><path fill-rule="evenodd" clip-rule="evenodd" d="M102.909 439.776c-36.105-35.906-52.797-93.26-41.918-143.004 10.431-47.701 59.041-74.013 96.282-105.593 29.868-25.328 60.725-47.572 98.105-59.247 38.699-12.087 77.917-11.248 118.356-8.361 58.296 4.161 137.288-20.508 168.593 28.846 31.452 49.586-29.76 109.144-45.117 165.821-11.137 41.104-6.426 86.61-32.422 120.341-26.289 34.112-66.525 56.336-109.039 63.216-40.033 6.48-76.22-17.198-115.606-26.859-47.013-11.532-102.911-1.027-137.234-35.16z" fill="#CE3B65"/></svg>