<svg width="589" height="514" fill="none" xmlns="http://www.w3.org/2000/svg"><path fill-rule="evenodd" clip-rule="evenodd" d="M178.916 119.657c-9.084 4.474-17.874 9.485-26.259 14.873l176.735.937c-1.623-1.675-3.233-3.367-4.841-5.056-2.624-2.756-5.243-5.507-7.908-8.173l-137.727-2.581zm25.519-10.785l97.105.277c-8.125-5.714-17.27-9.765-28.468-10.584-22.979-1.681-46.335 2.44-68.637 10.307zm134.673 36.05l-203.745 1.656a488.075 488.075 0 00-15.571 12.122l241.4.702c-8.35-3.401-15.489-8.566-22.084-14.48zm81.871 14.653l111.522.325a58.331 58.331 0 00-8.586-6.729c-22.068-14.228-51.47-6.635-81.721 1.178-7.053 1.821-14.152 3.655-21.215 5.226zm120.42 11.181l-432.531-2.852c-5.684 4.974-11.194 10.112-16.417 15.403l452.635-5.801a61.475 61.475 0 00-3.687-6.75zm7.184 15.885l-465.502 6.694a203.968 203.968 0 00-6.717 8.021l475.363.554c-.625-5.27-1.649-10.386-3.144-15.269zm3.653 20.834L68.843 211.57c-2.902 4.275-5.541 8.622-7.87 13.035l491.121 1.488c.461-6.291.543-12.536.142-18.618zm-2.193 35.384l-493.344-9.245c-2.291 5.453-4.084 10.998-5.294 16.627l496.715 2.633a222.866 222.866 0 001.923-10.015zm-3.444 16.625l-496.924 4.038a76.29 76.29 0 00.327 11.223l491.904 1.429c.322-.927.625-1.863.908-2.807a276.943 276.943 0 003.785-13.883zm-8.381 25.416l-487.224-3.428c1.141 5.938 2.955 11.719 5.343 17.332l477.723-6.531a85.962 85.962 0 004.158-7.373zm-10.27 16.048l-467.037 7.196a114.308 114.308 0 005.045 8.239l447.568.559c5.223-5.166 10.112-10.458 14.424-15.994zm-20.601 21.92L73.34 326.329c3.473 4.261 7.24 8.387 11.238 12.371l403.884 1.152c1.407-1.253 2.816-2.504 4.223-3.753 4.962-4.401 9.903-8.785 14.662-13.231zm-35.583 32.447l-376.868-7.062c6.693 5.778 13.817 11.204 21.146 16.253l345.272 1.83c3.303-3.777 6.813-7.439 10.45-11.021zm-16.742 18.836l-318.666 2.589c16.706 7.129 36.978 6.563 57.4 5.993 20.943-.585 42.045-1.175 59.624 6.525l191.783.558c3.046-5.501 6.29-10.778 9.859-15.665zm-15.314 26.09l-170.311-1.123c4.45 3.581 8.564 7.629 12.454 11.96L435.4 409.11a542.34 542.34 0 014.308-8.869zm-13.25 27.626l-129.794 1.867c1.408 1.923 2.805 3.852 4.197 5.775 1.354 1.87 2.705 3.735 4.057 5.583l114.566.134c2.423-4.3 4.725-8.782 6.974-13.359zm-12.578 22.575l-101.23.857c4.668 5.873 9.511 11.317 14.788 15.908l72.087.219c5.411-4.776 10.103-10.559 14.355-16.984z" fill="#fff"/><path fill-rule="evenodd" clip-rule="evenodd" d="M254.504 67.001c43.315 3.169 55.93 54.697 97.487 63.744 49.533 10.783 113.441-34.872 153.357-9.137 37.755 24.342 31.35 78.701 18.899 120.195-11.552 38.497-55.848 62.341-83.598 95.417-31.772 37.871-37.929 106.853-90.561 112.17-56.267 5.683-66.873-69.89-114.692-91.436-37.265-16.79-90.691 4.425-124.724-16.439-41.71-25.57-81.18-63.261-79.594-108.814 1.604-46.11 44.796-87.343 87.521-119.03 38.255-28.37 87.903-50.181 135.905-46.67z" fill="#C9DF55"/></svg>