<svg width="529" height="461" fill="none" xmlns="http://www.w3.org/2000/svg"><path fill-rule="evenodd" clip-rule="evenodd" d="M381.312 2.736c12.136-2.822 24.511-3.353 37.238-.51l-37.238.51zM331.731 24.89c7.837-4.754 15.711-9.16 23.656-12.886l86.263-1.33c7.662 3.918 14.844 8.773 21.544 14.38l-131.463-.164zm-34.999 22.57c3.303-2.147 6.604-4.318 9.905-6.49 4.234-2.785 8.468-5.57 12.708-8.304l150.967-1.204c5.26 5.078 10.188 10.625 14.782 16.535l-188.362-.537zm-44.21 25.891a109.116 109.116 0 019.729-5.534c5.023-2.514 10.021-5.276 15.002-8.205l218.783 4.1a211.243 211.243 0 016.392 10.964l-249.906-1.325zM221.65 97.32c1.817-1.498 3.625-3.01 5.434-4.521 3.451-2.885 6.906-5.772 10.429-8.58l268.743-2.184a241.85 241.85 0 017.29 16.133L221.65 97.32zm-36.318 23.33a80.991 80.991 0 002.669-1.109c7.8-3.411 14.838-7.816 21.519-12.699l308.124 2.032c.89 2.492 1.738 4.988 2.546 7.485l-334.858 4.291zm-104.13 19.059c10.392-4.736 22.319-6.909 34.831-8.293l406.946-5.853a257.147 257.147 0 012.755 10.581c.324 1.362.621 2.724.892 4.084l-445.425-.519zm-25.575 23.202a80.586 80.586 0 014.63-6.766 52.201 52.201 0 015.42-6.073l461.974-3.913c.89 6.081 1.288 12.143 1.27 18.186l-473.294-1.434zm-10.57 25.588c1.465-5.842 3.425-11.497 5.915-16.879l476.95 8.937c-.41 3.503-.938 7.001-1.569 10.494l-481.296-2.552zm-3.33 24.546c.117-3.695.392-7.366.834-10.994l482.374-3.92c-1.194 5.445-2.615 10.88-4.206 16.306l-479.002-1.392zm1.436 24.484a142.566 142.566 0 01-1.477-17.853l476.388 3.351a406.45 406.45 0 01-2.705 8.046l-472.206 6.456zm3.527 17.176a153.437 153.437 0 01-1.846-7.746l467.418-7.202a943.954 943.954 0 01-5.879 15.522l-459.693-.574zm7.79 22.234a149.515 149.515 0 01-4.67-11.954l454.209-3.621-.759 1.947c-1.934 4.965-3.868 9.929-5.757 14.891l-443.022-1.263zm16.59 25.621c-4.355-4.29-8.169-9.178-11.28-14.855a133.78 133.78 0 01-1.085-2.017l433.061 8.114a303.969 303.969 0 00-3.648 10.969L71.069 302.56zm42.029 24.615c-8.58-3.473-16.908-7.154-24.536-11.575l397.266-3.229c-1.523 5.227-2.974 10.535-4.406 15.874l-368.324-1.07zm53.01 23.92c-9.079-5.832-19.111-10.398-29.358-14.577l341.869 2.255c-.742 2.784-1.487 5.568-2.243 8.346l-310.268 3.976zm34.542 28.223c-3.45-3.191-6.921-6.376-10.453-9.499l280.801-4.038a293.778 293.778 0 01-4.65 13.847l-265.698-.31zm29.741 25.918c-6.025-4.54-11.782-9.495-17.458-14.617l249.949-2.117c-2.538 6.073-5.352 11.908-8.54 17.412l-223.951-.678zm66.563 29.881c-6.639-2.275-13.224-4.629-19.718-6.951-5.056-1.807-10.057-3.595-14.985-5.31a96.026 96.026 0 01-5.484-2.098l184.241 3.453c-3.966 4.28-8.364 8.172-13.278 11.599l-130.776-.693zm104.842 12.784c-18.325 5.084-37.866 4.274-57.677.469l57.677-.469z" fill="#fff"/><path fill-rule="evenodd" clip-rule="evenodd" d="M220.588 77.08c52.468-26.254 102.147-79.68 158.93-64.955 55.995 14.52 91.162 76.949 104.553 133.282 12.947 54.461-16.539 107.178-34.815 160.086-17.87 51.733-22.364 117.46-70.211 143.956-47.66 26.392-107.01.574-158.457-17.329-38.094-13.257-61-48.322-94.554-70.721-35.72-23.844-87.254-26.753-107.908-64.43-21.604-39.41-26.776-95.826.469-131.56 27.547-36.131 86.137-18.411 127.744-36.605 28.324-12.386 46.602-37.89 74.249-51.724z" fill="#476FB2"/></svg>