<svg width="104" height="104" fill="none" xmlns="http://www.w3.org/2000/svg"><path d="M77.999 15.6H1.732v86.666H78V15.6z" fill="#FFE100"/><path d="M1.732 102.266h5.2V15.6h-5.2v86.666z" fill="#fff"/><path d="M81.465 1.732H25.998V15.6h52v72.8h24.267V1.732h-20.8z" fill="#FFE100"/><path d="M97.066 1.732V88.4h5.2V1.732h-5.2z" fill="#FFA800"/><path d="M78 32.933h15.6V26H78v6.933zm0 15.602h15.6v-6.933H78v6.933zM10.4 78.002h19.067v-6.934H10.4v6.934zm0 15.599h19.067v-6.933H10.4v6.933zm0-62.4h19.067v-6.933H10.4V31.2zM50.268 62.4h19.066v-6.933H50.268V62.4zm0-15.6h19.066v-6.933H50.268v6.934z" fill="#FDCC00"/><path d="M3.467 100.534h72.8v-83.2h-72.8v83.2zM78 104H1.733A1.732 1.732 0 010 102.267V15.6c0-.956.775-1.733 1.733-1.733H78c.957 0 1.733.777 1.733 1.733v86.667c0 .957-.776 1.733-1.733 1.733z" fill="#000"/><path d="M12.133 76.267h15.6v-3.466h-15.6v3.466zm17.333 3.467H10.399A1.733 1.733 0 018.666 78v-6.934c0-.956.775-1.733 1.733-1.733h19.067c.957 0 1.733.776 1.733 1.733V78c0 .956-.776 1.733-1.733 1.733zM12.133 91.867h15.6V88.4h-15.6v3.467zm17.333 3.466H10.399A1.733 1.733 0 018.666 93.6v-6.933c0-.957.775-1.733 1.733-1.733h19.067c.957 0 1.733.776 1.733 1.733V93.6c0 .957-.776 1.734-1.733 1.734zM51.999 72.8h-6.934a1.733 1.733 0 110-3.466H52a1.733 1.733 0 110 3.466zm10.399 6.934h-20.8a1.733 1.733 0 110-3.466h20.8a1.733 1.733 0 110 3.466zm6.935 15.6H46.8a1.733 1.733 0 110-3.467h22.533a1.733 1.733 0 110 3.467zM69.332 72.8h-10.4a1.733 1.733 0 110-3.466h10.4a1.733 1.733 0 110 3.466zM12.133 29.467h15.6V26h-15.6v3.467zm17.333 3.466H10.399A1.733 1.733 0 018.666 31.2v-6.934c0-.956.775-1.733 1.733-1.733h19.067c.957 0 1.733.777 1.733 1.733V31.2c0 .957-.776 1.733-1.733 1.733zM69.332 88.4h-31.2a1.733 1.733 0 110-3.466h31.2a1.733 1.733 0 110 3.466zM52 60.666h15.6v-3.467H52v3.467zm17.333 3.466H50.266a1.733 1.733 0 01-1.733-1.733v-6.933c0-.957.775-1.734 1.733-1.734h19.067c.957 0 1.733.777 1.733 1.734v6.933c0 .957-.776 1.733-1.733 1.733zM52 45.066h15.6v-3.467H52v3.467zm17.333 3.467H50.266a1.733 1.733 0 01-1.733-1.734v-6.933c0-.957.775-1.733 1.733-1.733h19.067c.957 0 1.733.776 1.733 1.733V46.8c0 .957-.776 1.734-1.733 1.734zM39.867 41.6H27.733a1.733 1.733 0 110-3.467h12.134a1.733 1.733 0 110 3.466zm3.466 6.933h-26a1.733 1.733 0 110-3.467h26a1.733 1.733 0 110 3.467zm-10.4 15.599H10.399a1.733 1.733 0 110-3.466h22.534a1.733 1.733 0 110 3.466zM20.8 41.6H10.4a1.733 1.733 0 110-3.467h10.4a1.733 1.733 0 110 3.466zm20.8 15.6H10.4a1.733 1.733 0 110-3.466h31.2a1.733 1.733 0 110 3.467zm45.065 8.667H78a1.733 1.733 0 110-3.467h8.666a1.733 1.733 0 110 3.467zm6.934 15.599h-15.6a1.733 1.733 0 110-3.466h15.6a1.733 1.733 0 110 3.466zm.001-22.533h-8.667a1.733 1.733 0 110-3.466h8.666a1.733 1.733 0 110 3.466zM74.532 10.4h-6.933a1.733 1.733 0 110-3.466h6.933a1.733 1.733 0 110 3.466zm-34.666 0h-6.934a1.733 1.733 0 110-3.466h6.934a1.733 1.733 0 110 3.466zm53.734 0H83.2a1.733 1.733 0 110-3.466h10.4a1.733 1.733 0 110 3.466zm-.002 8.666h-6.933a1.733 1.733 0 110-3.466h6.933a1.733 1.733 0 110 3.466zM58.932 10.4h-10.4a1.733 1.733 0 110-3.466h10.4a1.733 1.733 0 110 3.466zm34.667 64.133h-15.6a1.733 1.733 0 110-3.467h15.6a1.733 1.733 0 110 3.467zM79.732 31.2h12.133v-3.466H79.732v3.467zM93.6 34.668H78a1.733 1.733 0 01-1.733-1.733v-6.933c0-.957.774-1.733 1.733-1.733h15.6c.957 0 1.733.776 1.733 1.733v6.933c0 .957-.776 1.733-1.733 1.733zM79.732 46.8h12.133v-3.466H79.732V46.8zM93.6 50.267H78a1.733 1.733 0 01-1.733-1.733V41.6c0-.956.774-1.733 1.733-1.733h15.6c.957 0 1.733.777 1.733 1.733v6.934c0 .957-.776 1.733-1.733 1.733zM65.866 27.734H51.999a1.733 1.733 0 110-3.466h13.867a1.733 1.733 0 110 3.466zm3.466 6.934H41.599a1.733 1.733 0 110-3.467h27.733a1.733 1.733 0 110 3.467zm-24.266-6.934h-8.667a1.733 1.733 0 110-3.466h8.667a1.733 1.733 0 110 3.466z" fill="#000"/><path d="M79.732 86.667h20.8v-83.2h-72.8v10.4H78c.958 0 1.733.776 1.733 1.733v71.067zm22.533 3.466H77.999a1.733 1.733 0 01-1.733-1.733V17.333H25.998a1.733 1.733 0 01-1.733-1.733V1.733A1.733 1.733 0 0125.999 0h76.266c.959 0 1.734.776 1.734 1.733V88.4c0 .957-.775 1.733-1.734 1.733z" fill="#000"/></svg>