<svg width="94" height="94" fill="none" xmlns="http://www.w3.org/2000/svg"><g clip-path="url(#clip0)"><path d="M75.273 20.953v65.336a5.875 5.875 0 01-5.875 5.875H7.711a5.875 5.875 0 01-5.875-5.875V7.711A5.875 5.875 0 017.71 1.836h48.47l19.093 19.117z" fill="#C9F3FF"/><path d="M75.296 20.953v65.336a5.875 5.875 0 01-5.875 5.875H7.734a5.875 5.875 0 01-5.875-5.875V7.711a5.875 5.875 0 015.875-5.875h48.468l19.094 19.117z" fill="#C9F3FF"/><path d="M56.18 15.07a5.875 5.875 0 005.875 5.875h13.218L56.18 1.828V15.07z" fill="#FFC66C"/><path d="M13.586 16.516h24.969v14.687h-24.97V16.516z" fill="#fff"/><path fill-rule="evenodd" clip-rule="evenodd" d="M90.441 70.443c0 11.997-9.724 21.722-21.72 21.722C56.725 92.165 47 82.44 47 70.443c0-11.996 9.725-21.72 21.72-21.72 11.997 0 21.721 9.724 21.721 21.72z" fill="#fff"/><path fill-rule="evenodd" clip-rule="evenodd" d="M81.89 70.443c0 7.273-5.897 13.17-13.17 13.17s-13.17-5.897-13.17-13.17 5.897-13.17 13.17-13.17 13.17 5.897 13.17 13.17z" fill="#4DBAF6"/><path d="M13.586 33.04h24.969a1.836 1.836 0 001.836-1.837V16.516a1.836 1.836 0 00-1.836-1.836h-24.97a1.836 1.836 0 00-1.835 1.836v14.687c0 1.014.822 1.836 1.836 1.836zm1.836-14.688h21.297v11.015H15.422V18.352zm33.23 14.688h14.871a1.836 1.836 0 000-3.673h-14.87a1.836 1.836 0 000 3.672zm-5.519 11.015H13.586a1.836 1.836 0 000 3.672h29.547a1.836 1.836 0 100-3.672zm8.469 0c-.483 0-.957.196-1.298.538a1.848 1.848 0 00-.538 1.298c0 .482.196.956.538 1.298.34.341.815.538 1.298.538a1.85 1.85 0 001.298-.538 1.85 1.85 0 00.538-1.298c0-.483-.196-.957-.538-1.298a1.85 1.85 0 00-1.298-.538zM40.207 73.43H21.664a1.836 1.836 0 100 3.672h18.543a1.836 1.836 0 100-3.672zm-26.407 0a1.842 1.842 0 00-1.836 1.836 1.844 1.844 0 001.837 1.836 1.85 1.85 0 001.298-.538 1.85 1.85 0 00.538-1.298c0-.483-.196-.957-.538-1.298a1.849 1.849 0 00-1.298-.538zm27.05-14.688H13.586a1.836 1.836 0 100 3.672H40.85a1.836 1.836 0 100-3.672z" fill="#000"/><path d="M93.152 61.436l-4.268-2.728a1.837 1.837 0 00-2.731.971l-1.63 4.932a1.835 1.835 0 103.486 1.152l.026-.08c.379 1.542.571 3.132.571 4.76 0 10.965-8.92 19.885-19.885 19.885-10.965 0-19.885-8.92-19.885-19.885 0-10.965 8.92-19.885 19.885-19.885 2.837 0 5.576.584 8.14 1.737a1.837 1.837 0 001.505-3.35c-.415-.187-.834-.36-1.257-.52V20.952c0-.487-.193-.953-.537-1.297L57.478.539A1.834 1.834 0 0056.18 0H7.71C3.46 0 0 3.459 0 7.71v78.58C0 90.54 3.459 94 7.71 94h61.688c.088 0 .174-.009.259-.02 12.556-.493 22.621-10.86 22.621-23.537 0-1.957-.235-3.868-.699-5.721a1.836 1.836 0 001.573-3.286zM58.016 6.272l12.821 12.837h-8.782a4.043 4.043 0 01-4.04-4.04V6.273zM7.71 90.328a4.044 4.044 0 01-4.04-4.039V7.711a4.043 4.043 0 014.04-4.04h46.633V14.68h-5.692a1.836 1.836 0 000 3.672h6.427a7.72 7.72 0 006.976 4.43h11.383v24.577a23.62 23.62 0 00-4.717-.473c-12.99 0-23.557 10.567-23.557 23.557 0 8.351 4.369 15.7 10.94 19.885H7.711z" fill="#000"/><path d="M68.72 55.438c-8.274 0-15.005 6.73-15.005 15.005 0 8.274 6.731 15.006 15.005 15.006 8.274 0 15.006-6.732 15.006-15.006 0-8.274-6.732-15.005-15.006-15.005zm0 26.339c-6.25 0-11.333-5.085-11.333-11.334S62.47 59.109 68.72 59.109s11.334 5.085 11.334 11.334c0 6.25-5.085 11.334-11.334 11.334z" fill="#000"/><path d="M71.91 68.607h-1.353v-4.632a1.836 1.836 0 10-3.672 0v6.468c0 1.014.822 1.836 1.836 1.836h3.188a1.836 1.836 0 100-3.672z" fill="#000"/></g><defs><clipPath id="clip0"><path fill="#fff" d="M0 0h94v94H0z"/></clipPath></defs></svg>