<svg width="102" height="102" fill="none" xmlns="http://www.w3.org/2000/svg"><g clip-path="url(#clip0)"><path d="M57.036 98.893l16.904-9.759a32.198 32.198 0 0016.1-27.884V19.592c0-2.145-1.676-3.929-3.82-4.038-18.113-.923-27.95-8.3-32.341-12.842a4.013 4.013 0 00-5.76 0c-4.391 4.542-14.228 11.92-32.342 12.842-2.143.109-3.818 1.893-3.818 4.038V61.25a32.198 32.198 0 0016.1 27.884l16.903 9.759a12.073 12.073 0 0012.074 0z" fill="#EAB14D"/><path d="M39.328 84.606a51.53 51.53 0 01-21.336-4.593 32.168 32.168 0 0010.068 9.122l16.903 9.758a12.075 12.075 0 0012.074 0l16.903-9.758a32.198 32.198 0 0016.1-27.885V43.078C85.307 66.76 64.403 84.606 39.328 84.606z" fill="#E7A52E"/><path d="M51 92.462a4.032 4.032 0 01-2.012-.54l-16.904-9.758C24.636 77.864 20.01 69.85 20.01 61.25V25.1c0-1.011.75-1.869 1.754-1.995C35.18 21.417 44.2 16.43 49.758 12.045a2.005 2.005 0 012.485 0c5.558 4.384 14.578 9.372 27.994 11.06A2.01 2.01 0 0181.99 25.1v36.15c0 8.6-4.627 16.614-12.075 20.914l-16.903 9.758a4.03 4.03 0 01-2.013.54z" fill="#FFE07D"/><path d="M32.485 77.764c-2.127 0-4.224-.131-6.284-.38a24.035 24.035 0 005.882 4.78l16.904 9.759a4.03 4.03 0 004.024 0l16.904-9.759c7.448-4.3 12.075-12.313 12.075-20.913v-20.2c-6.431 21.245-26.16 36.713-49.505 36.713z" fill="#FFD064"/><path d="M44.962 70.151a6.018 6.018 0 01-4.269-1.768L28.618 56.308a6.038 6.038 0 018.538-8.539l7.806 7.806 19.881-19.88a6.037 6.037 0 118.539 8.538l-24.15 24.15a6.017 6.017 0 01-4.27 1.768z" fill="#95D6A4"/><path d="M73.382 35.693a6.013 6.013 0 00-2.079-1.357 6.038 6.038 0 01-1.356 6.46l-24.15 24.15a6.019 6.019 0 01-4.27 1.769 6.02 6.02 0 01-4.27-1.769l3.436 3.436a6.018 6.018 0 004.27 1.768c1.545 0 3.09-.59 4.269-1.768l24.15-24.15a6.038 6.038 0 000-8.54z" fill="#78C2A4"/><path d="M90.04 35.52c.826 0 1.495-.668 1.495-1.493V19.593c0-2.951-2.3-5.38-5.238-5.53-17.72-.903-27.244-8.15-31.344-12.39A5.453 5.453 0 0051 0c-1.506 0-2.91.594-3.953 1.673-4.1 4.24-13.624 11.487-31.345 12.39a5.526 5.526 0 00-5.237 5.53V61.25c0 11.998 6.455 23.178 16.847 29.178l16.904 9.758A13.556 13.556 0 0051 102c2.345 0 4.691-.604 6.783-1.813l16.905-9.757c10.391-6 16.847-17.18 16.847-29.178V41a1.494 1.494 0 10-2.989 0v20.252c0 10.933-5.882 21.122-15.352 26.59L56.289 97.6a10.604 10.604 0 01-10.579 0l-16.904-9.758c-9.47-5.468-15.353-15.657-15.353-26.59v-41.66a2.539 2.539 0 012.401-2.545C34.6 16.092 44.79 8.307 49.195 3.75A2.488 2.488 0 0151 2.989c.688 0 1.33.27 1.804.762 4.406 4.556 14.597 12.341 33.34 13.296a2.54 2.54 0 012.402 2.546v14.434c0 .825.67 1.494 1.494 1.494z" fill="#000"/><path d="M20.01 39.506c-.825 0-1.494.669-1.494 1.494v20.252c0 9.13 4.912 17.64 12.82 22.207l16.905 9.758a5.53 5.53 0 002.759.74 5.53 5.53 0 002.759-.74l16.905-9.759c7.908-4.567 12.82-13.076 12.82-22.206V25.1a3.506 3.506 0 00-3.061-3.477c-13.402-1.686-22.218-6.777-27.256-10.753a3.496 3.496 0 00-4.336.001c-5.036 3.975-13.853 9.066-27.253 10.752a3.506 3.506 0 00-3.062 3.477v8.927a1.494 1.494 0 102.988 0V25.1c0-.26.191-.48.446-.512 14.083-1.772 23.398-7.161 28.73-11.37a.514.514 0 01.638 0c5.333 4.209 14.648 9.599 28.733 11.37a.513.513 0 01.445.512v36.152c0 8.066-4.34 15.584-11.326 19.619l-16.904 9.757a2.568 2.568 0 01-2.531 0L32.83 80.872a22.72 22.72 0 01-11.327-19.62v-20.25c0-.826-.669-1.495-1.494-1.495z" fill="#000"/><path d="M32.887 47.495c1.214 0 2.354.472 3.212 1.33l7.808 7.806c.584.584 1.53.583 2.113 0l8.553-8.553a1.494 1.494 0 00-2.113-2.113l-7.497 7.496-6.75-6.749a7.48 7.48 0 00-5.326-2.205 7.482 7.482 0 00-5.325 2.205 7.484 7.484 0 00-2.207 5.327c0 2.012.784 3.903 2.207 5.325l12.074 12.074a7.476 7.476 0 005.328 2.208 7.474 7.474 0 005.323-2.207l24.15-24.15a7.479 7.479 0 002.208-5.326 7.484 7.484 0 00-2.207-5.326 7.481 7.481 0 00-5.325-2.205 7.482 7.482 0 00-5.325 2.205l-6.397 6.397a1.494 1.494 0 102.113 2.113L65.9 36.75a4.512 4.512 0 013.212-1.33c1.213 0 2.354.472 3.212 1.33.858.859 1.331 2 1.331 3.213a4.51 4.51 0 01-1.331 3.212L48.173 67.327a4.505 4.505 0 01-3.21 1.33 4.508 4.508 0 01-3.212-1.331L29.675 55.25a4.511 4.511 0 01-1.331-3.211c0-1.214.473-2.355 1.331-3.214a4.51 4.51 0 013.212-1.33z" fill="#000"/></g><defs><clipPath id="clip0"><path fill="#fff" d="M0 0h102v102H0z"/></clipPath></defs></svg>