<svg width="922" height="543" fill="none" xmlns="http://www.w3.org/2000/svg"><g clip-path="url(#clip0)" fill="#476FB2"><path d="M222.362 431.016a1.049 1.049 0 00.311-1.4 1.09 1.09 0 00-1.439-.311l-60.616 39.466a1.008 1.008 0 00-.374.639 1.008 1.008 0 00.77 1.142c.249.057.51.019.732-.109l60.616-39.427zm-8.129-5.829a1.011 1.011 0 00.35-1.361 1.02 1.02 0 00-.583-.517.998.998 0 00-.778.051l-56.183 27.451a1.05 1.05 0 00-.467 1.361 1.004 1.004 0 00.583.517.993.993 0 00.778-.051l56.3-27.451zm13.299 5.828a.817.817 0 000 1.128.777.777 0 001.088 0L384.145 319.81a.817.817 0 000-1.128.776.776 0 00-1.088-.194L227.532 431.015zm-11.119-7.192a.856.856 0 00-.195 1.127.855.855 0 001.167 0l164.623-118.865a.86.86 0 00.063-1.072.853.853 0 00-1.035-.289L216.413 423.823zm483.217-246.44a1.001 1.001 0 00.688.506 1.027 1.027 0 00.83-.202 1.018 1.018 0 00.295-1.194 1.005 1.005 0 00-.258-.354L597.8 45.454a.965.965 0 00-.7-.298.973.973 0 00-.699.298 1.047 1.047 0 000 1.438L699.63 177.383zm-2.919.896a.817.817 0 001.128 0 .86.86 0 000-1.128L562.921 71.545a.817.817 0 10-.972 1.283L696.711 178.28zm93.627 245.742a2.062 2.062 0 00-1.516 2.45 2.026 2.026 0 002.411 1.516l137.173-31.106a2.03 2.03 0 001.279-.882 2.03 2.03 0 00-.314-2.572 1.98 1.98 0 00-1.082-.512l-39.542-7.466a1.97 1.97 0 00-1.525.293 1.97 1.97 0 00-.847 1.301 2.031 2.031 0 00.32 1.528 2.026 2.026 0 001.313.844l29.978 5.677-127.648 28.929z"/><path d="M927.743 395.791a.812.812 0 00.64-.797.82.82 0 00-.64-.797l-112.25 1.167a.727.727 0 00-.526.257.74.74 0 00-.174.559.739.739 0 00.739.778l112.211-1.167zM379.247 35.815h6.454v429.85h-6.454V35.815zm317.308 57.466h6.455V466.83h-6.455V93.281zM560.044 0h6.454v497.235h-6.454V0z"/><path d="M564.512 43.472a1.048 1.048 0 00.661-1.283 1.007 1.007 0 00-1.244-.66L383.948 96.43a1.009 1.009 0 00-.7 1.244 1.048 1.048 0 001.283.7l179.981-54.903zm-.192 56.611a1.004 1.004 0 00.669-.42 1.019 1.019 0 00.162-.772 1.01 1.01 0 00-1.219-.79c-62.21 12.053-122.437 13.18-181.965 14.308h-.194a1.05 1.05 0 00-1.011 1.05 1.05 1.05 0 001.05 1.011h-.039c59.877-1.128 120.337-2.294 182.547-14.387z"/><path d="M564.517 100.394a1.011 1.011 0 00.7-1.244 1.049 1.049 0 00-1.244-.739l-179.904 49.693a1.026 1.026 0 00-.719 1.263 1.03 1.03 0 001.264.72l179.903-49.693zm-.195 51.253a1.05 1.05 0 00.817-1.206 1.046 1.046 0 00-1.166-.816c-62.21 10.926-122.476 11.976-182.003 12.987h-.195a1.01 1.01 0 100 2.022h.272c59.605-1.011 120.066-2.061 182.275-12.987zM94.097 358.859L370.793 503.58l-2.505 4.789L91.592 363.648l2.505-4.789z"/><path fill-rule="evenodd" clip-rule="evenodd" d="M837.774 414.377l-153.736 36.667-8.826 17.614-90.166 9.487-3.499 9.449-163.301-1.945-10.46-22.902-84.061-9.798-20.723 21.463c-24.068 36.861-67.537.739-101.636-28.034 10.537 58.752 73.563 90.519 114.972 95.379l493.13 1.245v-23.019l38.882-51.442-10.576-54.164zm-122.79-96.51l-6.998 21.036h-13.997l-6.105-19.247 27.1-1.789z"/><path fill-rule="evenodd" clip-rule="evenodd" d="M334.143 454.036l-10.304-1.206-20.723 21.464c-23.99 36.744-67.226.972-101.286-27.763 4.782 19.131 21.618 37.95 45.685 48.176 35.227 14.97 72.98 6.105 83.945-19.791a39.477 39.477 0 002.683-20.88zM151.444 395.01l-11.159-7.465 21.424 87.72-10.265-80.255zm48.17 19.869L-.002 310.479l201.443 100.94-1.827 3.46z"/><path d="M382.593 81.23a1.001 1.001 0 00.382-.673 1.024 1.024 0 00-.207-.746 1.007 1.007 0 00-1.419-.175L56.458 337.702a1.01 1.01 0 00-.195 1.439 1.05 1.05 0 001.439 0l324.891-257.91zm181.922 80.792a1.014 1.014 0 10-.583-1.944l-179.904 54.903a1.048 1.048 0 00-.699 1.283 1.047 1.047 0 001.283.661l179.903-54.903zm-1.552 62.49a1.047 1.047 0 00.817-1.205 1.017 1.017 0 00-.81-.785 1.015 1.015 0 00-.396.007c-46.074 8.943-90.515 8.671-134.723 8.36-15.553 0-30.755-.194-46.152 0a1.015 1.015 0 00-1.011 1.011 1.015 1.015 0 001.011 1.011c15.358-.311 30.716 0 46.113 0 44.363.389 88.921.583 135.151-8.399z"/><path fill-rule="evenodd" clip-rule="evenodd" d="M563.119 23.681c-10.809 7.971-17.691 10.848-27.217 5.405-2.683-1.478-8.554-5.988-11.664-8.204a23.328 23.328 0 00-12.209-5.678 19.44 19.44 0 00-11.042 2.956c-4.199 2.372-10.187 8.826-15.864 10.304-6.843 1.75-13.608-3.889-20.645-8.671 6.104.389 14.891 5.288 21.19 3.033 5.249-1.828 6.998-4.783 11.664-7.777a19.984 19.984 0 0113.609-4.744c8.126.273 13.18 3.889 21.929 8.399a33.09 33.09 0 00-15.864-10.11 27.215 27.215 0 00-9.526-.816c-8.554.467-16.68 7.97-24.884 10.187-6.26 1.711-14.814-7.27-17.885-10.07.933-1.284 10.264 7.154 17.419 5.404a30.319 30.319 0 009.564-3.888 33.091 33.091 0 0127.878-5.794c7.154 2.1 12.792 6.805 18.974 9.255 2.984.967 6.218.815 9.098-.428 6.96-2.333 6.455-4.122 15.242-10.887l.233 22.124zM382.283 58.327c-10.77 7.971-17.652 10.849-27.217 5.405-2.682-1.516-8.515-5.988-11.431-8.204a22.705 22.705 0 00-12.403-5.677 19.438 19.438 0 00-10.964 2.916c-4.2 2.372-10.187 8.865-15.825 10.343-6.804 1.75-13.57-3.888-20.607-8.71 6.104.428 14.853 5.327 21.151 3.072 5.249-1.867 6.96-4.783 11.665-7.777a20.06 20.06 0 0113.569-4.705c8.088.273 13.142 3.889 21.851 8.36a33.243 33.243 0 00-15.785-10.11 29.003 29.003 0 00-9.526-.738c-8.515.467-16.641 8.01-24.806 10.226-6.26 1.672-14.775-7.27-17.847-10.07.933-1.322 10.226 7.115 17.38 5.365a28.931 28.931 0 009.565-3.888 32.656 32.656 0 0127.955-5.871c7.116 2.06 12.753 6.804 18.936 9.254 2.972.975 6.202.808 9.059-.467 6.96-2.294 6.454-3.888 15.202-10.887l.078 22.163zM698.23 94.76c-8.67-7.777-14.152-10.577-21.929-5.288-2.138 1.477-6.804 5.87-9.137 8.01a17.184 17.184 0 01-9.837 5.56 13.61 13.61 0 01-8.826-2.878c-3.382-2.294-8.165-8.632-12.714-10.07-5.482-1.711-10.887 3.888-16.563 8.476 4.899-.389 11.936-5.171 16.991-2.994 4.199 1.828 5.599 4.705 9.293 7.777a14.415 14.415 0 0010.925 4.627c6.493-.272 10.537-3.889 17.574-8.205a26.479 26.479 0 01-12.714 9.877 18.932 18.932 0 01-7.776.738c-6.843-.466-13.375-7.776-19.946-9.954-5.016-1.672-11.898 7.077-14.347 9.838.739 1.244 8.243-6.999 13.958-5.288a21.331 21.331 0 017.776 3.888c6.727 5.638 14.698 8.438 22.357 5.716 5.716-2.022 10.226-6.649 15.203-9.021a8.397 8.397 0 017.27.428c5.599 2.255 5.172 3.888 12.248 10.615l.194-21.852z"/><path d="M297.287 412.158a.813.813 0 00-1.016.11.815.815 0 00-.111 1.017l43.858 44.327a.817.817 0 001.127 0 .856.856 0 000-1.167l-43.858-44.287zm-40.361-38.027a1.01 1.01 0 00-1.438 0 1.049 1.049 0 000 1.438l67.459 80.566a1.013 1.013 0 001.727-.126 1.008 1.008 0 00.047-.807 1.005 1.005 0 00-.219-.35l-67.576-80.721z"/><path d="M195.69 326.615a1.022 1.022 0 00-1.659.907c.029.27.164.517.375.687l166.918 131.385a1.044 1.044 0 001.438 0 1.006 1.006 0 00.075-1.14 1.008 1.008 0 00-.269-.298L195.69 326.615zm650.56 142.39a6.452 6.452 0 001.769-11.508 6.454 6.454 0 00-4.607-1.051l-87.25 20.336a11.385 11.385 0 00-3.888 2.644l-7.776 11.393-432.982.505c-3.577 0-22.551-6.999-22.551-3.461 0 3.539 18.974 16.331 22.551 16.331l436.52-.466a9.18 9.18 0 005.249-2.8l8.126-12.131 84.839-19.792z"/><path fill-rule="evenodd" clip-rule="evenodd" d="M724.394 497.352h-6.571a1.53 1.53 0 00-.604.122 1.545 1.545 0 00-.951 1.472v5.366a1.56 1.56 0 00.951 1.472c.191.08.397.122.604.122h6.571a1.593 1.593 0 001.594-1.594v-5.366a1.596 1.596 0 00-1.594-1.594zm-27.369 0h-6.571a1.545 1.545 0 00-1.448.987 1.553 1.553 0 00-.107.607v5.366a1.56 1.56 0 00.951 1.472c.191.08.397.122.604.122h6.571a1.593 1.593 0 001.594-1.594v-5.366a1.596 1.596 0 00-1.594-1.594zm-27.528 0h-6.571a1.596 1.596 0 00-1.594 1.594v5.366a1.595 1.595 0 001.594 1.594h6.571a1.563 1.563 0 001.114-.469 1.563 1.563 0 00.441-1.125v-5.366a1.553 1.553 0 00-1.555-1.594z"/><path d="M635.747 497.352h6.532c.88 0 1.594.713 1.594 1.594v5.366c0 .88-.714 1.594-1.594 1.594h-6.532a1.594 1.594 0 01-1.594-1.594v-5.366c0-.881.713-1.594 1.594-1.594zm-27.33 0h6.532c.88 0 1.594.713 1.594 1.594v5.366c0 .88-.714 1.594-1.594 1.594h-6.532a1.594 1.594 0 01-1.594-1.594v-5.366c0-.881.713-1.594 1.594-1.594z"/><path fill-rule="evenodd" clip-rule="evenodd" d="M587.572 497.352h-6.571a1.527 1.527 0 00-.604.122 1.535 1.535 0 00-.844.865 1.553 1.553 0 00-.107.607v5.366a1.56 1.56 0 00.951 1.472c.191.08.396.122.604.122h6.571a1.593 1.593 0 001.594-1.594v-5.366a1.596 1.596 0 00-1.594-1.594zm-27.331 0h-6.571a1.596 1.596 0 00-1.594 1.594v5.366a1.595 1.595 0 001.594 1.594h6.571a1.563 1.563 0 001.114-.469 1.563 1.563 0 00.441-1.125v-5.366a1.543 1.543 0 00-.951-1.472 1.527 1.527 0 00-.604-.122zm-27.375 0h-6.571a1.596 1.596 0 00-1.594 1.594v5.366a1.595 1.595 0 001.594 1.594h6.571a1.563 1.563 0 001.114-.469 1.563 1.563 0 00.441-1.125v-5.366a1.543 1.543 0 00-.951-1.472 1.527 1.527 0 00-.604-.122zm-27.37 0h-6.571a1.595 1.595 0 00-1.594 1.594v5.366a1.595 1.595 0 001.594 1.594h6.571a1.595 1.595 0 001.594-1.594v-5.366a1.596 1.596 0 00-1.594-1.594zm-27.375 0h-6.571a1.541 1.541 0 00-1.448.987 1.554 1.554 0 00-.108.607v5.366a1.56 1.56 0 001.556 1.594h6.571a1.595 1.595 0 001.594-1.594v-5.366a1.596 1.596 0 00-1.594-1.594zm-27.369 0h-6.533a1.596 1.596 0 00-1.594 1.594v5.366a1.595 1.595 0 001.594 1.594h6.533a1.595 1.595 0 001.594-1.594v-5.366a1.596 1.596 0 00-1.594-1.594zm-27.335 0h-6.649a1.596 1.596 0 00-1.594 1.594v5.366a1.595 1.595 0 001.594 1.594h6.571a1.567 1.567 0 001.113-.469 1.565 1.565 0 00.442-1.125v-5.366a1.554 1.554 0 00-1.477-1.594zm-27.374.001h-6.493a1.596 1.596 0 00-1.594 1.595v5.365a1.596 1.596 0 001.594 1.595h6.571a1.595 1.595 0 001.594-1.595v-5.365a1.602 1.602 0 00-1.038-1.496 1.594 1.594 0 00-.634-.099zm-27.373-.001h-6.571a1.541 1.541 0 00-1.114.469 1.545 1.545 0 00-.442 1.125v5.366a1.565 1.565 0 00.951 1.472c.192.08.397.122.605.122h6.571a1.595 1.595 0 001.594-1.594v-5.366a1.596 1.596 0 00-1.594-1.594zm90.594-423.086a54.438 54.438 0 00-3.111 36.588l-73.68 3.189-.272-15.553c25.467-8.205 51.595-15.903 77.063-24.224zm199.383 229.757l-139.155 19.442c-14.931 52.958-22.163 75.899-13.22 133.64 61.588-28.112 118.588-31.106 182.742-6.571-33.788-56.73-64.971-113.071-30.367-146.511zm-43.08-204.095l-97.476 14.892c-8.281 23.33-12.403 33.556-3.577 57.858a250.033 250.033 0 01128.775-11.393c-26.245-22.785-50.74-45.415-27.722-61.357z"/><path fill-rule="evenodd" clip-rule="evenodd" d="M598.071 45.453L531.312 58.83c-5.677 20.997-8.476 30.134-2.45 51.986a133.09 133.09 0 0188.183-10.226c-17.963-20.491-34.721-40.827-18.974-55.136zm156.455 178.943l-93.743 17.109c-9.293 35.656-13.842 51.131-6.921 89.431 41.214-20.492 79.707-24.108 123.331-9.682-23.601-37.017-45.491-73.606-22.667-96.858zm-15.046-59.919l-74.497 17.419c-6.804 21.502-10.265 35.461-8.631 54.436 22.745-8.243 59.371-23.874 94.248-16.37-13.725-21.657-22.785-37.21-11.12-55.485z"/><path fill-rule="evenodd" clip-rule="evenodd" d="M725.912 133.447l-50.157 11.16c-4.549 13.803-6.882 22.785-5.793 34.994 15.319-5.327 39.931-15.553 63.415-10.537-9.448-13.881-15.397-23.952-7.465-35.617zm88.378 103.739l-81.34 75.005c1.322 44.248 2.722 70.65 23.562 112.294 46.191-29.124 79.551-37.834 134.607-35.967-39.503-34.684-95.376-116.96-76.829-151.332zm-171.31-72.442l-140.166 25.78c-13.881 53.269-20.685 76.404-10.304 133.446 61.588-30.834 119.132-36.239 184.375-14.698-35.304-55.097-68.12-109.767-33.905-144.528zM471.514 125.32a46.68 46.68 0 00-4.2 35.967l-84.644 2.877-.35-13.92c29.161-7.582 59.916-17.38 89.194-24.924zm15.24 59.45c-6.843 13.181-12.092 33.633-8.282 46.659l-95.725.467.272-15.554c31.805-9.293 72.202-22.241 103.735-31.572z"/><path fill-rule="evenodd" clip-rule="evenodd" d="M434.769 133.326l-98.486 20.919c-8.281 23.33-12.403 38.494-9.565 58.83 29.939-9.565 78.113-27.49 124.77-20.375-19.168-22.785-31.727-39.427-16.719-59.374zm-17.651-55.91l-62.754 18.43c-5.677 20.997-12.481 25.119-6.454 46.932a133.437 133.437 0 0188.299-10.187c-18.08-20.491-34.993-40.827-19.091-55.175zm34.646 117.621l-127.725 28.268c-13.103 50.198-23.678 67.773-13.919 121.47 57.972-28.851 112.172-33.906 173.605-13.648-33.283-51.869-64.193-103.35-31.961-136.09z"/><path fill-rule="evenodd" clip-rule="evenodd" d="M473.925 321.99l-152.647 24.846c-14.464 44.288-20.063 55.059-11.393 103.351 59.489-23.33 114.583-25.974 176.482-5.482-24.145-47.593-37.481-89.664-12.442-122.715zM336.713 161.828C217.114 232.284 175.706 245.854 86.279 315.61c46.852-8.749 74.885-10.965 109.14 11.976 1.555-48.098 55.172-97.168 141.294-165.758z"/><path fill-rule="evenodd" clip-rule="evenodd" d="M374.773 201.219c-109.217 70.456-169.755 98.062-258.288 159.031 63.766-15.748 108.596-8.321 139.973 14.62 1.205-48.254 31.805-106.812 118.315-173.651z"/><path fill-rule="evenodd" clip-rule="evenodd" d="M351.756 234.93c-65.126 72.788-103.502 104.984-155.525 166.652 45.374-16.603 77.063-5.133 101.091 12.015-8.476-35.112 5.055-112.994 54.434-178.667z"/><path d="M674.629 305.39v-.622l48.873 3.382v.623h.428l58.322 161.169h-1.244l-2.761-7.776h-7.776l2.644 7.776h-1.244l-2.644-7.776h-7.776l2.488 7.776h-1.283l-2.45-7.776h-7.776l2.333 7.776h-1.244l-2.294-7.776h-7.776l2.177 7.776h-1.244l-2.178-7.776h-7.776l2.022 7.776h-1.244l-2.022-7.776h-7.776l1.905 7.776h-1.244l-1.867-7.776h-7.776l1.75 7.776h-2.022l-1.75-7.776h-7.776l1.594 7.776h-1.283l-32.66-164.591.35.039zm40.825 58.324l3.577 12.754 6.454.233-3.888-12.754-6.143-.233zm5.871-1.05l-3.888-12.714h-5.91l3.577 12.753 6.221-.039zm-1.944 15.087l3.616 12.753h6.688l-3.889-12.753h-6.415zm3.888 14.037l3.577 12.753h6.921l-3.888-12.753h-6.61zm-1.05 0h-6.726l3.344 12.792h6.921l-3.539-12.792zm-.35-1.245l-3.577-12.792h-6.454l3.344 12.792h6.687zm-3.888-14.036l-3.538-12.793-6.221-.233 3.305 12.792 6.454.234zm-3.888-14.076l-3.499-12.481-6.104-.389 3.343 12.792 6.26.078zm-3.888-14.037l-3.577-12.792-5.754-.272 3.343 12.792 5.988.272zm.933 0l5.988.272-3.888-12.753-5.755-.272 3.655 12.753zm6.921.311l5.871.467-3.888-12.715-5.793-.272 3.81 12.52zm.35 1.283l3.888 12.754 6.221.233-3.888-12.714-6.221-.273zm4.238 13.998l3.888 12.754h6.454l-3.888-12.715-6.454-.039zm4.199 13.998l3.888 12.754h6.688l-3.888-12.715-6.688-.039zm4.199 13.998l3.889 12.754h6.92l-3.888-12.715-6.921-.039zm4.2 13.998l3.888 12.753h7.154l-3.888-12.714-7.154-.039zm-1.05 0h-6.96l3.577 12.753h7.154l-3.771-12.753zm-8.049 0h-6.959l3.343 12.792h7.155l-3.539-12.792zm-8.009 0h-6.96l3.111 12.87h7.154l-3.305-12.87zm-.35-1.283l-3.305-12.793h-6.688l3.111 12.482 6.882.311zm-3.616-14.076l-3.305-12.792h-6.493l3.11 12.831 6.688-.039zm-3.655-14.076l-3.266-12.792-6.26-.233 3.111 12.831 6.415.194zM706.9 362.47l-3.305-12.793-5.987-.272 2.993 12.676 6.299.389zm-3.616-14.076l-3.305-12.792-5.793-.311 3.111 12.831 5.987.272zm-3.655-14.075l-3.305-12.832-5.521-.311 3.072 12.832 5.754.311zm.972.077h5.716l-3.538-12.792-5.521-.311 3.343 13.103zm6.61 0l5.755.311-3.888-12.753-5.561-.311 3.694 12.753zm6.649.35l5.754.311-3.888-12.714-5.521-.311 3.655 12.714zm6.649.35l5.754.311-4.277-12.676h-5.521l4.044 12.365zm.427 1.283l4.083 12.715 5.988.272-4.316-12.714-5.755-.273zm4.472 13.959l3.888 12.715 6.221.233-4.277-12.675-5.832-.273zm4.471 13.959l3.888 12.715h6.454l-4.277-12.676-6.065-.039zm4.471 13.959l3.888 12.715h6.688l-4.277-12.715h-6.299zm4.511 13.959l3.888 12.715h6.959l-4.16-12.209-6.687-.506zm4.51 14.115l3.888 12.714h7.154l-4.316-12.675-6.726-.039zm4.471 13.998l3.888 12.675h7.388l-4.277-12.675h-6.999zm-1.127 0h-7.155l3.889 12.753h7.387l-4.121-12.753zm-8.282 0h-7.193l3.577 12.753h7.426l-3.81-12.753zm-8.321 0h-7.154l3.344 12.792h7.387l-3.577-12.792zm-8.281 0h-7.193l3.11 12.87h7.387l-3.304-12.87zm-8.282 0h-7.193l2.838 12.87h7.388l-3.033-12.87zm-.311-1.284l-3.072-12.831h-6.921l2.839 12.87 7.154-.039zm-3.383-14.114l-3.033-12.831h-6.726l2.799 12.287 6.96.544zm-3.344-14.115l-3.071-12.831-6.493-.816 2.838 12.87 6.726.777zm-3.343-14.114l-3.072-12.831-6.26-.273 2.877 12.365 6.455.739zm-3.383-14.115l-3.033-12.831-6.026-.272 2.838 12.87 6.221.233zm-3.344-14.114l-3.072-12.87-5.754-.272 2.838 12.87 5.988.272zm-3.616-14.659l-3.033-12.87-5.56-.311 2.839 12.87 5.754.311zm-3.344-14.114l-3.071-12.871-5.249-.35 2.838 12.871 5.482.35zm.856 0l5.521.35-3.033-12.871-5.288-.35 2.8 12.871zm6.376.388l5.521.35-3.538-12.792-5.132-.467 3.149 12.909zm6.377.389l5.521.35-3.888-12.753-5.288-.35 3.655 12.753zm6.376.389l5.521.35-3.888-12.715-5.288-.388 3.655 12.753zm6.377.389l5.521.35-4.277-12.676-5.327-.389 4.083 12.715zm6.376.389l5.599.389-4.51-12.637-5.327-.389 4.238 12.637zm.428 1.244l4.316 12.715 5.754.272-4.51-12.637-5.56-.35zm4.744 13.959l4.549 12.715 5.987.389-4.549-12.676-5.987-.428zm4.782 13.92l4.316 12.676 6.221.233-4.549-12.637-5.988-.272zm4.938 13.959l4.316 12.676 6.454.233-4.51-12.676-6.26-.233zm4.743 13.92l4.316 12.676h6.688l-4.51-12.637-6.494-.039zm4.744 14.076l4.316 12.676h6.921l-4.511-12.676h-6.726zm4.549 13.803l4.316 12.676h7.193l-4.549-12.637-6.96-.039zm4.743 13.92l4.355 12.676h7.388l-4.549-12.637-7.194-.039zm4.783 13.92l4.51 12.793h7.776l-4.549-12.637-7.737-.156zm-1.167 0h-7.426l4.277 12.793h7.776l-4.627-12.793zm-8.553 0h-7.427l3.888 12.754h7.621l-4.082-12.754zm-8.593 0h-7.426l3.615 12.793h7.777l-3.966-12.793zm-8.554 0h-7.426l3.343 12.793h7.777l-3.694-12.793zm-8.593 0h-7.387l3.071 12.832h7.777l-3.461-12.832zm-8.554 0h-7.426l3.033 12.326h7.776l-3.383-12.326zm-8.554 0h-7.426l2.605 12.909h7.776l-2.955-12.909zm-.311-1.244l-2.799-12.909h-7.154l2.76 12.248 7.193.661zm-3.071-14.153l-2.8-12.909h-6.959l2.605 12.909h7.154zm-3.072-14.154l-2.838-12.909h-6.688l2.605 12.909h6.921zm-3.11-14.153l-2.605-13.492h-6.494l2.606 12.909 6.493.583zm-3.072-14.153l-2.644-13.493-6.221-.233 2.605 12.909 6.26.817zm-3.11-14.154l-2.8-12.87-6.026-.272 2.799 12.403 6.027.739zm-3.072-14.153l-2.799-12.909-5.599-.895 2.605 12.91 5.793.894zm-3.111-14.154l-2.799-12.909-5.521-.311 2.566 12.909 5.754.311zm-3.071-14.153l-2.8-12.87-5.326-.389 2.799 12.209 5.327 1.05zm94.481 141.689l-4.549-12.637h-7.776l4.316 12.676 8.009-.039zm-9.098 0l-4.277-12.675h-7.776l4.082 12.714 7.971-.039zm-9.059 0l-3.888-12.714h-7.777l3.888 12.714h7.777zm-9.099 0l-3.888-12.753h-7.776l3.577 12.792 8.087-.039zm-9.098 0l-3.538-12.792h-7.776l3.344 12.792h7.97zm-9.059 0l-3.305-12.831h-7.776l3.11 12.831h7.971zm-9.098 0l-3.072-12.831h-7.776l2.838 12.87 8.01-.039zm-9.098 0l-2.8-12.87h-7.776l2.605 12.909 7.971-.039zM526.57 258.881v-.895l69.558 4.861.311.894h.583l83.128 230.07h-1.788l-3.888-11.004h-11.237l3.888 11.043h-1.788l-3.888-11.043h-11.393l3.655 11.004h-1.788l-3.5-11.081h-11.275l3.344 11.081h-1.789l-3.305-11.081h-11.237l3.111 11.12h-1.789l-3.071-11.12h-11.237l2.877 11.081h-1.788l-2.877-11.159H598.15l2.683 11.159h-1.75l-2.683-11.198h-11.236l2.449 11.198h-1.75l-2.449-11.198h-11.12l2.138 11.198h-1.788L525.986 258.92l.584-.039zm58.321 83.52l5.133 18.197 9.215.311-5.444-18.197-8.904-.311zm8.399-1.477l-5.444-18.198-8.553-.388 5.093 18.236 8.904.35zm-2.761 21.502l5.094 18.236 9.487.389-5.599-18.353-8.982-.272zm5.599 20.025l5.132 18.236h9.876l-5.404-18.198-9.604-.038zm-1.477 0l-9.565-.273 4.666 18.314h9.759l-4.86-18.041zm-.506-1.789l-5.054-18.275-9.254-.272 4.782 18.275 9.526.272zm-5.56-20.064l-5.132-18.43h-8.904l4.744 18.275 9.292.155zm-5.56-20.024l-5.093-18.236-8.554-.389 4.743 18.275 8.904.35zm-5.56-20.064l-5.171-18.275-8.243-.428 4.782 18.275 8.632.428zm1.322 0l8.554.389-5.443-18.197-8.243-.428 5.132 18.236zm9.876.467l8.554.388-5.871-18.08-8.243-.428 5.56 18.12zm.544 1.788l5.444 18.159 8.748.388-5.793-18.119-8.399-.428zm5.988 19.986l5.482 18.158 9.215.311-5.793-18.158-8.904-.311zm5.949 20.025l5.443 18.275h9.565l-5.793-18.159-9.215-.116zm6.143 19.947l5.482 18.197h9.876l-5.793-18.12-9.565-.077zm5.988 19.986l5.482 18.197h10.226l-6.144-17.964-9.564-.233zm-1.517 0h-9.914l5.093 18.236h10.226l-5.405-18.236zm-11.664-.234h-9.915l4.783 18.275h10.187l-5.055-18.275zm-11.431-.233h-9.915l4.433 18.081h10.225l-4.743-18.081zm-.467-1.789l-4.743-18.314-9.565-.233 4.394 18.314 9.914.233zm-5.21-20.102l-4.704-18.275-9.215-.467 4.432 18.314 9.487.428zm-5.171-20.103l-4.705-18.275-8.903-.35 4.393 18.353 9.215.272zm-5.171-20.063l-4.705-18.314-8.593-.389 4.394 18.353 8.904.35zm-5.171-20.103l-4.744-18.275-8.243-.427 4.433 18.314 8.554.388zm-5.21-20.102l-4.705-18.275-7.776-.467 4.315 18.159 8.166.583zm1.283 0l8.204.428-5.055-18.236-7.776-.467 4.627 18.275zm9.487.505l8.204.428-5.405-18.197-7.776-.467 4.977 18.236zm9.487.506l8.204.428-5.755-18.159-7.776-.466 5.327 18.197zm9.487.505l8.204.428-6.066-18.081-7.776-.505 5.638 18.158zm.583 1.789l5.832 18.119 8.515.389-6.104-18.08-8.243-.428zm6.376 19.908l5.833 18.158 8.865.35-6.105-18.119-8.593-.389zm6.416 19.947l5.793 18.158 9.254.311-6.105-18.08-8.942-.389zm6.376 19.908l5.833 18.158 9.525.234-6.104-18.081-9.254-.311zm6.416 19.947l5.793 18.119 9.876.234-6.104-18.12-9.565-.233zm6.376 19.908l5.832 18.158h10.187l-6.065-17.886-9.954-.272zm6.377 19.947l5.832 18.119h10.537l-6.105-18.08-10.264-.039zm-1.594 0h-10.226l5.443 18.197h10.576l-5.793-18.197zm-11.665 0h-10.264l5.132 18.236h10.537l-5.405-18.236zm-11.664 0h-10.226l4.744 18.275h10.575l-5.093-18.275zm-11.664 0h-10.265l3.771 17.614h10.537l-4.043-17.614zm-11.665 0h-10.226l3.889 18.353h10.536l-4.199-18.353zm-.428-1.828l-4.354-18.313h-9.915l3.888 18.352 10.381-.039zm-4.782-20.141l-5.171-19.053-9.604-.233 4.083 18.353 10.692.933zm-4.782-20.141l-5.055-19.131-9.215-.311 3.888 18.392 10.382 1.05zm-4.822-20.142l-4.354-18.313-8.904-.35 3.888 18.391 9.37.272zm-4.782-20.141l-4.355-18.314-8.592-.389 4.082 18.353 8.865.35zm-4.782-20.141l-4.394-18.314-8.826-1.167 3.888 18.353 9.332 1.128zm-5.444-20.919l-4.354-18.314-7.777-.506 3.888 18.392 8.243.428zm-4.782-20.142l-4.355-18.314-7.776-.544 3.888 18.392 8.243.466zm1.244 0l7.776.467-4.704-18.275-7.777-.506 4.705 18.314zm9.059.7l7.777.506-5.055-18.236-7.776-.545 5.054 18.275zm9.099.583l7.776.467-5.405-18.197-7.776-.506 5.405 18.236zm9.098.545l7.776.466-5.754-18.119-7.777-.544 5.755 18.197zm9.098.544l7.776.506-6.104-18.12-7.776-.505 6.104 18.119zm9.098.545l7.776.505-6.493-18.042-7.776-.544 6.493 18.081zm.622 1.788l6.144 18.12 8.203.427-6.337-18.08-8.01-.467zm6.766 19.908l6.182 18.081 8.515.389-6.455-18.042-8.242-.428zm6.765 19.869l6.143 18.042 8.904.389-6.454-18.042-8.593-.389zm6.804 19.87l6.143 18.002 9.215.311-6.454-18.041-8.904-.272zm6.766 19.869l6.182 18.041 9.526.273-6.455-18.042-9.253-.272zm6.765 19.869l6.182 18.08 9.876.234-6.454-18.042-9.604-.272zm6.804 19.869l6.221 18.081h10.226l-6.454-18.042-9.993-.039zm6.765 19.869l6.183 18.081h10.536l-6.493-18.042-10.226-.039zm6.766 19.869l6.182 18.081h10.887l-6.494-17.77-10.575-.311zm-1.633 0h-10.576l5.793 18.159h10.887l-6.104-18.159zm-12.248 0h-10.576l5.483 17.925h10.886l-5.793-17.925zm-12.209 0h-10.575l5.093 18.236h10.887l-5.405-18.236zm-12.247 0h-10.576l4.783 18.275h10.886l-5.093-18.275zm-12.209 0h-10.576l4.394 18.314h10.887l-4.705-18.314zm-12.247 0h-10.576l3.888 18.392h10.887l-4.199-18.392zm-12.209 0h-10.576l3.694 18.431h10.887l-4.005-18.431zm-.389-1.827l-3.888-18.392h-10.265l3.888 18.431 10.265-.039zm-4.432-20.18l-3.889-18.392h-9.914l3.888 18.392h9.915zm-4.394-20.219l-3.888-18.392-9.565-.233 3.888 18.43 9.565.195zm-4.394-20.181l-3.888-18.391-9.253-.311 3.693 18.43 9.448.272zm-4.432-20.219l-3.888-18.353-8.904-.35 3.888 18.431 8.904.272zm-4.394-20.18l-3.888-18.392-8.592-.389 3.888 18.431 8.592.35zm-4.393-20.18l-3.888-18.392-8.204-.428 3.538 17.692 8.554 1.128zm-4.433-20.219l-3.888-18.392-7.776-.467 3.888 18.431 7.776.428zm-4.393-20.181l-3.888-18.391-7.777-.506 3.889 18.392 7.776.505zm134.84 202.192l-6.493-18.042h-10.887l6.143 18.08 11.237-.038zm-12.986 0l-6.105-19.053h-10.925l5.832 18.119 11.198.934zm-12.948 0l-5.754-19.053H631.16l5.443 18.158 11.237.895zm-12.986 0l-5.405-19.053h-10.925l5.132 18.236 11.198.817zm-12.948 0l-5.054-18.237h-10.926l4.744 18.275 11.236-.038zm-12.986 0l-4.705-18.314h-10.886l4.393 18.314h11.198zm-12.947 0l-4.238-19.364h-10.926l3.888 18.391 11.276.973zm-12.948 0l-3.888-18.392H568.25l3.888 18.43 10.887-.038z"/></g><defs><clipPath id="clip0"><path fill="#fff" transform="matrix(-1 0 0 1 930 0)" d="M0 0h930v543H0z"/></clipPath></defs></svg>