<svg width="68" height="73" fill="none" xmlns="http://www.w3.org/2000/svg"><path d="M64 64.155l-.035-.03.035-.04-.902-.763-6.306-5.8s-.111.115-.294.285l-.167.181c-1.438 1.33-6.048 5.179-11.458 5.254h-.35c-2.846-.306-5.622-1.822-8.438-4.627-4.675-4.676-9.877-7.2-15.474-7.536h-.466a20.487 20.487 0 00-2.533-.066c-8.429.342-14.69 5.942-16.817 8.1-.456.406-.73.697-.79.747l.03.03a.175.175 0 01-.035.045l.902.753 6.306 5.805.294-.29.167-.181c1.433-1.335 6.048-5.184 11.458-5.254h.344c2.852.306 5.622 1.822 8.439 4.626 4.68 4.657 9.872 7.181 15.47 7.527h.465c.842.075 1.688.096 2.533.066 8.428-.342 14.69-5.937 16.817-8.094.44-.422.719-.708.775-.768" fill="#EFC825"/><g clip-path="url(#clip0)" fill="#5A2E91"><path d="M58.613 21.103h.474c2.974-.02 5.249-.815 6.76-2.364 1.479-1.515 2.202-3.722 2.15-6.559a1.25 1.25 0 00-1.25-1.227h-8.149a8.894 8.894 0 00-7.297-3.814 8.847 8.847 0 00-4.59 1.277V5.79a1.25 1.25 0 00-2.5 0v3.107l-3.313-1.629a1.25 1.25 0 10-1.102 2.243l3.896 1.915a8.892 8.892 0 002.373 11.804l-3.492 18.39H12.748C7.924 41.618 4 45.542 4 50.365v.347c0 4.824 3.924 8.748 8.748 8.748h38.705c4.823 0 8.747-3.924 8.747-8.748v-.347c0-.646-.072-1.275-.205-1.881l-1.666-11.887a1.247 1.247 0 00-.082-.58l-1.785-12.736a8.965 8.965 0 002.151-2.18zm6.846-7.65c-.137 1.538-.606 2.726-1.4 3.54-.911.934-2.334 1.465-4.23 1.584a8.87 8.87 0 00-.013-5.124h5.643zm-20.56 2.586c0-3.53 2.872-6.4 6.402-6.4 3.529 0 6.4 2.87 6.4 6.4 0 3.53-2.871 6.4-6.4 6.4a6.407 6.407 0 01-6.401-6.4zm6.554 40.923H12.747c-3.078 0-5.641-2.239-6.153-5.173h5.624a1.25 1.25 0 000-2.5H6.594a6.256 6.256 0 016.154-5.171h38.705c2.953 0 5.432 2.06 6.081 4.817l.05.355h-37.29a1.25 1.25 0 000 2.5h37.313c-.512 2.934-3.076 5.172-6.154 5.172zm3.443-26.851h-4.32a1.25 1.25 0 000 2.5h4.67l.367 2.614h-5.037a1.25 1.25 0 000 2.5h5.387l.798 5.695a8.702 8.702 0 00-5.308-1.802h-6.336l3.262-17.174a8.856 8.856 0 005.728.039l.789 5.628z"/><path d="M17.293 50.061a1.256 1.256 0 00-.46-.56 1.257 1.257 0 00-1.388 0c-.92.604-.631 2.058.45 2.264.956.209 1.79-.805 1.398-1.704zM50.32 16.084c.69 0 1.25-.56 1.25-1.25a.722.722 0 011.443 0 1.25 1.25 0 002.499 0 3.224 3.224 0 00-3.22-3.22 3.225 3.225 0 00-3.222 3.22c0 .69.56 1.25 1.25 1.25z"/></g><defs><clipPath id="clip0"><path fill="#fff" transform="translate(4)" d="M0 0h64v64H0z"/></clipPath></defs></svg>