<svg width="75" height="77" fill="none" xmlns="http://www.w3.org/2000/svg"><path d="M71.627 9.232a3.925 3.925 0 00-3.92-3.92 3.88 3.88 0 00-1.5.299 3.926 3.926 0 00-3.831-3.089c-.555 0-1.083.116-1.562.325A3.926 3.926 0 0057.044 0a3.927 3.927 0 00-3.769 2.847 3.89 3.89 0 00-1.56-.325 3.924 3.924 0 00-3.92 3.92v9.821a3.986 3.986 0 00-3.59-1.196 3.95 3.95 0 00-2.773 1.962 3.736 3.736 0 00-3.136-.193 3.769 3.769 0 00-3.657-2.88c-.502 0-.982.1-1.42.28a3.769 3.769 0 00-3.595-2.652 3.769 3.769 0 00-3.595 2.652 3.738 3.738 0 00-1.42-.28 3.767 3.767 0 00-3.762 3.763v9.06a3.822 3.822 0 00-3.316-1.018 3.79 3.79 0 00-2.486 1.601 3.791 3.791 0 00-.597 2.897l1.316 6.67a13.509 13.509 0 003.729 6.978l2.348 2.342v3.999h-1.323c-.69 0-1.25.56-1.25 1.25V62.75a1.25 1.25 0 102.5 0V52.748h16.316V62.75a1.25 1.25 0 102.5 0V51.498c0-.69-.56-1.25-1.25-1.25h-1.29v-3.999l1.388-1.384a13.468 13.468 0 003.984-9.601V30.03a14.3 14.3 0 002.916 4.192l2.52 2.512v4.891h-1.486c-.69 0-1.25.56-1.25 1.25V62.75a1.25 1.25 0 102.5 0V49.125h6.05a1.25 1.25 0 100-2.5h-6.05v-2.5h17.5V62.75a1.25 1.25 0 102.5 0V42.875c0-.69-.56-1.25-1.25-1.25h-1.45v-4.891l1.498-1.494a14.24 14.24 0 004.212-10.15v-1.298a1.25 1.25 0 10-2.5 0v1.298c0 3.167-1.234 6.143-3.477 8.38l-1.866 1.86a1.25 1.25 0 00-.367.885v5.41H51.352v-5.41c0-.332-.133-.65-.368-.885l-2.887-2.878a11.793 11.793 0 01-3.254-6.09l-1.398-7.09a1.467 1.467 0 01.23-1.123 1.481 1.481 0 012.656.484l.724 2.947c.2.82.954 1.341 1.793 1.24a1.625 1.625 0 001.446-1.631V6.442c0-.783.637-1.42 1.42-1.42.73 0 1.332.553 1.411 1.262V14.5c0 .05.003.099.01.147v.803a1.25 1.25 0 102.5 0V6.44c0-.086-.005-.171-.01-.257V3.92c0-.783.637-1.42 1.42-1.42.783 0 1.42.637 1.42 1.42v2.264c-.006.086-.01.171-.01.258V14.5c0 .05.005.099.01.147v.803a1.25 1.25 0 002.5 0V6.284a1.421 1.421 0 011.41-1.262c.784 0 1.42.637 1.42 1.42v2.532a4.416 4.416 0 00-.009.258V14.5c0 .05.004.099.01.147v.803a1.25 1.25 0 002.5 0V9.073a1.422 1.422 0 011.41-1.261c.783 0 1.42.637 1.42 1.42v4.56a1.25 1.25 0 102.5 0v-4.56zm-30.71 26.032c0 2.96-1.155 5.74-3.25 7.83l-1.756 1.751a1.25 1.25 0 00-.368.886v4.517H24.341v-4.517c0-.333-.132-.651-.367-.886l-2.716-2.708a11.018 11.018 0 01-3.041-5.692l-1.316-6.67c-.069-.35.004-.705.206-1a1.31 1.31 0 01.858-.552 1.32 1.32 0 011.508.983l.68 2.773a1.6 1.6 0 001.768 1.222 1.601 1.601 0 001.426-1.608V17.719c0-.696.566-1.263 1.262-1.263.647 0 1.181.49 1.253 1.12V25.3c0 .049.003.096.009.143v.75a1.25 1.25 0 002.5 0V17.72c0-.082-.004-.163-.01-.244v-2.129a1.263 1.263 0 012.525 0v2.127a3.71 3.71 0 00-.009.246v7.58c0 .049.004.097.01.144v.75a1.25 1.25 0 002.5 0v-8.62a1.263 1.263 0 011.252-1.119c.696 0 1.262.567 1.262 1.263v2.38a3.698 3.698 0 00-.008.245V25.3c0 .049.003.097.008.144v.75a1.25 1.25 0 002.5 0v-5.996a1.264 1.264 0 011.254-1.118c.696 0 1.261.567 1.261 1.263v14.92z" fill="#472880"/><path d="M70.375 17.541c-.33 0-.651.134-.884.367a1.257 1.257 0 00-.366.883c0 .33.133.651.366.885a1.255 1.255 0 001.767 0 1.253 1.253 0 00-.883-2.135zM59.663 46.625c-.328 0-.65.134-.884.366a1.26 1.26 0 00-.365.884c0 .329.133.651.365.884.234.232.555.366.884.366.33 0 .652-.134.885-.366.233-.233.366-.555.366-.884 0-.329-.133-.651-.366-.884a1.261 1.261 0 00-.885-.366z" fill="#472880"/><path d="M64 68.155l-.035-.03.035-.04-.902-.763-6.306-5.8s-.111.115-.294.285l-.167.181c-1.438 1.33-6.048 5.179-11.458 5.254h-.35c-2.846-.306-5.622-1.822-8.438-4.627-4.675-4.676-9.877-7.2-15.474-7.536h-.466a20.487 20.487 0 00-2.533-.066c-8.429.342-14.69 5.942-16.817 8.1-.456.406-.73.697-.79.747l.03.03a.175.175 0 01-.035.045l.902.753 6.306 5.805.294-.29.167-.181c1.433-1.335 6.048-5.184 11.458-5.254h.344c2.852.306 5.622 1.822 8.439 4.626 4.68 4.657 9.872 7.181 15.47 7.527h.465c.842.075 1.688.096 2.533.066 8.428-.342 14.69-5.937 16.817-8.094.44-.422.719-.708.775-.768" fill="#EFC825"/></svg>