<svg width="67" height="64" viewBox="0 0 67 64" fill="none" xmlns="http://www.w3.org/2000/svg">
<rect x="67" y="50" width="10" height="57" transform="rotate(90 67 50)" fill="#715F7A"/>
<path d="M37.5143 19.5591C37.5168 18.5517 37.2204 17.5661 36.6625 16.7272C36.1045 15.8882 35.3103 15.2337 34.3802 14.8464C33.4501 14.4592 32.4261 14.3565 31.4376 14.5516C30.4492 14.7466 29.5408 15.2305 28.8276 15.942C28.1143 16.6536 27.6282 17.5607 27.4307 18.5487C27.2333 19.5366 27.3334 20.561 27.7185 21.492C28.1035 22.423 28.7561 23.2189 29.5936 23.7788C30.4312 24.3387 31.416 24.6376 32.4235 24.6375C33.7716 24.6376 35.0646 24.103 36.019 23.151C36.9733 22.1989 37.5111 20.9072 37.5143 19.5591ZM32.4235 23.1375C31.7164 23.135 31.0258 22.9231 30.439 22.5284C29.8522 22.1337 29.3955 21.574 29.1266 20.92C28.8577 20.2659 28.7886 19.5469 28.928 18.8536C29.0675 18.1603 29.4093 17.5239 29.9102 17.0247C30.4111 16.5255 31.0487 16.186 31.7425 16.0489C32.4362 15.9118 33.155 15.9834 33.8081 16.2546C34.4613 16.5257 35.0194 16.9844 35.412 17.5725C35.8047 18.1607 36.0143 18.852 36.0143 19.5591C36.0115 20.5095 35.6319 21.4199 34.9588 22.0908C34.2856 22.7616 33.3739 23.138 32.4235 23.1375Z" fill="#5A2E91"/>
<path d="M15.8703 32.1375C15.1754 32.1391 14.4965 32.3467 13.9196 32.7339C13.3426 33.1212 12.8933 33.6708 12.6285 34.3133C12.3637 34.9557 12.2953 35.6623 12.4318 36.3436C12.5684 37.025 12.9039 37.6506 13.3958 38.1414C13.8878 38.6321 14.5142 38.9661 15.1958 39.1011C15.8775 39.236 16.5839 39.1659 17.2257 38.8996C17.8676 38.6333 18.4161 38.1827 18.802 37.6048C19.1879 37.0269 19.3938 36.3475 19.3938 35.6526C19.3916 34.7196 19.0194 33.8255 18.3589 33.1665C17.6983 32.5075 16.8033 32.1374 15.8703 32.1375ZM15.8703 37.6679C15.4721 37.6662 15.0832 37.5467 14.7529 37.3242C14.4226 37.1018 14.1656 36.7865 14.0143 36.4181C13.8631 36.0497 13.8243 35.6448 13.903 35.2544C13.9817 34.8641 14.1743 34.5057 14.4564 34.2247C14.7386 33.9437 15.0977 33.7526 15.4884 33.6755C15.8791 33.5984 16.2839 33.6388 16.6516 33.7916C17.0194 33.9443 17.3336 34.2026 17.5547 34.5339C17.7758 34.8651 17.8938 35.2544 17.8938 35.6526C17.8922 36.1881 17.6782 36.7011 17.2989 37.079C16.9195 37.4569 16.4057 37.6688 15.8703 37.6684V37.6679Z" fill="#5A2E91"/>
<path d="M38.1307 38.6727C37.5352 38.6741 36.9534 38.8519 36.4589 39.1837C35.9644 39.5156 35.5794 39.9865 35.3524 40.5371C35.1254 41.0877 35.0667 41.6932 35.1837 42.2771C35.3007 42.861 35.5882 43.3972 36.0097 43.8178C36.4313 44.2384 36.9681 44.5247 37.5523 44.6404C38.1364 44.7561 38.7418 44.696 39.2919 44.4678C39.842 44.2396 40.312 43.8535 40.6428 43.3582C40.9735 42.8629 41.15 42.2808 41.15 41.6853C41.1482 40.8857 40.8293 40.1194 40.2633 39.5547C39.6973 38.9899 38.9303 38.6727 38.1307 38.6727ZM38.1307 43.1978C37.8319 43.1964 37.5401 43.1066 37.2923 42.9396C37.0445 42.7726 36.8516 42.5359 36.7382 42.2594C36.6248 41.9829 36.5958 41.679 36.6549 41.3861C36.714 41.0931 36.8586 40.8242 37.0704 40.6134C37.2822 40.4025 37.5517 40.2592 37.8449 40.2013C38.1381 40.1435 38.4419 40.1739 38.7179 40.2885C38.9938 40.4032 39.2297 40.5971 39.3956 40.8457C39.5615 41.0942 39.65 41.3864 39.65 41.6853C39.6486 42.0871 39.4879 42.472 39.2031 42.7556C38.9183 43.0391 38.5326 43.1981 38.1307 43.1976V43.1978Z" fill="#5A2E91"/>
<path d="M54.1677 28.4144C54.7632 28.413 55.345 28.2352 55.8395 27.9034C56.334 27.5716 56.7191 27.1006 56.946 26.55C57.173 25.9995 57.2317 25.394 57.1147 24.81C56.9977 24.2261 56.7103 23.69 56.2887 23.2693C55.8671 22.8487 55.3303 22.5625 54.7462 22.4468C54.162 22.3311 53.5566 22.3911 53.0065 22.6193C52.4565 22.8475 51.9864 23.2337 51.6557 23.7289C51.3249 24.2242 51.1484 24.8063 51.1484 25.4019C51.1502 26.2015 51.4691 26.9677 52.0351 27.5324C52.6012 28.0972 53.3681 28.4144 54.1677 28.4144ZM54.1677 23.8894C54.4665 23.8907 54.7583 23.9805 55.0061 24.1475C55.254 24.3145 55.4468 24.5512 55.5602 24.8277C55.6737 25.1042 55.7027 25.4081 55.6435 25.7011C55.5844 25.994 55.4398 26.2629 55.228 26.4737C55.0163 26.6846 54.7467 26.828 54.4535 26.8858C54.1603 26.9436 53.8566 26.9133 53.5806 26.7986C53.3046 26.6839 53.0688 26.49 52.9029 26.2415C52.737 25.9929 52.6484 25.7007 52.6484 25.4019C52.6498 25 52.8105 24.615 53.0953 24.3315C53.3801 24.0479 53.7658 23.8889 54.1677 23.8894Z" fill="#5A2E91"/>
<path d="M56.3551 31.3184L58.3332 28.6819C59.0951 27.6871 59.4741 26.4515 59.401 25.2006C59.2228 22.4711 56.9872 20.3328 54.3112 20.3328C51.6352 20.3328 49.4 22.4711 49.2215 25.2C49.1828 25.8196 49.2599 26.441 49.4488 27.0324L37.0783 27.2593L38.9875 24.7134C40.206 23.1243 40.8125 21.15 40.6965 19.1509C40.5651 17.1059 39.6958 15.1781 38.2501 13.7259C37.5052 12.9804 36.6208 12.3891 35.6473 11.9856C34.6738 11.5822 33.6303 11.3745 32.5765 11.3745C31.5227 11.3745 30.4793 11.5822 29.5058 11.9856C28.5323 12.3891 27.6478 12.9804 26.903 13.7259C25.4575 15.1778 24.5882 17.1051 24.4567 19.1496C24.3292 21.056 24.934 23.0289 26.165 24.7121L27.8165 26.9132L10.2375 27.0291C10.0819 27.0301 9.93045 27.0795 9.80418 27.1704C9.67791 27.2613 9.58304 27.3893 9.53271 27.5365L1.29033 51.6324C1.25173 51.7453 1.24062 51.8658 1.25794 51.9838C1.27525 52.1019 1.32048 52.2141 1.38988 52.3112C1.45927 52.4082 1.55082 52.4874 1.65693 52.5419C1.76303 52.5965 1.88063 52.625 1.99995 52.625H62C62.1176 52.625 62.2336 52.5973 62.3386 52.5442C62.4436 52.491 62.5346 52.414 62.6042 52.3192C62.6739 52.2244 62.7203 52.1145 62.7397 51.9984C62.759 51.8824 62.7508 51.7634 62.7157 51.6511L56.3551 31.3184ZM50.7176 25.2984C50.8287 23.5949 52.203 21.8328 54.3106 21.8328C56.4182 21.8328 57.7923 23.5953 57.9036 25.3004C57.9528 26.1928 57.6794 27.0732 57.1333 27.7809L54.3106 31.5434L51.4932 27.7884C50.9513 27.0747 50.677 26.1935 50.7182 25.2984H50.7176ZM50.175 28.5187C50.2125 28.5732 50.25 28.6275 50.2887 28.6812L53.7113 33.2438C53.7812 33.3369 53.8718 33.4125 53.9759 33.4646C54.0801 33.5166 54.1949 33.5438 54.3113 33.5438C54.4278 33.5438 54.5426 33.5166 54.6467 33.4646C54.7509 33.4125 54.8415 33.3369 54.9113 33.2438L55.2462 32.7975L56.0988 35.5234L44.4701 35.526L43.6275 28.6396L50.175 28.5187ZM27.3708 23.8199C26.3531 22.4283 25.8498 20.8053 25.954 19.249C26.0616 17.5666 26.7765 15.9805 27.9656 14.7855C28.5711 14.1798 29.29 13.6993 30.0813 13.3715C30.8725 13.0437 31.7206 12.875 32.577 12.875C33.4335 12.875 34.2815 13.0437 35.0728 13.3715C35.864 13.6993 36.5829 14.1798 37.1885 14.7855C38.3782 15.981 39.0934 17.5679 39.201 19.2511C39.2927 20.8918 38.7914 22.5107 37.7887 23.8125L32.5771 30.7589L27.3708 23.8199ZM3.0492 51.125L6.94545 39.7344L11.3815 39.7209L15.4447 45.1366C15.5146 45.2298 15.6052 45.3054 15.7093 45.3574C15.8134 45.4095 15.9283 45.4366 16.0447 45.4366C16.1611 45.4366 16.276 45.4095 16.3801 45.3574C16.4843 45.3054 16.5748 45.2298 16.6447 45.1366L19.8822 40.8209L19.9221 51.125H3.0492ZM19.628 38.6608L16.0446 43.4367L12.4667 38.6681C11.7633 37.7056 11.4152 36.587 11.487 35.5158C11.6277 33.357 13.3711 31.1241 16.0446 31.1241C18.7181 31.1241 20.4615 33.357 20.6025 35.5179C20.6651 36.6485 20.3192 37.7639 19.628 38.6608ZM31.4486 43.2625C31.3778 43.3323 31.3215 43.4155 31.2832 43.5072C31.2448 43.599 31.225 43.6974 31.2251 43.7969L31.2291 51.125H21.4221L21.375 38.7014C21.919 37.6963 22.1702 36.5588 22.1 35.4181C21.8881 32.1693 19.2286 29.6241 16.0455 29.6241C12.8623 29.6241 10.203 32.1692 9.99108 35.4169C9.93409 36.3793 10.1072 37.3414 10.4962 38.2235L7.45995 38.2327L10.7803 28.5256L28.9377 28.4065L31.978 32.4588C32.0478 32.5519 32.1384 32.6275 32.2425 32.6796C32.3467 32.7316 32.4615 32.7588 32.578 32.7588C32.6944 32.7588 32.8092 32.7316 32.9134 32.6796C33.0175 32.6275 33.1081 32.5519 33.178 32.4588L35.9375 28.7799L42.1198 28.6665L43.0618 36.3665C43.0841 36.5483 43.1721 36.7156 43.3092 36.837C43.4464 36.9584 43.6232 37.0254 43.8063 37.0254L56.5681 37.0225L58.45 43.0384L43.2143 43.0643C43.3476 42.5488 43.3977 42.0153 43.3626 41.484C43.1846 38.7543 40.9488 36.616 38.2728 36.616C35.5968 36.616 33.3611 38.7542 33.1831 41.4827C33.1491 42.0157 33.2017 42.5507 33.3386 43.0669L31.9863 43.0467C31.8867 43.0441 31.7876 43.0618 31.6951 43.0989C31.6026 43.136 31.5187 43.1917 31.4486 43.2625ZM41.0955 44.0641L38.2727 47.8266L35.4555 44.0718C34.9132 43.3583 34.6387 42.4771 34.6797 41.5819C34.7908 39.8783 36.1652 38.1162 38.2727 38.1162C40.3802 38.1162 41.7546 39.8787 41.8658 41.584C41.9147 42.4764 41.6413 43.3566 41.0955 44.0643V44.0641ZM32.7291 51.125L32.7255 44.5579L33.9896 44.5766C34.0708 44.7082 34.1577 44.8374 34.2501 44.9641L37.6727 49.5266C37.7426 49.6198 37.8332 49.6954 37.9373 49.7474C38.0414 49.7995 38.1563 49.8266 38.2727 49.8266C38.3891 49.8266 38.504 49.7995 38.6081 49.7474C38.7123 49.6954 38.8028 49.6198 38.8727 49.5266L42.2948 44.9655C42.3926 44.8355 42.484 44.7022 42.569 44.5655L58.919 44.5378L60.9795 51.125H32.7291Z" fill="#5A2E91"/>
</svg>
