<svg width="79" height="64" fill="none" xmlns="http://www.w3.org/2000/svg"><path fill="#715F7A" d="M79 38v10H41V38z"/><path d="M29 23h6v2h-6v-2z" fill="#5A2E91"/><path d="M58 27h-1v-3c0-1.654-1.346-3-3-3s-3 1.346-3 3v3.184A2.996 2.996 0 0049 30v2.343c0 1.336.521 2.592 1.465 3.536l.464.464-.76 4.559c-2.482-5.475-7.382-9.452-13.349-10.746l-.4-1.597a7.01 7.01 0 004.5-5.56H41c2.206 0 4-1.794 4-4 0-.816-.248-1.573-.668-2.206l.319-1.275c.232-.927.35-1.88.35-2.834C45 6.241 39.759 1 33.315 1h-2.631C24.241 1 19 6.241 19 12.685c0 .954.117 1.907.35 2.834l.319 1.276A3.966 3.966 0 0019 19c0 2.206 1.794 4 4 4h.08a7.01 7.01 0 004.5 5.56l-.395 1.578C19.055 31.635 13 38.815 13 47.143V52c0 6.065 4.935 11 11 11h9a3.995 3.995 0 003.934-3.35c1.18-.423 2.411-.65 3.671-.65H45v-2.237l1.394 1.672A7.112 7.112 0 0051.871 61 7.137 7.137 0 0059 53.871V36.414l.535-.535A4.969 4.969 0 0061 32.343V30c0-1.654-1.346-3-3-3zm-4-4a1 1 0 011 1v3.184a2.989 2.989 0 00-1 .596 2.972 2.972 0 00-1-.596V24a1 1 0 011-1zM32.869 55a2.858 2.858 0 00-2.724-2 2.84 2.84 0 00-2.553 1.578l-.21.422H25V45h2.395c1.985 0 3.911.541 5.605 1.558V55h-.131zm-2.715-21.805l-2.727 2.181-1.189-2.973a15.36 15.36 0 011.615-.359l2.301 1.151zM31.755 39h.491l1.645 5.758a12.854 12.854 0 00-3.389-1.373L31.755 39zm.627-2h-.764l-.862-1.724L32 34.281l1.244.995L32.382 37zm1.464-3.805l2.288-1.144c.546.11 1.081.246 1.607.404l-1.169 2.921-2.726-2.181zM39 17c0 1.103-.897 2-2 2s-2-.897-2-2 .897-2 2-2 2 .897 2 2zm2 4v-4c1.103 0 2 .897 2 2s-.897 2-2 2zM30.685 3h2.631C38.655 3 43 7.345 43 12.685c0 .79-.098 1.581-.289 2.35l-.08.321A3.958 3.958 0 0041 15h-.049c-.245-2.277-2.013-4.141-4.33-4.43l-.528-.066A3.537 3.537 0 0133 7h-2a5.538 5.538 0 004.844 5.488l.528.066c.491.062.936.249 1.322.515A4.071 4.071 0 0037 13c-1.859 0-3.411 1.279-3.858 3h-2.284c-.447-1.721-1.999-3-3.858-3-.713 0-1.372.203-1.953.53a2.991 2.991 0 012.85-2.52 7.73 7.73 0 002.548 2.822l1.109-1.664A5.726 5.726 0 0129 7.395V7h-2v.395c0 .575.073 1.138.195 1.687C24.822 9.469 23 11.519 23 14v1c-.582 0-1.131.131-1.631.356l-.08-.321a9.762 9.762 0 01-.289-2.35C21 7.345 25.345 3 30.685 3zM27 15c1.103 0 2 .897 2 2s-.897 2-2 2-2-.897-2-2 .897-2 2-2zm-6 4c0-1.103.897-2 2-2v4c-1.103 0-2-.897-2-2zm4 3v-1.556A3.959 3.959 0 0027 21c1.859 0 3.411-1.279 3.858-3h2.284c.447 1.721 1.999 3 3.858 3 .732 0 1.409-.212 2-.556V22c0 2.757-2.243 5-5 5h-4c-2.757 0-5-2.243-5-5zm5 7h4c.156 0 .31-.013.463-.023l.372 1.487L32 31.882l-2.835-1.418.372-1.487c.153.01.307.023.463.023zM15 52v-4.857c0-6.223 3.823-11.726 9.347-14.083l2.226 5.564 2.587-2.069.773 1.545-1.416 4.955A12.711 12.711 0 0027.395 43H23v11.816A2.996 2.996 0 0121 52V41h-2v11c0 2.757 2.243 5 5 5h3v4h-3c-4.963 0-9-4.037-9-9zm18 9h-4v-4.764l.382-.764a.849.849 0 01.764-.472c.47 0 .854.384.854.854V57h2c1.103 0 2 .897 2 2s-.897 2-2 2zm10-4h-2.395c-1.324 0-2.621.203-3.872.598A3.998 3.998 0 0035 55.556v-8.998A10.866 10.866 0 0140.605 45H43v12zm8.871 2a5.115 5.115 0 01-3.94-1.846L45 53.637V43h-4.395c-1.682 0-3.328.33-4.864.956l-1.673-5.857.773-1.545 2.587 2.069 2.192-5.479a17.03 17.03 0 019.575 10.864l.291.989-1.473 8.839 1.973.328L52.847 37H57v16.871A5.135 5.135 0 0151.871 59zm6.25-24.535l-.535.535h-5.172l-.535-.535A2.984 2.984 0 0151 32.343V30a1 1 0 012 0c0 1.654 1.346 3 3 3h2.929a2.988 2.988 0 01-.808 1.465zM59 31h-3a1 1 0 010-2h2a1 1 0 011 1v1z" fill="#5A2E91"/></svg>