<svg width="86" height="72" fill="none" xmlns="http://www.w3.org/2000/svg"><g clip-path="url(#clip0)" fill="#472880"><path d="M80.924 40.797V27.93a13.32 13.32 0 00-7.344-11.941 1.25 1.25 0 00-1.129 2.23 10.832 10.832 0 015.973 9.711v11.78a10.425 10.425 0 00-2.885-.408h-3.343v-1.906a8.065 8.065 0 003.425-6.593v-3.826c0-.69-.56-1.25-1.25-1.25h-2.267c-.773 0-1.497-.33-2.005-.887a5.663 5.663 0 00.49-2.31 1.25 1.25 0 00-2.5 0 3.2 3.2 0 01-3.196 3.197h-4.165c-.69 0-1.25.56-1.25 1.25v3.826a8.064 8.064 0 003.397 6.573v1.926h-3.79a7.62 7.62 0 00-2.41-1.476V27.93c0-4.12 2.284-7.84 5.963-9.705a1.25 1.25 0 10-1.131-2.23 13.322 13.322 0 00-7.332 11.935v9.351h-8.883v-1.849c2.55-1.684 4.183-4.715 4.183-8.324v-3.32A8.326 8.326 0 0051.812 18v-3.298l.417.416a2.466 2.466 0 001.755.727c.663 0 1.286-.258 1.755-.727l5.408-5.407a5.696 5.696 0 000-8.046 5.7 5.7 0 00-7.163-.723 5.7 5.7 0 00-7.162.723 5.696 5.696 0 000 8.046l3.709 3.71H39.81c-4.608 0-8.358 3.748-8.358 8.356v6.071a9.01 9.01 0 004.184 7.603v1.829h-4.293c-5.152 0-9.344 4.192-9.344 9.344V57.75a6.257 6.257 0 006.25 6.25h51.5a6.257 6.257 0 006.25-6.25v-7.987c0-3.8-2.037-7.132-5.076-8.965zM48.59 7.944a3.193 3.193 0 010-4.511 3.18 3.18 0 012.255-.933c.817 0 1.633.311 2.255.933a1.25 1.25 0 001.768 0 3.193 3.193 0 014.51 0 3.193 3.193 0 010 4.51l-5.394 5.395-5.394-5.394zm13.389 22.858v-2.576h2.914c1.41 0 2.7-.515 3.695-1.366a5.214 5.214 0 003.516 1.366h1.017v2.576c0 3.072-2.5 5.571-5.571 5.571a5.577 5.577 0 01-5.571-5.57zm7.717 7.779v2.183c0 1.19-.97 2.16-2.16 2.16-1.192 0-2.16-.97-2.16-2.16v-2.191a8.046 8.046 0 004.32.008zm-15.712 1.251a5.115 5.115 0 015.109 5.109 5.115 5.115 0 01-5.109 5.109 5.114 5.114 0 01-5.108-5.109 5.114 5.114 0 015.108-5.109zm-20.03-18.054a5.864 5.864 0 015.857-5.858h9.502V18a5.864 5.864 0 01-5.858 5.857h-9.502v-2.08zm0 6.07v-1.49h9.501c1.258 0 2.45-.281 3.52-.78v1.53c0 4.201-2.738 7.252-6.51 7.252a6.519 6.519 0 01-6.512-6.511zm8.838 8.709v2.197a2.33 2.33 0 01-2.328 2.327 2.33 2.33 0 01-2.327-2.327v-2.2a8.993 8.993 0 002.328.305c.81 0 1.59-.104 2.327-.302zm-1.936 24.942H28.25a3.754 3.754 0 01-3.75-3.75V46.624a6.852 6.852 0 016.844-6.844h4.404a4.835 4.835 0 004.717 3.801 4.834 4.834 0 004.716-3.8H48.4a7.597 7.597 0 00.77 11.048 10.659 10.659 0 00-5.004 4.17H30.984a1.25 1.25 0 000 2.5h9.872v4zm4.148 0h-1.648v-4h1.648c1.102 0 2 .897 2 2 0 1.102-.897 2-2 2zm13.93 0h-9.9c.3-.603.47-1.282.47-2a4.505 4.505 0 00-2.564-4.062 8.158 8.158 0 016.23-2.887h1.628a8.158 8.158 0 016.23 2.887 4.505 4.505 0 00-2.564 4.062c0 .718.17 1.397.47 2zm5.678 0h-1.648c-1.102 0-2-.898-2-2 0-1.103.898-2 2-2h1.648v4zm18.888-3.75a3.754 3.754 0 01-3.75 3.75H67.112v-4h9.872a1.25 1.25 0 000-2.5H63.803a10.66 10.66 0 00-5.005-4.171 7.596 7.596 0 002.114-9.028h2.08a4.667 4.667 0 004.544 3.624 4.668 4.668 0 004.542-3.623h3.46c4.39 0 7.962 3.57 7.962 7.96v7.988z"/><path d="M67.543 17.047c.329 0 .651-.133.884-.366a1.26 1.26 0 00.366-.884c0-.33-.134-.65-.366-.883a1.26 1.26 0 00-.884-.367 1.26 1.26 0 00-.884.367 1.258 1.258 0 00-.366.883c0 .33.134.652.366.884.233.233.555.366.884.366z"/></g><path d="M64 63.155l-.035-.03.035-.04-.902-.763-6.306-5.8s-.111.115-.294.285l-.167.181c-1.438 1.33-6.048 5.179-11.458 5.254h-.35c-2.846-.306-5.622-1.822-8.438-4.627-4.675-4.676-9.877-7.2-15.474-7.536h-.466a20.487 20.487 0 00-2.533-.066c-8.429.342-14.69 5.942-16.817 8.1-.456.406-.73.697-.79.747l.03.03a.175.175 0 01-.035.045l.902.753 6.306 5.805.294-.29.167-.181c1.433-1.335 6.048-5.184 11.458-5.254h.344c2.852.306 5.622 1.822 8.439 4.626 4.68 4.657 9.872 7.181 15.47 7.527h.465c.842.075 1.688.096 2.533.066 8.428-.342 14.69-5.937 16.817-8.094.44-.422.719-.708.775-.768" fill="#EFC825"/><defs><clipPath id="clip0"><path fill="#fff" d="M22 0h64v64H22z"/></clipPath></defs></svg>