<svg width="64" height="65" fill="none" xmlns="http://www.w3.org/2000/svg"><ellipse cx="35.5" cy="51" rx="13.5" ry="14" fill="#E30020"/><g clip-path="url(#clip0)" fill="#5A2E91"><path d="M59.198 19.202h-4.266c-.25 0-.491.087-.683.246l-6.103 5.087h-3.88v-4.267a1.047 1.047 0 00-.382-.8c4.864-3.318 6.117-9.95 2.8-14.813-3.317-4.864-9.949-6.118-14.812-2.8a10.66 10.66 0 00-3.605 4.195C25.718.744 19.35-1.493 14.043 1.055a10.66 10.66 0 00-1.396 18.412 1.045 1.045 0 00-.38.801v6.4h-3.07L5.06 25.634a1.066 1.066 0 00-1.326 1.034v6.4a1.067 1.067 0 001.326 1.034l4.138-1.034h3.07v6.4c0 .588.477 1.066 1.066 1.066H24v2.133h-1.067a1.067 1.067 0 000 2.134h.492L15.56 62.5a1.067 1.067 0 101.95.866l8.251-18.565h1.44v18.132a1.067 1.067 0 002.133 0V44.801h1.44l8.251 18.565a1.067 1.067 0 001.95-.866l-7.866-17.7h.492a1.067 1.067 0 000-2.133h-1.067v-2.133H43.2c.59 0 1.067-.477 1.067-1.066V35.2h3.88l6.103 5.087c.192.16.434.246.683.246h4.266c.59 0 1.067-.477 1.067-1.066v-19.2c0-.589-.478-1.066-1.067-1.066zM8.001 31.168l-2.133.534v-3.668L8 28.568v2.6zm4.266-.233h-2.133V28.8h2.133v2.134zm19.227-11.733H25.04a10.721 10.721 0 003.227-3.915 10.722 10.722 0 003.228 3.915zm-21.36-8.533a8.533 8.533 0 118.533 8.533 8.542 8.542 0 01-8.533-8.533zM30.4 42.667h-4.267v-2.133H30.4v2.133zm11.733-4.266H14.4V21.335h27.733v17.066zm-4.267-19.2a8.533 8.533 0 01-8.533-8.532 8.543 8.543 0 018.533-8.533 8.533 8.533 0 010 17.066zm9.6 13.867h-3.2v-6.4h3.2v6.4zM58.132 38.4h-2.814l-5.72-4.767v-7.532l5.72-4.767h2.814V38.4z"/><path d="M18.669 6.402a4.267 4.267 0 100 8.533 4.267 4.267 0 000-8.533zm0 6.4a2.133 2.133 0 110-4.266 2.133 2.133 0 010 4.266zm19.199-6.4a4.266 4.266 0 100 8.533 4.266 4.266 0 000-8.533zm0 6.4a2.133 2.133 0 110-4.266 2.133 2.133 0 010 4.266zm1.066 10.666H17.602c-.59 0-1.067.478-1.067 1.067V35.2c0 .589.478 1.067 1.067 1.067h21.332c.59 0 1.067-.478 1.067-1.067V24.535c0-.59-.478-1.067-1.067-1.067zm-1.066 10.666h-19.2v-8.533h19.2v8.533z"/><path d="M27.2 28.801h-2.134v2.134H27.2V28.8zm4.265 0h-2.133v2.134h2.133V28.8zm4.27 0h-2.133v2.134h2.133V28.8zm-12.801 0h-2.133v2.134h2.133V28.8z"/></g><defs><clipPath id="clip0"><path fill="#fff" d="M0 0h64v64H0z"/></clipPath></defs></svg>