<svg width="80" height="75" fill="none" xmlns="http://www.w3.org/2000/svg"><path d="M64 66.155l-.035-.03.035-.04-.902-.763-6.306-5.8s-.111.115-.294.285l-.167.181c-1.438 1.33-6.048 5.179-11.458 5.254h-.35c-2.846-.306-5.622-1.822-8.438-4.627-4.675-4.676-9.877-7.2-15.474-7.536h-.466a20.487 20.487 0 00-2.533-.066c-8.429.342-14.69 5.942-16.817 8.1-.456.406-.73.697-.79.747l.03.03a.175.175 0 01-.035.045l.902.753 6.306 5.805.294-.29.167-.181c1.433-1.335 6.048-5.184 11.458-5.254h.344c2.852.306 5.622 1.822 8.439 4.626 4.68 4.657 9.872 7.181 15.47 7.527h.465c.842.075 1.688.096 2.533.066 8.428-.342 14.69-5.937 16.817-8.094.44-.422.719-.708.775-.768" fill="#EFC825"/><g clip-path="url(#clip0)"><path d="M79.063 46.114h-1.765a4.328 4.328 0 00.322-4.421l-.543-1.092a.938.938 0 10-1.68.834l.544 1.093a2.464 2.464 0 01-.112 2.41 2.469 2.469 0 01-2.112 1.176h-5.576v-3.288h3.574a.937.937 0 100-1.875h-.018l-.625-1.531a.937.937 0 10-1.736.709l.336.822H55.515l.335-.822a.938.938 0 00-1.736-.71l-.627 1.536a.937.937 0 00.084 1.87h3.91v3.289h-6.274c-.867 0-1.657-.44-2.113-1.175a2.465 2.465 0 01-.111-2.411l2.891-5.815a2.89 2.89 0 011.61-1.435l4.877-1.77 3.4 2.97a.936.936 0 001.233 0l3.45-3.012 4.996 1.812a2.89 2.89 0 011.61 1.435l.762 1.533a.937.937 0 101.679-.835l-.763-1.533a4.756 4.756 0 00-2.648-2.363l-2.302-.835c1.708-.831 2.875-2.48 2.875-4.377v-9.437c0-2.497-1.072-4.838-3.02-6.593-1.92-1.731-4.466-2.684-7.17-2.684-5.62 0-10.192 4.161-10.192 9.277v9.437c0 1.895 1.166 3.545 2.877 4.376l-2.304.836a4.756 4.756 0 00-2.648 2.363l-2.892 5.815a4.328 4.328 0 00.322 4.421h-4.57V40.32a6.1 6.1 0 00-4.01-5.718l-2.327-.844a1.884 1.884 0 01-1.24-1.766v-2.26a7.437 7.437 0 003.397-6.275v-9.692h1.222v8.276a.937.937 0 101.875 0v-9.214a.938.938 0 00-.937-.937h-19.32a.938.938 0 000 1.875h2.16v9.692a7.437 7.437 0 003.395 6.275v2.26c0 .788-.498 1.497-1.239 1.766l-2.326.844a6.1 6.1 0 00-4.01 5.718v5.794h-2.759a.937.937 0 00-.937.938v.489a3.88 3.88 0 003.695 3.87v2.063a.938.938 0 001.875 0v-6.742h2.766v6.742a.938.938 0 001.875 0v-9.365c0-.903.237-1.79.683-2.567a.937.937 0 10-1.625-.935 7.034 7.034 0 00-.933 3.502v.748H21.57V40.32a4.22 4.22 0 012.775-3.955l2.327-.843a3.727 3.727 0 001.096-.628 10.667 10.667 0 007.146-.058c.339.292.73.528 1.166.686l2.327.843a4.22 4.22 0 012.774 3.955v4.538h-2.766v-.748c0-3.88-3.158-7.037-7.04-7.037-1.084 0-2.125.24-3.092.715a.937.937 0 10.824 1.684 5.169 5.169 0 017.433 4.638v9.365a.937.937 0 101.875 0v-6.742h2.766v6.742a.937.937 0 101.875 0v-2.059h9.782v2.059a.938.938 0 001.875 0v-2.059H70.21v2.059a.937.937 0 101.876 0v-2.059h4.038A3.879 3.879 0 0080 47.541v-.49a.938.938 0 00-.938-.937zM62.377 34.527l-2.92-2.55v-1.363c.89.405 1.879.633 2.92.633s2.03-.228 2.921-.634v1.364l-2.921 2.55zm-8.232-6.224v-9.438c0-4.08 3.73-7.401 8.317-7.401 2.24 0 4.34.782 5.915 2.201 1.548 1.396 2.4 3.242 2.4 5.2v9.438c0 1.696-1.577 3.076-3.506 3.076h-.098v-2.015a7.046 7.046 0 002.27-5.182V20.26a.948.948 0 00-1.199-.92 6.88 6.88 0 01-1.925.274 6.844 6.844 0 01-6.528-4.74.938.938 0 00-1.783.58 8.714 8.714 0 008.311 6.035c.42 0 .837-.03 1.25-.09v2.784c0 2.862-2.33 5.19-5.192 5.19a5.197 5.197 0 01-5.193-5.19v-3.246a3.27 3.27 0 001.076-.74.937.937 0 10-1.35-1.3c-.285.296-.632.39-.814.418a.938.938 0 00-.787.926v3.943c0 2.047.876 3.893 2.273 5.184v2.01c-1.903-.037-3.437-1.401-3.437-3.074zM17.926 47.99h1.77v1.543a2.004 2.004 0 01-1.77-1.543zm7.825-27.62l5.263 2.198a.938.938 0 00.723 0L37 20.369v1.39c-.473.703-2.335 3.126-5.524 3.158a6.567 6.567 0 01-5.726-3.254V20.37zM37 13.765v4.572l-5.625 2.349-5.625-2.349v-4.572H37zm-6.475 19.81a8.763 8.763 0 01-1.615-.288c.151-.408.235-.844.235-1.295v-2.53a1.39 1.39 0 00-.668-1.186 5.58 5.58 0 01-2.58-3.541 8.401 8.401 0 005.597 2.057c2.381-.024 4.16-1.04 5.363-2.078a5.58 5.58 0 01-2.585 3.562 1.39 1.39 0 00-.668 1.186v2.53c0 .427.075.842.212 1.232a8.834 8.834 0 01-3.29.352zm35.74 12.539H64.57c.237-.491.372-1.05.372-1.644 0-.594-.135-1.153-.372-1.645h1.695v3.289zm-6.91-3.288h2.383c.733 0 1.33.737 1.33 1.644 0 .904-.594 1.64-1.324 1.644h-2.39v-3.288zm16.77 6.714h-33.07v-1.55h35.018c-.204.887-1 1.551-1.949 1.551z" fill="#5A2E91"/></g><defs><clipPath id="clip0"><path fill="#fff" transform="translate(16)" d="M0 0h64v64H0z"/></clipPath></defs></svg>