<svg width="79" height="75" fill="none" xmlns="http://www.w3.org/2000/svg"><g clip-path="url(#clip0)" fill="#472880"><path d="M44.606 8.343c-4.636-11.111-20.394-11.136-25.04 0a13.565 13.565 0 00-.016 10.39l.016.047c4.586 10.991 20.36 11.214 25.04 0 1.363-3.237 1.416-7.039 0-10.437zM26.743 3.169c-1.156 1.607-1.914 3.549-2.361 5.47a39.61 39.61 0 01-2.618-.554 11.768 11.768 0 014.98-4.916zm-5.732 6.659c.991.254 2.002.471 3.03.654a22.584 22.584 0 000 6.159c-1.028.182-2.039.4-3.03.654a11.695 11.695 0 010-7.467zm.753 9.21a39.667 39.667 0 012.618-.554c.446 1.916 1.203 3.859 2.361 5.47a11.77 11.77 0 01-4.979-4.917zm9.385 6.078c-2.65-.782-4.247-4.245-4.899-6.919a44.762 44.762 0 014.899-.362v7.28zm0-9.156a46.5 46.5 0 00-5.25.392 20.25 20.25 0 010-5.582c1.71.227 3.463.358 5.25.392v4.798zm0-6.674a44.729 44.729 0 01-4.899-.361c.663-2.716 2.25-6.138 4.899-6.919v7.28zm11.26-1.2a39.57 39.57 0 01-2.618.552c-.454-1.945-1.216-3.875-2.361-5.47a11.769 11.769 0 014.978 4.917zm-9.385-6.08c2.17.615 4.021 3.321 4.898 6.919a44.772 44.772 0 01-4.898.362v-7.28zm0 9.156a46.55 46.55 0 005.25-.392 20.32 20.32 0 010 5.582 46.58 46.58 0 00-5.25-.392v-4.798zm0 13.954v-7.28a44.78 44.78 0 014.899.361c-.878 3.598-2.729 6.304-4.9 6.919zm4.406-1.163c1.153-1.604 1.912-3.544 2.36-5.469.887.157 1.76.34 2.618.553a11.77 11.77 0 01-4.978 4.916zm5.732-6.659a41.387 41.387 0 00-3.031-.653 22.587 22.587 0 000-6.16c1.028-.182 2.039-.4 3.03-.653.815 2.411.817 5.05 0 7.466zm9.745-4.67h-4.844a.938.938 0 100 1.875h4.843a.937.937 0 100-1.875zm-.698-7.078a.938.938 0 00-1.267-.392l-4.284 2.262c-.863.456-.533 1.767.44 1.767.307 0 .036.102 4.72-2.37a.937.937 0 00.39-1.267zm-36.271 7.078h-4.844a.938.938 0 100 1.875h4.844a.938.938 0 100-1.875zm1.409-5.208l-4.284-2.262a.938.938 0 10-.876 1.658c4.635 2.447 4.403 2.371 4.721 2.371.974 0 1.3-1.312.439-1.767zm34.468 12.501l-4.283-2.262a.937.937 0 10-.876 1.658c4.634 2.447 4.402 2.37 4.72 2.37.975.001 1.3-1.31.44-1.766zm-34.081-1.87a.937.937 0 00-1.267-.392l-4.283 2.262a.937.937 0 10.875 1.658l4.284-2.261a.938.938 0 00.391-1.267zm-.71 8.146a6.008 6.008 0 00-6 6 6.008 6.008 0 006 6.001 6.007 6.007 0 006.001-6 6.007 6.007 0 00-6-6.001zm0 10.126a4.13 4.13 0 01-4.125-4.126 4.13 4.13 0 014.125-4.125 4.13 4.13 0 014.126 4.125 4.13 4.13 0 01-4.126 4.126zm29.953-10.126c-3.309 0-6 2.691-6 6a6.008 6.008 0 006 6.001 6.008 6.008 0 006.001-6 6.007 6.007 0 00-6-6.001zm0 10.126a4.13 4.13 0 01-4.125-4.126 4.13 4.13 0 014.125-4.125 4.13 4.13 0 014.126 4.125 4.13 4.13 0 01-4.126 4.126zm9.965 12.341c.518 0 .938-.42.938-.938v-4.158c0-3.32-2.56-4.091-3.547-4.108H40.102c-.337.009-1.504.13-2.335 1.332l-5.769 8.338-5.768-8.338c-.831-1.202-1.998-1.323-2.336-1.332H9.664c-.987.017-3.547.788-3.547 4.108v13.188a2.44 2.44 0 002.438 2.438c.964 0 1.125.017 1.473-.065v3.937c0 .518.42.938.937.938h3.75a.937.937 0 100-1.875h-2.812V44.439a.938.938 0 10-1.875 0v12.313c0 .31-.253.563-.563.563h-.91a.563.563 0 01-.562-.563V43.564c0-1.5.777-2.17 1.701-2.233h14.161c.1.005.506.052.833.524l6.17 8.92c-.047.068-1.195 1.726-1.237 1.791l-5.768-8.336c-.521-.754-1.709-.383-1.709.533v17.362h-3.053a.938.938 0 100 1.875h3.991c.518 0 .938-.42.938-.938V47.767l5.54 8.008c1.161 1.68 3.721 1.671 4.876 0l5.54-8.008v15.297c0 .517.42.937.938.937h12.117c.518 0 .938-.42.938-.938v-3.937c.348.082.508.065 1.473.065a2.44 2.44 0 002.437-2.437v-4.656a.938.938 0 10-1.875 0v4.656c0 .31-.252.562-.562.562h-.91a.563.563 0 01-.563-.562V44.439a.938.938 0 10-1.875 0v17.686H41.852V44.763c0-.917-1.188-1.287-1.709-.533-7.78 11.246-7.315 10.739-7.808 10.878-.915.26-1.658-.775-1.116-1.56l8.09-11.693c.326-.472.733-.52.832-.523 15.283 0 14.409-.117 15.05.307.54.357.813 1.005.813 1.925v4.158c0 .518.42.937.938.937z"/></g><path d="M79 66.155l-.035-.03.035-.04-.902-.763-6.306-5.8s-.111.115-.294.285l-.167.181c-1.438 1.33-6.048 5.179-11.458 5.254h-.35c-2.846-.306-5.622-1.822-8.438-4.627-4.675-4.676-9.877-7.2-15.474-7.536h-.466a20.487 20.487 0 00-2.533-.066c-8.429.342-14.69 5.942-16.817 8.1-.456.406-.73.697-.79.747l.03.03a.177.177 0 01-.035.045l.902.753 6.306 5.805.294-.29.167-.181c1.433-1.335 6.048-5.184 11.458-5.254h.344c2.852.306 5.623 1.822 8.439 4.626 4.68 4.657 9.872 7.181 15.47 7.527h.465c.842.075 1.688.096 2.533.066 8.428-.342 14.69-5.937 16.817-8.094.44-.422.719-.708.775-.768" fill="#EFC825"/><defs><clipPath id="clip0"><path fill="#fff" d="M0 0h64v64H0z"/></clipPath></defs></svg>