<svg width="70" height="72" fill="none" xmlns="http://www.w3.org/2000/svg"><ellipse cx="56.5" cy="58" rx="13.5" ry="14" fill="#E30020"/><path d="M51.5 30.04a3.084 3.084 0 00-2.5 3.067v4.479l-3 3-.293-.293A3.83 3.83 0 0043 39.121a3.754 3.754 0 00-2.64 1.11l-6.019 5.016A5.892 5.892 0 0032.001 50v11a1 1 0 001 1h9a1 1 0 001-1v-5.485l6.58-4.7a1 1 0 00.314-.366l5-10A1 1 0 0055 40v-7a3 3 0 00-3.5-2.96zm1.5 9.724l-4.783 9.567-6.8 4.856A1 1 0 0041 55v5h-7V50a3.91 3.91 0 011.64-3.231l6.067-5.062a1.74 1.74 0 012.586 0l.293.293-4.293 4.293 1.414 1.414 9-9A1 1 0 0051 38v-4.893a1.083 1.083 0 01.825-1.092A1 1 0 0153 33v6.764z" fill="#5A2E91"/><path d="M50 22A19.962 19.962 0 0019.4 5.073l-.142-.04-.04.151A19.99 19.99 0 1050 22zm-2 0a17.904 17.904 0 01-1.431 7.03c-3.586-4.1-5.63-7.88-6.032-11.131a28.715 28.715 0 017.438 3.623c.005.16.024.317.024.478zm-4.29-11.634a17.92 17.92 0 014.015 8.614 30.63 30.63 0 00-7.21-3.165c.018-.164.032-.33.062-.492a7.816 7.816 0 013.134-4.957zm-1.389-1.452a9.793 9.793 0 00-3.709 6.026c-.02.121-.03.245-.047.366a34.229 34.229 0 00-4.6-.719A33.697 33.697 0 0031.59 4.081a17.92 17.92 0 0110.73 4.833zM29.4 4.031a30.483 30.483 0 012.574 10.436 40.795 40.795 0 00-4.852.13 8.78 8.78 0 00-.2-2.4 9.637 9.637 0 00-5.2-6.155 17.85 17.85 0 017.677-2.011zm-9.737 3.257c1.541.619 4.561 2.206 5.3 5.361.16.71.205 1.44.134 2.163a50.602 50.602 0 00-12.707 3.456 18.028 18.028 0 017.273-10.98zM11.999 22c0-.475.035-.942.071-1.407a48 48 0 0112.6-3.715c-1 3.238-3.89 7.688-10.525 13.64A17.89 17.89 0 0112 22zm3.221 10.248c6.661-5.928 10.554-11.167 11.615-15.638a38.63 38.63 0 015.21-.154c.055 6.289-1.736 14.228-8.386 22.369a18.075 18.075 0 01-8.438-6.577zM30 40a17.898 17.898 0 01-4.288-.538c6.537-8.29 8.354-16.383 8.317-22.876 1.498.144 2.984.393 4.447.746.2 4.035 2.59 8.6 7.121 13.613A18 18 0 0130 40z" fill="#5A2E91"/><path d="M11.826 34.435l-1.65 1.13A24.034 24.034 0 0030 46v-2a22.036 22.036 0 01-18.175-9.565zM52 22h2A22.339 22.339 0 0042.5 2.132l-1 1.736A20.386 20.386 0 0152 22zM9.894 31.552l-1.789.895 1 2 1.79-.895-1-2z" fill="#5A2E91"/></svg>