<svg width="67" height="64" fill="none" xmlns="http://www.w3.org/2000/svg"><path fill="#715F7A" d="M67 53v10H10V53z"/><g clip-path="url(#clip0)" fill="#5A2E91"><path d="M63.853 54.092a4.603 4.603 0 00-2.122-2.835 4.649 4.649 0 00-3.397-.533 6.075 6.075 0 00-8.904 1.72 6.098 6.098 0 00.431 6.828 4.614 4.614 0 002.27 4.08 4.631 4.631 0 006.966-3.492 4.642 4.642 0 004.253-2.261 4.593 4.593 0 00.503-3.507zm-2.653 2.23a2.13 2.13 0 01-2.406.966 1.25 1.25 0 00-1.33.438 3.56 3.56 0 01-.439.47 1.25 1.25 0 00-.41 1.021 2.13 2.13 0 11-4.23-.173 1.25 1.25 0 00-.328-1.05 3.582 3.582 0 01-.477-4.274 3.565 3.565 0 013.07-1.742 3.561 3.561 0 012.514 1.038c.36.355.898.458 1.364.262a2.117 2.117 0 011.925.128c.49.29.837.754.978 1.305a2.11 2.11 0 01-.23 1.61zm-8.514-18.358a5.694 5.694 0 005.628 6.519 5.693 5.693 0 005.684-5.688 5.674 5.674 0 00-3.055-5.047 5.039 5.039 0 00-5.02-4.672 5.038 5.038 0 00-5.032 5.033 5.04 5.04 0 001.795 3.855zm3.237-6.388a2.535 2.535 0 012.513 2.845 1.25 1.25 0 00.856 1.337 3.19 3.19 0 01-.978 6.224 3.192 3.192 0 01-3.034-4.172 1.25 1.25 0 00-.583-1.483 2.535 2.535 0 011.226-4.751zm-9.944-8.077c.199-1.084.32-2.946-.631-4.668-.658-1.19-1.696-2.088-3.094-2.678a7.597 7.597 0 00-3.492-6.864A7.58 7.58 0 0031.28 3.09c-.26 0-.52.013-.777.04A9.087 9.087 0 0023.659.002a9.096 9.096 0 00-6.844 3.128 7.648 7.648 0 00-.778-.04 7.58 7.58 0 00-7.48 6.199 7.596 7.596 0 00-3.49 6.863c-1.408.594-2.45 1.5-3.108 2.703-.94 1.72-.808 3.59-.616 4.643l-.043.045C.318 24.65-.132 26.028.034 27.426l3.825 32.591c.27 2.307 2.003 3.981 4.12 3.981h31.363c2.116 0 3.848-1.674 4.118-3.98L44.717 49.3a1.25 1.25 0 10-2.483-.291l-1.257 10.718c-.1.853-.654 1.771-1.635 1.771h-3.674l1.15-14.734h.69c1.046 0 1.898-.85 1.898-1.895v-7.877a1.9 1.9 0 00-1.674-1.884l.604-7.73.001-.05.003-.048a3.232 3.232 0 013.23-3.227c.975 0 1.94.43 2.58 1.148.355.4.757 1.06.655 1.933l-1.26 10.728a1.25 1.25 0 002.482.292l1.261-10.729c.164-1.4-.288-2.78-1.271-3.886l-.038-.04zm-38 37.999c-.982 0-1.537-.918-1.637-1.772L2.516 27.133c-.103-.871.298-1.53.653-1.93a3.5 3.5 0 012.583-1.15 3.23 3.23 0 013.227 3.227l.002.048.001.05.605 7.73c-.94.112-1.67.913-1.67 1.884v7.877c0 1.045.849 1.895 1.894 1.895h.69l1.153 14.734H7.98zm6.182 0l-1.153-14.735h5.412l.37 14.735h-4.63zm11.867 0H21.29l-.37-14.735h5.477l-.369 14.735zm7.132 0h-4.63l.37-14.735h5.412l-1.15 14.735zm3.746-17.234h-26.49v-6.67h26.49v6.67zm-18.779-9.17h-6.034l-.613-7.85a3.23 3.23 0 013.226-3.19 3.23 3.23 0 013.226 3.226l.001.016v.015l.194 7.783zm2.306-7.822a3.23 3.23 0 013.226-3.219 3.23 3.23 0 013.227 3.219l-.196 7.822h-6.062l-.195-7.822zm8.952.024l.001-.016a3.23 3.23 0 013.227-3.227 3.23 3.23 0 013.226 3.19l-.614 7.85h-6.034l.195-7.782v-.015zm12.185-5.742c-1.811 0-3.43.844-4.48 2.16a5.72 5.72 0 00-8.954-.001 5.72 5.72 0 00-8.954 0 5.72 5.72 0 00-8.953 0 5.72 5.72 0 00-4.477-2.16c-.7 0-1.395.131-2.05.371.008-.588.116-1.258.45-1.87.476-.87 1.36-1.495 2.627-1.857a1.25 1.25 0 00.879-1.461 5.023 5.023 0 01-.104-1.037 5.105 5.105 0 012.736-4.53 1.25 1.25 0 00.662-.982 5.09 5.09 0 015.085-4.597c.353 0 .706.036 1.047.108a1.25 1.25 0 001.267-.488 6.588 6.588 0 015.308-2.708 6.578 6.578 0 015.307 2.707c.29.399.787.59 1.268.489a5.101 5.101 0 011.047-.108 5.09 5.09 0 015.085 4.597c.042.418.29.787.662.983a5.107 5.107 0 012.632 5.566 1.25 1.25 0 00.879 1.461c1.262.361 2.144.981 2.62 1.844.34.615.451 1.289.459 1.883a5.953 5.953 0 00-2.048-.37z"/><path d="M31.707 13.44a1.25 1.25 0 000 2.5 2.639 2.639 0 012.638 2.382 1.25 1.25 0 002.488-.246 5.13 5.13 0 00-5.126-4.637zm-16.095 0a5.136 5.136 0 00-5.125 4.634 1.25 1.25 0 002.487.25 2.643 2.643 0 012.638-2.385 1.25 1.25 0 100-2.5zm11.454-5.255a5.135 5.135 0 00-6.903.35 1.25 1.25 0 101.768 1.768 2.643 2.643 0 013.552-.182 1.25 1.25 0 101.583-1.936zM44.129 42.33c-.69 0-1.25.563-1.25 1.253a1.25 1.25 0 102.5 0v-.007c0-.69-.56-1.246-1.25-1.246z"/></g><defs><clipPath id="clip0"><path fill="#fff" d="M0 0h64v64H0z"/></clipPath></defs></svg>