<svg width="73" height="70" fill="none" xmlns="http://www.w3.org/2000/svg"><g clip-path="url(#clip0)" fill="#472880"><path d="M64.218 46.933c.339-1.798.33-3.645-.026-5.44l4.886-11.79v-.023a20.033 20.033 0 013.429-5.954 1.59 1.59 0 00.394-1.456l-2.004-8.65a1.045 1.045 0 00-.106-.259c-.009-.016-.012-.035-.02-.05-.009-.015-.046-.051-.068-.079a1.075 1.075 0 00-.15-.176.988.988 0 00-.116-.07 1.078 1.078 0 00-.166-.1 1.016 1.016 0 00-.25-.061c-.024 0-.045-.016-.07-.019a1.067 1.067 0 00-.587.132c-.016.008-.036.011-.052.021h-.01l-7.532 4.7c-.456.283-.74.776-.753 1.313a20.02 20.02 0 01-1.793 6.648v.012l-2.442 5.902a14.303 14.303 0 00-3.81-1.376 57.63 57.63 0 00.553-10.489 11.642 11.642 0 002.647-8.546C55.505 4.907 49.887.417 49.647.228a1.067 1.067 0 00-1.69 1.113c.549 2.063.073 4.24-3.984 8.717a6.242 6.242 0 00-1.463 6.802c.36.9.873 1.73 1.52 2.453a74.72 74.72 0 00-.601 4.729 53.426 53.426 0 00-.186 7.564 14.517 14.517 0 00-2.656 1.851l-5.173-22.123c0-.022-.022-.038-.028-.058a1.01 1.01 0 00-.075-.206l-5.284-9.76A2.463 2.463 0 0025.4 2.396l-.401 11.088c0 .08.009.16.026.238v.048l5.278 22.524c-.832.037-1.659.16-2.466.368L22.031 22.64a2.156 2.156 0 00-2.784-1.14l-8.873 3.673a2.14 2.14 0 00-1.155 2.788l7.874 18.995A8.528 8.528 0 0017.533 64h46.932a8.534 8.534 0 00-.247-17.067zm-1.087-27.61l4.472-2.79-1.583 3.823a1.067 1.067 0 101.97.817l1.584-3.823 1.185 5.134a21.1 21.1 0 00-3.094 5.106 4.387 4.387 0 01-5.962-2.466 21.073 21.073 0 001.428-5.8zm-2.453 8.375a6.498 6.498 0 002.659 1.936 6.768 6.768 0 002.61.55c.216 0 .432-.013.646-.039l-3.403 8.213a14.477 14.477 0 00-4.58-5.662l2.068-4.998zM46.064 20.08l5.36.328c.032.996.02 2.026-.012 3.073a22.42 22.42 0 01-5.344-.259c-.135-.019-.266-.034-.4-.052.107-1.005.237-2.022.394-3.09h.002zm-.508-8.59c2.832-3.124 4.3-5.527 4.64-7.787a14.265 14.265 0 013.85 7.646 9.557 9.557 0 01-2.159 6.947c-2.107-.128-4.19-.256-6.251-.384a4.45 4.45 0 01-.083-6.422h.003zm-.081 13.806l.309.04c1.374.213 2.762.331 4.152.354.442 0 .907-.036 1.373-.072a67.1 67.1 0 01-.457 4.288c-.264-.014-.522-.04-.787-.04-1.61.004-3.208.279-4.727.815a51.459 51.459 0 01.134-5.385h.002zM37.224 37.77l-3.052-13a1.067 1.067 0 00-2.077.487l2.743 11.7a12.09 12.09 0 00-2.326-.58L27.831 16.4a5.055 5.055 0 002.088.454c.067 0 .139-.01.207-.012l.754 3.22a1.067 1.067 0 102.077-.487l-.755-3.222a5.052 5.052 0 001.863-1.419l4.76 20.351a14.309 14.309 0 00-1.601 2.486zm-6.517-23.147a3.541 3.541 0 01-3.562-1.426l.135-3.757c.371.07.748.105 1.126.107.364.001.728-.04 1.083-.12a5.433 5.433 0 001.978-.984l1.796 3.315a3.538 3.538 0 01-2.556 2.867v-.002zm-2.922-12.46a.333.333 0 01.367.163l2.287 4.23a3.64 3.64 0 01-1.44.8 3.64 3.64 0 01-1.644-.078l.174-4.807a.33.33 0 01.256-.309zm-7.72 21.304l.815 1.969-3.946 1.634a1.067 1.067 0 00.819 1.969l3.947-1.635.816 1.971-1.975.818a1.067 1.067 0 10.817 1.971l1.975-.818.816 1.971-3.95 1.638a1.067 1.067 0 10.817 1.97l3.947-1.633.862 2.083a12.383 12.383 0 00-6.906 8.406l-7.731-18.64 8.877-3.674zm44.4 38.4H17.532a6.4 6.4 0 111.825-12.536 1.067 1.067 0 001.375-1.001 10.133 10.133 0 0116.213-7.903 1.067 1.067 0 001.636-.48 12.267 12.267 0 0123.751 4.32c.002 1.22-.18 2.433-.539 3.599a1.067 1.067 0 001.248 1.356 6.667 6.667 0 011.424-.155 6.4 6.4 0 110 12.8z"/><path d="M50.263 16.747c.335 0 .651-.155.854-.422a8 8 0 001.418-6.28 1.067 1.067 0 10-2.06.55 5.926 5.926 0 01-1.059 4.443 1.067 1.067 0 00.854 1.706l-.007.003zm-1.403 32.32a5.244 5.244 0 00-2.288.533 6.4 6.4 0 00-11.056 6.283 1.066 1.066 0 101.963-.837 4.345 4.345 0 01-.352-1.713 4.267 4.267 0 014.266-4.266 4.224 4.224 0 013.856 2.453c.023.035.048.068.075.1a.993.993 0 00.057.107c.019.023.047.034.068.056.05.053.105.099.165.14.053.04.11.076.17.106.063.026.127.046.193.06a.978.978 0 00.2.03 1.31 1.31 0 00.408-.068.814.814 0 00.084-.02.975.975 0 00.1-.074c.038-.017.075-.036.111-.057a3.15 3.15 0 011.98-.7 3.2 3.2 0 012.901 1.861 1.067 1.067 0 001.942-.885 5.333 5.333 0 00-4.843-3.11zm-20.997-7.413c-.16.053-3.93 1.356-3.93 5.28a1.067 1.067 0 002.134 0 3.667 3.667 0 012.477-3.257 1.069 1.069 0 10-.68-2.027v.004zm15.007-1.153a1.067 1.067 0 001.293-.776 4.55 4.55 0 014.305-3.458 1.066 1.066 0 10-.005-2.134 6.644 6.644 0 00-6.368 5.074 1.067 1.067 0 00.775 1.294z"/></g><ellipse cx="13.5" cy="56" rx="13.5" ry="14" fill="#E30020"/><defs><clipPath id="clip0"><path fill="#fff" d="M9 0h64v64H9z"/></clipPath></defs></svg>