<svg width="67" height="69" fill="none" xmlns="http://www.w3.org/2000/svg"><ellipse cx="13.5" cy="55" rx="13.5" ry="14" fill="#E30020"/><path d="M62 13h-2v-2a1 1 0 00-1-1h-2V8a1 1 0 00-1-1H8a1 1 0 00-1 1v2H5a1 1 0 00-1 1v6a1 1 0 001 1h2v2a1 1 0 001 1h2v7a3 3 0 004 2.829V34a3 3 0 006 0v-8.171A3.001 3.001 0 0024 23v-2h32a1 1 0 001-1v-2h2a1 1 0 001-1v-2h2a2.002 2.002 0 012 2v8a2.002 2.002 0 01-2 2H35a1 1 0 00-1 1v4h-1a1 1 0 00-1 1v2a1 1 0 00-1 1v24a3.005 3.005 0 003 3h2a3.005 3.005 0 003-3V36a1 1 0 00-1-1v-2a1 1 0 00-1-1h-1v-3h26a4.004 4.004 0 004-4v-8a4.004 4.004 0 00-4-4zM7 16H6v-4h1v4zm48 3H23a1 1 0 00-1 1v3a1 1 0 01-2 0 1 1 0 00-2 0v11a1 1 0 01-2 0v-6a1 1 0 00-2 0 1 1 0 01-2 0v-8a1 1 0 00-1-1H9V9h46v10zm3-3h-1v-4h1v4zM34 34h2v1h-2v-1zm3 3v23a1.001 1.001 0 01-1 1h-2a1.001 1.001 0 01-1-1V37h4z" fill="#5A2E91"/><path d="M15 19a1 1 0 00-1 1v5a1 1 0 002 0v-5a1 1 0 00-1-1zm4-1a1 1 0 00-1 1v1a1 1 0 002 0v-1a1 1 0 00-1-1z" fill="#5A2E91"/></svg>