<svg width="64" height="64" fill="none" xmlns="http://www.w3.org/2000/svg"><ellipse cx="35.5" cy="48" rx="13.5" ry="14" fill="#E30020"/><g clip-path="url(#clip0)" fill="#5A2E91"><path d="M33.444 44.248a1.067 1.067 0 101.868-1.03 35.871 35.871 0 00-7.944-9.725 1.067 1.067 0 10-1.4 1.611 33.743 33.743 0 017.476 9.145z"/><path d="M4.266 56.533a7.46 7.46 0 0014.202 3.2h1.798v2.134c0 1.178.955 2.133 2.133 2.133h19.2a2.133 2.133 0 002.133-2.133v-2.134h1.798a7.467 7.467 0 106.736-10.666h-8.612a21.014 21.014 0 0010.334-8.733 3.176 3.176 0 00-.533-3.82 29.212 29.212 0 00-15.056-7.563V25.6a4.267 4.267 0 004.267-4.267v-4.266h1.066a2.133 2.133 0 001.83-3.231.996.996 0 00-.07-.102l-2.833-3.682a10.225 10.225 0 00-3.245-7.178 10.697 10.697 0 00-8.123-2.85 10.862 10.862 0 00-9.959 10.973v7.136A7.466 7.466 0 0025.6 24.87v4.078a29.197 29.197 0 00-15.04 7.555 3.184 3.184 0 00-.546 3.84 21.001 21.001 0 0010.33 8.725h-8.61a7.475 7.475 0 00-7.467 7.466zm37.333 5.334h-19.2v-2.134h19.2v2.134zm16-5.334a5.333 5.333 0 01-10.667 0 1.067 1.067 0 012.134 0 1.067 1.067 0 002.133 0 3.2 3.2 0 00-6.4 0 7.5 7.5 0 00.085 1.067h-25.77c.053-.353.082-.71.085-1.067a3.2 3.2 0 00-6.4 0 1.067 1.067 0 102.133 0 1.067 1.067 0 012.134 0 5.333 5.333 0 11-5.334-5.333h40.534a5.34 5.34 0 015.333 5.333zm-26.17-54.38a8.614 8.614 0 016.526 2.277c.434.408.822.863 1.158 1.356-.797.127-1.66.278-2.585.464a1.06 1.06 0 00-2.007-.502l-.547 1.067c-.562.138-1.134.29-1.713.452a1.048 1.048 0 00-.553-.81 1.067 1.067 0 00-1.435.465l-.581 1.14a42.18 42.18 0 00-1.734.63 1.05 1.05 0 00-1.31-.625c-.27.087-.493.278-.621.53L25.414 9.8a27.4 27.4 0 00-1.942 1.044 8.713 8.713 0 017.957-8.69zM28.8 25.6a1.067 1.067 0 000-2.133 5.34 5.34 0 01-5.333-5.334v-4.761a23.23 23.23 0 012.716-1.56l1.067.54c.15.075.316.115.483.115a1.058 1.058 0 00.843-1.707 39.636 39.636 0 011.793-.659l1.126.575a1.067 1.067 0 001.436-.466 1.05 1.05 0 00.015-.901 53.793 53.793 0 011.6-.42l1.193.609a1.067 1.067 0 001.435-.465c.114-.232.14-.498.072-.747 1.086-.213 2.06-.38 2.858-.5.285.85.43 1.74.43 2.636 0 .236.077.465.221.651l2.97 3.86H41.6c-.59 0-1.067.478-1.067 1.067v1.067H28.8c-.59 0-1.067-.478-1.067-1.067v-1.067a1.067 1.067 0 00-2.133 0V16a3.2 3.2 0 003.2 3.2h11.733v2.133a2.133 2.133 0 01-2.133 2.134h-5.333a1.067 1.067 0 100 2.133h3.2v3.35a2.125 2.125 0 001.753 2.099 27.026 27.026 0 0113.927 6.977c.337.323.416.833.192 1.243a18.333 18.333 0 01-7.11 6.79C40 35.666 30.334 30.442 27.732 29.185v-3.67c.353.054.71.082 1.067.085zm-2.297 5.365c1.707.806 11.669 5.852 16.604 16.015a27.843 27.843 0 01-11 2.087 35.531 35.531 0 00-12.17-16.192 28.715 28.715 0 016.566-1.909zm-14.64 8.309a1.048 1.048 0 01.201-1.26 23.567 23.567 0 015.677-4.105 33.79 33.79 0 0112.076 15.085c-11.508-.711-16.359-6.945-17.955-9.72z"/><path d="M25.598 55.467h12.8a1.067 1.067 0 100-2.134h-12.8a1.067 1.067 0 000 2.134z"/></g><defs><clipPath id="clip0"><path fill="#fff" d="M0 0h64v64H0z"/></clipPath></defs></svg>