<svg width="85" height="68" fill="none" xmlns="http://www.w3.org/2000/svg"><path d="M85 59.155l-.035-.03.035-.04-.902-.763-6.306-5.8s-.111.115-.294.285l-.167.181c-1.438 1.33-6.048 5.179-11.457 5.254h-.35c-2.847-.306-5.623-1.822-8.439-4.627-4.675-4.676-9.877-7.2-15.474-7.536h-.466a20.487 20.487 0 00-2.533-.066c-8.429.342-14.69 5.942-16.817 8.1-.456.406-.73.697-.79.747l.03.03a.177.177 0 01-.035.045l.902.753 6.306 5.805.294-.29.167-.181c1.433-1.335 6.048-5.184 11.458-5.254h.344c2.852.306 5.623 1.822 8.439 4.627 4.68 4.656 9.872 7.18 15.47 7.526h.465c.842.075 1.688.096 2.533.066 8.428-.342 14.69-5.937 16.817-8.094.44-.422.719-.708.775-.768" fill="#EFC825"/><g clip-path="url(#clip0)" fill="#5A2E91"><path d="M32.574 19.062l-.955-.106a.938.938 0 00-.206 1.864l.955.105a.938.938 0 00.206-1.863z"/><path d="M58.97 58.411h-4.725a.937.937 0 100 1.875h4.725a.92.92 0 010 1.839H5.028a.92.92 0 010-1.839H49.87a.937.937 0 100-1.875h-4.33a2.692 2.692 0 00-2.56-3.51h-1.96l-4.254-11.645a1.955 1.955 0 001.184-2.195.953.953 0 00-.031-.113l-2.621-7.73a.915.915 0 00.12-.007 1.798 1.798 0 001.55-2.098c-.301-1.703-.38-3.761-.241-6.14.022.022.879 1.61 2.875 1.706l8.206.39c1.524.073 2.849-1.034 2.987-2.544a2.808 2.808 0 00-2.662-3.063l-6.859-.325a1.615 1.615 0 00-.147-1.607l-2.973-4.222c.041-1.736-1.871-2.782-2.963-2-.096-.075-.126-.27-.136-.39A6.705 6.705 0 0039.3 6.932a.937.937 0 10-1.873-.07 4.836 4.836 0 01-2.544 4.075c-3.794 2.026-8.11-1.579-6.874-5.647 1.08-3.552 5.628-4.604 8.149-1.863a.938.938 0 001.38-1.27c-3.497-3.801-9.821-2.355-11.323 2.588a6.678 6.678 0 002.585 7.438c-.087.185-.207.36-.365.43a3.386 3.386 0 00-.44-.281c-1.586-.829-3.884-.605-5.54.17l-3.444 1.612a1.386 1.386 0 00-.764 1.576c-.24.148-2.273.501-2.85 2.671l-2.11 7.94c-.395 1.488.42 3.006 1.857 3.456a2.807 2.807 0 003.555-1.957l1.695-6.376c.404.348.973.405 1.434.154l1.642-.894c-.52 3.22-.937 5.922-1.239 10.442-.035.522.17 1.056.587 1.423l-.973 3.186a.937.937 0 101.793.547l.542-1.775 3.693 7.063c-.654 1.621-.599 1.9-.82 1.846l-.652-.157-2.012-.483c-2.47-.622-2.566-.556-2.528-.674l.478-1.565a.94.94 0 10-1.77-.622l-.495 1.621a1.933 1.933 0 001.358 2.456L17.899 56.68a2.903 2.903 0 00.057 1.731H5.028a2.797 2.797 0 00-2.794 2.794A2.797 2.797 0 005.028 64H58.97a2.797 2.797 0 002.794-2.794 2.797 2.797 0 00-2.794-2.795zM40.35 22.97c7.933.476 7.89.152 8.354.685.553.637.043 1.58-.807 1.541l-8.206-.39c-1.134-.053-1.474-1.062-1.666-1.275l1.57-1.008c.012.012.232.423.755.447zm-2.701-5.122l1.793 2.545a7823.258 7823.258 0 01-2.435 1.562l.006-.003c-.002 0-.006.003-.012.007a59.2 59.2 0 01.648-4.111zm-.645 4.11c-.002 0-.002 0 0 0zm2.39 33.956c.189.517.685.863 1.234.863h2.352a.815.815 0 010 1.628c-.013 0-3.872-.002-3.908.002a.92.92 0 01-.943-.599l-4.942-13.525 1.773-.502 4.434 12.133zm-8.91-42.887a6.61 6.61 0 002.738.322c.117.67.447 1.233 1.02 1.58-1.27 1.785-3.89 1.328-4.573-.63-.023-.063-.05-.123-.075-.185.378-.27.675-.653.89-1.087zm-11.618 6.848c-2.136 7.651-1.81 7.68-2.43 8.022-.737.406-1.555-.29-1.336-1.113l2.11-7.94c.294-1.105 1.373-1.224 1.641-1.376l.607 1.764c-.013.009-.458.14-.592.643zm5.246 11.238c.32-4.694.827-7.795 1.132-9.656.094-.571.432-1.699-.692-2.417a1.826 1.826 0 00-1.857-.068l-1.132.616-1.362-3.96c2.372-.946 3.744-2.259 6.197-1.875.252.04.496.12.727.241.356.186.63.514.774.924 1.348 3.858 6.73 4.062 8.362.224a.338.338 0 01.01.195c-1.104 4.58-1.969 11.305-1.168 16.002l-10.991-.226zm1.412 1.904l7.78.16 2.809 8.285a.072.072 0 01-.05.058c-5.669 1.605-5.246 1.515-5.323 1.383l-5.216-9.886zm1.35 12.266a2.015 2.015 0 002.1-1.298l.09-.24c.012.012.497 1.113 1.808 1.113.167 0 .337-.021.505-.064l4.976 13.618H27.02a2.65 2.65 0 00.127-.81 2.702 2.702 0 00-2.699-2.7h-.252l1.035-3.715 1.643-5.904zm-7.168 11.901l3.55-12.752 1.788.43-2.977 10.694a.968.968 0 00.16.84c.182.24.468.381.768.381h1.452c.454 0 .824.37.824.824 0 .442-.36.802-.802.802h-3.731a.933.933 0 00-.084.004.904.904 0 01-.517-.106c-.374-.202-.556-.671-.431-1.117z"/><path d="M37.012 21.95c.003-.001.002 0 0 0z"/></g><defs><clipPath id="clip0"><path fill="#fff" d="M0 0h64v64H0z"/></clipPath></defs></svg>