<svg width="67" height="66" fill="none" xmlns="http://www.w3.org/2000/svg"><ellipse cx="13.5" cy="52" rx="13.5" ry="14" fill="#E30020"/><path d="M62 38a1 1 0 001-1v-4a1 1 0 00-1-1h-5v-3a1 1 0 00-.168-.555l-16-24A1 1 0 0040 4h-3.172a3 3 0 00-5.814.706L9.425 42H8a1 1 0 00-1 1v4c0 .135.027.27.08.394l4.962 11.576A4.993 4.993 0 0016.637 62h36.725a4.995 4.995 0 004.596-3.03l4.961-11.576A.997.997 0 0063 47v-4a1 1 0 00-1-1H37v-4h25zm-1-2H37v-2h24v2zm-24-4v-2h18v2H37zm9.132-16H37v-2h7.798l1.334 2zm1.333 2l4 6H37v-6h10.465zm5.333 8l1.334 2H37v-2h15.798zm-9.333-14H37V6h2.465l4 6zM31 8.723V42H11.735L31 8.723zm25.12 49.459A2.997 2.997 0 0153.362 60H16.639a2.996 2.996 0 01-2.758-1.818L9.517 48h50.966L56.12 58.182zM61 46H9v-2h52v2zm-28-4V5a1 1 0 012 0v37h-2z" fill="#5A2E91"/><path d="M24 51a1 1 0 10-2 0 1 1 0 002 0zm4 0a1 1 0 10-2 0 1 1 0 002 0zm4 0a1 1 0 10-2 0 1 1 0 002 0zm4 0a1 1 0 10-2 0 1 1 0 002 0zm4 0a1 1 0 10-2 0 1 1 0 002 0zm4 0a1 1 0 10-2 0 1 1 0 002 0zm4 0a1 1 0 10-2 0 1 1 0 002 0z" fill="#5A2E91"/></svg>