<svg width="68" height="76" fill="none" xmlns="http://www.w3.org/2000/svg"><path d="M64 67.155l-.035-.03.035-.04-.902-.763-6.306-5.8s-.111.115-.294.285l-.167.181c-1.438 1.33-6.048 5.179-11.458 5.254h-.35c-2.846-.306-5.622-1.822-8.438-4.627-4.675-4.676-9.877-7.2-15.474-7.536h-.466a20.487 20.487 0 00-2.533-.066c-8.429.342-14.69 5.942-16.817 8.1-.456.406-.73.697-.79.747l.03.03a.175.175 0 01-.035.045l.902.753 6.306 5.805.294-.29.167-.181c1.433-1.335 6.048-5.184 11.458-5.254h.344c2.852.306 5.622 1.822 8.439 4.626 4.68 4.657 9.872 7.181 15.47 7.527h.465c.842.075 1.688.096 2.533.066 8.428-.342 14.69-5.937 16.817-8.094.44-.422.719-.708.775-.768" fill="#EFC825"/><path d="M66.87 1.925H5.13a1.13 1.13 0 100 2.259h6.942v4.785h-.586a4.902 4.902 0 00-4.897 4.897v7.87c0 .624.506 1.13 1.13 1.13h.58a4.953 4.953 0 001.437 3.107l2.24 2.241c.046.312.147.562.265.757l8.995 32.277a1.13 1.13 0 002.176-.606l-8.604-30.876c1.407-.363 2.968-1.53 4.075-2.637 1.022-1.022 1.843-2.147 2.311-3.168a5.88 5.88 0 00.198-.491l4.463 2.48a1.13 1.13 0 101.097-1.974l-6.033-3.353a1.961 1.961 0 00-.952-.4l-.531-.531c.23-.207.377-.506.377-.84v-4.986c0-2.7-2.197-4.897-4.896-4.897h-.587V4.184h18.468v4.785h-.586a4.902 4.902 0 00-4.897 4.897v4.989c0 .624.506 1.13 1.13 1.13h.233a4.938 4.938 0 00-.132 3.51l1.006 3.003a1.973 1.973 0 00-.077.978l-1.418 33.421a1.13 1.13 0 102.257.096l1.348-31.79c.272.041.577.065.92.065 1.074 0 2.365-.235 3.636-.66 1.371-.46 2.607-1.102 3.481-1.807.135-.108.257-.216.368-.322l11.392 17.348-6.127 16.73a1.13 1.13 0 102.121.776l5.55-15.155 10.105 15.387a1.129 1.129 0 101.888-1.24L53.97 43.537l5.308-14.494c.137-.205.258-.478.31-.83l2.24-2.24a4.94 4.94 0 001.44-3.107h.578a1.13 1.13 0 001.13-1.13v-7.87c0-2.7-2.197-4.897-4.897-4.897h-.586V4.184h7.377a1.13 1.13 0 100-2.259zM11.334 20.532l.952-.952a2.72 2.72 0 013.844 0l1.287 1.287c-.988.538-1.958 1.323-2.715 2.08-.873.874-1.597 1.821-2.082 2.715l-1.285-1.286a2.72 2.72 0 010-3.844zm5.952 5c-1.237 1.238-2.415 1.891-3.043 2.052.15-.584.766-1.749 2.056-3.039 1.238-1.238 2.415-1.891 3.044-2.052-.152.584-.767 1.749-2.057 3.04zm.268-11.666v3.855h-.111a4.983 4.983 0 00-6.754.262l-.952.952c-.365.365-.66.772-.888 1.207v-6.276a2.64 2.64 0 012.638-2.638h3.43a2.64 2.64 0 012.637 2.638zm12.021 0a2.64 2.64 0 012.638-2.638h3.43a2.64 2.64 0 012.638 2.638v3.855h-.378c-.033 0-.065.003-.098.006a5.005 5.005 0 00-1.045-.696 4.943 4.943 0 00-3.8-.264l-1.276.428c-.4.134-.777.316-1.123.54a1.155 1.155 0 00-.137-.01h-.849v-3.86zm1.691 10.636l-.577-1.724a2.7 2.7 0 01.144-2.075 2.7 2.7 0 011.57-1.366l1.276-.428a2.7 2.7 0 012.075.144 2.7 2.7 0 011.365 1.57l.578 1.724c-1.015.036-2.194.263-3.357.653-1.171.392-2.241.918-3.074 1.502zm4.235 1.963c-1.045.35-2.082.544-2.919.544-.316 0-.55-.029-.713-.063.376-.426 1.372-1.196 3.189-1.804 1.045-.35 2.082-.544 2.918-.544.317 0 .55.029.714.063-.377.426-1.373 1.196-3.189 1.804zm19.767-1.92c1.29 1.29 1.906 2.455 2.057 3.04-.63-.162-1.807-.815-3.044-2.053-1.29-1.29-1.905-2.455-2.056-3.039.629.16 1.806.814 3.043 2.052zm4.965-.169l-1.286 1.286c-.485-.894-1.209-1.841-2.081-2.714-.758-.758-1.728-1.543-2.715-2.081l1.286-1.287a2.721 2.721 0 013.844 0l.952.953a2.7 2.7 0 01.796 1.921 2.7 2.7 0 01-.796 1.922zm2.485-10.51v6.273a4.99 4.99 0 00-.888-1.204l-.952-.952a4.982 4.982 0 00-6.753-.261h-.112v-3.856a2.64 2.64 0 012.637-2.638h3.43a2.64 2.64 0 012.638 2.638zm-5.482-4.897h-.586a4.902 4.902 0 00-4.896 4.897v4.985c0 .335.146.634.377.841l-.53.53a1.963 1.963 0 00-.953.401l-6.034 3.353a1.13 1.13 0 101.097 1.974l4.464-2.48c.056.157.119.319.198.491.468 1.02 1.289 2.146 2.311 3.168 1.072 1.072 2.568 2.2 3.94 2.601l-4.196 11.455-11.475-17.474a1.954 1.954 0 00-.685-.804l-.981-2.927h.123a1.13 1.13 0 001.13-1.13v-4.984c0-2.7-2.197-4.897-4.897-4.897h-.585V4.184h22.178v4.785z" fill="#5A2E91"/></svg>