<svg width="70" height="69" fill="none" xmlns="http://www.w3.org/2000/svg"><ellipse cx="56.5" cy="55" rx="13.5" ry="14" fill="#E30020"/><g clip-path="url(#clip0)" fill="#5A2E91"><path d="M62.562 32.039a12.97 12.97 0 00-11.568-7.04 12.914 12.914 0 00-4.053.656l-5.325-10.65h8.378a1 1 0 110 1.998h-3.998a1 1 0 100 2h3.998a2.999 2.999 0 100-5.998H40a1 1 0 00-.9 1.446l1.281 2.552H22.624l-1-1.999h5.38a1 1 0 000-1.999H17.01a1 1 0 100 2h2.38l1.5 2.998-3.826 7.652C10.246 23.41 2.9 27.116.656 33.932-1.59 40.75 2.116 48.094 8.933 50.34c6.816 2.245 14.162-1.46 16.407-8.277a13 13 0 00.614-3.069h6.048a.99.99 0 00.24-.03l.02-.006c.024-.006.044-.019.067-.026.04-.012.08-.026.119-.043.006 0 .009-.008.014-.01l.04-.023a.864.864 0 00.085-.06c.043-.03.084-.064.122-.1l.039-.04c.015-.017.024-.036.038-.054.014-.018.047-.051.066-.081.008-.014.012-.03.019-.044.007-.014.018-.022.025-.035l9.102-18.203 3.098 6.197c-6.37 3.276-8.88 11.095-5.604 17.466 3.276 6.37 11.095 8.88 17.466 5.604 6.37-3.276 8.88-11.096 5.604-17.466zM13.01 48.989C6.938 48.997 2.008 44.082 2 38.009 1.991 31.937 6.907 27.007 12.98 27a10.996 10.996 0 013.178.465l-5.042 10.083a1 1 0 00.895 1.446h11.944A11.005 11.005 0 0113.01 48.99zm.618-11.995l4.39-8.777a11.002 11.002 0 015.937 8.777H13.628zm12.326 0a12.994 12.994 0 00-7.046-10.563l3.098-6.197 8.379 16.76h-4.431zm6.048-1.235l-8.378-16.757H40.38L32.002 35.76zm22.17 12.765c-1.031.31-2.102.466-3.178.465-6.069.005-10.992-4.91-10.997-10.978a10.987 10.987 0 015.99-9.794l5.111 10.224a1 1 0 101.79-.894l-5.042-10.083c5.816-1.747 11.946 1.551 13.693 7.367 1.747 5.816-1.551 11.946-7.367 13.693z"/><path d="M13.01 39.993h-.999a1 1 0 000 1.999h1a1 1 0 100-2zm4 0h-.999a1 1 0 000 1.999h1a1 1 0 100-2zm3.997 0h-1a1 1 0 000 1.999h1a1 1 0 100-2z"/></g><defs><clipPath id="clip0"><path fill="#fff" d="M0 0h64v64H0z"/></clipPath></defs></svg>