<svg width="67" height="64" fill="none" xmlns="http://www.w3.org/2000/svg"><path fill="#715F7A" d="M67 50v10H10V50z"/><path d="M37.514 19.56a5.091 5.091 0 10-10.182-.026 5.091 5.091 0 0010.182.025zm-5.09 3.578a3.578 3.578 0 113.59-3.579 3.59 3.59 0 01-3.59 3.578zm-16.554 9a3.515 3.515 0 103.524 3.515 3.524 3.524 0 00-3.524-3.515zm0 5.53a2.015 2.015 0 11.017-4.032 2.015 2.015 0 01-.017 4.032zm22.26 1.005a3.013 3.013 0 103.02 3.012 3.02 3.02 0 00-3.02-3.012zm0 4.525a1.513 1.513 0 11.015-3.026 1.513 1.513 0 01-.014 3.026zm16.038-14.784a3.013 3.013 0 10-3.02-3.012 3.02 3.02 0 003.02 3.012zm0-4.525a1.512 1.512 0 11-.013 3.024 1.512 1.512 0 01.013-3.024z" fill="#5A2E91"/><path d="M56.355 31.318l1.978-2.636a5.224 5.224 0 001.068-3.481c-.178-2.73-2.414-4.868-5.09-4.868-2.676 0-4.911 2.138-5.09 4.867-.038.62.039 1.241.228 1.832l-12.37.227 1.908-2.546a8.347 8.347 0 001.71-5.562 8.458 8.458 0 00-2.447-5.425 8.02 8.02 0 00-11.347 0 8.457 8.457 0 00-2.446 5.424c-.128 1.906.477 3.879 1.708 5.562l1.652 2.201-17.58.116a.75.75 0 00-.704.508L1.29 51.632a.75.75 0 00.71.993h60a.75.75 0 00.716-.974l-6.36-20.333zm-5.637-6.02c.11-1.703 1.485-3.465 3.593-3.465 2.107 0 3.481 1.762 3.593 3.467a3.725 3.725 0 01-.77 2.48l-2.823 3.763-2.818-3.755a3.827 3.827 0 01-.775-2.49zm-.543 3.22c.038.055.075.11.114.163l3.422 4.563a.751.751 0 001.2 0l.335-.447.853 2.726-11.629.003-.843-6.886 6.548-.121zM27.371 23.82c-1.018-1.392-1.521-3.015-1.417-4.571a6.958 6.958 0 012.012-4.463 6.52 6.52 0 019.222 0 6.96 6.96 0 012.013 4.465 6.849 6.849 0 01-1.412 4.561l-5.212 6.947-5.206-6.94zM3.049 51.125l3.896-11.39 4.437-.014 4.063 5.416a.75.75 0 001.2 0l3.237-4.316.04 10.304H3.05zm16.579-12.464l-3.583 4.776-3.578-4.769c-.704-.962-1.052-2.081-.98-3.152.14-2.159 1.884-4.392 4.558-4.392 2.673 0 4.416 2.233 4.557 4.394a4.721 4.721 0 01-.974 3.143zm11.82 4.602a.75.75 0 00-.223.534l.004 7.328h-9.807l-.047-12.424a6.11 6.11 0 00.725-3.283c-.212-3.249-2.871-5.794-6.055-5.794-3.183 0-5.842 2.545-6.054 5.793a6.067 6.067 0 00.505 2.806l-3.036.01 3.32-9.707 18.158-.12 3.04 4.053a.75.75 0 001.2 0l2.76-3.68 6.182-.113.942 7.7a.75.75 0 00.744.66l12.762-.004 1.882 6.016-15.236.026a4.997 4.997 0 00.149-1.58c-.178-2.73-2.414-4.868-5.09-4.868-2.676 0-4.912 2.138-5.09 4.867a4.95 4.95 0 00.156 1.584l-1.353-.02a.73.73 0 00-.537.216zm9.648.801l-2.823 3.763-2.818-3.755a3.825 3.825 0 01-.775-2.49c.11-1.704 1.485-3.466 3.593-3.466 2.107 0 3.482 1.763 3.593 3.468a3.727 3.727 0 01-.77 2.48zm-8.367 7.061l-.004-6.567 1.265.019c.08.131.168.26.26.387l3.423 4.563a.75.75 0 001.2 0l3.422-4.562a5.34 5.34 0 00.274-.4l16.35-.027 2.06 6.587H32.73z" fill="#5A2E91"/></svg>