<svg width="85" height="76" fill="none" xmlns="http://www.w3.org/2000/svg"><path d="M85 67.155l-.035-.03.035-.04-.902-.763-6.306-5.8s-.111.115-.294.285l-.167.181c-1.438 1.33-6.048 5.179-11.457 5.254h-.35c-2.847-.306-5.623-1.822-8.439-4.627-4.675-4.676-9.877-7.2-15.474-7.536h-.466a20.487 20.487 0 00-2.533-.066c-8.429.342-14.69 5.942-16.817 8.1-.456.406-.73.697-.79.747l.03.03a.177.177 0 01-.035.045l.902.753 6.306 5.805.294-.29.167-.181c1.433-1.335 6.048-5.184 11.458-5.254h.344c2.852.306 5.623 1.822 8.439 4.626 4.68 4.657 9.872 7.181 15.47 7.527h.465c.842.075 1.688.096 2.533.066 8.428-.342 14.69-5.937 16.817-8.094.44-.422.719-.708.775-.768" fill="#EFC825"/><path d="M19.142 43.01l-7-1A.999.999 0 0011 43v3h-1a3 3 0 103 3v-4.847l5 .714V47h-1a3 3 0 103 3v-6a1 1 0 00-.858-.99zM11 49a1 1 0 11-1-1h1v1zm7 1a1 1 0 11-1-1h1v1zm41.242-19.97L56 29.22v-.94l2.758.69a1 1 0 00.484-1.94l-4-1A1 1 0 0054 27v4h-1a3 3 0 103 3v-2.72l2.758.69a1 1 0 00.484-1.94zM54 34a1 1 0 11-1-1h1v1z" fill="#5A2E91"/><path d="M49 9V5a1 1 0 00-.106-.447l-1-2A1 1 0 0047 2h-3a1 1 0 00-1 1v1.764l-.894 1.789a1 1 0 000 .894l.846 1.693-.819 4.095-5.09 1.696-1.716-.733-.886-1.328A3.988 3.988 0 0035.66 10V5.472a3.472 3.472 0 00-6.578-1.553l-.048.097a3.363 3.363 0 00-2.05 5.723l.7.7a3.987 3.987 0 001.029 2.263l-.503 1.508s-2.608.875-2.638.89c-.015.007-9.057 5.027-9.057 5.027a.999.999 0 00-.495.678l-2 10A.985.985 0 0014 31v3a1 1 0 00.758.97l4 1a.998.998 0 001.136-.523l1-2a1 1 0 000-.894l-.826-1.652 1.785-6.247 3.887-2.332 1.011 1.347A6.28 6.28 0 0128 27.413V30a1 1 0 001 1h1v2.051a5.709 5.709 0 001.081 3.356l2.81 8.426-4.705 6.586a.999.999 0 00-.067 1.048l-1.826 1.826a1 1 0 00-.221 1.078l2 5a1 1 0 00.48.523l2 1A1 1 0 0032 62h1a1.001 1.001 0 00.707-.293l.572-.572 1.207.723A1 1 0 0036 62h4a1 1 0 00.906-1.424l-2.09-4.462 5.827-7.938A6.954 6.954 0 0046 44.034v-.371a7.002 7.002 0 00-.998-3.602L40 31.723v-4.117a12.863 12.863 0 00-1.539-6.113l8.91-3.564a1 1 0 00.621-.804S49 9.04 49 9zm-11 7.72l2-.666v2.669l-2 .8v-2.802zm-4.658-1.893a2.778 2.778 0 01-3.189-.124l.297-.89c.73.231 1.51.249 2.25.05l.642.964zM33.66 10a2 2 0 01-3.963.377L32.074 8h1.586v2zm-5.59-3.069A1.36 1.36 0 0129.363 6h.297a1 1 0 00.895-.553l.316-.633a1.471 1.471 0 012.79.658V6h-2a1 1 0 00-.708.293L28.66 8.586l-.261-.261a1.354 1.354 0 01-.329-1.394zM25 17.7v2.734l-1.586.952-1.093-2.198L25 17.7zm-4.962 6.025l-2 7a1 1 0 00.068.722L18.882 33l-.418.835L16 33.22V31.1l1.89-9.45 2.68-1.49 1.123 2.258-1.208.725a1 1 0 00-.447.583zm8.314-1.256L27 20.667V16.72l1.747-.582a4.78 4.78 0 006.128.04L36 16.66V21a1 1 0 00.168.555A10.874 10.874 0 0138 27.605V29h-8v-1.587a8.293 8.293 0 00-1.648-4.944zm7.462 23.112a1 1 0 00.135-.897l-1.655-4.962 4.437 4.425-5.972 9.582-1.494-1.779 4.549-6.369zM32.236 60l-1.449-.725-1.614-4.035 1.22-1.22 1.256 1.495a.996.996 0 00.81 1.48l-.712 1.596a1 1 0 00.4 1.266l.237.142-.148.001zm4.04 0l-2.341-1.402.713-1.598h2.375l1.405 3h-2.151zm7.011-18.91c.467.777.713 1.666.713 2.572v.373a4.967 4.967 0 01-.97 2.959L37.154 55h-2.83l6.525-10.471a1 1 0 00-.142-1.237l-7.625-7.607A3.728 3.728 0 0132 33.05V31h6v1c0 .181.05.359.142.514l5.145 8.575zM47 8.937l-.92 7.353L42 17.923v-2.535l1.316-.44a1 1 0 00.665-.752l1-5a1 1 0 00-.087-.643L44.118 7l.776-1.553A1 1 0 0045 5V4h1.382L47 5.236v3.701z" fill="#5A2E91"/><path d="M27.707 37.293l-.586-.586A3.804 3.804 0 0126 34a1 1 0 10-2 0 5.79 5.79 0 001.707 4.121l.586.586a1 1 0 001.414-1.414zM12.684 21.949a.997.997 0 001.265-.633l.293-.878a4.37 4.37 0 012.205-2.544 1 1 0 00-.894-1.788 6.356 6.356 0 00-3.209 3.7l-.293.878a1 1 0 00.633 1.265zm6.317-5.449a.998.998 0 00.447-.106l1-.5a1 1 0 10-.895-1.789l-1 .5a1 1 0 00.448 1.895zm32.289 2.794l.659-1.978a1 1 0 00-1.898-.632l-.66 1.978a1.318 1.318 0 01-.762.81 1.001 1.001 0 00.742 1.857 3.314 3.314 0 001.918-2.035zm-5.661 1.378l-1 .4a1 1 0 10.743 1.857l1-.4a1 1 0 00-.743-1.857zM25 31a1 1 0 001-1v-1a1 1 0 00-2 0v1a1 1 0 001 1z" fill="#5A2E91"/></svg>