<svg width="64" height="71" fill="none" xmlns="http://www.w3.org/2000/svg"><path d="M63.627 26.918a1.252 1.252 0 00-1.13-.342l-10.773 2.168a1.25 1.25 0 00-.637 2.11l1.457 1.457-5.72 5.72-4.427-4.428a1.25 1.25 0 00-1.768 0l-5.433 5.433 2.038-7.323a5.816 5.816 0 00-.98-5.117 5.827 5.827 0 00-2.61-1.946l1.63-4.654c.449.04.897.06 1.34.06a15.54 15.54 0 009.91-3.582l.297-.248c1.467-1.218 1.717-3.334.571-4.818a3.44 3.44 0 00-2.364-1.33 3.439 3.439 0 00-2.597.78l-.339.281a8.604 8.604 0 01-1.62 1.063c-1.928.972-4.334.54-5.934-1.044a5.717 5.717 0 004.021-5.452A5.713 5.713 0 0032.853 0a5.713 5.713 0 00-5.706 5.706 5.68 5.68 0 001.092 3.353 6.511 6.511 0 00-3.36 1.895 1.262 1.262 0 00-.148.15 16.957 16.957 0 01-8.494 5.615 3.456 3.456 0 00-2.058 1.629l-2.562-2.562a2.878 2.878 0 00-4.066 0L4.2 19.14.846 22.49a2.856 2.856 0 00-.842 2.033c0 .768.299 1.49.842 2.033l9.237 9.238a2.856 2.856 0 002.033.842c.768 0 1.49-.3 2.033-.842l3.471-3.472-1.646 4.316a1.25 1.25 0 002.336.891l4.1-10.749h9.178c1.06 0 2.035.484 2.676 1.328.641.843.846 1.913.562 2.934l-2.84 10.205a1.07 1.07 0 01-1.027.78 1.05 1.05 0 01-.81-.374c-.12-.14-.31-.437-.243-.86l1.512-9.5a1.25 1.25 0 00-1.235-1.446H27.22a1.25 1.25 0 00-1.115.685c-.073.144-7.326 14.484-9.77 19.329a1.284 1.284 0 01-1.321.687l-.06-.008a1.215 1.215 0 01-.886-.587 1.215 1.215 0 01-.092-1.06l.77-2.02a1.25 1.25 0 00-2.335-.89l-.77 2.02a3.702 3.702 0 00.277 3.227 3.703 3.703 0 002.7 1.788l.06.007a3.783 3.783 0 003.89-2.039c2.134-4.232 7.94-15.712 9.42-18.64h.73l-1.28 8.055a3.56 3.56 0 002.437 3.956L15.95 58.28a1.25 1.25 0 000 1.768l3.585 3.585a1.246 1.246 0 001.768 0l6.892-6.892a1.25 1.25 0 00-1.768-1.768l-6.008 6.008-1.818-1.817 22.911-22.911 4.428 4.428a1.25 1.25 0 001.768 0l7.487-7.488a1.25 1.25 0 000-1.767l-.692-.692 6.643-1.337-1.337 6.643-1.029-1.029a1.25 1.25 0 00-1.767 0L46.823 45.2l-4.427-4.428a1.25 1.25 0 00-1.768 0l-7.13 7.13a1.25 1.25 0 001.767 1.768l6.247-6.247 4.428 4.428a1.25 1.25 0 001.768 0l10.188-10.188 1.794 1.794a1.25 1.25 0 002.11-.638l2.168-10.772a1.25 1.25 0 00-.342-1.13zM32.853 2.5a3.21 3.21 0 013.206 3.206 3.21 3.21 0 01-3.206 3.207 3.21 3.21 0 01-3.207-3.207A3.21 3.21 0 0132.853 2.5zM20.485 24.654l-1.521-1.52a24.13 24.13 0 002.127-.808l-.606 2.328zm-4.218-4.335a.969.969 0 01.662-1.198 19.494 19.494 0 005.698-2.7l-.706 2.714a21.558 21.558 0 01-4.457 1.846.96.96 0 01-.744-.091l-.366-.367a.954.954 0 01-.087-.204zm-6.948-2.765a.374.374 0 01.53 0l4.556 4.556c.212.288.463.54.747.747l3.935 3.934a.375.375 0 010 .53l-2.47 2.47-2.745-2.746.523-.523a1.25 1.25 0 000-1.768l-2.813-2.814a1.25 1.25 0 00-1.768 0l-.523.523-2.441-2.44 2.469-2.47zm1.71 8.798a.468.468 0 01-.663 0l-.382-.382a.468.468 0 010-.664l.714-.714 1.045 1.046-.713.714zm1.352 7.675a.368.368 0 01-.265.11.368.368 0 01-.265-.11l-9.237-9.238a.368.368 0 01-.11-.265c0-.07.019-.174.11-.265l2.468-2.468 2.558 2.557a2.958 2.958 0 00-.294 1.29c0 .793.31 1.539.87 2.1l.382.382c.561.56 1.307.87 2.1.87a2.96 2.96 0 001.29-.294l2.862 2.862-2.469 2.469zm17.854-9.746h-7.07l2.568-9.87a4.007 4.007 0 013.877-2.998 3.96 3.96 0 012.934 1.279c2.348 2.53 6.072 3.246 9.054 1.742a11.1 11.1 0 002.092-1.372l.338-.28a.957.957 0 01.725-.218.96.96 0 01.66.372c.315.406.23 1.02-.189 1.367l-.297.248a13.035 13.035 0 01-8.312 3.005c-.657 0-1.33-.053-1.997-.157a1.249 1.249 0 00-1.372.822l-2.121 6.06h-.89z" fill="#472880"/><path d="M30.871 51.096c-.329 0-.651.134-.884.366a1.259 1.259 0 00-.366.884 1.254 1.254 0 001.25 1.25 1.254 1.254 0 001.25-1.25c0-.329-.134-.651-.366-.884a1.258 1.258 0 00-.884-.366zm-15.516-8.082c.33 0 .652-.134.884-.366a1.26 1.26 0 00.366-.884 1.26 1.26 0 00-.366-.883 1.262 1.262 0 00-.884-.367c-.328 0-.65.134-.885.367a1.259 1.259 0 00-.365.883c0 .329.133.651.365.884.234.232.555.366.885.366z" fill="#472880"/><ellipse cx="50.5" cy="57" rx="13.5" ry="14" fill="#E30020"/></svg>