<svg width="64" height="64" fill="none" xmlns="http://www.w3.org/2000/svg"><path d="M27.82 11.198l.362 1.967c.6-.11 1.209-.165 1.819-.165a9.891 9.891 0 014.545 1.09l.91-1.781a11.848 11.848 0 00-3.455-1.144V9h2a1 1 0 001-1V3a1.001 1.001 0 00-1-1h-5a1 1 0 00-1 1v5a1 1 0 001 1h1v2a12.1 12.1 0 00-2.18.198zM30.001 4h3v3h-3V4zM14 18H9a1.001 1.001 0 00-1 1v5a1 1 0 001 1h5a1.001 1.001 0 001-1v-2h3.043a12.188 12.188 0 00.006 2.09l1.992-.18c-.027-.3-.041-.606-.041-.91a9.967 9.967 0 015.455-8.91l-.91-1.781c-.821.42-1.591.932-2.296 1.526L19 10.585V3a1.001 1.001 0 00-1-1h-8a1 1 0 00-1 1v8a1 1 0 001 1h7.586l3.247 3.247A11.918 11.918 0 0018.378 20H15v-1a1.001 1.001 0 00-1-1zm-1 5h-3v-3h3v3zm4-13h-6V4h6v6z" fill="#472880"/><path d="M48 18h11a1.001 1.001 0 001-1V6a1.001 1.001 0 00-1-1H48a1 1 0 00-1 1v6.446l-6.79 4.244a12.036 12.036 0 00-2.573-2.947l-1.274 1.542a10 10 0 011.861 13.402l-1.999-.666A7.998 7.998 0 1022 23c0 .382.027.763.08 1.142l1.98-.284a6 6 0 1110.09 3.471l-.333-.11-1.501-5.254A2.71 2.71 0 0027 22.71v5.49a6.008 6.008 0 01-2.143-2.108l-1.714 1.032A7.992 7.992 0 0027 30.419v1.168l-.705.705a9.972 9.972 0 01-5.614-5.655l-1.863.728a12 12 0 00.276.648L12.714 32H5a1.001 1.001 0 00-1 1v8a1 1 0 001 1h8a1.001 1.001 0 001-1v-7.446l6.077-3.798a11.943 11.943 0 004.701 4.052l-1.485 1.485A1 1 0 0023 36v6a1 1 0 00.232.64L28 48.362V61a1.001 1.001 0 001 1h13a1.001 1.001 0 001-1V48.236l2.894-5.789A.999.999 0 0046 42v-7.928a3.87 3.87 0 00-2.65-3.676l-3.164-1.055a12.06 12.06 0 001.602-4.113L48 26.78V30a1.001 1.001 0 001 1h6a1.001 1.001 0 001-1v-6a1.001 1.001 0 00-1-1h-6a1.001 1.001 0 00-1 1v.72l-6.005-1.502c.002-.073.005-.145.005-.218a11.997 11.997 0 00-.88-4.52L47 14.804V17a1.001 1.001 0 001 1zM12 40H6v-6h6v6zm32-5.928v7.692l-2.894 5.789A.999.999 0 0041 48v12H30V48a1 1 0 00-.232-.64L25 41.638v-5.224l2-2V40h2V22.71a.71.71 0 011.393-.195L32 28.14V35h2v-5.613l2 .667V35h2v-4.28l2 .667V35h2v-2.946l.718.24A1.873 1.873 0 0144 34.071zM50 25h4v4h-4v-4zM49 7h9v9h-9V7z" fill="#472880"/><path fill="#715F7A" d="M61 54v10H4V54z"/></svg>