<svg width="86" height="75" fill="none" xmlns="http://www.w3.org/2000/svg"><path d="M86 66.155l-.035-.03.035-.04-.902-.763-6.306-5.8s-.111.115-.294.285l-.167.181c-1.438 1.33-6.048 5.179-11.457 5.254h-.35c-2.847-.306-5.623-1.822-8.439-4.627-4.675-4.676-9.877-7.2-15.474-7.536h-.466a20.487 20.487 0 00-2.533-.066c-8.429.342-14.69 5.942-16.817 8.1-.456.406-.73.697-.79.747l.03.03a.177.177 0 01-.035.045l.902.753 6.306 5.805.294-.29.167-.181c1.433-1.335 6.048-5.184 11.458-5.254h.344c2.852.306 5.623 1.822 8.439 4.626 4.68 4.657 9.872 7.181 15.47 7.527h.465c.842.075 1.688.096 2.533.066 8.428-.342 14.69-5.937 16.817-8.094.44-.422.719-.708.775-.768" fill="#EFC825"/><g clip-path="url(#clip0)" fill="#5A2E91"><path d="M32.877 32.792l1.918.732a.935.935 0 001.21-.542.937.937 0 00-.541-1.21l-1.919-.732a.937.937 0 00-.668 1.752z"/><path d="M60.58 36.104h-.51c.895-.582 1.668-1.297 2.145-2.171.542-.995.648-2.075.313-3.21-.309-1.045-.904-1.845-1.77-2.387a9.193 9.193 0 00.641-3.365c0-5.045-4.104-9.15-9.15-9.15-2.442 0-4.754.97-6.465 2.68l-4.331-6.209a.937.937 0 00-1.381-.173 11.705 11.705 0 00-2.82 3.623c-.964.093-1.867.513-2.576.955-.16-1.5-.542-3.658-1.45-5.404a.938.938 0 00-1.664.865c1.316 2.53 1.356 6.323 1.356 6.36a.937.937 0 001.602.657c.011-.012.865-.849 1.913-1.299a11.748 11.748 0 00.61 7.965l-8.413 3.765c-1.912-3.311-3.895-4.874-5.901-4.65a4.095 4.095 0 00-1.391.391c-1.51-2.407-2.1-4.282-1.58-5.07.196-.295.791-1.195 2.59-.789a7.166 7.166 0 011.979.812.938.938 0 001.42-.99 18.414 18.414 0 01-.35-2.804c-.094-1.832.062-3.983.979-5.259.479-.666 1.128-1.036 1.985-1.13a3.12 3.12 0 01.755.002.937.937 0 10.239-1.86 5.054 5.054 0 00-1.2-.006c-1.395.154-2.507.793-3.302 1.9-.777 1.08-1.22 2.582-1.33 4.472a9.075 9.075 0 00-4.942-1.448c-5.045 0-9.15 4.104-9.15 9.15 0 1.775.509 3.49 1.47 4.971a6.057 6.057 0 00.018 1.52c-1.824-.524-4.734-1.075-6.8-.088-1.11.531-1.854 1.416-2.213 2.632-.616 2.088.314 3.64 1.612 4.741H3.42A3.424 3.424 0 000 39.523v.202a3.423 3.423 0 003.42 3.42h3.1l7.518 7.326a3.192 3.192 0 00-.88 2.203v.026c0 1.727 1.408 3.08 3.204 3.08h31.276c1.797 0 3.204-1.353 3.204-3.08v-.026c0-.853-.335-1.628-.88-2.203l7.518-7.327h3.1a3.423 3.423 0 003.42-3.42v-.2a3.424 3.424 0 00-3.42-3.42zm-.011-3.069c-.63 1.154-2.419 2.234-4.91 2.964a.932.932 0 00-.231.105H37.999a11.656 11.656 0 001.67-9.138c.663-.582 1.276-.847 1.827-.785.92.104 1.113.467 1.176.587.396.747-.147 2.266-.47 2.882a.938.938 0 001.56 1.025c1.524-1.91 3.886-4.197 5.54-4.991a.935.935 0 00.205-.092c.473-.197.877-.257 1.174-.129.464.2 1.074.625 1.014 2.001a6.125 6.125 0 01-.387 1.802.937.937 0 001.225 1.224c1.26-.521 4.971-1.663 6.972-.706.62.296 1.02.777 1.224 1.47.192.65.14 1.232-.16 1.781zm-28.715 2.397l-.839-1.874a.937.937 0 00-1.711.766l.797 1.78h-2.954l.344-.901a.937.937 0 10-1.752-.669l-.599 1.57h-4.36c-.015-.02-.387-.471-.544-.687l17.636-7.893a9.965 9.965 0 01-2.064 8.388.935.935 0 00-.122.191H31.89a.933.933 0 00-.035-.672zm17.182-12.27a3.68 3.68 0 013.213-1.88 3.692 3.692 0 013.689 3.689c0 1.12-.5 2.165-1.372 2.87a.94.94 0 00-.097.091c-.34.08-.661.164-.954.248.216-1.641-.108-3.583-2.092-4.439-.604-.26-1.28-.287-2.038-.079l-.349-.5zm3.213-5.466a7.283 7.283 0 017.275 7.275c0 .942-.177 1.848-.521 2.704a8.329 8.329 0 00-1.825-.123 5.55 5.55 0 00.635-2.581 5.57 5.57 0 00-5.564-5.563 5.55 5.55 0 00-4.361 2.108l-1.01-1.448a7.258 7.258 0 015.371-2.372zm-11.707-3.433l7.112 10.196c-.698.433-1.45 1.018-2.26 1.756-.258.233-.506.47-.743.704a3.066 3.066 0 00-.32-1.024c-.327-.622-1.049-1.4-2.626-1.577-.96-.108-1.924.2-2.875.915a9.87 9.87 0 011.712-10.97zm-20.537 12.48a3.156 3.156 0 00-.222.814 26.2 26.2 0 00-.743-.704c-1.296-1.18-2.443-1.968-3.457-2.372-.01-.015-.018-.031-.029-.046a3.665 3.665 0 01-.661-2.109 3.692 3.692 0 013.688-3.688c.032 0 .063.003.095.004-.17.176-.332.375-.482.601-1.043 1.578-.45 4.033 1.81 7.5zm-8.699-4.417c0-4.01 3.264-7.274 7.275-7.274a7.21 7.21 0 014.97 1.964c.023.315.051.614.082.889-.703-.244-1.485-.406-2.258-.39a5.54 5.54 0 00-2.794-.752 5.57 5.57 0 00-5.218 7.495c-.12.032-.238.072-.353.122-.466.2-.84.462-1.137.765a7.258 7.258 0 01-.567-2.819zM7.057 36.034c-2.702-1.129-3.83-2.523-3.353-4.141.205-.693.605-1.174 1.222-1.47 1.994-.955 5.711.186 6.975.705a.937.937 0 001.225-1.221c-.003-.009-.347-.864-.388-1.805-.06-1.375.55-1.8 1.015-2 1.337-.577 4.877 2.656 6.919 5.211a.937.937 0 001.561-1.023c-.325-.618-.868-2.136-.471-2.884.063-.119.255-.482 1.176-.586 1.127-.128 2.554 1.16 3.97 3.556l-8.438 3.777a.937.937 0 00-.429 1.324c.123.213.256.421.392.627H7.189a.915.915 0 00-.132-.07zM48.967 52.7c0 .791-.669 1.205-1.33 1.205H16.363c-.66 0-1.329-.414-1.329-1.205v-.026c0-.733.596-1.33 1.33-1.33h31.275c.733 0 1.329.597 1.329 1.33v.026zm13.158-12.975c0 .851-.693 1.544-1.544 1.544H17.934a.938.938 0 000 1.875h36.859l-6.49 6.325H15.696l-6.49-6.325h4.979a.937.937 0 100-1.875H3.42a1.546 1.546 0 01-1.545-1.544v-.202c0-.852.693-1.544 1.545-1.544h57.16c.852 0 1.545.693 1.545 1.544v.202z"/><path d="M41.019 22.653h.037l1.765-.07a.937.937 0 10-.074-1.873l-1.764.07a.937.937 0 00.036 1.873z"/></g><defs><clipPath id="clip0"><path fill="#fff" d="M0 0h64v64H0z"/></clipPath></defs></svg>