<svg width="73" height="64" fill="none" xmlns="http://www.w3.org/2000/svg"><path fill="#715F7A" d="M73 35v10H35V35z"/><path d="M57.785 50.347a11.329 11.329 0 00-7.61-8.905l-8.882-2.96v-1.32H39.23v1.524c-1.097.73-4.21 2.604-7.226 2.604s-6.128-1.874-7.226-2.604v-1.525h-2.064v1.32l-8.882 2.961a11.332 11.332 0 00-7.61 8.905L3.945 64H60.06l-2.275-13.653zM23.579 40.37c1.227.829 4.772 2.985 8.424 2.985 3.652 0 7.197-2.156 8.424-2.985l1.793.597-10.217 10.219-10.218-10.219 1.794-.597zm7.392 21.566H15.595l.92-9.188-2.055-.205-.94 9.394H6.385l1.874-11.248a9.271 9.271 0 016.227-7.287l.466-.156 16.02 16.02v2.67zM17.14 42.515l2.455-.819 12.408 12.408 12.408-12.408 2.456.819-14.864 14.863L17.14 42.516zm33.346 19.42l-.94-9.394-2.054.205.919 9.188H33.035v-2.67l16.021-16.02.467.155a9.271 9.271 0 016.226 7.287l1.874 11.248h-7.137z" fill="#472880"/><path d="M13.42 22.71c0-1.344-.866-2.48-2.064-2.907v-8.507l5.16 3.686v3.625c-1.245.943-2.064 2.423-2.064 4.102 0 2.648 2.013 4.812 4.586 5.103a11.285 11.285 0 002.87 4.844l4.025 4.025a5.123 5.123 0 003.65 1.513h4.837a5.128 5.128 0 003.65-1.512l4.025-4.026a11.292 11.292 0 002.87-4.843c2.571-.29 4.584-2.454 4.584-5.103 0-1.68-.818-3.16-2.064-4.102v-3.625l7.225-5.161V6.469L34.376.047 29.936 0 9.291 6.47v13.334a3.09 3.09 0 00-2.064 2.906v4.129h6.193v-4.13zm3.097 0c0-1.344.866-2.48 2.064-2.907v4.825c0 .337.02.672.049 1.004a3.093 3.093 0 01-2.113-2.922zm26.839 1.918a9.23 9.23 0 01-2.721 6.569l-4.026 4.026a3.118 3.118 0 01-2.19.906h-4.838a3.12 3.12 0 01-2.19-.906l-4.025-4.026a9.23 9.23 0 01-2.721-6.57v-5.799A52.096 52.096 0 0132 17.548c4.75 0 8.818.705 11.355 1.281v5.799zM32 15.484c-6.146 0-11.126 1.105-13.42 1.72V15.22c1.824-.518 7-1.8 13.42-1.8 6.405 0 11.592 1.284 13.42 1.8v1.984c-2.295-.615-7.274-1.72-13.42-1.72zM45.37 25.63c.03-.331.05-.666.05-1.003v-4.825a3.093 3.093 0 012.064 2.907 3.09 3.09 0 01-2.113 2.921zM11.357 7.982l18.74-5.917h3.81l18.74 5.917v.777l-6.377 4.555c-1.651-.49-7.177-1.96-14.268-1.96-7.092 0-12.617 1.47-14.268 1.96L11.356 8.76v-.777zm0 16.792H9.29V22.71c0-.57.464-1.033 1.032-1.033.57 0 1.033.464 1.033 1.033v2.064z" fill="#472880"/><path d="M13.42 28.903h-2.065v6.194h2.065v-6.194zm-4.129 0H7.227v6.194H9.29v-6.194z" fill="#472880"/></svg>