<svg width="79" height="72" fill="none" xmlns="http://www.w3.org/2000/svg"><g clip-path="url(#clip0)"><path d="M59.734 16a4.223 4.223 0 00-2.134.593v-2.726a4.267 4.267 0 10-8.533 0v9.6h-4.625l-3.908-3.94v-4.404a3.733 3.733 0 00-3.752-3.733 3.663 3.663 0 00-1.865.524 3.733 3.733 0 00-6.55-.662 3.714 3.714 0 00-5.687 1.556 3.76 3.76 0 00-1.899-.523A3.717 3.717 0 0017.067 16v7.467h-2.09v-9.6a4.267 4.267 0 10-8.534 0v2.726A4.223 4.223 0 004.31 16a4.267 4.267 0 00-4.267 4.267v16a4.267 4.267 0 004.267 4.266 4.222 4.222 0 002.133-.593v2.727a4.267 4.267 0 108.533 0v-9.6h3.158v.672a10.309 10.309 0 001.401 5.568l1.239 2.142c.326.478.52 1.035.56 1.612v9.6a1.74 1.74 0 001.738 1.739h13.579a1.752 1.752 0 001.75-1.75v-9.695c0-.189.052-.374.152-.534l5.481-9.354h5.033v9.6a4.267 4.267 0 108.533 0V39.94a4.222 4.222 0 002.134.593A4.267 4.267 0 0064 36.267v-16A4.267 4.267 0 0059.734 16zm-22.916-2.477a1.593 1.593 0 011.582 1.6v2.253l-.504-.509a3.262 3.262 0 00-2.295-.945h-.01a2.977 2.977 0 00-.39.038v-.837a1.6 1.6 0 011.617-1.6zm-6.951-.19a1.6 1.6 0 013.2 0v3.947a5.281 5.281 0 000 5.76v.645a1.693 1.693 0 01-1.6 1.125 1.584 1.584 0 01-1.6-1.581v-9.896zm-5.333.88a1.6 1.6 0 013.2 0v9.014a1.587 1.587 0 01-1.584 1.585h-.032a1.586 1.586 0 01-1.584-1.585v-9.015zM19.2 16a1.6 1.6 0 113.2 0v9.004a1.6 1.6 0 11-3.2 0V16zM4.31 38.4a2.133 2.133 0 01-2.134-2.133v-16a2.133 2.133 0 014.267 0v16A2.133 2.133 0 014.31 38.4zm8.533 4.267a2.133 2.133 0 01-4.267 0v-28.8a2.133 2.133 0 014.267 0v28.8zM14.976 25.6h2.152a3.733 3.733 0 003.672 3.134 3.733 3.733 0 003.449-2.312 3.66 3.66 0 001.868.523h.032c.998 0 1.954-.404 2.651-1.119.012.013.02.028.033.04a3.72 3.72 0 002.634 1.079 3.84 3.84 0 003.354-1.985l.327.33 1.267 1.28a12.521 12.521 0 00-4.786 4.054c-.075.107-.133.213-.204.32H14.976V25.6zm21.746 15.72a3.119 3.119 0 00-.455 1.635v9.312h-12.8V43.06a5.203 5.203 0 00-.853-2.698l-1.248-2.153a8.275 8.275 0 01-1.099-4.471v-.672h10.027c-.141.33-.283.662-.402 1.01a1.067 1.067 0 002.02.688 11.76 11.76 0 011.03-2.24c.127-.23.27-.453.426-.665a10.256 10.256 0 015.21-3.857 1.067 1.067 0 00.5-1.783s-.8-.813-2.407-2.43c-.451-.461-.971-.98-1.56-1.57l-.083-.086a1 1 0 00-.107-.133 3.118 3.118 0 01.038-3.692c.163-.177.4-.27.64-.25.293 0 .574.114.782.32l7.78 7.832c.54.538.638 1.38.233 2.027L36.722 41.32zm8.564-10.387l.94-1.6a3.777 3.777 0 00.092-3.733h2.749v5.333h-3.781zm10.181 11.734a2.133 2.133 0 01-4.267 0v-28.8a2.133 2.133 0 114.267 0v28.8zm6.4-6.4a2.133 2.133 0 01-4.267 0v-16a2.133 2.133 0 114.267 0v16z" fill="#472880"/></g><path d="M79 63.155l-.035-.03.035-.04-.902-.763-6.306-5.8s-.111.115-.294.285l-.167.181c-1.438 1.33-6.048 5.179-11.458 5.254h-.35c-2.846-.306-5.622-1.822-8.438-4.627-4.675-4.676-9.877-7.2-15.474-7.536h-.466a20.487 20.487 0 00-2.533-.066c-8.429.342-14.69 5.942-16.817 8.1-.456.406-.73.697-.79.747l.03.03a.177.177 0 01-.035.045l.902.753 6.306 5.805.294-.29.167-.181c1.433-1.335 6.048-5.184 11.458-5.254h.344c2.852.306 5.623 1.822 8.439 4.626 4.68 4.657 9.872 7.181 15.47 7.527h.465c.842.075 1.688.096 2.533.066 8.428-.342 14.69-5.937 16.817-8.094.44-.422.719-.708.775-.768" fill="#EFC825"/><defs><clipPath id="clip0"><path fill="#fff" d="M0 0h64v64H0z"/></clipPath></defs></svg>