<svg width="64" height="64" fill="none" xmlns="http://www.w3.org/2000/svg"><g clip-path="url(#clip0)"><path d="M43.25 18.75a1.25 1.25 0 10-.001-2.501 1.25 1.25 0 00.001 2.501z" fill="#472880"/><path d="M5.75 64h15a1.25 1.25 0 100-2.5H17v-24h2.5v1.909a1.25 1.25 0 001.212 1.25 38.628 38.628 0 0012.702-1.744 36.29 36.29 0 0124.234.94l.138.056A1.25 1.25 0 0059.5 38.75v-27.5c0-.511-.311-.97-.786-1.16l-.137-.056a38.796 38.796 0 00-25.908-1.006 36.093 36.093 0 01-11.881 1.631 1.251 1.251 0 00-1.288 1.25v.591H17V8.304A5 5 0 0018.25 5c0-2.757-2.243-5-5-5s-5 2.243-5 5c0 1.223.45 2.397 1.25 3.303V61.5H5.75a1.25 1.25 0 100 2.5zM22 21.925a38.593 38.593 0 0011.415-1.76 35.87 35.87 0 015.044-1.188 1.25 1.25 0 10-.405-2.467 38.353 38.353 0 00-5.386 1.268A36.103 36.103 0 0122 19.424v-6.248a38.6 38.6 0 0011.414-1.761A36.296 36.296 0 0157 12.104v6.093a38.454 38.454 0 00-8.616-1.954 1.25 1.25 0 00-.268 2.486A36 36 0 0157 20.856v7.338a38.81 38.81 0 00-24.331-.416A36.103 36.103 0 0122 29.424v-7.5zm0 10a38.582 38.582 0 0011.414-1.76 36.296 36.296 0 0123.586.69v6.088a38.813 38.813 0 00-24.331-.415A36.088 36.088 0 0122 38.175v-6.25zM17 15h2.5v20H17V15zm-2.5 46.5H12v-24h2.5v24zm0-26.5H12V15h2.5v20zm0-22.5H12V9.84a4.98 4.98 0 002.5 0v2.66zm-1.25-10c1.378 0 2.5 1.122 2.5 2.5a2.5 2.5 0 01-.835 1.863 2.49 2.49 0 01-3.33 0l-.002-.003A2.493 2.493 0 0110.75 5c0-1.378 1.122-2.5 2.5-2.5z" fill="#472880"/><ellipse cx="28.5" cy="50" rx="13.5" ry="14" fill="#E30020"/></g><defs><clipPath id="clip0"><path fill="#fff" d="M0 0h64v64H0z"/></clipPath></defs></svg>