<svg width="102" height="175" fill="none" xmlns="http://www.w3.org/2000/svg"><path fill-rule="evenodd" clip-rule="evenodd" d="M-94.197 100.917a173.278 173.278 0 00-5.235 18.908l81.677-80.815a492.504 492.504 0 01-4.55-.099c-2.473-.06-4.942-.121-7.392-.122l-64.5 62.128zm6.773-16.69l44.767-44.512c-6.362 1.109-12.428 3.45-17.953 8.222-11.336 9.79-20.178 22.422-26.814 36.29zM-8.942 38.89l-92.901 94.424a317.565 317.565 0 00-1.587 12.73L7.866 35.394C2.464 37.669-3.192 38.577-8.942 38.89zM35.43 7.99l51.416-51.12c-2.3.06-4.647.337-7.04.854-16.685 3.605-26.71 20.611-37.026 38.11-2.405 4.079-4.825 8.185-7.35 12.154zm60.497-50.218L-104.22 155.297c-.326 4.899-.497 9.794-.466 14.628L100.725-40.82a39.86 39.86 0 00-4.798-1.408zm10.605 3.999l-210.916 217.071c.144 2.283.343 4.543.6 6.774l218.78-218.27c-2.709-2.137-5.532-4.018-8.464-5.575zm11.256 7.898l-220.335 224.1a89.463 89.463 0 002.374 9.611L126.282-21.707c-2.68-3.104-5.513-6.012-8.494-8.624zm15.258 17.274L-97.996 209.485c1.453 3.56 3.178 6.933 5.21 10.077L136.765-7.569a144.974 144.974 0 00-3.72-5.488zm6.059 9.225L-87.477 226.463l.328.355a49.615 49.615 0 004.981 4.653L144.62 5.999a44.427 44.427 0 00-.873-1.709 179.683 179.683 0 00-4.642-8.122zm7.831 15.537L-78.619 234.108c3.254 2.205 6.746 4.028 10.424 5.511L148.414 17.006c-.41-1.8-.899-3.568-1.478-5.301zm2.656 12.098L-61.799 241.81a74.515 74.515 0 006.107 1.468L150.313 37.786c.026-4.776-.158-9.456-.721-13.983zm.606 19.547L-47.726 244.456c3.556.362 7.184.527 10.853.52L149.323 59.839c.071-1.223.144-2.446.217-3.667.258-4.304.514-8.59.658-12.822zm-1.442 31.273L-27.738 244.624c5.732-.42 11.502-1.201 17.192-2.249L149.018 84.494c-.218-3.256-.288-6.552-.262-9.871zm.962 16.355L4.417 238.66c10.956-4.402 20.015-13.981 29.141-23.632 9.359-9.897 18.788-19.868 30.41-24.409l88.419-87.907c-1.129-3.93-2.063-7.847-2.669-11.734zm4.954 19.034l-78.81 77.776c3.693-.4 7.445-.43 11.224-.227l69.682-71.492a344.699 344.699 0 01-2.096-6.057zm6.608 18.79l-58.809 60.525c1.532.236 3.06.481 4.584.725 1.483.237 2.961.474 4.432.702l52.728-52.605c-.863-3.091-1.865-6.209-2.935-9.347zm4.595 16.159l-46.141 46.93c4.845.554 9.574.83 14.11.515l33.239-33.038c.293-4.683-.209-9.498-1.208-14.407z" fill="#fff"/></svg>