<svg width="16" height="16" fill="none" xmlns="http://www.w3.org/2000/svg"><g clip-path="url(#clip0)"><path d="M12 .003L9.924 0c-2.33 0-3.837 1.546-3.837 3.938v1.815H4.001a.326.326 0 00-.326.326v2.63c0 .181.146.327.326.327h2.086v6.638c0 .18.146.326.326.326h2.722c.18 0 .326-.146.326-.326V9.036h2.44c.18 0 .326-.146.326-.326V6.08a.327.327 0 00-.325-.327h-2.44V4.214c0-.74.176-1.115 1.14-1.115h1.397c.18 0 .326-.147.326-.327V.33A.326.326 0 0012 .003z" fill="#333"/></g><defs><clipPath id="clip0"><path fill="#fff" d="M0 0h16v16H0z"/></clipPath></defs></svg>