<svg width="24" height="22" fill="none" xmlns="http://www.w3.org/2000/svg"><g clip-path="url(#clip0)"><path d="M24 19.838c0 .56-.198.989-.593 1.283-.395.295-.88.442-1.456.442H2.05c-.575 0-1.06-.15-1.456-.453-.396-.3-.594-.726-.594-1.272 0-.431.13-.87.388-1.315l9.94-17.337C10.804.396 11.365 0 12.012 0s1.193.395 1.639 1.186l9.962 17.358c.259.46.388.892.388 1.294zM13.499 8.82V5.671H10.5V8.82c0 .202.015.392.043.572.03.18.069.38.12.604.05.222.089.413.118.571l.56 3.493h1.273l.582-3.493c.029-.144.072-.33.13-.56.057-.23.1-.435.129-.615.028-.18.043-.37.043-.572zm0 8.345a1.42 1.42 0 00-.442-1.056 1.473 1.473 0 00-1.068-.431c-.402 0-.75.143-1.046.43a1.42 1.42 0 00-.442 1.057c0 .417.148.773.442 1.068a1.43 1.43 0 001.046.442c.417 0 .773-.148 1.068-.442.294-.295.442-.65.442-1.068z" fill="#fff"/></g><defs><clipPath id="clip0"><path fill="#fff" d="M0 0h24v21.563H0z"/></clipPath></defs></svg>