<svg width="24" height="24" viewBox="0 0 24 24" fill="none" xmlns="http://www.w3.org/2000/svg">
<path d="M14.7077 12L17.4154 14.7077C17.7642 15.0689 17.9572 15.5526 17.9529 16.0547C17.9485 16.5567 17.7471 17.037 17.3921 17.3921C17.037 17.7471 16.5567 17.9485 16.0547 17.9529C15.5526 17.9572 15.0689 17.7642 14.7077 17.4154L12 14.7077L9.2923 17.4154C9.11566 17.5983 8.90435 17.7442 8.67073 17.8445C8.4371 17.9449 8.18582 17.9977 7.93156 17.9999C7.6773 18.0021 7.42514 17.9537 7.1898 17.8574C6.95447 17.7611 6.74067 17.6189 6.56087 17.4391C6.38107 17.2593 6.23888 17.0455 6.1426 16.8102C6.04631 16.5749 5.99786 16.3227 6.00007 16.0684C6.00228 15.8142 6.05511 15.5629 6.15547 15.3293C6.25583 15.0956 6.40171 14.8843 6.5846 14.7077L9.2923 12L6.5846 9.2923C6.40171 9.11566 6.25583 8.90435 6.15547 8.67073C6.05511 8.4371 6.00228 8.18582 6.00007 7.93156C5.99786 7.6773 6.04631 7.42514 6.1426 7.18981C6.23888 6.95447 6.38107 6.74066 6.56087 6.56087C6.74067 6.38107 6.95447 6.23888 7.1898 6.1426C7.42514 6.04631 7.6773 5.99786 7.93156 6.00007C8.18582 6.00228 8.4371 6.05511 8.67073 6.15547C8.90435 6.25583 9.11566 6.40171 9.2923 6.5846L12 9.2923L14.7077 6.5846C14.8843 6.40171 15.0956 6.25583 15.3293 6.15547C15.5629 6.05511 15.8142 6.00228 16.0684 6.00007C16.3227 5.99786 16.5749 6.04631 16.8102 6.1426C17.0455 6.23888 17.2593 6.38107 17.4391 6.56087C17.6189 6.74066 17.7611 6.95447 17.8574 7.18981C17.9537 7.42514 18.0021 7.6773 17.9999 7.93156C17.9977 8.18582 17.9449 8.4371 17.8445 8.67073C17.7442 8.90435 17.5983 9.11566 17.4154 9.2923L14.7077 12Z" fill="white"/>
</svg>
