<svg width="747" height="165" fill="none" xmlns="http://www.w3.org/2000/svg"><g clip-path="url(#clip0)"><path d="M493.236 157.728h-14.833l-4.578 7.01h-3.03l17.43-26.195h2.765l6.824 26.195h-2.808l-1.77-7.01zm-.529-2.242l-3.603-14.167-9.25 14.167h12.853zm24.931-16.985c2.483-.147 4.943.54 6.983 1.949a6.604 6.604 0 011.917 2.442c.435.953.635 1.994.583 3.038a9.563 9.563 0 01-.74 4.26 9.666 9.666 0 01-2.545 3.515c-2.182 1.837-5.195 2.755-9.038 2.755h-7.501l-1.706 8.278h-2.766l5.298-26.195 9.515-.042zm-2.797 15.528c2.495.159 4.97-.541 7.003-1.98.84-.72 1.5-1.623 1.928-2.637a7.05 7.05 0 00.541-3.21 4.62 4.62 0 00-.401-2.186 4.675 4.675 0 00-1.379-1.754 8.337 8.337 0 00-5.117-1.351h-6.972l-2.692 13.118h7.089zm36.131-13.129h-9.399l-4.778 23.838h-2.776l4.768-23.838h-9.282l.487-2.399h21.414l-.434 2.399zm-1.06 12.522h9.928l-.455 2.326h-9.928l.455-2.326zm28.015-2.096l7.724 13.412h-2.988l-7.014-12.071h-6.146l-2.415 12.071h-2.776l5.297-26.195h2.766l-2.384 11.777h5.912l11.369-11.777h3.179l-12.524 12.783zm38.653-12.825l-5.298 26.195h-2.723l4.81-23.838h-12.842l-2.119 8.771a65.323 65.323 0 01-2.765 9.053 12.565 12.565 0 01-3.073 4.799 5.985 5.985 0 01-4.047 1.477 9.015 9.015 0 01-2.12-.262l.689-2.473c.384.099.779.149 1.176.147a4.105 4.105 0 002.967-1.236 11.766 11.766 0 002.395-3.993 54.545 54.545 0 002.246-7.471l2.691-11.211 18.013.042zm22.25 19.227h-14.833l-4.578 7.01h-3.041l17.441-26.195h2.765l6.824 26.195H640.6l-1.77-7.01zm-.529-2.242l-3.624-14.167-9.25 14.167h12.874zm22.505 9.483a15.047 15.047 0 01-6.665-1.373 9.82 9.82 0 01-4.238-3.825 11.038 11.038 0 01-1.452-5.71 16.01 16.01 0 011.992-7.943 14.757 14.757 0 015.658-5.721 16.716 16.716 0 018.477-2.095 14.958 14.958 0 015.636.995 8.366 8.366 0 013.794 2.829l-1.971 1.719c-1.695-2.04-4.26-3.064-7.692-3.071a13.246 13.246 0 00-6.898 1.782 12.262 12.262 0 00-4.62 4.778 13.504 13.504 0 00-1.632 6.591 8.009 8.009 0 00.58 3.42 8.079 8.079 0 001.974 2.867c1.709 1.55 4.143 2.326 7.3 2.326 1.544.06 3.084-.187 4.53-.727a11.545 11.545 0 003.883-2.417l1.632 1.834a11.59 11.59 0 01-4.44 2.777 17.005 17.005 0 01-5.838.974l-.01-.01zm36.957-24.1h-9.398l-4.779 23.838h-2.734l4.684-23.807h-9.282l.487-2.399h21.414l-.392 2.368zm7.692 0l-1.907 9.367h13.774l-.455 2.358h-13.774l-1.971 9.745h15.957l-.498 2.399h-18.776l5.298-26.195h18.193l-.488 2.399-15.353-.073zm32.137-2.4c2.48-.147 4.937.54 6.972 1.949a6.62 6.62 0 011.917 2.442c.435.953.635 1.994.583 3.038a9.558 9.558 0 01-.734 4.26 9.65 9.65 0 01-2.54 3.515c-2.19 1.837-5.202 2.756-9.038 2.756h-7.576l-1.706 8.278h-2.765l5.298-26.196 9.589-.042zm-2.872 15.56a10.96 10.96 0 006.972-1.99 7.106 7.106 0 001.923-2.639 7.041 7.041 0 00.536-3.208 4.62 4.62 0 00-.402-2.186 4.667 4.667 0 00-1.379-1.754 8.33 8.33 0 00-5.117-1.352h-6.972l-2.649 13.129h7.088z" fill="#fff"/><path d="M482.203 36.705V7.502l5.256 1.205V37.92l-5.256-1.215zm7.904 1.813V9.315l5.256 1.205v29.213l-5.256-1.215zm7.881 1.854V11.16l5.256 1.216v29.202l-5.256-1.205zM41.323 73.085c1.631-1.467 2.807-2.525 5.297-2.514 2.49.01 3.74 1.047 5.394 2.577 1.917 1.729 4.301 3.877 8.794 3.898 4.492.02 7.004-2.159 8.953-3.887.477-.43.922-.818 1.357-1.153l-3.73-3.72-1.155 1.048c-1.653 1.488-2.85 2.557-5.404 2.546-2.553-.01-3.645-1.048-5.298-2.535-1.928-1.75-4.333-3.92-8.921-3.93-4.588-.01-6.972 2.096-8.89 3.867-.434.398-.837.754-1.24 1.047l3.783 3.689c.37-.315.72-.629 1.06-.933zm0-22.36c1.62-1.477 2.797-2.525 5.297-2.525 2.501 0 3.74 1.048 5.394 2.577 1.917 1.73 4.301 3.877 8.794 3.898 4.492.021 7.004-2.158 8.953-3.887.477-.43.922-.817 1.357-1.153l-3.73-3.72-1.155 1.048c-1.653 1.488-2.85 2.557-5.404 2.547-2.553-.011-3.645-1.048-5.298-2.536-1.928-1.75-4.333-3.919-8.921-3.93-4.588-.01-6.972 2.096-8.89 3.867-.434.398-.837.754-1.24 1.048l3.783 3.698c.37-.314.72-.628 1.06-.932zm-.003 11.18c1.632-1.467 2.808-2.525 5.298-2.515 2.49.01 3.74 1.048 5.393 2.578 1.918 1.729 4.302 3.877 8.794 3.898 4.493.02 7.004-2.159 8.985-3.888.477-.43.922-.817 1.357-1.152l-3.73-3.72-1.155 1.048c-1.653 1.487-2.85 2.556-5.404 2.546-2.553-.01-3.644-1.048-5.297-2.536-1.929-1.75-4.334-3.919-8.922-3.93-4.588-.01-6.972 2.096-8.89 3.867a14.76 14.76 0 01-1.24 1.048l3.752 3.72c.37-.315.72-.629 1.06-.933" fill="#40BBC1"/><path d="M702.061 31.34l-17.705-11.526-47.606 94.304 17.748 8.267 5.541-2.263 9.409-17.645h41.567l6.166 11.735h24.783v-3.468L702.061 31.34zm-23.872 50.736l11.889-24.572 12.206 24.572h-24.095zM164.751 31.34l-17.706-11.526-47.605 94.304 17.747 8.267 5.542-2.263 9.408-17.645h41.567l6.177 11.735h24.773v-3.468L164.751 31.34zm-23.83 50.736l11.888-24.572 12.196 24.572h-24.084zm144.963-14.837a21.415 21.415 0 005.954-7.17 21.185 21.185 0 002.321-8.988c0-16.157-14.601-29.643-32.846-29.643h-45.032v94.409h49.397c21.541 0 32.677-13.213 32.846-29.507 0-8.278-4.058-15.225-12.64-19.102zM242.357 40.1h16.868c11.857 0 12.196 19.688.149 19.688h-17.017V40.1zm21.541 56.352h-21.541V77.004h21.382c12.524 0 12.598 19.448.159 19.448zm317.061-65.018l-15.151-9.996-36.099 73.714h-10.691v22.392l18.987 6.633 3.412-2.703v-5.962h84.446v-20.36h-13.922l-30.982-63.718zM556.971 94.88l14.611-33.782 15.205 33.782h-29.816zM107.164 40.142v-3.039l-3.454-15.665H0v2.42l3.761 16.284m364.69-18.704h-49.068v94.409l22.907 8.005 4.112-2.515-.053-33.74h22.102c50.456 0 50.456-66.012 0-66.159zm-.148 48.2h-21.965V40.006h21.965c21.636 0 20.82 29.642 0 29.642m55.658-46.596v93.989l17.398 6.675 40.602-44.24-.085 34.055c.191 0 16.805 5.113 16.805 5.113l4.238-2.441V46.408l-21.053-5.355-37.085 40.499v-58.5M41.672 79.76v36.087l19.75 8.005 4.058-2.515V79.76" fill="#fff"/><path d="M703.08.545a10.704 10.704 0 015.074 3.546 10.49 10.49 0 01.854 11.729 10.652 10.652 0 01-4.508 4.229 10.806 10.806 0 01-6.123 1.04c-2.1-.26-4.075-1.13-5.676-2.5a10.568 10.568 0 01-3.314-5.196 10.466 10.466 0 01.163-6.142 10.552 10.552 0 012.062-3.592 10.68 10.68 0 013.297-2.537 10.8 10.8 0 018.171-.578z" fill="#40BBC1"/></g><defs><clipPath id="clip0"><path fill="#fff" d="M0 0h747v165H0z"/></clipPath></defs></svg>