<svg width="206" height="49" fill="none" xmlns="http://www.w3.org/2000/svg"><path d="M205.162 48.124H0V36.505h205.162v11.619zM.098 20.364V0h8.9c2.183 0 3.929.583 5.18 1.716 1.28 1.135 1.92 2.59 1.92 4.423 0 1.832-.64 3.317-1.92 4.45-1.251 1.135-2.997 1.717-5.18 1.717h-4.71v8.058H.097zM4.287 8.727h4.422c2.007 0 3.199-.9 3.199-2.53 0-1.629-1.192-2.53-3.199-2.53H4.287v5.06zm15.474-1.046c1.513-1.483 3.433-2.21 5.79-2.21 2.356 0 4.276.727 5.788 2.21 1.513 1.483 2.27 3.288 2.27 5.41 0 2.183-.757 3.986-2.27 5.47-1.512 1.454-3.432 2.182-5.789 2.182-2.356 0-4.276-.727-5.789-2.182-1.512-1.484-2.269-3.287-2.269-5.47 0-2.151.757-3.956 2.27-5.41zm5.79 9.485c1.163 0 2.123-.38 2.88-1.164.756-.787 1.134-1.747 1.134-2.91 0-1.164-.378-2.123-1.135-2.88-.756-.786-1.716-1.163-2.88-1.163-1.163 0-2.123.377-2.879 1.162-.756.758-1.134 1.717-1.134 2.88 0 1.164.378 2.124 1.134 2.91.756.786 1.716 1.165 2.88 1.165zm13.194 1.483c-1.541-1.426-2.327-3.288-2.327-5.585 0-2.3.786-4.132 2.327-5.499C40.317 6.17 42.178 5.47 44.36 5.47c1.601 0 3.026.32 4.306.96v3.492c-1.25-.582-2.501-.873-3.694-.873-1.28 0-2.357.377-3.228 1.135-.845.726-1.28 1.715-1.28 2.907 0 1.193.435 2.183 1.308 2.938.873.758 1.95 1.137 3.2 1.137 1.484 0 2.793-.322 3.926-.99v3.49c-1.366.728-2.879 1.077-4.595 1.077-2.153 0-4.015-.698-5.557-2.094zm14.384 1.711V5.844h4.044l4.218 5.41 4.247-5.41h4.043V20.36h-3.869V11.4l-3.606 4.508h-1.63L56.998 11.4v8.96h-3.87zM75.59 7.681c1.513-1.483 3.432-2.21 5.788-2.21 2.357 0 4.277.727 5.79 2.21 1.512 1.483 2.268 3.288 2.268 5.41 0 2.183-.756 3.986-2.269 5.47-1.512 1.454-3.432 2.182-5.789 2.182-2.356 0-4.275-.727-5.788-2.182-1.513-1.484-2.27-3.287-2.27-5.47 0-2.151.757-3.956 2.27-5.41zm5.788 9.485c1.164 0 2.124-.38 2.88-1.164.757-.787 1.136-1.747 1.136-2.91 0-1.164-.38-2.123-1.136-2.88-.755-.786-1.716-1.163-2.88-1.163-1.163 0-2.123.377-2.88 1.162-.756.758-1.133 1.717-1.133 2.88 0 1.164.377 2.124 1.133 2.91.757.786 1.717 1.165 2.88 1.165zm17.197-7.89l-.057 2.037c-.088 2.007-.176 3.345-.67 5.09-.698 2.445-2.094 3.987-4.974 4.074-.699 0-1.221-.087-1.542-.263V16.87c.233.087.524.117.843.117.96 0 1.572-.552 1.892-1.863.349-1.366.436-2.589.465-5.003l.087-4.276h12.539V20.36h-4.102V9.276h-4.48zm14.632-1.595c1.513-1.483 3.432-2.21 5.788-2.21 2.357 0 4.276.727 5.79 2.21 1.512 1.483 2.269 3.288 2.269 5.41 0 2.183-.757 3.986-2.269 5.47-1.514 1.454-3.433 2.182-5.79 2.182-2.356 0-4.275-.727-5.788-2.182-1.513-1.484-2.269-3.287-2.269-5.47 0-2.151.756-3.956 2.269-5.41zm5.788 9.485c1.164 0 2.125-.38 2.88-1.164.757-.787 1.134-1.747 1.134-2.91 0-1.164-.377-2.123-1.134-2.88-.755-.786-1.716-1.163-2.88-1.163-1.163 0-2.124.377-2.879 1.162-.757.758-1.136 1.717-1.136 2.88 0 1.164.379 2.124 1.136 2.91.755.786 1.716 1.165 2.879 1.165zm10.021 6.888v-7.126h1.862c1.106-1.717 1.688-4.45 1.745-8.263l.059-2.82h12.217v11.083h2.385v7.126h-3.869V20.36h-10.472v3.694h-3.927zm11.868-7.126V9.276h-4.538c0 3.026-.436 5.585-1.28 7.652h5.818zm11.334 1.721c-1.542-1.397-2.327-3.259-2.327-5.558 0-2.151.698-3.956 2.094-5.41 1.397-1.483 3.229-2.21 5.469-2.21 2.123 0 3.781.757 5.032 2.24 1.252 1.483 1.891 3.286 1.891 5.44v1.075h-10.414c.436 1.979 2.298 3.026 4.858 3.026 1.629 0 3.171-.438 4.654-1.28v3.288c-1.309.988-3.141 1.483-5.527 1.483-2.268 0-4.189-.698-5.73-2.094zm8.116-7.041c-.087-1.6-1.223-2.91-3.055-2.91-1.862 0-3.113 1.195-3.316 2.91h6.371zm5.553 8.752l6.254-7.739-5.615-6.777h4.627l4.421 5.469V5.844h4.043v5.469l4.392-5.469h4.626l-5.613 6.777 6.283 7.739h-4.888l-4.8-6.196v6.196h-4.043v-6.196l-4.83 6.196h-4.857zm26.527 0V5.844h4.102v4.247h3.491c3.636 0 5.993 2.007 5.993 5.12 0 1.484-.495 2.706-1.513 3.694-1.018.96-2.443 1.455-4.277 1.455h-7.796zm4.102-3.17h2.852c1.599 0 2.53-.727 2.53-2.009 0-1.278-.931-2.035-2.53-2.035h-2.852v4.043z" fill="#FFB800"/></svg>