<svg width="144" height="47" fill="none" xmlns="http://www.w3.org/2000/svg"><path d="M144 28.158l-.08-.063.08-.085-2.029-1.617-14.189-12.29s-.251.244-.661.606l-.376.382c-3.237 2.818-13.608 10.973-25.78 11.132h-.786c-6.405-.648-12.65-3.86-18.987-9.803C70.672 6.511 58.968 1.163 46.374.45h-1.049a48.963 48.963 0 00-5.698-.137C20.663 1.036 6.576 12.9 1.79 17.473.764 18.334.15 18.951.011 19.057l.069.064a.378.378 0 01-.08.096l2.029 1.595 14.189 12.301.66-.617.377-.382c3.225-2.829 13.608-10.983 25.78-11.132h.775c6.416.648 12.65 3.86 18.987 9.803 10.53 9.866 22.213 15.214 34.806 15.948h1.049a48.76 48.76 0 005.698.138c18.965-.723 33.051-12.578 37.838-17.15a55.575 55.575 0 001.744-1.626" fill="#B7CE4F"/></svg>