<svg width="112" height="112" viewBox="0 0 112 112" fill="none" xmlns="http://www.w3.org/2000/svg">
<path d="M101.15 10.8515C97.7461 7.4507 93.1925 5.44774 88.3857 5.2372C83.5789 5.02666 78.8675 6.62381 75.1797 9.71401L102.287 36.8215C105.377 33.1337 106.975 28.4223 106.764 23.6155C106.553 18.8087 104.55 14.255 101.15 10.8515Z" fill="black"/>
<path d="M68.3009 23.3797C68.0869 27.1231 68.9708 30.8476 70.8441 34.0957C72.7174 37.3438 75.4985 39.9741 78.8459 41.6636C82.1932 43.3531 85.9611 44.0282 89.6869 43.606C93.4126 43.1838 96.9339 41.6828 99.8184 39.2872L72.7109 12.1797C70.0799 15.3447 68.5341 19.2705 68.3009 23.3797Z" fill="black"/>
<path d="M29.2578 77.5638L34.4378 82.7438L38.5328 79.4013L32.6003 73.4688L29.2578 77.5638Z" fill="black"/>
<path d="M71.4556 40.5475C69.1352 38.2384 67.3492 35.4488 66.2231 32.375L34.8281 70.7525L41.2506 77.175L79.6456 45.78C76.5719 44.6436 73.7786 42.859 71.4556 40.5475ZM55.3661 59.1115L52.8916 56.637L55.3661 54.1625L57.8406 56.637L55.3661 59.1115ZM59.0779 55.3997L56.6034 52.9252L59.0779 50.4508L61.5524 52.9252L59.0779 55.3997ZM62.7896 51.688L60.3151 49.2135L62.7914 46.7373L65.2659 49.2118L62.7896 51.688Z" fill="black"/>
<path d="M13.7875 52.2871C13.0534 53.0213 12.5534 53.9568 12.3509 54.9752C12.1484 55.9935 12.2525 57.0491 12.6498 58.0084C13.0472 58.9676 13.7201 59.7875 14.5835 60.3643C15.4468 60.9412 16.4618 61.2491 17.5001 61.2491C18.5384 61.2491 19.5534 60.9412 20.4168 60.3643C21.2801 59.7875 21.953 58.9676 22.3504 58.0084C22.7478 57.0491 22.8518 55.9935 22.6493 54.9752C22.4468 53.9568 21.9469 53.0213 21.2127 52.2871L10.074 41.1518L15.0248 36.2011L12.5503 33.7266L5.125 41.1518L15.275 51.2931C14.723 51.5315 14.219 51.8683 13.7875 52.2871Z" fill="black"/>
<path d="M35 29.75C36.3924 29.75 37.7277 29.1969 38.7123 28.2123C39.6969 27.2277 40.25 25.8924 40.25 24.5V8.75H47.25V5.25H36.75V19.572C36.1896 19.3647 35.5975 19.2558 35 19.25C33.6076 19.25 32.2723 19.8031 31.2877 20.7877C30.3031 21.7723 29.75 23.1076 29.75 24.5C29.75 25.8924 30.3031 27.2277 31.2877 28.2123C32.2723 29.1969 33.6076 29.75 35 29.75Z" fill="black"/>
<path d="M77 84.322C76.4396 84.1147 75.8475 84.0058 75.25 84C74.2117 84 73.1966 84.3079 72.3333 84.8848C71.4699 85.4617 70.797 86.2816 70.3996 87.2409C70.0023 88.2002 69.8983 89.2558 70.1009 90.2742C70.3035 91.2926 70.8035 92.2281 71.5377 92.9623C72.2719 93.6965 73.2074 94.1966 74.2258 94.3991C75.2442 94.6017 76.2998 94.4977 77.2591 94.1004C78.2184 93.703 79.0383 93.0301 79.6152 92.1667C80.1921 91.3034 80.5 90.2884 80.5 89.25V73.5H91V80.822C90.4396 80.6147 89.8475 80.5058 89.25 80.5C88.2117 80.5 87.1966 80.8079 86.3333 81.3848C85.4699 81.9617 84.797 82.7816 84.3996 83.7409C84.0023 84.7002 83.8983 85.7558 84.1009 86.7742C84.3035 87.7926 84.8035 88.7281 85.5377 89.4623C86.2719 90.1965 87.2074 90.6966 88.2258 90.8991C89.2442 91.1017 90.2998 90.9977 91.2591 90.6004C92.2184 90.203 93.0383 89.5301 93.6152 88.6667C94.1921 87.8034 94.5 86.7884 94.5 85.75V70H77V84.322Z" fill="black"/>
<path d="M26.6178 90.6345C26.4349 90.4537 26.2898 90.2384 26.1907 90.0011C26.0916 89.7638 26.0406 89.5092 26.0406 89.252C26.0406 88.9949 26.0916 88.7403 26.1907 88.503C26.2898 88.2656 26.4349 88.0503 26.6178 87.8695L30.6253 83.8795L28.1403 81.3945L24.1328 85.3845C23.1154 86.4147 22.5449 87.8042 22.5449 89.252C22.5449 90.6999 23.1154 92.0894 24.1328 93.1195L30.2578 99.2445C30.6245 99.6112 30.8305 100.108 30.8305 100.627C30.8305 101.146 30.6245 101.643 30.2578 102.01C29.8911 102.376 29.3938 102.582 28.8753 102.582C28.3568 102.582 27.8595 102.376 27.4928 102.01L13.4928 88.0095C12.4627 86.9921 11.0732 86.4216 9.62531 86.4216C8.17746 86.4216 6.78793 86.9921 5.75781 88.0095L4.88281 88.8845C3.86541 89.9147 3.29489 91.3042 3.29489 92.752C3.29489 94.1999 3.86541 95.5894 4.88281 96.6195L7.50781 99.2445C7.69067 99.4253 7.83585 99.6406 7.93492 99.878C8.034 100.115 8.08502 100.37 8.08502 100.627C8.08502 100.884 8.034 101.139 7.93492 101.376C7.83585 101.613 7.69067 101.829 7.50781 102.01L2.25781 107.26L4.74281 109.745L9.99281 104.495C11.0102 103.464 11.5807 102.075 11.5807 100.627C11.5807 99.1792 11.0102 97.7897 9.99281 96.7595L7.36781 94.1345C7.18495 93.9537 7.03978 93.7384 6.9407 93.5011C6.84162 93.2638 6.7906 93.0092 6.7906 92.752C6.7906 92.4949 6.84162 92.2403 6.9407 92.003C7.03978 91.7656 7.18495 91.5503 7.36781 91.3695L8.24281 90.4945C8.42363 90.3117 8.63892 90.1665 8.87623 90.0674C9.11354 89.9683 9.36815 89.9173 9.62531 89.9173C9.88247 89.9173 10.1371 89.9683 10.3744 90.0674C10.6117 90.1665 10.827 90.3117 11.0078 90.4945L25.0078 104.495C26.0335 105.52 27.4247 106.097 28.8753 106.097C30.3259 106.097 31.7171 105.52 32.7428 104.495C33.7685 103.469 34.3448 102.078 34.3448 100.627C34.3448 99.1764 33.7685 97.7853 32.7428 96.7595L26.6178 90.6345Z" fill="black"/>
</svg>
