<svg width="124" height="124" viewBox="0 0 124 124" fill="none" xmlns="http://www.w3.org/2000/svg">
<g clip-path="url(#clip0)">
<path d="M97.7915 91.4762C98.1489 97.0375 93.6563 104.467 92.1857 112.468C91.9609 113.67 89.1931 112.734 89.0383 114.042C88.8835 115.347 91.198 119.555 91.3381 120.742C91.4781 121.944 87.8368 121.52 87.8368 121.52L87.2729 122.43H85.7324L84.7446 119.485C84.7446 119.485 77.451 118.645 77.1672 119.906C76.8834 121.166 76.1168 120.186 72.258 122.43C68.3993 124.675 54.3684 123.974 48.9654 123.565C46.4113 123.355 42.4789 121.505 39.9838 121.03C37.2085 120.51 35.9776 121.38 35.4985 121.457C34.5844 121.597 32.4616 120.307 31.9898 119.205C31.5181 118.111 28.1237 110.707 30.0254 109.951C31.9235 109.196 38.5832 106.649 38.8633 105.739C39.1471 104.821 36.91 99.2414 35.2589 98.847C33.6041 98.4453 30.8989 95.7992 29.8153 95.0768C28.765 94.3766 29.9923 92.7955 29.7453 91.2145C29.4837 89.5487 28.319 88.1924 29.4689 87.776C31.7023 86.9504 36.5967 85.152 43.9899 82.5058C46.5661 81.5881 51.0772 82.3731 53.318 81.5255C55.6731 80.641 55.7026 78.1349 56.1264 77.3167C57.5269 74.5821 56.0564 73.1006 56.8967 69.8722C58.0134 65.5971 61.9901 62.2249 62.3071 58.2631C62.5171 55.6685 56.753 46.5139 54.1583 45.5336C52.9495 45.0766 48.501 45.2609 44.6202 45.0397C40.1791 44.7854 36.2872 44.1442 35.5021 44.0189C34.0242 43.783 26.2035 38.5239 26.2035 38.5239C26.2035 38.5239 26.4873 40.9747 25.5033 41.7486C24.5192 42.5189 24.8399 38.6824 24.1396 39.6258C23.4394 40.5619 23.4357 40.4882 22.9418 41.229C22.4516 41.9624 23.6458 45.0139 23.1187 45.5078C22.5917 45.9943 22.3742 44.3653 22.3742 44.3653C22.3742 44.3653 22.0683 45.751 21.6445 45.154C21.2244 44.5569 20.9111 41.697 20.9111 41.697C20.9111 41.697 20.2071 44.24 19.8238 43.5361C19.4369 42.8432 20.2845 41.0116 20.2845 41.0116C20.2845 41.0116 23.5794 34.8827 25.4001 34.8421C27.2281 34.7979 35.4358 39.6406 41.7491 39.7806C48.0661 39.9243 47.7824 38.5202 55.006 38.2364C53.6755 37.046 53.6718 35.7709 53.7419 34.4478C53.8156 33.1247 51.5711 31.9675 51.5011 27.7035C51.431 23.4394 57.5675 22.0684 59.7604 22.0869C61.9533 22.1053 63.5344 23.1372 64.1277 24.2871C64.9717 25.8939 66.1621 26.104 67.1462 26.3177C67.8649 26.4688 66.586 27.7182 66.586 27.7182L68.4066 30.4528C68.4066 30.4528 68.9337 31.47 67.7396 32.0007C66.5491 32.524 64.6105 32.8999 64.1756 33.0289C63.7371 33.1579 63.4938 34.3851 64.2936 35.2954C64.8132 35.8925 67.0725 38.9772 68.1966 37.5399C68.5614 37.0755 69.2506 35.4539 70.0025 33.3901C70.5221 31.9896 71.6647 30.567 72.1548 28.9786C73.1647 25.7539 73.3563 22.448 73.2494 21.3719C73.091 19.9051 70.9681 12.5785 68.473 8.8488C67.629 7.58838 63.7887 7.52573 63.4717 7.54047C62.6535 7.57364 60.2579 7.78002 60.1584 6.96923C60.0589 6.14738 63.2432 6.32796 63.6449 6.07735C64.0466 5.82674 62.5835 4.00246 62.5835 4.00246C62.5835 4.00246 60.8107 4.3194 60.6265 3.8145C60.4459 3.31328 61.9938 2.88946 61.9938 2.88946C61.9938 2.88946 60.022 0.925121 60.1989 0.118012C60.3758 -0.692783 63.0921 2.93 64.1978 3.2064C65.6351 3.5602 68.5762 3.77027 70.1204 5.59088C74.2851 10.5109 78.247 18.8474 78.4018 20.4984C78.5234 21.8473 78.0148 26.0708 77.521 30.8103C77.0124 35.7561 74.93 38.9551 74.9964 41.2622C75.0259 42.3199 75.763 43.0901 76.6107 44.6306C77.8011 46.805 75.3465 48.0692 75.1401 58.4584C75.0517 62.9546 76.2679 69.9274 76.2679 69.9274C76.2679 69.9274 78.6488 66.312 80.9633 66.3784C83.2778 66.4521 83.838 65.1917 87.4167 62.8035C90.999 60.4153 89.9412 57.0763 90.9253 55.1562C91.9056 53.2361 94.3639 47.7153 96.2546 48.8394C98.1526 49.9598 103.482 56.5604 104.182 64.1339C104.882 71.7149 101.175 71.3537 101.521 75.5293C101.864 79.7086 97.445 85.9075 97.7915 91.4762Z" fill="black"/>
</g>
<defs>
<clipPath id="clip0">
<rect width="124" height="124" fill="white"/>
</clipPath>
</defs>
</svg>
