<svg width="149" height="156" viewBox="0 0 149 156" fill="none" xmlns="http://www.w3.org/2000/svg">
<circle cx="87" cy="62" r="62" fill="#BC90F4"/>
<g clip-path="url(#clip0)">
<path d="M82.25 152.5C82.2357 154.427 80.6771 155.986 78.75 156H26.25C24.3194 155.994 22.7558 154.431 22.75 152.5C22.7477 150.643 23.4844 148.861 24.7977 147.548C26.1109 146.234 27.8928 145.498 29.75 145.5H75.25C79.116 145.5 82.25 148.634 82.25 152.5Z" fill="black"/>
<path d="M71.3086 59.75C71.2716 59.8347 71.2423 59.9226 71.2211 60.0125C70.5374 62.1368 70.1488 64.3449 70.0661 66.575V66.75H34.9261V66.6275C34.8497 64.3982 34.467 62.19 33.7886 60.065L33.6836 59.75H71.3086Z" fill="black"/>
<path d="M84.5059 66.0509C85.8735 65.3268 87.4038 64.9653 88.9509 65.0009H96.2484C98.2233 65.0005 100.106 64.1657 101.433 62.7026C102.759 61.2394 103.406 59.284 103.213 57.3184C102.761 53.6667 99.63 50.9427 95.9509 51.0009H87.4984C81.9947 51.2276 77.1306 54.6482 75.0559 59.7509C74.861 60.19 74.6915 60.6399 74.5484 61.0984C73.9625 62.9284 73.6327 64.8306 73.5684 66.7509C73.4432 70.7881 74.1459 74.8082 75.6334 78.5634C77.5759 83.6909 80.8659 88.0834 83.0184 93.0709C87.0434 102.416 87.1834 114.176 81.5134 122.908C75.9484 131.466 66.0959 134.966 56.2084 135.001H48.7884C38.9009 134.966 29.0484 131.466 23.4834 122.908C17.8134 114.176 17.9534 102.416 21.9784 93.0709C24.1309 88.0834 27.4209 83.6909 29.3634 78.5634C30.8508 74.8082 31.5536 70.7881 31.4284 66.7509C31.364 64.8306 31.0342 62.9284 30.4484 61.0984C30.3052 60.6399 30.1358 60.19 29.9409 59.7509C27.8662 54.6482 23.0021 51.2276 17.4984 51.0009H8.74838C6.77342 51.0014 4.89055 51.8361 3.56404 53.2993C2.23753 54.7624 1.59082 56.7179 1.78338 58.6834C2.23526 62.3351 5.36679 65.0592 9.04588 65.0009H16.0459C17.5983 64.9673 19.1338 65.3286 20.5084 66.0509C23.2909 67.5734 26.0734 71.1784 19.2484 79.3334C8.74838 91.8634 8.74838 107.981 8.74838 107.981C8.74838 107.981 6.99838 142.001 48.9984 142.001H55.9984C97.9984 142.001 96.2484 107.981 96.2484 107.981C96.2484 107.981 96.2484 91.8634 85.7484 79.3334C78.9234 71.1784 81.7059 67.5734 84.5059 66.0509ZM89.2484 56.2509H96.2484C97.2149 56.2509 97.9984 57.0344 97.9984 58.0009C97.9984 58.9674 97.2149 59.7509 96.2484 59.7509H89.2484C88.2819 59.7509 87.4984 58.9674 87.4984 58.0009C87.4984 57.0344 88.2819 56.2509 89.2484 56.2509ZM15.7484 59.7509H8.74838C7.78188 59.7509 6.99838 58.9674 6.99838 58.0009C6.99838 57.0344 7.78188 56.2509 8.74838 56.2509H15.7484C16.7149 56.2509 17.4984 57.0344 17.4984 58.0009C17.4984 58.9674 16.7149 59.7509 15.7484 59.7509Z" fill="black"/>
<path d="M49 70.25V131.5L48.8075 131.5C47.703 131.503 46.5991 131.451 45.5 131.342V70.25H49Z" fill="black"/>
<path d="M59.4961 70.25V131.342C58.4028 131.451 57.3047 131.503 56.2061 131.5L55.9961 131.5V70.25H59.4961Z" fill="black"/>
<path d="M69.9961 70.25V128.525C68.8687 129.084 67.6983 129.553 66.4961 129.925V70.25H69.9961Z" fill="black"/>
<path d="M80.5 96.2547V117.22C79.6737 119.369 78.4904 121.362 77 123.117V88.9922C78.033 90.7593 78.9678 92.5821 79.8 94.4522C80.0625 95.0472 80.29 95.6422 80.5 96.2547Z" fill="black"/>
<path d="M28 88.9922V123.117C26.5096 121.362 25.3263 119.369 24.5 117.22V96.2547C24.71 95.6422 24.9375 95.0472 25.2 94.4522C26.0322 92.5821 26.967 90.7593 28 88.9922Z" fill="black"/>
<path d="M38.5 70.25V129.925C37.2978 129.553 36.1274 129.084 35 128.525V70.25H38.5Z" fill="black"/>
</g>
<defs>
<clipPath id="clip0">
<rect width="105" height="105" fill="white" transform="translate(0 51)"/>
</clipPath>
</defs>
</svg>
