<svg width="25" height="24" fill="none" xmlns="http://www.w3.org/2000/svg"><g clip-path="url(#clip0)" fill="#333"><path d="M17 0H8A7.5 7.5 0 00.5 7.5v9A7.5 7.5 0 008 24h9a7.5 7.5 0 007.5-7.5v-9A7.5 7.5 0 0017 0zm5.25 16.5A5.256 5.256 0 0117 21.75H8a5.256 5.256 0 01-5.25-5.25v-9A5.256 5.256 0 018 2.25h9a5.256 5.256 0 015.25 5.25v9z"/><path d="M12.5 6a6 6 0 100 12 6 6 0 000-12zm0 9.75A3.755 3.755 0 018.75 12a3.754 3.754 0 013.75-3.75A3.754 3.754 0 0116.25 12a3.755 3.755 0 01-3.75 3.75zm6.45-9.401a.8.8 0 100-1.6.8.8 0 000 1.6z"/></g><defs><clipPath id="clip0"><path fill="#fff" d="M.5 0h24v24H.5z"/></clipPath></defs></svg>