<svg width="48" height="48" viewBox="0 0 48 48" fill="none" xmlns="http://www.w3.org/2000/svg">
<path d="M23.9987 16.6693C19.947 16.6693 16.6654 19.9509 16.6654 24.0026C16.6654 28.0543 19.947 31.3359 23.9987 31.3359C28.0504 31.3359 31.332 28.0543 31.332 24.0026C31.332 19.9509 28.0504 16.6693 23.9987 16.6693ZM40.3887 22.1693C39.9734 18.4515 38.3063 14.9854 35.6611 12.3402C33.0159 9.695 29.5498 8.02788 25.832 7.6126V5.66927C25.832 4.66094 25.007 3.83594 23.9987 3.83594C22.9904 3.83594 22.1654 4.66094 22.1654 5.66927V7.6126C18.4476 8.02788 14.9815 9.695 12.3363 12.3402C9.69109 14.9854 8.02397 18.4515 7.6087 22.1693H5.66536C4.65703 22.1693 3.83203 22.9943 3.83203 24.0026C3.83203 25.0109 4.65703 25.8359 5.66536 25.8359H7.6087C8.02397 29.5537 9.69109 33.0198 12.3363 35.665C14.9815 38.3102 18.4476 39.9773 22.1654 40.3926V42.3359C22.1654 43.3443 22.9904 44.1693 23.9987 44.1693C25.007 44.1693 25.832 43.3443 25.832 42.3359V40.3926C29.5498 39.9773 33.0159 38.3102 35.6611 35.665C38.3063 33.0198 39.9734 29.5537 40.3887 25.8359H42.332C43.3404 25.8359 44.1654 25.0109 44.1654 24.0026C44.1654 22.9943 43.3404 22.1693 42.332 22.1693H40.3887ZM23.9987 36.8359C16.9037 36.8359 11.1654 31.0976 11.1654 24.0026C11.1654 16.9076 16.9037 11.1693 23.9987 11.1693C31.0937 11.1693 36.832 16.9076 36.832 24.0026C36.832 31.0976 31.0937 36.8359 23.9987 36.8359Z" fill="#476FB2"/>
</svg>
