<svg width="249" height="62" viewBox="0 0 249 62" fill="none" xmlns="http://www.w3.org/2000/svg">
<path d="M46.6394 37.3112H34.967L33.2345 41.0332H25.8273V39.932L39.1514 11.041H42.4072L55.7754 39.932V41.0332H48.3719L46.6394 37.3112ZM40.7665 23.0548L37.4226 30.8364H44.1911L40.7665 23.0548Z" fill="#333333"/>
<path d="M83.4405 25.6356C85.8521 26.8615 86.9936 29.0602 86.9936 31.6847C86.9532 36.8455 83.8223 41.0336 77.7732 41.0336H63.8984V11.4415H76.5472C77.7526 11.423 78.9497 11.6447 80.0686 12.0937C81.1875 12.5426 82.2057 13.2099 83.064 14.0566C83.9223 14.9032 84.6034 15.9123 85.0676 17.025C85.5318 18.1376 85.7697 19.3316 85.7676 20.5372C85.7676 22.3137 84.8794 24.4683 83.4405 25.6539V25.6356ZM71.2139 18.21V22.9818H75.9856C78.9881 22.9818 78.9881 18.21 75.9416 18.21H71.2139ZM71.2139 29.2915V34.3238H77.263C80.3095 34.3238 80.2691 29.2915 77.2226 29.2915H71.2139Z" fill="#333333"/>
<path d="M96.1172 41.0335V11.4414H109.148C123.316 11.4818 123.316 33.4648 109.148 33.4648H103.69V41.0372L96.1172 41.0335ZM109.111 18.1916C107.334 18.1475 105.44 18.1916 103.697 18.1916V26.6522H109.111C113.255 26.6522 113.516 18.232 109.111 18.1916Z" fill="#333333"/>
<path d="M131.635 41.0732H128.926V11.4224H136.667V25.9322L151.643 11.2939H154.393V41.0328H146.567V26.4827L131.635 41.0732Z" fill="#333333"/>
<path d="M168.775 44.3734H162.535V34.4629H165.538L175.69 11.0264H178.946L189.437 34.4629H192.527V44.3734H186.291V41.1176H168.775V44.3734ZM173.18 34.3932H181.556L177.283 23.6898L173.18 34.3932Z" fill="#333333"/>
<path d="M220.258 37.3112H208.585L206.849 41.0332H199.445V39.932L212.77 11.041H216.025L229.394 39.932V41.0332H221.99L220.258 37.3112ZM214.385 23.0548L211.041 30.8364H217.809L214.385 23.0548Z" fill="#333333"/>
<path d="M142.035 56.1871H137.678L136.753 58.1611H135.092V57.9569L139.503 48.5632H140.238L144.622 57.9569V58.1611H142.974L142.035 56.1871ZM139.87 51.0409L138.196 54.8529H141.531L139.87 51.0409ZM147.428 58.1611H145.835V48.6312H149.783C150.809 48.6312 151.626 48.958 152.234 49.6115C152.842 50.2559 153.146 51.05 153.146 51.9939C153.146 52.9197 152.837 53.7048 152.22 54.3492C151.612 54.9845 150.8 55.3022 149.783 55.3022H147.428V58.1611ZM147.401 53.9135H149.783C150.319 53.9135 150.759 53.7275 151.104 53.3553C151.449 52.9742 151.621 52.5067 151.621 51.9531C151.621 51.3904 151.449 50.9275 151.104 50.5645C150.768 50.1923 150.328 50.0063 149.783 50.0063H147.401V53.9135ZM156.554 50.0335H153.79V48.6312H160.87V50.0335H158.106V58.1611H156.554V50.0335ZM161.423 54.2675V52.9878H166.011V54.2675H161.423ZM169.657 48.6312V52.8516C170.601 52.8516 171.223 52.7745 171.522 52.6202C171.776 52.484 171.981 52.2345 172.135 51.8714C172.289 51.4993 172.448 50.9956 172.611 50.3602C172.802 49.6705 173.129 49.1713 173.592 48.8627C174.054 48.545 174.74 48.4724 175.647 48.6449V49.734C175.157 49.6977 174.803 49.7521 174.585 49.8974C174.377 50.0335 174.204 50.3421 174.068 50.8231C173.723 52.0847 173.31 52.9333 172.829 53.369L175.96 57.9297V58.1611H174.163L171.441 53.9952C171.168 54.095 170.574 54.145 169.657 54.145V58.1611H168.064V48.6312H169.657ZM180.869 51.2043L177.888 58.1611H176.363V57.9433L180.529 48.5768H181.21L185.389 57.9433V58.1611H183.851L180.883 51.2043H180.869ZM192.503 56.1871H188.146L187.221 58.1611H185.56V57.9569L189.971 48.5632H190.706L195.09 57.9569V58.1611H193.442L192.503 56.1871ZM190.338 51.0409L188.664 54.8529H191.999L190.338 51.0409ZM195.452 53.4098C195.452 51.9213 195.92 50.7369 196.855 49.8565C197.798 48.9671 198.947 48.5223 200.299 48.5223C200.943 48.5223 201.551 48.6358 202.123 48.8627C202.704 49.0896 203.221 49.4481 203.675 49.9382C204.129 50.4283 204.438 51.0183 204.601 51.708H203.076C202.613 50.5645 201.683 49.9836 200.285 49.9654C199.314 49.9654 198.529 50.2876 197.93 50.932C197.34 51.5674 197.045 52.3933 197.045 53.4098C197.045 54.3719 197.345 55.1796 197.944 55.8331C198.552 56.4866 199.332 56.8133 200.285 56.8133C200.957 56.8133 201.542 56.65 202.042 56.3232C202.55 55.9965 202.908 55.5245 203.117 54.9074H204.655C204.429 56.0056 203.902 56.8406 203.076 57.4124C202.259 57.9751 201.329 58.2564 200.285 58.2564C198.933 58.2564 197.789 57.8208 196.855 56.9495C195.92 56.0691 195.452 54.8892 195.452 53.4098ZM208.125 50.0335H205.362V48.6312H212.441V50.0335H209.677V58.1611H208.125V50.0335ZM219.679 48.6312V50.0199H215.472V52.5385H219.447V53.9408H215.472V56.718H219.76V58.1611H213.879V48.6312H219.679ZM223.329 58.1611H221.736V48.6312H225.684C226.71 48.6312 227.527 48.958 228.135 49.6115C228.743 50.2559 229.047 51.05 229.047 51.9939C229.047 52.9197 228.739 53.7048 228.121 54.3492C227.513 54.9845 226.701 55.3022 225.684 55.3022H223.329V58.1611ZM223.302 53.9135H225.684C226.22 53.9135 226.66 53.7275 227.005 53.3553C227.35 52.9742 227.522 52.5067 227.522 51.9531C227.522 51.3904 227.35 50.9275 227.005 50.5645C226.669 50.1923 226.229 50.0063 225.684 50.0063H223.302V53.9135Z" fill="#FF9015"/>
<path d="M248.99 11.4191C248.99 13.6791 248.321 15.8885 247.065 17.7678C245.81 19.6471 244.025 21.1117 241.937 21.9764C239.849 22.8411 237.552 23.067 235.335 22.6255C233.119 22.1839 231.083 21.0949 229.486 19.496C227.888 17.8972 226.801 15.8605 226.362 13.6436C225.923 11.4267 226.151 9.12935 227.017 7.04215C227.884 4.95495 229.35 3.17176 231.231 1.91821C233.111 0.664664 235.321 -0.00289532 237.581 9.43946e-06C239.081 9.43946e-06 240.566 0.295372 241.951 0.869237C243.337 1.4431 244.596 2.28423 245.656 3.34459C246.716 4.40496 247.557 5.66379 248.131 7.04922C248.705 8.43465 249.001 9.91955 249.001 11.4191" fill="#F29400"/>
<path d="M0 18.1621V11.3936H22.8382V18.1621H15.1851V41.0113H7.69717V18.1621H0Z" fill="#333333"/>
</svg>
