<svg width="541" height="156" fill="none" xmlns="http://www.w3.org/2000/svg"><mask id="a" fill="#fff"><path d="M421.037 73.81c3.9-6.808 6.278-6.286 9.24-2.127 3.519 4.95 5.165 12.435 5.859 16.77-7.069 11.053-14.821 21.98-18.996 23.067a1.23 1.23 0 01-.358.028c-4.102-.445-1.084-28.455 4.255-37.742v.004zm107.317-11.83c-3.207 2.11-49.064 53.386-53.105 53.493-6.839.154-6.895-34.304-7.509-42.601-.52-6.926-2.45-6.268-10.032-8.483-1.905-.541-3.118-.676-3.919-.688h-.357a3.329 3.329 0 00-2.486 1.221c-1.354 1.652-4.964 7.69-9.39 14.892-1.731-4.332-5.239-11.758-9.701-15.57-4.544-3.898-18.311-6.846-24.54 5.731-10.694 21.638-4.718 42.141 1.629 46.164 6.09 3.859 18.855 5.084 32.337-11.528a284.151 284.151 0 009.1-11.82c2.321 12.418 5.959 23.974 10.36 27.041 5.792 4.053 15.282 8.809 33.331-11.856 18.049-20.665 29.522-35.948 35.051-40.59 2.251-1.887 3.057-3.483 3.057-4.566-.028-.9-.633-1.46-1.478-1.557-.684-.067-1.5.146-2.34.705l-.008.012zm-453.91 48.66c4.997-25.167 12.688-33.575 16.705-28.706 2.675 3.24 5.699 8.744 7.422 12.054-3.935 7.455-4.545 12.281-8.183 17.707-5.07 7.59-11.238 14.425-14.613 14.071-2.49-.271-3.452-4.458-1.332-15.134v.008zm89.691 6.248a10.915 10.915 0 01-.919-1.202c-.051-.146-.089-.29-.152-.452-4.073-10.473-6.268-23.098-6.849-36.005 9.799 1.58 23.317 2.154 24.232 16.06.879 13.329-11.607 22.371-15.474 21.964a1.26 1.26 0 01-.838-.365zM177.364 9.903c5.413-1.353 9.011 13.309 2.832 33.21-6.151 19.75-19.258 26.015-24.155 28.491.04-30.61 8.62-58.527 21.323-61.7zm-32.549 24.999c-2.385 14.585-1.893 28.454-.395 41.18-1.383 2.197-2.887 5.225-4.545 9.333-12.385 30.251-15.458 31.023-15.458 31.023s-.593-24.65-.257-30.628c.336-5.978 1.694-5.782 1.694-5.782s2.098-1.624-1.607-3.037a2.21 2.21 0 00-.474-.126c-3.241-1.255-7.596-4.456-10.947-3.917-2.263.37-5.464 5.098-9.09 11.48-3.889-2.823-10.588-7.04-16.04-7.477-10.447-.818-17.426-.104-22.374 17.334-5.495 19.282-2.227 32.802 12.53 36.73 13.018 3.492 24.072-8.86 33.681-26.393.168 7.497 1.281 13.994 4.998 16.895 7.084 5.493 14.634 11.828 24.7-4.439a117.627 117.627 0 007.706-14.788c5.083 18.861 14.546 20.92 25.066 20.63 12.587-.348 24.194-14.497 24.015-27.844-.172-12.206-15.71-17.629-33.927-19.68 17.389-8.908 28.975-17.9 36.385-37.959 8.888-24-7.588-33.55-21.495-35.87a55.635 55.635 0 00-3.755-.522c-17.835-1.927-25.81 5.995-30.411 33.857zm209.432 74.766c-3.106-3.847-2.059-25.818 1.478-31.835 7.237-12.32 11.507 2.99 12.742 5.533 1.031 2.157 4.875 2.545 9.287 3.637-8.57 16.263-18.553 23.653-22.343 23.236a1.66 1.66 0 01-1.164-.571zm-59.244-78.864s-1.925 2.804 4.297 7c6.223 4.198 5.336 1.662 10.825-5.505 47.015-61.428 86.202-6.09 77.065 29.674a118.559 118.559 0 01-6.644 19.294c-.739-1.44-1.529-2.853-2.116-3.995-2.132-4.128-9.744-11.884-18.922-13.404-5.065-.832-11.4-1.257-16.204 2.893h-.039a.102.102 0 00-.032.067 15.98 15.98 0 00-3.802 5.067 29.518 29.518 0 00-1.875 4.865c-8.226 14.11-22.408 36.819-21.999 25.125a112.608 112.608 0 015.195-29.583c3.488-8.667-.773-7.35-4.41-7.331-4.941.047-9.881.444-10.13 1.604-3.637 17.476-26.018 48.395-25.391 29.75.274-8.23 6.374-31.111 4.46-33.58-1.807-2.358-8.719-5.8-11.214-6.044-2.358-1.09-4.545-.593-7.752 4.729-2.816 4.653-10.93 23.975-17.518 36.23 2.273-14.053 5.363-33.869 5.587-38.908.335-8.036-7.719-10.194-11.009-11.45-6.179-2.398-7.208-3.639-13.666 4.94-2.766 3.675-7.477 11.897-12.318 21.722 1.343-14.03-1.641-14.518-7.227-16.401-1.946-.666-4.766-.812-8.299 8.007-.729 1.778 4.286 1.646 4.286 1.646s-8.592 70.715-9.09 76.471c-.498 5.757 1.079 7.053 5.976 9.179a65.019 65.019 0 008.91 3.134s-2.789-30.47 10.36-64c6.256-15.938 15.401-24.897 19.155-29.746 1.283 10.706-6.916 37.512-8.348 43.52-1.054 4.303 2.333 6.876 6.268 8.975 6.042 3.557 9.38 5.181 12.037 2.784 1.84-1.654 11.232-23.938 19.107-39.653-.516 8.813-1.601 18.899 1.75 28.328 1.903 5.32 8.641 8.568 12.906 9.643 3.576.89 10.84-3.995 20.064-16.796-1.316 7.766-.395 13.589 7.359 15.832 4.495 1.304 14.719-10.078 24.06-22.131 1.383 9.372 6.011 18.114 13.073 22.194 21.934 12.698 41.331-13.664 49.675-40.636 9.05-29.303-5.758-55.776-27.243-67.71A52.502 52.502 0 00352.366.291C333.44-1.74 312.2 6.662 295.003 30.804zM80.033 35.84c-15.867-.52-64.813 8.395-75.782 14.692C.993 52.398-.084 54.826.005 57.304c.235 5.879 7.029 12.1 7.029 12.1s0-5.06 6.728-7.006c1.498-.433 13.022-3.083 27.13-6.284-2.552 18.672-5.204 50.626-6.11 60.972-1.005 11.443-1.414 17.729 7.854 22.661 5.81 3.077 9.3 3.085 8.903.579-1.5-9.36 3.755-58.52 7.774-88.373 19.76-4.45 34.778-8.509 35.806-8.722 2.007-.437-4.249-6.296-13.307-7.268a22.419 22.419 0 00-1.778-.127v.004z"/></mask><path d="M421.037 73.81c3.9-6.808 6.278-6.286 9.24-2.127 3.519 4.95 5.165 12.435 5.859 16.77-7.069 11.053-14.821 21.98-18.996 23.067a1.23 1.23 0 01-.358.028c-4.102-.445-1.084-28.455 4.255-37.742v.004zm107.317-11.83c-3.207 2.11-49.064 53.386-53.105 53.493-6.839.154-6.895-34.304-7.509-42.601-.52-6.926-2.45-6.268-10.032-8.483-1.905-.541-3.118-.676-3.919-.688h-.357a3.329 3.329 0 00-2.486 1.221c-1.354 1.652-4.964 7.69-9.39 14.892-1.731-4.332-5.239-11.758-9.701-15.57-4.544-3.898-18.311-6.846-24.54 5.731-10.694 21.638-4.718 42.141 1.629 46.164 6.09 3.859 18.855 5.084 32.337-11.528a284.151 284.151 0 009.1-11.82c2.321 12.418 5.959 23.974 10.36 27.041 5.792 4.053 15.282 8.809 33.331-11.856 18.049-20.665 29.522-35.948 35.051-40.59 2.251-1.887 3.057-3.483 3.057-4.566-.028-.9-.633-1.46-1.478-1.557-.684-.067-1.5.146-2.34.705l-.008.012zm-453.91 48.66c4.997-25.167 12.688-33.575 16.705-28.706 2.675 3.24 5.699 8.744 7.422 12.054-3.935 7.455-4.545 12.281-8.183 17.707-5.07 7.59-11.238 14.425-14.613 14.071-2.49-.271-3.452-4.458-1.332-15.134v.008zm89.691 6.248a10.915 10.915 0 01-.919-1.202c-.051-.146-.089-.29-.152-.452-4.073-10.473-6.268-23.098-6.849-36.005 9.799 1.58 23.317 2.154 24.232 16.06.879 13.329-11.607 22.371-15.474 21.964a1.26 1.26 0 01-.838-.365zM177.364 9.903c5.413-1.353 9.011 13.309 2.832 33.21-6.151 19.75-19.258 26.015-24.155 28.491.04-30.61 8.62-58.527 21.323-61.7zm-32.549 24.999c-2.385 14.585-1.893 28.454-.395 41.18-1.383 2.197-2.887 5.225-4.545 9.333-12.385 30.251-15.458 31.023-15.458 31.023s-.593-24.65-.257-30.628c.336-5.978 1.694-5.782 1.694-5.782s2.098-1.624-1.607-3.037a2.21 2.21 0 00-.474-.126c-3.241-1.255-7.596-4.456-10.947-3.917-2.263.37-5.464 5.098-9.09 11.48-3.889-2.823-10.588-7.04-16.04-7.477-10.447-.818-17.426-.104-22.374 17.334-5.495 19.282-2.227 32.802 12.53 36.73 13.018 3.492 24.072-8.86 33.681-26.393.168 7.497 1.281 13.994 4.998 16.895 7.084 5.493 14.634 11.828 24.7-4.439a117.627 117.627 0 007.706-14.788c5.083 18.861 14.546 20.92 25.066 20.63 12.587-.348 24.194-14.497 24.015-27.844-.172-12.206-15.71-17.629-33.927-19.68 17.389-8.908 28.975-17.9 36.385-37.959 8.888-24-7.588-33.55-21.495-35.87a55.635 55.635 0 00-3.755-.522c-17.835-1.927-25.81 5.995-30.411 33.857zm209.432 74.766c-3.106-3.847-2.059-25.818 1.478-31.835 7.237-12.32 11.507 2.99 12.742 5.533 1.031 2.157 4.875 2.545 9.287 3.637-8.57 16.263-18.553 23.653-22.343 23.236a1.66 1.66 0 01-1.164-.571zm-59.244-78.864s-1.925 2.804 4.297 7c6.223 4.198 5.336 1.662 10.825-5.505 47.015-61.428 86.202-6.09 77.065 29.674a118.559 118.559 0 01-6.644 19.294c-.739-1.44-1.529-2.853-2.116-3.995-2.132-4.128-9.744-11.884-18.922-13.404-5.065-.832-11.4-1.257-16.204 2.893h-.039a.102.102 0 00-.032.067 15.98 15.98 0 00-3.802 5.067 29.518 29.518 0 00-1.875 4.865c-8.226 14.11-22.408 36.819-21.999 25.125a112.608 112.608 0 015.195-29.583c3.488-8.667-.773-7.35-4.41-7.331-4.941.047-9.881.444-10.13 1.604-3.637 17.476-26.018 48.395-25.391 29.75.274-8.23 6.374-31.111 4.46-33.58-1.807-2.358-8.719-5.8-11.214-6.044-2.358-1.09-4.545-.593-7.752 4.729-2.816 4.653-10.93 23.975-17.518 36.23 2.273-14.053 5.363-33.869 5.587-38.908.335-8.036-7.719-10.194-11.009-11.45-6.179-2.398-7.208-3.639-13.666 4.94-2.766 3.675-7.477 11.897-12.318 21.722 1.343-14.03-1.641-14.518-7.227-16.401-1.946-.666-4.766-.812-8.299 8.007-.729 1.778 4.286 1.646 4.286 1.646s-8.592 70.715-9.09 76.471c-.498 5.757 1.079 7.053 5.976 9.179a65.019 65.019 0 008.91 3.134s-2.789-30.47 10.36-64c6.256-15.938 15.401-24.897 19.155-29.746 1.283 10.706-6.916 37.512-8.348 43.52-1.054 4.303 2.333 6.876 6.268 8.975 6.042 3.557 9.38 5.181 12.037 2.784 1.84-1.654 11.232-23.938 19.107-39.653-.516 8.813-1.601 18.899 1.75 28.328 1.903 5.32 8.641 8.568 12.906 9.643 3.576.89 10.84-3.995 20.064-16.796-1.316 7.766-.395 13.589 7.359 15.832 4.495 1.304 14.719-10.078 24.06-22.131 1.383 9.372 6.011 18.114 13.073 22.194 21.934 12.698 41.331-13.664 49.675-40.636 9.05-29.303-5.758-55.776-27.243-67.71A52.502 52.502 0 00352.366.291C333.44-1.74 312.2 6.662 295.003 30.804zM80.033 35.84c-15.867-.52-64.813 8.395-75.782 14.692C.993 52.398-.084 54.826.005 57.304c.235 5.879 7.029 12.1 7.029 12.1s0-5.06 6.728-7.006c1.498-.433 13.022-3.083 27.13-6.284-2.552 18.672-5.204 50.626-6.11 60.972-1.005 11.443-1.414 17.729 7.854 22.661 5.81 3.077 9.3 3.085 8.903.579-1.5-9.36 3.755-58.52 7.774-88.373 19.76-4.45 34.778-8.509 35.806-8.722 2.007-.437-4.249-6.296-13.307-7.268a22.419 22.419 0 00-1.778-.127v.004z" stroke="#fff" stroke-width=".708" mask="url(#a)"/><path d="M478.927 24.03l.839-6.674m-.839 6.673l-7.209 6.656c1.903-10.434 5.558-17.822 5.558-17.822 7.42-3.869 22.977-6.094 22.956-3.545-.01 1.561-1.773 3.727-3.095 5.138m-18.21 9.573h-.013l-.009.176.175.022.002-.012c14.031.81 14.579 9.999 14.579 9.999m-14.734-10.185l-1.492-11.087h0-.001l-.001.005-.008.015-.015.031m2.356 4.364s7.448-2.087 14.154-1.654a4.098 4.098 0 003.217-1.247m-17.371 2.9l-.048-.17-.113.032-.015.116-.861 6.85-.024.188.19.01c7.06.37 10.699 2.853 12.576 5.216a9.918 9.918 0 011.713 3.21c.134.43.21.788.251 1.036a4.944 4.944 0 01.044.32l.004.038.001.018.001.004h0l.176-.01m-13.895-16.857l-.048-.171h.002l.004-.002.017-.004.064-.018.25-.066a56.492 56.492 0 014.243-.903c2.707-.469 6.261-.885 9.634-.667a3.917 3.917 0 003.077-1.192m.128.122l-.129-.121.001-.001m.128.122l-.127-.123h-.001m-25.103 16.304l1.406 1.76a8.77 8.77 0 01.287-.355 10.87 10.87 0 011.246-1.235c1.096-.925 2.724-1.932 4.84-2.246h.002a3.563 3.563 0 013.832 2.332c.542 1.483.855 3.638.008 6.374-.846 2.733-2.847 6.035-6.914 9.821m-4.707-16.45l4.586 16.321m-4.586-16.322a79.06 79.06 0 013.471-12.715 65.997 65.997 0 011.461-3.67c.185-.427.335-.755.438-.976l.118-.25.016-.033m-5.504 17.644l5.504-17.644m-.797 34.095s0 0 0 0l-.121-.129m.121.13l.001-.001-.122-.129m.121.13a4.792 4.792 0 01-4.341 1.197h0a11.463 11.463 0 01-4.388-2.035l-.002-.002a.673.673 0 00-.672-.09l-.068-.163m9.35.963a4.619 4.619 0 01-4.181 1.154 11.288 11.288 0 01-4.32-2.004.85.85 0 00-.849-.113m0 0l.068.164a.675.675 0 00-.408.54v0l-.176-.018m.516-.685a.853.853 0 00-.516.685m27.035-12.467l-.176.012h0v-.001l.176-.011zm0 0l-.176.012v.012l.001.019.001.028c0 .041 0 .105-.004.19-.007.17-.028.423-.083.754-.111.66-.357 1.629-.904 2.843-1.093 2.429-3.388 5.848-8.202 9.765-4.786 3.895-9.228 4.087-12.471 3.317a14.519 14.519 0 01-3.875-1.548c-.46-.266-.819-.508-1.061-.683a7.124 7.124 0 01-.275-.206l-.02-.015m27.069-14.488s.409 5.896-9.255 13.76c-9.665 7.865-18 .805-18 .805m30.603-34.445c.658-.702 1.421-1.588 2.02-2.489.604-.909 1.021-1.803 1.026-2.528v0c.001-.206-.148-.405-.565-.573-.411-.165-1.023-.27-1.803-.315-1.554-.088-3.715.07-6.116.43-4.782.716-10.474 2.225-14.161 4.134m-10.818 35.709l.209-2-.175-.021m-.034 2.021l-.01.096-.176-.019m.186-.077l-.05-.04-.016-.014-.004-.003-.001-.001h0l-.115.135m.22-2.098l-.22 2.098m6.912-16.09s.036-.054.108-.15l-.223.005.115.144zm27.464 7.956c.054.016.096.03.126.04.824 1.334.826 2.703.379 3.915-.455 1.234-1.375 2.306-2.367 2.997-.495.346-1.003.592-1.473.718-.471.127-.891.128-1.221.002-.324-.124-.582-.377-.726-.806-.146-.436-.175-1.056-.018-1.9.63-3.397 2.029-4.587 3.217-4.96a3.558 3.558 0 011.587-.115c.209.031.379.074.496.109zm28.47-18.336v0c-.006-1.622-.707-2.874-1.826-3.738-1.114-.86-2.634-1.33-4.28-1.418-3.263-.174-7.087 1.155-9.371 4.06l-.087-.003a8.576 8.576 0 01-.464-.036 7.378 7.378 0 01-1.375-.269c-.492-.152-.951-.372-1.263-.687-.304-.306-.473-.707-.385-1.255h0c.224-1.417 1.165-2.996 2.683-4.455 1.515-1.456 3.593-2.78 6.068-3.686 4.946-1.814 11.466-1.963 18.213 1.807 2.122 1.189 3.103 3.965 3.013 7.548-.09 3.572-1.246 7.888-3.321 12.058-4.152 8.346-11.948 16.04-22.141 16.078l-.013-.002a4.014 4.014 0 01-.314-.047 6.322 6.322 0 01-.902-.245 7.797 7.797 0 01-2.716-1.65c-1.948-1.802-3.866-5.293-3.601-12.06v-.015h0v-.003l-.001-.011-.001-.046a10.571 10.571 0 01.021-.827c.035-.543.12-1.275.321-2.038.386-1.465 1.183-2.993 2.82-3.556a55.857 55.857 0 00-.041 2.417c.007 1.597.081 3.727.351 5.849.268 2.118.733 4.245 1.529 5.827.796 1.582 1.95 2.665 3.602 2.583 1.715-.085 3.416-.953 4.995-2.33 1.58-1.377 3.051-3.273 4.308-5.441 2.514-4.334 4.193-9.783 4.178-14.41z" stroke="#fff" stroke-width=".354"/></svg>