<svg width="221" height="64" fill="none" xmlns="http://www.w3.org/2000/svg"><path d="M172.198 30.187c1.595-2.784 2.568-2.57 3.779-.87 1.439 2.025 2.113 5.086 2.396 6.86-2.891 4.52-6.061 8.989-7.769 9.433a.498.498 0 01-.146.011c-1.678-.181-.444-11.637 1.74-15.436v.002zm43.891-4.838c-1.311.863-20.066 21.835-21.719 21.878-2.797.063-2.82-14.03-3.071-17.423-.213-2.833-1.002-2.563-4.103-3.47-.779-.22-1.275-.276-1.603-.28h-.146a1.366 1.366 0 00-1.017.499c-.553.675-2.03 3.144-3.84 6.09-.708-1.771-2.142-4.809-3.967-6.367-1.859-1.595-7.489-2.8-10.037 2.343-4.374 8.85-1.93 17.235.666 18.88 2.491 1.579 7.712 2.08 13.226-4.714a115.428 115.428 0 003.721-4.835c.95 5.08 2.438 9.806 4.238 11.06 2.368 1.657 6.25 3.603 13.632-4.849 7.381-8.452 12.074-14.702 14.335-16.6.92-.772 1.25-1.425 1.25-1.868-.011-.368-.259-.597-.604-.637-.28-.027-.614.06-.957.289l-.004.004zM30.446 45.25c2.044-10.292 5.19-13.73 6.833-11.74 1.094 1.326 2.33 3.577 3.035 4.93-1.609 3.05-1.859 5.023-3.347 7.242-2.073 3.104-4.596 5.9-5.976 5.755-1.018-.11-1.412-1.823-.545-6.19v.004zm36.683 2.556a4.496 4.496 0 01-.376-.491c-.02-.06-.036-.12-.062-.185-1.666-4.284-2.564-9.447-2.801-14.726 4.007.647 9.536.881 9.91 6.569.36 5.45-4.747 9.149-6.328 8.983a.514.514 0 01-.343-.15zm5.41-43.755c2.214-.553 3.686 5.443 1.159 13.582-2.516 8.078-7.877 10.64-9.88 11.653.017-12.52 3.526-23.937 8.722-25.235zM59.228 14.274c-.975 5.965-.774 11.638-.161 16.843-.566.898-1.18 2.136-1.859 3.816-5.066 12.373-6.322 12.689-6.322 12.689s-.243-10.082-.105-12.527c.137-2.445.692-2.365.692-2.365s.859-.664-.657-1.242a.903.903 0 00-.194-.052c-1.325-.513-3.106-1.822-4.477-1.601-.925.15-2.234 2.085-3.717 4.695-1.59-1.155-4.33-2.88-6.56-3.058-4.273-.335-7.127-.043-9.151 7.09-2.248 7.885-.91 13.415 5.124 15.021 5.325 1.428 9.845-3.623 13.776-10.794.068 3.066.523 5.723 2.043 6.91 2.898 2.246 5.986 4.837 10.102-1.816a48.134 48.134 0 003.152-6.048c2.079 7.714 5.95 8.556 10.252 8.437 5.148-.142 9.895-5.928 9.821-11.387-.07-4.992-6.425-7.21-13.875-8.049 7.112-3.643 11.85-7.321 14.88-15.525 3.636-9.816-3.103-13.722-8.79-14.67a22.743 22.743 0 00-1.536-.214C64.371-.36 61.11 2.88 59.227 14.274zm85.655 30.579c-1.27-1.574-.842-10.56.605-13.02 2.959-5.04 4.706 1.222 5.211 2.262.422.883 1.993 1.041 3.798 1.488-3.505 6.651-7.588 9.674-9.138 9.503a.681.681 0 01-.476-.233zm-24.23-32.255s-.787 1.147 1.758 2.863c2.545 1.717 2.182.68 4.427-2.251 19.228-25.123 35.255-2.49 31.518 12.136a48.445 48.445 0 01-2.717 7.891c-.302-.59-.625-1.167-.865-1.634-.873-1.688-3.986-4.86-7.739-5.482-2.072-.34-4.663-.514-6.627 1.183h-.017a.04.04 0 00-.012.028 6.513 6.513 0 00-1.555 2.072c-.314.64-.571 1.305-.767 1.99-3.365 5.77-9.165 15.058-8.998 10.276.165-4.11.88-8.18 2.125-12.1 1.426-3.544-.316-3.006-1.804-2.998-2.02.02-4.041.182-4.142.656-1.488 7.148-10.642 19.793-10.385 12.167.112-3.366 2.607-12.723 1.824-13.733-.739-.965-3.566-2.373-4.587-2.472-.964-.446-1.858-.242-3.17 1.934-1.152 1.903-4.47 9.805-7.164 14.818.929-5.748 2.193-13.852 2.284-15.913.138-3.287-3.156-4.17-4.502-4.683-2.527-.98-2.948-1.488-5.59 2.02-1.13 1.503-3.057 4.866-5.037 8.884.55-5.738-.671-5.938-2.956-6.708-.796-.272-1.95-.332-3.394 3.275-.298.727 1.753.673 1.753.673S80.8 56.412 80.596 58.766c-.203 2.354.442 2.885 2.444 3.754 1.182.515 2.4.944 3.644 1.282 0 0-1.14-12.462 4.237-26.175 2.559-6.519 6.3-10.183 7.835-12.166.524 4.379-2.829 15.342-3.415 17.799-.43 1.76.955 2.812 2.564 3.67 2.471 1.455 3.836 2.12 4.923 1.14.752-.677 4.594-9.79 7.814-16.218-.211 3.604-.654 7.73.716 11.586.778 2.175 3.534 3.504 5.278 3.944 1.463.363 4.434-1.634 8.206-6.87-.538 3.176-.161 5.558 3.01 6.475 1.839.534 6.02-4.122 9.84-9.051.566 3.833 2.459 7.408 5.347 9.077 8.971 5.193 16.904-5.588 20.316-16.62C167.057 18.409 161 7.582 152.213 2.701a21.47 21.47 0 00-8.099-2.582c-7.741-.83-16.428 2.606-23.461 12.48zm-87.92 2.06c-6.489-.212-26.507 3.433-30.993 6.009-1.333.763-1.773 1.756-1.737 2.77.096 2.404 2.875 4.948 2.875 4.948s0-2.069 2.751-2.865c.613-.177 5.326-1.26 11.097-2.57-1.045 7.636-2.13 20.705-2.5 24.937-.41 4.68-.578 7.25 3.212 9.268 2.376 1.258 3.804 1.261 3.642.236-.614-3.828 1.535-23.933 3.18-36.143 8.08-1.82 14.223-3.48 14.643-3.567.821-.179-1.737-2.575-5.442-2.973a9.211 9.211 0 00-.727-.051v.001zm162.466-9.397s-1.495 3.022-2.273 7.289l.654.82s.918-1.366 2.615-1.617a1.385 1.385 0 011.489.907c.433 1.185.509 3.46-2.806 6.546a1.886 1.886 0 01-1.71.472 4.611 4.611 0 01-1.766-.82.352.352 0 00-.348-.046.345.345 0 00-.211.28l-.09.858s3.409 2.888 7.362-.329c3.953-3.216 3.785-5.628 3.785-5.628s-.226-3.79-6.035-4.093l.352-2.801s3.046-.854 5.789-.677a1.676 1.676 0 001.316-.51c.541-.577 1.262-1.462 1.266-2.1.008-1.043-6.354-.133-9.389 1.449zm9.714 11.319s-1.817-.75-2.339 2.062 3.793.233 2.339-2.061zm3.882-5.304s-.391 6.974 2.145 6.848c2.717-.135 5.457-5.245 5.445-9-.009-2.558-4.394-2.747-6.223-.374 0 0-1.728-.012-1.568-1.006.38-2.4 5.576-5.747 11.135-2.642 3.616 2.026-.801 14.703-9.22 14.73 0 0-3.374-.237-3.156-5.803 0 0-.103-2.33 1.442-2.753z" fill="#fff"/></svg>