<svg width="249" height="55" fill="none" xmlns="http://www.w3.org/2000/svg"><g clip-path="url(#clip0)"><path d="M164.412 52.576h-4.944l-1.526 2.337h-1.01l5.81-8.732h.921l2.275 8.732h-.936l-.59-2.337zm-.176-.747l-1.201-4.723-3.084 4.723h4.285zm8.31-5.662a3.712 3.712 0 012.328.65 2.18 2.18 0 01.833 1.827 3.21 3.21 0 01-1.095 2.592c-.727.611-1.732.917-3.013.917h-2.5l-.569 2.76h-.922l1.766-8.732 3.172-.014zm-.932 5.176a3.642 3.642 0 002.334-.66 2.363 2.363 0 00.823-1.949 1.558 1.558 0 00-.593-1.313 2.78 2.78 0 00-1.706-.45h-2.324l-.897 4.372h2.363zm12.043-4.376h-3.133l-1.592 7.946h-.926l1.59-7.946h-3.094l.162-.8h7.138l-.145.8zm-.353 4.174h3.309l-.151.775h-3.31l.152-.775zm9.338-.699l2.575 4.47h-.996l-2.338-4.023h-2.049l-.805 4.024h-.925l1.766-8.732h.922l-.795 3.926h1.971l3.789-3.926h1.06l-4.175 4.261zm12.885-4.275l-1.766 8.732h-.908l1.603-7.946h-4.28l-.707 2.923a21.67 21.67 0 01-.921 3.018 4.185 4.185 0 01-1.025 1.6 1.994 1.994 0 01-1.349.492 2.99 2.99 0 01-.706-.087l.229-.825c.128.033.26.05.392.05a1.373 1.373 0 00.989-.413c.353-.387.624-.839.799-1.33a18.23 18.23 0 00.748-2.49l.897-3.738 6.005.014zm7.416 6.41h-4.944l-1.526 2.336h-1.014l5.814-8.732h.922l2.274 8.732h-.936l-.59-2.337zm-.176-.748l-1.208-4.723-3.083 4.723h4.291zm7.502 3.16a5.017 5.017 0 01-2.222-.457 3.278 3.278 0 01-1.413-1.275 3.683 3.683 0 01-.484-1.903 5.343 5.343 0 01.664-2.648A4.919 4.919 0 01218.7 46.8a5.576 5.576 0 012.826-.699 4.997 4.997 0 011.879.332c.505.187.944.515 1.264.943l-.657.573c-.565-.68-1.42-1.02-2.564-1.023a4.412 4.412 0 00-2.299.594 4.084 4.084 0 00-1.54 1.592 4.498 4.498 0 00-.544 2.197c-.02.39.046.779.193 1.14.147.362.372.688.658.956.57.517 1.381.775 2.434.775a3.858 3.858 0 002.804-1.048l.544.612a3.856 3.856 0 01-1.48.925 5.667 5.667 0 01-1.946.325l-.003-.004zm12.319-8.033h-3.133l-1.593 7.946h-.911l1.561-7.935h-3.094l.162-.8h7.138l-.13.79zm2.564 0l-.636 3.123h4.591l-.151.786h-4.592l-.657 3.248h5.319l-.166.8h-6.258l1.766-8.732h6.064l-.163.8-5.117-.025zm10.712-.8a3.699 3.699 0 012.324.65c.275.218.494.497.639.814.145.318.212.665.194 1.013a3.185 3.185 0 01-1.091 2.591c-.73.613-1.734.919-3.013.919h-2.525l-.569 2.76h-.921l1.766-8.733 3.196-.014zm-.957 5.187a3.654 3.654 0 002.324-.664 2.348 2.348 0 00.819-1.949 1.558 1.558 0 00-.593-1.313 2.779 2.779 0 00-1.706-.45h-2.324l-.883 4.376h2.363z" fill="#fff"/><path d="M160.734 12.235V2.501l1.752.401v9.738l-1.752-.405zm2.635.605V3.104l1.752.402v9.737l-1.752-.405zm2.627.617V3.72l1.752.405v9.734l-1.752-.402zM13.774 24.362c.544-.49.936-.842 1.766-.838.83.003 1.247.349 1.798.859.64.576 1.434 1.292 2.931 1.299 1.498.007 2.335-.72 2.985-1.296.159-.143.307-.272.452-.384l-1.243-1.24-.385.35c-.551.495-.95.852-1.802.848-.85-.003-1.215-.35-1.766-.845-.642-.583-1.444-1.306-2.973-1.31-1.53-.003-2.324.699-2.964 1.289a4.92 4.92 0 01-.413.35l1.261 1.229c.124-.105.24-.21.353-.311zm0-7.454c.54-.492.933-.841 1.766-.841.834 0 1.247.349 1.798.859.64.576 1.434 1.292 2.931 1.3 1.498.006 2.335-.72 2.985-1.297.159-.143.307-.272.452-.384l-1.243-1.24-.385.35c-.551.495-.95.852-1.802.848-.85-.003-1.215-.35-1.766-.845-.642-.583-1.444-1.306-2.973-1.31-1.53-.003-2.324.699-2.964 1.289a4.9 4.9 0 01-.413.35l1.261 1.232c.124-.105.24-.21.353-.31zm-.001 3.727c.544-.489.936-.842 1.766-.838.83.003 1.247.349 1.798.859.64.576 1.434 1.292 2.931 1.3 1.498.006 2.335-.72 2.995-1.297a7.92 7.92 0 01.453-.384l-1.244-1.24-.385.35c-.55.495-.95.852-1.8.848-.852-.003-1.216-.349-1.767-.845-.643-.583-1.444-1.306-2.974-1.31-1.529-.003-2.324.699-2.963 1.29-.145.132-.279.25-.413.348l1.25 1.24c.124-.104.24-.21.353-.31" fill="#40BBC1"/><path d="M234.02 10.447l-5.901-3.842-15.869 31.434 5.916 2.756 1.847-.754 3.136-5.882h13.856l2.055 3.912h8.261v-1.156L234.02 10.447zm-7.957 16.912l3.963-8.19 4.069 8.19h-8.032zM54.917 10.447l-5.902-3.842-15.868 31.434 5.915 2.756 1.848-.754 3.136-5.882H57.9l2.06 3.912h8.257v-1.156l-13.3-26.468zm-7.943 16.912l3.963-8.19 4.065 8.19h-8.028zm48.321-4.946a7.138 7.138 0 001.984-2.39c.477-.93.741-1.953.774-2.996 0-5.386-4.867-9.88-10.949-9.88h-15.01v31.469h16.465c7.18 0 10.893-4.405 10.95-9.836 0-2.76-1.354-5.075-4.214-6.367zm-14.51-9.046h5.623c3.953 0 4.066 6.563.05 6.563h-5.672v-6.563zm7.181 18.784h-7.18v-6.483h7.127c4.175 0 4.2 6.483.053 6.483zm105.687-21.673l-5.05-3.332-12.033 24.572h-3.564v7.463l6.329 2.211 1.137-.9v-1.988h28.149v-6.786h-4.641l-10.327-21.24zm-7.996 21.149l4.87-11.26 5.069 11.26h-9.939zM35.721 13.38v-1.012L34.57 7.146H0v.807l1.254 5.428m121.563-6.235h-16.356v31.47l7.636 2.668 1.37-.838-.017-11.247h7.367c16.819 0 16.819-22.004 0-22.053zm-.049 16.067h-7.322v-9.878h7.322c7.212 0 6.94 9.881 0 9.881M141.32 7.684v31.33l5.8 2.225 13.534-14.747-.029 11.352c.064 0 5.602 1.704 5.602 1.704l1.413-.814V15.47l-7.018-1.784-12.362 13.499v-19.5M13.89 26.587v12.029l6.584 2.668 1.353-.838v-13.86" fill="#fff"/><path d="M234.36.182c.67.22 1.258.631 1.691 1.182a3.492 3.492 0 01.285 3.91 3.552 3.552 0 01-1.503 1.409 3.6 3.6 0 01-3.933-.487 3.524 3.524 0 01-1.104-1.732 3.486 3.486 0 01.054-2.047 3.51 3.51 0 01.687-1.197 3.564 3.564 0 012.442-1.21c.467-.033.937.025 1.381.172z" fill="#40BBC1"/></g><defs><clipPath id="clip0"><path fill="#fff" d="M0 0h249v55H0z"/></clipPath></defs></svg>