<svg width="250" height="62" fill="none" xmlns="http://www.w3.org/2000/svg"><path d="M46.64 37.311H34.968l-1.733 3.722h-7.407v-1.101l13.324-28.891h3.256l13.368 28.891v1.101h-7.403l-1.733-3.722zm-5.873-14.256l-3.344 7.781h6.769l-3.425-7.781zm42.672 2.581c2.411 1.226 3.553 3.424 3.553 6.049-.04 5.16-3.172 9.349-9.22 9.349H63.895V11.44h12.65a9.08 9.08 0 019.22 9.096c0 1.777-.889 3.931-2.327 5.117v-.018zM71.212 18.21v4.772h4.772c3.002 0 3.002-4.772-.044-4.772h-4.728zm0 11.081v5.033h6.049c3.047 0 3.006-5.032-.04-5.032h-6.01zm24.905 11.742V11.441h13.031c14.168.04 14.168 22.024 0 22.024h-5.458v7.572l-7.573-.004zm12.994-22.841c-1.777-.044-3.671 0-5.414 0v8.46h5.414c4.144 0 4.405-8.42 0-8.46zm22.522 22.881h-2.709v-29.65h7.741v14.51l14.976-14.64h2.749v29.74h-7.825v-14.55l-14.932 14.59zm37.138 3.3h-6.24v-9.91h3.003l10.153-23.437h3.255l10.491 23.437h3.09v9.91h-6.236v-3.255h-17.516v3.255zm4.405-9.98h8.376L177.28 23.69l-4.104 10.703zm47.079 2.918h-11.672l-1.736 3.722h-7.404v-1.101l13.325-28.891h3.255l13.368 28.891v1.101h-7.403l-1.733-3.722zm-5.872-14.256l-3.344 7.781h6.768l-3.424-7.781z" fill="#fff"/><path d="M142.033 56.188h-4.357l-.925 1.974h-1.661v-.204l4.411-9.394h.735l4.384 9.394v.204h-1.648l-.939-1.974zm-2.165-5.146l-1.674 3.812h3.335l-1.661-3.812zm7.558 7.12h-1.593v-9.53h3.948c1.026 0 1.843.327 2.451.98.608.645.912 1.439.912 2.383 0 .926-.309 1.71-.926 2.355-.608.636-1.42.953-2.437.953h-2.355v2.86zm-.027-4.248h2.382c.536 0 .976-.186 1.321-.558.345-.38.517-.848.517-1.402 0-.563-.172-1.026-.517-1.389-.336-.372-.776-.558-1.321-.558h-2.382v3.907zm9.153-3.88h-2.764v-1.402h7.08v1.403h-2.764v8.127h-1.552v-8.127zm4.869 4.235v-1.28h4.588v1.28h-4.588zm8.234-5.637v4.22c.944 0 1.566-.076 1.865-.23.254-.137.459-.387.613-.75.154-.372.313-.876.476-1.51.191-.69.518-1.19.981-1.498.463-.318 1.148-.39 2.055-.218v1.089c-.49-.036-.844.018-1.062.163-.208.136-.381.445-.517.926-.345 1.262-.758 2.11-1.239 2.546l3.132 4.56v.232h-1.798l-2.722-4.166c-.273.1-.867.15-1.784.15v4.016h-1.593v-9.53h1.593zm11.212 2.573l-2.981 6.957h-1.525v-.218l4.166-9.366h.681l4.179 9.366v.218h-1.538l-2.968-6.957h-.014zm11.634 4.983h-4.357l-.925 1.974h-1.661v-.204l4.411-9.394h.735l4.384 9.394v.204h-1.648l-.939-1.974zm-2.165-5.146l-1.674 3.812h3.335l-1.661-3.812zm5.114 2.369c0-1.489.468-2.673 1.403-3.553.943-.89 2.092-1.335 3.444-1.335.644 0 1.252.114 1.824.34a4.17 4.17 0 011.552 1.076c.454.49.763 1.08.926 1.77h-1.525c-.463-1.144-1.393-1.724-2.791-1.743-.971 0-1.756.323-2.355.967-.59.635-.885 1.461-.885 2.478 0 .962.3 1.77.899 2.423.608.654 1.388.98 2.341.98.672 0 1.257-.163 1.757-.49.508-.326.866-.798 1.075-1.416h1.538c-.226 1.099-.753 1.934-1.579 2.505-.817.563-1.747.844-2.791.844-1.352 0-2.496-.435-3.43-1.306-.935-.88-1.403-2.06-1.403-3.54zm12.673-3.377h-2.763v-1.402h7.079v1.403h-2.764v8.127h-1.552v-8.127zm11.554-1.402v1.389h-4.207v2.518h3.975v1.403h-3.975v2.777h4.288v1.443h-5.881v-9.53h5.8zm3.65 9.53h-1.593v-9.53h3.948c1.026 0 1.843.327 2.451.98.608.645.912 1.439.912 2.383 0 .926-.308 1.71-.926 2.355-.608.636-1.42.953-2.437.953h-2.355v2.86zm-.027-4.248h2.382c.536 0 .976-.186 1.321-.558.345-.38.517-.848.517-1.402 0-.563-.172-1.026-.517-1.389-.336-.372-.776-.558-1.321-.558H223.3v3.907z" fill="#FF9015"/><path d="M248.99 11.42A11.423 11.423 0 11237.582 0a11.42 11.42 0 0111.419 11.42" fill="#F29400"/><path d="M0 18.162v-6.768h22.838v6.768h-7.653v22.85H7.697v-22.85H0z" fill="#fff"/></svg>