<svg width="127" height="38" fill="none" xmlns="http://www.w3.org/2000/svg"><path d="M98.364 18.023c.91-1.588 1.464-1.466 2.155-.496.82 1.154 1.204 2.9 1.366 3.91-1.648 2.578-3.456 5.125-4.43 5.379a.285.285 0 01-.083.006c-.956-.103-.253-6.635.992-8.8zm25.024-2.758c-.747.492-11.44 12.448-12.383 12.473-1.594.036-1.607-7.999-1.751-9.934-.121-1.615-.571-1.461-2.339-1.978-.444-.126-.727-.157-.914-.16h-.083a.778.778 0 00-.58.285c-.315.385-1.157 1.793-2.189 3.472-.404-1.01-1.222-2.741-2.262-3.63-1.06-.91-4.27-1.597-5.722 1.336-2.494 5.045-1.1 9.826.38 10.764 1.42.9 4.396 1.186 7.54-2.688a66.175 66.175 0 002.122-2.756c.541 2.896 1.389 5.59 2.415 6.305 1.351.945 3.564 2.054 7.773-2.764 4.208-4.819 6.883-8.382 8.173-9.465.524-.44.712-.812.712-1.064-.006-.21-.147-.341-.344-.364-.16-.015-.35.035-.546.165l-.002.003zM17.547 26.61c1.165-5.868 2.958-7.828 3.895-6.693.624.756 1.329 2.039 1.73 2.81-.917 1.74-1.06 2.864-1.908 4.13-1.182 1.77-2.62 3.363-3.407 3.28-.58-.063-.805-1.039-.31-3.528v.001zm20.914 1.457a2.563 2.563 0 01-.215-.28c-.012-.034-.02-.067-.035-.105-.95-2.442-1.462-5.386-1.597-8.396 2.285.369 5.437.502 5.65 3.745.205 3.108-2.706 5.216-3.608 5.122a.293.293 0 01-.195-.086zm3.084-24.946c1.262-.315 2.102 3.103.66 7.744-1.434 4.605-4.49 6.066-5.632 6.644.01-7.138 2.01-13.648 4.972-14.388zm-7.59 5.83c-.555 3.4-.44 6.634-.091 9.602-.323.512-.674 1.218-1.06 2.176-2.888 7.054-3.605 7.234-3.605 7.234s-.138-5.748-.06-7.142c.079-1.394.395-1.348.395-1.348s.49-.379-.374-.708a.514.514 0 00-.111-.03c-.756-.293-1.771-1.039-2.553-.913-.527.086-1.274 1.189-2.12 2.677-.906-.659-2.468-1.642-3.74-1.744-2.435-.19-4.063-.024-5.216 4.042-1.282 4.496-.52 7.649 2.921 8.565 3.036.814 5.613-2.066 7.854-6.155.04 1.749.299 3.264 1.165 3.94 1.652 1.28 3.413 2.758 5.76-1.035a27.439 27.439 0 001.797-3.448c1.185 4.398 3.392 4.878 5.845 4.81 2.935-.081 5.641-3.38 5.6-6.492-.04-2.847-3.664-4.111-7.912-4.59 4.055-2.076 6.757-4.173 8.484-8.85 2.073-5.597-1.769-7.824-5.012-8.365a12.963 12.963 0 00-.875-.121c-4.159-.45-6.019 1.398-7.091 7.894zm48.836 17.433c-.725-.897-.48-6.02.344-7.423 1.688-2.873 2.683.697 2.971 1.29.24.503 1.137.593 2.166.848-1.999 3.792-4.326 5.516-5.21 5.418a.386.386 0 01-.271-.133zM68.976 7.994s-.449.655 1.002 1.633c1.451.979 1.244.388 2.524-1.283 10.963-14.324 20.1-1.42 17.97 6.919a27.632 27.632 0 01-1.55 4.499c-.171-.336-.356-.666-.493-.932-.497-.962-2.272-2.771-4.412-3.125-1.18-.194-2.658-.293-3.778.674h-.01a.023.023 0 00-.007.016 3.71 3.71 0 00-.886 1.181 6.876 6.876 0 00-.438 1.135c-1.918 3.29-5.224 8.585-5.13 5.858a26.26 26.26 0 011.212-6.898c.813-2.02-.18-1.714-1.028-1.71-1.152.012-2.304.104-2.362.375-.848 4.075-6.067 11.284-5.92 6.937.063-1.92 1.486-7.255 1.039-7.83-.421-.55-2.033-1.353-2.615-1.41-.55-.254-1.06-.138-1.807 1.103-.657 1.085-2.549 5.59-4.085 8.448.53-3.277 1.25-7.897 1.303-9.072.078-1.874-1.8-2.377-2.567-2.67-1.441-.56-1.681-.849-3.187 1.151-.645.857-1.743 2.775-2.872 5.066.313-3.272-.383-3.386-1.685-3.825-.454-.155-1.112-.189-1.936 1.867-.17.415 1 .384 1 .384s-2.004 16.49-2.12 17.832c-.116 1.342.252 1.644 1.394 2.14.674.294 1.368.538 2.077.73 0 0-.65-7.104 2.416-14.922 1.459-3.717 3.591-5.806 4.467-6.937.299 2.497-1.613 8.747-1.947 10.148-.246 1.004.544 1.604 1.461 2.093 1.41.83 2.188 1.208 2.807.65.43-.387 2.62-5.583 4.456-9.247-.12 2.055-.374 4.407.408 6.605.444 1.24 2.015 1.998 3.009 2.249.834.207 2.528-.932 4.679-3.916-.307 1.81-.093 3.168 1.715 3.691 1.049.304 3.433-2.35 5.61-5.16.323 2.185 1.402 4.223 3.05 5.175 5.114 2.96 9.636-3.186 11.582-9.476 2.11-6.832-1.342-13.005-6.352-15.788A12.241 12.241 0 0082.352.88c-4.413-.474-9.366 1.486-13.376 7.115zM18.85 9.17c-3.7-.121-15.113 1.957-17.67 3.426-.76.435-1.012 1.001-.99 1.579.054 1.37 1.638 2.821 1.638 2.821s0-1.18 1.569-1.633c.35-.101 3.036-.719 6.326-1.465C9.128 18.25 8.51 25.7 8.3 28.114c-.235 2.668-.33 4.134 1.83 5.284 1.355.717 2.17.72 2.077.135-.35-2.183.875-13.646 1.813-20.607 4.607-1.037 8.109-1.984 8.348-2.034.469-.101-.99-1.468-3.102-1.694a5.217 5.217 0 00-.415-.03v.001zm92.628-5.359s-.852 1.723-1.296 4.156l.373.467s.524-.778 1.491-.921a.79.79 0 01.849.517c.247.675.29 1.973-1.6 3.732a1.077 1.077 0 01-.975.269 2.635 2.635 0 01-1.007-.468.201.201 0 00-.198-.026.197.197 0 00-.12.16l-.051.489s1.943 1.646 4.197-.188c2.253-1.833 2.158-3.208 2.158-3.208s-.129-2.16-3.441-2.334l.201-1.597s1.736-.487 3.3-.386a.953.953 0 00.75-.29c.309-.33.72-.834.722-1.198.005-.595-3.623-.076-5.353.826zm5.538 6.454s-1.036-.428-1.333 1.175c-.298 1.604 2.162.133 1.333-1.175zm2.213-3.025s-.223 3.977 1.223 3.905c1.549-.077 3.111-2.99 3.104-5.13-.005-1.46-2.505-1.567-3.547-.214 0 0-.986-.007-.894-.574.216-1.369 3.179-3.277 6.348-1.506 2.062 1.155-.457 8.382-5.256 8.398 0 0-1.924-.135-1.8-3.308 0 0-.059-1.329.822-1.57z" fill="#476FB2"/></svg>