<svg width="541" height="156" viewBox="0 0 541 156" fill="none" xmlns="http://www.w3.org/2000/svg">
<mask id="path-1-inside-1" fill="white">
<path d="M421.037 73.8096C424.937 67.0022 427.315 67.5239 430.277 71.6834C433.796 76.6333 435.442 84.1185 436.136 88.4538C429.067 99.5057 421.315 110.433 417.14 111.52C417.023 111.547 416.902 111.556 416.782 111.548C412.68 111.103 415.698 83.0929 421.037 73.8056V73.8096ZM528.354 61.9812C525.147 64.0915 479.29 115.367 475.249 115.474C468.41 115.628 468.354 81.1702 467.74 72.873C467.22 65.947 465.29 66.605 457.708 64.3899C455.803 63.8485 454.59 63.7141 453.789 63.7023C453.698 63.7023 453.592 63.7023 453.521 63.7023H453.432C452.954 63.7155 452.485 63.8314 452.056 64.0421C451.627 64.2528 451.248 64.5534 450.946 64.9234C449.592 66.5754 445.982 72.6121 441.556 79.8147C439.825 75.4833 436.317 68.0574 431.855 64.2457C427.311 60.347 413.544 57.3988 407.315 69.9761C396.621 91.6135 402.597 112.117 408.944 116.14C415.034 119.999 427.799 121.224 441.281 104.612C444.543 100.606 447.604 96.595 450.381 92.7912C452.702 105.21 456.34 116.766 460.741 119.833C466.533 123.886 476.023 128.642 494.072 107.977C512.121 87.3117 523.594 72.0292 529.123 67.3875C531.374 65.5004 532.18 63.9038 532.18 62.821C532.152 61.9219 531.547 61.3607 530.702 61.2639C530.018 61.1967 529.202 61.4101 528.362 61.9693L528.354 61.9812ZM74.4435 110.639C79.4409 85.472 87.1315 77.0641 91.1488 81.933C93.8243 85.1737 96.8476 90.6769 98.5707 93.9867C94.6364 101.442 94.0259 106.268 90.388 111.694C85.3176 119.284 79.1504 126.119 75.7754 125.765C73.2856 125.494 72.3233 121.307 74.4435 110.631V110.639ZM164.135 116.887C163.801 116.508 163.494 116.106 163.216 115.685C163.165 115.539 163.127 115.395 163.064 115.233C158.991 104.76 156.796 92.1352 156.215 79.2278C166.014 80.8086 179.532 81.3817 180.447 95.2889C181.326 108.617 168.84 117.659 164.973 117.252C164.658 117.24 164.359 117.109 164.135 116.887ZM177.364 9.90324C182.777 8.54967 186.375 23.2117 180.196 43.1122C174.045 62.8625 160.938 69.1284 156.041 71.6044C156.081 40.9939 164.661 13.0767 177.364 9.90324ZM144.815 34.9018C142.43 49.4868 142.922 63.3565 144.42 76.082C143.037 78.2793 141.533 81.3066 139.875 85.4147C127.49 115.666 124.417 116.438 124.417 116.438C124.417 116.438 123.824 91.7874 124.16 85.8099C124.496 79.8325 125.854 80.0281 125.854 80.0281C125.854 80.0281 127.952 78.4038 124.247 76.991C124.094 76.9313 123.935 76.8889 123.773 76.8645C120.532 75.6097 116.177 72.4086 112.826 72.9481C110.563 73.3176 107.362 78.0462 103.736 84.4287C99.8472 81.605 93.1485 77.3882 87.6967 76.9515C77.2495 76.1334 70.2702 76.8467 65.3222 94.2851C59.8269 113.567 63.0953 127.087 77.8522 131.015C90.8702 134.507 101.924 122.155 111.533 104.622C111.701 112.119 112.814 118.616 116.531 121.517C123.615 127.01 131.165 133.345 141.231 117.078C144.146 112.337 146.722 107.395 148.937 102.29C154.02 121.151 163.483 123.21 174.003 122.92C186.59 122.572 198.197 108.423 198.018 95.0755C197.846 82.8696 182.308 77.4474 164.091 75.3963C181.48 66.4884 193.066 57.4956 200.476 37.4371C209.364 13.4364 192.888 3.88627 178.981 1.56643C177.682 1.34248 176.43 1.16859 175.226 1.04476C157.391 -0.881853 149.416 7.04 144.815 34.9018ZM354.247 109.668C351.141 105.821 352.188 83.8497 355.725 77.8328C362.962 65.5123 367.232 80.8225 368.467 83.3656C369.498 85.5234 373.342 85.9107 377.754 87.0034C369.184 103.266 359.201 110.656 355.411 110.239C355.189 110.227 354.971 110.17 354.771 110.072C354.571 109.974 354.393 109.837 354.247 109.668ZM295.003 30.8036C295.003 30.8036 293.078 33.6075 299.3 37.8046C305.523 42.0017 304.636 39.4664 310.125 32.2994C357.14 -29.129 396.327 26.2093 387.19 61.9733C385.534 68.5835 383.311 75.0387 380.546 81.2671C379.807 79.8266 379.017 78.4137 378.43 77.2716C376.298 73.1437 368.686 65.3878 359.508 63.8683C354.443 63.0363 348.108 62.6115 343.304 66.7611H343.265C343.246 66.7786 343.235 66.8027 343.233 66.8283C341.64 68.2464 340.348 69.9691 339.431 71.8948C338.664 73.458 338.036 75.086 337.556 76.7598C329.33 90.8705 315.148 113.579 315.557 101.885C315.96 91.8361 317.707 81.8867 320.752 72.3019C324.24 63.6351 319.979 64.9511 316.342 64.9709C311.401 65.0183 306.461 65.4155 306.212 66.5754C302.575 84.0513 280.194 114.97 280.821 96.3243C281.095 88.0942 287.195 65.2139 285.281 62.7459C283.474 60.3865 276.562 56.9443 274.067 56.7012C271.709 55.6105 269.522 56.1084 266.315 61.4298C263.499 66.0834 255.385 85.4049 248.797 97.6601C251.07 83.6067 254.16 63.7912 254.384 58.7523C254.719 50.7159 246.665 48.5581 243.375 47.3013C237.196 44.9044 236.167 43.6635 229.709 52.2414C226.943 55.9168 222.232 64.139 217.391 73.9637C218.734 59.934 215.75 59.4459 210.164 57.5628C208.218 56.8969 205.398 56.7506 201.865 65.5696C201.136 67.348 206.151 67.2156 206.151 67.2156C206.151 67.2156 197.559 137.931 197.061 143.687C196.563 149.444 198.14 150.74 203.037 152.866C205.927 154.125 208.905 155.173 211.947 156C211.947 156 209.158 125.53 222.307 92.0008C228.563 76.0622 237.708 67.103 241.462 62.2538C242.745 72.9599 234.546 99.7665 233.114 105.774C232.06 110.077 235.447 112.65 239.382 114.749C245.424 118.306 248.762 119.93 251.419 117.533C253.259 115.879 262.651 93.5954 270.526 77.8802C270.01 86.6932 268.925 96.7788 272.276 106.208C274.179 111.528 280.917 114.776 285.182 115.851C288.758 116.741 296.022 111.856 305.246 99.0552C303.93 106.821 304.851 112.644 312.605 114.887C317.1 116.191 327.324 104.809 336.665 92.7556C338.048 102.128 342.676 110.87 349.738 114.95C371.672 127.648 391.069 101.286 399.413 74.3135C408.463 45.0111 393.655 18.5384 372.17 6.6033C366.055 3.20071 359.322 1.05486 352.366 0.291901C333.44 -1.73944 312.2 6.66258 295.003 30.8036ZM80.0337 35.8404C64.1663 35.3207 15.2204 44.2346 4.25149 50.5321C0.99304 52.3975 -0.0838891 54.826 0.00503159 57.3039C0.240178 63.1826 7.03372 69.4031 7.03372 69.4031C7.03372 69.4031 7.03372 64.3445 13.7621 62.3981C15.2599 61.9653 26.784 59.3155 40.8928 56.1144C38.3397 74.7857 35.6879 106.74 34.7829 117.086C33.7771 128.529 33.3681 134.815 42.6356 139.747C48.4451 142.824 51.9367 142.832 51.5395 140.326C50.0397 130.966 55.294 81.8065 59.3132 51.9529C79.0733 47.5029 94.0911 43.4441 95.1186 43.2307C97.1262 42.794 90.8702 36.9351 81.8121 35.9629C81.2193 35.8958 80.6265 35.8562 80.0337 35.8365V35.8404Z"/>
</mask>
<path d="M421.037 73.8096C424.937 67.0022 427.315 67.5239 430.277 71.6834C433.796 76.6333 435.442 84.1185 436.136 88.4538C429.067 99.5057 421.315 110.433 417.14 111.52C417.023 111.547 416.902 111.556 416.782 111.548C412.68 111.103 415.698 83.0929 421.037 73.8056V73.8096ZM528.354 61.9812C525.147 64.0915 479.29 115.367 475.249 115.474C468.41 115.628 468.354 81.1702 467.74 72.873C467.22 65.947 465.29 66.605 457.708 64.3899C455.803 63.8485 454.59 63.7141 453.789 63.7023C453.698 63.7023 453.592 63.7023 453.521 63.7023H453.432C452.954 63.7155 452.485 63.8314 452.056 64.0421C451.627 64.2528 451.248 64.5534 450.946 64.9234C449.592 66.5754 445.982 72.6121 441.556 79.8147C439.825 75.4833 436.317 68.0574 431.855 64.2457C427.311 60.347 413.544 57.3988 407.315 69.9761C396.621 91.6135 402.597 112.117 408.944 116.14C415.034 119.999 427.799 121.224 441.281 104.612C444.543 100.606 447.604 96.595 450.381 92.7912C452.702 105.21 456.34 116.766 460.741 119.833C466.533 123.886 476.023 128.642 494.072 107.977C512.121 87.3117 523.594 72.0292 529.123 67.3875C531.374 65.5004 532.18 63.9038 532.18 62.821C532.152 61.9219 531.547 61.3607 530.702 61.2639C530.018 61.1967 529.202 61.4101 528.362 61.9693L528.354 61.9812ZM74.4435 110.639C79.4409 85.472 87.1315 77.0641 91.1488 81.933C93.8243 85.1737 96.8476 90.6769 98.5707 93.9867C94.6364 101.442 94.0259 106.268 90.388 111.694C85.3176 119.284 79.1504 126.119 75.7754 125.765C73.2856 125.494 72.3233 121.307 74.4435 110.631V110.639ZM164.135 116.887C163.801 116.508 163.494 116.106 163.216 115.685C163.165 115.539 163.127 115.395 163.064 115.233C158.991 104.76 156.796 92.1352 156.215 79.2278C166.014 80.8086 179.532 81.3817 180.447 95.2889C181.326 108.617 168.84 117.659 164.973 117.252C164.658 117.24 164.359 117.109 164.135 116.887ZM177.364 9.90324C182.777 8.54967 186.375 23.2117 180.196 43.1122C174.045 62.8625 160.938 69.1284 156.041 71.6044C156.081 40.9939 164.661 13.0767 177.364 9.90324ZM144.815 34.9018C142.43 49.4868 142.922 63.3565 144.42 76.082C143.037 78.2793 141.533 81.3066 139.875 85.4147C127.49 115.666 124.417 116.438 124.417 116.438C124.417 116.438 123.824 91.7874 124.16 85.8099C124.496 79.8325 125.854 80.0281 125.854 80.0281C125.854 80.0281 127.952 78.4038 124.247 76.991C124.094 76.9313 123.935 76.8889 123.773 76.8645C120.532 75.6097 116.177 72.4086 112.826 72.9481C110.563 73.3176 107.362 78.0462 103.736 84.4287C99.8472 81.605 93.1485 77.3882 87.6967 76.9515C77.2495 76.1334 70.2702 76.8467 65.3222 94.2851C59.8269 113.567 63.0953 127.087 77.8522 131.015C90.8702 134.507 101.924 122.155 111.533 104.622C111.701 112.119 112.814 118.616 116.531 121.517C123.615 127.01 131.165 133.345 141.231 117.078C144.146 112.337 146.722 107.395 148.937 102.29C154.02 121.151 163.483 123.21 174.003 122.92C186.59 122.572 198.197 108.423 198.018 95.0755C197.846 82.8696 182.308 77.4474 164.091 75.3963C181.48 66.4884 193.066 57.4956 200.476 37.4371C209.364 13.4364 192.888 3.88627 178.981 1.56643C177.682 1.34248 176.43 1.16859 175.226 1.04476C157.391 -0.881853 149.416 7.04 144.815 34.9018ZM354.247 109.668C351.141 105.821 352.188 83.8497 355.725 77.8328C362.962 65.5123 367.232 80.8225 368.467 83.3656C369.498 85.5234 373.342 85.9107 377.754 87.0034C369.184 103.266 359.201 110.656 355.411 110.239C355.189 110.227 354.971 110.17 354.771 110.072C354.571 109.974 354.393 109.837 354.247 109.668ZM295.003 30.8036C295.003 30.8036 293.078 33.6075 299.3 37.8046C305.523 42.0017 304.636 39.4664 310.125 32.2994C357.14 -29.129 396.327 26.2093 387.19 61.9733C385.534 68.5835 383.311 75.0387 380.546 81.2671C379.807 79.8266 379.017 78.4137 378.43 77.2716C376.298 73.1437 368.686 65.3878 359.508 63.8683C354.443 63.0363 348.108 62.6115 343.304 66.7611H343.265C343.246 66.7786 343.235 66.8027 343.233 66.8283C341.64 68.2464 340.348 69.9691 339.431 71.8948C338.664 73.458 338.036 75.086 337.556 76.7598C329.33 90.8705 315.148 113.579 315.557 101.885C315.96 91.8361 317.707 81.8867 320.752 72.3019C324.24 63.6351 319.979 64.9511 316.342 64.9709C311.401 65.0183 306.461 65.4155 306.212 66.5754C302.575 84.0513 280.194 114.97 280.821 96.3243C281.095 88.0942 287.195 65.2139 285.281 62.7459C283.474 60.3865 276.562 56.9443 274.067 56.7012C271.709 55.6105 269.522 56.1084 266.315 61.4298C263.499 66.0834 255.385 85.4049 248.797 97.6601C251.07 83.6067 254.16 63.7912 254.384 58.7523C254.719 50.7159 246.665 48.5581 243.375 47.3013C237.196 44.9044 236.167 43.6635 229.709 52.2414C226.943 55.9168 222.232 64.139 217.391 73.9637C218.734 59.934 215.75 59.4459 210.164 57.5628C208.218 56.8969 205.398 56.7506 201.865 65.5696C201.136 67.348 206.151 67.2156 206.151 67.2156C206.151 67.2156 197.559 137.931 197.061 143.687C196.563 149.444 198.14 150.74 203.037 152.866C205.927 154.125 208.905 155.173 211.947 156C211.947 156 209.158 125.53 222.307 92.0008C228.563 76.0622 237.708 67.103 241.462 62.2538C242.745 72.9599 234.546 99.7665 233.114 105.774C232.06 110.077 235.447 112.65 239.382 114.749C245.424 118.306 248.762 119.93 251.419 117.533C253.259 115.879 262.651 93.5954 270.526 77.8802C270.01 86.6932 268.925 96.7788 272.276 106.208C274.179 111.528 280.917 114.776 285.182 115.851C288.758 116.741 296.022 111.856 305.246 99.0552C303.93 106.821 304.851 112.644 312.605 114.887C317.1 116.191 327.324 104.809 336.665 92.7556C338.048 102.128 342.676 110.87 349.738 114.95C371.672 127.648 391.069 101.286 399.413 74.3135C408.463 45.0111 393.655 18.5384 372.17 6.6033C366.055 3.20071 359.322 1.05486 352.366 0.291901C333.44 -1.73944 312.2 6.66258 295.003 30.8036ZM80.0337 35.8404C64.1663 35.3207 15.2204 44.2346 4.25149 50.5321C0.99304 52.3975 -0.0838891 54.826 0.00503159 57.3039C0.240178 63.1826 7.03372 69.4031 7.03372 69.4031C7.03372 69.4031 7.03372 64.3445 13.7621 62.3981C15.2599 61.9653 26.784 59.3155 40.8928 56.1144C38.3397 74.7857 35.6879 106.74 34.7829 117.086C33.7771 128.529 33.3681 134.815 42.6356 139.747C48.4451 142.824 51.9367 142.832 51.5395 140.326C50.0397 130.966 55.294 81.8065 59.3132 51.9529C79.0733 47.5029 94.0911 43.4441 95.1186 43.2307C97.1262 42.794 90.8702 36.9351 81.8121 35.9629C81.2193 35.8958 80.6265 35.8562 80.0337 35.8365V35.8404Z" stroke="white" stroke-width="0.708333" mask="url(#path-1-inside-1)"/>
<path d="M478.927 24.0292L479.766 17.3565M478.927 24.0292L471.718 30.6847C473.621 20.2513 477.276 12.863 477.276 12.863C484.696 8.99397 500.253 6.76898 500.232 9.31804C500.222 10.8791 498.459 13.0448 497.137 14.4557M478.927 24.0292C478.922 24.029 478.918 24.0287 478.914 24.0285L478.905 24.2053L479.08 24.2274L479.082 24.2151C493.113 25.0256 493.661 34.2139 493.661 34.2139M478.927 24.0292L477.435 12.9416L477.435 12.9418L477.434 12.9427L477.433 12.9465L477.425 12.9622L477.41 12.9931M479.766 17.3565C479.766 17.3565 487.214 15.2698 493.92 15.7026C494.515 15.7409 495.111 15.6493 495.666 15.4339C496.222 15.2186 496.724 14.8848 497.137 14.4557M479.766 17.3565L479.718 17.186L479.605 17.2177L479.59 17.3344L478.729 24.1832L478.705 24.3722L478.895 24.3822C485.955 24.7515 489.594 27.2352 491.471 29.5984C492.412 30.7828 492.915 31.9437 493.184 32.8071C493.318 33.2388 493.394 33.5958 493.435 33.8437C493.456 33.9676 493.469 34.0642 493.476 34.1291C493.477 34.1423 493.478 34.1542 493.479 34.1648C493.481 34.1801 493.482 34.1926 493.483 34.2021L493.484 34.2198L493.485 34.2238L493.485 34.2244L493.661 34.2139M479.766 17.3565C479.718 17.186 479.718 17.1859 479.718 17.1859L479.719 17.1858L479.72 17.1855L479.724 17.1843L479.741 17.1798L479.805 17.1622C479.862 17.1469 479.946 17.1245 480.055 17.0962C480.273 17.0397 480.591 16.9596 480.994 16.8648C481.8 16.6753 482.944 16.4272 484.298 16.1927C487.005 15.7241 490.559 15.3082 493.932 15.5258C494.501 15.5626 495.071 15.4749 495.602 15.2688C496.133 15.0629 496.613 14.7438 497.009 14.3337M497.137 14.4557L497.008 14.3346C497.008 14.3343 497.009 14.334 497.009 14.3337M497.137 14.4557L497.01 14.3328C497.009 14.3331 497.009 14.3334 497.009 14.3337M471.906 30.6372L473.312 32.3968C473.382 32.3052 473.478 32.1845 473.599 32.0423C473.88 31.7139 474.296 31.2704 474.845 30.8075C475.941 29.8822 477.569 28.8747 479.685 28.5612L479.687 28.5608L479.687 28.5609C480.496 28.4518 481.319 28.624 482.016 29.0487C482.714 29.4733 483.244 30.1245 483.519 30.8934C484.061 32.3761 484.374 34.531 483.527 37.2666C482.681 39.9999 480.68 43.3016 476.613 47.0882M471.906 30.6372L476.492 46.9592M471.906 30.6372C472.855 25.4667 474.234 21.0503 475.377 17.9221C475.951 16.3502 476.467 15.1039 476.838 14.2511C477.023 13.8248 477.173 13.4968 477.276 13.2757C477.328 13.1651 477.367 13.0813 477.394 13.0253L477.41 12.9931M471.906 30.6372L477.41 12.9931M476.613 47.0882C476.613 47.0884 476.613 47.0886 476.613 47.0888L476.492 46.9592M476.613 47.0882C476.613 47.0881 476.613 47.0879 476.614 47.0878L476.492 46.9592M476.613 47.0882C476.043 47.628 475.349 48.0195 474.592 48.2283C473.835 48.4373 473.038 48.4571 472.272 48.286L472.272 48.2859C470.681 47.9273 469.185 47.2334 467.884 46.2508L467.882 46.2493C467.788 46.1761 467.676 46.1293 467.558 46.1135C467.44 46.0978 467.32 46.1137 467.21 46.1597L467.142 45.9963M476.492 46.9592C475.943 47.4792 475.274 47.8564 474.545 48.0576C473.816 48.2589 473.049 48.2779 472.311 48.1132C470.745 47.7601 469.272 47.077 467.991 46.1095C467.872 46.0171 467.731 45.9579 467.582 45.938C467.432 45.9181 467.28 45.9382 467.142 45.9963M467.142 45.9963L467.21 46.1597C467.1 46.2057 467.004 46.2801 466.932 46.3753C466.861 46.4701 466.816 46.5823 466.802 46.7002L466.802 46.699L466.626 46.6806M467.142 45.9963C467.003 46.0544 466.882 46.1484 466.791 46.2686C466.7 46.3889 466.643 46.531 466.626 46.6806M493.661 34.2139C493.485 34.2261 493.485 34.226 493.485 34.2259L493.485 34.2258L493.485 34.2246C493.485 34.2245 493.485 34.2244 493.661 34.2139ZM493.661 34.2139L493.485 34.2261L493.485 34.228L493.485 34.2385C493.486 34.2432 493.486 34.2493 493.486 34.2566C493.486 34.2644 493.486 34.2737 493.487 34.2845C493.487 34.3263 493.487 34.3901 493.483 34.4749C493.476 34.6445 493.455 34.8984 493.4 35.2289C493.289 35.8899 493.043 36.858 492.496 38.0725C491.403 40.5009 489.108 43.9199 484.294 47.8375C479.508 51.7317 475.066 51.9244 471.823 51.1539C470.197 50.7678 468.87 50.1387 467.948 49.6061C467.488 49.3399 467.129 49.0981 466.887 48.9234C466.765 48.8361 466.673 48.7655 466.612 48.7172C466.605 48.7119 466.598 48.7068 466.592 48.702M493.661 34.2139C493.661 34.2139 494.07 40.1103 484.406 47.9748C474.741 55.8394 466.406 48.7791 466.406 48.7791M497.009 14.3337C497.667 13.6317 498.43 12.746 499.029 11.8451C499.633 10.9364 500.05 10.0421 500.055 9.31692V9.31653C500.056 9.11107 499.907 8.91158 499.49 8.74418C499.079 8.57932 498.467 8.47361 497.687 8.42927C496.133 8.34084 493.972 8.49906 491.571 8.85887C486.789 9.57531 481.097 11.0841 477.41 12.9931M466.592 48.702L466.801 46.7013L466.626 46.6806M466.592 48.702L466.582 48.7975L466.406 48.7791M466.592 48.702C466.571 48.6851 466.554 48.6716 466.542 48.6619L466.526 48.648L466.522 48.6447L466.521 48.644L466.521 48.6439L466.406 48.7791M466.626 46.6806L466.406 48.7791M473.318 32.6884C473.318 32.6884 473.354 32.6346 473.426 32.5395L473.203 32.5441L473.318 32.6884Z" stroke="white" stroke-width="0.354167"/>
<path d="M500.782 40.6458C500.836 40.6616 500.878 40.6758 500.908 40.6863C501.732 42.0204 501.734 43.3885 501.287 44.6013C500.832 45.835 499.912 46.9066 498.92 47.5981C498.425 47.9435 497.917 48.1902 497.447 48.3161C496.976 48.4425 496.556 48.444 496.226 48.3176C495.902 48.1939 495.644 47.9407 495.5 47.5119C495.354 47.0764 495.325 46.4561 495.482 45.6127C496.112 42.2154 497.511 41.0254 498.699 40.6512C499.301 40.4614 499.868 40.4749 500.286 40.537C500.495 40.568 500.665 40.6109 500.782 40.6458Z" stroke="white" stroke-width="0.354167"/>
<path d="M529.252 22.3099V22.3098C529.246 20.6884 528.545 19.436 527.426 18.5719C526.312 17.7117 524.792 17.2411 523.146 17.1535C519.883 16.98 516.059 18.3089 513.775 21.2143C513.75 21.2135 513.721 21.2123 513.688 21.2107C513.576 21.2052 513.415 21.1948 513.224 21.1749C512.841 21.1348 512.337 21.0568 511.849 20.906C511.357 20.7542 510.898 20.5339 510.586 20.2194C510.282 19.9129 510.113 19.5116 510.201 18.9636L510.201 18.9631C510.425 17.5469 511.366 15.9677 512.884 14.5092C514.399 13.0533 516.477 11.7299 518.952 10.8226C523.898 9.00903 530.418 8.86016 537.165 12.6303C539.287 13.8187 540.268 16.5948 540.178 20.1783C540.088 23.7503 538.932 28.0658 536.857 32.2361C532.705 40.5815 524.909 48.2765 514.716 48.3136L514.703 48.3123C514.689 48.311 514.667 48.3087 514.639 48.3051C514.582 48.298 514.497 48.2857 514.389 48.2652C514.172 48.2242 513.86 48.1506 513.487 48.0204C512.741 47.7599 511.748 47.2736 510.771 46.3701C508.823 44.568 506.905 41.0766 507.17 34.3098L507.17 34.3024L507.17 34.2951L507.17 34.295L507.17 34.295L507.17 34.2944L507.17 34.2918L507.169 34.2805C507.169 34.2704 507.169 34.255 507.168 34.2347C507.167 34.1941 507.166 34.1339 507.167 34.0566C507.167 33.9019 507.172 33.679 507.189 33.4079C507.224 32.8651 507.309 32.1327 507.51 31.3701C507.896 29.9053 508.693 28.3769 510.33 27.814C510.324 27.9355 510.318 28.0983 510.312 28.2973C510.298 28.7647 510.285 29.4316 510.289 30.2308C510.296 31.8285 510.37 33.9581 510.64 36.0799C510.908 38.1982 511.373 40.3246 512.169 41.9069C512.965 43.4893 514.119 44.5724 515.771 44.4902C517.486 44.4051 519.187 43.5366 520.766 42.1604C522.346 40.7832 523.817 38.8868 525.074 36.719C527.588 32.3853 529.267 26.9365 529.252 22.3099Z" stroke="white" stroke-width="0.354167"/>
</svg>
