<svg width="231" height="208" viewBox="0 0 231 208" fill="none" xmlns="http://www.w3.org/2000/svg">
<g clip-path="url(#clip0)">
<path d="M9.72321 66.3317L88.8736 100.072L173.097 57.8259L130.794 141.936L164.579 220.981L231 0L9.72321 66.3317Z" fill="#FFE566"/>
<path d="M67.9531 172.43L58.3838 162.873L0.0492987 221.13L9.61865 230.686L67.9531 172.43Z" fill="#66CCFF"/>
<path d="M58.2773 124.74L48.708 115.184L0.861203 162.966L10.4306 172.523L58.2773 124.74Z" fill="#59ABFF"/>
<path d="M115.703 182.076L106.134 172.52L58.287 220.302L67.8563 229.859L115.703 182.076Z" fill="#66CCFF"/>
<path d="M63.168 167.65L58.3833 162.872L0.0488153 221.129L4.83349 225.907L63.168 167.65Z" fill="#59ABFF"/>
<path d="M88.8736 100.072L9.72321 66.3317L231 0L173.097 57.8259L88.8736 100.072Z" fill="#FFBE40"/>
<path d="M88.8723 100.073L78.3446 152.451L130.792 141.937L220.949 10.0371L88.8723 100.073Z" fill="#FFBE40"/>
<path d="M88.8723 100.073L220.949 10.0371L78.3446 152.451L88.8723 100.073Z" fill="#FF9F40"/>
</g>
<defs>
<clipPath id="clip0">
<rect width="231" height="208" fill="white" transform="matrix(-1 0 0 1 231 0)"/>
</clipPath>
</defs>
</svg>
