<svg width="112" height="96" fill="none" xmlns="http://www.w3.org/2000/svg"><path d="M105.333 10H38.667A6.914 6.914 0 0032 16.667v46.666A6.914 6.914 0 0038.667 70h66.666A6.914 6.914 0 00112 63.333V16.667A6.912 6.912 0 00105.333 10zm0 53.333H38.667V16.667h66.666v46.666zm-26.666-6.666V52.5c0-5.533-11.134-8.333-16.667-8.333-5.533 0-16.667 2.8-16.667 8.333v4.167h33.334zM62 23.333A8.334 8.334 0 1062 40a8.334 8.334 0 000-16.667zm16.667 0v3.334h20v-3.334h-20zm0 6.667v3.333h20V30h-20zm0 6.667V40H92v-3.333H78.667z" fill="#FFD100"/><path d="M64 87.155l-.035-.03.035-.04-.902-.763-6.306-5.8s-.111.115-.294.285l-.167.181c-1.438 1.33-6.048 5.179-11.458 5.254h-.35c-2.846-.306-5.622-1.822-8.438-4.627-4.675-4.676-9.877-7.2-15.474-7.536h-.466a20.487 20.487 0 00-2.533-.066c-8.429.342-14.69 5.941-16.817 8.1-.456.406-.73.697-.79.747l.03.03a.175.175 0 01-.035.045l.902.753 6.306 5.805.294-.29.167-.181c1.433-1.335 6.048-5.184 11.458-5.254h.344c2.852.306 5.622 1.822 8.439 4.626 4.68 4.657 9.872 7.181 15.47 7.527h.465c.842.075 1.688.096 2.533.066 8.428-.342 14.69-5.937 16.817-8.094.44-.422.719-.708.775-.768" fill="#EFC825"/></svg>