<svg width="112" height="97" fill="none" xmlns="http://www.w3.org/2000/svg"><path d="M72.5 22h-65A7.5 7.5 0 000 29.5v55A7.5 7.5 0 007.5 92h65a7.5 7.5 0 007.5-7.5v-55a7.5 7.5 0 00-7.5-7.5zm-.938 62.5H8.438a.938.938 0 01-.938-.938V30.438a.937.937 0 01.938-.938h63.124a.938.938 0 01.938.938v53.124a.938.938 0 01-.938.938zM65 70.125v3.75c0 1.035-.84 1.875-1.875 1.875h-31.25A1.875 1.875 0 0130 73.875v-3.75c0-1.035.84-1.875 1.875-1.875h31.25c1.035 0 1.875.84 1.875 1.875zm0-15v3.75c0 1.035-.84 1.875-1.875 1.875h-31.25A1.875 1.875 0 0130 58.875v-3.75c0-1.035.84-1.875 1.875-1.875h31.25c1.035 0 1.875.84 1.875 1.875zm0-15v3.75c0 1.035-.84 1.875-1.875 1.875h-31.25A1.875 1.875 0 0130 43.875v-3.75c0-1.035.84-1.875 1.875-1.875h31.25c1.035 0 1.875.84 1.875 1.875zM25.625 42a5.625 5.625 0 11-11.25 0 5.625 5.625 0 0111.25 0zm0 15a5.625 5.625 0 11-11.25 0 5.625 5.625 0 0111.25 0zm0 15a5.625 5.625 0 11-11.25 0 5.625 5.625 0 0111.25 0z" fill="#FFD100"/><path d="M112 13.155l-.035-.03.035-.04-.902-.763-6.306-5.8s-.111.115-.294.286l-.167.18c-1.438 1.33-6.048 5.179-11.457 5.254h-.35c-2.847-.306-5.623-1.822-8.439-4.627C79.41 2.94 74.208.415 68.611.08h-.466a20.499 20.499 0 00-2.533-.066c-8.429.342-14.69 5.941-16.817 8.1-.456.406-.73.697-.79.747l.03.03a.178.178 0 01-.035.045l.902.753 6.306 5.805.294-.29.167-.181c1.433-1.335 6.048-5.184 11.458-5.254h.344c2.852.306 5.623 1.821 8.439 4.627 4.68 4.656 9.872 7.18 15.47 7.526h.465c.842.075 1.688.096 2.533.066 8.428-.342 14.689-5.937 16.817-8.094.44-.422.719-.708.775-.768" fill="#EFC825"/></svg>