<svg width="93" height="123" fill="none" xmlns="http://www.w3.org/2000/svg"><path d="M65.484 62.687v11.47H27.516v-11.47l6.328-1.187V42.516h25.312V61.5l6.328 1.187z" fill="#FEC9A3"/><path d="M92.906 78.33v35.904H.094V78.333a12.656 12.656 0 0110.322-12.44L33.844 61.5 46.5 65.719 59.156 61.5l23.428 4.393A12.644 12.644 0 0192.906 78.33z" fill="#4D5E78"/><path d="M92.907 78.33v35.904H31.506c22.19-10.459 41.87-25.578 55.384-46.68a12.658 12.658 0 016.017 10.776z" fill="#44546C"/><path d="M33.844 61.5L46.5 110.016l12.656-48.517L46.5 65.72 33.844 61.5z" fill="#B0B0AE"/><path d="M59.156 61.5L46.5 65.718l9.56 7.648L59.156 61.5zM46.5 65.719L33.844 61.5l3.096 11.867 9.56-7.648z" fill="#E0E0DE"/><path d="M50.719 93.844v-24.75L46.5 65.719l-4.219 3.375v24.75l4.219 16.172 4.219-16.172z" fill="#348FD9"/><path d="M29.625 80.484l-2.11 8.438L46.5 110.016 33.844 61.5l-8.438 1.582-6.328 15.293 10.547 2.11zm33.75 0l2.11 8.438L46.5 110.016 59.156 61.5l8.438 1.582 6.328 15.293-10.547 2.11z" fill="#556A8A"/><path d="M16.969 86.813h4.218v25.312H16.97V86.812zm54.844 0h4.218v25.312h-4.219V86.812z" fill="#313B4C"/><path d="M80.25 91.031h12.656v18.985l-10.547-.001-12.698 1.814-2.067-14.47 12.656-6.328z" fill="#FEC9A3"/><path d="M57.79 97.971l2.424 15.757-41.136 8.944H6.422a6.328 6.328 0 01-6.328-6.328v-14.766l57.696-3.607z" fill="#404F66"/><path d="M69.66 111.829l-2.067.296-7.38 1.603-2.424-15.757 9.804-.612 2.067 14.47z" fill="#E0E0DE"/><path d="M12.75 91.031H.094v18.985l10.547-.001 12.698 1.814 2.067-14.47-12.656-6.328z" fill="#FEC9A3"/><path d="M39.806 98.258l-1.194 16.738-13.205-2.871-2.067-.295 2.067-14.47 14.4.898z" fill="#E0E0DE"/><path d="M35.21 97.972l-1.366 18.372 40.078 6.328h12.656a6.328 6.328 0 006.328-6.328v-14.766L35.21 97.972z" fill="#4D5E78"/><path d="M42.281 107.906H46.5v4.219h-4.219v-4.219zm8.438 0h4.218v4.219H50.72v-4.219z" fill="#313B4C"/><path d="M59.156 54.53V42.516H33.844V54.53a18.902 18.902 0 0025.312 0zm6.328-33.108v12.656a6.328 6.328 0 100-12.656zm-37.862 0h-.106a6.328 6.328 0 10-.001 12.656V21.422h.107z" fill="#FEB784"/><path d="M65.484 19.313v16.875a18.987 18.987 0 01-18.868 18.984H46.5a18.986 18.986 0 01-18.984-18.984V19.311c0-10.483 8.5-16.875 18.984-16.875h.116c5.197.024 9.898 1.62 13.307 4.507 3.436 2.908 5.561 7.127 5.561 12.369z" fill="#FEC9A3"/><path d="M65.484 19.313v16.875a18.987 18.987 0 01-18.869 18.984 21.959 21.959 0 009.081-17.803V20.238a21.953 21.953 0 00-9.08-17.8c5.196.023 9.898 1.618 13.307 4.506 3.435 2.908 5.56 7.127 5.56 12.369z" fill="#FEC093"/><path d="M37.008 27.75a3.164 3.164 0 100-6.328 3.164 3.164 0 000 6.328zm18.984 0a3.164 3.164 0 100-6.328 3.164 3.164 0 000 6.328z" fill="#7A432A"/><path d="M44.098 40.406h-3.926v-4.218h3.926c2.888 0 5.683-.664 7.667-1.821l2.126 3.641c-2.65 1.547-6.125 2.398-9.793 2.398z" fill="#F7A468"/><path d="M65.484 25.64v-8.437c0-6.99-4.722-12.656-10.546-12.656l.37 1.336c2.069 7.444 5.552 14.209 10.176 19.758zm-37.968 0V11.136a6.79 6.79 0 018.437-6.588v6.328s-3.813 9.217-8.437 14.766z" fill="#6E3C24"/><path d="M35.953 10.875h29.531A10.546 10.546 0 0054.938.328h-8.8a14.403 14.403 0 00-10.185 4.219v6.328z" fill="#7A432A"/><path d="M47.971.328l-8.184 10.547h5.342L53.313.328h-5.342zM62.803 3.91a10.52 10.52 0 00-3.409-2.563l-9.697 9.528h6.018l7.088-6.965z" fill="#6E3C24"/></svg>