<svg width="112" height="103" fill="none" xmlns="http://www.w3.org/2000/svg"><path d="M0 23h80v6.667H0V23zm3.336 56.667A3.333 3.333 0 006.669 83h30v6.667h-6.666v6.666h20v-6.666h-6.667V83h30a3.334 3.334 0 003.333-3.333V33H3.336v46.667zm23.333-10a13.283 13.283 0 01-5.375-1.133L27.613 58h12.282A13.333 13.333 0 0126.67 69.667zm26.667 6.666a3.334 3.334 0 110-6.668 3.334 3.334 0 010 6.668zm10 0a3.334 3.334 0 110-6.668 3.334 3.334 0 010 6.668zm3.333-10H53.336v-6.666h13.333v6.666zm0-10H50.003v-6.666h16.666v6.666zm-20-16.666h20v6.666h-20v-6.666zm-3.333 30a3.334 3.334 0 110 6.667 3.334 3.334 0 010-6.667zM26.669 43a13.333 13.333 0 0113.226 11.667H27.36l-8.864-8.864A13.27 13.27 0 0126.669 43zm-10.53 5.16l8.431 8.432-6.134 10.225a13.323 13.323 0 01-2.297-18.657z" fill="#FFD100"/><path d="M112 13.155l-.035-.03.035-.04-.902-.763-6.306-5.8s-.111.115-.294.286l-.167.18c-1.438 1.33-6.048 5.179-11.457 5.254h-.35c-2.847-.306-5.623-1.822-8.439-4.627C79.41 2.94 74.208.415 68.611.08h-.466a20.499 20.499 0 00-2.533-.066c-8.429.342-14.69 5.941-16.817 8.1-.456.406-.73.697-.79.747l.03.03a.178.178 0 01-.035.045l.902.753 6.306 5.805.294-.29.167-.181c1.433-1.335 6.048-5.184 11.458-5.254h.344c2.852.306 5.623 1.821 8.439 4.627 4.68 4.656 9.872 7.18 15.47 7.526h.465c.842.075 1.688.096 2.533.066 8.428-.342 14.689-5.937 16.817-8.094.44-.422.719-.708.775-.768" fill="#EFC825"/></svg>