<svg width="101" height="107" fill="none" xmlns="http://www.w3.org/2000/svg"><g clip-path="url(#clip0)" fill="#FFD100"><path d="M53.727 23.538c0 5.978 11.89 9.107 23.636 9.107 11.746 0 23.636-3.129 23.636-9.107 0-11.956-47.272-11.956-47.272 0z"/><path d="M100.122 32.358a1.822 1.822 0 00-1.784-.055c-4.897 2.569-12.346 3.985-20.975 3.985-8.63 0-16.078-1.416-20.975-3.985a1.82 1.82 0 00-2.662 1.613v.55c0 5.978 11.892 9.107 23.637 9.107 11.746 0 23.636-3.129 23.636-9.107v-.55a1.82 1.82 0 00-.877-1.558zM31.91 59.965c0 5.978 11.891 9.107 23.637 9.107 11.745 0 23.636-3.129 23.636-9.107 0-11.956-47.273-11.956-47.273 0z"/><path d="M78.306 68.786a1.827 1.827 0 00-1.785-.055c-4.897 2.568-12.345 3.984-20.974 3.984-8.63 0-16.078-1.416-20.975-3.984a1.82 1.82 0 00-2.662 1.613v.55C31.91 76.87 43.801 80 55.547 80c11.745 0 23.636-3.129 23.636-9.107v-.55a1.82 1.82 0 00-.877-1.557zm-33.67-50.712a63.83 63.83 0 007.3-.415 1.819 1.819 0 001.039-.482c2.753-2.596 7.459-4.512 13.606-5.538a1.818 1.818 0 001.413-1.183 4.366 4.366 0 00.279-1.489C68.273-2.989 21-2.989 21 8.967c0 5.978 11.89 9.107 23.636 9.107zm0 10.928a66.49 66.49 0 004.397-.146 1.82 1.82 0 001.584-2.453 8.05 8.05 0 01-.517-2.963 1.82 1.82 0 00-.565-1.318c-.358-.343-.864-.551-1.34-.502a74.456 74.456 0 01-3.559.096c-8.629 0-16.077-1.415-20.974-3.984A1.82 1.82 0 0021 19.346v.55c0 5.977 11.89 9.106 23.636 9.106zm0 10.928a66.04 66.04 0 004.397-.146 1.82 1.82 0 001.584-2.453 8.24 8.24 0 01-.526-2.963 1.82 1.82 0 00-.565-1.318c-.358-.343-.855-.539-1.34-.501a73.888 73.888 0 01-3.55.096c-8.629 0-16.077-1.416-20.974-3.985A1.82 1.82 0 0021 30.273v.55c0 5.978 11.89 9.107 23.636 9.107zm55.488 14.285a1.809 1.809 0 00-1.784-.055c-3.422 1.794-8.236 3.048-13.919 3.623-.959.098-1.642 1.218-1.602 2.182 0 .923-.149 1.806-.454 2.693a1.82 1.82 0 001.914 2.405c10.47-1.131 16.722-4.399 16.722-8.74v-.55a1.82 1.82 0 00-.877-1.558zm-44.579-6.999l1.205.02h.032a1.822 1.822 0 00.753-3.48l-.389-.173c-.259-.114-.52-.227-.761-.354a1.819 1.819 0 00-2.658 1.615v.55c0 1.007.813 1.822 1.818 1.822zm44.576-3.929a1.822 1.822 0 00-1.784-.055C93.44 45.8 85.99 47.216 77.362 47.216l-1.2-.023c-.734-.063-1.611.583-1.797 1.424a1.82 1.82 0 001.02 2.055c1.97.896 3.578 1.962 4.78 3.166a1.82 1.82 0 001.401.528c8.963-.57 19.432-3.26 19.432-8.972v-.55a1.82 1.82 0 00-.877-1.557zm-63.915 7.006c.227 0 .454-.043.67-.128 3.203-1.268 7.109-2.142 11.611-2.595.96-.096 1.645-1.31 1.604-2.273a1.82 1.82 0 00-1.906-1.82 73.892 73.892 0 01-3.549.096c-8.63 0-16.078-1.416-20.975-3.984A1.82 1.82 0 0021 41.202v.55c0 4.025 5.59 7.212 14.954 8.523.083.012.169.018.252.018z"/></g><path d="M64 98.155l-.035-.03.035-.04-.902-.763-6.306-5.8s-.111.115-.294.285l-.167.181c-1.438 1.33-6.048 5.179-11.458 5.254h-.35c-2.846-.306-5.622-1.822-8.438-4.627-4.675-4.676-9.877-7.2-15.474-7.536h-.466a20.487 20.487 0 00-2.533-.066c-8.429.342-14.69 5.941-16.817 8.1-.456.406-.73.697-.79.747l.03.03a.175.175 0 01-.035.045l.902.753 6.306 5.805.294-.291.167-.18c1.433-1.335 6.048-5.184 11.458-5.254h.344c2.852.306 5.622 1.822 8.439 4.626 4.68 4.657 9.872 7.181 15.47 7.527h.465a20.59 20.59 0 002.533.066c8.428-.342 14.69-5.937 16.817-8.094.44-.422.719-.708.775-.768" fill="#EFC825"/><defs><clipPath id="clip0"><path fill="#fff" d="M21 0h80v80H21z"/></clipPath></defs></svg>