<svg width="114" height="105" fill="none" xmlns="http://www.w3.org/2000/svg"><path d="M.813 88.32l18.125-20.468h90.624L91.438 88.32H.811z" fill="#FAA037"/><path d="M59.115 70.922h-37.55c-.96 0-1.883.431-2.563 1.199L8.924 83.503c-.571.644-.167 1.747.64 1.747h36.863l12.688-14.328zm41.697 0H62.74L50.053 85.25H88.81c.96 0 1.883-.431 2.563-1.199l10.079-11.382c.57-.645.166-1.747-.641-1.747z" fill="#A55023"/><path d="M22.486 85.25h.153c.432-2.904 2.667-5.117 5.361-5.117 0-3.392-2.434-6.14-5.438-6.14-3.003 0-5.437 2.748-5.437 6.14 2.694 0 4.93 2.213 5.36 5.117z" fill="#F5871E"/><path d="M33.36 85.25h.154c.432-2.904 2.667-5.117 5.361-5.117 0-3.392-2.434-6.14-5.438-6.14-3.003 0-5.437 2.748-5.437 6.14 2.694 0 4.93 2.213 5.36 5.117zm10.876 0h2.191l3.144-3.55c.116-.5.179-1.026.179-1.567 0-3.392-2.434-6.14-5.438-6.14-3.003 0-5.437 2.748-5.437 6.14 2.694 0 4.93 2.213 5.36 5.117z" fill="#F5871E"/><path d="M22.485 85.25c-.431-2.904-2.666-5.117-5.36-5.117-2.694 0-4.93 2.213-5.361 5.117h10.721zm.154 0H33.36c-.432-2.904-2.667-5.117-5.361-5.117-2.695 0-4.93 2.213-5.361 5.117zm10.875 0h10.721c-.431-2.904-2.666-5.117-5.36-5.117-2.694 0-4.93 2.213-5.361 5.117z" fill="#FABE19"/><path d="M71.5 80.133c0-3.392-2.434-6.14-5.438-6.14-3.003 0-5.437 2.748-5.437 6.14 2.694 0 4.93 2.213 5.36 5.117h.154c.432-2.904 2.667-5.117 5.361-5.117zm10.875 0c0-3.392-2.434-6.14-5.438-6.14-3.003 0-5.437 2.748-5.437 6.14 2.694 0 4.93 2.213 5.36 5.117h.154c.432-2.904 2.667-5.117 5.361-5.117zm10.875 0c0-3.392-2.434-6.14-5.438-6.14-3.003 0-5.437 2.748-5.437 6.14 2.694 0 4.93 2.213 5.36 5.117h1.075c.961 0 1.883-.431 2.563-1.199l1.513-1.708c.234-.686.364-1.43.364-2.21z" fill="#69A041"/><path d="M60.625 80.133c-2.694 0-4.93 2.213-5.361 5.117h10.721c-.431-2.904-2.666-5.117-5.36-5.117zm10.875 0c-2.695 0-4.93 2.213-5.361 5.117H76.86c-.432-2.904-2.667-5.117-5.361-5.117zm10.875 0c-2.695 0-4.93 2.213-5.361 5.117h10.722c-.432-2.904-2.667-5.117-5.361-5.117z" fill="#91B945"/><path d="M4.438 104.695h90.624c-2.002 0-3.624-1.832-3.624-4.093V88.32H.811v12.282c0 2.261 1.623 4.093 3.625 4.093z" fill="#D26E28"/><path d="M109.562 31.008v36.844L91.438 88.32v12.282c0 2.26 1.622 4.093 3.624 4.093h14.5c2.003 0 3.626-1.833 3.626-4.093V31.008h-3.626z" fill="#A55023"/><path d="M18.938 31.008h7.25v36.844h-7.25V31.008zm87 0h3.624v36.844h-3.624V31.008z" fill="#D26E28"/><path d="M22.563 31.008h3.625v36.844h-3.625V31.008z" fill="#A55023"/><path d="M82.375 41.242c5.005 0 9.063-4.582 9.063-10.234H73.311c0 5.652 4.058 10.234 9.063 10.234z" fill="#4B55A5"/><path d="M91.438 31.008H73.311V28.96c0-5.652 4.058-10.234 9.063-10.234H100.5c-5.005 0-9.063 4.582-9.063 10.234v2.047z" fill="#6478B9"/><path d="M64.25 41.242c5.005 0 9.063-4.582 9.063-10.234H55.186c0 5.652 4.058 10.234 9.063 10.234z" fill="#69A041"/><path d="M73.313 31.008H55.186V28.96c0-5.652 4.058-10.234 9.063-10.234h18.125c-5.005 0-9.063 4.582-9.063 10.234v2.047z" fill="#91B945"/><path d="M46.125 41.242c5.005 0 9.063-4.582 9.063-10.234H37.061c0 5.652 4.058 10.234 9.063 10.234z" fill="#4B55A5"/><path d="M55.188 31.008H37.061V28.96c0-5.652 4.058-10.234 9.063-10.234H64.25c-5.005 0-9.063 4.582-9.063 10.234v2.047z" fill="#6478B9"/><path d="M28 41.242c5.005 0 9.063-4.582 9.063-10.234H18.936c0 5.652 4.058 10.234 9.063 10.234z" fill="#69A041"/><path d="M37.063 31.008H18.936V28.96c0-5.652 4.058-10.234 9.063-10.234h18.125c-5.005 0-9.063 4.582-9.063 10.234v2.047z" fill="#91B945"/><path d="M9.875 41.242c5.005 0 9.063-4.582 9.063-10.234H.813c0 5.652 4.057 10.234 9.062 10.234z" fill="#4B55A5"/><path d="M18.938 31.008H.813V28.96c0-5.652 4.057-10.234 9.062-10.234h18.73H28c-5.005 0-9.063 4.582-9.063 10.234v2.047z" fill="#6478B9"/><path d="M104.125 18.727H100.5c-5.005 0-9.063 4.582-9.063 10.234v2.047h21.751V28.96c0-5.652-4.058-10.234-9.063-10.234z" fill="#4B55A5"/><path d="M15.916 6.445h-4.834c0 .429-.174.836-.477 1.093-1.202 1.017-1.973 2.65-1.938 4.486.054 2.823 2.074 5.182 4.571 5.33 2.788.166 5.095-2.338 5.095-5.45 0-1.786-.762-3.369-1.937-4.364-.304-.258-.48-.665-.48-1.095z" fill="#FABE19"/><path d="M15.915 6.445h-4.833V5.081c0-1.507 1.082-2.73 2.417-2.73 1.335 0 2.416 1.223 2.416 2.73v1.364z" fill="#55525B"/><path d="M11.989 11.904c.834 0 1.51-.764 1.51-1.706s-.676-1.706-1.51-1.706-1.51.764-1.51 1.706.676 1.706 1.51 1.706z" fill="#FFDC37"/><path d="M15.917 6.445H13.5V2.352c1.335 0 2.417 1.222 2.417 2.729v1.364z" fill="#353744"/><path d="M37.666 6.445h-4.833c0 .429-.175.836-.478 1.093-1.202 1.017-1.973 2.65-1.938 4.486.054 2.823 2.074 5.182 4.571 5.33 2.788.166 5.095-2.338 5.095-5.45 0-1.786-.762-3.369-1.937-4.364-.304-.258-.48-.665-.48-1.095z" fill="#FABE19"/><path d="M37.665 6.445h-4.833V5.081c0-1.507 1.082-2.73 2.416-2.73 1.335 0 2.417 1.223 2.417 2.73v1.364z" fill="#55525B"/><path d="M33.739 11.904c.834 0 1.51-.764 1.51-1.706s-.676-1.706-1.51-1.706-1.51.764-1.51 1.706.676 1.706 1.51 1.706z" fill="#FFDC37"/><path d="M37.667 6.445H35.25V2.352c1.335 0 2.417 1.222 2.417 2.729v1.364z" fill="#353744"/><path d="M59.416 6.445h-4.833c0 .429-.175.836-.478 1.093-1.202 1.017-1.973 2.65-1.938 4.486.054 2.823 2.074 5.182 4.571 5.33 2.788.166 5.095-2.338 5.095-5.45 0-1.786-.762-3.369-1.937-4.364-.305-.258-.48-.665-.48-1.095z" fill="#FABE19"/><path d="M59.415 6.445h-4.833V5.081c0-1.507 1.082-2.73 2.417-2.73 1.334 0 2.416 1.223 2.416 2.73v1.364z" fill="#55525B"/><path d="M55.489 11.904c.834 0 1.51-.764 1.51-1.706s-.676-1.706-1.51-1.706-1.51.764-1.51 1.706.676 1.706 1.51 1.706z" fill="#FFDC37"/><path d="M59.416 6.445H57V2.352c1.335 0 2.417 1.222 2.417 2.729v1.364z" fill="#353744"/><path d="M81.168 6.445h-4.834c0 .429-.174.836-.477 1.093-1.203 1.017-1.973 2.65-1.938 4.486.054 2.823 2.074 5.182 4.571 5.33 2.788.166 5.095-2.338 5.095-5.45 0-1.786-.762-3.369-1.937-4.364-.304-.258-.48-.665-.48-1.095z" fill="#FABE19"/><path d="M81.167 6.445h-4.833V5.081c0-1.507 1.082-2.73 2.417-2.73 1.334 0 2.416 1.223 2.416 2.73v1.364z" fill="#55525B"/><path d="M77.241 11.904c.834 0 1.51-.764 1.51-1.706s-.676-1.706-1.51-1.706-1.51.764-1.51 1.706.676 1.706 1.51 1.706z" fill="#FFDC37"/><path d="M81.166 6.445H78.75V2.352c1.335 0 2.417 1.222 2.417 2.729v1.364z" fill="#353744"/><path d="M102.916 6.445h-4.834c0 .429-.173.836-.477 1.093-1.202 1.017-1.973 2.65-1.938 4.486.054 2.823 2.074 5.182 4.571 5.33 2.788.166 5.095-2.338 5.095-5.45 0-1.786-.762-3.369-1.937-4.364-.304-.258-.48-.665-.48-1.095z" fill="#FABE19"/><path d="M102.915 6.445h-4.833V5.081c0-1.507 1.082-2.73 2.417-2.73 1.334 0 2.416 1.223 2.416 2.73v1.364z" fill="#55525B"/><path d="M98.989 11.904c.834 0 1.511-.764 1.511-1.706s-.677-1.706-1.511-1.706c-.834 0-1.51.764-1.51 1.706s.676 1.706 1.51 1.706z" fill="#FFDC37"/><path d="M102.917 6.445H100.5V2.352c1.335 0 2.417 1.222 2.417 2.729v1.364z" fill="#353744"/><path d="M.813.305h112.375v2.047H.812V.305z" fill="#353744"/></svg>