<svg width="105" height="104" fill="none" xmlns="http://www.w3.org/2000/svg"><path d="M64 95.155l-.035-.03.035-.04-.902-.763-6.306-5.8s-.111.115-.294.285l-.167.181c-1.438 1.33-6.048 5.179-11.458 5.254h-.35c-2.846-.306-5.622-1.822-8.438-4.627-4.675-4.676-9.877-7.2-15.474-7.536h-.466a20.487 20.487 0 00-2.533-.066c-8.429.342-14.69 5.941-16.817 8.1-.456.406-.73.697-.79.747l.03.03a.175.175 0 01-.035.045l.902.753 6.306 5.805.294-.29.167-.181c1.433-1.335 6.048-5.184 11.458-5.254h.344c2.852.306 5.622 1.822 8.439 4.626 4.68 4.657 9.872 7.181 15.47 7.527h.465a20.59 20.59 0 002.533.066c8.428-.342 14.69-5.937 16.817-8.094.44-.422.719-.708.775-.768M32.168 3.833c0 10.35 5.98 19.78 15.333 24.227v56.273h7.667V57.5h7.667v26.833H70.5V28.022A26.75 26.75 0 0085.835 3.833h-7.667a19.167 19.167 0 01-38.333 0h-7.667zm26.833 0a7.64 7.64 0 00-7.666 7.667A7.64 7.64 0 0059 19.167a7.64 7.64 0 007.667-7.667A7.64 7.64 0 0059 3.833z" fill="#EFC825"/></svg>