<svg width="131" height="131" fill="none" xmlns="http://www.w3.org/2000/svg"><path d="M75.734 20.469h-4.093v12.594l-8.192 1.365-.006-13.292h-4.094l.006 13.29-8.183-1.363V20.47h-4.094v16.06l12.277 2.047.004 8.5h4.094l-.004-8.5 12.285-2.047V20.469zm26.61 14.328h4.094v12.281h-4.094V34.797zm-85.969 0h4.094v12.281h-4.094V34.797z" fill="#394D5C"/><path d="M112.578 79.828l-4.094-24.562h-12.28v57.312h28.655v-26.61l-12.281-6.14z" fill="#D3843D"/><path d="M10.234 47.078h102.344v8.188H10.234v-8.188z" fill="#FC883A"/><path d="M112.578 79.828l-4.094-24.562h-12.28v24.562h16.374z" fill="#CDEEF6"/><path d="M112.578 92.11h12.281v-6.141l-12.281-6.14v12.28z" fill="#FCF05A"/><path d="M102.344 85.969h4.094v4.094h-4.094v-4.094z" fill="#F4F4E6"/><path d="M6.14 104.391h8.188v8.187H6.141v-8.187z" fill="#BFBFBF"/><path d="M14.328 55.266h81.875v57.312H14.328V55.266z" fill="#E1462B"/><path d="M26.61 71.64h32.75v20.47H26.61V71.64z" fill="#394D5C"/><path d="M63.453 71.64H22.516l4.093-8.187h32.75l4.094 8.188z" fill="#F9AB75"/><path d="M96.203 104.391h28.656v8.187H96.203v-8.187z" fill="#BFBFBF"/><path d="M92.109 16.539c-4.851 5.158-16.948 8.023-30.703 8.023-13.755 0-25.873-2.865-30.703-8.023a6.455 6.455 0 010-8.024 5.954 5.954 0 014.564-2.374 3.144 3.144 0 011.576.368 39.981 39.981 0 004.299 2.088 40.992 40.992 0 004.4 1.617c1.642.51 3.31.933 4.995 1.269a57.79 57.79 0 004.871.737c1.27.143 2.6.225 3.95.286.676 0 1.352.02 2.048.02s1.371-.02 2.047-.02c1.35-.061 2.66-.143 3.93-.286h.02a56.65 56.65 0 004.872-.737 48.068 48.068 0 004.994-1.27 45.928 45.928 0 004.4-1.616 41.964 41.964 0 004.3-2.088 5.383 5.383 0 016.14 2.006 6.51 6.51 0 010 8.024z" fill="#D3843D"/><path d="M41.142 8.597a40.987 40.987 0 004.401 1.617 5.02 5.02 0 00-2.559 3.93h-4.093a8.128 8.128 0 012.251-5.547zm9.395 2.886c1.556.307 3.194.553 4.872.737a4.993 4.993 0 00-2.19 3.807h-4.094a7.886 7.886 0 011.412-4.544zm33.385 2.661h-4.094a5.067 5.067 0 00-2.559-3.93 45.907 45.907 0 004.401-1.617 8.222 8.222 0 012.252 5.547zm-10.234 1.883h-4.094a5.031 5.031 0 00-2.19-3.807 56.659 56.659 0 004.872-.737 7.886 7.886 0 011.412 4.544zm-10.235-3.521v5.916H59.36v-5.916c.676 0 1.351.02 2.047.02.696 0 1.372-.02 2.047-.02z" fill="#66342E"/><path d="M83.922 47.078l24.562-12.281v-8.188L67.547 47.08h16.375zm-45.032 0L14.329 34.797v-8.188l40.938 20.47H38.89z" fill="#FFD782"/><path d="M34.797 83.922h16.375v8.187H34.797v-8.187z" fill="#F4F4E6"/><path d="M26.61 79.828h8.187V92.11h-8.188V79.83z" fill="#F9BB4B"/><path d="M71.64 63.453h16.376v32.75H71.64v-32.75z" fill="#F9AB75"/><path d="M77.781 69.594h4.094v4.094h-4.094v-4.094zm0 8.187h4.094v4.094h-4.094v-4.094zm0 8.188h4.094v4.094h-4.094v-4.094zM65.5 106.438h-4.094v-4.094H49.125V98.25H65.5v8.188z" fill="#F4F4E6"/><path d="M20.469 90.063H65.5v4.093H20.469v-4.094z" fill="#F9AB75"/><path d="M34.797 124.859c6.783 0 12.281-5.498 12.281-12.281s-5.498-12.281-12.281-12.281-12.281 5.498-12.281 12.281 5.498 12.281 12.28 12.281z" fill="#394D5C"/><path d="M34.797 116.672a4.094 4.094 0 100-8.188 4.094 4.094 0 000 8.188z" fill="#FCF05A"/><path d="M96.203 124.859c6.783 0 12.281-5.498 12.281-12.281s-5.498-12.281-12.28-12.281c-6.784 0-12.282 5.498-12.282 12.281s5.498 12.281 12.281 12.281z" fill="#394D5C"/><path d="M96.203 116.672a4.094 4.094 0 100-8.188 4.094 4.094 0 000 8.188z" fill="#FCF05A"/></svg>