<svg width="112" height="96" fill="none" xmlns="http://www.w3.org/2000/svg"><g clip-path="url(#clip0)" fill="#FFD100"><path d="M96.48 13.922A6.961 6.961 0 1096.48 0a6.961 6.961 0 000 13.922zm13.349 23.808l-9.963-4.442L97.87 21.46l4.266 9.495.792-9.213a4.702 4.702 0 00-4.282-5.087l-8.354-.719a4.701 4.701 0 00-5.083 4.236l-7.625 6.572c-.248.214-.46.464-.631.743L69.697 39.36a3.148 3.148 0 001.572 4.585l-4.072 4.072-3.668-3.667a3 3 0 00-4.242 0l-1.4 1.4a3 3 0 000 4.242l3.667 3.668-1.845 1.845-6.945-6.946a3 3 0 00-4.243 0L33.176 63.907a3 3 0 000 4.242l4.612 4.613a5.247 5.247 0 00-.38 1.961A5.283 5.283 0 0042.685 80a5.283 5.283 0 005.277-5.277c0-.68-.131-1.33-.367-1.928l26.575-26.66a1.799 1.799 0 00.003-2.542c.352-.243.66-.56.898-.949l6.998-11.451 2.368-2.041s-1.08 15.271-1.068 15.347l2.26 14.39-6.031 15.99a3.784 3.784 0 107.082 2.671l6.383-16.925a3.78 3.78 0 00.198-1.922l-2.16-13.762 1.971.17 6.075 13.44 4.206 18.503a3.785 3.785 0 007.381-1.678l-4.291-18.874a3.876 3.876 0 00-.242-.72l-5.207-11.522.02-.24-6.494-2.895c-2.663-1.187-3.706-3.867-3.614-5.313l.818-12.868 2.203 13.06a3.154 3.154 0 001.826 2.356l11.508 5.13a3.156 3.156 0 004.164-1.596 3.152 3.152 0 00-1.596-4.164zM42.685 76.402a1.68 1.68 0 01-1.679-1.679 1.68 1.68 0 011.679-1.679 1.68 1.68 0 011.679 1.68 1.68 1.68 0 01-1.68 1.678z"/></g><path d="M64 87.155l-.035-.03.035-.04-.902-.763-6.306-5.8s-.111.115-.294.285l-.167.181c-1.438 1.33-6.048 5.179-11.458 5.254h-.35c-2.846-.306-5.622-1.822-8.438-4.627-4.675-4.676-9.877-7.2-15.474-7.536h-.466a20.487 20.487 0 00-2.533-.066c-8.429.342-14.69 5.941-16.817 8.1-.456.406-.73.697-.79.747l.03.03a.175.175 0 01-.035.045l.902.753 6.306 5.805.294-.29.167-.181c1.433-1.335 6.048-5.184 11.458-5.254h.344c2.852.306 5.622 1.822 8.439 4.626 4.68 4.657 9.872 7.181 15.47 7.527h.465c.842.075 1.688.096 2.533.066 8.428-.342 14.69-5.937 16.817-8.094.44-.422.719-.708.775-.768" fill="#EFC825"/><defs><clipPath id="clip0"><path fill="#fff" d="M32 0h80v80H32z"/></clipPath></defs></svg>