<svg width="109" height="110" fill="none" xmlns="http://www.w3.org/2000/svg"><path d="M75.022 106.777h27.363c1.764 0 3.193-1.443 3.193-3.222V55c0-1.78-1.429-3.223-3.193-3.223H75.021c-1.763 0-3.193 1.443-3.193 3.223v48.555c0 1.779 1.43 3.222 3.194 3.222z" fill="#FF695A"/><path d="M33.977 106.777H6.613c-1.763 0-3.193-1.443-3.193-3.222V55c0-1.78 1.43-3.223 3.193-3.223h27.364c1.764 0 3.193 1.443 3.193 3.223v48.555c0 1.779-1.43 3.222-3.193 3.222z" fill="#FF965A"/><path d="M64.76 44.415H44.239c-1.763 0-3.193-1.443-3.193-3.222v-17.26c0-1.78 1.43-3.222 3.193-3.222h20.523c1.764 0 3.193 1.443 3.193 3.223v17.259c0 1.78-1.43 3.222-3.193 3.222z" fill="#FFC362"/><path d="M67.955 41.193v-17.26c0-1.78-1.43-3.222-3.194-3.222H54.5v23.704h10.261c1.764 0 3.194-1.442 3.194-3.222z" fill="#FF965A"/><path d="M16.875 44.415c-1.764 0-3.193-1.443-3.193-3.222v-6.904c0-1.78 1.43-3.223 3.193-3.223 1.764 0 3.193 1.443 3.193 3.223v6.904c0 1.78-1.43 3.222-3.193 3.222z" fill="#003764"/><path d="M78.443 44.415c-1.763 0-3.193-1.443-3.193-3.222v-6.904c0-1.78 1.43-3.223 3.193-3.223 1.764 0 3.194 1.443 3.194 3.223v6.904c0 1.78-1.43 3.222-3.194 3.222z" fill="#00141E"/><path d="M30.557 44.415c-1.764 0-3.194-1.443-3.194-3.222v-6.904c0-1.78 1.43-3.223 3.194-3.223 1.763 0 3.193 1.443 3.193 3.223v6.904c0 1.78-1.43 3.222-3.193 3.222z" fill="#003764"/><path d="M92.125 44.415c-1.764 0-3.193-1.443-3.193-3.222v-6.904c0-1.78 1.43-3.223 3.193-3.223 1.764 0 3.193 1.443 3.193 3.223v6.904c0 1.78-1.43 3.222-3.193 3.222z" fill="#00141E"/><path d="M54.5 13.349c-1.764 0-3.193-1.443-3.193-3.223V3.223C51.307 1.443 52.737 0 54.5 0c1.764 0 3.193 1.443 3.193 3.223v6.903c0 1.78-1.43 3.223-3.193 3.223z" fill="#49B867"/><path d="M17.104 77.208c-1.764 0-3.194-1.443-3.194-3.223v-5.178c0-1.78 1.43-3.222 3.194-3.222 1.763 0 3.193 1.443 3.193 3.222v5.178c0 1.78-1.43 3.223-3.194 3.223zm0 18.985c-1.764 0-3.194-1.443-3.194-3.223v-5.178c0-1.78 1.43-3.222 3.194-3.222 1.763 0 3.193 1.443 3.193 3.222v5.178c0 1.78-1.43 3.223-3.194 3.223z" fill="#96412B"/><path d="M33.977 58.223H6.613a3.19 3.19 0 01-2.856-1.782 3.247 3.247 0 01.302-3.375l10.26-13.807a3.184 3.184 0 012.556-1.289h33.228c1.339 0 2.536.843 2.997 2.112a3.242 3.242 0 01-.932 3.568L36.043 57.457a3.175 3.175 0 01-2.066.766z" fill="#005AAA"/><path d="M102.386 58.223H75.022a3.176 3.176 0 01-2.066-.766L56.831 43.65a3.242 3.242 0 01-.932-3.568 3.195 3.195 0 012.998-2.112h33.227c1.006 0 1.952.478 2.555 1.289l10.261 13.807c.726.977.843 2.283.302 3.375a3.19 3.19 0 01-2.856 1.782z" fill="#003764"/><path d="M105.807 58.223H3.193C1.43 58.223 0 56.78 0 55c0-1.78 1.43-3.223 3.193-3.223h102.614C107.57 51.777 109 53.22 109 55c0 1.78-1.43 3.223-3.193 3.223z" fill="#003764"/><path d="M91.897 77.208c1.763 0 3.193-1.443 3.193-3.223v-5.178c0-1.78-1.43-3.222-3.194-3.222-1.763 0-3.193 1.443-3.193 3.222v5.178c0 1.78 1.43 3.223 3.194 3.223zm0 18.985c1.763 0 3.193-1.443 3.193-3.223v-5.178c0-1.78-1.43-3.222-3.194-3.222-1.763 0-3.193 1.443-3.193 3.222v5.178c0 1.78 1.43 3.223 3.194 3.223z" fill="#641E23"/><path d="M41.045 23.934v-3.452c0-7.5 6.012-13.578 13.455-13.578 7.432 0 13.454 6.067 13.454 13.578v3.452h-26.91z" fill="#BEFF69"/><path d="M67.955 20.482c0-7.51-6.023-13.578-13.455-13.578v17.03h13.455v-3.452z" fill="#84DC68"/><path d="M105.807 51.777H54.5v6.446h51.307C107.57 58.223 109 56.78 109 55c0-1.78-1.43-3.223-3.193-3.223z" fill="#00141E"/><path d="M75.024 106.777H33.978c-1.763 0-3.193-1.443-3.193-3.222V55c0-1.78 1.43-3.223 3.193-3.223h41.046c1.763 0 3.193 1.443 3.193 3.223v48.555c0 1.779-1.43 3.222-3.193 3.222z" fill="#FFC362"/><path d="M78.216 103.555V55c0-1.78-1.43-3.223-3.193-3.223H54.5v55h20.523c1.764 0 3.193-1.443 3.193-3.222z" fill="#FF965A"/><path d="M45.53 77.208c-1.764 0-3.194-1.443-3.194-3.223v-5.178c0-1.78 1.43-3.222 3.193-3.222 1.764 0 3.194 1.443 3.194 3.222v5.178c0 1.78-1.43 3.223-3.194 3.223zm0 18.985c-1.764 0-3.194-1.443-3.194-3.223v-5.178c0-1.78 1.43-3.222 3.193-3.222 1.764 0 3.194 1.443 3.194 3.222v5.178c0 1.78-1.43 3.223-3.194 3.223z" fill="#C86432"/><path d="M63.47 77.208c-1.763 0-3.193-1.443-3.193-3.223v-5.178c0-1.78 1.43-3.222 3.194-3.222 1.763 0 3.193 1.443 3.193 3.222v5.178c0 1.78-1.43 3.223-3.193 3.223zm0 18.985c-1.763 0-3.193-1.443-3.193-3.223v-5.178c0-1.78 1.43-3.222 3.194-3.222 1.763 0 3.193 1.443 3.193 3.222v5.178c0 1.78-1.43 3.223-3.193 3.223z" fill="#96412B"/><path d="M105.807 110H3.193C1.43 110 0 108.557 0 106.777c0-1.779 1.43-3.222 3.193-3.222h102.614c1.763 0 3.193 1.443 3.193 3.222 0 1.78-1.43 3.223-3.193 3.223z" fill="#C86432"/><path d="M109 106.777c0-1.779-1.43-3.222-3.193-3.222H54.5V110h51.307c1.763 0 3.193-1.443 3.193-3.223z" fill="#96412B"/><path d="M75.022 58.223H33.977a3.195 3.195 0 01-3.003-2.126 3.242 3.242 0 01.958-3.573l20.523-17.259a3.17 3.17 0 014.089 0l20.522 17.26a3.242 3.242 0 01.959 3.572 3.195 3.195 0 01-3.003 2.126z" fill="#FFF069"/><path d="M78.025 56.097a3.242 3.242 0 00-.958-3.573L56.544 35.265a3.17 3.17 0 00-2.044-.747v23.705h20.523c1.344 0 2.544-.85 3.002-2.126z" fill="#FFC362"/></svg>