<svg width="130" height="130" fill="none" xmlns="http://www.w3.org/2000/svg"><path d="M55.928 14.67c4.749-5.605 13.394-5.605 18.143 0l.51.603a11.89 11.89 0 0011.894 3.865l.768-.188c7.137-1.743 14.131 3.338 14.678 10.665l.059.787a11.891 11.891 0 007.351 10.118l.731.299c6.798 2.785 9.47 11.007 5.607 17.256l-.416.672a11.89 11.89 0 000 12.505l.416.672c3.863 6.249 1.191 14.471-5.607 17.256l-.731.3a11.892 11.892 0 00-7.351 10.117l-.059.787c-.547 7.326-7.541 12.408-14.678 10.665l-.767-.188a11.891 11.891 0 00-11.894 3.865l-.51.602c-4.75 5.606-13.395 5.606-18.145 0l-.51-.602a11.891 11.891 0 00-11.894-3.865l-.767.188c-7.137 1.743-14.131-3.339-14.678-10.665l-.06-.787a11.89 11.89 0 00-7.35-10.118l-.73-.3c-6.8-2.784-9.471-11.006-5.608-17.255l.416-.672a11.89 11.89 0 000-12.505l-.416-.672c-3.863-6.249-1.191-14.471 5.607-17.256l.731-.3a11.89 11.89 0 007.35-10.117l.06-.787c.547-7.326 7.541-12.408 14.678-10.665l.767.188a11.89 11.89 0 0011.894-3.865l.51-.602z" fill="#5A2E91"/><path d="M55.661 11.676c4.889-5.77 13.79-5.77 18.678 0l.544.642A13.084 13.084 0 0087.97 16.57l.817-.2c7.347-1.794 14.547 3.437 15.111 10.98l.062.838a13.085 13.085 0 008.089 11.133l.778.319c6.999 2.867 9.749 11.331 5.772 17.764l-.442.715a13.085 13.085 0 000 13.762l.442.715c3.977 6.433 1.227 14.897-5.772 17.764l-.778.319a13.085 13.085 0 00-8.089 11.133l-.062.839c-.564 7.542-7.764 12.773-15.111 10.979l-.817-.2a13.083 13.083 0 00-13.088 4.253l-.544.641c-4.889 5.771-13.79 5.771-18.678 0l-.544-.641a13.083 13.083 0 00-13.088-4.253l-.817.2c-7.347 1.794-14.547-3.437-15.11-10.979l-.063-.839a13.084 13.084 0 00-8.09-11.133l-.777-.319c-7-2.867-9.75-11.331-5.772-17.764l.442-.715a13.084 13.084 0 000-13.762l-.442-.715c-3.977-6.433-1.227-14.898 5.772-17.764l.778-.319a13.084 13.084 0 008.089-11.133l.062-.839c.564-7.542 7.764-12.773 15.111-10.979l.817.2a13.085 13.085 0 0013.088-4.252l.544-.642z" stroke="#5A2E91" stroke-width=".844"/><path d="M29.416 55.665c1.527.25 2.697.822 3.51 1.718.814.88 1.221 1.976 1.221 3.288a5.27 5.27 0 01-.797 2.814c-.531.847-1.345 1.527-2.44 2.042-1.08.514-2.408.772-3.985.772-1.228 0-2.44-.158-3.636-.473-1.179-.332-2.183-.797-3.013-1.395l1.569-3.088a7.85 7.85 0 002.291 1.17c.88.266 1.776.399 2.69.399 1.012 0 1.81-.19 2.39-.573.581-.398.872-.954.872-1.668 0-1.428-1.088-2.142-3.262-2.142h-1.843v-2.665l3.586-4.059h-7.421v-3.237H33.35v2.615l-3.934 4.482zM43.48 66.3c-1.445 0-2.731-.357-3.86-1.071-1.13-.714-2.018-1.743-2.665-3.088-.63-1.361-.946-2.98-.946-4.856s.315-3.486.946-4.831c.647-1.362 1.536-2.4 2.665-3.113 1.129-.714 2.415-1.071 3.86-1.071 1.444 0 2.73.357 3.86 1.07 1.128.715 2.008 1.752 2.64 3.114.647 1.344.97 2.955.97 4.83 0 1.877-.323 3.496-.97 4.857-.632 1.345-1.512 2.374-2.64 3.088-1.13.714-2.416 1.07-3.86 1.07zm0-3.412c1.062 0 1.892-.456 2.49-1.37.614-.913.921-2.324.921-4.233 0-1.91-.307-3.32-.921-4.234-.598-.913-1.428-1.37-2.49-1.37-1.046 0-1.876.457-2.49 1.37-.598.914-.897 2.325-.897 4.234 0 1.91.299 3.32.896 4.233.615.914 1.445 1.37 2.49 1.37zM67.435 66.3c-1.444 0-2.73-.357-3.86-1.071-1.129-.714-2.017-1.743-2.664-3.088-.631-1.361-.947-2.98-.947-4.856s.316-3.486.947-4.831c.647-1.362 1.535-2.4 2.664-3.113 1.13-.714 2.416-1.071 3.86-1.071 1.445 0 2.731.357 3.86 1.07 1.13.715 2.01 1.752 2.64 3.114.647 1.344.971 2.955.971 4.83 0 1.877-.324 3.496-.971 4.857-.63 1.345-1.51 2.374-2.64 3.088-1.129.714-2.415 1.07-3.86 1.07zm0-3.412c1.063 0 1.893-.456 2.49-1.37.615-.913.922-2.324.922-4.233 0-1.91-.307-3.32-.921-4.234-.598-.913-1.428-1.37-2.49-1.37-1.047 0-1.877.457-2.491 1.37-.598.914-.897 2.325-.897 4.234 0 1.91.3 3.32.897 4.233.614.914 1.444 1.37 2.49 1.37zM84.337 66.3c-1.444 0-2.73-.357-3.86-1.071-1.129-.714-2.017-1.743-2.664-3.088-.631-1.361-.947-2.98-.947-4.856s.316-3.486.947-4.831c.647-1.362 1.535-2.4 2.664-3.113 1.13-.714 2.416-1.071 3.86-1.071 1.445 0 2.731.357 3.86 1.07 1.13.715 2.01 1.752 2.64 3.114.647 1.344.971 2.955.971 4.83 0 1.877-.324 3.496-.971 4.857-.63 1.345-1.51 2.374-2.64 3.088-1.129.714-2.415 1.07-3.86 1.07zm0-3.412c1.063 0 1.893-.456 2.49-1.37.615-.913.922-2.324.922-4.233 0-1.91-.307-3.32-.921-4.234-.598-.913-1.428-1.37-2.49-1.37-1.047 0-1.877.457-2.491 1.37-.598.914-.897 2.325-.897 4.234 0 1.91.3 3.32.897 4.233.614.914 1.444 1.37 2.49 1.37zM101.24 66.3c-1.444 0-2.73-.357-3.86-1.071-1.129-.714-2.017-1.743-2.664-3.088-.631-1.361-.947-2.98-.947-4.856s.316-3.486.947-4.831c.647-1.362 1.535-2.4 2.664-3.113 1.13-.714 2.416-1.071 3.86-1.071 1.445 0 2.731.357 3.86 1.07 1.129.715 2.009 1.752 2.64 3.114.647 1.344.971 2.955.971 4.83 0 1.877-.324 3.496-.971 4.857-.631 1.345-1.511 2.374-2.64 3.088-1.129.714-2.415 1.07-3.86 1.07zm0-3.412c1.063 0 1.893-.456 2.491-1.37.614-.913.921-2.324.921-4.233 0-1.91-.307-3.32-.921-4.234-.598-.913-1.428-1.37-2.491-1.37-1.046 0-1.876.457-2.49 1.37-.598.914-.897 2.325-.897 4.234 0 1.91.3 3.32.897 4.233.614.914 1.444 1.37 2.49 1.37zm-61.302 12.27c.863 0 1.61.143 2.24.43.64.288 1.131.696 1.474 1.225.343.528.515 1.154.515 1.878 0 .714-.172 1.34-.515 1.878-.343.528-.834.936-1.474 1.224-.63.278-1.377.417-2.24.417h-1.96v2.684h-2.254v-9.736h4.215zm-.125 5.216c.677 0 1.192-.144 1.544-.431.353-.297.529-.714.529-1.252 0-.547-.176-.965-.529-1.252-.352-.297-.867-.445-1.544-.445h-1.836v3.38h1.836zm14.414-5.216l-4.145 7.706c-.399.742-.88 1.303-1.447 1.683-.556.38-1.163.57-1.822.57a4.2 4.2 0 01-1.585-.334l.542-1.71c.39.12.714.18.974.18.278 0 .528-.065.75-.195.224-.139.428-.352.613-.64l.083-.11-3.839-7.15h2.407l2.587 5.23 2.67-5.23h2.212zm1.071 0h7.86v1.794h-5.62v2.003h2.698c1.178 0 2.073.246 2.685.737.621.492.932 1.201.932 2.129 0 .973-.343 1.729-1.03 2.267-.686.538-1.655.806-2.907.806h-4.618v-9.736zm4.493 8.067c.575 0 1.015-.11 1.321-.334.306-.231.46-.565.46-1.001 0-.853-.594-1.28-1.781-1.28h-2.253v2.615h2.253zm14.225-8.067v9.736h-2.225v-7.9h-3.339l-.07 2.03c-.046 1.382-.157 2.504-.333 3.367-.176.853-.473 1.511-.89 1.975-.408.454-.983.681-1.725.681a4.96 4.96 0 01-1.113-.153l.14-1.905c.12.037.254.055.403.055.537 0 .913-.315 1.126-.945.214-.64.348-1.637.404-2.991l.139-3.95h7.483zm9.971 7.928v1.808h-7.539v-9.736h7.358v1.808h-5.118v2.114h4.52v1.753h-4.52v2.253h5.3zm1.82-7.928h2.24V81.5l4.646-6.343h2.114v9.736h-2.226v-6.328l-4.645 6.328h-2.129v-9.736zm4.493-.626c-1.78 0-2.68-.71-2.698-2.129h1.544c.018.677.403 1.016 1.154 1.016.371 0 .654-.084.849-.25.195-.177.296-.432.306-.766h1.544c-.01.696-.237 1.225-.682 1.586-.445.362-1.117.543-2.017.543z" fill="#fff"/></svg>