<svg width="130" height="130" fill="none" xmlns="http://www.w3.org/2000/svg"><path d="M55.928 14.67c4.749-5.605 13.394-5.605 18.143 0l.51.603a11.89 11.89 0 0011.894 3.865l.768-.188c7.137-1.743 14.131 3.338 14.678 10.665l.059.787a11.891 11.891 0 007.351 10.118l.731.299c6.798 2.785 9.47 11.007 5.607 17.256l-.416.672a11.89 11.89 0 000 12.505l.416.672c3.863 6.249 1.191 14.471-5.607 17.256l-.731.3a11.892 11.892 0 00-7.351 10.117l-.059.787c-.547 7.326-7.541 12.408-14.678 10.665l-.767-.188a11.891 11.891 0 00-11.894 3.865l-.51.602c-4.75 5.606-13.395 5.606-18.145 0l-.51-.602a11.891 11.891 0 00-11.894-3.865l-.767.188c-7.137 1.743-14.131-3.339-14.678-10.665l-.06-.787a11.89 11.89 0 00-7.35-10.118l-.73-.3c-6.8-2.784-9.471-11.006-5.608-17.255l.416-.672a11.89 11.89 0 000-12.505l-.416-.672c-3.863-6.249-1.191-14.471 5.607-17.256l.731-.3a11.89 11.89 0 007.35-10.117l.06-.787c.547-7.326 7.541-12.408 14.678-10.665l.767.188a11.89 11.89 0 0011.894-3.865l.51-.602z" fill="#F29400"/><path d="M55.661 11.676c4.889-5.77 13.79-5.77 18.678 0l.544.642A13.084 13.084 0 0087.97 16.57l.817-.2c7.347-1.794 14.547 3.437 15.111 10.98l.062.838a13.085 13.085 0 008.089 11.133l.778.319c6.999 2.867 9.749 11.331 5.772 17.764l-.442.715a13.085 13.085 0 000 13.762l.442.715c3.977 6.433 1.227 14.897-5.772 17.764l-.778.319a13.085 13.085 0 00-8.089 11.133l-.062.839c-.564 7.542-7.764 12.773-15.111 10.979l-.817-.2a13.083 13.083 0 00-13.088 4.253l-.544.641c-4.889 5.771-13.79 5.771-18.678 0l-.544-.641a13.083 13.083 0 00-13.088-4.253l-.817.2c-7.347 1.794-14.547-3.437-15.11-10.979l-.063-.839a13.084 13.084 0 00-8.09-11.133l-.777-.319c-7-2.867-9.75-11.331-5.772-17.764l.442-.715a13.084 13.084 0 000-13.762l-.442-.715c-3.977-6.433-1.227-14.898 5.772-17.764l.778-.319a13.084 13.084 0 008.089-11.133l.062-.839c.564-7.542 7.764-12.773 15.111-10.979l.817.2a13.085 13.085 0 0013.088-4.252l.544-.642z" stroke="#5A2E91" stroke-width=".844"/></svg>