<svg width="55" height="55" fill="none" xmlns="http://www.w3.org/2000/svg"><g clip-path="url(#clip0)" fill="#FFD100"><path d="M50.945 44.822l-.024-.025.028-.032-.722-.61-5.019-4.663s-.088.093-.234.23l-.129.145c-1.145 1.07-4.817 4.164-9.13 4.224h-.274c-2.268-.25-4.478-1.464-6.722-3.72-3.723-3.744-7.863-5.773-12.317-6.051h-.371a16.19 16.19 0 00-2.017-.053C7.3 34.542 2.314 39.04.619 40.775c-.35.339-.573.569-.613.613l.024.024-.028.037.718.605 5.023 4.668s.089-.093.234-.234c.04-.051.083-.1.13-.145 1.145-1.074 4.816-4.168 9.125-4.225h.279c2.267.247 4.478 1.465 6.721 3.72 3.724 3.744 7.863 5.77 12.317 6.052h.371c.671.06 1.345.077 2.018.052 6.709-.274 11.7-4.776 13.394-6.511.351-.335.573-.565.613-.613M37.377 3.823c.456 0 .904.024 1.303.057.993.113 1.975.313 2.933.597l-2.243 4.7a10.552 10.552 0 00-1.335-.085 10.109 10.109 0 00-3.506.63l-3.067-4.713a15.387 15.387 0 015.915-1.186zm0-1.9a17.212 17.212 0 00-8.666 2.336l5.108 7.875a8.524 8.524 0 014.224-1.121 8.008 8.008 0 012.42.363l3.793-7.985a20.523 20.523 0 00-5.35-1.383 18.909 18.909 0 00-1.517-.065M37.377 13.2a6.017 6.017 0 11-2.574 11.445c-.242-.137-.488-.29-.738-.46a.807.807 0 00-.21-.105 6.011 6.011 0 013.522-10.893m13.81.399c.807 2.15 1.513 5.556.364 9.946l-4.321-2.207a9.251 9.251 0 00-.267-4.797l4.224-2.941zm.743-2.824l-7.315 5.092a7.44 7.44 0 01.331 6.455l7.738 3.93c2.962-7.936.404-13.556-.75-15.489M34.529 28.668a10.715 10.715 0 004.918.633l2.187 4.607a17.01 17.01 0 01-3.966.694h-.275a15.384 15.384 0 01-5.938-1.21l3.074-4.725zm-.702-2.421l-5.124 7.903a17.183 17.183 0 008.69 2.357h.295a19.917 19.917 0 006.572-1.497l-3.74-7.86a8.392 8.392 0 01-2.215.291 9.022 9.022 0 01-4.405-1.166l-.09-.04M23.167 13.728l4.034 2.8a9.203 9.203 0 00-.254 4.877l-3.696 2.018c-1.141-4.24-.698-7.581-.072-9.707l-.012.012zm-.876-2.945l-.024.048c-1.013 2.054-3.018 7.625-.117 15.367l7.06-3.889a7.463 7.463 0 01.323-6.48l-7.242-5.046zm8.522 12.805c.403.6.886 1.144 1.436 1.614l-5.136 7.92a17.493 17.493 0 01-4.55-5l8.25-4.534zm15.138 10.635l-4.058-8.541a7.854 7.854 0 001.892-1.868l8.42 4.297a17.349 17.349 0 01-6.254 6.112zm-2.406-19.926a7.951 7.951 0 00-1.666-1.562l4.034-8.54a17.349 17.349 0 015.338 4.728l-7.706 5.374zM27.138 5.292l5.132 7.915c-.475.406-.9.866-1.267 1.372l-7.714-5.374a17.536 17.536 0 013.849-3.913z"/></g><defs><clipPath id="clip0"><path fill="#fff" d="M0 0h54.062v54.062H0z"/></clipPath></defs></svg>