<svg width="55" height="55" fill="none" xmlns="http://www.w3.org/2000/svg"><g clip-path="url(#clip0)" fill="#FFD100"><path d="M53.34 46.523l-.03-.025.034-.034-.756-.638-5.258-4.882s-.089.097-.245.24l-.14.148c-1.2 1.124-5.043 4.363-9.553 4.426H37.1c-2.373-.257-4.688-1.529-7.036-3.89-3.899-3.919-8.228-6.043-12.895-6.335h-.389a16.934 16.934 0 00-2.111-.055C7.645 35.765 2.42 40.475.646 42.291c-.367.35-.595.595-.642.642l.026.025-.03.038.756.634 5.254 4.882.25-.24.139-.152c1.195-1.124 5.043-4.363 9.554-4.423h.291c2.374.258 4.688 1.533 7.032 3.89 3.903 3.92 8.232 6.044 12.9 6.336h.388c.702.066 1.407.085 2.112.059 7.023-.292 12.248-5 14.018-6.817.367-.35.6-.591.646-.642zM30.831 15.205h-4.645v10.981h4.645V15.205zm8.026 0H34.21v10.981h4.646V15.205zm8.025 0h-4.646v10.981h4.646V15.205zm2.533 12.671H23.229v2.111h26.186v-2.111zm.422-15.628H23.228v1.268h26.61v-1.268zm2.535 18.584H20.695v2.112h31.677v-2.112zM23.229 11.404h26.608L36.53 3.8l-13.3 7.603z"/><path d="M36.326 2.524l15.794 9.302 1.097-1.877-16.891-9.95-16.898 9.95 1.096 1.877 15.802-9.302z"/></g><defs><clipPath id="clip0"><path fill="#fff" d="M0 0h54.062v54.062H0z"/></clipPath></defs></svg>