<svg width="55" height="55" fill="none" xmlns="http://www.w3.org/2000/svg"><g clip-path="url(#clip0)" fill="#FFD100"><path d="M53.361 46.669l-.03-.025.034-.034-.756-.638-5.258-4.882s-.093.097-.24.24l-.14.148c-1.196 1.124-5.043 4.363-9.554 4.422h-.291c-2.374-.257-4.689-1.533-7.037-3.89-3.898-3.92-8.228-6.044-12.895-6.335h-.388a16.877 16.877 0 00-2.112-.055C7.67 35.907 2.445 40.617.676 42.433c-.372.35-.6.591-.646.642l.03.025-.06.008.756.638L6.01 48.63l.245-.241.14-.148c1.2-1.123 5.043-4.363 9.553-4.422h.292c2.373.258 4.688 1.533 7.036 3.89 3.899 3.92 8.228 6.044 12.895 6.335h.389c.701.065 1.407.083 2.111.055 7.024-.287 12.249-4.996 14.019-6.812.371-.35.6-.592.646-.642M35.395 5.886l.149-.067a.572.572 0 00.188-.13.607.607 0 00.17-.432.63.63 0 00-.357-.563.552.552 0 00-.442-.003l-.153.067c-.13.07-.23.19-.28.334a.642.642 0 00.01.445.59.59 0 00.293.32.552.552 0 00.422.026m3.411-4.679l.166-.052a.605.605 0 00.274-.333.637.637 0 00-.01-.439.602.602 0 00-.287-.32.564.564 0 00-.42-.035l-.15.064a.586.586 0 00-.32.33.637.637 0 00.125.669.578.578 0 00.413.179.559.559 0 00.224-.048m3.139.425l.19-.065a.777.777 0 00.26-.119.62.62 0 00.18-.194.5.5 0 00.014-.478.602.602 0 00-.169-.202.76.76 0 00-.253-.128.868.868 0 00-.58.032l-.186.066a.672.672 0 00-.391.318.494.494 0 00-.003.451.68.68 0 00.389.318.88.88 0 00.549.005M39.321 3.85a.6.6 0 00.12.197c.053.056.115.1.183.131a.525.525 0 00.43-.001l.145-.063a.559.559 0 00.183-.13.605.605 0 00.164-.425.636.636 0 00-.162-.426.552.552 0 00-.181-.13.522.522 0 00-.429 0l-.148.06a.589.589 0 00-.304.327.646.646 0 000 .46zm2.957 0a.586.586 0 00.303.326.529.529 0 00.43.003l.145-.066a.56.56 0 00.182-.13.639.639 0 00.003-.85.529.529 0 00-.61-.133l-.146.064a.585.585 0 00-.305.325.644.644 0 00-.002.46zm-5.067 2.104c.06.15.173.27.316.333a.562.562 0 00.448.003l.15-.064a.608.608 0 00.276-.334.644.644 0 00-.01-.442.605.605 0 00-.288-.32.562.562 0 00-.42-.037l-.151.064a.602.602 0 00-.318.331.644.644 0 00-.003.47m2.973.422a.622.622 0 00.168.198.814.814 0 00.252.133.958.958 0 00.593 0l.201-.064a.686.686 0 00.37-.334.494.494 0 00-.013-.443.707.707 0 00-.388-.321.974.974 0 00-.561-.031l-.201.068a.814.814 0 00-.252.132.624.624 0 00-.169.198.5.5 0 000 .468M37.115 3.77l.156-.068a.617.617 0 00.283-.338.637.637 0 00-.01-.445.615.615 0 00-.297-.324.59.59 0 00-.432-.036l-.164.069a.616.616 0 00-.292.339.636.636 0 00.01.452c.058.144.168.26.306.326a.59.59 0 00.44.025zm.054 8.087a4.97 4.97 0 00-2.695-2.285 4.923 4.923 0 00-3.52.094 4.976 4.976 0 00-2.572 2.427 5.035 5.035 0 00-.325 3.534l9.112-3.77zm1.716.813l-4.248 1.754.666 1.625c.183.452.18.958-.006 1.408-.187.45-.543.807-.991.993a1.696 1.696 0 01-.614.135l.48 1.18a1.85 1.85 0 01-.373 2.04 1.826 1.826 0 01-1.315.544 1.817 1.817 0 01-1.304-.57 1.84 1.84 0 01-.386-.617l-1.801-4.409-1.116.461 8.419 20.642a.25.25 0 00.324.138l10.535-4.352a.258.258 0 00.134-.326l-8.404-20.645z"/><path d="M32.181 16.589a.617.617 0 01.809.34.637.637 0 00.828.349.633.633 0 00.394-.587.64.64 0 00-.047-.244l-.69-1.664-3.487 1.438 1.839 4.501a.636.636 0 00.827.348.635.635 0 00.347-.83l-1.144-2.84a.62.62 0 01.332-.811m-1.703-8.042a6.633 6.633 0 011.612-.381l-.954-1.83-2.847 1.05.76 1.906c.44-.306.923-.557 1.437-.745"/></g><defs><clipPath id="clip0"><path fill="#fff" d="M0 0h54.062v54.062H0z"/></clipPath></defs></svg>