<svg width="55" height="55" fill="none" xmlns="http://www.w3.org/2000/svg"><path d="M53.331 45.602l-.025-.025.03-.038-.756-.634-5.255-4.882-.245.24a1.839 1.839 0 01-.135.153c-1.2 1.123-5.043 4.363-9.558 4.422H37.1c-2.378-.258-4.688-1.533-7.036-3.894-3.899-3.92-8.232-6.04-12.895-6.336h-.389a16.2 16.2 0 00-2.111-.059c-7.029.291-12.249 5-14.023 6.817-.367.35-.6.591-.642.642l.026.025-.03.034.726.625 5.259 4.883s.093-.097.245-.241l.135-.152c1.2-1.12 5.043-4.359 9.554-4.422h.291c2.374.257 4.688 1.529 7.037 3.89 3.898 3.92 8.232 6.044 12.894 6.335h.389c.702.062 1.407.08 2.112.055 7.024-.287 12.248-4.996 14.022-6.813.368-.35.6-.595.642-.642M35.58 1.276c9.198 0 16.974 7.488 16.974 16.353 0 4.993-2.484 10.982-6.336 15.205l-.11.123-.16-.03a2.074 2.074 0 01-1.288-.844 2.395 2.395 0 01-2.534.506c-.376.723-.52 1.504.485 1.791.938.266 2.2-.08 3.134-.22a46.352 46.352 0 016.408-.249c.743.03.743 1.179 0 1.153a53.744 53.744 0 00-7.324.376c-.934.135-2.112.321-3.029-.114-1.545-.756-1.267-2.04-.667-3.23a27.436 27.436 0 01-1.508-1.036c1.508-.659 3.468-3.607 4.811-6.183.95-1.82 2.809-5.676 2.602-7.628 1.157.794 2.065 1.491 2.534 2.4.136-.839.207-1.686.211-2.535 0-7.024-7.357-11.742-14.225-11.742-8.506 0-14.225 6.07-14.225 11.742 0 .832.066 1.662.194 2.483.494-.895 1.386-1.583 2.534-2.365-.025.282-.018.565.021.845 0-.38.072-.663.258-.781a.193.193 0 01.06-.03.423.423 0 01.194-.046c.996 0 3.176 2.454 4.97 5.887 1.796 3.434 2.733 6.682 2.235 7.603a.46.46 0 01-.152.181.544.544 0 01-.203.064h-.08c.038 0 .076.05.114.067-2.061 1.483-3.447 2.535-5.28.816a2.897 2.897 0 01-1.09.903l-.194.076-.135-.152c-3.759-4.223-6.187-10.136-6.187-15.048 0-8.87 7.771-16.35 16.97-16.35" fill="#FFD100"/><path d="M46.4 16.899a.423.423 0 01.194.042l.063.03c.845.544-.292 4.046-2.28 7.868-1.817 3.493-3.89 6.027-4.87 6.027h-.056a.423.423 0 01-.198-.063.49.49 0 01-.156-.186c-.503-.938.422-4.224 2.268-7.708 1.845-3.485 4.033-5.968 5.043-5.968" fill="#FFD100"/></svg>