<svg width="55" height="55" fill="none" xmlns="http://www.w3.org/2000/svg"><g clip-path="url(#clip0)" fill="#FFD100"><path d="M53.35 45.868l-.029-.025.034-.038-.756-.638-5.275-4.882s-.09.097-.241.245l-.14.152c-1.199 1.123-5.043 4.363-9.553 4.422h-.292c-2.373-.258-4.688-1.533-7.036-3.894-3.899-3.92-8.228-6.044-12.895-6.336h-.389a16.915 16.915 0 00-2.111-.055C7.643 35.107 2.418 39.82.648 41.636c-.371.35-.6.592-.646.642l.026.026-.03.033.756.638 5.254 4.883s.093-.097.245-.241l.14-.152c1.2-1.12 5.043-4.359 9.553-4.422h.288c2.377.262 4.692 1.533 7.04 3.894 3.899 3.92 8.228 6.044 12.895 6.335h.389c.702.063 1.407.081 2.111.055 7.024-.287 12.249-4.996 14.019-6.812.367-.35.6-.596.646-.642M49.888 15.58c-.123-.16-1.44-1.832-3.286-2.11l-2.404-2.404L40.82.506a.697.697 0 00-.748-.485H40a.71.71 0 00-.7.689v12.248h-7.602V.71a.71.71 0 10-1.42 0v21.899a8.311 8.311 0 00.05.955c.149 2.618.706 10.183 2.197 13.54a.705.705 0 00.647.423h4.645a.701.701 0 00.647-.423c.197-.451.365-.916.502-1.39l1.03 1.505a.709.709 0 00.588.308h2.619a.713.713 0 00.713-.71c0-7.425 4.194-14.52 5.994-17.224a3.464 3.464 0 00-.03-4.033l.009.02zm-18.191 7.05v-1.385h.033l3.802-3.126 3.767 3.092v1.381a.143.143 0 000 .042.172.172 0 000 .047v.063c0 .093-.021.346-.042.73-.266 2.657-1.85 4.706-3.764 4.706-1.913 0-3.467-2.015-3.758-4.646-.03-.55-.047-.878-.047-.895l.009-.009zm7.594-7.594v4.35l-2.64-2.204 2.64-2.146zm1.419-1.047l2.75-1.64 1.545 1.55c-1.098.782-2.222 2.413-3.07 3.861a20.366 20.366 0 00-1.225 2.336v-6.107zm2.01-2.851l-2.01 1.195V4.819l2.01 6.319zm-4.92 3.286l-2.277 1.867-2.276-1.867H37.8zm-3.38 2.787l-2.724 2.205v-4.469l2.725 2.264z"/></g><defs><clipPath id="clip0"><path fill="#fff" d="M0 0h54.062v54.062H0z"/></clipPath></defs></svg>