<svg width="55" height="55" fill="none" xmlns="http://www.w3.org/2000/svg"><g clip-path="url(#clip0)" fill="#FFD100"><path d="M53.336 46.819l-.026-.026.03-.033-.752-.638-5.258-4.883s-.093.098-.245.241c0 0-.06.063-.14.152-1.2 1.12-5.047 4.359-9.553 4.422H37.1c-2.373-.262-4.688-1.533-7.036-3.894-3.899-3.92-8.232-6.044-12.895-6.335h-.389a16.953 16.953 0 00-2.111-.055C7.64 36.057 2.42 40.766.646 42.582c-.367.355-.6.596-.642.642l.026.026-.03.038.752.633 5.254 4.866s.093-.097.245-.245l.14-.152c1.199-1.124 5.042-4.363 9.553-4.422h.291c2.374.257 4.689 1.533 7.037 3.894 3.898 3.92 8.232 6.044 12.895 6.335h.388c.702.063 1.408.08 2.112.055 7.024-.287 12.249-5 14.023-6.817.367-.35.6-.59.642-.642"/><path d="M38.873 9.714a13.959 13.959 0 1013.963 13.96 13.975 13.975 0 00-13.963-13.94v-.02zm5.803 8.304a2.644 2.644 0 11-.008 5.288 2.644 2.644 0 01.008-5.288zm-12.164 0a2.644 2.644 0 110 5.288 2.644 2.644 0 010-5.288zm14.179 12.937a11.404 11.404 0 01-15.628 0 11.606 11.606 0 01-2.37-3.117l.934-.423a10.556 10.556 0 002.175 2.834 10.364 10.364 0 0014.154 0 10.694 10.694 0 002.17-2.834l.93.423a11.424 11.424 0 01-2.365 3.117z"/></g><defs><clipPath id="clip0"><path fill="#fff" d="M0 0h54.062v54.062H0z"/></clipPath></defs></svg>