<svg width="55" height="55" fill="none" xmlns="http://www.w3.org/2000/svg"><g clip-path="url(#clip0)" fill="#FFD100"><path d="M53.336 46.557l-.03-.03.034-.034-.756-.637-5.254-4.887s-.093.097-.245.24l-.14.153c-1.195 1.123-5.043 4.363-9.553 4.422H37.1c-2.373-.258-4.688-1.533-7.032-3.894-3.903-3.92-8.232-6.044-12.899-6.336h-.389a16.877 16.877 0 00-2.111-.055C7.645 35.787 2.42 40.5.65 42.316c-.371.35-.6.592-.646.638l.03.03-.034.033.756.638 5.254 4.883s.093-.097.245-.241l.14-.152c1.2-1.12 5.043-4.359 9.553-4.422h.292c2.373.257 4.688 1.533 7.036 3.894 3.899 3.92 8.228 6.044 12.895 6.335h.389c.702.063 1.407.08 2.111.055 7.024-.287 12.249-4.996 14.019-6.813.371-.354.6-.595.646-.642"/><path fill-rule="evenodd" clip-rule="evenodd" d="M39.001 18.512l9.947-5.748a.131.131 0 01.173.059.08.08 0 010 .059v20.523a.131.131 0 01-.131.13c-.03 0-.046 0-.076-.03l-9.93-5.73v2.897a.887.887 0 01-.891.883H15.564a.879.879 0 01-.882-.883V15.606a.967.967 0 01.257-.642.887.887 0 01.583-.245 27.643 27.643 0 0112.249 3.333 5.005 5.005 0 004.722-3.345h5.613c.235 0 .46.093.63.257a.972.972 0 01.261.642l.004 2.906zm-18.736-9.22a3.768 3.768 0 007.51 0 8.404 8.404 0 11-7.51 0z"/></g><defs><clipPath id="clip0"><path fill="#fff" d="M0 0h54.062v54.062H0z"/></clipPath></defs></svg>