<svg width="55" height="55" fill="none" xmlns="http://www.w3.org/2000/svg"><g clip-path="url(#clip0)" fill="#FFD100"><path d="M53.334 46.644l-.026-.026.03-.033-.756-.638-5.254-4.883s-.093.097-.245.241l-.14.152c-1.195 1.12-5.043 4.359-9.553 4.422h-.288c-2.377-.262-4.692-1.533-7.036-3.894-3.903-3.92-8.232-6.044-12.899-6.335h-.389a16.877 16.877 0 00-2.111-.055C7.643 35.882 2.418 40.59.648 42.407c-.367.351-.6.596-.646.642l.03.026-.034.038.756.633 5.258 4.887s.093-.097.245-.245l.14-.152c1.2-1.123 5.043-4.363 9.554-4.422h.291c2.374.258 4.688 1.533 7.037 3.894 3.898 3.92 8.227 6.04 12.894 6.336h.389c.702.062 1.407.08 2.112.054 7.023-.287 12.248-5 14.018-6.816.371-.351.6-.592.646-.642"/><path fill-rule="evenodd" clip-rule="evenodd" d="M12.893 3.415c7.121 2.074 14.209 1.74 21.33 0 .777-.19 1.486.604 1.486 1.326v17.587c0 5.96-5.49 10.838-12.151 10.838-6.66 0-12.156-4.878-12.156-10.838V4.741c0-.722.71-1.546 1.491-1.326zm24.713 1.297c4.793.34 9.61-.097 14.263-1.297.798-.19 1.49.604 1.49 1.326v17.587c0 5.96-5.46 10.838-12.155 10.838a13.093 13.093 0 01-7.425-2.272 12.156 12.156 0 003.244-4.992c4.78 1.913 12.295.22 12.295-5.044H37.606V4.712zm10.364 6.162c1.42 0 2.59 1.043 2.59 2.306 0 1.263-1.17 2.306-2.59 2.306-1.419 0-2.584-1.026-2.584-2.306s1.152-2.306 2.584-2.306zm-31.162 0c1.42 0 2.59 1.043 2.59 2.306 0 1.263-1.17 2.306-2.59 2.306-1.419 0-2.584-1.026-2.584-2.306s1.149-2.306 2.584-2.306zm-1.347 9.984h16.194c0 7.742-16.194 7.742-16.194 0zm14.846-9.984c1.436 0 2.59 1.043 2.59 2.306 0 1.263-1.154 2.306-2.59 2.306s-2.585-1.026-2.585-2.306 1.17-2.306 2.585-2.306z"/></g><defs><clipPath id="clip0"><path fill="#fff" d="M0 0h54.062v54.062H0z"/></clipPath></defs></svg>