<svg width="55" height="55" fill="none" xmlns="http://www.w3.org/2000/svg"><path d="M53.342 44.394l-.026-.025.03-.038-.756-.634-5.254-4.874s-.093.097-.245.245l-.14.152c-1.195 1.124-5.042 4.363-9.553 4.422h-.287c-2.378-.257-4.693-1.533-7.037-3.894-3.898-3.92-8.232-6.044-12.899-6.335h-.388a16.877 16.877 0 00-2.112-.055c-7.028.287-12.249 5-14.023 6.817-.371.35-.6.591-.646.642l.03.025-.034.034.756.638 5.258 4.882s.093-.097.245-.24l.14-.152c1.2-1.12 5.043-4.36 9.553-4.423h.292c2.374.262 4.688 1.533 7.037 3.894 3.898 3.92 8.227 6.044 12.894 6.336h.389c.702.062 1.407.08 2.111.055 7.024-.287 12.249-4.997 14.019-6.813.371-.35.604-.595.646-.642M37.776 6.337v5.961h-1.29V3h-18.97v9.298h-1.289V6.337H14v16.251h2.227v-5.954h1.29V26h18.97v-9.366h1.29v5.954H40V6.337h-2.224z" fill="#FFD100"/></svg>