<svg width="472" height="472" fill="none" xmlns="http://www.w3.org/2000/svg"><path fill="#5C2480" d="M0 99V66h33v33zm99-66V0h33v33zm-33 0V0h33v33zm-33 0V0h33v33zM0 33V0h33v33z"/><path fill="#F7A706" d="M66 66V33h33v33zm373-33V0h33v33zM0 472v-33h33v33z"/><path fill="#E85296" d="M0 439v-33h33v33zM33 66V33h33v33zM0 66V33h33v33z"/><path fill="#5C2480" d="M373 472h33v-33h-33zm66-99h33v-33h-33z"/><path fill="#E85296" d="M439 406h33v-33h-33zm0 33h33v-33h-33z"/><path fill="#5C2480" d="M439 472h33v-33h-33z"/><path fill="#F7A706" d="M406 406h33v-33h-33z"/><path fill="#E85296" d="M406 439h33v-33h-33zm0 33h33v-33h-33z"/></svg>