<svg width="32" height="24" fill="none" xmlns="http://www.w3.org/2000/svg"><path d="M28.771 6.855c.187-.465 0-.806-.882-.806h-2.924c-.744 0-1.084.295-1.271.619 0 0-1.487 2.719-3.593 4.482-.68.513-.991.675-1.362.675-.185 0-.454-.162-.454-.627V6.855c0-.558-.215-.806-.835-.806h-4.595c-.464 0-.744.258-.744.504 0 .528 1.054.65 1.162 2.138v3.228c0 .707-.17.836-.543.836-.99 0-3.401-2.73-4.832-5.853-.279-.607-.56-.852-1.307-.852H3.67c-.836 0-1.003.295-1.003.619 0 .582.99 3.462 4.615 7.27 2.416 2.602 5.817 4.012 8.916 4.012 1.857 0 2.086-.313 2.086-.853v-1.966c0-.626.178-.752.766-.752.432 0 1.176.164 2.91 1.417 1.982 1.486 2.31 2.153 3.423 2.153h2.923c.834 0 1.252-.313 1.012-.931-.263-.615-1.21-1.51-2.466-2.57-.682-.603-1.702-1.253-2.013-1.578-.433-.42-.308-.604 0-.976.001 0 3.563-3.761 3.933-5.04z" fill="#000"/></svg>