<svg width="32" height="32" fill="none" xmlns="http://www.w3.org/2000/svg"><path d="M15.998 11.836A4.174 4.174 0 0011.833 16a4.174 4.174 0 004.165 4.166A4.174 4.174 0 0020.164 16a4.174 4.174 0 00-4.166-4.165zM28.492 16c0-1.725.016-3.434-.081-5.156-.097-2-.553-3.775-2.016-5.237-1.466-1.466-3.237-1.92-5.237-2.016-1.725-.097-3.435-.081-5.157-.081-1.725 0-3.434-.016-5.156.081-2 .097-3.775.553-5.237 2.016-1.466 1.465-1.92 3.237-2.016 5.237-.097 1.725-.081 3.434-.081 5.156 0 1.722-.016 3.435.081 5.157.097 2 .553 3.775 2.016 5.237 1.465 1.466 3.237 1.919 5.237 2.016 1.725.097 3.434.08 5.156.08 1.725 0 3.435.017 5.157-.08 2-.097 3.775-.553 5.237-2.016 1.466-1.466 1.919-3.237 2.016-5.237.1-1.722.08-3.432.08-5.157zm-12.494 6.41A6.4 6.4 0 019.588 16a6.4 6.4 0 016.41-6.41 6.4 6.4 0 016.41 6.41 6.4 6.4 0 01-6.41 6.41zm6.672-11.585a1.495 1.495 0 01-1.497-1.497c0-.828.669-1.496 1.497-1.496a1.495 1.495 0 011.383 2.07 1.494 1.494 0 01-1.383.923z" fill="#000"/></svg>