<svg width="32" height="32" fill="none" xmlns="http://www.w3.org/2000/svg"><path d="M16.606 2.024c1.507-.024 3.005-.01 4.5-.024.091 1.786.725 3.605 2.015 4.868C24.408 8.162 26.229 8.754 28 8.955v4.698c-1.66-.055-3.328-.405-4.834-1.13-.657-.3-1.268-.688-1.866-1.085-.008 3.41.014 6.814-.021 10.21-.09 1.63-.621 3.254-1.557 4.598-1.506 2.237-4.119 3.696-6.803 3.742-1.646.095-3.29-.36-4.693-1.198-2.325-1.39-3.961-3.934-4.2-6.664a19.78 19.78 0 01-.013-1.736c.207-2.22 1.29-4.344 2.972-5.789 1.906-1.682 4.576-2.484 7.076-2.01.024 1.729-.044 3.455-.044 5.184-1.143-.375-2.477-.27-3.475.433a4.034 4.034 0 00-1.57 2.041c-.239.592-.17 1.249-.157 1.877.274 1.915 2.09 3.524 4.03 3.35 1.285-.014 2.516-.77 3.186-1.877.217-.388.46-.784.473-1.24.113-2.087.068-4.165.082-6.252.01-4.704-.014-9.394.021-14.082v-.001z" fill="#000"/></svg>