<svg width="64" height="64" fill="none" xmlns="http://www.w3.org/2000/svg"><g clip-path="url(#clip0)" fill="#2474B7" stroke="#2474B7" stroke-width=".53"><path d="M5.161 56.752H32v-2.065H5.161a3.097 3.097 0 01-3.097-3.096V6.17a3.097 3.097 0 013.097-3.096h45.42a3.096 3.096 0 013.096 3.096v23.742h2.065V6.171a5.167 5.167 0 00-5.161-5.16H5.16A5.168 5.168 0 000 6.17v45.42a5.168 5.168 0 005.161 5.161z"/><path d="M4.129 5.14h2.064v2.064H4.13V5.139zm4.129 0h2.065v2.064H8.258V5.139zm4.129 0h2.064v2.064h-2.064V5.139zM4.129 9.268h47.483v2.065H4.13V9.268zM14.756 13.7l-2.622 2.622a5.177 5.177 0 101.46 1.46l2.62-2.623-1.458-1.46zM9.29 23.72a3.097 3.097 0 010-6.194c.461.002.914.108 1.327.31l-2.056 2.056 1.46 1.46 2.057-2.055c.202.413.308.866.31 1.326a3.096 3.096 0 01-3.098 3.096zm8.259-6.194h17.548v2.065H17.549v-2.065zm0 4.129h7.225v2.064H17.55v-2.064zm9.289 0h14.451v2.064H26.838v-2.064zm10.324-4.129h10.323v2.065H37.162v-2.065zm-22.406 8.561l-2.622 2.622a5.177 5.177 0 101.46 1.46l2.62-2.623-1.458-1.46zM9.29 36.107a3.097 3.097 0 010-6.194c.461.002.914.108 1.327.31L8.562 32.28l1.46 1.459 2.057-2.055c.202.413.308.866.31 1.326a3.097 3.097 0 01-3.098 3.097zm8.259-6.194h17.548v2.065H17.549v-2.065zm0 4.129h7.225v2.065H17.55v-2.065zm9.289 0h8.258v2.065h-8.258v-2.065zm10.324-4.129h4.129v2.065h-4.129v-2.065zm-22.406 8.561l-2.622 2.622a5.177 5.177 0 101.46 1.46l2.62-2.622-1.458-1.46zM9.29 48.494a3.097 3.097 0 010-6.194c.461.002.914.108 1.327.31l-2.056 2.057 1.46 1.459 2.057-2.055c.202.413.308.866.31 1.326a3.097 3.097 0 01-3.098 3.097zm8.259-6.194h13.419v2.065h-13.42V42.3zm0 4.13h7.225v2.064H17.55v-2.065zm9.289 0h4.129v2.064h-4.13v-2.065zm21.679 16.516c8.552 0 15.484-6.933 15.484-15.484 0-8.552-6.932-15.484-15.484-15.484S33.033 38.91 33.033 47.462c.01 8.547 6.937 15.473 15.484 15.484zm0-28.904c7.411 0 13.42 6.008 13.42 13.42 0 7.411-6.009 13.419-13.42 13.419s-13.42-6.008-13.42-13.42c.01-7.407 6.012-13.41 13.42-13.419z"/><path d="M42.219 48.032l-1.848.923 2.065 4.13a1.032 1.032 0 00.918.57c.274 0 .536-.108.73-.302l12.387-12.387-1.46-1.46L43.638 50.88l-1.418-2.848z"/></g><defs><clipPath id="clip0"><path fill="#fff" d="M0 0h64v64H0z"/></clipPath></defs></svg>