<svg width="64" height="64" fill="none" xmlns="http://www.w3.org/2000/svg"><path d="M61.874 20.94L36.362 8.476c-2.2-1.1-5.938-1.1-8.138 0L2.127 20.939C.293 21.82 0 23.065 0 23.725c0 .66.293 1.833 2.126 2.786l2.126 1.026v11.73c-1.32.513-2.273 1.833-2.273 3.299s.953 2.786 2.2 3.299l-3.3 10.483h9.238l-3.3-10.483c1.32-.513 2.2-1.833 2.2-3.3 0-1.539-.953-2.785-2.272-3.298V28.783l3.885 1.907v15.248c0 .22.073.44.22.66.367.44 7.184 9.75 21.113 9.75 13.93 0 20.747-9.383 21.04-9.75.147-.22.22-.44.22-.66V30.763l8.651-4.252C63.707 25.63 64 24.385 64 23.725c-.073-.66-.293-1.906-2.126-2.786zM50.877 45.571c-1.172 1.466-7.477 8.504-18.914 8.504-11.436 0-17.74-7.038-18.914-8.504V31.716l15.175 7.258c1.1.513 2.566.806 4.033.806 1.54 0 3.005-.293 4.105-.88l14.515-7.11v13.782zm9.97-21.114l-8.797 4.326c-.366 0-.66.146-.806.44L35.336 36.92c-1.54.806-4.546.806-6.159 0L9.604 27.537l22.506-2.639c.66-.073 1.1-.66 1.026-1.246-.073-.66-.66-1.1-1.246-1.027l-26.098 3.08-2.64-1.247c-.66-.293-.806-.66-.806-.66 0-.073.147-.366.806-.66l26.099-12.536c.806-.366 1.906-.586 3.006-.586 1.173 0 2.346.22 3.079.586l25.512 12.463c.66.293.806.587.806.733 0 0-.22.367-.806.66z" fill="#2474B7"/></svg>