<svg width="64" height="64" fill="none" xmlns="http://www.w3.org/2000/svg"><path d="M10.668 16c.283 0 .554-.113.754-.313l4.267-4.266a1.067 1.067 0 00-1.508-1.508l-4.267 4.266A1.067 1.067 0 0010.668 16zm-.756 6.087a1.067 1.067 0 001.508 0l10.667-10.666a1.067 1.067 0 00-1.508-1.508L9.912 20.579a1.067 1.067 0 000 1.508zm45.196 21.589a13.334 13.334 0 10-17.414 0A13.576 13.576 0 0028.8 56.32v6.613c0 .59.477 1.067 1.066 1.067h33.067c.59 0 1.067-.477 1.067-1.067V56.32a13.576 13.576 0 00-8.893-12.644zM35.201 33.6c0-6.186 5.014-11.2 11.2-11.2 6.185 0 11.2 5.014 11.2 11.2 0 6.186-5.015 11.2-11.2 11.2-6.183-.007-11.193-5.017-11.2-11.2zm26.666 28.267h-6.4v-2.134a1.067 1.067 0 00-2.133 0v2.134H39.467v-2.134a1.067 1.067 0 00-2.133 0v2.134h-6.4V56.32a11.552 11.552 0 018.945-11.102 13.256 13.256 0 0013.043 0 11.552 11.552 0 018.946 11.102v5.547z" fill="#2474B7"/><path d="M60.8 0H43.733a3.2 3.2 0 00-3.2 3.2v2.133h-32a3.2 3.2 0 00-3.2 3.2v27.392L.2 43.114c-.117.186-.186.4-.199.62v3.2A4.267 4.267 0 004.267 51.2h22.538a1.067 1.067 0 000-2.133H4.267a2.133 2.133 0 01-2.134-2.134V44.8h15.559l1.82 1.82c.2.2.472.313.755.313h9.066a1.067 1.067 0 100-2.133h-8.625l-1.353-1.355.614-1.845h11.423a1.067 1.067 0 000-2.133H19.2c-.459 0-.866.294-1.011.73l-.824 2.47H3.14l3.81-5.334h22.918a1.067 1.067 0 100-2.133h-5.334v-2.667a1.067 1.067 0 10-2.133 0V35.2h-2.133v-2.741a5.372 5.372 0 013.78-5.174 7.512 7.512 0 10-1.873-1.518 7.506 7.506 0 00-4.04 6.692V35.2H7.466V8.533c0-.589.477-1.066 1.066-1.066h32v2.88l-2.986 4.473a2.133 2.133 0 001.779 3.313H60.8a3.2 3.2 0 003.2-3.2V3.2A3.2 3.2 0 0060.8 0zM27.733 15.467A5.333 5.333 0 1122.4 20.8a5.34 5.34 0 015.333-5.333zm34.134-.534c0 .59-.478 1.067-1.067 1.067H39.326l3.161-4.741a1.07 1.07 0 00.18-.592V3.2c0-.59.477-1.067 1.066-1.067H60.8c.59 0 1.067.478 1.067 1.067v11.733z" fill="#2474B7"/><path d="M57.6 5.333H46.934a1.067 1.067 0 000 2.134H57.6a1.067 1.067 0 000-2.134zm0 5.334H46.934a1.067 1.067 0 100 2.133H57.6a1.067 1.067 0 100-2.133z" fill="#2474B7"/></svg>