<svg width="62" height="62" fill="none" xmlns="http://www.w3.org/2000/svg"><g clip-path="url(#clip0)" fill="#2474B7"><path d="M56.453 49.7l-2.503-.87a6.044 6.044 0 002.302-4.745V42.25a6.06 6.06 0 00-6.053-6.053 6.06 6.06 0 00-6.053 6.053v1.835c0 1.922.901 3.636 2.302 4.746l-2.503.868a8.244 8.244 0 00-3.921 2.885h-6.761v-2.668a8.26 8.26 0 00-5.548-7.798l-2.503-.869a6.044 6.044 0 002.303-4.746V34.67a6.06 6.06 0 00-6.053-6.053 6.06 6.06 0 00-6.054 6.053v1.834c0 1.922.902 3.636 2.302 4.746l-2.502.869a8.26 8.26 0 00-5.547 7.798v2.668H.917a.917.917 0 00-.917.917v7.582c0 .506.41.917.917.917h38.154a.95.95 0 00.122-.009c.04.005.081.009.123.009h21.767c.506 0 .917-.41.917-.917v-3.586a8.26 8.26 0 00-5.547-7.797zM45.98 42.25a4.224 4.224 0 014.219-4.218 4.224 4.224 0 014.219 4.218v1.835a4.224 4.224 0 01-4.219 4.219 4.224 4.224 0 01-4.219-4.22V42.25zm-28.737-7.58a4.224 4.224 0 014.219-4.22 4.224 4.224 0 014.218 4.22v1.834a4.224 4.224 0 01-4.218 4.219 4.224 4.224 0 01-4.22-4.219V34.67zm6.143 7.887l.89.31-2.814 4.885-2.816-4.885.891-.31h3.849zm-11.891 7.36a6.425 6.425 0 014.314-6.065l1.073-.373 3.785 6.568a.917.917 0 001.59 0l3.784-6.568 1.073.373a6.425 6.425 0 014.314 6.065v2.668H11.495v-2.668zm-9.66 4.502h37.161a8.223 8.223 0 00-.598 3.08v2.668H1.834v-5.748zm58.33 5.748H40.234v-2.669a6.425 6.425 0 014.314-6.065l3.728-1.294h3.848l3.728 1.294a6.425 6.425 0 014.315 6.065v2.669z"/><path d="M56.191 6.603h-9.316a.917.917 0 000 1.835h9.316a3.979 3.979 0 013.975 3.975V25.13a3.979 3.979 0 01-3.975 3.975H43.596a.917.917 0 00-.917.917v3.9l-4.55-4.549a.917.917 0 00-.648-.268h-7.46a3.98 3.98 0 01-3.974-3.975V12.412a3.979 3.979 0 013.975-3.974h12.565a.917.917 0 100-1.835h-4.8V5.81A5.815 5.815 0 0031.978 0H5.808A5.815 5.815 0 000 5.809v2.028a.917.917 0 101.834 0V5.809A3.979 3.979 0 015.81 1.834h26.17a3.979 3.979 0 013.974 3.975v.794h-5.931a5.815 5.815 0 00-5.809 5.81V22.5h-9.6a.917.917 0 00-.917.917v3.9L9.148 22.77a.917.917 0 00-.649-.268H5.81a3.979 3.979 0 01-3.975-3.975v-6.425a.917.917 0 10-1.834 0v6.425a5.815 5.815 0 005.809 5.81h2.31l5.846 5.845a.915.915 0 001 .199.917.917 0 00.566-.847v-5.198h8.682v.795a5.815 5.815 0 005.809 5.809h7.08l5.845 5.846a.917.917 0 001.566-.649v-5.198H56.19A5.815 5.815 0 0062 25.13V12.412a5.815 5.815 0 00-5.809-5.809z"/></g><defs><clipPath id="clip0"><path fill="#fff" d="M0 0h62v62H0z"/></clipPath></defs></svg>