<svg width="64" height="64" fill="none" xmlns="http://www.w3.org/2000/svg"><path d="M33.73 44.7h-3.46a.937.937 0 100 1.875h3.46a.937.937 0 100-1.875zm-8.464-9.64H14.063a.937.937 0 100 1.876h11.202a.937.937 0 100-1.875zM59.311 3.122H4.688A4.693 4.693 0 000 7.81v38.093a4.693 4.693 0 004.688 4.687H23.43l-3.067 8.415h-1.218a.937.937 0 100 1.875h25.709a.937.937 0 100-1.875h-1.22l-3.066-8.415h18.743A4.693 4.693 0 0064 45.902V7.809a4.693 4.693 0 00-4.688-4.688zM41.64 59.004H22.36l3.067-8.415h13.146l3.067 8.415zm20.485-13.102a2.816 2.816 0 01-2.813 2.812H4.688a2.816 2.816 0 01-2.813-2.812V42.56h50.723l2.776 2.776c.343.342.798.53 1.282.53a1.8 1.8 0 001.282-.53l1.414-1.414c.373-.374.548-.872.526-1.362h2.247v3.34zM49.802 21.823a5.472 5.472 0 00-5.466-5.465 5.472 5.472 0 00-5.466 5.465 5.46 5.46 0 002.162 4.351 7.687 7.687 0 00-3.975 4.58 2.81 2.81 0 01-1.135-2.256V17.295a2.816 2.816 0 012.813-2.813h11.203a2.816 2.816 0 012.812 2.813v11.203c0 .448-.104.88-.303 1.272h-1.218a7.674 7.674 0 00-3.589-3.596 5.46 5.46 0 002.162-4.35zm-5.466 3.591c-1.98 0-3.59-1.61-3.59-3.59 0-1.98 1.61-3.592 3.59-3.592 1.98 0 3.59 1.611 3.59 3.591 0 1.98-1.61 3.591-3.59 3.591zm10.298 6.23c.023 0 .042 0 .058.04.016.038.002.052-.013.067l-2.424 2.424a1.94 1.94 0 000 2.74l5.371 5.37.002.002.354.354-1.326 1.326-5.726-5.727a1.932 1.932 0 00-1.37-.566c-.497 0-.992.189-1.37.566l-2.423 2.424c-.016.015-.03.03-.069.013-.038-.016-.038-.035-.038-.058v-8.912c0-.034.028-.062.062-.062h8.912zm-3.911 9.042h-2.327l1.12-1.12a.062.062 0 01.088 0l1.119 1.12zm11.402 0H60.25V9.059a2.19 2.19 0 00-2.188-2.188H5.938A2.19 2.19 0 003.75 9.06v8.157a.937.937 0 101.875 0V9.059c0-.173.14-.313.313-.313h52.124c.173 0 .313.14.313.313v31.323l-4.794-4.793a.063.063 0 010-.089l2.423-2.423a1.932 1.932 0 00.42-2.111 1.932 1.932 0 00-1.79-1.196h-.183c.115-.41.174-.837.174-1.272V17.295a4.693 4.693 0 00-4.688-4.688H38.734a4.693 4.693 0 00-4.687 4.688v11.203a4.695 4.695 0 003.416 4.51l.021.007c.398.11.817.17 1.25.17h2.238a.937.937 0 100-1.875h-2.126c.746-2.346 2.96-4.02 5.49-4.02a5.79 5.79 0 014.732 2.48h-3.346a1.94 1.94 0 00-1.937 1.937v3.353h-5.05a.937.937 0 100 1.875h5.05v3.684l.002.066H5.625v-19.72a.937.937 0 10-1.875 0v19.72H1.875V7.81a2.816 2.816 0 012.813-2.813h54.624a2.816 2.816 0 012.813 2.813v32.877zM12.798 33.01l.013.003a4.66 4.66 0 001.252.171h11.203c2.384.047 4.736-2.083 4.687-4.687V17.295a4.693 4.693 0 00-4.687-4.688H14.063a4.693 4.693 0 00-4.688 4.688v11.203c0 2.146 1.45 3.96 3.423 4.513zm1.377-1.7c.745-2.347 2.959-4.022 5.489-4.022s4.744 1.675 5.49 4.022h-10.98zm1.898-9.488c0-1.98 1.611-3.59 3.591-3.59 1.98 0 3.591 1.61 3.591 3.59 0 1.98-1.61 3.591-3.59 3.591a3.595 3.595 0 01-3.592-3.59zm-4.823-4.528a2.816 2.816 0 012.813-2.813h11.202a2.816 2.816 0 012.813 2.813v11.203a2.81 2.81 0 01-1.135 2.256 7.688 7.688 0 00-3.975-4.58 5.46 5.46 0 002.162-4.35 5.472 5.472 0 00-5.466-5.466 5.472 5.472 0 00-5.466 5.465 5.46 5.46 0 002.162 4.351 7.687 7.687 0 00-3.975 4.58 2.81 2.81 0 01-1.135-2.256V17.295z" fill="#2474B7"/></svg>