<svg width="64" height="64" fill="none" xmlns="http://www.w3.org/2000/svg"><g clip-path="url(#clip0)" fill="#2474B7"><path d="M32.744 13.061c-4.367 4.367-4.367 11.473 0 15.84a11.164 11.164 0 007.92 3.275c2.867 0 5.736-1.092 7.92-3.276 4.366-4.366 4.366-11.472 0-15.839-4.368-4.367-11.473-4.367-15.84 0zm14.69 14.69c-3.733 3.734-9.808 3.734-13.541 0-3.733-3.733-3.733-9.807 0-13.54a9.545 9.545 0 016.77-2.8c2.452 0 4.904.933 6.771 2.8 3.734 3.733 3.734 9.807 0 13.54z"/><path d="M33.382 23.308a.812.812 0 00.633-.959 6.847 6.847 0 01-.138-1.368.812.812 0 10-1.625 0c0 .57.057 1.14.17 1.694a.813.813 0 00.96.633zm7.28 4.459a6.795 6.795 0 01-5.94-3.502.812.812 0 10-1.42.788 8.42 8.42 0 007.36 4.339.812.812 0 100-1.625zm6.65-8.155c.091.448.137.908.137 1.369a.812.812 0 101.625 0c0-.57-.057-1.14-.17-1.694a.812.812 0 10-1.592.325zm-7.462-6.229c0 .449.363.812.812.812a6.744 6.744 0 015.8 3.263.812.812 0 101.389-.845 8.357 8.357 0 00-7.189-4.043.812.812 0 00-.812.813z"/><path d="M61.71 38.253l-9.26-9.26c3.772-5.545 3.205-13.179-1.708-18.091a14.406 14.406 0 00-2.175-1.789v-8.3A.812.812 0 0047.754 0H2.32a.812.812 0 00-.812.812v62.376c0 .448.363.812.812.812h45.434a.812.812 0 00.813-.812v-30.34l.112-.076 9.256 9.256c.52.52 1.203.78 1.887.78.683 0 1.367-.26 1.887-.78a2.652 2.652 0 00.782-1.888c0-.713-.277-1.383-.782-1.887zm-12.117-8.341a12.547 12.547 0 01-8.93 3.699 12.547 12.547 0 01-8.93-3.7 12.547 12.547 0 01-3.7-8.93c0-3.373 1.314-6.545 3.7-8.93a12.547 12.547 0 018.93-3.7c3.373 0 6.545 1.314 8.93 3.7 4.925 4.924 4.925 12.936 0 17.86zm-2.651 32.463H3.132V1.625h43.81v6.552a14.198 14.198 0 00-6.28-1.45c-1.56 0-3.081.249-4.52.728h-2.53a.812.812 0 00-.516 1.44 14.372 14.372 0 00-3.247 2.798.811.811 0 00-.771-1.066h-8.734a.812.812 0 100 1.624h8.734a.808.808 0 00.396-.103 14.198 14.198 0 00-1.13 1.65h-8a.812.812 0 100 1.625h7.185c-.213.504-.397 1.02-.55 1.546h-6.635a.812.812 0 100 1.625h6.263a14.366 14.366 0 00-.173 1.547h-6.09a.812.812 0 100 1.625h6.086c.028.521.085 1.037.168 1.546h-6.254a.812.812 0 100 1.625h6.619c.15.526.332 1.043.543 1.547h-7.162a.812.812 0 100 1.624h7.968c.325.56.687 1.1 1.09 1.615a.808.808 0 00-.324-.067h-8.734a.812.812 0 100 1.625h8.734a.812.812 0 00.793-.986 14.53 14.53 0 003.19 2.75.812.812 0 00.551 1.408h2.373c1.485.514 3.06.782 4.678.782 2.213 0 4.349-.502 6.279-1.45v28.59zM60.56 40.88a1.045 1.045 0 01-1.476 0l-9.107-9.107a14.23 14.23 0 001.474-1.48l9.11 9.11c.197.197.305.46.305.738 0 .279-.108.541-.306.739z"/><path d="M15.808 4.284H7.074a.812.812 0 00-.812.812v12.686c0 .449.363.813.812.813h8.734a.812.812 0 00.812-.813V5.096a.812.812 0 00-.812-.812zm-.812 12.686h-7.11V5.909h7.11v11.06zm.812 3.171H7.074a.812.812 0 100 1.625h8.734a.812.812 0 000-1.625zm0 3.172H7.074a.812.812 0 100 1.625h8.734a.812.812 0 000-1.625zm0 3.171H7.074a.812.812 0 100 1.625h8.734a.812.812 0 000-1.625zm0 3.172H7.074a.812.812 0 100 1.625h8.734a.812.812 0 100-1.625zm0 3.171H7.074a.812.812 0 100 1.625h8.734a.812.812 0 000-1.625zm0 3.172H7.074a.812.812 0 100 1.625h8.734a.812.812 0 000-1.625zm0 3.171H7.074a.812.812 0 100 1.625h8.734a.812.812 0 000-1.625zm0 3.172H7.074a.812.812 0 100 1.625h8.734a.812.812 0 000-1.625zm0 3.171H7.074a.812.812 0 100 1.625h8.734a.812.812 0 000-1.625zm0 3.172H7.074a.812.812 0 100 1.625h8.734a.812.812 0 000-1.625zm0 3.171H7.074a.812.812 0 100 1.625h8.734a.812.812 0 100-1.625zm0 3.172H7.074a.812.812 0 100 1.625h8.734a.812.812 0 000-1.625zm0 3.172H7.074a.812.812 0 100 1.624h8.734a.812.812 0 100-1.625zm4.536-52.291h8.733a.812.812 0 100-1.625h-8.733a.812.812 0 100 1.625zm0 3.171h8.733a.812.812 0 100-1.625h-8.733a.812.812 0 100 1.625zm0 25.372h8.733a.812.812 0 100-1.625h-8.733a.812.812 0 100 1.625zm-.813 2.359V52.67c0 .448.364.812.813.812h22.003a.812.812 0 00.812-.812V36.81a.812.812 0 00-.812-.812H20.344a.812.812 0 00-.813.812zm1.625.813h20.378v14.232H21.156V37.624zm7.922 17.404h-8.734a.812.812 0 100 1.625h8.733a.812.812 0 100-1.625zm0 3.172h-8.734a.812.812 0 100 1.624h8.733a.812.812 0 100-1.625zm4.535-52.291h8.734a.812.812 0 100-1.625h-8.734a.812.812 0 100 1.625zm8.734 49.119h-8.734a.812.812 0 100 1.625h8.734a.812.812 0 100-1.625zm0 3.172h-8.734a.812.812 0 100 1.624h8.734a.812.812 0 100-1.625z"/></g><defs><clipPath id="clip0"><path fill="#fff" d="M0 0h64v64H0z"/></clipPath></defs></svg>