<svg width="169" height="169" fill="none" xmlns="http://www.w3.org/2000/svg"><g clip-path="url(#clip0)"><path d="M127.353 108.768l8.21-14.22c3.4-5.89 1.382-13.423-4.508-16.823L105.031 62.7a2.8 2.8 0 00-3.822 1.04 17.667 17.667 0 00-1.963 5.1L48.88 39.761c-3.984-2.3-9.205-.967-11.432 3.058A8.213 8.213 0 0040.53 53.9l7.11 4.105-24.63 42.661L87 137.611l7.11 4.104c5.891 3.402 13.422 1.383 16.823-4.507l7.54 4.353a3.608 3.608 0 004.929-1.32l12.812-22.191a3.608 3.608 0 00-1.321-4.929l-7.54-4.353z" fill="#FFDCC8"/><path d="M130.917 39.724L85.824 13.69c-5.21-3.008-11.896-1.217-14.904 3.993l-50.665 87.753c-3.008 5.21-1.216 11.896 3.994 14.904l45.093 26.035c5.21 3.008 11.896 1.216 14.904-3.994l50.664-87.753c3.008-5.21 1.217-11.896-3.993-14.904z" fill="#5766CB"/><path d="M84.245 142.382l50.664-87.754c3.008-5.21 1.216-11.896-3.994-14.904l-22.546-13.017-61.575 106.651 22.547 13.017c5.21 3.008 11.896 1.217 14.904-3.993z" fill="#3342AA"/><path d="M126.939 45.76l-3.569-2.06-2.06 3.569c-3.131 5.422-10.064 7.28-15.487 4.15l-17.58-10.151c-5.423-3.13-7.28-10.064-4.15-15.486l2.06-3.57-3.568-2.06a4.126 4.126 0 00-5.63 1.509l-50.238 87.014a4.127 4.127 0 001.509 5.63l44.354 25.608a4.127 4.127 0 005.63-1.508l50.238-87.015a4.126 4.126 0 00-1.509-5.63z" fill="#9DC6FB"/><path d="M78.21 138.405l50.237-87.015a4.125 4.125 0 00-1.508-5.629l-3.569-2.06-2.06 3.568c-3.131 5.423-10.064 7.28-15.487 4.15l-8.79-5.075-46.63 80.766 22.177 12.804a4.126 4.126 0 005.63-1.509z" fill="#BED8FB"/><path d="M23.01 100.667a8.21 8.21 0 108.209-14.222 8.21 8.21 0 00-8.21 14.222z" fill="#FFC5BB"/><path d="M48.317 77.357a8.213 8.213 0 0011.215-3.005 8.213 8.213 0 00-3.005-11.215l-14.22-8.21a8.213 8.213 0 00-11.215 3.005 8.213 8.213 0 003.005 11.215l3.555 2.053a8.213 8.213 0 00-11.215 3.005 8.213 8.213 0 003.005 11.215l10.666 6.157a8.213 8.213 0 0011.215-3.005 8.213 8.213 0 00-3.006-11.215z" fill="#FFC5BB"/><path d="M61.218 123.837l-13.387-7.729a3.609 3.609 0 013.608-6.249l13.387 7.729a3.608 3.608 0 11-3.608 6.249z" fill="#BED8FB"/><path d="M66.145 122.516a3.608 3.608 0 00-1.32-4.929l-6.694-3.864-3.608 6.249 6.693 3.864a3.609 3.609 0 004.929-1.32z" fill="#00BDCD"/><path d="M129.999 104.185l5.564-9.638c3.401-5.89 1.383-13.422-4.508-16.822L105.032 62.7a2.791 2.791 0 00-3.812 1.021c-4.89 8.47-1.977 19.337 6.491 24.226l5.972 3.448L87 137.61l7.11 4.105c5.891 3.401 13.422 1.383 16.823-4.507l7.54 4.353a3.608 3.608 0 004.929-1.32l15.458-26.774a3.609 3.609 0 00-1.321-4.929l-7.54-4.353z" fill="#FFC5BB"/><path d="M48.316 77.358l-10.665-6.157a8.213 8.213 0 00-11.215 3.005 8.213 8.213 0 003.005 11.215l10.665 6.157a8.213 8.213 0 0011.215-3.005 8.213 8.213 0 00-3.005-11.215zm55.102 31.814l-16.42 28.44 7.11 4.105c5.89 3.401 13.422 1.383 16.823-4.508l7.54 4.354a3.609 3.609 0 004.929-1.321l8.458-14.65-28.44-16.42z" fill="#FFADAD"/></g><defs><clipPath id="clip0"><path fill="#fff" transform="rotate(30 31.03 115.994)" d="M0 0h123.15v123.15H0z"/></clipPath></defs></svg>