<svg width="148" height="148" fill="none" xmlns="http://www.w3.org/2000/svg"><g clip-path="url(#clip0)"><path d="M21.082 106.465a2.168 2.168 0 00-2.168 2.168v1.459a2.168 2.168 0 004.336 0v-1.459c0-1.197-.97-2.168-2.168-2.168zm0 21.556a2.168 2.168 0 00-2.168 2.168v1.46a2.168 2.168 0 004.336 0v-1.46c0-1.197-.97-2.168-2.168-2.168zm7.113-12.818a2.16 2.16 0 001.532-.634l1.033-1.031a2.168 2.168 0 00-3.064-3.068l-1.033 1.032a2.167 2.167 0 001.532 3.701zM12.434 125.71l-1.032 1.032a2.168 2.168 0 003.064 3.068l1.032-1.032a2.168 2.168 0 00-3.064-3.068zm20.169-7.739h-1.46a2.168 2.168 0 100 4.336h1.46a2.168 2.168 0 000-4.336zm-19.413 2.168a2.168 2.168 0 00-2.168-2.168H9.56a2.168 2.168 0 100 4.336h1.46a2.168 2.168 0 002.168-2.168zm16.537 5.571a2.168 2.168 0 00-3.064 3.068l1.033 1.032a2.164 2.164 0 003.066-.002 2.168 2.168 0 00-.002-3.066l-1.033-1.032zm-15.261-15.24a2.168 2.168 0 00-3.064 3.068l1.032 1.031a2.16 2.16 0 001.532.634 2.168 2.168 0 001.532-3.701l-1.032-1.032zM121.477 1.063c-1.198 0-2.168.97-2.168 2.167v1.46a2.168 2.168 0 104.336 0V3.23a2.168 2.168 0 00-2.168-2.167zm0 21.554c-1.198 0-2.168.97-2.168 2.168v1.46a2.168 2.168 0 104.336 0v-1.46a2.168 2.168 0 00-2.168-2.168zm7.113-12.816a2.16 2.16 0 001.532-.634l1.033-1.032a2.168 2.168 0 00-3.064-3.067l-1.033 1.031a2.167 2.167 0 001.532 3.702zM112.831 20.31l-1.033 1.032a2.168 2.168 0 003.064 3.067l1.033-1.031a2.168 2.168 0 00-3.064-3.068zm20.167-7.742h-1.461a2.168 2.168 0 000 4.336h1.461a2.168 2.168 0 000-4.336zm-19.414 2.168a2.168 2.168 0 00-2.168-2.168h-1.461a2.168 2.168 0 000 4.336h1.461c1.198 0 2.168-.97 2.168-2.168zm16.54 5.572a2.168 2.168 0 00-3.064 3.068l1.033 1.031a2.16 2.16 0 001.532.634 2.168 2.168 0 001.532-3.702l-1.033-1.031zM112.831 9.165a2.16 2.16 0 001.532.634 2.168 2.168 0 001.532-3.702l-1.033-1.031a2.168 2.168 0 10-3.064 3.067l1.033 1.032z" fill="#F25817"/><path d="M75.578.935l4.754 8.694a1.8 1.8 0 00.715.715l8.694 4.754c1.247.682 1.247 2.474 0 3.156l-8.693 4.755a1.8 1.8 0 00-.715.714l-4.755 8.694c-.682 1.247-2.473 1.247-3.155 0l-4.755-8.694a1.798 1.798 0 00-.715-.714l-8.693-4.755c-1.248-.682-1.248-2.474 0-3.156l8.693-4.754c.302-.165.55-.413.715-.715L72.422.936c.683-1.248 2.474-1.248 3.156 0z" fill="#FCA309"/><path d="M89.741 15.098l-8.693-4.754a1.799 1.799 0 01-.715-.715L75.578.935c-.682-1.247-2.474-1.247-3.156 0l-2.14 3.915 1.46 2.673a9.993 9.993 0 003.974 3.973c4.095 2.24 4.095 8.121 0 10.36a9.993 9.993 0 00-3.973 3.974l-1.462 2.672 2.141 3.915c.683 1.247 2.474 1.247 3.156 0l4.754-8.693c.166-.302.414-.55.715-.715l8.694-4.755c1.247-.682 1.247-2.473 0-3.156z" fill="#FD8E09"/><path d="M18.254 26.264l4.754 8.693a1.8 1.8 0 00.715.715l8.693 4.754c1.248.682 1.248 2.474 0 3.156l-8.693 4.755c-.301.165-.55.413-.714.714l-4.755 8.694c-.682 1.247-2.473 1.247-3.156 0l-4.754-8.694a1.798 1.798 0 00-.715-.714L.935 43.582c-1.247-.682-1.247-2.473 0-3.156l8.694-4.754c.302-.165.55-.413.715-.715l4.754-8.693c.683-1.248 2.474-1.248 3.156 0z" fill="#FCA309"/><path d="M32.416 40.426l-8.693-4.754a1.799 1.799 0 01-.715-.715l-4.755-8.693c-.682-1.248-2.473-1.248-3.155 0l-2.141 3.914 1.461 2.673a9.994 9.994 0 003.974 3.973c4.095 2.24 4.095 8.121 0 10.36a9.994 9.994 0 00-3.973 3.974l-1.462 2.672 2.141 3.915c.682 1.247 2.474 1.247 3.155 0l4.755-8.693c.165-.302.413-.55.715-.715l8.693-4.755c1.248-.682 1.248-2.473 0-3.156z" fill="#FD8E09"/><path d="M132.902 38.297l4.755 8.693c.165.302.413.55.715.715l8.693 4.754c1.247.683 1.247 2.474 0 3.156l-8.693 4.755c-.302.165-.55.413-.715.715l-4.755 8.693c-.682 1.247-2.473 1.247-3.155 0l-4.755-8.694a1.797 1.797 0 00-.715-.714l-8.693-4.755c-1.247-.682-1.247-2.473 0-3.156l8.693-4.754c.302-.165.55-.413.715-.715l4.755-8.693c.682-1.247 2.473-1.247 3.155 0z" fill="#FCA309"/><path d="M147.065 52.46l-8.694-4.755a1.809 1.809 0 01-.715-.715l-4.754-8.693c-.682-1.247-2.474-1.247-3.155 0l-2.142 3.915 1.462 2.672a9.993 9.993 0 003.973 3.973c4.095 2.24 4.095 8.121 0 10.361a9.993 9.993 0 00-3.973 3.973l-1.462 2.672 2.142 3.915c.682 1.248 2.473 1.248 3.155 0l4.754-8.693a1.81 1.81 0 01.715-.715l8.694-4.754c1.247-.683 1.247-2.475 0-3.157z" fill="#FD8E09"/><path d="M87.153 147.763c.335-7.094 2.871-34.601 21.957-73.246 1.559-3.157 5.633-4.069 8.379-1.864a5.496 5.496 0 011.143 7.319c-6.262 9.44-21.444 34.432-31.04 67.861-.073.257-.452.197-.44-.07zm-23.835-.006c-.917-12.084-5.631-59.508-24.622-88.441-1.729-2.634-5.324-3.256-7.826-1.34a5.406 5.406 0 00-1.097 7.461c6.643 9.174 22.072 34.336 33.103 82.384.062.27.463.213.442-.064zm10.238.029l-5.015-94.76a5.466 5.466 0 1110.915.026l-5.452 94.735c-.016.282-.433.281-.448-.001z" fill="#F13555"/></g><defs><clipPath id="clip0"><path fill="#fff" d="M0 0h148v148H0z"/></clipPath></defs></svg>