<svg width="148" height="148" fill="none" xmlns="http://www.w3.org/2000/svg"><g clip-path="url(#clip0)"><path d="M13.455 53.818h121.089c7.431 0 13.455 6.024 13.455 13.455v60.544c0 7.431-6.024 13.455-13.455 13.455H13.454C6.025 141.272 0 135.248 0 127.817V67.273c0-7.43 6.024-13.455 13.455-13.455z" fill="#354EC1"/><path d="M13.453 74h121.091v40.364c0 7.43-6.024 13.454-13.455 13.454H26.908c-7.43 0-13.455-6.024-13.455-13.454V74z" fill="#E7CEFF"/><path d="M30.273 100.908h87.453c5.573 0 10.091 4.518 10.091 10.091 0 5.573-4.518 10.091-10.091 10.091H30.273c-5.573 0-10.091-4.518-10.091-10.091 0-5.573 4.518-10.091 10.09-10.091z" fill="#DEBAEF"/><path d="M0 67.273v67.273C0 141.976 6.024 148 13.455 148h121.09c7.431 0 13.455-6.024 13.455-13.454V67.273c0-7.43-6.024-13.455-13.455-13.455H13.455C6.024 53.818 0 59.842 0 67.273zm141.273 47.091a6.727 6.727 0 01-6.728 6.727H13.455a6.727 6.727 0 01-6.728-6.727V67.273a6.727 6.727 0 016.728-6.727h121.09a6.727 6.727 0 016.728 6.727v47.091z" fill="#5F7BCE"/><path d="M134.545 53.818H13.455C6.024 53.818 0 59.842 0 67.273v47.091c0 7.43 6.024 13.454 13.455 13.454h121.09c7.431 0 13.455-6.024 13.455-13.454V67.273c0-7.43-6.024-13.455-13.455-13.455.001 0 0 0 0 0zm6.728 60.546a6.727 6.727 0 01-6.728 6.727H13.455a6.727 6.727 0 01-6.728-6.727V67.273a6.727 6.727 0 016.727-6.727h121.091a6.727 6.727 0 016.728 6.727v47.091z" fill="#7C94D7"/><path d="M134.545 53.818H13.455C6.024 53.818 0 59.842 0 67.273v5.772a3.364 3.364 0 006.727.001v-5.773a6.735 6.735 0 016.728-6.727h121.09a6.736 6.736 0 016.728 6.727v5.556a3.364 3.364 0 106.727 0v-5.556c0-7.43-6.024-13.455-13.455-13.455.001 0 0 0 0 0z" fill="#A7B7E4"/><path d="M121.089 47.092H26.908c-7.43 0-13.455 6.023-13.455 13.454v40.364c0 7.431 6.024 13.454 13.455 13.455h94.181c7.431 0 13.455-6.024 13.455-13.455V60.546c0-7.43-6.024-13.454-13.455-13.454.001 0 .001 0 0 0z" fill="#F6EDFF"/><path d="M60.544 53.816a6.727 6.727 0 006.727 6.727H94.18a6.727 6.727 0 110 13.455H67.27a6.727 6.727 0 100 13.454h6.728a6.727 6.727 0 110 13.454H60.544a6.727 6.727 0 000 13.455h60.545c7.431 0 13.455-6.024 13.455-13.455V60.542c0-7.43-6.024-13.454-13.455-13.454H67.271a6.73 6.73 0 00-6.727 6.728z" fill="#F0E1FF"/><path d="M73.999 40.364a6.727 6.727 0 01-6.727-6.728V6.727a6.727 6.727 0 1113.455 0v26.91a6.727 6.727 0 01-6.728 6.727z" fill="#19E77C"/><path d="M69.244 38.392a6.727 6.727 0 009.514 0l13.454-12.3a6.728 6.728 0 00-9.514-9.514l-13.454 12.3a6.727 6.727 0 000 9.514z" fill="#19E77C"/><path d="M78.757 38.392a6.727 6.727 0 01-9.514 0l-13.454-12.3a6.728 6.728 0 019.513-9.514l13.455 12.3a6.727 6.727 0 010 9.514zm35.606 15.424H33.636c0 7.431-6.023 13.455-13.454 13.455V94.18c7.43 0 13.454 6.024 13.454 13.454v.001h80.727c0-7.431 6.024-13.455 13.455-13.455V67.271c-7.431 0-13.455-6.024-13.455-13.455zM74 100.907c-11.146 0-20.182-9.036-20.182-20.182 0-11.146 9.036-20.181 20.182-20.181 11.146 0 20.182 9.035 20.182 20.181S85.146 100.907 74 100.907z" fill="#19E77C"/><path d="M127.816 94.182V67.273c-7.43 0-13.454-6.024-13.454-13.454H60.544a6.727 6.727 0 006.727 6.726H94.18a6.727 6.727 0 110 13.455h-1.236c3.823 10.356-1.473 21.85-11.83 25.673a19.997 19.997 0 01-7.116 1.236H60.544a6.727 6.727 0 00-6.728 6.727h60.546c0-7.43 6.023-13.454 13.454-13.454z" fill="#00C864"/><path d="M20.18 134.545h107.637a6.727 6.727 0 010 13.455H20.18a6.727 6.727 0 110-13.455z" fill="#3E60C4"/></g><defs><clipPath id="clip0"><path fill="#fff" d="M0 0h148v148H0z"/></clipPath></defs></svg>