<svg width="148" height="148" fill="none" xmlns="http://www.w3.org/2000/svg"><path d="M89.913 120.965l-14.237-4.166-17.59 4.166-3.184 14.323h38.194l-3.183-14.323z" fill="#DAD8DB"/><path d="M59.68 113.805l-1.592 7.161h31.828l-1.592-7.161H59.68z" fill="#C8C5C9"/><path d="M140.839 18.32H7.162a7.15 7.15 0 00-2.387.408l-2.011 6.754v81.295a7.161 7.161 0 007.16 7.161H140.84l6.754-2.521c.264-.747.407-1.55.407-2.387V25.482a7.16 7.16 0 00-7.161-7.162z" fill="#ECEAEC"/><path d="M140.838 106.642H7.161a2.387 2.387 0 01-2.388-2.387V25.481a2.387 2.387 0 012.388-2.387h133.677a2.386 2.386 0 012.387 2.387v78.774a2.387 2.387 0 01-2.387 2.387z" fill="#fff"/><path d="M90.707 30.256h-74a2.387 2.387 0 00-2.387 2.387v40.58a2.387 2.387 0 002.387 2.388h74a2.387 2.387 0 002.387-2.387V32.643a2.387 2.387 0 00-2.387-2.387z" fill="#E5646E"/><path d="M60.829 53.39l-14.287 7.938c-1.603.89-1.64-.269-1.64-2.103V46.19l2.841-1.435 12.094 6.719.992 1.918z" fill="#fff"/><path d="M102.646 137.675h-57.29a2.386 2.386 0 01-2.387-2.388 2.386 2.386 0 012.387-2.387h57.29a2.385 2.385 0 012.387 2.387 2.386 2.386 0 01-2.387 2.388z" fill="#ECEAEC"/><path d="M133.676 46.965h-26.258a2.387 2.387 0 01-2.387-2.387V32.643a2.387 2.387 0 012.387-2.387h26.258a2.387 2.387 0 012.388 2.387v11.935a2.387 2.387 0 01-2.388 2.387zM90.71 89.932H14.323a2.386 2.386 0 01-2.388-2.387 2.386 2.386 0 012.388-2.387H90.71a2.386 2.386 0 012.387 2.387 2.386 2.386 0 01-2.387 2.387z" fill="#E5646E"/><path d="M21.484 99.481h-7.161a2.386 2.386 0 01-2.388-2.387 2.386 2.386 0 012.388-2.387h7.16a2.386 2.386 0 012.388 2.387 2.386 2.386 0 01-2.387 2.387zm52.516 0H31.031a2.386 2.386 0 01-2.387-2.387 2.386 2.386 0 012.387-2.387h42.967a2.386 2.386 0 012.387 2.387A2.386 2.386 0 0174 99.481z" fill="#C8C5C9"/><path d="M9.548 111.42a4.775 4.775 0 01-4.774-4.775V18.73C2 19.717 0 22.37 0 25.484v83.548a7.162 7.162 0 007.161 7.162H140.84c3.113 0 5.768-1.999 6.755-4.774H9.548z" fill="#DAD8DB"/><path d="M26.258 73.224a9.548 9.548 0 01-9.548-9.549v-33.42h-2.387a2.387 2.387 0 00-2.388 2.388V75.61a2.387 2.387 0 002.388 2.387H90.71a2.387 2.387 0 002.387-2.387v-2.388H26.258z" fill="#DB4655"/><path d="M60.827 52.025l-.992-.551-7.519 4.177c-2.053 1.14-4.575-.344-4.575-2.692v-8.204l-1.201-.668c-1.603-.89-3.573.269-3.573 2.103v15.874c0 1.834 1.97 2.993 3.572 2.102l14.287-7.937c1.65-.916 1.65-3.288 0-4.204z" fill="#FFE6E7"/><path d="M114.58 44.578a7.161 7.161 0 01-7.161-7.16v-7.162h-2.387a2.386 2.386 0 00-2.387 2.387v14.322a2.387 2.387 0 002.387 2.387h28.645a2.387 2.387 0 002.387-2.387v-2.387H114.58z" fill="#DB4655"/><path d="M133.676 75.61h-26.258a2.387 2.387 0 01-2.387-2.387V61.288a2.387 2.387 0 012.387-2.388h26.258a2.387 2.387 0 012.388 2.388v11.935a2.387 2.387 0 01-2.388 2.387z" fill="#E5646E"/><path d="M114.58 73.223a7.161 7.161 0 01-7.161-7.161V58.9h-2.387a2.387 2.387 0 00-2.387 2.388V75.61a2.386 2.386 0 002.387 2.387h28.645a2.387 2.387 0 002.387-2.387v-2.387H114.58z" fill="#DB4655"/><path d="M133.676 104.256h-26.258a2.387 2.387 0 01-2.387-2.387V89.934a2.387 2.387 0 012.387-2.387h26.258a2.387 2.387 0 012.388 2.387v11.935a2.388 2.388 0 01-2.388 2.387z" fill="#E5646E"/><path d="M114.58 101.869a7.16 7.16 0 01-7.161-7.16v-7.162h-2.387a2.386 2.386 0 00-2.387 2.387v14.322a2.386 2.386 0 002.387 2.387h28.645a2.387 2.387 0 002.387-2.387v-2.387H114.58z" fill="#DB4655"/></svg>