<svg width="134" height="134" fill="none" xmlns="http://www.w3.org/2000/svg"><g clip-path="url(#clip0)"><path d="M37.906 134c-4.422 0-8.589-1.579-11.732-4.447-3.355-3.061-5.203-7.317-5.203-11.982a3.918 3.918 0 117.835 0c0 5.582 4.689 8.594 9.1 8.594 3.638 0 7.068-1.85 9.657-5.207 3.482-4.517 5.323-11.535 5.323-20.297V27.552c0-8.256 1.99-15.234 5.755-20.18C62.261 2.618 67.263 0 72.728 0c10.206 0 20.537 9.464 20.537 27.552V40.61a3.918 3.918 0 01-7.835 0V27.552c0-12.944-6.39-19.716-12.702-19.716-2.96 0-5.748 1.52-7.851 4.283-1.895 2.49-4.154 7.187-4.154 15.433v73.109c0 10.659-2.34 19.097-6.954 25.081C49.72 130.99 43.94 134 37.906 134z" fill="#2D2D2D"/><path d="M13.106 111.175l-1.655-11.967a3.917 3.917 0 013.88-4.454h19.281a3.918 3.918 0 013.88 4.454l-1.654 11.967c-.813 5.879-5.902 10.313-11.838 10.313h-.056c-5.936 0-11.025-4.434-11.838-10.313z" fill="#5A5A5A"/><path d="M37.567 96.098a3.917 3.917 0 01.927 3.11l-1.655 11.967c-.814 5.879-5.903 10.313-11.838 10.313h-.028V94.754h9.64c1.133 0 2.21.49 2.954 1.344z" fill="#464646"/><path d="M11.351 99.019L7.763 58.625l2.97-3.14-3.667-4.712-1.41-15.864a3.918 3.918 0 013.556-4.25c2.013-.178 29.427-.179 31.443 0a3.918 3.918 0 013.556 4.25v.006l-1.422 16-4.002 3.648 3.306 4.187-3.577 40.269H11.351z" fill="#7C83E7"/><path d="M40.654 30.66a3.918 3.918 0 013.555 4.255l-1.42 16-4.003 3.648 3.306 4.187-3.577 40.269H24.973V30.525c7.343 0 14.675.045 15.681.135z" fill="#5F69E2"/><path d="M120.912 44.756a3.918 3.918 0 01-3.918-3.917v-6.277a3.918 3.918 0 017.835 0v6.277a3.918 3.918 0 01-3.917 3.917zm-10.969 0a3.918 3.918 0 01-3.918-3.917v-6.277a3.918 3.918 0 017.836 0v6.277a3.918 3.918 0 01-3.918 3.917z" fill="#2D2D2D"/><path d="M76.182 125.802V42.728a3.918 3.918 0 013.917-3.918h49.748a3.918 3.918 0 013.917 3.918v83.074a3.918 3.918 0 01-3.917 3.918H80.099a3.918 3.918 0 01-3.917-3.918z" fill="#7C83E7"/><path d="M88.602 68.539c0-9.028 7.344-16.373 16.372-16.373 9.028 0 16.373 7.345 16.373 16.373 0 9.028-7.345 16.373-16.373 16.373-9.028 0-16.372-7.345-16.372-16.373zm0 34.391c0-9.029 7.344-16.373 16.372-16.373 9.028 0 16.373 7.344 16.373 16.373 0 9.028-7.345 16.372-16.373 16.372-9.028 0-16.372-7.344-16.372-16.372z" fill="#FC0"/><path d="M104.973 52.166c9.028 0 16.372 7.345 16.372 16.373 0 9.028-7.344 16.373-16.372 16.373V52.166zm0 34.393c9.028 0 16.372 7.344 16.372 16.372 0 9.028-7.344 16.373-16.372 16.373V86.559z" fill="#FF9E22"/><path d="M24.933 72.454a3.918 3.918 0 100-7.835 3.918 3.918 0 000 7.835z" fill="#EFEFEF"/><path d="M28.85 68.537a3.917 3.917 0 01-3.877 3.915v-7.83a3.916 3.916 0 013.878 3.915z" fill="#E5E5E5"/><path d="M2.188 23.9c0-12.542 10.203-22.746 22.745-22.746 12.543 0 22.746 10.204 22.746 22.746 0 12.542-10.203 22.746-22.746 22.746-12.542 0-22.745-10.204-22.745-22.746z" fill="#EFEFEF"/><path d="M47.679 23.9c0 12.529-10.183 22.724-22.706 22.745V1.155c12.523.02 22.706 10.215 22.706 22.745z" fill="#E5E5E5"/><path d="M104.973 60c4.707 0 8.537 3.83 8.537 8.537 0 4.708-3.83 8.537-8.537 8.537-4.708 0-8.537-3.83-8.537-8.537 0-4.707 3.83-8.537 8.537-8.537z" fill="#464646"/><path d="M104.973 60c4.707 0 8.537 3.83 8.537 8.537 0 4.708-3.83 8.537-8.537 8.537V60z" fill="#2D2D2D"/><path d="M104.972 72.454a3.918 3.918 0 100-7.835 3.918 3.918 0 000 7.835z" fill="#FC0"/><path d="M108.89 68.537a3.918 3.918 0 01-3.917 3.917V64.62a3.917 3.917 0 013.917 3.918z" fill="#FF9E22"/><path d="M104.973 94.393c4.707 0 8.537 3.83 8.537 8.537 0 4.707-3.83 8.537-8.537 8.537-4.708 0-8.537-3.83-8.537-8.537 0-4.708 3.83-8.537 8.537-8.537z" fill="#464646"/><path d="M104.973 94.393c4.707 0 8.537 3.83 8.537 8.537 0 4.707-3.83 8.537-8.537 8.537V94.393z" fill="#2D2D2D"/><path d="M104.972 106.847a3.918 3.918 0 100-7.836 3.918 3.918 0 000 7.836z" fill="#FC0"/><path d="M108.89 102.929a3.918 3.918 0 01-3.917 3.918v-7.835a3.917 3.917 0 013.917 3.917z" fill="#FF9E22"/><path d="M4.156 27.818h41.79a3.918 3.918 0 000-7.836H4.155a3.918 3.918 0 000 7.836z" fill="#5A5A5A"/><path d="M45.945 19.982a3.918 3.918 0 010 7.836H24.973v-7.836h20.972z" fill="#464646"/><path d="M42.787 50.916l-.696 7.836H7.772l-.696-7.836h35.711z" fill="#5A5A5A"/><path d="M42.092 58.752h-17.12v-7.836h17.816l-.696 7.836z" fill="#464646"/></g><defs><clipPath id="clip0"><path fill="#fff" d="M0 0h134v134H0z"/></clipPath></defs></svg>