<svg width="272" height="50" fill="none" xmlns="http://www.w3.org/2000/svg"><path fill-rule="evenodd" clip-rule="evenodd" d="M-83.664 8.619c-3.94 5-7.592 10.073-10.93 15.12L2.984-43.353c-1.293.045-2.582.079-3.869.112-2.1.055-4.197.11-6.298.211L-83.664 8.62zM-72.17-4.817l53.556-36.944c-5.833 1.138-11.834 3.236-18.197 7.226-13.057 8.188-24.943 18.511-35.36 29.718zm82.752-38.996l-111.84 78.284a352.894 352.894 0 00-5.696 10.1L26.189-47.268c-5.408 2.018-10.568 2.969-15.607 3.455zm48.582-26.2l61.509-42.427c-1.993.142-4.1.459-6.328.965-15.538 3.535-29.93 17.356-44.737 31.576-3.452 3.316-6.927 6.653-10.444 9.886zm68.991-42.095L-110.784 51.896a200.476 200.476 0 00-5.383 11.55L131.79-111.199a25.418 25.418 0 00-3.635-.91zm7.733 2.711L-118.945 70.461a112.344 112.344 0 00-1.794 5.315l261.987-181.131a24.949 24.949 0 00-5.36-4.042zm6.963 5.757L-122.455 82.15c-.583 2.575-1.003 5.073-1.238 7.476L147.198-97.195c-1.241-2.335-2.681-4.51-4.347-6.445zm7.201 12.981L-123.905 94.348c.033 2.746.364 5.332 1.035 7.726L151.373-86.488a62.779 62.779 0 00-1.321-4.17zm2.054 7.02l-272.773 190.931.16.266a19.932 19.932 0 002.687 3.461l271.307-187.14a22.441 22.441 0 00-.166-1.31 84.674 84.674 0 00-1.215-6.209zm1.424 11.92L-115.674 112.95c2.04 1.602 4.413 2.894 7.062 3.91L152.991-67.603c.262-1.401.445-2.775.539-4.116zm-1.844 9.425L-103.873 118.32a50.58 50.58 0 004.737.903L147.542-51.303c1.649-3.765 3.085-7.446 4.144-10.991zm-6.139 15.381L-92.705 119.821c2.927.138 5.982.118 9.131-.04L139.181-33.88c.477-.967.956-1.934 1.435-2.9 1.687-3.402 3.367-6.792 4.931-10.133zm-11.889 24.708L-75.62 119.125c5.06-.57 10.274-1.425 15.511-2.488L130.52-14.435c.923-2.557 1.985-5.152 3.138-7.77zm-4.746 12.851l-174.923 122.44c10.897-3.925 21.929-11.852 33.043-19.837 11.397-8.19 22.881-16.441 34.395-20.503L127.204-.216c.37-3.05.903-6.099 1.708-9.138zm-2.236 14.797L32.593 70.02c3.303-.469 6.53-.649 9.703-.646l84.115-59.244c.073-1.56.157-3.123.265-4.687zm-.733 14.535L54.889 70.127c1.233.123 2.46.252 3.685.381 1.19.125 2.377.25 3.562.369l63.14-43.654c.313-2.4.516-4.817.667-7.245zm-1.563 12.545L68.82 71.431c3.968.235 7.929.256 11.927-.181l39.761-27.422c1.846-3.703 3.056-7.478 3.872-11.305z" fill="#fff"/><path fill-rule="evenodd" clip-rule="evenodd" d="M103.564-1.028a225.18 225.18 0 00-10.93 15.12l97.578-67.091c-1.293.044-2.581.078-3.868.111-2.101.055-4.198.11-6.299.211L103.564-1.028zm11.494-13.435l53.557-36.945c-5.834 1.138-11.835 3.236-18.198 7.226-13.057 8.188-24.943 18.512-35.359 29.719zm82.753-38.997L85.971 24.824a354.132 354.132 0 00-5.697 10.1l133.143-91.838c-5.408 2.017-10.568 2.968-15.606 3.454zm48.581-26.2l61.51-42.427a42.135 42.135 0 00-6.329.966c-15.538 3.534-29.929 17.355-44.737 31.576-3.452 3.315-6.926 6.652-10.444 9.885zm68.991-42.095L76.444 42.25c-1.949 3.875-3.763 7.74-5.383 11.548l247.957-174.642a25.385 25.385 0 00-3.635-.911zm7.733 2.711L68.283 60.814a111.953 111.953 0 00-1.794 5.315l261.987-181.131a24.949 24.949 0 00-5.36-4.042zm6.963 5.758L64.773 72.504c-.582 2.574-1.003 5.072-1.237 7.475l270.89-186.821c-1.241-2.335-2.68-4.51-4.347-6.444zm7.201 12.98L63.323 84.701c.033 2.746.364 5.333 1.035 7.726L338.601-96.135a62.868 62.868 0 00-1.321-4.171zm2.055 7.02L66.561 97.645l.16.267a19.898 19.898 0 002.688 3.46l271.307-187.14a22.464 22.464 0 00-.167-1.31 84.663 84.663 0 00-1.214-6.208zm1.423 11.92L71.554 103.303c2.04 1.603 4.413 2.895 7.062 3.91L340.22-77.25c.261-1.4.444-2.774.538-4.116zm-1.844 9.425L83.356 108.674c1.516.368 3.098.668 4.737.904L334.77-60.95c1.649-3.765 3.085-7.446 4.144-10.991zm-6.138 15.382L94.524 110.175c2.926.137 5.981.117 9.13-.041L326.409-43.527c.477-.967.956-1.934 1.435-2.9 1.687-3.402 3.367-6.792 4.932-10.133zm-11.89 24.708L111.608 109.477c5.06-.57 10.274-1.425 15.512-2.488L317.749-24.082c.922-2.557 1.985-5.152 3.137-7.77zm-4.746 12.85L141.217 103.44c10.897-3.926 21.929-11.853 33.043-19.838 11.398-8.19 22.882-16.441 34.395-20.503L314.432-9.863c.37-3.05.903-6.099 1.708-9.137zm-2.235 14.797l-94.084 64.577c3.303-.468 6.531-.648 9.703-.646L313.639.483c.074-1.56.157-3.123.266-4.687zm-.734 14.535L242.117 60.48c1.233.123 2.461.252 3.685.381 1.19.126 2.377.25 3.562.369l63.141-43.654c.312-2.4.515-4.816.666-7.245zm-1.563 12.546l-55.559 38.907c3.967.235 7.928.256 11.926-.181l39.762-27.422c1.845-3.703 3.055-7.477 3.871-11.304z" fill="#fff"/></svg>