<svg width="214" height="214" fill="none" xmlns="http://www.w3.org/2000/svg"><path d="M34.059 192.085v15.227A6.69 6.69 0 0040.746 214h21.326a6.69 6.69 0 006.688-6.688v-15.227H34.059zm111.179 0v15.227a6.69 6.69 0 006.688 6.688h21.326a6.69 6.69 0 006.688-6.688v-15.227h-34.702z" fill="#454545"/><path d="M207.996 55.352a3.468 3.468 0 01-3.471-3.47c0-2.454-2-4.447-4.447-4.447h-3.812a3.468 3.468 0 01-3.471-3.471 3.468 3.468 0 013.471-3.47h3.812c6.279 0 11.388 5.109 11.388 11.381a3.472 3.472 0 01-3.47 3.477z" fill="#CACACA"/><path d="M213.787 51.266h-13.924v37.597h13.924V51.266z" fill="#6F6F6F"/><path d="M6.006 55.352c1.92 0 3.47-1.551 3.47-3.47a4.45 4.45 0 014.448-4.447h3.812c1.92 0 3.47-1.552 3.47-3.471a3.468 3.468 0 00-3.47-3.47h-3.812c-6.28 0-11.389 5.109-11.389 11.381a3.473 3.473 0 003.47 3.477z" fill="#CACACA"/><path d="M14.136 51.266H.213v37.597h13.924V51.266z" fill="#6F6F6F"/><path d="M183.05 0H30.95c-7.384 0-13.376 5.985-13.376 13.375V133.67h178.851V13.375C196.425 5.985 190.439 0 183.05 0z" fill="#86DAF1"/><path d="M17.574 177.52v3.678c0 7.383 5.992 13.375 13.375 13.375H183.05c7.389 0 13.375-5.993 13.375-13.375v-3.678H17.575z" fill="#ED6262"/><path d="M196.425 158.293H17.575v19.2h178.85v-19.2z" fill="#CD484B"/><path d="M196.425 129.376H17.575v28.944h178.85v-28.944z" fill="#F3F3F3"/><path d="M196.425 37.443H17.575v83.574h178.85V37.443z" fill="#6F6F6F"/><path d="M111.776 37.443h-9.549v83.574h9.549V37.443z" fill="#454545"/><path d="M196.425 121.017H17.575v8.359h178.85v-8.359z" fill="#86DAF1"/><path d="M36.849 173.146a5.23 5.23 0 100-10.459 5.23 5.23 0 000 10.459z" fill="#F3F3F3"/><path d="M50.157 173.146a5.23 5.23 0 100-10.459 5.23 5.23 0 000 10.459zm113.688 0a5.23 5.23 0 100-10.46 5.23 5.23 0 000 10.46z" fill="#FFE21F"/><path d="M177.138 173.146a5.23 5.23 0 100-10.46 5.23 5.23 0 000 10.46z" fill="#F3F3F3"/><path d="M177.259 136.579h-12.82a7.272 7.272 0 00-7.269 7.269 7.262 7.262 0 007.269 7.263h12.82c4.013 0 7.27-3.25 7.27-7.263-.007-4.012-3.257-7.269-7.27-7.269zm-128.761 0h-12.82a7.272 7.272 0 00-7.27 7.269 7.262 7.262 0 007.27 7.263h12.82a7.26 7.26 0 007.262-7.263c.007-4.012-3.25-7.269-7.262-7.269z" fill="#FFBD49"/><path d="M157.965 5.838H52.269c-7.116 0-12.88 5.765-12.88 12.88 0 7.116 5.764 12.887 12.88 12.887h105.696c7.115 0 12.88-5.764 12.88-12.887 0-7.109-5.764-12.88-12.88-12.88z" fill="#454545"/><path opacity=".1" d="M196.425 37.443H17.575v40.5c0 3.818 2.922 7.31 6.82 7.47 4.06.247 7.47-3.003 7.47-7.063v-13.1c0-3.411 2.842-6.006 6.333-5.925h.16c3.411-.08 6.334 2.514 6.334 5.925v14.478c0 3.899 2.842 7.31 6.654 7.55 4.073.16 7.403-2.989 7.51-6.955v-19.34c0-4.066 3.377-7.31 7.49-7.129 3.839.228 6.714 3.658 6.714 7.49v18.471c.114 3.725 2.956 7.015 6.701 7.256 4.14.16 7.47-3.083 7.47-7.142l.08-15.736c0-4.06 3.33-7.31 7.47-7.149 3.818.241 6.741 3.652 6.741 7.55v17.034c.08 3.818 3.25 6.901 7.062 6.901 3.979 0 7.142-3.25 7.142-7.142v-20.29c0-3.09 2.294-5.925 6.493-5.925 3.25-.24 6.006 2.435 6.006 5.605v19.855c0 3.898 2.842 7.302 6.661 7.55 4.139.16 7.55-3.083 7.55-7.142V66.233c0-3.103 2.314-5.925 6.413-5.925 3.491 0 6.333 2.843 6.333 6.253v11.396c0 3.818 2.923 7.31 6.741 7.47 4.06.247 7.551-3.003 7.551-7.062V65.264c0-3.41 2.842-6.006 6.253-5.925h.24c3.411-.08 6.253 2.515 6.253 5.925v14.478c0 3.899 2.922 7.31 6.741 7.55 4.139.16 7.47-3.089 7.47-7.148v-42.7h-.006z" fill="#fff"/></svg>