<svg width="25" height="24" fill="none" xmlns="http://www.w3.org/2000/svg"><g clip-path="url(#clip0)"><path d="M9.454 21.846c-1.038 0-2.106-.084-3.181-.253-1.893-.297-3.809-1.287-4.351-1.584L.5 19.232l1.54-.506c1.682-.553 2.706-.897 3.973-1.434-1.268-.615-2.246-1.72-2.717-3.15l-.358-1.087.293.045a5.34 5.34 0 01-.669-.824c-.606-.921-.927-2.046-.858-3.01l.067-.95.568.22a5.312 5.312 0 01-.515-1.442c-.248-1.236-.04-2.549.585-3.696l.495-.909.662.795c2.094 2.515 4.745 4.007 7.892 4.443-.129-.886-.032-1.74.287-2.507.37-.893 1.031-1.65 1.909-2.189a5.734 5.734 0 013.327-.817c1.243.076 2.371.542 3.267 1.347.438-.113.76-.235 1.196-.399.262-.099.56-.21.932-.339l1.37-.472-.893 2.553c.059-.005.12-.009.183-.012l1.464-.066-.865 1.183c-.05.068-.063.087-.08.113-.07.105-.157.236-1.345 1.822a2.238 2.238 0 00-.418 1.457c.106 2.061-.147 3.926-.752 5.542a9.807 9.807 0 01-2.632 3.9c-1.455 1.31-3.309 2.206-5.512 2.665a16.95 16.95 0 01-3.442.338z" fill="#333"/></g><defs><clipPath id="clip0"><path fill="#fff" d="M.5 0h24v24H.5z"/></clipPath></defs></svg>