<svg width="304" height="105" fill="none" xmlns="http://www.w3.org/2000/svg"><path d="M304 62.387l-.168-.142.168-.19-4.283-3.603-29.955-27.4s-.529.545-1.395 1.351l-.794.854c-6.833 6.28-28.728 24.46-54.424 24.816h-1.66c-13.522-1.446-26.707-8.604-40.084-21.854C149.197 14.13 124.487 2.206 97.901.618h-2.214c-4-.35-8.017-.452-12.03-.308-40.036 1.612-69.774 28.064-79.88 38.256C1.612 40.486.313 41.86.024 42.097l.144.143a.832.832 0 01-.168.213l4.283 3.555 29.955 27.425 1.395-1.375.794-.854c6.81-6.304 28.728-24.484 54.424-24.816h1.636c13.546 1.446 26.707 8.604 40.084 21.854 22.232 21.996 46.894 33.918 73.48 35.554h2.214c3.999.35 8.017.453 12.03.308 40.036-1.612 69.774-28.04 79.879-38.233 2.094-1.99 3.417-3.342 3.682-3.626" fill="#412885"/></svg>