<svg width="21" height="10" fill="none" xmlns="http://www.w3.org/2000/svg"><path d="M21 5.98l-.012-.014.012-.018-.296-.347-2.07-2.637s-.036.053-.096.13l-.054.082c-.472.605-1.985 2.354-3.76 2.388h-.115c-.934-.139-1.845-.827-2.769-2.102C10.306 1.336 8.6.189 6.763.036H6.61a4.864 4.864 0 00-.831-.03C3.013.161.959 2.706.261 3.687c-.15.185-.24.317-.26.34l.01.014A.082.082 0 010 4.06l.296.343 2.07 2.638.095-.132.055-.082c.47-.607 1.985-2.356 3.76-2.388h.113c.936.14 1.845.828 2.769 2.103 1.536 2.117 3.24 3.264 5.076 3.421h.153c.276.034.553.044.83.03 2.766-.155 4.82-2.698 5.519-3.68.144-.19.236-.32.254-.348" fill="#F29400"/></svg>