<svg width="340" height="340" viewBox="0 0 340 340" fill="none" xmlns="http://www.w3.org/2000/svg">
<path d="M279.618 117.014C279.782 116.362 279.874 115.694 279.893 115.022L284.084 112.528C285.494 111.657 287.176 111.34 288.805 111.637C292.258 112.329 295.844 111.714 298.869 109.913L303.958 106.886C305.587 105.917 307.006 104.632 308.133 103.108C309.26 101.584 310.072 99.8508 310.521 98.0094C310.971 96.1681 311.048 94.2556 310.75 92.3838C310.452 90.512 309.784 88.7184 308.784 87.1078C306.737 83.9309 303.531 81.6777 299.848 80.8271C296.166 79.9766 292.297 80.5956 289.063 82.5528L284.284 85.4008C281.257 87.1989 279.005 90.0574 277.965 93.4218C277.45 94.9959 276.369 96.3228 274.931 97.1458L270.731 99.6458C269.349 98.9471 267.813 98.6082 266.265 98.6606C264.718 98.7131 263.208 99.1551 261.876 99.9458L257.234 102.707C248.306 91.1227 237.162 81.4304 224.451 74.1943C211.741 66.9581 197.718 62.3227 183.199 60.5578V55.2008C183.198 53.6522 182.805 52.129 182.059 50.7721C181.313 49.4153 180.236 48.2685 178.929 47.4378V42.5468C178.901 40.8907 179.489 39.2832 180.577 38.0348C182.937 35.4216 184.242 32.0256 184.24 28.5048V22.5838C184.24 20.6881 183.862 18.8115 183.129 17.0635C182.395 15.3156 181.32 13.7314 179.967 12.4037C178.614 11.0759 177.01 10.0311 175.249 9.33044C173.487 8.62976 171.604 8.28721 169.708 8.32283C165.931 8.45784 162.355 10.0606 159.741 12.7905C157.127 15.5204 155.68 19.1621 155.708 22.9418V28.5008C155.707 32.0214 157.012 35.4172 159.37 38.0308C160.46 39.2788 161.047 40.8865 161.019 42.5428V47.4288C159.712 48.2593 158.636 49.406 157.889 50.7629C157.143 52.1199 156.751 53.6432 156.749 55.1918V60.5538C142.234 62.3167 128.215 66.9485 115.507 74.1799C102.798 81.4113 91.6551 91.0978 82.7253 102.676L78.1173 99.9338C76.7856 99.1437 75.2763 98.7021 73.7287 98.6496C72.1812 98.5972 70.6454 98.9357 69.2633 99.6338L65.0633 97.1338C63.6263 96.3111 62.5455 94.9845 62.0303 93.4108C60.9893 90.0512 58.7392 87.1972 55.7153 85.4008L50.9343 82.5568C47.7011 80.5997 43.8321 79.9806 40.1496 80.8312C36.4672 81.6818 33.2616 83.935 31.2143 87.1118C30.2148 88.7224 29.5463 90.516 29.248 92.3879C28.9497 94.2598 29.0276 96.1724 29.477 98.0139C29.9264 99.8553 30.7384 101.589 31.8655 103.113C32.9926 104.637 34.4122 105.921 36.0413 106.89L41.1293 109.917C44.1539 111.719 47.7402 112.334 51.1923 111.641C52.8219 111.344 54.5038 111.661 55.9133 112.531L60.1053 115.031C60.1478 116.581 60.5823 118.095 61.3683 119.431C62.1544 120.768 63.2663 121.883 64.6003 122.674L69.1623 125.387C62.9327 139.436 59.7116 154.633 59.7063 170.001C59.7009 185.369 62.9114 200.568 69.1313 214.621L64.5503 217.346C63.5081 217.962 62.5984 218.778 61.874 219.748C61.1496 220.718 60.6249 221.822 60.3303 222.996C60.1665 223.649 60.0743 224.317 60.0553 224.99L55.8643 227.483C54.4542 228.353 52.7715 228.67 51.1413 228.373C47.6897 227.681 44.1044 228.296 41.0803 230.098L36.2993 232.933C33.0379 234.841 30.6487 237.945 29.6392 241.586C28.6298 245.227 29.0797 249.118 30.8933 252.433C31.8272 254.083 33.0833 255.53 34.5869 256.686C36.0905 257.842 37.811 258.684 39.6463 259.162C40.8426 259.478 42.0748 259.639 43.3123 259.64C45.8712 259.638 48.3818 258.942 50.5773 257.628L55.6653 254.601C58.6931 252.803 60.9449 249.944 61.9833 246.579C62.4998 245.006 63.5806 243.679 65.0173 242.856L69.2243 240.356C70.5117 241.007 71.9334 241.35 73.3763 241.356C75.031 241.357 76.6552 240.91 78.0763 240.063L82.6873 237.32C91.6171 248.914 102.765 258.615 115.482 265.857C128.199 273.099 142.23 277.738 156.757 279.503V284.803C156.759 286.351 157.151 287.874 157.897 289.231C158.644 290.588 159.72 291.735 161.027 292.565V297.451C161.055 299.107 160.468 300.715 159.378 301.964C157.02 304.577 155.715 307.973 155.716 311.493V317.056C155.687 320.836 157.134 324.478 159.748 327.208C162.363 329.938 165.939 331.54 169.716 331.675H169.987C173.769 331.673 177.396 330.17 180.07 327.495C182.743 324.821 184.246 321.194 184.246 317.412V311.501C184.248 307.98 182.942 304.584 180.583 301.971C179.495 300.723 178.907 299.115 178.935 297.459V292.573C180.242 291.742 181.319 290.596 182.065 289.239C182.811 287.882 183.204 286.359 183.205 284.811V279.511C197.737 277.746 211.772 273.106 224.492 265.86C237.211 258.615 248.361 248.91 257.291 237.311L261.937 240.076C263.358 240.923 264.983 241.37 266.637 241.368C268.08 241.362 269.501 241.02 270.788 240.368L274.996 242.868C276.433 243.691 277.514 245.018 278.03 246.592C279.069 249.956 281.32 252.814 284.347 254.612L289.437 257.64C291.632 258.955 294.143 259.65 296.701 259.652C297.939 259.651 299.171 259.49 300.367 259.174C302.203 258.696 303.923 257.854 305.427 256.698C306.93 255.542 308.186 254.095 309.12 252.445C310.934 249.13 311.384 245.239 310.374 241.598C309.364 237.956 306.975 234.852 303.713 232.945L298.933 230.101C295.909 228.299 292.323 227.684 288.871 228.376C287.241 228.673 285.559 228.356 284.149 227.486L279.957 224.992C279.938 224.319 279.846 223.651 279.682 222.999C279.388 221.825 278.863 220.721 278.139 219.751C277.414 218.781 276.505 217.965 275.462 217.349L270.842 214.6C277.055 200.551 280.261 185.357 280.253 169.996C280.246 154.634 277.026 139.444 270.799 125.401L275.399 122.664C276.441 122.048 277.35 121.231 278.075 120.261C278.799 119.292 279.324 118.188 279.618 117.014ZM278.47 103.092C281.381 101.395 283.559 98.6776 284.58 95.4668C285.113 93.7388 286.27 92.2705 287.824 91.3468L292.599 88.5008C294.272 87.4623 296.283 87.1167 298.206 87.5374C300.13 87.9581 301.813 89.1119 302.899 90.7538C303.414 91.5826 303.759 92.5057 303.912 93.4691C304.066 94.4326 304.026 95.417 303.795 96.3649C303.564 97.3128 303.146 98.205 302.566 98.9895C301.986 99.774 301.256 100.435 300.417 100.934L295.329 103.961C293.775 104.886 291.933 105.202 290.159 104.846C286.85 104.211 283.424 104.827 280.543 106.575L277.592 108.331L275.519 104.846L278.47 103.092ZM162.634 22.9418C162.596 20.9738 163.327 19.0685 164.672 17.6307C166.016 16.1929 167.868 15.3359 169.834 15.2418C170.81 15.2232 171.779 15.3993 172.686 15.7597C173.592 16.1201 174.418 16.6576 175.114 17.3409C175.811 18.0241 176.364 18.8394 176.741 19.7389C177.119 20.6384 177.313 21.6042 177.313 22.5798V28.5008C177.314 30.3089 176.643 32.0529 175.431 33.3948C173.193 35.9148 171.97 39.1763 171.999 42.5468V45.9808H167.943V42.5468C167.973 39.1779 166.75 35.9181 164.513 33.3988C163.302 32.0569 162.631 30.3129 162.631 28.5048L162.634 22.9418ZM163.675 55.2008C163.676 54.5935 163.918 54.0112 164.347 53.5817C164.777 53.1523 165.359 52.9106 165.966 52.9098H173.981C174.589 52.9104 175.171 53.1519 175.601 53.5814C176.03 54.011 176.272 54.5934 176.272 55.2008V59.9508C174.187 59.8328 172.088 59.7678 169.972 59.7678C167.856 59.7678 165.759 59.8328 163.672 59.9508L163.675 55.2008ZM49.8373 104.848C48.0642 105.203 46.2222 104.888 44.6683 103.963L39.5813 100.936C38.7427 100.437 38.012 99.7762 37.4319 98.9917C36.8518 98.2072 36.4339 97.3149 36.2028 96.367C35.9717 95.4191 35.9319 94.4346 36.0859 93.4711C36.2398 92.5076 36.5843 91.5845 37.0993 90.7558C38.185 89.1134 39.8683 87.959 41.7916 87.5379C43.7149 87.1168 45.7266 87.4623 47.3993 88.5008L52.1803 91.3458C53.7343 92.2691 54.8901 93.7367 55.4233 95.4638C56.4446 98.6748 58.6216 101.392 61.5323 103.09L64.4833 104.846L62.4103 108.331L59.4583 106.575C56.5756 104.828 53.1475 104.213 49.8373 104.848ZM68.1373 116.714C67.8785 116.56 67.6525 116.357 67.4722 116.117C67.2919 115.876 67.1609 115.602 67.0866 115.31C67.0123 115.019 66.9962 114.715 67.0392 114.418C67.0822 114.12 67.1835 113.833 67.3373 113.575L71.4373 106.686C71.7481 106.164 72.2532 105.787 72.8419 105.637C73.4305 105.487 74.0546 105.576 74.5773 105.886L78.6413 108.304C76.2843 111.783 74.1278 115.394 72.1823 119.119L68.1373 116.714ZM61.4753 236.914C58.5648 238.611 56.3878 241.328 55.3663 244.539C54.8331 246.267 53.677 247.735 52.1223 248.659L47.0353 251.686C46.1968 252.185 45.2673 252.511 44.301 252.647C43.3348 252.782 42.3512 252.724 41.4079 252.475C40.4645 252.226 39.5803 251.791 38.8068 251.196C38.0334 250.602 37.3863 249.859 36.9033 249.011C35.9794 247.273 35.7689 245.244 36.3165 243.354C36.8641 241.464 38.1267 239.861 39.8363 238.887L44.6183 236.043C46.1714 235.118 48.0128 234.802 49.7853 235.158C53.0943 235.792 56.5209 235.176 59.4013 233.428L62.3523 231.672L64.4263 235.158L61.4753 236.914ZM74.5293 234.114C74.0066 234.424 73.3822 234.514 72.7932 234.364C72.2043 234.214 71.6989 233.836 71.3883 233.314L67.2883 226.425C67.1345 226.166 67.0332 225.88 66.9901 225.582C66.9471 225.284 66.9632 224.981 67.0375 224.689C67.1118 224.397 67.2428 224.123 67.4231 223.882C67.6034 223.641 67.8295 223.438 68.0883 223.285L72.1483 220.87C74.0913 224.596 76.2451 228.209 78.5993 231.69L74.5293 234.114ZM177.312 317.414C177.315 318.39 177.122 319.356 176.744 320.256C176.366 321.156 175.811 321.97 175.112 322.652C174.414 323.334 173.588 323.87 172.682 324.231C171.775 324.591 170.806 324.768 169.83 324.752C167.864 324.657 166.012 323.8 164.668 322.363C163.324 320.925 162.593 319.02 162.63 317.052V311.501C162.63 309.693 163.301 307.95 164.512 306.608C166.749 304.088 167.972 300.828 167.942 297.459V294.025H171.999V297.459C171.97 300.828 173.192 304.088 175.429 306.607C176.641 307.949 177.312 309.693 177.311 311.501L177.312 317.414ZM176.27 284.802C176.27 285.409 176.028 285.992 175.599 286.421C175.169 286.851 174.587 287.092 173.979 287.093H165.964C165.357 287.092 164.775 286.85 164.345 286.421C163.916 285.991 163.674 285.409 163.673 284.802V280.11C165.759 280.228 167.858 280.294 169.973 280.294C172.088 280.294 174.186 280.228 176.273 280.11L176.27 284.802ZM290.209 235.15C291.982 234.795 293.824 235.11 295.377 236.035L300.157 238.879C301.867 239.853 303.13 241.455 303.678 243.346C304.226 245.236 304.015 247.265 303.091 249.003C302.608 249.851 301.961 250.594 301.188 251.188C300.415 251.783 299.531 252.218 298.587 252.467C297.644 252.716 296.66 252.774 295.694 252.639C294.728 252.503 293.799 252.177 292.96 251.678L287.871 248.65C286.317 247.727 285.162 246.259 284.628 244.532C283.607 241.321 281.431 238.603 278.52 236.906L275.568 235.15L277.642 231.664L280.593 233.421C283.474 235.17 286.901 235.788 290.211 235.154L290.209 235.15ZM271.909 223.283C272.168 223.436 272.394 223.639 272.574 223.88C272.755 224.121 272.886 224.395 272.96 224.687C273.034 224.979 273.051 225.282 273.007 225.58C272.964 225.878 272.863 226.164 272.709 226.423L268.609 233.312C268.456 233.571 268.253 233.797 268.012 233.977C267.771 234.157 267.497 234.288 267.205 234.363C266.913 234.437 266.61 234.453 266.312 234.41C266.014 234.367 265.728 234.266 265.469 234.112L261.363 231.67C263.717 228.188 265.87 224.575 267.812 220.848L271.909 223.283ZM169.974 273.375C149.535 273.375 129.554 267.314 112.559 255.958C95.5638 244.602 82.3178 228.462 74.4959 209.578C66.674 190.694 64.6274 169.915 68.6151 149.868C72.6028 129.821 82.4455 111.407 96.8987 96.9535C111.352 82.5005 129.766 72.6579 149.813 68.6705C169.86 64.683 190.64 66.7297 209.523 74.5518C228.407 82.3739 244.547 95.62 255.903 112.615C267.259 129.61 273.32 149.591 273.319 170.031C273.288 197.43 262.39 223.698 243.016 243.072C223.642 262.446 197.374 273.344 169.974 273.375ZM272.908 115.31C272.835 115.602 272.704 115.876 272.524 116.117C272.344 116.358 272.118 116.562 271.859 116.715L267.775 119.144C265.831 115.418 263.675 111.807 261.319 108.327L265.419 105.889C265.942 105.579 266.566 105.489 267.155 105.639C267.744 105.789 268.25 106.166 268.56 106.689L272.66 113.578C272.814 113.836 272.915 114.122 272.958 114.419C273 114.716 272.983 115.019 272.908 115.31Z" fill="#5A2E91"/>
<path d="M169.976 81.9004C152.545 81.9002 135.506 87.0688 121.013 96.7527C106.519 106.436 95.2232 120.201 88.5526 136.304C81.8821 152.408 80.1366 170.128 83.5371 187.224C86.9375 204.32 95.3311 220.024 107.656 232.349C119.982 244.675 135.685 253.068 152.781 256.469C169.877 259.87 187.597 258.124 203.701 251.454C219.805 244.784 233.569 233.488 243.253 218.994C252.937 204.501 258.106 187.462 258.106 170.031C258.08 146.666 248.786 124.265 232.264 107.743C215.742 91.2206 193.341 81.9269 169.976 81.9004ZM232.012 117.708L224.365 122.257C213.662 110.052 199.162 101.806 183.201 98.8474V89.9164C202.259 93.0775 219.566 102.931 232.012 117.707V117.708ZM242.743 134.038L226.154 143.907C225.631 144.215 225.007 144.304 224.419 144.154C223.831 144.004 223.326 143.628 223.014 143.107L218.914 136.219C218.604 135.697 218.514 135.072 218.664 134.483C218.814 133.895 219.192 133.389 219.714 133.078L236.276 123.224C238.708 126.656 240.871 130.271 242.743 134.037V134.038ZM235.459 170.031C235.468 177.309 234.258 184.537 231.88 191.415L229.745 190.145C228.413 189.355 226.903 188.913 225.355 188.86C223.807 188.808 222.271 189.147 220.889 189.845L190.874 171.988C190.934 171.342 190.974 170.688 190.974 170.03C190.974 169.339 190.936 168.658 190.874 167.985L220.852 150.15C222.139 150.802 223.561 151.145 225.004 151.15C226.659 151.151 228.283 150.704 229.704 149.856L231.864 148.571C234.255 155.473 235.471 162.727 235.459 170.03V170.031ZM236.321 216.771L219.764 206.921C219.242 206.611 218.864 206.106 218.714 205.517C218.564 204.928 218.654 204.304 218.964 203.781L223.064 196.892C223.375 196.37 223.88 195.993 224.469 195.843C225.058 195.693 225.682 195.783 226.205 196.092L242.779 205.951C240.909 209.719 238.75 213.336 236.321 216.77V216.771ZM97.1848 205.977L113.798 196.094C114.32 195.785 114.945 195.695 115.533 195.845C116.122 195.995 116.627 196.372 116.938 196.894L121.038 203.784C121.191 204.043 121.293 204.329 121.336 204.627C121.379 204.925 121.362 205.228 121.288 205.52C121.214 205.811 121.083 206.085 120.903 206.326C120.722 206.567 120.496 206.77 120.238 206.923L103.647 216.794C101.216 213.362 99.0551 209.745 97.1848 205.977ZM104.494 170.03C104.484 162.717 105.705 155.454 108.106 148.546L110.306 149.856C111.727 150.704 113.351 151.151 115.006 151.15C116.449 151.144 117.87 150.802 119.158 150.15L149.087 167.956C149.02 168.638 148.987 169.33 148.987 170.03C148.987 170.7 149.026 171.362 149.087 172.017L119.121 189.845C117.739 189.147 116.203 188.808 114.655 188.86C113.107 188.913 111.597 189.355 110.266 190.145L108.089 191.44C105.702 184.555 104.487 177.318 104.494 170.03ZM103.694 123.205L120.294 133.08C120.816 133.391 121.193 133.896 121.343 134.485C121.493 135.074 121.404 135.698 121.094 136.22L116.994 143.108C116.683 143.631 116.178 144.009 115.589 144.159C115 144.309 114.375 144.219 113.853 143.908L97.2258 134.016C99.0978 130.251 101.259 126.637 103.69 123.205H103.694ZM214.032 198.538L186.901 182.4C187.702 181.307 188.396 180.139 188.972 178.912L216.101 195.052L214.032 198.538ZM125.978 198.538L123.904 195.051L150.993 178.935C151.57 180.162 152.265 181.329 153.068 182.421L125.978 198.538ZM126.028 141.46L153.114 157.575C152.307 158.665 151.608 159.83 151.026 161.053L123.954 144.946L126.028 141.46ZM155.901 170.03C155.9 167.247 156.725 164.525 158.271 162.21C159.817 159.895 162.014 158.091 164.586 157.025C167.157 155.959 169.987 155.68 172.718 156.222C175.448 156.765 177.956 158.105 179.925 160.073C181.894 162.041 183.234 164.548 183.778 167.279C184.321 170.009 184.043 172.839 182.978 175.411C181.913 177.983 180.109 180.181 177.795 181.728C175.481 183.274 172.759 184.1 169.976 184.1C166.245 184.096 162.668 182.613 160.03 179.975C157.391 177.337 155.906 173.761 155.901 170.03ZM186.857 157.6L213.978 141.465L216.052 144.951L188.941 161.081C188.36 159.857 187.662 158.691 186.857 157.6ZM216.174 127.134C214.844 127.928 213.735 129.044 212.951 130.379C212.166 131.714 211.731 133.225 211.686 134.773L181.692 152.618C180.811 152.033 179.887 151.515 178.928 151.068V116.14C180.235 115.31 181.311 114.163 182.058 112.807C182.804 111.45 183.196 109.927 183.198 108.378V105.878C196.718 108.662 209.01 115.655 218.311 125.854L216.174 127.134ZM172.004 149.134C171.336 149.069 168.616 149.069 167.949 149.134V117.592H172.001L172.004 149.134ZM161.025 116.14V151.063C160.074 151.506 159.158 152.019 158.284 152.598L128.316 134.768C128.27 133.22 127.835 131.709 127.05 130.374C126.266 129.038 125.157 127.923 123.827 127.129L121.659 125.839C130.957 115.65 143.242 108.665 156.754 105.887V108.377C156.755 109.926 157.147 111.45 157.894 112.807C158.641 114.164 159.717 115.311 161.025 116.141V116.14ZM123.778 212.87C124.82 212.254 125.73 211.438 126.455 210.468C127.18 209.498 127.705 208.395 128.001 207.22C128.164 206.568 128.257 205.899 128.277 205.226L158.218 187.413C159.111 188.013 160.05 188.544 161.025 189V223.864C159.717 224.695 158.641 225.841 157.894 227.198C157.148 228.555 156.755 230.079 156.754 231.627V234.182C143.216 231.395 130.911 224.388 121.607 214.167L123.778 212.87ZM167.949 190.924C168.616 190.988 171.336 190.988 172.004 190.924V222.407H167.949V190.924ZM178.928 223.859V189C179.912 188.541 180.859 188.006 181.76 187.4L211.736 205.234C211.781 206.783 212.216 208.294 213 209.63C213.785 210.965 214.894 212.081 216.224 212.874L218.359 214.144C209.056 224.376 196.746 231.391 183.201 234.177V231.622C183.199 230.074 182.806 228.55 182.059 227.193C181.312 225.836 180.235 224.69 178.928 223.859ZM176.274 89.0904V108.378C176.273 108.986 176.032 109.568 175.602 109.998C175.173 110.427 174.59 110.669 173.983 110.669H165.968C165.36 110.669 164.778 110.427 164.349 109.997C163.919 109.568 163.678 108.986 163.677 108.378V89.0904C165.759 88.9304 167.854 88.8224 169.977 88.8224C172.1 88.8224 174.193 88.9304 176.274 89.0904ZM156.754 89.9164V98.8454C140.798 101.799 126.302 110.039 115.601 122.237L107.954 117.688C120.4 102.922 137.702 93.0755 156.754 89.9164ZM94.3948 140.389L102.051 144.944C96.0846 161.11 96.0753 178.873 102.025 195.044L94.3668 199.6C86.8931 180.57 86.9031 159.415 94.3948 140.391V140.389ZM107.906 222.313L115.553 217.764C126.259 229.991 140.773 238.252 156.753 241.212V250.143C137.676 246.98 120.354 237.111 107.906 222.313ZM163.677 250.968V231.622C163.678 231.015 163.919 230.433 164.349 230.003C164.778 229.574 165.36 229.332 165.968 229.331H173.983C174.59 229.332 175.173 229.573 175.602 230.003C176.032 230.433 176.273 231.015 176.274 231.622V250.968C174.193 251.129 172.097 251.236 169.974 251.236C167.851 251.236 165.759 251.129 163.677 250.968ZM183.198 250.143V241.211C199.189 238.255 213.714 229.987 224.42 217.746L232.063 222.293C219.613 237.101 202.286 246.978 183.201 250.143H183.198ZM245.598 199.574L237.939 195.017C243.877 178.861 243.868 161.118 237.913 144.968L245.569 140.413C253.048 159.423 253.058 180.558 245.598 199.574Z" fill="#5A2E91"/>
</svg>
