<svg width="589" height="140" fill="none" xmlns="http://www.w3.org/2000/svg"><path d="M576 139.5l-.268-11.544 10.131 5.54L576 139.5zM1 116l-.78-.625v-.001l.002-.002.005-.007.02-.025.078-.094a63.994 63.994 0 011.511-1.742l1.487 1.338a60.16 60.16 0 00-1.454 1.675l-.068.083-.016.02-.004.004v.001L1 116zm4.34-6.199a152.306 152.306 0 013.595-3.519l1.376 1.451a150.75 150.75 0 00-3.548 3.473l-1.424-1.405zm7.311-6.944a206.964 206.964 0 013.803-3.325l1.299 1.521a208.407 208.407 0 00-3.767 3.293l-1.335-1.489zm7.698-6.573a244.075 244.075 0 013.992-3.185l1.232 1.576a242.331 242.331 0 00-3.96 3.16l-1.264-1.55zm7.936-6.204a275.07 275.07 0 014.065-2.992l1.17 1.62a271.787 271.787 0 00-4.034 2.972l-1.2-1.6zm8.22-5.937a301.35 301.35 0 014.109-2.809l1.115 1.66a314.68 314.68 0 00-4.082 2.79l-1.142-1.641zm8.378-5.624a325.28 325.28 0 014.19-2.67l1.062 1.695c-1.423.891-2.81 1.776-4.164 2.653l-1.088-1.678zm8.532-5.344a346.93 346.93 0 014.277-2.548l1.012 1.725a343.673 343.673 0 00-4.253 2.533l-1.036-1.71zm8.704-5.1a374.198 374.198 0 014.335-2.42l.963 1.753a367.583 367.583 0 00-4.312 2.406l-.986-1.74zm8.835-4.852a389.233 389.233 0 014.398-2.303l.916 1.777a386.067 386.067 0 00-4.375 2.291l-.94-1.765zm8.917-4.597c1.48-.74 2.985-1.48 4.513-2.22l.871 1.8a385.53 385.53 0 00-4.49 2.21l-.894-1.79zm9.037-4.377a427.092 427.092 0 014.645-2.148l.829 1.821a424.137 424.137 0 00-4.624 2.137l-.85-1.81zm9.165-4.173a441.304 441.304 0 014.641-2.016l.786 1.838c-1.56.668-3.1 1.337-4.62 2.008l-.807-1.83zm9.299-3.979c1.52-.63 3.059-1.26 4.616-1.885l.746 1.855c-1.55.624-3.082 1.25-4.595 1.877l-.767-1.847zm9.342-3.757a485.538 485.538 0 014.687-1.8l.707 1.871a481.377 481.377 0 00-4.667 1.792l-.727-1.863zm9.373-3.543a502.43 502.43 0 014.787-1.727l.669 1.885c-1.606.57-3.196 1.144-4.768 1.72l-.688-1.878zm9.519-3.38a523.608 523.608 0 014.735-1.603l.632 1.897a563.24 563.24 0 00-4.717 1.597l-.65-1.891zm9.563-3.187a536.107 536.107 0 014.797-1.523l.596 1.91a538.608 538.608 0 00-4.779 1.517l-.614-1.904zm9.562-2.988c1.603-.485 3.22-.966 4.852-1.443l.562 1.92c-1.626.475-3.238.954-4.835 1.438l-.579-1.915zm9.734-2.848c1.581-.448 3.175-.891 4.782-1.331l.528 1.929c-1.602.438-3.19.88-4.765 1.326l-.545-1.924zm9.642-2.64a652.48 652.48 0 014.941-1.284l.495 1.938c-1.655.423-3.296.85-4.924 1.28l-.512-1.933zm9.774-2.497a656.14 656.14 0 014.858-1.178l.463 1.946c-1.626.387-3.24.779-4.842 1.174l-.479-1.942zm9.789-2.33a614.14 614.14 0 014.965-1.12l.432 1.953c-1.662.367-3.312.74-4.949 1.115l-.448-1.949zm9.809-2.172c1.625-.347 3.263-.69 4.911-1.028l.403 1.96c-1.644.337-3.276.678-4.897 1.024l-.417-1.956zm9.892-2.03a669.39 669.39 0 014.961-.96l.372 1.964c-1.66.315-3.308.634-4.946.957l-.387-1.962zm9.845-1.868c1.638-.299 3.287-.593 4.947-.883l.344 1.97a667 667 0 00-4.933.88l-.358-1.967zm9.958-1.74c1.65-.277 3.31-.549 4.981-.816l.316 1.974a726.65 726.65 0 00-4.967.814l-.33-1.973zm9.889-1.585c1.645-.252 3.301-.5 4.966-.744l.29 1.979c-1.661.243-3.312.49-4.953.742l-.303-1.977zm9.992-1.462c1.666-.232 3.342-.46 5.027-.684l.263 1.983c-1.681.223-3.352.45-5.014.682l-.276-1.981zm9.944-1.32a795.88 795.88 0 014.972-.61l.238 1.985c-1.662.199-3.315.402-4.959.61l-.251-1.985zm9.999-1.196c1.685-.19 3.379-.377 5.082-.56l.212 1.99a807.48 807.48 0 00-5.069.557l-.225-1.987zm10.016-1.07c1.646-.167 3.301-.328 4.964-.486l.189 1.991c-1.66.157-3.311.319-4.953.484l-.2-1.99zm9.981-.945c1.68-.149 3.369-.293 5.067-.433l.164 1.993c-1.693.14-3.378.284-5.055.432l-.176-1.992zm10.104-.834a882.13 882.13 0 014.948-.366l.142 1.995c-1.654.118-3.299.24-4.937.365l-.153-1.994zm9.943-.706c1.673-.11 3.354-.214 5.043-.315l.119 1.997c-1.685.1-3.362.205-5.031.314l-.131-1.996zm10.134-.604c1.66-.09 3.327-.175 5.002-.257l.098 1.998c-1.672.081-3.336.166-4.992.256l-.108-1.997zm9.968-.485c1.663-.072 3.333-.14 5.01-.203l.076 1.998c-1.674.064-3.34.131-4.999.203L333.144.91zm10.065-.382c1.692-.055 3.392-.106 5.099-.153l.055 2c-1.704.046-3.4.097-5.089.152l-.065-1.999zm10.098-.277c1.65-.037 3.307-.07 4.97-.099l.035 2c-1.66.029-3.314.062-4.96.098l-.045-2zm9.982-.173c1.677-.02 3.362-.037 5.053-.05l.015 2c-1.688.013-3.369.03-5.043.05l-.025-2zm10.148-.075C374.289.001 375.144 0 376 0v2c-.855 0-1.707.001-2.558.003l-.005-2zM376 0c.869 0 1.734.001 2.596.004l-.006 2C377.73 2 376.867 2 376 2V0zm7.725.035c1.696.015 3.379.036 5.048.062l-.03 2a806.803 806.803 0 00-5.036-.062l.018-2zm10.016.154c1.642.036 3.271.076 4.886.122l-.056 2a749.543 749.543 0 00-4.874-.123l.044-2zm9.861.28c1.726.06 3.437.126 5.132.198l-.085 1.999c-1.69-.072-3.396-.138-5.117-.199l.07-1.999zM413.774.9c1.665.084 3.314.172 4.949.267l-.116 1.996a640.497 640.497 0 00-4.933-.265l.1-1.998zm9.806.566c1.707.112 3.396.23 5.069.354l-.148 1.995a591.17 591.17 0 00-5.052-.353l.131-1.996zm10.156.755c1.678.14 3.338.285 4.981.438l-.184 1.991a540.889 540.889 0 00-4.963-.436l.166-1.993zm9.859.912c1.67.17 3.321.347 4.954.53l-.223 1.988a493.62 493.62 0 00-4.934-.528l.203-1.99zm10.049 1.13c1.678.207 3.336.42 4.974.641l-.267 1.982a444.39 444.39 0 00-4.952-.638l.245-1.985zm9.83 1.323a407.2 407.2 0 014.947.754l-.314 1.975c-1.619-.257-3.26-.507-4.922-.75l.289-1.98zm9.996 1.59a367.5 367.5 0 014.911.883l-.367 1.966c-1.606-.3-3.234-.593-4.885-.878l.341-1.97zm9.687 1.809c1.702.343 3.378.694 5.028 1.054l-.426 1.954a318.23 318.23 0 00-4.997-1.047l.395-1.961zm9.955 2.17c1.617.38 3.207.77 4.772 1.166l-.491 1.939c-1.554-.394-3.133-.78-4.739-1.158l.458-1.947zm9.653 2.452c1.66.455 3.289.918 4.889 1.39l-.567 1.919a249.145 249.145 0 00-4.849-1.38l.527-1.929zm9.598 2.835c1.632.52 3.231 1.05 4.798 1.589l-.651 1.89a216.608 216.608 0 00-4.754-1.573l.607-1.906zm9.569 3.296c1.556.58 3.078 1.168 4.566 1.767l-.746 1.855a185.996 185.996 0 00-4.518-1.747l.698-1.875zm9.305 3.752c1.556.68 3.073 1.37 4.552 2.07l-.857 1.807a158.151 158.151 0 00-4.496-2.044l.801-1.833zm9.04 4.289c1.536.791 3.026 1.595 4.472 2.409l-.982 1.742a135.89 135.89 0 00-4.406-2.374l.916-1.777zm8.738 4.921a115.81 115.81 0 014.302 2.781l-1.123 1.655a113.823 113.823 0 00-4.228-2.733l1.049-1.703zm8.338 5.655a99.19 99.19 0 014.026 3.175l-1.28 1.537a96.577 96.577 0 00-3.944-3.11l1.198-1.602zm7.778 6.473a84.087 84.087 0 013.627 3.576l-1.446 1.38a83.333 83.333 0 00-3.542-3.491l1.361-1.465zm6.998 7.338a73.991 73.991 0 013.106 3.961l-1.615 1.18a72.05 72.05 0 00-3.023-3.855l1.532-1.286zm5.968 8.187a68.507 68.507 0 012.519 4.378l-1.77.932a65.892 65.892 0 00-2.445-4.249l1.696-1.06zm4.706 8.939a65.87 65.87 0 011.845 4.751l-1.891.651a64.21 64.21 0 00-1.789-4.607l1.835-.795zm3.311 9.606a67.706 67.706 0 011.091 4.94l-1.968.357a65.585 65.585 0 00-1.058-4.792l1.935-.505zm1.815 9.955c.184 1.708.303 3.4.365 5.07l-1.999.073a70.67 70.67 0 00-.354-4.929l1.988-.214zm.382 10.14a80.93 80.93 0 01-.311 5.055l-1.992-.185a78.6 78.6 0 00.304-4.929l1.999.06zm-.93 10.074a90.229 90.229 0 01-.908 4.971l-1.957-.414c.333-1.572.632-3.194.888-4.86l1.977.303zm-2.088 9.885a97.898 97.898 0 01-1.439 4.852l-1.902-.618c.488-1.502.963-3.09 1.41-4.753l1.931.519zm-3.128 9.635a95.797 95.797 0 01-1.922 4.663l-1.828-.81a95.383 95.383 0 001.882-4.567l1.868.714z" fill="#715F7A"/></svg>