<svg width="148" height="166" fill="none" xmlns="http://www.w3.org/2000/svg"><path d="M144.75 67.605h-10.616a61.563 61.563 0 00-8.757-21.142l7.506-7.506a3.242 3.242 0 000-4.584l-13.129-13.128a3.242 3.242 0 00-.994-.676v-9.484C118.761 4.558 115.304 0 110.353 0H94.748c-4.37 0-7.575 3.554-8.266 8.878a3.239 3.239 0 00-3.199-2.74H64.715a3.241 3.241 0 00-3.24 3.24v10.607a61.576 61.576 0 00-21.144 8.764l-7.504-7.504a3.242 3.242 0 00-4.583 0l-13.13 13.129a3.243 3.243 0 000 4.583l7.506 7.505a61.57 61.57 0 00-8.76 21.143H3.25a3.24 3.24 0 00-3.241 3.241v18.567a3.24 3.24 0 003.24 3.24h10.618a61.574 61.574 0 008.765 21.132l-7.517 7.515a3.244 3.244 0 000 4.583l13.13 13.13a3.242 3.242 0 004.583 0l7.52-7.52a61.61 61.61 0 0021.127 8.756v10.63a3.24 3.24 0 003.241 3.241h18.568a3.24 3.24 0 003.241-3.241V140.25c.374-.078.744-.167 1.117-.251L99.647 164.2a3.242 3.242 0 005.806 0l12.026-24.238a3.248 3.248 0 002.275-.949l13.129-13.129a3.242 3.242 0 000-4.583l-7.516-7.516a61.583 61.583 0 008.762-21.13h10.621a3.24 3.24 0 003.241-3.242V70.846a3.241 3.241 0 00-3.241-3.24zM86.341 43.251A38.608 38.608 0 0074 41.25c-21.432 0-38.867 17.436-38.867 38.866 0 21.432 17.435 38.868 38.867 38.868a38.6 38.6 0 0012.341-2.003v16.67a54.869 54.869 0 01-3.57.701 3.24 3.24 0 00-2.728 3.199v10.088H67.956v-10.088a3.24 3.24 0 00-2.728-3.199 54.976 54.976 0 01-23.368-9.683 3.238 3.238 0 00-4.19.335l-7.135 7.135-8.546-8.546 7.132-7.132a3.241 3.241 0 00.335-4.191 54.957 54.957 0 01-9.694-23.37 3.241 3.241 0 00-3.2-2.728H6.49V74.088h10.069a3.241 3.241 0 003.2-2.728 54.948 54.948 0 019.687-23.382 3.241 3.241 0 00-.335-4.19l-7.122-7.121 8.546-8.546 7.12 7.12a3.241 3.241 0 004.191.335 54.964 54.964 0 0123.383-9.693 3.242 3.242 0 002.728-3.2V12.619h12.086v10.063a3.242 3.242 0 002.727 3.2 55.04 55.04 0 013.571.7v16.67zm0 6.915v59.898a32.072 32.072 0 01-12.342 2.438c-17.857 0-32.385-14.528-32.385-32.386 0-17.857 14.528-32.385 32.385-32.385 4.294 0 8.436.82 12.342 2.435zm6.48-39.081c.001-2.539.865-4.603 1.927-4.603h15.605c1.062 0 1.926 2.064 1.926 4.603v9.017H92.822v-9.017zm9.729 144.382l-6.813-13.732a13.98 13.98 0 002.23-.517c1.575-.502 3.214-1.339 4.582-2.43 1.37 1.091 3.009 1.928 4.584 2.43.757.242 1.502.411 2.23.517l-6.813 13.732zm9.729-20.692v.372c-.607.268-1.362.259-1.976.173-2.343-.326-4.164-1.785-4.513-2.409V54.797a3.24 3.24 0 10-6.481 0v78.112c-.344.62-2.166 2.085-4.514 2.411-.612.085-1.367.095-1.973-.173V39.553h19.457v95.222zm0-101.703H92.822v-6.488h19.457v6.488zm6.481-3.655l7.248 7.248-7.121 7.122c-.045.045-.085.092-.127.139V29.417zm7.248 94.175l-7.247 7.248v-14.506c.038.042.075.086.115.127l7.132 7.131zm5.424-37.42a3.24 3.24 0 00-3.199 2.727c-1.329 8.263-4.604 16.226-9.473 23.059V48.274c4.874 6.84 8.151 14.812 9.476 23.084a3.24 3.24 0 003.2 2.728h10.073v12.086h-10.077z" fill="#715F7A"/></svg>