<svg width="163" height="163" fill="none" xmlns="http://www.w3.org/2000/svg"><path d="M113.031 138.983h-15.81c-.195-9.034.64-22.074 3.894-26.232 1.616-2.065 4.576-3.457 9.05-4.256 5.585-.999 9.654-5.985 9.484-11.61-.002-.058-.003-.124-.008-.196-.352-9.713-3.294-22.94-15.275-30.934a34.15 34.15 0 00-9.246-4.307c9.642-13.607 12.205-30.538 6.238-43.53C96.124 6.523 85.107 0 71.138 0h-.407C56.737 0 45.72 6.523 40.485 17.915 34.52 30.907 37.08 47.84 46.722 61.45a34.11 34.11 0 00-9.245 4.305c-12.01 8.012-14.938 21.278-15.28 30.996l-.004.107c-.184 5.636 3.89 10.637 9.484 11.637 4.473.798 7.433 2.191 9.048 4.256 3.25 4.153 4.087 17.194 3.894 26.232h-15.81c-6.266 0-11.364 5.097-11.364 11.363v9.47A3.183 3.183 0 0020.63 163h100.584a3.185 3.185 0 003.184-3.184v-9.47c0-6.266-5.099-11.363-11.366-11.363zM46.271 20.574c4.21-9.167 12.89-14.207 24.483-14.207h.36c11.564 0 20.247 5.042 24.456 14.208 5.572 12.129 2.14 28.557-8.54 40.88a.09.09 0 01-.01.013c-4.13 4.764-9.185 8.781-15.027 11.939a2.25 2.25 0 01-2.148-.001c-5.84-3.157-10.897-7.174-15.027-11.94v-.002h-.002c-10.682-12.327-14.117-28.76-8.544-40.89zm71.758 136.059H23.813v-6.287a5.002 5.002 0 014.996-4.996h29.378a3.184 3.184 0 000-6.367h-7.202c.145-7.279-.137-23.629-5.244-30.155-2.626-3.355-6.86-5.514-12.944-6.601-2.503-.447-4.325-2.668-4.24-5.165l.005-.103c.865-24.403 17.598-29.17 22.585-30.049 4.41 4.792 9.676 8.857 15.671 12.097a8.594 8.594 0 008.204 0c5.996-3.24 11.261-7.304 15.672-12.097 1.9.336 5.492 1.233 9.264 3.553-4.638 2.318-7.193 6.676-7.2 12.284v.03c-.002 2.751-1.187 4.632-3.73 5.918a3.184 3.184 0 002.876 5.682c3.643-1.844 5.962-4.652 6.831-8.227 1.09.21 2.281.612 3.109 1.35.501.45 1.175 1.251 1.244 3.035a3.182 3.182 0 003.178 3.063c.041 0 .082 0 .123-.002a3.184 3.184 0 003.061-3.303c-.117-3.07-1.28-5.677-3.363-7.54-2.004-1.791-4.489-2.589-6.531-2.933.536-1.602 1.572-2.79 3.129-3.6 1.068-.555 2.174-.832 2.991-.969 3.993 4.49 7.24 11.327 7.604 21.728l.003.053v.027c.087 2.5-1.735 4.721-4.238 5.169-6.087 1.087-10.32 3.246-12.944 6.6-5.108 6.528-5.392 22.877-5.244 30.155h-7.202a3.183 3.183 0 100 6.367h10.407l.087.001.086-.001h18.798a5.003 5.003 0 014.996 4.996v6.287z" fill="#715F7A"/><path d="M149.231 27.274l-.184-.222a7.463 7.463 0 00-8.175-2.363l-5.579 1.892-.658-1.938a8.243 8.243 0 00-7.806-5.599c-.893 0-1.783.148-2.649.44-4.306 1.46-6.623 6.151-5.163 10.458l.655 1.935-5.581 1.893a7.492 7.492 0 00-5.05 6.878l-.006.285a31.496 31.496 0 007.147 20.77 7.47 7.47 0 008.145 2.33l5.607-1.902 6.991 20.614a8.192 8.192 0 004.162 4.75 8.214 8.214 0 006.299.41 8.197 8.197 0 004.745-4.159 8.199 8.199 0 00.416-6.3l-6.993-20.613 5.611-1.902a7.42 7.42 0 003.58-2.61 7.424 7.424 0 001.468-4.183v-.005a31.488 31.488 0 00-6.982-20.859zm-24.184.624a1.88 1.88 0 011.173-2.382 1.875 1.875 0 012.386 1.174l.658 1.935-1.931.655-1.631.553-.655-1.935zm21.469 51.594c.162.475.127.985-.094 1.435a1.868 1.868 0 01-1.086.95 1.86 1.86 0 01-1.432-.093 1.866 1.866 0 01-.949-1.084l-6.992-20.613 1.128-.383 2.433-.825 6.992 20.613zm3.333-31.579a1.077 1.077 0 01-.215.61 1.07 1.07 0 01-.52.38l-8.547 2.899a1.31 1.31 0 00-.074.025l-5.044 1.71-13.168 4.467a1.08 1.08 0 01-1.179-.341 25.118 25.118 0 01-5.703-16.577l.007-.285c.012-.461.302-.854.733-1.001l8.534-2.895.059-.019 5.584-1.894 12.604-4.274a1.074 1.074 0 011.181.343l.02.025.173.21a25.09 25.09 0 015.555 16.617zm-127.303 4.79c3.165 0 6.162-1.91 7.388-5.029l3.963-10.086a5.259 5.259 0 00-2.969-6.81l-6.776-2.66a5.258 5.258 0 00-6.809 2.968l-3.962 10.087c-1.316 3.353-.184 7.072 2.532 9.171l-8.688 22.12a3.183 3.183 0 105.926 2.327l8.688-22.119c.236.022.472.031.707.031zm-.721-18.658l-.001-.002v.002zM19.308 43.5l3.554-9.05 4.7 1.846-3.555 9.05a1.562 1.562 0 01-2.023.881l-1.794-.705a1.561 1.561 0 01-.882-2.022zM70.04 56.878h3.9a3.183 3.183 0 100-6.367h-2.75l.968-9.843a3.184 3.184 0 00-6.337-.623l-1.08 10.988a5.332 5.332 0 001.353 4.097 5.332 5.332 0 003.945 1.748zm.886 82.105a3.183 3.183 0 100 6.367h.007a3.18 3.18 0 003.18-3.184 3.187 3.187 0 00-3.187-3.183z" fill="#715F7A"/></svg>