<svg width="584" height="281" fill="none" xmlns="http://www.w3.org/2000/svg"><path d="M575 0l-3.407 11.033 11.258-2.566L575 0zM1 165l-.83.556v.002l.002.002c0 .002.003.004.005.008l.018.027.07.101a51.939 51.939 0 001.365 1.846l1.583-1.222a51.685 51.685 0 01-1.053-1.408 22.368 22.368 0 01-.252-.356l-.06-.088-.014-.02-.003-.004v-.001.001L1 165zm3.833 6.448c.96 1.112 2.077 2.363 3.361 3.738l1.462-1.365a125.132 125.132 0 01-3.309-3.68l-1.514 1.307zm6.854 7.356a174.349 174.349 0 003.586 3.493l1.375-1.452a171.605 171.605 0 01-3.544-3.453l-1.417 1.412zm7.265 6.886a211.966 211.966 0 003.786 3.317l1.3-1.52a205.333 205.333 0 01-3.749-3.285l-1.337 1.488zm7.669 6.559a232.16 232.16 0 003.86 3.082l1.23-1.576a229.447 229.447 0 01-3.826-3.055l-1.264 1.549zm7.851 6.135a249.69 249.69 0 004.048 2.969l1.167-1.624a252.746 252.746 0 01-4.016-2.946l-1.199 1.601zm8.11 5.832c1.362.94 2.76 1.888 4.197 2.843l1.107-1.666a274.98 274.98 0 01-4.167-2.823l-1.136 1.646zm8.33 5.537c1.4.897 2.835 1.797 4.302 2.702l1.05-1.703a292.986 292.986 0 01-4.273-2.683l-1.078 1.684zm8.515 5.252c1.428.849 2.886 1.7 4.373 2.553l.995-1.735a325.504 325.504 0 01-4.346-2.537l-1.022 1.719zm8.68 4.978a337.86 337.86 0 004.42 2.404l.942-1.764a346.806 346.806 0 01-4.394-2.389l-.968 1.749zm8.835 4.722c1.458.752 2.94 1.504 4.446 2.254l.892-1.79a343.368 343.368 0 01-4.421-2.242l-.917 1.778zm8.987 4.479c1.463.705 2.949 1.408 4.457 2.11l.844-1.813a386.96 386.96 0 01-4.433-2.099l-.868 1.802zm9.047 4.21c1.495.672 3.011 1.343 4.549 2.011l.797-1.834a397.03 397.03 0 01-4.526-2.001l-.82 1.824zm9.124 3.967c1.546.65 3.112 1.297 4.698 1.941l.752-1.853a420.57 420.57 0 01-4.675-1.932l-.775 1.844zm9.265 3.764c1.536.603 3.09 1.203 4.663 1.8l.71-1.87a415.657 415.657 0 01-4.642-1.792l-.731 1.862zm9.416 3.573c1.524.558 3.065 1.114 4.623 1.666l.668-1.885a474.038 474.038 0 01-4.603-1.659l-.688 1.878zm9.348 3.312a465.98 465.98 0 004.81 1.618l.628-1.899a454.273 454.273 0 01-4.79-1.611l-.648 1.892zm9.481 3.136c1.572.502 3.16 1.001 4.764 1.495l.59-1.911c-1.598-.493-3.18-.989-4.746-1.489l-.608 1.905zm9.623 2.967c1.562.464 3.138.925 4.729 1.382l.552-1.922a498.647 498.647 0 01-4.71-1.377l-.571 1.917zm9.515 2.732c1.609.446 3.233.887 4.872 1.325l.516-1.933a517.869 517.869 0 01-4.855-1.32l-.533 1.928zm9.701 2.59c1.583.408 3.18.811 4.79 1.21l.482-1.941c-1.605-.398-3.196-.8-4.774-1.206l-.498 1.937zm9.661 2.395c1.637.391 3.288.777 4.952 1.159l.447-1.949a614.147 614.147 0 01-4.935-1.155l-.464 1.945zm9.737 2.236c1.607.355 3.225.705 4.857 1.051l.415-1.956a580.301 580.301 0 01-4.84-1.048l-.432 1.953zm9.787 2.077c1.635.333 3.282.661 4.941.985l.383-1.963c-1.654-.323-3.295-.65-4.925-.982l-.399 1.96zm9.772 1.91c1.621.304 3.254.603 4.899.898l.353-1.968a640.983 640.983 0 01-4.884-.896l-.368 1.966zm9.868 1.771c1.639.281 3.29.558 4.952.831l.323-1.974a724.552 724.552 0 01-4.937-.828l-.338 1.971zm9.812 1.61c1.63.256 3.271.507 4.923.753l.296-1.978a681.266 681.266 0 01-4.91-.751l-.309 1.976zm9.911 1.48c1.653.236 3.318.466 4.992.692l.268-1.982c-1.67-.225-3.33-.455-4.979-.69l-.281 1.98zm9.865 1.334c1.634.209 3.277.415 4.931.616l.241-1.986c-1.649-.2-3.288-.405-4.918-.614l-.254 1.984zm9.921 1.205c1.674.192 3.357.38 5.05.563l.215-1.988c-1.689-.183-3.368-.37-5.037-.562l-.228 1.987zm9.936 1.076c1.633.167 3.274.329 4.925.486l.19-1.99c-1.646-.158-3.284-.32-4.912-.485l-.203 1.989zm9.904.947c1.669.149 3.348.294 5.035.434l.166-1.993c-1.684-.14-3.358-.284-5.023-.433l-.178 1.992zm10.028.835a880.5 880.5 0 004.906.364l.143-1.995c-1.64-.117-3.272-.238-4.895-.363l-.154 1.994zm9.864.704c1.66.109 3.33.214 5.008.314l.119-1.996a922.904 922.904 0 01-4.996-.314l-.131 1.996zm10.067.602c1.644.089 3.295.174 4.955.255l.097-1.998a832.82 832.82 0 01-4.944-.254l-.108 1.997zm9.88.482c1.649.071 3.307.138 4.972.201l.076-1.998c-1.662-.063-3.316-.13-4.962-.202l-.086 1.999zm9.992.379c1.681.054 3.37.105 5.067.151l.055-1.999c-1.694-.046-3.379-.097-5.057-.151l-.065 1.999zm10.02.274c1.636.037 3.279.069 4.929.097l.034-1.999c-1.647-.029-3.286-.061-4.918-.097l-.045 1.999zm9.901.171c1.665.02 3.337.037 5.017.049l.015-2c-1.677-.012-3.346-.029-5.007-.049l-.025 2zm10.078.074c.847.002 1.696.003 2.547.003v-2c-.849 0-1.697-.001-2.542-.003l-.005 2zM361 281c.866 0 1.728-.003 2.587-.008l-.012-2c-.855.005-1.713.008-2.575.008v2zm7.702-.07a409.79 409.79 0 005.038-.124l-.061-1.999c-1.658.051-3.329.092-5.013.123l.036 2zm9.999-.309c1.641-.071 3.269-.153 4.885-.245l-.113-1.996c-1.607.091-3.227.172-4.859.243l.087 1.998zm9.837-.559a361.47 361.47 0 005.105-.396l-.17-1.993c-1.677.143-3.368.274-5.075.394l.14 1.995zm10.122-.859c1.658-.166 3.302-.342 4.931-.53l-.229-1.987c-1.619.187-3.253.362-4.901.527l.199 1.99zm9.777-1.125c1.679-.219 3.344-.45 4.992-.693l-.291-1.979c-1.638.241-3.291.471-4.961.689l.26 1.983zm10.023-1.478c1.66-.274 3.304-.559 4.933-.857l-.36-1.967c-1.617.295-3.25.579-4.899.851l.326 1.973zm9.771-1.786c1.624-.326 3.232-.665 4.823-1.016l-.43-1.953c-1.58.348-3.176.684-4.788 1.009l.395 1.96zm9.81-2.166c1.644-.397 3.271-.806 4.879-1.228l-.508-1.935c-1.595.419-3.209.825-4.84 1.218l.469 1.945zm9.652-2.533a237.32 237.32 0 004.711-1.393l-.587-1.912c-1.539.473-3.096.933-4.671 1.381l.547 1.924zm9.585-2.95a220.723 220.723 0 004.757-1.639l-.673-1.883a222.247 222.247 0 01-4.714 1.624l.63 1.898zm9.398-3.359a202.931 202.931 0 004.61-1.833l-.761-1.849a208.666 208.666 0 01-4.566 1.815l.717 1.867zm9.294-3.83c1.54-.68 3.06-1.374 4.558-2.082l-.855-1.808c-1.482.7-2.986 1.387-4.511 2.06l.808 1.83zm8.99-4.247a182.431 182.431 0 004.474-2.333l-.949-1.76a185.613 185.613 0 01-4.426 2.308l.901 1.785zm8.887-4.791a175.503 175.503 0 004.279-2.543l-1.045-1.704a178.702 178.702 0 01-4.231 2.513l.997 1.734zm8.481-5.203a170.431 170.431 0 004.205-2.837l-1.143-1.641a166.484 166.484 0 01-4.156 2.804l1.094 1.674zm8.269-5.757a165.13 165.13 0 003.929-3.005l-1.239-1.57a163.744 163.744 0 01-3.881 2.968l1.191 1.607zm7.867-6.21a162.273 162.273 0 003.793-3.286l-1.333-1.492a157.992 157.992 0 01-3.746 3.246l1.286 1.532zm7.443-6.65a163.293 163.293 0 003.609-3.539l-1.423-1.406a157.142 157.142 0 01-3.564 3.495l1.378 1.45zm7.084-7.166a159.584 159.584 0 003.33-3.698l-1.507-1.315a160.027 160.027 0 01-3.289 3.652l1.466 1.361zm6.587-7.547c1.066-1.3 2.107-2.61 3.124-3.932l-1.585-1.22a164.473 164.473 0 01-3.085 3.884l1.546 1.268zm6.104-7.926a166.654 166.654 0 002.89-4.128l-1.655-1.122a162.685 162.685 0 01-2.856 4.078l1.621 1.172zm5.644-8.321a175.52 175.52 0 002.614-4.247l-1.719-1.024a168.42 168.42 0 01-2.583 4.198l1.688 1.073zm5.13-8.613a181.019 181.019 0 002.379-4.411l-1.774-.925a173.438 173.438 0 01-2.352 4.362l1.747.974zm4.628-8.873a187.77 187.77 0 002.141-4.552l-1.821-.827a183.751 183.751 0 01-2.118 4.503l1.798.876zm4.152-9.137c.651-1.54 1.281-3.085 1.89-4.634l-1.861-.732a197.781 197.781 0 01-1.871 4.587l1.842.779zm3.671-9.331c.572-1.57 1.124-3.143 1.656-4.718l-1.895-.64a205.708 205.708 0 01-1.64 4.672l1.879.686zm3.204-9.486c.499-1.601.978-3.203 1.438-4.806l-1.922-.552a221.094 221.094 0 01-1.425 4.763l1.909.595zm2.76-9.618c.428-1.625.836-3.249 1.226-4.873l-1.945-.467c-.387 1.61-.791 3.221-1.215 4.831l1.934.509zm2.343-9.755c.355-1.63.692-3.258 1.012-4.883l-1.962-.386a243.711 243.711 0 01-1.004 4.843l1.954.426zm1.935-9.83c.29-1.646.563-3.289.819-4.926l-1.976-.31a252.686 252.686 0 01-.813 4.888l1.97.348zm1.547-9.88a279.2 279.2 0 00.639-4.979l-1.986-.236a284.541 284.541 0 01-.634 4.943l1.981.272zm1.182-9.918c.17-1.682.325-3.356.464-5.02l-1.993-.167a284.689 284.689 0 01-.461 4.985l1.99.202zm.839-10a312.7 312.7 0 00.293-4.987l-1.998-.1c-.083 1.64-.179 3.29-.291 4.953l1.996.133zm.506-10.012c.057-1.662.101-3.31.132-4.945l-2-.038a318.89 318.89 0 01-.131 4.914l1.999.069zm.189-10.008c.006-1.675-.001-3.332-.02-4.971l-2 .023c.019 1.629.026 3.276.02 4.94l2 .008zm-.114-9.998a353.468 353.468 0 00-.168-4.994l-1.998.081c.066 1.632.122 3.287.166 4.965l2-.052zm-.407-9.986a353.6 353.6 0 00-.311-5.009l-1.996.139c.114 1.63.217 3.29.31 4.98l1.997-.11zm-.691-9.98a361.727 361.727 0 00-.453-4.998l-1.991.195c.158 1.616.309 3.273.451 4.97l1.993-.167zm-.976-9.98c-.19-1.697-.387-3.34-.587-4.926l-1.984.25a351.7 351.7 0 01.584 4.9l1.987-.224zm-1.261-9.957c-.244-1.722-.49-3.358-.733-4.904l-1.975.31c.241 1.536.485 3.163.727 4.875l1.981-.28zm-1.536-9.765a279.1 279.1 0 00-.905-4.95l-1.964.378c.278 1.443.581 3.086.899 4.914l1.97-.342z" fill="#715F7A"/></svg>