<svg width="76" height="76" viewBox="0 0 76 76" fill="none" xmlns="http://www.w3.org/2000/svg">
<path d="M38 4.75C19.6383 4.75 4.75 19.6383 4.75 38C4.75 56.3617 19.6383 71.25 38 71.25C56.3617 71.25 71.25 56.3617 71.25 38C71.25 19.6383 56.3617 4.75 38 4.75ZM48.6949 38.5121L32.4855 50.3055C32.3967 50.3693 32.2919 50.4074 32.1828 50.4156C32.0737 50.4239 31.9644 50.4018 31.867 50.352C31.7696 50.3021 31.6878 50.2264 31.6306 50.133C31.5735 50.0397 31.5431 49.9325 31.543 49.823V26.2512C31.5426 26.1415 31.5726 26.0339 31.6297 25.9403C31.6867 25.8466 31.7686 25.7706 31.8662 25.7207C31.9638 25.6707 32.0733 25.6488 32.1827 25.6573C32.292 25.6657 32.3968 25.7043 32.4855 25.7688L48.6949 37.5547C48.7715 37.6088 48.834 37.6806 48.8771 37.7639C48.9202 37.8472 48.9427 37.9396 48.9427 38.0334C48.9427 38.1272 48.9202 38.2196 48.8771 38.3029C48.834 38.3862 48.7715 38.458 48.6949 38.5121Z" fill="#E00C23"/>
</svg>
