<svg width="106" height="89" viewBox="0 0 106 89" fill="none" xmlns="http://www.w3.org/2000/svg">
<path d="M105.284 73.621L105.226 73.5626L105.292 73.4959L103.8 72.237L93.4284 62.5906C93.4284 62.5906 93.2449 62.7824 92.9448 63.0659L92.6696 63.366C90.3101 65.5838 82.7149 71.9785 73.8106 72.0952C73.6188 72.0952 73.4353 72.0952 73.2352 72.0952C68.5497 71.5866 63.9809 69.0688 59.3536 64.4082C51.6499 56.6711 43.1041 52.4774 33.8913 51.9022C33.6329 51.9022 33.3827 51.9022 33.1243 51.9022C31.7383 51.7791 30.3461 51.7429 28.9556 51.7938C15.0906 52.3607 4.77733 61.6652 1.28398 65.2503C0.550298 65.9423 0.100056 66.4175 0.00834549 66.5092L0.0666622 66.5676L0 66.6343L1.49242 67.8932L11.864 77.5312C11.864 77.5312 12.0475 77.3394 12.3477 77.0559L12.6228 76.7558C14.9906 74.5464 22.5775 68.1517 31.4818 68.0266C31.6736 68.0266 31.8653 68.0266 32.0571 68.0266C36.7427 68.5352 41.3116 71.0531 45.9471 75.7136C53.6425 83.4507 62.1883 87.6444 71.4011 88.2197C71.6595 88.2197 71.918 88.2197 72.1681 88.2197C73.5541 88.3425 74.9464 88.3787 76.3368 88.328C90.2018 87.7611 100.515 78.465 104.008 74.8799C104.742 74.1796 105.192 73.7043 105.284 73.6126" fill="#FFD100"/>
<path fill-rule="evenodd" clip-rule="evenodd" d="M76.987 18.261L96.6213 6.91385C96.6822 6.88482 96.7522 6.88077 96.8161 6.90258C96.88 6.9244 96.9328 6.97033 96.9633 7.03057C96.9781 7.06806 96.9781 7.1098 96.9633 7.14729V47.6585C96.9633 47.727 96.936 47.7928 96.8875 47.8412C96.8391 47.8897 96.7733 47.9169 96.7048 47.9169C96.6464 47.9169 96.6131 47.9169 96.5547 47.8586L76.9536 36.5448V42.2642C76.947 42.7268 76.7617 43.1689 76.4366 43.4981C76.2732 43.6605 76.0794 43.7889 75.8663 43.8762C75.6531 43.9635 75.4247 44.0078 75.1944 44.0067H30.723C30.4938 44.0078 30.2667 43.9635 30.0548 43.8763C29.8429 43.7891 29.6504 43.6608 29.4883 43.4988C29.3263 43.3368 29.198 43.1443 29.1109 42.9323C29.0237 42.7204 28.9794 42.4933 28.9805 42.2642V12.5249C28.988 12.0542 29.1691 11.6029 29.4891 11.2576C29.8002 10.9606 30.2097 10.7884 30.6396 10.774C39.1002 11.0616 47.3779 13.3137 54.8179 17.3522C56.8641 17.3523 58.8598 16.7171 60.5295 15.5343C62.1992 14.3515 63.4604 12.6794 64.139 10.749H75.2194C75.6839 10.7504 76.1296 10.9328 76.4617 11.2576C76.784 11.6021 76.9681 12.0533 76.9787 12.5249L76.987 18.261ZM40.0024 0.0605469C40.1554 1.92116 41.0026 3.65619 42.3757 4.92104C43.7488 6.18589 45.5475 6.88804 47.4144 6.88804C49.2813 6.88804 51.0798 6.18589 52.4529 4.92104C53.826 3.65619 54.6733 1.92116 54.8263 0.0605469C58.1708 1.73056 60.8533 4.48113 62.439 7.86642C64.0247 11.2517 64.4207 15.0733 63.5628 18.7118C62.7049 22.3503 60.6434 25.5925 57.7124 27.9128C54.7814 30.2331 51.1526 31.4956 47.4144 31.4956C43.6761 31.4956 40.0474 30.2331 37.1163 27.9128C34.1853 25.5925 32.1237 22.3503 31.2658 18.7118C30.4079 15.0733 30.804 11.2517 32.3897 7.86642C33.9755 4.48113 36.6579 1.73056 40.0024 0.0605469Z" fill="#FFD100"/>
</svg>
