<svg width="107" height="107" viewBox="0 0 107 107" fill="none" xmlns="http://www.w3.org/2000/svg">
<g clip-path="url(#clip0)">
<path d="M105.292 91.8361L105.234 91.786L105.301 91.7193L103.808 90.4604L93.4284 80.8224C93.4284 80.8224 93.2532 81.0142 92.9448 81.2977L92.6698 81.5895C90.302 83.8072 82.7149 90.2019 73.8106 90.327C73.6188 90.327 73.4271 90.327 73.2354 90.327C68.5498 89.8184 63.981 87.3089 59.3454 82.6483C51.65 74.9112 43.1042 70.7176 33.8914 70.1423C33.633 70.1423 33.3827 70.1423 33.1243 70.1423C31.7383 70.0194 30.3461 69.9832 28.9556 70.0339C15.0906 70.6008 4.77733 79.897 1.27564 83.482C0.550289 84.174 0.100056 84.6576 0.00834549 84.7493L0.0584184 84.7993L0 84.8744L1.49242 86.125L11.864 95.763L12.356 95.2877L12.6312 94.9876C14.9907 92.7698 22.5859 86.3751 31.4902 86.2584C31.6819 86.2584 31.8737 86.2584 32.0654 86.2584C36.751 86.767 41.32 89.2848 45.9472 93.9371C53.6509 101.674 62.1967 105.868 71.4095 106.443C71.668 106.443 71.918 106.443 72.1765 106.443C73.562 106.573 74.9546 106.612 76.3452 106.56C90.2102 105.985 100.523 96.6884 104.017 93.1033C104.742 92.4113 105.201 91.9361 105.292 91.8361Z" fill="#FFD100"/>
<path d="M60.8625 30.0137H51.6914V51.6908H60.8625V30.0137Z" fill="#FFD100"/>
<path d="M76.7023 30.0137H67.5312V51.6908H76.7023V30.0137Z" fill="#FFD100"/>
<path d="M92.5422 30.0137H83.3711V51.6908H92.5422V30.0137Z" fill="#FFD100"/>
<path d="M97.547 55.0273H45.8555V59.196H97.547V55.0273Z" fill="#FFD100"/>
<path d="M98.3808 24.1777H45.8555V26.6789H98.3808V24.1777Z" fill="#FFD100"/>
<path d="M103.382 60.8633H40.8516V65.032H103.382V60.8633Z" fill="#FFD100"/>
<path d="M45.8555 22.5111H98.3808L72.1109 7.50391L45.8555 22.5111Z" fill="#FFD100"/>
<path d="M71.7083 4.98221L102.886 23.3446L105.05 19.6387L71.7083 0L38.3516 19.6387L40.5157 23.3446L71.7083 4.98221Z" fill="#FFD100"/>
</g>
<defs>
<clipPath id="clip0">
<rect width="106.718" height="106.718" fill="white"/>
</clipPath>
</defs>
</svg>
