<svg width="22" height="7" viewBox="0 0 22 7" fill="none" xmlns="http://www.w3.org/2000/svg">
<path d="M22 4.18572L21.9878 4.17614L22 4.16336L21.6901 3.92068L19.5223 2.07502C19.5223 2.07502 19.484 2.11175 19.4213 2.16603L19.3638 2.22351C18.8693 2.6466 17.2848 3.87119 15.4252 3.89513C15.3852 3.89513 15.3452 3.89513 15.3051 3.89513C14.3266 3.79774 13.3724 3.31557 12.4043 2.42308C10.7972 0.935058 9.00894 0.131973 7.08492 0.0250015C7.03095 0.0250015 6.97697 0.0250015 6.92473 0.0250015C6.63529 0.00147412 6.34452 -0.00545748 6.05413 0.0042463C3.15679 0.112814 1.00467 1.89461 0.273368 2.58114C0.11666 2.71047 0.0226355 2.80307 0.0017412 2.81903L0.0121884 2.82861C0.00900944 2.83398 0.00489203 2.83884 0 2.84298L0.309933 3.08247L2.47772 4.92973L2.57871 4.83712L2.63617 4.77965C3.12893 4.35495 4.71516 3.13037 6.57475 3.10802C6.6148 3.10802 6.65311 3.10802 6.69315 3.10802C7.67345 3.20541 8.62588 3.68758 9.59399 4.58007C11.2028 6.06171 12.9876 6.86479 14.9116 6.97496C14.9638 6.97496 15.0178 6.97496 15.0718 6.97496C15.3612 6.99855 15.652 7.00548 15.9424 6.99571C18.8397 6.88714 20.9918 5.10695 21.7232 4.42041C21.8746 4.2863 21.9704 4.19529 21.9896 4.17614" fill="#5A2E91"/>
</svg>
